<svg width="49" height="49" viewBox="0 0 49 49" fill="none" xmlns="http://www.w3.org/2000/svg">
<g clip-path="url(#clip0_80_79)">
<mask id="mask0_80_79" style="mask-type:luminance" maskUnits="userSpaceOnUse" x="3" y="0" width="37" height="49">
<path d="M3 0H39.4995V48.988H3V0Z" fill="white"/>
</mask>
<g mask="url(#mask0_80_79)">
<path fill-rule="evenodd" clip-rule="evenodd" d="M15.5474 27.2882C14.4219 24.507 13.7562 21.3957 13.9537 18.386C14.0045 17.5821 14.1173 16.7782 14.2922 15.9912C14.4558 15.2268 14.8168 14.4483 14.8281 13.6613C14.8309 13.6021 14.8366 13.5287 14.8027 13.478C19.8885 21.2885 28.2801 19.4635 35.8763 21.627C39.0299 17.2662 40.8013 11.7122 38.3501 6.60387C36.3784 2.49972 32.1248 0.102108 27.637 0.00338319C20.6049 -0.148936 13.6349 4.86631 9.43207 10.1411C4.73275 16.0335 2.55515 23.6297 3.07416 31.1216C3.37034 35.3245 4.45067 39.6514 6.55493 43.3268C7.11626 44.3085 7.75092 45.2478 8.45328 46.1363C9.14153 46.9994 10.0724 47.7526 10.5716 48.7398C10.6083 48.816 10.6647 48.9034 10.6534 48.988C11.525 41.877 15.4374 37.8011 20.1508 34.3485C18.1904 32.3176 16.6164 29.92 15.5474 27.2882Z" fill="#24B2B9"/>
</g>
<path fill-rule="evenodd" clip-rule="evenodd" d="M37.3945 22.1204C36.8924 21.9342 36.3875 21.7706 35.8769 21.6268C35.2282 22.5237 34.5427 23.3841 33.8037 24.1654C29.7954 28.3626 24.6166 31.0762 20.1514 34.3482C21.8833 36.1422 23.9114 37.6485 26.1877 38.7288C30.5288 40.7851 36.5624 41.8118 41.0163 39.5129C43.8567 38.0462 45.8284 35.1803 45.8033 31.9337C45.7692 27.0707 41.6143 23.6774 37.3945 22.1204Z" fill="#F3474F"/>
<path fill-rule="evenodd" clip-rule="evenodd" d="M35.8766 21.6273C28.2804 19.461 19.8888 21.2888 14.803 13.4754C14.8369 13.529 14.8312 13.6024 14.8284 13.6616C14.8171 14.4486 14.4561 15.2243 14.2925 15.9915C14.1176 16.7785 14.0048 17.5796 13.954 18.3863C13.7565 21.396 14.4222 24.5073 15.5477 27.2885C16.6167 29.9174 18.1907 32.3179 20.1511 34.3488C24.6163 31.0768 29.7952 28.3632 33.8034 24.1632C34.5424 23.3846 35.2307 22.5215 35.8766 21.6273Z" fill="#23356A"/>
</g>
<defs>
<clipPath id="clip0_80_79">
<rect width="48.99" height="48.99" fill="white"/>
</clipPath>
</defs>
</svg>
