<svg width="282" height="145" viewBox="0 0 282 145" fill="none" xmlns="http://www.w3.org/2000/svg">
<path d="M138.7 44L145 24.6C145.1 24.2 144.9 23.7 144.5 23.6C144.1 23.5 143.6 23.7 143.5 24.1L137 44H138.7Z" fill="#44C8F5"/>
<path d="M122.4 89L116.2 108.1C116.1 108.5 116.3 109 116.7 109.1C116.8 109.1 116.9 109.1 116.9 109.1C117.2 109.1 117.6 108.9 117.7 108.5L124 89H122.4Z" fill="#44C8F5"/>
<path d="M33.5 38.4C33.5 35.2 35.5 33.1 38.3 33.1C41.1 33.1 43.1 35.2 43.1 38.4V51.4H43.2C45.2 48.9 48.9 48.1 51.9 48.1C59.4 48.1 65 52.9 65 61V79.3C65 82.5 63 84.6 60.2 84.6C57.4 84.6 55.4 82.5 55.4 79.3V62.6C55.4 58.2 52.6 56 49.2 56C45.3 56 43.1 58.9 43.1 62.6V79.3C43.1 82.5 41.1 84.6 38.3 84.6C35.5 84.6 33.5 82.5 33.5 79.3V38.4Z" fill="black"/>
<path d="M104.6 66.6C104.6 76.6 97.8 85 87.5 85C77.2 85 70.4 76.6 70.4 66.6C70.4 56.9 77.4 48.1 87.5 48.1C97.5 48.1 104.6 56.9 104.6 66.6ZM79.9 66.6C79.9 71.2 82.3 76.2 87.5 76.2C92.7 76.2 95.1 71.2 95.1 66.6C95.1 62 92.8 56.8 87.5 56.8C82.2 56.8 79.9 62 79.9 66.6Z" fill="black"/>
<path d="M107.6 56.8C106.9 54.9 106.6 53.7 106.6 52.3C106.6 50.2 108.6 48.5 111.4 48.5C113.7 48.5 115.4 50 115.9 52.3L121.4 70.5H121.5L127.1 52.7C127.8 50.1 129.2 48.5 131.9 48.5C134.7 48.5 136 50.1 136.7 52.7L142.3 70.5H142.4L147.9 52.3C148.4 50 150.1 48.5 152.4 48.5C155.2 48.5 157.2 50.2 157.2 53.1C157.2 54.2 156.7 55.2 156.3 56.7L148.1 79.7C147.1 82.5 145.4 84.5 142.3 84.5C139.4 84.5 137.7 82.8 136.8 80.1L132 64.7H131.9L127 80.1C126.1 82.9 124.4 84.5 121.5 84.5C118.4 84.5 116.7 82.4 115.7 79.7L107.6 56.8Z" fill="black"/>
<path d="M169.5 69.7C170.2 74.4 174.1 76.6 178.5 76.6C183.4 76.6 186.8 72.8 189.3 72.8C191.4 72.8 193.2 74.9 193.2 76.9C193.2 81 184.7 85 177.6 85C166.9 85 159.7 77.2 159.7 66.6C159.7 56.9 166.7 48.1 176.8 48.1C187.1 48.1 194 57.5 194 65.5C194 68.4 192.7 69.7 189.8 69.7H169.5ZM184.5 63.3C184 59.1 181.3 56 176.9 56C172.7 56 169.8 59.3 169.3 63.3H184.5Z" fill="black"/>
<path d="M218.9 59.2C217.1 59.2 213.5 56.4 210.3 56.4C208.6 56.4 207 57.2 207 59.1C207 63.5 223.6 62.9 223.6 73.8C223.6 80.2 218.2 85 210 85C204.6 85 196.7 81.9 196.7 77.6C196.7 76.1 198.2 73.4 200.8 73.4C204.5 73.4 206.2 76.7 210.7 76.7C213.6 76.7 214.5 75.8 214.5 74C214.5 69.6 197.9 70.3 197.9 59.3C197.9 52.7 203.3 48.2 210.8 48.2C215.5 48.2 222.7 50.4 222.7 55.1C222.8 57.2 221.1 59.2 218.9 59.2Z" fill="black"/>
<path d="M232 57.2H229.9C227.3 57.2 225.7 55.6 225.7 53C225.7 50.6 227.5 48.8 229.9 48.8H232V43.1C232 39.9 234 37.8 236.8 37.8C239.6 37.8 241.6 39.9 241.6 43.1V48.8H244.3C246.8 48.8 248.9 49.9 248.9 53C248.9 56 246.8 57.2 244.3 57.2H241.6V79.2C241.6 82.4 239.6 84.5 236.8 84.5C234 84.5 232 82.4 232 79.2V57.2Z" fill="black"/>
<path d="M144.6 97.8C144.6 95.9 143.2 95.1 142 95.1C140.8 95.1 139.4 95.9 139.4 97.8V103.8C139.4 104.4 139 104.8 138.5 104.8C138 104.8 137.6 104.4 137.6 103.8V89.7C137.6 89.1 138 88.7 138.5 88.7C139 88.7 139.4 89.1 139.4 89.7V95C140.2 94 141.4 93.5 142.5 93.5C144.2 93.5 146.3 94.6 146.3 97.7V103.8C146.3 104.4 145.9 104.8 145.4 104.8C144.9 104.8 144.5 104.4 144.5 103.8V97.8H144.6Z" fill="black"/>
<path d="M153.8 93.5C156.9 93.5 158.7 96.2 158.7 99.2C158.7 102.2 157 104.9 153.8 104.9C150.7 104.9 148.9 102.2 148.9 99.2C148.9 96.2 150.7 93.5 153.8 93.5ZM153.8 103.3C156 103.3 156.8 101.1 156.8 99.2C156.8 97.3 156 95.1 153.8 95.1C151.6 95.1 150.8 97.3 150.8 99.2C150.8 101.1 151.6 103.3 153.8 103.3Z" fill="black"/>
<path d="M170.2 103.9C170.2 107.2 168.2 109.2 165.2 109.2C163.3 109.2 161 108.1 161 107.2C161 106.8 161.2 106.3 161.8 106.3C162.6 106.3 163.4 107.6 165.4 107.6C167.7 107.6 168.4 105.8 168.4 104.2V103.2C167.8 104.2 166.8 104.8 165.6 104.8C162.5 104.8 160.7 102.1 160.7 99.1C160.7 96.1 162.4 93.4 165.6 93.4C166.8 93.4 167.9 94.1 168.4 94.8V94.3C168.4 93.7 168.9 93.4 169.4 93.4C169.8 93.4 170.3 93.6 170.3 94.3V103.9H170.2ZM165.5 103.3C167.7 103.3 168.5 101.1 168.5 99.2C168.5 97.3 167.7 95.1 165.5 95.1C163.3 95.1 162.5 97.3 162.5 99.2C162.5 101.1 163.3 103.3 165.5 103.3Z" fill="black"/>
<path d="M174.4 99.9C174.4 101.8 175.6 103.3 177.7 103.3C180.1 103.3 180.8 101.8 181.4 101.8C181.7 101.8 182.1 102.1 182.1 102.6C182.1 103.5 179.8 104.9 177.7 104.9C174.2 104.9 172.6 102.2 172.6 99.2C172.6 96.2 174.5 93.5 177.6 93.5C180.6 93.5 182.4 96.2 182.4 98.9C182.4 99.5 182.2 99.9 181.4 99.9H174.4ZM180.5 98.5C180.5 96.9 179.6 95.1 177.6 95.1C175.3 95 174.5 96.8 174.5 98.5H180.5Z" fill="black"/>
<path d="M188.1 93.5C189.6 93.5 191.8 94.3 191.8 95.5C191.8 95.9 191.5 96.2 191 96.2C190.2 96.2 189.9 95.1 188.2 95.1C187.2 95.1 186.3 95.6 186.3 96.5C186.3 98.4 192.2 98.2 192.2 101.4C192.2 103.7 190.2 104.8 188.2 104.8C185.9 104.8 184 103.6 184 102.7C184 102.2 184.4 101.9 184.7 101.9C185.5 101.9 186.2 103.3 188.2 103.3C189.5 103.3 190.3 102.6 190.3 101.8C190.3 99.6 184.4 99.8 184.4 96.7C184.4 94.6 186.3 93.5 188.1 93.5Z" fill="black"/>
<path d="M198.9 93.5C200.8 93.5 201.9 94.1 201.9 94.9C201.9 95.3 201.6 95.7 201.2 95.7C200.5 95.7 200.2 95.1 199 95.1C196.7 95.1 195.8 97.3 195.8 99.2C195.8 101.1 196.7 103.3 199 103.3C200.3 103.3 200.6 102.7 201.2 102.7C201.6 102.7 201.9 103 201.9 103.5C201.9 104.2 200.9 104.9 199 104.9C195.6 104.9 194 102.2 194 99.2C194 96.2 195.5 93.5 198.9 93.5Z" fill="black"/>
<path d="M211.1 97.8C211.1 95.9 209.7 95.1 208.5 95.1C207.3 95.1 205.9 95.9 205.9 97.8V103.8C205.9 104.4 205.5 104.8 205 104.8C204.5 104.8 204.1 104.4 204.1 103.8V89.7C204.1 89.1 204.5 88.7 205 88.7C205.5 88.7 205.9 89.1 205.9 89.7V95C206.7 94 207.9 93.5 209 93.5C210.7 93.5 212.8 94.6 212.8 97.7V103.8C212.8 104.4 212.4 104.8 211.9 104.8C211.4 104.8 211 104.4 211 103.8V97.8H211.1Z" fill="black"/>
<path d="M220.3 93.5C223.4 93.5 225.2 96.2 225.2 99.2C225.2 102.2 223.5 104.9 220.3 104.9C217.2 104.9 215.4 102.2 215.4 99.2C215.4 96.2 217.2 93.5 220.3 93.5ZM220.3 103.3C222.5 103.3 223.3 101.1 223.3 99.2C223.3 97.3 222.5 95.1 220.3 95.1C218.1 95.1 217.3 97.3 217.3 99.2C217.3 101.1 218.1 103.3 220.3 103.3Z" fill="black"/>
<path d="M232 93.5C235.1 93.5 236.9 96.2 236.9 99.2C236.9 102.2 235.2 104.9 232 104.9C228.9 104.9 227.1 102.2 227.1 99.2C227.1 96.2 228.9 93.5 232 93.5ZM232 103.3C234.2 103.3 235 101.1 235 99.2C235 97.3 234.2 95.1 232 95.1C229.8 95.1 229 97.3 229 99.2C229 101.1 229.8 103.3 232 103.3Z" fill="black"/>
<path d="M241.2 103.9C241.2 104.5 240.8 104.9 240.3 104.9C239.8 104.9 239.4 104.5 239.4 103.9V89.7C239.4 89.1 239.8 88.7 240.3 88.7C240.8 88.7 241.2 89.1 241.2 89.7V103.9Z" fill="black"/>
</svg>
