<svg width="282" height="145" viewBox="0 0 282 145" fill="none" xmlns="http://www.w3.org/2000/svg">
<path d="M138.7 44.1L145 24.7C145.1 24.3 144.9 23.8 144.5 23.7C144.1 23.6 143.6 23.8 143.5 24.2L137 44.1H138.7Z" fill="white"/>
<path d="M122.4 89.1L116.2 108.2C116.1 108.6 116.3 109.1 116.7 109.2C116.8 109.2 116.9 109.2 116.9 109.2C117.2 109.2 117.6 109 117.7 108.6L124 89.1H122.4Z" fill="white"/>
<path d="M33.5 38.5C33.5 35.3 35.5 33.2 38.3 33.2C41.1 33.2 43.1 35.3 43.1 38.5V51.5H43.2C45.2 49 48.9 48.2 51.9 48.2C59.4 48.2 65 53 65 61.1V79.4C65 82.6 63 84.7 60.2 84.7C57.4 84.7 55.4 82.6 55.4 79.4V62.7C55.4 58.3 52.6 56.1 49.2 56.1C45.3 56.1 43.1 59 43.1 62.7V79.4C43.1 82.6 41.1 84.7 38.3 84.7C35.5 84.7 33.5 82.6 33.5 79.4V38.5Z" fill="white"/>
<path d="M104.6 66.7C104.6 76.7 97.8 85.1 87.5 85.1C77.2 85.1 70.4 76.7 70.4 66.7C70.4 57 77.4 48.2 87.5 48.2C97.5 48.2 104.6 57 104.6 66.7ZM79.9 66.7C79.9 71.3 82.3 76.3 87.5 76.3C92.7 76.3 95.1 71.3 95.1 66.7C95.1 62.1 92.8 56.9 87.5 56.9C82.2 56.9 79.9 62.1 79.9 66.7Z" fill="white"/>
<path d="M107.6 56.9C106.9 55 106.6 53.8 106.6 52.4C106.6 50.3 108.6 48.6 111.4 48.6C113.7 48.6 115.4 50.1 115.9 52.4L121.4 70.6H121.5L127.1 52.8C127.8 50.2 129.2 48.6 131.9 48.6C134.7 48.6 136 50.2 136.7 52.8L142.3 70.6H142.4L147.9 52.4C148.4 50.1 150.1 48.6 152.4 48.6C155.2 48.6 157.2 50.3 157.2 53.2C157.2 54.3 156.7 55.3 156.3 56.8L148.1 79.8C147.1 82.6 145.4 84.6 142.3 84.6C139.4 84.6 137.7 82.9 136.8 80.2L132 64.8H131.9L127 80.2C126.1 83 124.4 84.6 121.5 84.6C118.4 84.6 116.7 82.5 115.7 79.8L107.6 56.9Z" fill="white"/>
<path d="M169.5 69.8C170.2 74.5 174.1 76.7 178.5 76.7C183.4 76.7 186.8 72.9 189.3 72.9C191.4 72.9 193.2 75 193.2 77C193.2 81.1 184.7 85.1 177.6 85.1C166.9 85.1 159.7 77.3 159.7 66.7C159.7 57 166.7 48.2 176.8 48.2C187.1 48.2 194 57.6 194 65.6C194 68.5 192.7 69.8 189.8 69.8H169.5ZM184.5 63.4C184 59.2 181.3 56.1 176.9 56.1C172.7 56.1 169.8 59.4 169.3 63.4H184.5Z" fill="white"/>
<path d="M218.9 59.3C217.1 59.3 213.5 56.5 210.3 56.5C208.6 56.5 207 57.3 207 59.2C207 63.6 223.6 63 223.6 73.9C223.6 80.3 218.2 85.1 210 85.1C204.6 85.1 196.7 82 196.7 77.7C196.7 76.2 198.2 73.5 200.8 73.5C204.5 73.5 206.2 76.8 210.7 76.8C213.6 76.8 214.5 75.9 214.5 74.1C214.5 69.7 197.9 70.4 197.9 59.4C197.9 52.8 203.3 48.3 210.8 48.3C215.5 48.3 222.7 50.5 222.7 55.2C222.8 57.3 221.1 59.3 218.9 59.3Z" fill="white"/>
<path d="M232 57.3H229.9C227.3 57.3 225.7 55.7 225.7 53.1C225.7 50.7 227.5 48.9 229.9 48.9H232V43.2C232 40 234 37.9 236.8 37.9C239.6 37.9 241.6 40 241.6 43.2V48.9H244.3C246.8 48.9 248.9 50 248.9 53.1C248.9 56.1 246.8 57.3 244.3 57.3H241.6V79.3C241.6 82.5 239.6 84.6 236.8 84.6C234 84.6 232 82.5 232 79.3V57.3Z" fill="white"/>
<path d="M144.6 97.9C144.6 96 143.2 95.2 142 95.2C140.8 95.2 139.4 96 139.4 97.9V103.9C139.4 104.5 139 104.9 138.5 104.9C138 104.9 137.6 104.5 137.6 103.9V89.8C137.6 89.2 138 88.8 138.5 88.8C139 88.8 139.4 89.2 139.4 89.8V95.1C140.2 94.1 141.4 93.6 142.5 93.6C144.2 93.6 146.3 94.7 146.3 97.8V103.9C146.3 104.5 145.9 104.9 145.4 104.9C144.9 104.9 144.5 104.5 144.5 103.9V97.9H144.6Z" fill="white"/>
<path d="M153.8 93.6C156.9 93.6 158.7 96.3 158.7 99.3C158.7 102.3 157 105 153.8 105C150.7 105 148.9 102.3 148.9 99.3C148.9 96.3 150.7 93.6 153.8 93.6ZM153.8 103.4C156 103.4 156.8 101.2 156.8 99.3C156.8 97.4 156 95.2 153.8 95.2C151.6 95.2 150.8 97.4 150.8 99.3C150.8 101.2 151.6 103.4 153.8 103.4Z" fill="white"/>
<path d="M170.2 104C170.2 107.3 168.2 109.3 165.2 109.3C163.3 109.3 161 108.2 161 107.3C161 106.9 161.2 106.4 161.8 106.4C162.6 106.4 163.4 107.7 165.4 107.7C167.7 107.7 168.4 105.9 168.4 104.3V103.3C167.8 104.3 166.8 104.9 165.6 104.9C162.5 104.9 160.7 102.2 160.7 99.2C160.7 96.2 162.4 93.5 165.6 93.5C166.8 93.5 167.9 94.2 168.4 94.9V94.4C168.4 93.8 168.9 93.5 169.4 93.5C169.8 93.5 170.3 93.7 170.3 94.4V104H170.2ZM165.5 103.4C167.7 103.4 168.5 101.2 168.5 99.3C168.5 97.4 167.7 95.2 165.5 95.2C163.3 95.2 162.5 97.4 162.5 99.3C162.5 101.2 163.3 103.4 165.5 103.4Z" fill="white"/>
<path d="M174.4 100C174.4 101.9 175.6 103.4 177.7 103.4C180.1 103.4 180.8 101.9 181.4 101.9C181.7 101.9 182.1 102.2 182.1 102.7C182.1 103.6 179.8 105 177.7 105C174.2 105 172.6 102.3 172.6 99.3C172.6 96.3 174.5 93.6 177.6 93.6C180.6 93.6 182.4 96.3 182.4 99C182.4 99.6 182.2 100 181.4 100H174.4ZM180.5 98.6C180.5 97 179.6 95.2 177.6 95.2C175.3 95.1 174.5 96.9 174.5 98.6H180.5Z" fill="white"/>
<path d="M188.1 93.6C189.6 93.6 191.8 94.4 191.8 95.6C191.8 96 191.5 96.3 191 96.3C190.2 96.3 189.9 95.2 188.2 95.2C187.2 95.2 186.3 95.7 186.3 96.6C186.3 98.5 192.2 98.3 192.2 101.5C192.2 103.8 190.2 104.9 188.2 104.9C185.9 104.9 184 103.7 184 102.8C184 102.3 184.4 102 184.7 102C185.5 102 186.2 103.4 188.2 103.4C189.5 103.4 190.3 102.7 190.3 101.9C190.3 99.7 184.4 99.9 184.4 96.8C184.4 94.7 186.3 93.6 188.1 93.6Z" fill="white"/>
<path d="M198.9 93.6C200.8 93.6 201.9 94.2 201.9 95C201.9 95.4 201.6 95.8 201.2 95.8C200.5 95.8 200.2 95.2 199 95.2C196.7 95.2 195.8 97.4 195.8 99.3C195.8 101.2 196.7 103.4 199 103.4C200.3 103.4 200.6 102.8 201.2 102.8C201.6 102.8 201.9 103.1 201.9 103.6C201.9 104.3 200.9 105 199 105C195.6 105 194 102.3 194 99.3C194 96.3 195.5 93.6 198.9 93.6Z" fill="white"/>
<path d="M211.1 97.9C211.1 96 209.7 95.2 208.5 95.2C207.3 95.2 205.9 96 205.9 97.9V103.9C205.9 104.5 205.5 104.9 205 104.9C204.5 104.9 204.1 104.5 204.1 103.9V89.8C204.1 89.2 204.5 88.8 205 88.8C205.5 88.8 205.9 89.2 205.9 89.8V95.1C206.7 94.1 207.9 93.6 209 93.6C210.7 93.6 212.8 94.7 212.8 97.8V103.9C212.8 104.5 212.4 104.9 211.9 104.9C211.4 104.9 211 104.5 211 103.9V97.9H211.1Z" fill="white"/>
<path d="M220.3 93.6C223.4 93.6 225.2 96.3 225.2 99.3C225.2 102.3 223.5 105 220.3 105C217.2 105 215.4 102.3 215.4 99.3C215.4 96.3 217.2 93.6 220.3 93.6ZM220.3 103.4C222.5 103.4 223.3 101.2 223.3 99.3C223.3 97.4 222.5 95.2 220.3 95.2C218.1 95.2 217.3 97.4 217.3 99.3C217.3 101.2 218.1 103.4 220.3 103.4Z" fill="white"/>
<path d="M232 93.6C235.1 93.6 236.9 96.3 236.9 99.3C236.9 102.3 235.2 105 232 105C228.9 105 227.1 102.3 227.1 99.3C227.1 96.3 228.9 93.6 232 93.6ZM232 103.4C234.2 103.4 235 101.2 235 99.3C235 97.4 234.2 95.2 232 95.2C229.8 95.2 229 97.4 229 99.3C229 101.2 229.8 103.4 232 103.4Z" fill="white"/>
<path d="M241.2 104C241.2 104.6 240.8 105 240.3 105C239.8 105 239.4 104.6 239.4 104V89.8C239.4 89.2 239.8 88.8 240.3 88.8C240.8 88.8 241.2 89.2 241.2 89.8V104Z" fill="white"/>
</svg>
