<svg width="228" height="51" viewBox="0 0 228 51" fill="none" xmlns="http://www.w3.org/2000/svg">
<mask id="mask0_5_119" style="mask-type:luminance" maskUnits="userSpaceOnUse" x="0" y="0" width="38" height="51">
<path d="M0 0H37.7229V50.63H0V0Z" fill="white"/>
</mask>
<g mask="url(#mask0_5_119)">
<path fill-rule="evenodd" clip-rule="evenodd" d="M12.968 28.2029C11.8048 25.3284 11.1168 22.1129 11.3209 19.0023C11.3733 18.1714 11.4899 17.3406 11.6707 16.5272C11.8398 15.7372 12.2129 14.9326 12.2246 14.1192C12.2275 14.058 12.2333 13.9822 12.1984 13.9297C17.4546 22.0021 26.1275 20.1159 33.9783 22.3519C37.2376 17.8449 39.0684 12.1048 36.535 6.82522C34.4972 2.58351 30.101 0.105531 25.4628 0.00349659C18.1951 -0.153928 10.9914 5.02941 6.64769 10.481C1.79085 16.571 -0.459731 24.4218 0.0766777 32.1647C0.382781 36.5085 1.49933 40.9805 3.67412 44.7791C4.25425 45.7936 4.91019 46.7644 5.63609 47.6827C6.34741 48.5747 7.30945 49.3531 7.82545 50.3735C7.86335 50.4522 7.92166 50.5425 7.91 50.63C8.81081 43.2806 12.8543 39.0681 17.7257 35.4998C15.6996 33.4008 14.0729 30.9228 12.968 28.2029Z" fill="#24B2B9"/>
</g>
<path fill-rule="evenodd" clip-rule="evenodd" d="M35.5473 22.8618C35.0284 22.6694 34.5065 22.5003 33.9789 22.3516C33.3084 23.2787 32.5999 24.1678 31.8361 24.9754C27.6935 29.3133 22.3411 32.1178 17.7263 35.4995C19.5162 37.3536 21.6123 38.9103 23.9649 40.0269C28.4515 42.1521 34.6873 43.2133 39.2905 40.8373C42.2262 39.3214 44.2639 36.3595 44.2379 33.004C44.2027 27.9781 39.9085 24.471 35.5473 22.8618Z" fill="#F3474F"/>
<path fill-rule="evenodd" clip-rule="evenodd" d="M33.9786 22.3522C26.1278 20.1133 17.4548 22.0024 12.1986 13.9271C12.2336 13.9825 12.2278 14.0583 12.2249 14.1195C12.2132 14.9329 11.84 15.7346 11.671 16.5275C11.4902 17.3409 11.3736 18.1688 11.3211 19.0026C11.1171 22.1132 11.8051 25.3287 12.9682 28.2032C14.0731 30.9202 15.6999 33.4011 17.726 35.5001C22.3408 32.1184 27.6933 29.3139 31.8358 24.9731C32.5996 24.1685 33.311 23.2764 33.9786 22.3522Z" fill="#23356A"/>
<path fill-rule="evenodd" clip-rule="evenodd" d="M112.941 29.8485C113.607 27.2253 115.995 26.2857 118.106 26.2857C120.181 26.2857 122.491 27.1503 123.039 29.8485H112.941ZM118.031 21.7114C111.258 21.7114 106.993 26.6022 106.993 32.276C106.993 38.0281 111.378 42.684 118.576 42.684C121.16 42.684 123.858 42.0967 126.168 40.4132C127.225 39.6301 127.3 38.5763 126.52 37.6366L126.087 37.0885C125.346 36.188 124.485 36.1097 123.427 36.697C121.9 37.5551 120.416 37.9107 118.967 37.9107C115.091 37.9107 112.706 35.6007 112.784 33.2124H126.795C127.966 33.2124 128.752 32.7067 128.71 31.568C128.436 25.1535 123.744 21.7114 118.031 21.7114Z" fill="#23356A"/>
<path fill-rule="evenodd" clip-rule="evenodd" d="M71.1599 37.556H61.3L71.4731 26.639C72.1387 25.8983 72.3736 25.2328 72.3736 24.2931V24.019C72.3736 22.8053 71.708 22.1397 70.4943 22.1397H54.9997C53.786 22.1397 53.1204 22.8053 53.1204 24.019V24.9587C53.1204 26.1724 53.786 26.8347 54.9997 26.8347H63.7242L53.5119 37.7909C52.8463 38.5381 52.6082 39.2004 52.6082 40.14V40.375C52.6082 41.5854 53.277 42.251 54.4907 42.251H71.1599C72.3736 42.251 73.0359 41.5854 73.0784 40.375V39.4353C73.0784 38.2216 72.3736 37.556 71.1599 37.556Z" fill="#23356A"/>
<path fill-rule="evenodd" clip-rule="evenodd" d="M103.688 22.1411H101.108C100.011 22.1411 99.3066 22.6109 98.9966 23.743L95.8644 34.0728L92.8105 24.2912C92.4973 23.1949 91.7926 22.6892 90.6996 22.6892H90.1123C89.016 22.6892 88.3113 23.1949 87.9948 24.2912L84.9866 34.0728L81.8152 23.743C81.502 22.6109 80.8364 22.1411 79.701 22.1411H77.1169C75.7107 22.1411 75.0843 23.0024 75.5933 24.3303L81.4237 40.7254C81.7761 41.7858 82.4808 42.2524 83.5771 42.2524H85.2607C86.3569 42.2524 87.0976 41.7466 87.4108 40.6895L90.4255 31.0254L93.3978 40.6895C93.7502 41.7466 94.4549 42.2524 95.5512 42.2524H97.2315C98.3278 42.2524 99.0325 41.7858 99.3849 40.7254L105.254 24.3303C105.724 23.0024 105.098 22.1411 103.688 22.1411Z" fill="#23356A"/>
<path fill-rule="evenodd" clip-rule="evenodd" d="M216.261 37.8301C213.132 37.8301 211.253 35.3243 211.253 32.1954C211.253 29.1056 213.132 26.5607 216.261 26.5607C219.351 26.5607 221.387 28.9881 221.426 32.1954C221.387 35.4059 219.351 37.8301 216.261 37.8301ZM225.495 13.9634H223.227C222.013 13.9634 221.308 14.629 221.308 15.8394V24.9946C219.863 22.727 217.514 21.7123 214.891 21.7123C209.217 21.7123 205.184 26.2866 205.184 32.1954C205.184 38.1465 209.217 42.6817 214.891 42.6817C217.514 42.6817 219.863 41.667 221.308 39.4353V40.375C221.308 41.5854 222.013 42.251 223.227 42.251H225.495C226.708 42.251 227.374 41.5854 227.374 40.375V15.8394C227.374 14.629 226.708 13.9634 225.495 13.9634Z" fill="#23356A"/>
<path fill-rule="evenodd" clip-rule="evenodd" d="M178.558 22.4151H175.038V20.34C175.038 18.8914 175.7 18.03 176.953 18.03C177.893 18.03 178.633 18.5782 178.633 19.3221V19.557C178.633 19.9485 178.95 20.2617 179.456 20.2617H182.278C182.783 20.2617 183.136 19.9877 183.214 19.5178C183.253 19.3221 183.292 19.0871 183.292 18.8914C183.292 15.1752 180.085 13.5308 176.561 13.5308C173.194 13.5308 169.126 14.9794 169.126 21.1231V22.4151H167.328C166.702 22.4151 166.349 22.7642 166.349 23.3939V25.6615C166.349 26.2879 166.702 26.6403 167.328 26.6403H169.126V28.8231V31.1265V34.4316C169.126 34.4316 169.109 34.4969 169.109 34.523C169.087 34.5882 169.083 34.6633 169.054 34.7285C169.025 34.8199 168.966 34.9113 168.914 35.0059C168.411 35.8085 167.387 36.386 166.215 36.386C165.452 36.386 164.764 36.1315 164.222 35.7465C164.101 35.6584 163.997 35.5638 163.909 35.4692C163.84 35.4007 163.788 35.3256 163.726 35.2571C163.383 34.7383 163.374 34.2163 163.374 34.2163L163.37 31.1004C163.37 31.0808 163.377 31.0678 163.377 31.0515V30.6339C163.377 30.5882 163.37 30.5425 163.37 30.5001V30.4414H163.367C163.305 25.7855 161.116 21.6353 155.98 21.6353C153.713 21.6353 151.403 22.141 149.527 25.1166C148.235 22.6141 146 21.6353 143.693 21.6353C141.191 21.6353 139.037 22.9632 138.254 25.2732V23.942C138.254 22.7283 137.588 22.066 136.375 22.066H134.068C132.854 22.066 132.189 22.7283 132.189 23.942V40.298C132.189 41.5117 132.854 42.1773 134.068 42.1773H136.375C137.588 42.1773 138.254 41.5117 138.254 40.298V31.8084C138.254 28.0531 140.094 26.562 141.895 26.562C143.693 26.562 144.75 28.0889 144.75 30.9079V40.298C144.75 41.5117 145.416 42.1773 146.629 42.1773H148.939C150.15 42.1773 150.815 41.5117 150.815 40.298V31.6094C150.894 27.9323 152.734 26.562 154.418 26.562C156.186 26.562 157.263 28.0531 157.298 30.7741V33.9553C157.298 38.5329 161.299 42.2621 166.215 42.2621C171.132 42.2621 175.129 38.5329 175.129 33.9553L175.149 31.133C175.149 31.1298 175.152 31.1298 175.152 31.1265V26.6403H178.558C179.181 26.6403 179.537 26.2879 179.537 25.6615V23.3939C179.537 22.7642 179.181 22.4151 178.558 22.4151Z" fill="#23356A"/>
<path fill-rule="evenodd" clip-rule="evenodd" d="M187.174 29.8485C187.84 27.2253 190.228 26.2857 192.339 26.2857C194.414 26.2857 196.724 27.1503 197.272 29.8485H187.174ZM192.264 21.7114C185.491 21.7114 181.226 26.6022 181.226 32.276C181.226 38.0281 185.611 42.684 192.809 42.684C195.393 42.684 198.091 42.0967 200.401 40.4132C201.458 39.6301 201.533 38.5763 200.753 37.6366L200.32 37.0885C199.579 36.188 198.718 36.1097 197.66 36.697C196.133 37.5551 194.649 37.9107 193.2 37.9107C189.324 37.9107 186.939 35.6007 187.017 33.2124H201.028C202.199 33.2124 202.985 32.7067 202.943 31.568C202.669 25.1535 197.977 21.7114 192.264 21.7114Z" fill="#23356A"/>
</svg>
