<svg width="153" height="50" viewBox="0 0 153 50" fill="none" xmlns="http://www.w3.org/2000/svg">
<path d="M42.2908 24.4545V15.4545H44.0806V16.554H44.1616C44.2411 16.3778 44.3562 16.1989 44.5067 16.017C44.6602 15.8324 44.859 15.679 45.1033 15.5568C45.3505 15.4318 45.6573 15.3693 46.0238 15.3693C46.5011 15.3693 46.9414 15.4943 47.3448 15.7443C47.7482 15.9915 48.0707 16.3651 48.3121 16.8651C48.5536 17.3622 48.6744 17.9858 48.6744 18.7358C48.6744 19.4659 48.5565 20.0824 48.3207 20.5852C48.0877 21.0852 47.7695 21.4645 47.3661 21.723C46.9656 21.9787 46.5167 22.1065 46.0195 22.1065C45.6673 22.1065 45.3675 22.0483 45.1204 21.9318C44.8761 21.8153 44.6758 21.669 44.5195 21.4929C44.3633 21.3139 44.244 21.1335 44.1616 20.9517H44.1062V24.4545H42.2908ZM44.0678 18.7273C44.0678 19.1165 44.1218 19.456 44.2298 19.7457C44.3377 20.0355 44.494 20.2614 44.6985 20.4233C44.9031 20.5824 45.1516 20.6619 45.4442 20.6619C45.7397 20.6619 45.9897 20.581 46.1942 20.419C46.3988 20.2543 46.5536 20.027 46.6587 19.7372C46.7667 19.4446 46.8207 19.108 46.8207 18.7273C46.8207 18.3494 46.7681 18.017 46.663 17.7301C46.5579 17.4432 46.4031 17.2187 46.1985 17.0568C45.994 16.8949 45.7425 16.8139 45.4442 16.8139C45.1488 16.8139 44.8988 16.892 44.6942 17.0483C44.4925 17.2045 44.3377 17.4261 44.2298 17.7131C44.1218 18 44.0678 18.3381 44.0678 18.7273ZM51.6999 13.2727V22H49.8846V13.2727H51.6999ZM55.0206 22.1236C54.603 22.1236 54.2308 22.0511 53.9041 21.9062C53.5774 21.7585 53.3189 21.5412 53.1286 21.2543C52.9411 20.9645 52.8473 20.6037 52.8473 20.1719C52.8473 19.8082 52.9141 19.5028 53.0476 19.2557C53.1811 19.0085 53.3629 18.8097 53.593 18.6591C53.8232 18.5085 54.0845 18.3949 54.3771 18.3182C54.6726 18.2415 54.9822 18.1875 55.3061 18.1562C55.6868 18.1165 55.9936 18.0795 56.2266 18.0455C56.4595 18.0085 56.6286 17.9545 56.7337 17.8835C56.8388 17.8125 56.8913 17.7074 56.8913 17.5682V17.5426C56.8913 17.2727 56.8061 17.0639 56.6357 16.9162C56.468 16.7685 56.2294 16.6946 55.9197 16.6946C55.593 16.6946 55.3331 16.767 55.1399 16.9119C54.9467 17.054 54.8189 17.233 54.7564 17.4489L53.0774 17.3125C53.1626 16.9148 53.3303 16.571 53.5803 16.2812C53.8303 15.9886 54.1527 15.7642 54.5476 15.608C54.9453 15.4489 55.4055 15.3693 55.9283 15.3693C56.2919 15.3693 56.6399 15.4119 56.9723 15.4972C57.3075 15.5824 57.6044 15.7145 57.8629 15.8935C58.1243 16.0724 58.3303 16.3026 58.4808 16.5838C58.6314 16.8622 58.7067 17.196 58.7067 17.5852V22H56.9851V21.0923H56.9339C56.8288 21.2969 56.6882 21.4773 56.5121 21.6335C56.3359 21.7869 56.1243 21.9077 55.8771 21.9957C55.63 22.081 55.3445 22.1236 55.0206 22.1236ZM55.5405 20.8707C55.8075 20.8707 56.0433 20.8182 56.2479 20.7131C56.4524 20.6051 56.6129 20.4602 56.7294 20.2784C56.8459 20.0966 56.9041 19.8906 56.9041 19.6605V18.9659C56.8473 19.0028 56.7692 19.0369 56.6697 19.0682C56.5732 19.0966 56.4638 19.1236 56.3416 19.1491C56.2195 19.1719 56.0973 19.1932 55.9751 19.2131C55.853 19.2301 55.7422 19.2457 55.6428 19.2599C55.4297 19.2912 55.2436 19.3409 55.0845 19.4091C54.9254 19.4773 54.8018 19.5696 54.7138 19.6861C54.6257 19.7997 54.5817 19.9418 54.5817 20.1122C54.5817 20.3594 54.6712 20.5483 54.8501 20.679C55.032 20.8068 55.2621 20.8707 55.5405 20.8707ZM63.0724 22.1278C62.402 22.1278 61.8253 21.9858 61.3423 21.7017C60.8622 21.4148 60.4929 21.017 60.2344 20.5085C59.9787 20 59.8509 19.4148 59.8509 18.7528C59.8509 18.0824 59.9801 17.4943 60.2386 16.9886C60.5 16.4801 60.8707 16.0838 61.3509 15.7997C61.831 15.5128 62.402 15.3693 63.0639 15.3693C63.6349 15.3693 64.1349 15.473 64.5639 15.6804C64.9929 15.8878 65.3324 16.179 65.5824 16.554C65.8324 16.929 65.9702 17.3693 65.9957 17.875H64.2827C64.2344 17.5483 64.1065 17.2855 63.8991 17.0866C63.6946 16.8849 63.4261 16.7841 63.0938 16.7841C62.8125 16.7841 62.5668 16.8608 62.3565 17.0142C62.1491 17.1648 61.9872 17.3849 61.8707 17.6747C61.7543 17.9645 61.696 18.3153 61.696 18.7273C61.696 19.1449 61.7528 19.5 61.8665 19.7926C61.983 20.0852 62.1463 20.3082 62.3565 20.4616C62.5668 20.6151 62.8125 20.6918 63.0938 20.6918C63.3011 20.6918 63.4872 20.6491 63.652 20.5639C63.8196 20.4787 63.9574 20.3551 64.0653 20.1932C64.1761 20.0284 64.2486 19.831 64.2827 19.6009H65.9957C65.9673 20.1009 65.831 20.5412 65.5866 20.9219C65.3452 21.2997 65.0114 21.5952 64.5852 21.8082C64.1591 22.0213 63.6548 22.1278 63.0724 22.1278ZM70.141 22.1278C69.4677 22.1278 68.8881 21.9915 68.4023 21.7188C67.9194 21.4432 67.5472 21.054 67.2859 20.5511C67.0245 20.0455 66.8938 19.4474 66.8938 18.7571C66.8938 18.0838 67.0245 17.4929 67.2859 16.9844C67.5472 16.4759 67.9151 16.0795 68.3896 15.7955C68.8668 15.5114 69.4265 15.3693 70.0685 15.3693C70.5004 15.3693 70.9023 15.4389 71.2745 15.5781C71.6495 15.7145 71.9762 15.9205 72.2546 16.196C72.5359 16.4716 72.7546 16.8182 72.9109 17.2358C73.0671 17.6506 73.1452 18.1364 73.1452 18.6932V19.1918H67.6183V18.0668H71.4364C71.4364 17.8054 71.3796 17.5739 71.266 17.3722C71.1523 17.1705 70.9947 17.0128 70.793 16.8991C70.5941 16.7827 70.3626 16.7244 70.0984 16.7244C69.8228 16.7244 69.5785 16.7884 69.3654 16.9162C69.1552 17.0412 68.9904 17.2102 68.8711 17.4233C68.7518 17.6335 68.6907 17.8679 68.6879 18.1264V19.196C68.6879 19.5199 68.7475 19.7997 68.8668 20.0355C68.989 20.2713 69.1609 20.4531 69.3825 20.581C69.604 20.7088 69.8668 20.7727 70.1708 20.7727C70.3725 20.7727 70.5572 20.7443 70.7248 20.6875C70.8924 20.6307 71.0359 20.5455 71.1552 20.4318C71.2745 20.3182 71.3654 20.179 71.4279 20.0142L73.1069 20.125C73.0217 20.5284 72.8469 20.8807 72.5827 21.1818C72.3214 21.4801 71.9833 21.7131 71.5685 21.8807C71.1566 22.0455 70.6808 22.1278 70.141 22.1278ZM76.1452 18.2159V22H74.3299V13.2727H76.0941V16.6094H76.1708C76.3185 16.223 76.5572 15.9205 76.8867 15.7017C77.2163 15.4801 77.6296 15.3693 78.1268 15.3693C78.5813 15.3693 78.9776 15.4688 79.3157 15.6676C79.6566 15.8636 79.9208 16.1463 80.1083 16.5156C80.2987 16.8821 80.3924 17.321 80.3896 17.8324V22H78.5742V18.1562C78.5771 17.7528 78.4748 17.4389 78.2674 17.2145C78.0629 16.9901 77.7759 16.8778 77.4066 16.8778C77.1594 16.8778 76.9407 16.9304 76.7504 17.0355C76.5629 17.1406 76.4151 17.294 76.3072 17.4957C76.2021 17.6946 76.1481 17.9347 76.1452 18.2159ZM84.7756 22.1278C84.1136 22.1278 83.5412 21.9872 83.0582 21.706C82.5781 21.4219 82.2074 21.027 81.946 20.5213C81.6847 20.0128 81.554 19.4233 81.554 18.7528C81.554 18.0767 81.6847 17.4858 81.946 16.9801C82.2074 16.4716 82.5781 16.0767 83.0582 15.7955C83.5412 15.5114 84.1136 15.3693 84.7756 15.3693C85.4375 15.3693 86.0085 15.5114 86.4886 15.7955C86.9716 16.0767 87.3438 16.4716 87.6051 16.9801C87.8665 17.4858 87.9972 18.0767 87.9972 18.7528C87.9972 19.4233 87.8665 20.0128 87.6051 20.5213C87.3438 21.027 86.9716 21.4219 86.4886 21.706C86.0085 21.9872 85.4375 22.1278 84.7756 22.1278ZM84.7841 20.7216C85.0852 20.7216 85.3366 20.6364 85.5384 20.4659C85.7401 20.2926 85.892 20.0568 85.9943 19.7585C86.0994 19.4602 86.152 19.1207 86.152 18.7401C86.152 18.3594 86.0994 18.0199 85.9943 17.7216C85.892 17.4233 85.7401 17.1875 85.5384 17.0142C85.3366 16.8409 85.0852 16.7543 84.7841 16.7543C84.4801 16.7543 84.2244 16.8409 84.017 17.0142C83.8125 17.1875 83.6577 17.4233 83.5526 17.7216C83.4503 18.0199 83.3991 18.3594 83.3991 18.7401C83.3991 19.1207 83.4503 19.4602 83.5526 19.7585C83.6577 20.0568 83.8125 20.2926 84.017 20.4659C84.2244 20.6364 84.4801 20.7216 84.7841 20.7216ZM90.9929 13.2727V22H89.1776V13.2727H90.9929ZM94.859 22.1065C94.3619 22.1065 93.9116 21.9787 93.5082 21.723C93.1076 21.4645 92.7894 21.0852 92.5536 20.5852C92.3207 20.0824 92.2042 19.4659 92.2042 18.7358C92.2042 17.9858 92.3249 17.3622 92.5664 16.8651C92.8079 16.3651 93.1289 15.9915 93.5295 15.7443C93.9329 15.4943 94.3746 15.3693 94.8548 15.3693C95.2212 15.3693 95.5266 15.4318 95.771 15.5568C96.0181 15.679 96.217 15.8324 96.3675 16.017C96.521 16.1989 96.6374 16.3778 96.717 16.554H96.7724V13.2727H98.5835V22H96.7937V20.9517H96.717C96.6317 21.1335 96.511 21.3139 96.3548 21.4929C96.2013 21.669 96.0011 21.8153 95.7539 21.9318C95.5096 22.0483 95.2113 22.1065 94.859 22.1065ZM95.4343 20.6619C95.7269 20.6619 95.9741 20.5824 96.1758 20.4233C96.3803 20.2614 96.5366 20.0355 96.6445 19.7457C96.7553 19.456 96.8107 19.1165 96.8107 18.7273C96.8107 18.3381 96.7567 18 96.6488 17.7131C96.5408 17.4261 96.3846 17.2045 96.18 17.0483C95.9755 16.892 95.7269 16.8139 95.4343 16.8139C95.136 16.8139 94.8846 16.8949 94.68 17.0568C94.4755 17.2187 94.3207 17.4432 94.2156 17.7301C94.1104 18.017 94.0579 18.3494 94.0579 18.7273C94.0579 19.108 94.1104 19.4446 94.2156 19.7372C94.3235 20.027 94.4783 20.2543 94.68 20.419C94.8846 20.581 95.136 20.6619 95.4343 20.6619ZM103.059 22.1278C102.386 22.1278 101.806 21.9915 101.32 21.7188C100.837 21.4432 100.465 21.054 100.204 20.5511C99.9425 20.0455 99.8118 19.4474 99.8118 18.7571C99.8118 18.0838 99.9425 17.4929 100.204 16.9844C100.465 16.4759 100.833 16.0795 101.308 15.7955C101.785 15.5114 102.344 15.3693 102.987 15.3693C103.418 15.3693 103.82 15.4389 104.192 15.5781C104.567 15.7145 104.894 15.9205 105.173 16.196C105.454 16.4716 105.673 16.8182 105.829 17.2358C105.985 17.6506 106.063 18.1364 106.063 18.6932V19.1918H100.536V18.0668H104.354C104.354 17.8054 104.298 17.5739 104.184 17.3722C104.07 17.1705 103.913 17.0128 103.711 16.8991C103.512 16.7827 103.281 16.7244 103.016 16.7244C102.741 16.7244 102.496 16.7884 102.283 16.9162C102.073 17.0412 101.908 17.2102 101.789 17.4233C101.67 17.6335 101.609 17.8679 101.606 18.1264V19.196C101.606 19.5199 101.665 19.7997 101.785 20.0355C101.907 20.2713 102.079 20.4531 102.3 20.581C102.522 20.7088 102.785 20.7727 103.089 20.7727C103.29 20.7727 103.475 20.7443 103.643 20.6875C103.81 20.6307 103.954 20.5455 104.073 20.4318C104.192 20.3182 104.283 20.179 104.346 20.0142L106.025 20.125C105.94 20.5284 105.765 20.8807 105.501 21.1818C105.239 21.4801 104.901 21.7131 104.487 21.8807C104.075 22.0455 103.599 22.1278 103.059 22.1278ZM107.248 22V15.4545H109.008V16.5966H109.076C109.195 16.1903 109.396 15.8835 109.677 15.6761C109.958 15.4659 110.282 15.3608 110.648 15.3608C110.739 15.3608 110.837 15.3665 110.942 15.3778C111.048 15.3892 111.14 15.4048 111.219 15.4247V17.0355C111.134 17.0099 111.016 16.9872 110.866 16.9673C110.715 16.9474 110.577 16.9375 110.452 16.9375C110.185 16.9375 109.947 16.9957 109.737 17.1122C109.529 17.2259 109.364 17.3849 109.242 17.5895C109.123 17.794 109.063 18.0298 109.063 18.2969V22H107.248ZM16.3658 32.321L14.7038 32.4233C14.6754 32.2812 14.6143 32.1534 14.5206 32.0398C14.4268 31.9233 14.3033 31.831 14.1499 31.7628C13.9993 31.6918 13.8189 31.6562 13.6087 31.6562C13.3274 31.6562 13.0902 31.7159 12.897 31.8352C12.7038 31.9517 12.6072 32.108 12.6072 32.304C12.6072 32.4602 12.6697 32.5923 12.7947 32.7003C12.9197 32.8082 13.1342 32.8949 13.4382 32.9602L14.6229 33.1989C15.2592 33.3295 15.7337 33.5398 16.0462 33.8295C16.3587 34.1193 16.5149 34.5 16.5149 34.9716C16.5149 35.4006 16.3885 35.777 16.1357 36.1009C15.8857 36.4247 15.5419 36.6776 15.1044 36.8594C14.6697 37.0384 14.1683 37.1278 13.6001 37.1278C12.7337 37.1278 12.0433 36.9474 11.5291 36.5866C11.0178 36.223 10.718 35.7287 10.63 35.1037L12.4155 35.0099C12.4695 35.2741 12.6001 35.4759 12.8075 35.6151C13.0149 35.7514 13.2805 35.8196 13.6044 35.8196C13.9226 35.8196 14.1783 35.7585 14.3714 35.6364C14.5675 35.5114 14.6669 35.3509 14.6697 35.1548C14.6669 34.9901 14.5973 34.8551 14.4609 34.75C14.3246 34.642 14.1143 34.5597 13.8303 34.5028L12.6967 34.277C12.0575 34.1491 11.5817 33.9276 11.2692 33.6122C10.9595 33.2969 10.8047 32.8949 10.8047 32.4062C10.8047 31.9858 10.9183 31.6236 11.1456 31.3196C11.3757 31.0156 11.6982 30.7812 12.1129 30.6165C12.5305 30.4517 13.0192 30.3693 13.5788 30.3693C14.4055 30.3693 15.0561 30.544 15.5305 30.8935C16.0078 31.2429 16.2862 31.7187 16.3658 32.321ZM17.658 39.4545V30.4545H19.4478V31.554H19.5288C19.6083 31.3778 19.7234 31.1989 19.8739 31.017C20.0273 30.8324 20.2262 30.679 20.4705 30.5568C20.7177 30.4318 21.0245 30.3693 21.391 30.3693C21.8683 30.3693 22.3086 30.4943 22.712 30.7443C23.1154 30.9915 23.4379 31.3651 23.6793 31.8651C23.9208 32.3622 24.0415 32.9858 24.0415 33.7358C24.0415 34.4659 23.9237 35.0824 23.6879 35.5852C23.4549 36.0852 23.1367 36.4645 22.7333 36.723C22.3327 36.9787 21.8839 37.1065 21.3867 37.1065C21.0344 37.1065 20.7347 37.0483 20.4876 36.9318C20.2433 36.8153 20.043 36.669 19.8867 36.4929C19.7305 36.3139 19.6112 36.1335 19.5288 35.9517H19.4734V39.4545H17.658ZM19.435 33.7273C19.435 34.1165 19.489 34.456 19.5969 34.7457C19.7049 35.0355 19.8612 35.2614 20.0657 35.4233C20.2702 35.5824 20.5188 35.6619 20.8114 35.6619C21.1069 35.6619 21.3569 35.581 21.5614 35.419C21.766 35.2543 21.9208 35.027 22.0259 34.7372C22.1339 34.4446 22.1879 34.108 22.1879 33.7273C22.1879 33.3494 22.1353 33.017 22.0302 32.7301C21.9251 32.4432 21.7702 32.2187 21.5657 32.0568C21.3612 31.8949 21.1097 31.8139 20.8114 31.8139C20.516 31.8139 20.266 31.892 20.0614 32.0483C19.8597 32.2045 19.7049 32.4261 19.5969 32.7131C19.489 33 19.435 33.3381 19.435 33.7273ZM28.2092 37.1278C27.5472 37.1278 26.9748 36.9872 26.4918 36.706C26.0117 36.4219 25.641 36.027 25.3796 35.5213C25.1183 35.0128 24.9876 34.4233 24.9876 33.7528C24.9876 33.0767 25.1183 32.4858 25.3796 31.9801C25.641 31.4716 26.0117 31.0767 26.4918 30.7955C26.9748 30.5114 27.5472 30.3693 28.2092 30.3693C28.8711 30.3693 29.4421 30.5114 29.9222 30.7955C30.4052 31.0767 30.7773 31.4716 31.0387 31.9801C31.3001 32.4858 31.4308 33.0767 31.4308 33.7528C31.4308 34.4233 31.3001 35.0128 31.0387 35.5213C30.7773 36.027 30.4052 36.4219 29.9222 36.706C29.4421 36.9872 28.8711 37.1278 28.2092 37.1278ZM28.2177 35.7216C28.5188 35.7216 28.7702 35.6364 28.9719 35.4659C29.1737 35.2926 29.3256 35.0568 29.4279 34.7585C29.533 34.4602 29.5856 34.1207 29.5856 33.7401C29.5856 33.3594 29.533 33.0199 29.4279 32.7216C29.3256 32.4233 29.1737 32.1875 28.9719 32.0142C28.7702 31.8409 28.5188 31.7543 28.2177 31.7543C27.9137 31.7543 27.658 31.8409 27.4506 32.0142C27.2461 32.1875 27.0913 32.4233 26.9862 32.7216C26.8839 33.0199 26.8327 33.3594 26.8327 33.7401C26.8327 34.1207 26.8839 34.4602 26.9862 34.7585C27.0913 35.0568 27.2461 35.2926 27.4506 35.4659C27.658 35.6364 27.9137 35.7216 28.2177 35.7216ZM32.6112 37V30.4545H34.3711V31.5966H34.4393C34.5586 31.1903 34.7589 30.8835 35.0401 30.6761C35.3214 30.4659 35.6452 30.3608 36.0117 30.3608C36.1026 30.3608 36.2006 30.3665 36.3058 30.3778C36.4109 30.3892 36.5032 30.4048 36.5827 30.4247V32.0355C36.4975 32.0099 36.3796 31.9872 36.229 31.9673C36.0785 31.9474 35.9407 31.9375 35.8157 31.9375C35.5487 31.9375 35.31 31.9957 35.0998 32.1122C34.8924 32.2259 34.7276 32.3849 34.6055 32.5895C34.4862 32.794 34.4265 33.0298 34.4265 33.2969V37H32.6112ZM41.331 30.4545V31.8182H37.3892V30.4545H41.331ZM38.2841 28.8864H40.0994V34.9886C40.0994 35.1562 40.125 35.2869 40.1761 35.3807C40.2273 35.4716 40.2983 35.5355 40.3892 35.5724C40.483 35.6094 40.5909 35.6278 40.7131 35.6278C40.7983 35.6278 40.8835 35.6207 40.9688 35.6065C41.054 35.5895 41.1193 35.5767 41.1648 35.5682L41.4503 36.919C41.3594 36.9474 41.2315 36.9801 41.0668 37.017C40.902 37.0568 40.7017 37.081 40.4659 37.0895C40.0284 37.1065 39.6449 37.0483 39.3153 36.9148C38.9886 36.7812 38.7344 36.5739 38.5526 36.2926C38.3707 36.0114 38.2813 35.6562 38.2841 35.2273V28.8864ZM42.5135 37V30.4545H44.3288V37H42.5135ZM43.4254 29.6108C43.1555 29.6108 42.924 29.5213 42.7308 29.3423C42.5405 29.1605 42.4453 28.9432 42.4453 28.6903C42.4453 28.4403 42.5405 28.2259 42.7308 28.0469C42.924 27.8651 43.1555 27.7741 43.4254 27.7741C43.6953 27.7741 43.9254 27.8651 44.1158 28.0469C44.3089 28.2259 44.4055 28.4403 44.4055 28.6903C44.4055 28.9432 44.3089 29.1605 44.1158 29.3423C43.9254 29.5213 43.6953 29.6108 43.4254 29.6108ZM47.5984 33.2159V37H45.783V30.4545H47.5131V31.6094H47.5898C47.7347 31.2287 47.9776 30.9276 48.3185 30.706C48.6594 30.4815 49.0728 30.3693 49.5586 30.3693C50.0131 30.3693 50.4094 30.4688 50.7475 30.6676C51.0856 30.8665 51.3484 31.1506 51.5359 31.5199C51.7234 31.8864 51.8171 32.3239 51.8171 32.8324V37H50.0018V33.1562C50.0046 32.7557 49.9023 32.4432 49.695 32.2188C49.4876 31.9915 49.2021 31.8778 48.8384 31.8778C48.5941 31.8778 48.3782 31.9304 48.1907 32.0355C48.006 32.1406 47.8612 32.294 47.756 32.4957C47.6538 32.6946 47.6012 32.9347 47.5984 33.2159ZM55.0632 33.2159V37H53.2479V30.4545H54.978V31.6094H55.0547C55.1996 31.2287 55.4425 30.9276 55.7834 30.706C56.1243 30.4815 56.5376 30.3693 57.0234 30.3693C57.478 30.3693 57.8743 30.4688 58.2124 30.6676C58.5504 30.8665 58.8132 31.1506 59.0007 31.5199C59.1882 31.8864 59.282 32.3239 59.282 32.8324V37H57.4666V33.1562C57.4695 32.7557 57.3672 32.4432 57.1598 32.2188C56.9524 31.9915 56.6669 31.8778 56.3033 31.8778C56.0589 31.8778 55.843 31.9304 55.6555 32.0355C55.4709 32.1406 55.326 32.294 55.2209 32.4957C55.1186 32.6946 55.0661 32.9347 55.0632 33.2159ZM63.6701 37.1278C63.0082 37.1278 62.4357 36.9872 61.9528 36.706C61.4727 36.4219 61.1019 36.027 60.8406 35.5213C60.5792 35.0128 60.4485 34.4233 60.4485 33.7528C60.4485 33.0767 60.5792 32.4858 60.8406 31.9801C61.1019 31.4716 61.4727 31.0767 61.9528 30.7955C62.4357 30.5114 63.0082 30.3693 63.6701 30.3693C64.332 30.3693 64.9031 30.5114 65.3832 30.7955C65.8661 31.0767 66.2383 31.4716 66.4996 31.9801C66.761 32.4858 66.8917 33.0767 66.8917 33.7528C66.8917 34.4233 66.761 35.0128 66.4996 35.5213C66.2383 36.027 65.8661 36.4219 65.3832 36.706C64.9031 36.9872 64.332 37.1278 63.6701 37.1278ZM63.6786 35.7216C63.9798 35.7216 64.2312 35.6364 64.4329 35.4659C64.6346 35.2926 64.7866 35.0568 64.8888 34.7585C64.994 34.4602 65.0465 34.1207 65.0465 33.7401C65.0465 33.3594 64.994 33.0199 64.8888 32.7216C64.7866 32.4233 64.6346 32.1875 64.4329 32.0142C64.2312 31.8409 63.9798 31.7543 63.6786 31.7543C63.3746 31.7543 63.119 31.8409 62.9116 32.0142C62.707 32.1875 62.5522 32.4233 62.4471 32.7216C62.3448 33.0199 62.2937 33.3594 62.2937 33.7401C62.2937 34.1207 62.3448 34.4602 62.4471 34.7585C62.5522 35.0568 62.707 35.2926 62.9116 35.4659C63.119 35.6364 63.3746 35.7216 63.6786 35.7216ZM73.9634 30.4545L71.6751 37H69.6296L67.3413 30.4545H69.2589L70.6183 35.1378H70.6864L72.0415 30.4545H73.9634ZM76.5831 37.1236C76.1655 37.1236 75.7933 37.0511 75.4666 36.9062C75.1399 36.7585 74.8814 36.5412 74.6911 36.2543C74.5036 35.9645 74.4098 35.6037 74.4098 35.1719C74.4098 34.8082 74.4766 34.5028 74.6101 34.2557C74.7436 34.0085 74.9254 33.8097 75.1555 33.6591C75.3857 33.5085 75.647 33.3949 75.9396 33.3182C76.2351 33.2415 76.5447 33.1875 76.8686 33.1562C77.2493 33.1165 77.5561 33.0795 77.7891 33.0455C78.022 33.0085 78.1911 32.9545 78.2962 32.8835C78.4013 32.8125 78.4538 32.7074 78.4538 32.5682V32.5426C78.4538 32.2727 78.3686 32.0639 78.1982 31.9162C78.0305 31.7685 77.7919 31.6946 77.4822 31.6946C77.1555 31.6946 76.8956 31.767 76.7024 31.9119C76.5092 32.054 76.3814 32.233 76.3189 32.4489L74.6399 32.3125C74.7251 31.9148 74.8928 31.571 75.1428 31.2812C75.3928 30.9886 75.7152 30.7642 76.1101 30.608C76.5078 30.4489 76.968 30.3693 77.4908 30.3693C77.8544 30.3693 78.2024 30.4119 78.5348 30.4972C78.87 30.5824 79.1669 30.7145 79.4254 30.8935C79.6868 31.0724 79.8928 31.3026 80.0433 31.5838C80.1939 31.8622 80.2692 32.196 80.2692 32.5852V37H78.5476V36.0923H78.4964C78.3913 36.2969 78.2507 36.4773 78.0746 36.6335C77.8984 36.7869 77.6868 36.9077 77.4396 36.9957C77.1925 37.081 76.907 37.1236 76.5831 37.1236ZM77.103 35.8707C77.37 35.8707 77.6058 35.8182 77.8104 35.7131C78.0149 35.6051 78.1754 35.4602 78.2919 35.2784C78.4084 35.0966 78.4666 34.8906 78.4666 34.6605V33.9659C78.4098 34.0028 78.3317 34.0369 78.2322 34.0682C78.1357 34.0966 78.0263 34.1236 77.9041 34.1491C77.782 34.1719 77.6598 34.1932 77.5376 34.2131C77.4155 34.2301 77.3047 34.2457 77.2053 34.2599C76.9922 34.2912 76.8061 34.3409 76.647 34.4091C76.4879 34.4773 76.3643 34.5696 76.2763 34.6861C76.1882 34.7997 76.1442 34.9418 76.1442 35.1122C76.1442 35.3594 76.2337 35.5483 76.4126 35.679C76.5945 35.8068 76.8246 35.8707 77.103 35.8707ZM85.1591 30.4545V31.8182H81.2173V30.4545H85.1591ZM82.1122 28.8864H83.9276V34.9886C83.9276 35.1562 83.9531 35.2869 84.0043 35.3807C84.0554 35.4716 84.1264 35.5355 84.2173 35.5724C84.3111 35.6094 84.419 35.6278 84.5412 35.6278C84.6264 35.6278 84.7116 35.6207 84.7969 35.6065C84.8821 35.5895 84.9474 35.5767 84.9929 35.5682L85.2784 36.919C85.1875 36.9474 85.0597 36.9801 84.8949 37.017C84.7301 37.0568 84.5298 37.081 84.294 37.0895C83.8565 37.1065 83.473 37.0483 83.1435 36.9148C82.8168 36.7812 82.5625 36.5739 82.3807 36.2926C82.1989 36.0114 82.1094 35.6562 82.1122 35.2273V28.8864ZM86.3416 37V30.4545H88.157V37H86.3416ZM87.2536 29.6108C86.9837 29.6108 86.7521 29.5213 86.5589 29.3423C86.3686 29.1605 86.2734 28.9432 86.2734 28.6903C86.2734 28.4403 86.3686 28.2259 86.5589 28.0469C86.7521 27.8651 86.9837 27.7741 87.2536 27.7741C87.5234 27.7741 87.7536 27.8651 87.9439 28.0469C88.1371 28.2259 88.2337 28.4403 88.2337 28.6903C88.2337 28.9432 88.1371 29.1605 87.9439 29.3423C87.7536 29.5213 87.5234 29.6108 87.2536 29.6108ZM92.5941 37.1278C91.9208 37.1278 91.3413 36.9915 90.8555 36.7188C90.3725 36.4432 90.0004 36.054 89.739 35.5511C89.4776 35.0455 89.3469 34.4474 89.3469 33.7571C89.3469 33.0838 89.4776 32.4929 89.739 31.9844C90.0004 31.4759 90.3683 31.0795 90.8427 30.7955C91.32 30.5114 91.8796 30.3693 92.5217 30.3693C92.9535 30.3693 93.3555 30.4389 93.7276 30.5781C94.1026 30.7145 94.4293 30.9205 94.7077 31.196C94.989 31.4716 95.2077 31.8182 95.364 32.2358C95.5202 32.6506 95.5984 33.1364 95.5984 33.6932V34.1918H90.0714V33.0668H93.8896C93.8896 32.8054 93.8327 32.5739 93.7191 32.3722C93.6055 32.1705 93.4478 32.0128 93.2461 31.8991C93.0472 31.7827 92.8157 31.7244 92.5515 31.7244C92.2759 31.7244 92.0316 31.7884 91.8185 31.9162C91.6083 32.0412 91.4435 32.2102 91.3242 32.4233C91.2049 32.6335 91.1438 32.8679 91.141 33.1264V34.196C91.141 34.5199 91.2006 34.7997 91.32 35.0355C91.4421 35.2713 91.614 35.4531 91.8356 35.581C92.0572 35.7088 92.32 35.7727 92.6239 35.7727C92.8256 35.7727 93.0103 35.7443 93.1779 35.6875C93.3455 35.6307 93.489 35.5455 93.6083 35.4318C93.7276 35.3182 93.8185 35.179 93.881 35.0142L95.56 35.125C95.4748 35.5284 95.3001 35.8807 95.0359 36.1818C94.7745 36.4801 94.4364 36.7131 94.0217 36.8807C93.6097 37.0455 93.1339 37.1278 92.5941 37.1278ZM99.7404 37.1278C99.07 37.1278 98.4933 36.9858 98.0103 36.7017C97.5302 36.4148 97.1609 36.017 96.9023 35.5085C96.6467 35 96.5188 34.4148 96.5188 33.7528C96.5188 33.0824 96.6481 32.4943 96.9066 31.9886C97.168 31.4801 97.5387 31.0838 98.0188 30.7997C98.4989 30.5128 99.07 30.3693 99.7319 30.3693C100.303 30.3693 100.803 30.473 101.232 30.6804C101.661 30.8878 102 31.179 102.25 31.554C102.5 31.929 102.638 32.3693 102.664 32.875H100.951C100.902 32.5483 100.775 32.2855 100.567 32.0866C100.363 31.8849 100.094 31.7841 99.7617 31.7841C99.4805 31.7841 99.2347 31.8608 99.0245 32.0142C98.8171 32.1648 98.6552 32.3849 98.5387 32.6747C98.4222 32.9645 98.364 33.3153 98.364 33.7273C98.364 34.1449 98.4208 34.5 98.5344 34.7926C98.6509 35.0852 98.8143 35.3082 99.0245 35.4616C99.2347 35.6151 99.4805 35.6918 99.7617 35.6918C99.9691 35.6918 100.155 35.6491 100.32 35.5639C100.488 35.4787 100.625 35.3551 100.733 35.1932C100.844 35.0284 100.917 34.831 100.951 34.6009H102.664C102.635 35.1009 102.499 35.5412 102.255 35.9219C102.013 36.2997 101.679 36.5952 101.253 36.8082C100.827 37.0213 100.323 37.1278 99.7404 37.1278ZM105.692 37.1236C105.275 37.1236 104.903 37.0511 104.576 36.9062C104.249 36.7585 103.991 36.5412 103.8 36.2543C103.613 35.9645 103.519 35.6037 103.519 35.1719C103.519 34.8082 103.586 34.5028 103.719 34.2557C103.853 34.0085 104.035 33.8097 104.265 33.6591C104.495 33.5085 104.756 33.3949 105.049 33.3182C105.344 33.2415 105.654 33.1875 105.978 33.1562C106.359 33.1165 106.665 33.0795 106.898 33.0455C107.131 33.0085 107.3 32.9545 107.406 32.8835C107.511 32.8125 107.563 32.7074 107.563 32.5682V32.5426C107.563 32.2727 107.478 32.0639 107.308 31.9162C107.14 31.7685 106.901 31.6946 106.592 31.6946C106.265 31.6946 106.005 31.767 105.812 31.9119C105.619 32.054 105.491 32.233 105.428 32.4489L103.749 32.3125C103.835 31.9148 104.002 31.571 104.252 31.2812C104.502 30.9886 104.825 30.7642 105.219 30.608C105.617 30.4489 106.077 30.3693 106.6 30.3693C106.964 30.3693 107.312 30.4119 107.644 30.4972C107.979 30.5824 108.276 30.7145 108.535 30.8935C108.796 31.0724 109.002 31.3026 109.153 31.5838C109.303 31.8622 109.379 32.196 109.379 32.5852V37H107.657V36.0923H107.606C107.501 36.2969 107.36 36.4773 107.184 36.6335C107.008 36.7869 106.796 36.9077 106.549 36.9957C106.302 37.081 106.016 37.1236 105.692 37.1236ZM106.212 35.8707C106.479 35.8707 106.715 35.8182 106.92 35.7131C107.124 35.6051 107.285 35.4602 107.401 35.2784C107.518 35.0966 107.576 34.8906 107.576 34.6605V33.9659C107.519 34.0028 107.441 34.0369 107.342 34.0682C107.245 34.0966 107.136 34.1236 107.013 34.1491C106.891 34.1719 106.769 34.1932 106.647 34.2131C106.525 34.2301 106.414 34.2457 106.315 34.2599C106.102 34.2912 105.915 34.3409 105.756 34.4091C105.597 34.4773 105.474 34.5696 105.386 34.6861C105.298 34.7997 105.254 34.9418 105.254 35.1122C105.254 35.3594 105.343 35.5483 105.522 35.679C105.704 35.8068 105.934 35.8707 106.212 35.8707ZM110.787 37V30.4545H112.517V31.6094H112.594C112.73 31.2259 112.957 30.9233 113.276 30.7017C113.594 30.4801 113.974 30.3693 114.418 30.3693C114.866 30.3693 115.249 30.4815 115.564 30.706C115.879 30.9276 116.089 31.2287 116.195 31.6094H116.263C116.396 31.2344 116.638 30.9347 116.987 30.7102C117.339 30.483 117.756 30.3693 118.236 30.3693C118.847 30.3693 119.342 30.5639 119.723 30.9531C120.107 31.3395 120.298 31.8878 120.298 32.598V37H118.487V32.956C118.487 32.5923 118.391 32.3196 118.197 32.1378C118.004 31.956 117.763 31.8651 117.473 31.8651C117.143 31.8651 116.886 31.9702 116.702 32.1804C116.517 32.3878 116.425 32.6619 116.425 33.0028V37H114.665V32.9176C114.665 32.5966 114.572 32.3409 114.388 32.1506C114.206 31.9602 113.966 31.8651 113.668 31.8651C113.466 31.8651 113.284 31.9162 113.122 32.0185C112.963 32.1179 112.837 32.2585 112.743 32.4403C112.649 32.6193 112.602 32.8295 112.602 33.071V37H110.787ZM121.732 39.4545V30.4545H123.522V31.554H123.603C123.683 31.3778 123.798 31.1989 123.948 31.017C124.102 30.8324 124.3 30.679 124.545 30.5568C124.792 30.4318 125.099 30.3693 125.465 30.3693C125.942 30.3693 126.383 30.4943 126.786 30.7443C127.19 30.9915 127.512 31.3651 127.754 31.8651C127.995 32.3622 128.116 32.9858 128.116 33.7358C128.116 34.4659 127.998 35.0824 127.762 35.5852C127.529 36.0852 127.211 36.4645 126.808 36.723C126.407 36.9787 125.958 37.1065 125.461 37.1065C125.109 37.1065 124.809 37.0483 124.562 36.9318C124.317 36.8153 124.117 36.669 123.961 36.4929C123.805 36.3139 123.685 36.1335 123.603 35.9517H123.548V39.4545H121.732ZM123.509 33.7273C123.509 34.1165 123.563 34.456 123.671 34.7457C123.779 35.0355 123.935 35.2614 124.14 35.4233C124.344 35.5824 124.593 35.6619 124.886 35.6619C125.181 35.6619 125.431 35.581 125.636 35.419C125.84 35.2543 125.995 35.027 126.1 34.7372C126.208 34.4446 126.262 34.108 126.262 33.7273C126.262 33.3494 126.21 33.017 126.104 32.7301C125.999 32.4432 125.844 32.2187 125.64 32.0568C125.435 31.8949 125.184 31.8139 124.886 31.8139C124.59 31.8139 124.34 31.892 124.136 32.0483C123.934 32.2045 123.779 32.4261 123.671 32.7131C123.563 33 123.509 33.3381 123.509 33.7273ZM133.523 34.2131V30.4545H135.339V37H133.596V35.8111H133.528C133.38 36.1946 133.134 36.5028 132.79 36.7358C132.45 36.9687 132.033 37.0852 131.542 37.0852C131.104 37.0852 130.719 36.9858 130.387 36.7869C130.055 36.5881 129.795 36.3054 129.607 35.9389C129.423 35.5724 129.329 35.1335 129.326 34.6222V30.4545H131.141V34.2983C131.144 34.6847 131.248 34.9901 131.452 35.2145C131.657 35.4389 131.931 35.5511 132.275 35.5511C132.494 35.5511 132.698 35.5014 132.888 35.402C133.079 35.2997 133.232 35.1491 133.349 34.9503C133.468 34.7514 133.526 34.5057 133.523 34.2131ZM142.237 32.321L140.575 32.4233C140.547 32.2812 140.485 32.1534 140.392 32.0398C140.298 31.9233 140.174 31.831 140.021 31.7628C139.87 31.6918 139.69 31.6562 139.48 31.6562C139.199 31.6562 138.961 31.7159 138.768 31.8352C138.575 31.9517 138.478 32.108 138.478 32.304C138.478 32.4602 138.541 32.5923 138.666 32.7003C138.791 32.8082 139.005 32.8949 139.309 32.9602L140.494 33.1989C141.13 33.3295 141.605 33.5398 141.917 33.8295C142.23 34.1193 142.386 34.5 142.386 34.9716C142.386 35.4006 142.26 35.777 142.007 36.1009C141.757 36.4247 141.413 36.6776 140.975 36.8594C140.541 37.0384 140.039 37.1278 139.471 37.1278C138.605 37.1278 137.914 36.9474 137.4 36.5866C136.889 36.223 136.589 35.7287 136.501 35.1037L138.287 35.0099C138.341 35.2741 138.471 35.4759 138.679 35.6151C138.886 35.7514 139.152 35.8196 139.475 35.8196C139.794 35.8196 140.049 35.7585 140.243 35.6364C140.439 35.5114 140.538 35.3509 140.541 35.1548C140.538 34.9901 140.468 34.8551 140.332 34.75C140.196 34.642 139.985 34.5597 139.701 34.5028L138.568 34.277C137.929 34.1491 137.453 33.9276 137.14 33.6122C136.831 33.2969 136.676 32.8949 136.676 32.4062C136.676 31.9858 136.789 31.6236 137.017 31.3196C137.247 31.0156 137.569 30.7812 137.984 30.6165C138.402 30.4517 138.89 30.3693 139.45 30.3693C140.277 30.3693 140.927 30.544 141.402 30.8935C141.879 31.2429 142.157 31.7187 142.237 32.321Z" fill="black"/>
</svg>
