<svg width="108" height="222" viewBox="0 0 108 222" fill="none" xmlns="http://www.w3.org/2000/svg">
<path d="M62.5747 139.188C62.4631 138.668 62.3515 138.144 62.2365 137.617L61.9017 137.791C60.8836 137.947 59.8588 138.053 58.8272 138.114C59.8994 137.499 60.9074 136.746 61.8645 135.881C61.7157 135.198 61.5669 134.524 61.4113 133.83C59.8656 134.725 58.2827 135.516 56.6661 136.193C56.3312 136.332 56.3076 135.675 56.5139 135.469C57.9885 134.001 59.3651 132.356 60.6706 130.613L60.5928 130.278C58.4959 131.856 56.2941 133.086 53.9976 134.101L53.3177 133.991C51.6097 134.872 49.8713 135.634 48.0449 135.863C47.7371 135.896 47.4665 136.143 47.2534 136.479L47.25 136.163L48.0415 135.037C47.2873 135.46 46.2827 136.066 45.2343 136.534C43.9051 136.52 42.5826 136.373 41.2534 136.557L41.4361 136.231C44.5342 133.968 46.7157 130.299 48.3087 126.064C47.0573 128.225 45.6672 130.237 44.0776 132.012C42.3155 133.983 40.4384 136.007 38.3482 137.296C37.665 137.718 36.9986 138.71 36.2782 138.155L36.1869 137.737C37.7765 134.119 38.9976 130.566 39.9581 126.885C38.727 128.318 37.4315 129.681 36.082 130.943C35.5612 131.747 35.0369 132.544 34.4721 133.316C33.772 134.165 33.0212 134.922 32.2332 135.607C33.7281 135.381 35.0336 135.616 35.5916 137.108C36.1091 138.48 37.4012 142.746 38.9401 147.969C44.9976 144.029 56.2162 138.865 62.5747 139.188Z" fill="#E3BA8E"/>
<path d="M41.3076 120.023C39.9379 124.117 38.196 127.674 36.0821 130.943C37.4316 129.681 38.727 128.318 39.9581 126.885C40.6143 124.373 41.1554 121.798 41.5985 119.085L41.3076 120.023Z" fill="#F0CDA9"/>
<path d="M26.7371 135.19C28.1069 132.692 29.3685 130.085 30.4102 127.303C32.3989 121.995 34.0189 116.304 34.648 110.378C35.3819 103.433 35.4428 96.1847 34.4992 89.2613C34.3165 87.9397 34.0967 86.6631 33.8532 85.4058C32.9434 81.7549 31.8137 78.1794 30.4338 74.6686C26.7032 65.1754 21.3594 54.7555 19.6446 43.9623C19.5973 51.1368 20.9738 58.7937 23.2805 64.9262C23.639 65.5881 23.9468 66.2767 24.2174 66.9882L23.8419 66.7734L23.6221 66.4378C22.8341 65.2076 21.9614 64.087 21.1632 62.866C19.3233 60.0469 17.5037 57.0039 16.2286 53.6382C15.1903 50.9036 14.4564 48.0993 13.993 45.2715C13.851 46.5339 13.736 47.7908 13.665 49.0298C13.347 54.3267 12.9953 62.0071 15.1565 66.6297L14.8149 66.9974C13.161 64.3308 12.1734 61.139 11.6187 57.748L11.6221 58.0189C11.6323 62.7099 14.0234 67.4886 14.223 72.1617C14.3617 75.3838 13.3199 78.3589 11.8182 81.0448C11.48 82.0221 11.0877 83.0049 10.6075 84.0144C9.46766 86.4189 8.23311 89.1608 6.50143 90.8859C5.71677 91.6713 4.78672 92.3131 4.02235 93.1577L3.84985 94.1603L3.93102 93.6168C6.30194 96.7888 9.94449 97.5476 13.2557 97.7771C12.2038 99.3691 10.9963 100.669 9.69758 101.808L9.7179 101.949C9.7179 101.949 9.70435 103.006 9.1057 104.663C8.75057 105.649 8.04714 107.679 8.0742 109.033C10.2287 110.942 12.6469 111.787 15.1666 112.178L14.5139 112.393C13.0224 112.843 11.7438 113.012 10.4113 113.862L10.8307 113.55C10.2388 113.917 9.79231 114.444 9.80922 115.192C9.87348 117.934 11.0809 117.163 11.5849 119.917C12.6841 123.069 13.0155 126.765 13.6886 130.19C15.312 133.689 17.6424 136.484 20.5578 137.103C22.3098 137.476 24.0212 137.444 25.692 137.144C26.0505 136.502 26.4056 135.86 26.7371 135.19Z" fill="#F0CDA9"/>
<path d="M14.514 112.393L15.1667 112.182C12.647 111.787 10.2287 110.942 8.07428 109.033L8.09451 109.386C8.43273 111.801 12.1295 112.714 13.6819 112.59L13.6176 112.626L13.5906 112.637C13.462 112.667 13.2017 112.714 12.8736 112.788L12.6943 112.829L12.39 112.908L12.0585 112.999L11.8792 113.064L11.4531 113.223L11.3753 113.255L10.939 113.482L10.8307 113.55L10.4113 113.862C11.7439 113.012 13.0224 112.843 14.514 112.393Z" fill="#D9B288"/>
<path d="M13.2557 97.7771C9.94457 97.5475 6.30202 96.7887 3.9311 93.6167L3.84994 94.1602V94.1781L3.83301 94.6606L3.84316 94.9167L3.87017 95.2344L4.0055 95.8619L4.28287 96.5969C4.98298 97.5296 5.88933 98.2627 6.66386 98.7631L7.05624 98.9981H7.05963C8.04046 99.572 9.60643 100.431 9.69436 101.808H9.69767C10.9964 100.669 12.2039 99.3691 13.2557 97.7771Z" fill="#D9B288"/>
<path d="M2.56457 40.593C2.5578 41.2995 3.1835 41.1489 3.40334 40.7403C5.20605 37.3617 7.29288 34.4284 9.59953 31.8981C7.26244 38.2188 6.09214 45.2895 6.82607 52.3543C6.92078 53.2494 7.67503 52.7991 7.78326 52.1427C8.82835 45.7018 10.7292 39.8581 13.3774 34.8227C13.0358 36.8329 12.8193 38.8895 12.6671 40.9878C12.5961 41.8701 13.3537 41.8467 13.5634 41.1438C14.4327 38.2477 15.6604 35.7679 17.1181 33.5925C16.6142 36.2678 16.4721 39.0689 16.7731 41.9435C16.8645 42.829 17.6254 42.3879 17.7302 41.7319C18.2984 38.1508 19.5329 35.3787 21.3695 33.0545C20.4056 43.5089 24.6874 54.6032 29.0268 62.8248C32.3582 69.1422 36.3256 74.7366 38.5274 82.0259C41.135 90.6473 40.0256 99.8283 38.808 108.674C38.6761 109.624 39.4642 109.413 39.7078 108.827C42.0651 103.156 43.9727 97.2121 44.9873 91.0384C46.2049 101.482 45.5894 112.659 42.4034 121.987C42.1869 122.63 42.7044 123.199 43.0798 122.657C47.3785 116.484 50.5984 108.68 52.4315 100.325C52.2996 106.264 51.3492 112.196 49.79 117.746C49.604 118.42 50.0538 118.906 50.4698 118.417C55.0358 113.017 57.197 104.634 57.6841 96.059C58.0493 99.6456 58.0662 103.33 57.9242 106.935C57.7787 110.708 57.3966 114.547 56.7066 118.208C55.7901 123.098 53.1722 125.939 51.0042 129.717C50.7235 130.208 51.0042 131.132 51.4879 130.681C58.3841 124.223 63.2714 115.339 65.8115 104.489C66.0888 103.309 66.3593 102.083 66.6164 100.838C67.8644 108.391 67.144 116.69 65.5206 123.905C65.4022 124.429 65.8114 124.769 66.1226 124.508C70.5059 120.941 72.613 113.885 74.3176 107.67C74.7979 105.911 75.1632 104.13 75.4676 102.335C75.5048 105.352 75.4304 108.368 75.1801 111.375C75.1192 112.108 75.7212 112.311 76.0019 111.704C79.2894 104.713 80.0944 95.403 78.9918 86.7366C80.9129 94.7645 80.923 103.745 80.1519 112.145C80.0944 112.779 80.524 113.049 80.8757 112.632C84.5657 108.215 86.5747 101.661 87.2309 94.6552C87.3831 95.2754 87.5318 95.8997 87.6671 96.5291C88.9929 102.656 88.6919 108.891 89.2094 115.156C89.2703 115.928 89.9535 115.712 90.1192 115.129C92.348 107.224 92.2568 98.8009 92.7134 90.4917C92.8588 87.8608 93.0448 85.0565 93.0854 82.2517C93.7517 87.893 93.9005 93.649 93.5657 99.2136C93.5082 100.15 94.4044 99.5721 94.5228 99.002C95.6558 93.554 96.5995 87.6405 97.0696 81.6513C97.604 85.6804 98.0538 89.7439 98.4935 93.8161C98.5713 94.5905 99.2173 94.3665 99.4033 93.7872C104.389 78.5004 102.904 59.1111 99.8633 43.4621C98.2263 35.0344 96.5555 26.0095 92.294 19.2509C90.8227 16.9198 89.0775 14.8399 87.3154 12.8352L88.073 13.5646C80.9704 5.92053 70.6513 2.96563 61.8779 1.50035C51.8125 -0.174267 41.8858 0.435346 32.1384 4.31936C26.639 6.51775 19.4417 10.5344 15.9005 17.5404C10.0662 20.275 5.40562 27.3774 3.08544 34.9017C3.35601 34.0139 3.66378 33.1426 3.99861 32.2746C3.13277 34.8696 2.60177 37.6326 2.56457 40.593Z" fill="#E78617"/>
<path d="M36.0821 130.944C38.1959 127.675 39.9378 124.117 41.3076 120.023L41.5984 119.085C41.1554 121.798 40.6143 124.373 39.9581 126.886C38.9976 130.567 37.7766 134.119 36.1869 137.737L36.2783 138.156C36.9987 138.71 37.665 137.718 38.3482 137.296C40.4384 136.007 42.3155 133.983 44.0776 132.012C45.6672 130.237 47.0573 128.225 48.3087 126.064C46.7157 130.299 44.5342 133.968 41.4361 136.231L41.2534 136.558C42.5826 136.373 43.9051 136.52 45.2343 136.534C46.2828 136.067 47.2873 135.46 48.0415 135.037L47.25 136.163L47.2534 136.479C47.4665 136.144 47.7371 135.896 48.0449 135.864C49.8713 135.634 51.6097 134.872 53.3178 133.992L53.9976 134.101C56.2941 133.086 58.4959 131.856 60.5928 130.278L61.3944 129.676L60.6706 130.613C59.3651 132.356 57.9885 134.001 56.5139 135.469C56.3076 135.675 56.3312 136.332 56.6661 136.194C58.2828 135.516 59.8656 134.725 61.4113 133.83C63.2174 132.794 64.9693 131.617 66.6368 130.258C65.1926 132.38 63.6131 134.312 61.8645 135.882C60.9074 136.746 59.8994 137.499 58.8273 138.114C59.8588 138.053 60.8837 137.947 61.9017 137.792L62.2365 137.618C67.7123 134.795 72.515 128.451 76.1745 122.804L76.6582 122.028C75.5996 124.603 74.4767 127.119 73.1847 129.502C71.9942 131.706 70.3234 133.165 69.0178 135.107C73.1644 133.303 76.807 130.181 79.9457 125.908C80.2704 125.462 80.5781 125.352 80.8284 125.435C82.161 123.148 83.338 120.679 84.3966 118.205C84.6537 117.602 84.8972 116.983 85.1339 116.369C84.4879 119.196 83.7303 121.977 82.8679 124.728C82.3166 126.5 81.6401 128.212 80.9367 129.882L80.9265 130.029C80.6187 131.48 80.2366 132.889 79.7732 134.234C81.9784 132.247 83.9029 129.672 85.5365 126.701C85.1272 128.248 84.674 129.772 84.17 131.273C83.8927 132.086 83.3346 132.848 83.3279 133.689C84.6571 133.509 86.0235 132.78 87.2952 131.833C88.7495 130.24 90.0652 128.245 91.0697 126.679C92.0201 125.209 92.8656 123.663 93.6739 122.069C93.6976 126.023 94.0359 130.085 95.152 133.5C95.2264 130.361 95.6763 127.224 96.5218 124.337C96.6402 122.157 96.8532 119.962 97.2591 117.69C97.6345 115.58 98.1283 113.523 98.6694 111.478C99.6401 115.277 100.861 118.976 102.241 122.465C102.221 120.261 102.332 118.067 102.569 115.895C102.576 113.403 102.779 110.892 103.053 108.45C103.651 103.148 104.72 97.9328 105.407 92.6395C106.719 82.5317 108.603 72.4147 107.717 62.104C106.908 52.643 105.529 42.985 102.518 34.3278C101.182 30.476 99.3459 27.2663 97.1001 24.3201C95.9198 22.7726 94.5737 21.5424 93.214 20.3392C91.6041 17.8613 89.8792 15.5155 88.0731 13.5646L87.3155 12.8351C89.0776 14.8398 90.8228 16.9198 92.2941 19.2508C96.5556 26.0094 98.2264 35.0343 99.8634 43.462C102.904 59.111 104.389 78.5003 99.4034 93.7871C99.2174 94.3665 98.5713 94.5905 98.4936 93.8161C98.0539 89.7438 97.6041 85.6803 97.0697 81.6512C96.5995 87.6405 95.6559 93.5539 94.5229 99.0019C94.4045 99.5721 93.5083 100.15 93.5658 99.2136C93.9006 93.649 93.7517 87.8929 93.0854 82.2517C93.0449 85.0565 92.8589 87.8608 92.7135 90.4916C92.2569 98.8009 92.3481 107.224 90.1193 115.129C89.9535 115.712 89.2704 115.928 89.2095 115.156C88.692 108.891 88.993 102.656 87.6672 96.529C87.5319 95.8997 87.3831 95.2754 87.2309 94.6552C86.5748 101.661 84.5658 108.215 80.8758 112.632C80.5241 113.049 80.0945 112.778 80.152 112.145C80.9231 103.745 80.913 94.7645 78.9919 86.7366C80.0945 95.403 79.2895 104.713 76.002 111.704C75.7213 112.311 75.1193 112.108 75.1802 111.375C75.4304 108.367 75.5049 105.352 75.4677 102.335C75.1633 104.13 74.798 105.911 74.3177 107.67C72.6131 113.885 70.506 120.941 66.1227 124.508C65.8115 124.769 65.4022 124.429 65.5206 123.905C67.1441 116.69 67.8645 108.391 66.6164 100.838C66.3594 102.083 66.0889 103.309 65.8115 104.489C63.2715 115.339 58.3842 124.223 51.4879 130.681C51.0043 131.132 50.7236 130.208 51.0043 129.717C53.1723 125.938 55.7901 123.098 56.7067 118.208C57.3967 114.547 57.7788 110.708 57.9242 106.935C58.0663 103.33 58.0494 99.6455 57.6841 96.059C57.1971 104.634 55.0358 113.017 50.4699 118.417C50.0539 118.906 49.6041 118.42 49.7901 117.746C51.3493 112.196 52.2997 106.264 52.4316 100.325C50.5984 108.68 47.3786 116.483 43.0799 122.657C42.7044 123.199 42.187 122.63 42.4034 121.987C45.5895 112.659 46.205 101.482 44.9874 91.0383C43.9727 97.2121 42.0652 103.156 39.7078 108.827C39.4643 109.413 38.6762 109.624 38.8081 108.674C40.0257 99.8282 41.1351 90.6472 38.5275 82.0258C36.3257 74.7366 32.3583 69.1421 29.0269 62.8247C24.6875 54.6031 20.4056 43.5088 21.3696 33.0544C19.533 35.3786 18.2985 38.1508 17.7303 41.7318C17.6255 42.3878 16.8645 42.829 16.7732 41.9435C16.4722 39.0689 16.6143 36.2678 17.1182 33.5924C15.6605 35.7679 14.4327 38.2477 13.5635 41.1438C13.3538 41.8466 12.5962 41.87 12.6672 40.9877C12.8194 38.8894 13.0359 36.8329 13.3775 34.8227C10.7292 39.858 8.82843 45.7017 7.78334 52.1426C7.67511 52.7991 6.92085 53.2494 6.82615 52.3543C6.09222 45.2895 7.26252 38.2187 9.59961 31.8981C7.29296 34.4284 5.20613 37.3617 3.40342 40.7403C3.18358 41.1488 2.55788 41.2994 2.56464 40.5929C2.60185 37.6325 3.13285 34.8695 3.99869 32.2745C3.66385 33.1426 3.35609 34.0138 3.08551 34.9016C1.54324 39.8901 0.498093 45.3129 0.920866 50.7513C1.31658 55.8563 2.65932 60.6029 4.4857 65.0373L4.64466 64.8634C2.3955 58.4546 2.97047 50.8573 4.97949 44.2888C4.64804 48.0672 4.67848 52.116 5.1486 55.5267C5.49696 58.0515 5.99754 60.635 6.84985 62.9486L7.16098 63.881C7.99638 65.3674 8.8927 66.8093 9.8228 68.1864L9.82957 67.9532C8.13172 61.0206 9.37975 52.7164 11.1081 45.8954C10.922 49.801 10.9931 53.9003 11.6188 57.7481C12.1734 61.1391 13.161 64.3308 14.8149 66.9975L15.1565 66.6298C12.9953 62.0071 13.3471 54.3268 13.665 49.0298C13.736 47.7908 13.851 46.534 13.9931 45.2716C14.4564 48.0993 15.1903 50.9037 16.2286 53.6382C17.5037 57.004 19.3234 60.047 21.1633 62.866C21.9615 64.0871 22.8341 65.2076 23.6221 66.4379L23.8419 66.7734L24.2174 66.9883C23.9468 66.2768 23.639 65.5882 23.2805 64.9262C20.9739 58.7938 19.5973 51.1369 19.6447 43.9624C21.3595 54.7555 26.7033 65.1755 30.4338 74.6686C31.8138 78.1795 32.9434 81.755 33.8533 85.4058C34.0968 86.6632 34.3166 87.9398 34.4992 89.2614C35.4429 96.1848 35.382 103.433 34.648 110.378C34.0189 116.304 32.3989 121.995 30.4102 127.303C29.3685 130.085 28.1069 132.692 26.7371 135.19C26.4057 135.86 26.0505 136.502 25.692 137.144C25.1238 138.168 24.5387 139.16 23.9028 140.092C26.8656 139.215 29.7473 137.782 32.2332 135.607C33.0212 134.923 33.772 134.166 34.4721 133.316C35.037 132.545 35.5612 131.747 36.0821 130.944Z" fill="#E78617"/>
<path d="M23.9028 140.092C24.5387 139.16 25.1238 138.168 25.692 137.144C26.0505 136.502 26.4057 135.86 26.7371 135.19C28.1069 132.692 29.3685 130.085 30.4102 127.303C32.399 121.995 34.019 116.304 34.648 110.378C35.0065 106.985 35.2028 103.524 35.2028 100.063C35.2028 96.4322 34.9829 92.8048 34.4992 89.2614C34.3166 87.9398 34.0968 86.6632 33.8533 85.4058C32.9435 81.755 31.8138 78.1795 30.4338 74.6686C26.7033 65.1755 21.3595 54.7555 19.6447 43.9624C19.6447 44.0771 19.6447 44.1864 19.6447 44.3012C19.6379 51.3756 21.0111 58.8907 23.2806 64.9262C23.6391 65.5882 23.9469 66.2768 24.2174 66.9883L23.842 66.7734L23.6222 66.4379C22.8341 65.2076 21.9615 64.0871 21.1633 62.866C19.3234 60.047 17.5037 57.004 16.2287 53.6382C15.1903 50.9037 14.4564 48.0993 13.9931 45.2716C13.851 46.534 13.736 47.7908 13.665 49.0298C13.5466 50.9771 13.4248 53.2402 13.4282 55.5589C13.4282 59.5558 13.7868 63.707 15.1565 66.6298L14.8149 66.9975C13.161 64.3308 12.1735 61.1391 11.6188 57.7481C11.1825 55.0764 11.0167 52.2758 11.0167 49.5068C11.0201 48.2912 11.0506 47.0844 11.1081 45.8954C9.96151 50.4249 9.02459 55.6089 9.0212 60.6121C9.0212 63.1419 9.258 65.6258 9.82959 67.9532L9.82282 68.1864C8.89272 66.8093 7.9964 65.3674 7.161 63.881L6.84987 62.9486C5.99755 60.635 5.49698 58.0515 5.14862 55.5267C4.88481 53.6079 4.7597 51.4866 4.7597 49.3241C4.7597 47.6439 4.83407 45.9404 4.97951 44.2888C3.87353 47.9056 3.20047 51.8397 3.19709 55.7094C3.19371 58.8672 3.6334 61.9856 4.64467 64.8634L4.48572 65.0373C2.65934 60.6029 1.3166 55.8563 0.920883 50.7513C0.856621 49.9213 0.826172 49.0945 0.826172 48.2678C0.829554 43.6736 1.77663 39.1336 3.08553 34.9016C3.35611 34.0138 3.66387 33.1426 3.99871 32.2745C3.13287 34.8695 2.60187 37.6325 2.56466 40.5929C2.56128 40.5966 2.56128 40.6021 2.56128 40.6076C2.56466 40.9519 2.71685 41.0846 2.89611 41.0846C3.08213 41.0846 3.29183 40.9464 3.40344 40.7403C5.20614 37.3617 7.29298 34.4284 9.59963 31.8981C7.72928 36.9619 6.60636 42.5026 6.60974 48.1406C6.60974 49.5394 6.68073 50.9486 6.82617 52.3543C6.86337 52.7114 7.00882 52.8546 7.17454 52.8546C7.42144 52.8546 7.71909 52.5374 7.78335 52.1426C8.82845 45.7017 10.7293 39.858 13.3775 34.8227C13.0359 36.8329 12.8194 38.8894 12.6672 40.9877C12.6638 41.0107 12.6638 41.029 12.6638 41.052C12.6638 41.0699 12.6604 41.0846 12.6638 41.0988C12.6638 41.4844 12.8363 41.6616 13.0359 41.6616C13.2388 41.6616 13.4655 41.4789 13.5635 41.1438C14.4328 38.2477 15.6605 35.7679 17.1182 33.5924C16.7901 35.3286 16.6177 37.1179 16.6143 38.9399C16.6143 39.9315 16.665 40.9322 16.7732 41.9435C16.8104 42.2965 16.9559 42.4383 17.1216 42.4383C17.3685 42.4383 17.6661 42.1262 17.7303 41.7318C18.2985 38.1508 19.533 35.3786 21.3696 33.0544C21.2783 34.0552 21.2343 35.0614 21.2343 36.0708C21.2276 45.6012 25.1036 55.3886 29.0269 62.8247C32.3583 69.1421 36.3257 74.7366 38.5275 82.0258C39.6977 85.9011 40.1205 89.8852 40.1171 93.9019C40.1171 98.828 39.4778 103.804 38.8081 108.674C38.8081 108.688 38.8048 108.706 38.8048 108.72C38.798 108.776 38.7946 108.827 38.7946 108.872C38.7946 109.194 38.9333 109.327 39.1058 109.327C39.3189 109.327 39.5827 109.124 39.7079 108.827C42.0652 103.156 43.9727 97.2121 44.9874 91.0383C45.3696 94.3017 45.5691 97.639 45.5691 100.967C45.5691 108.289 44.5951 115.574 42.4035 121.987C42.3662 122.092 42.3527 122.193 42.3527 122.29C42.3527 122.621 42.5354 122.873 42.7484 122.873C42.8567 122.873 42.975 122.81 43.0799 122.657C47.3786 116.483 50.5985 108.68 52.4316 100.325C52.2997 106.264 51.3493 112.196 49.7901 117.746C49.7867 117.758 49.7867 117.769 49.7833 117.778C49.7833 117.782 49.7799 117.787 49.7799 117.79C49.7799 117.796 49.7766 117.801 49.7766 117.805C49.7563 117.893 49.7462 117.979 49.7462 118.058C49.7462 118.384 49.9118 118.617 50.1215 118.617C50.2298 118.617 50.3515 118.552 50.4699 118.417C55.0359 113.017 57.1971 104.634 57.6841 96.059C57.9141 98.3276 58.0054 100.637 58.0054 102.941C58.0054 104.277 57.975 105.613 57.9243 106.935C57.7788 110.708 57.3967 114.547 56.7067 118.208C55.7902 123.098 53.1723 125.938 51.0043 129.717C50.9976 129.731 50.9874 129.745 50.9806 129.758C50.9198 129.882 50.8927 130.034 50.8927 130.181C50.8927 130.499 51.0246 130.8 51.2411 130.8C51.3155 130.8 51.3966 130.764 51.488 130.681C58.3842 124.223 63.2715 115.339 65.8116 104.489C66.0889 103.309 66.3594 102.083 66.6165 100.838C67.0562 103.492 67.2524 106.241 67.249 109C67.2456 114.091 66.5725 119.229 65.5206 123.905C65.5173 123.92 65.5139 123.934 65.5105 123.952C65.5037 123.999 65.5004 124.043 65.5004 124.084C65.497 124.393 65.683 124.599 65.8927 124.599C65.9705 124.599 66.0483 124.567 66.1227 124.508C70.506 120.941 72.6131 113.885 74.3177 107.67C74.798 105.911 75.1633 104.13 75.4677 102.335C75.4745 102.809 75.4779 103.277 75.4779 103.748C75.4779 106.296 75.3933 108.839 75.1802 111.375C75.1768 111.401 75.1768 111.434 75.1768 111.461C75.1768 111.466 75.1768 111.47 75.1768 111.47C75.1734 111.852 75.3628 112.063 75.5725 112.063C75.7247 112.063 75.8904 111.949 76.002 111.704C78.3797 106.65 79.4586 100.388 79.4586 94.0309C79.4586 91.5943 79.2997 89.1374 78.9919 86.7366C80.1723 91.6571 80.6289 96.9413 80.6289 102.224C80.6323 105.558 80.4496 108.894 80.152 112.145C80.152 112.158 80.1486 112.173 80.1486 112.187C80.1486 112.208 80.1452 112.228 80.1452 112.251C80.1452 112.614 80.3144 112.834 80.5241 112.834C80.6357 112.834 80.7608 112.77 80.8758 112.632C84.5658 108.215 86.5748 101.661 87.231 94.6552C87.3832 95.2754 87.5319 95.8997 87.6672 96.529C88.993 102.656 88.692 108.891 89.2095 115.156C89.2366 115.51 89.3955 115.651 89.5748 115.651C89.7879 115.651 90.0313 115.445 90.1193 115.129C92.3481 107.224 92.2569 98.8009 92.7135 90.4916C92.8589 87.8608 93.0449 85.0565 93.0855 82.2517C93.5252 85.9512 93.7383 89.7062 93.7383 93.4194C93.7383 95.3672 93.6808 97.3035 93.5658 99.2136C93.5624 99.2402 93.5624 99.2691 93.5624 99.2957C93.5624 99.5955 93.674 99.7102 93.8228 99.7102C94.0799 99.7102 94.4485 99.3549 94.5229 99.0019C95.6559 93.5539 96.5996 87.6405 97.0697 81.6512C97.6041 85.6803 98.0539 89.7438 98.4936 93.8161C98.5274 94.1691 98.6796 94.3164 98.8521 94.3164C99.0618 94.3164 99.302 94.1048 99.4035 93.7871C101.741 86.6218 102.654 78.5527 102.654 70.3935C102.654 61.1446 101.477 51.7754 99.8634 43.462C98.2264 35.0343 96.5556 26.0094 92.2941 19.2508C90.8228 16.9198 89.0776 14.8398 87.3155 12.8351L88.0731 13.5646C89.8792 15.5155 91.6041 17.8613 93.214 20.3392C94.5737 21.5424 95.9198 22.7726 97.1002 24.3201C99.3459 27.2663 101.182 30.476 102.518 34.3278C105.529 42.985 106.908 52.643 107.717 62.104C107.876 63.9581 107.947 65.803 107.947 67.6447C107.943 76.0495 106.486 84.35 105.407 92.6395C104.72 97.9328 103.651 103.148 103.053 108.45C102.779 110.892 102.576 113.403 102.569 115.895C102.349 117.896 102.241 119.921 102.241 121.945C102.241 122.121 102.241 122.29 102.241 122.465C100.861 118.976 99.6401 115.277 98.6695 111.478C98.1283 113.523 97.6345 115.58 97.2591 117.69C96.8533 119.962 96.6402 122.157 96.5218 124.337C95.6763 127.224 95.2264 130.361 95.152 133.5C94.0359 130.085 93.6976 126.023 93.674 122.069C92.8656 123.663 92.0201 125.209 91.0697 126.679C90.0652 128.245 88.7495 130.24 87.2952 131.833C86.0235 132.78 84.6571 133.509 83.3279 133.689C83.3347 132.848 83.8927 132.086 84.1701 131.273C84.674 129.772 85.1272 128.248 85.5365 126.701C83.9029 129.672 81.9784 132.247 79.7732 134.234C80.2366 132.889 80.6187 131.48 80.9265 130.029L80.9367 129.882C81.6402 128.212 82.3166 126.5 82.8679 124.728C83.7304 121.977 84.4879 119.196 85.1339 116.369C84.8972 116.983 84.6537 117.602 84.3967 118.205C83.338 120.679 82.161 123.148 80.8284 125.435C80.7777 125.417 80.727 125.406 80.6695 125.406C80.453 125.406 80.2062 125.553 79.9457 125.908C76.8071 130.181 73.1644 133.303 69.0179 135.107C70.3234 133.165 71.9942 131.706 73.1847 129.502C74.4767 127.119 75.5996 124.603 76.6582 122.028L76.1745 122.804C72.515 128.451 67.7123 134.795 62.2366 137.618L61.9017 137.792C60.8837 137.947 59.8589 138.053 58.8273 138.114C59.8994 137.499 60.9074 136.746 61.8646 135.882C63.6132 134.312 65.1926 132.38 66.6368 130.258C64.9694 131.617 63.2174 132.794 61.4113 133.83C59.8657 134.725 58.2828 135.516 56.6661 136.194C56.6357 136.208 56.6052 136.213 56.5816 136.213H56.5782H56.5748C56.4429 136.208 56.382 136.049 56.382 135.873C56.382 135.717 56.426 135.557 56.5139 135.469C57.9886 134.001 59.3651 132.356 60.6706 130.613L61.3944 129.676L60.5929 130.278C58.4959 131.856 56.2941 133.086 53.9976 134.101L53.3178 133.992C51.6098 134.872 49.8713 135.634 48.0449 135.864C47.7371 135.896 47.4665 136.144 47.2535 136.479L47.2501 136.163L48.0415 135.037C47.2873 135.46 46.2828 136.067 45.2343 136.534C44.409 136.526 43.5872 136.466 42.7653 136.466C42.7619 136.466 42.7586 136.466 42.7552 136.466C42.7518 136.466 42.7484 136.466 42.7451 136.466C42.3054 136.466 41.8623 136.484 41.4226 136.534C41.3651 136.543 41.311 136.549 41.2535 136.558L41.4361 136.231C44.5342 133.968 46.7157 130.299 48.3087 126.064C47.0573 128.225 45.6672 130.237 44.0776 132.012C42.3155 133.983 40.4384 136.007 38.3482 137.296C38.3414 137.3 38.3347 137.305 38.3279 137.311C38.2975 137.329 38.267 137.347 38.2366 137.37C38.2332 137.37 38.2332 137.373 38.2332 137.373C38.2095 137.388 38.1892 137.406 38.1656 137.42C38.1622 137.426 38.1588 137.429 38.152 137.429C38.1453 137.434 38.1385 137.438 38.1351 137.447C38.1182 137.456 38.1013 137.47 38.0844 137.485C37.6413 137.832 37.1983 138.311 36.7383 138.32C36.7349 138.32 36.7315 138.32 36.7247 138.32C36.5793 138.32 36.4305 138.27 36.2783 138.156L36.1869 137.737C37.7766 134.119 38.9976 130.567 39.9581 126.886C40.6143 124.373 41.1554 121.798 41.5984 119.085L41.3076 120.023C39.9378 124.117 38.1959 127.675 36.0821 130.944C35.5612 131.747 35.037 132.545 34.4722 133.316C33.772 134.166 33.0212 134.923 32.2332 135.607C29.7473 137.782 26.8656 139.215 23.9028 140.092Z" fill="#DD5F1C"/>
<path d="M81.3594 222H87.7754L86.0776 215.647L86.4192 217.089C84.9615 218.76 83.338 220.426 81.3594 222Z" fill="#E3BA8E"/>
<path d="M69.5386 156.204C76.7867 173.391 77.5409 198.268 78.0043 218.727C78.0279 219.773 77.984 220.876 77.9163 222H81.3594C83.338 220.426 84.9614 218.76 86.4191 217.089L86.0775 215.647L74.0099 165.166C72.4778 159.872 70.6378 156.462 68.7404 154.304L69.3594 155.061C69.4135 155.329 69.4744 155.723 69.5386 156.204Z" fill="#BB1E26"/>
<path d="M68.6167 154.172L68.6121 154.169L68.6167 154.176V154.172Z" fill="#BB1E26"/>
<path d="M27.8499 219.961C26.5511 218.593 25.3944 217.185 24.4779 215.762C24.4779 215.762 26.0167 210.235 28.32 202.853C28.0799 182.357 30.1126 171.587 31.1645 167.423C23.8014 179.355 14.7541 197.262 15.4846 211.436C15.6131 213.907 16.0765 217.671 16.7124 222H27.2411L27.8499 219.961Z" fill="#DB2525"/>
<path d="M41.3718 169.283C48.1565 158.38 58.0934 161.3 58.0934 161.3C58.0934 161.3 60.904 162.65 62.8724 167.474C63.5489 168.682 64.1474 170.118 64.6581 171.843C67.1948 180.433 65.4699 190.632 64.0866 199.309L63.9953 199.933C63.099 204.097 62.1824 208.261 61.5635 212.507C61.1001 215.679 60.6435 218.846 60.1768 222H72.6537C71.3617 184.211 68.6458 154.773 68.6188 154.175L68.612 154.166C68.0911 153.055 67.533 151.981 66.9513 150.953C66.1869 151.063 49.205 153.698 34.7461 161.879V161.865C34.1136 162.806 33.4406 163.83 32.7507 164.904C32.4733 166.175 29.7202 176.113 29.6289 198.712C33.0415 188.118 37.5703 175.389 41.3718 169.283Z" fill="#DB2525"/>
<path d="M69.5387 156.204C70.4519 162.957 72.1497 189.528 72.329 193.324C72.6875 200.834 73.2996 210.445 73.807 222H77.9164C77.984 220.876 78.028 219.773 78.0043 218.727C77.541 198.268 76.7867 173.391 69.5387 156.204Z" fill="#DB2525"/>
<path d="M66.9512 150.953L66.9851 150.944C66.2816 145.918 64.0696 139.385 64.0696 139.385C63.6096 139.28 63.1091 139.215 62.5747 139.188C56.2162 138.865 44.9975 144.03 38.94 147.969C36.4642 149.585 34.8442 150.989 34.7833 151.73C34.5567 154.405 34.7427 161.741 34.746 161.865V161.879C49.2049 153.699 66.1868 151.063 66.9512 150.953Z" fill="#BB1E26"/>
<path d="M28.32 202.853C28.7326 201.526 29.1723 200.145 29.6289 198.712C29.7202 176.113 32.4733 166.176 32.7506 164.904L32.771 164.761C32.3752 165.358 31.8679 165.794 31.3301 166.785L31.1644 167.423C30.1126 171.587 28.0798 182.357 28.32 202.853Z" fill="#5B268B"/>
<path d="M72.6536 222H73.8069C73.2996 210.445 72.6874 200.834 72.3289 193.324C72.1497 189.528 70.4518 162.957 69.5386 156.204C69.4744 155.723 69.4135 155.329 69.3594 155.061L68.7404 154.304L68.6153 154.161L68.6187 154.17V154.175C68.6457 154.773 71.3616 184.211 72.6536 222Z" fill="#5B268B"/>
<path d="M63.9953 199.933L64.0866 199.309C65.4699 190.632 67.1948 180.433 64.6582 171.843C64.1475 170.118 63.5489 168.682 62.8725 167.474C64.9153 172.482 66.055 181.241 62.2061 196.152L56.0878 222H60.1768C60.6435 218.846 61.1001 215.679 61.5635 212.507C62.1824 208.261 63.099 204.097 63.9953 199.933Z" fill="#DB2525"/>
<path d="M60.1768 222H56.0878L62.2061 196.152C64.0561 188.984 64.7529 183.243 64.7529 178.656C64.7495 173.691 63.9345 170.077 62.8725 167.474C63.5489 168.682 64.1475 170.118 64.6582 171.843C65.6052 175.048 65.957 178.478 65.957 181.966C65.957 187.833 64.9524 193.869 64.0866 199.309L63.9953 199.933C63.099 204.097 62.1824 208.261 61.5635 212.507C61.1001 215.679 60.6435 218.846 60.1768 222Z" fill="#801D21"/>
<path d="M27.8498 219.961L27.241 222H29.9434C29.2061 221.338 28.5094 220.655 27.8498 219.961Z" fill="#E3BA8E"/>
<path d="M62.2061 196.152C66.0551 181.241 64.9153 172.482 62.8725 167.474C60.9041 162.65 58.0934 161.3 58.0934 161.3C58.0934 161.3 48.1566 158.38 41.3719 169.283C37.5703 175.389 33.0416 188.118 29.629 198.712C29.1724 200.145 28.7326 201.526 28.32 202.853C26.0168 210.235 24.4779 215.762 24.4779 215.762C25.3945 217.185 26.5512 218.593 27.8499 219.961C28.5095 220.655 29.2062 221.338 29.9435 222H56.0878L62.2061 196.152Z" fill="#BB1E26"/>
</svg>
