<svg width="127" height="211" viewBox="0 0 127 211" fill="none" xmlns="http://www.w3.org/2000/svg">
<path d="M59.4394 129.393L59.7485 128.957C59.0616 129.459 58.4197 130.074 57.7947 130.729L57.9574 131.387L58.1302 131.168C58.4248 130.562 58.8607 129.985 59.4394 129.393Z" fill="#E3BA8E"/>
<path d="M57.5423 138.784V138.781H57.5569C57.9164 138.753 58.2678 138.748 58.6138 138.757H58.7221C59.0538 138.771 59.3735 138.807 59.6907 138.861C59.1543 136.417 58.5834 133.943 57.9874 131.518L57.8001 131.599L57.8078 131.581L57.9573 131.387L57.7947 130.729C56.8618 131.71 55.9794 132.804 55.138 133.912C54.5566 134.176 53.9856 134.489 53.435 134.88L53.4283 134.83C53.6924 132.669 54.8471 130.661 55.7494 128.67L54.9198 129.695C54.4761 130.249 53.7506 130.012 53.7824 129.106C53.8311 127.693 53.9988 126.286 54.2288 124.887C53.7955 126.515 53.4891 128.192 53.1401 130.093L53.0187 130.397C52.4346 129.268 51.8758 128.034 51.5349 126.716C51.4953 124.417 51.7517 121.952 52.2259 119.74C51.9617 120.171 51.7027 120.589 51.4453 120.969C50.9829 121.656 50.5033 122.592 49.9656 123.422C49.2773 124.193 48.2467 124.53 47.3576 124.591C47.5571 123.219 47.9799 121.889 48.4318 120.557C48.1172 120.768 47.6681 120.648 47.7563 120.069C48.0658 118.07 48.45 116.115 48.841 114.169C48.0695 114.725 47.3244 114.962 46.6693 114.63C45.4734 118.141 43.9832 121.462 41.9724 124.426C37.2306 131.416 30.8772 137.645 24.0323 140.613L24.0337 140.631C26.178 140.914 32.1469 136.907 33.538 140.609C34.0811 142.057 35.4949 146.733 37.1461 152.364C42.2447 145.75 46.6825 143.168 46.6825 143.168C50.8561 140.649 54.4601 139.032 57.5423 138.784Z" fill="#E3BA8E"/>
<path d="M13.553 50.8884L13.4126 51.1661L13.1143 52.2908L12.9743 52.6993C12.8474 53.465 12.6939 54.2147 12.4629 54.923L12.3993 55.0341L12.3134 54.7527L11.9819 55.9719C14.2372 56.8505 15.861 57.204 15.861 57.204C16.2442 55.8323 16.5611 54.5732 16.8516 53.3663C15.5823 51.5159 14.9491 48.8892 14.8514 46.2084C14.3163 47.7448 13.8912 49.2959 13.553 50.8884Z" fill="#F0CDA9"/>
<path d="M17.1357 52.1384L17.3116 51.387L17.1766 51.2167L17.1357 52.1384Z" fill="#F0CDA9"/>
<path d="M41.9724 124.426C43.9832 121.462 45.4734 118.141 46.6693 114.63C46.3057 114.441 45.9651 114.101 45.6678 113.518C44.5287 111.277 44.6187 107.609 44.7682 104.701C43.4998 100.326 43.6913 94.9138 44.1127 90.4491C44.3346 88.0818 44.6268 85.7778 45.0678 83.5455C44.8155 84.0256 44.2713 84.0527 44.1472 83.4289C43.7177 81.2861 43.6977 78.7897 43.8485 76.3958L43.8418 76.4174C43.5445 77.5563 43.4163 78.7539 42.7189 79.5517C42.3634 79.9552 41.8456 79.9286 41.7174 79.2469C41.4056 77.6118 41.2723 75.8973 41.2656 74.1455C34.6426 71.7787 28.4237 69.5371 23.204 67.6183V67.622C18.6262 65.9455 14.8608 64.5289 12.2302 63.4942L12.0043 63.4047L11.4256 63.1715L10.8272 62.9291C11.0637 66.9963 11.9924 70.9216 12.1669 75.0062C12.3479 79.2685 10.4704 83.1062 8.18745 86.3966L7.60876 87.3111C6.44225 89.1096 5.07753 90.6158 3.86874 92.3588C3.11688 93.4435 2.17359 94.8923 1.87224 96.465C4.24383 99.6352 7.88779 100.392 11.1973 100.622C10.1508 102.217 8.93931 103.517 7.6392 104.651L7.6365 104.638L7.66051 104.794C7.66051 104.794 7.64867 105.852 7.04867 107.507C6.65904 108.578 5.84901 110.911 6.03807 112.232L6.02218 111.883C8.17291 113.784 10.5895 114.63 13.1116 115.03L12.4548 115.245C10.97 115.688 9.69117 115.858 8.35656 116.706C7.98689 117.041 7.74236 117.481 7.75555 118.037C7.82826 121.265 9.49297 119.611 9.7162 124.555C9.73446 124.969 9.07663 128.616 8.89027 131.943C8.73199 134.746 10.2645 138.475 11.7533 140.241C13.8489 142.725 17.0038 142.63 19.9882 141.966C21.3489 141.658 22.6994 141.192 24.0323 140.613C30.8772 137.645 37.2306 131.416 41.9724 124.426Z" fill="#F0CDA9"/>
<path d="M13.1116 115.03C10.5895 114.63 8.17292 113.784 6.02219 111.883L6.03808 112.233C6.37901 114.644 10.0727 115.559 11.6265 115.437L11.5646 115.473L11.5341 115.484L11.131 115.568L11.0464 115.58L10.859 115.625L10.5022 115.706L10.4099 115.729L9.97766 115.855L9.84439 115.903L9.35398 116.088L9.3462 116.091L8.88385 116.33L8.77292 116.396L8.35793 116.701L8.35657 116.707C9.69119 115.858 10.97 115.688 12.4548 115.245L13.1116 115.03Z" fill="#D9B288"/>
<path d="M11.1973 100.622C7.88779 100.392 4.24382 99.6354 1.87224 96.4652L1.78531 97.2598L1.78125 97.6578L1.80358 97.9447L1.94901 98.7086L2.2277 99.4422C2.92781 100.375 3.83154 101.109 4.60707 101.608C5.47798 102.173 7.52285 103.07 7.6365 104.639L7.6392 104.651C8.93931 103.518 10.1508 102.218 11.1973 100.622Z" fill="#D9B288"/>
<path d="M15.0472 34.9025C16.371 36.421 17.5044 39.1161 17.643 41.3218C17.7898 43.68 17.7607 45.8495 17.5057 48.1663H17.5071L17.4912 48.3476C17.342 49.2923 17.2389 50.2517 17.1766 51.2167L17.3116 51.387C19.9842 38.955 17.4543 35.7095 14.8791 33.2435C15.2069 32.4278 15.5478 31.6065 15.8965 30.7871L16.1583 30.1775C15.4723 31.4633 14.8368 32.8134 14.2581 34.2066L14.9914 34.7767L15.0472 34.9025Z" fill="#332323"/>
<path d="M65.6464 92.4895L66.2356 92.8875C67.1261 92.0718 67.9135 91.0963 68.6309 90.0185C67.0825 95.6634 64.5631 100.751 61.28 105.203C61.005 105.571 60.9604 106.548 61.5283 106.333C65.0623 104.97 68.273 102.831 70.9483 99.8596C70.6429 100.828 70.3274 101.782 69.9851 102.729C68.5213 106.781 66.2383 109.534 63.979 112.711C63.683 113.129 63.6648 113.972 64.2276 113.837C68.5304 112.836 72.6381 108.807 75.637 103.673C75.518 104.166 75.4033 104.656 75.2816 105.149C75.1879 105.538 75.2911 106.157 75.7017 105.965C78.0746 104.836 80.1699 102.899 82.0473 100.612C75.7997 92.0773 71.6684 84.9171 71.6684 84.9171L71.8135 84.9671C69.8491 84.2767 67.8408 83.5684 65.7996 82.8458C65.3478 85.9931 65.2923 89.2473 65.6464 92.4895Z" fill="#332323"/>
<path d="M54.3556 79.1482L54.6766 78.9187L53.8115 78.6107C53.7705 79.0353 53.9501 79.4264 54.3556 79.1482Z" fill="#332323"/>
<path d="M12.4629 54.923C12.6939 54.2147 12.8474 53.465 12.9743 52.6993C12.7389 53.3773 12.5183 54.0623 12.3134 54.7527L12.3993 55.0341L12.4629 54.923Z" fill="#332323"/>
<path d="M82.0473 100.613C80.1698 102.899 78.0746 104.836 75.7017 105.965C75.2911 106.157 75.1879 105.539 75.2816 105.15C75.4033 104.657 75.518 104.167 75.637 103.674C72.6381 108.808 68.5304 112.837 64.2276 113.838C63.6648 113.972 63.683 113.129 63.979 112.712C66.2383 109.534 68.5213 106.781 69.9851 102.729C70.3273 101.782 70.6429 100.828 70.9483 99.8599C68.273 102.831 65.0623 104.97 61.5283 106.333C60.9604 106.548 61.005 105.571 61.28 105.203C64.5631 100.751 67.0825 95.6638 68.6308 90.0189C67.9135 91.0967 67.1261 92.0722 66.2356 92.8879L65.6464 92.4899C65.2923 89.2476 65.3478 85.9934 65.7996 82.8462C62.1546 81.5641 58.4156 80.2425 54.6766 78.919L54.3556 79.1486C53.9501 79.4267 53.7705 79.0356 53.8115 78.611C49.5692 77.1081 45.3428 75.6075 41.2656 74.1458C41.2723 75.8976 41.4056 77.6121 41.7174 79.2472C41.8456 79.9289 42.3634 79.9556 42.7189 79.5521C43.4163 78.7542 43.5445 77.5566 43.8418 76.4177L43.8486 76.3961C43.6977 78.79 43.7177 81.2864 44.1472 83.4292C44.2713 84.0531 44.8155 84.026 45.0678 83.5458C44.6268 85.7781 44.3346 88.0821 44.1127 90.4494C43.6913 94.9141 43.4998 100.326 44.7682 104.702L44.8091 103.934C45.1446 97.7832 46.9071 89.1581 50.3248 85.4339C51.7635 83.8648 53.5101 83.0757 55.1867 83.246C56.0758 83.3502 56.9427 83.7161 57.7351 84.3849C59.709 86.038 61.9233 89.6691 60.6668 97.4086C59.7289 103.181 57.981 103.925 53.777 108.569C52.5272 109.955 50.6166 112.887 48.841 114.169C48.45 116.115 48.0658 118.07 47.7563 120.069C47.6681 120.648 48.1172 120.768 48.4318 120.557C47.9799 121.889 47.5571 123.219 47.3576 124.591C48.2467 124.53 49.2773 124.193 49.9656 123.422C50.5033 122.592 50.9829 121.656 51.4453 120.969C51.7027 120.589 51.9617 120.171 52.2259 119.74C51.7517 121.952 51.4953 124.417 51.5349 126.716C51.8758 128.034 52.4346 129.268 53.0187 130.397L53.1401 130.092C53.4891 128.192 53.7956 126.515 54.2288 124.887C53.9988 126.286 53.8311 127.693 53.7824 129.106C53.7506 130.012 54.4761 130.249 54.9198 129.694L55.7495 128.67C54.8471 130.661 53.6924 132.669 53.4283 134.83L53.435 134.88C53.9856 134.489 54.5566 134.176 55.138 133.912C55.9794 132.804 56.8619 131.71 57.7947 130.729C58.4197 130.075 59.0616 129.459 59.7485 128.957L59.4394 129.393C59.0102 130.007 58.5756 130.603 58.1302 131.168L57.9574 131.387L57.8079 131.581L57.8001 131.599L57.9874 131.518C59.2811 130.971 60.5677 130.406 61.8442 129.8L62.6052 129.295C69.8769 125.099 76.8658 120.024 83.5243 114.253C85.3226 112.694 87.1456 111.085 88.9372 109.399C86.4536 106.459 84.1321 103.464 82.0473 100.613Z" fill="#211715"/>
<path d="M52.5218 90.849C55.5171 90.8132 55.9436 94.6233 55.5407 97.9317C55.4112 98.981 55.2012 99.9708 54.9621 100.783C53.9633 104.145 51.6989 106.991 48.8755 107.023C47.734 107.036 46.8343 106.525 47.1922 104.714C47.3376 103.978 47.8977 102.974 48.3218 102.49C49.0618 101.653 49.186 99.3699 49.2228 98.2007C49.3327 95.036 49.2928 90.8848 52.5218 90.849ZM53.7769 108.569C57.981 103.925 59.7289 103.18 60.6668 97.4084C61.9233 89.6688 59.7089 86.0377 57.7351 84.3847C56.9427 83.7158 56.0758 83.35 55.1866 83.2457C53.5101 83.0754 51.7635 83.8646 50.3247 85.4336C46.907 89.1579 45.1446 97.7829 44.8091 103.934L44.7681 104.701C44.6187 107.609 44.5287 111.277 45.6678 113.518C45.9651 114.101 46.3057 114.441 46.6693 114.63C47.3244 114.961 48.0695 114.725 48.841 114.169C50.6166 112.887 52.5272 109.955 53.7769 108.569Z" fill="#F0CDA9"/>
<path d="M49.2228 98.2007C49.186 99.3699 49.0619 101.653 48.3218 102.49C47.8977 102.974 47.3376 103.978 47.1922 104.714C46.8343 106.525 47.734 107.036 48.8755 107.023C51.6989 106.991 53.9633 104.145 54.9621 100.783C55.2012 99.9708 55.4112 98.9811 55.5408 97.9317C55.9436 94.6234 55.5171 90.8133 52.5218 90.8491C49.2929 90.8849 49.3328 95.0361 49.2228 98.2007Z" fill="#E3BA8E"/>
<path d="M104.777 85.7386C104.894 85.3117 105.018 84.8866 105.127 84.4601C105.016 84.8903 104.882 85.3208 104.763 85.751L104.777 85.7386Z" fill="#661649"/>
<path d="M63.2471 7.25539C59.9126 8.41724 56.5172 9.65486 53.2392 11.1018C46.9875 13.8597 41.156 18.6384 37.1437 25.8382C36.1395 27.6436 35.2267 29.5501 34.3652 31.5171C37.7988 39.0267 41.9406 45.9248 46.2874 51.9108C53.2645 61.5132 61.169 69.1252 70.0933 75.0694C71.363 75.9159 72.6458 76.7316 73.9382 77.5258C74.9092 72.7741 75.7875 67.9807 76.6584 63.1933C78.1882 54.7652 80.322 46.2838 80.8913 37.6013C81.6617 25.8685 78.6692 15.7336 74.271 6.3731C66.9293 2.16958 59.137 -0.0751552 51.7331 0.108465C58.0879 -0.0430217 64.7322 1.59578 71.1293 4.71824C68.5754 5.88009 65.8923 6.33729 63.2471 7.25539Z" fill="#661649"/>
<path d="M107.393 70.3744C107.326 71.4109 107.242 72.4544 107.13 73.5088C107.242 72.4544 107.326 71.4146 107.393 70.3744Z" fill="#661649"/>
<path d="M45.3942 0.893311C46.0416 0.746415 46.6957 0.617873 47.3522 0.512292C46.6957 0.622464 46.0416 0.741824 45.3942 0.893311Z" fill="#661649"/>
<path d="M102.094 38.6145C102.392 39.3315 102.683 40.0577 102.96 40.7839C102.683 40.0527 102.392 39.3315 102.094 38.6145Z" fill="#661649"/>
<path d="M99.3719 32.8586C99.8224 33.7101 100.261 34.5764 100.68 35.4495C100.261 34.5708 99.8224 33.7101 99.3719 32.8586Z" fill="#661649"/>
<path d="M87.2711 16.4097C89.2003 18.3459 91.0406 20.4351 92.7685 22.655C91.0406 20.4314 89.2003 18.3459 87.2711 16.4097Z" fill="#661649"/>
<path d="M80.8913 37.6013C80.322 46.2837 78.1882 54.7651 76.6585 63.1933C75.7875 67.9807 74.9092 72.7741 73.9382 77.5257C78.6756 80.4255 83.5574 82.9287 88.5793 84.7433C93.3063 86.4469 98.1232 86.4111 102.919 87.1731C103.632 86.7788 104.26 86.3124 104.763 85.751C104.882 85.3208 105.016 84.8902 105.127 84.4601L105.18 84.2682C105.46 83.178 105.702 82.0983 105.93 81.0172L106.123 80.0454C106.279 79.26 106.42 78.4764 106.55 77.696L106.711 76.6957C106.856 75.7327 106.986 74.7769 107.09 73.8267L107.13 73.509C107.242 72.4546 107.326 71.4112 107.393 70.3746L107.44 69.4565C107.479 68.6945 107.508 67.9325 107.522 67.1792L107.536 66.2198C107.543 65.3182 107.534 64.4212 107.508 63.5339L107.498 63.1574C107.463 62.1494 107.398 61.1491 107.32 60.1539L107.245 59.3253C107.177 58.5812 107.098 57.8407 107.007 57.1072L106.895 56.223C106.778 55.3623 106.646 54.5108 106.499 53.6643L106.444 53.3127C106.268 52.3445 106.071 51.387 105.86 50.4349L105.698 49.7408C105.524 49.0054 105.343 48.2792 105.149 47.553L104.941 46.7855C104.705 45.9573 104.464 45.1361 104.202 44.3199L104.119 44.0477C103.816 43.1241 103.496 42.2097 103.161 41.3076L102.96 40.7838C102.683 40.0576 102.392 39.3314 102.094 38.6144L101.832 37.9992C101.484 37.1886 101.124 36.3907 100.748 35.5961L100.68 35.4492C100.261 34.5761 99.8224 33.7099 99.3719 32.8584L99.2001 32.5444C98.8091 31.8126 98.4035 31.0919 97.9899 30.3836L97.7258 29.9301C97.2594 29.1465 96.7848 28.3698 96.2934 27.6133L96.2816 27.5954C95.7519 26.7741 95.206 25.9726 94.6473 25.178L94.5668 25.0706C94.0554 24.3494 93.5308 23.6448 92.9971 22.9511L92.7685 22.6551C91.0405 20.4351 89.2003 18.346 87.2711 16.4097L87.1128 16.2536C85.1535 14.299 83.1015 12.4968 80.9826 10.8648L80.8899 10.7932C78.7537 9.14708 76.5485 7.67674 74.3001 6.38589L74.2696 6.36799L74.271 6.37303C78.6692 15.7335 81.6617 25.8684 80.8913 37.6013Z" fill="#841C7A"/>
<path d="M23.204 67.6221V67.6184C18.654 65.9507 14.8622 64.529 12.2302 63.4943C14.8608 64.529 18.6262 65.9456 23.204 67.6221Z" fill="#841C7A"/>
<path d="M34.3652 31.5168C35.2267 29.5498 36.1395 27.6434 37.1437 25.8379C41.156 18.6382 46.9876 13.8595 53.2392 11.1015C56.5172 9.65461 59.9126 8.417 63.2471 7.25514C65.8923 6.33704 68.5754 5.87984 71.1293 4.71799C64.7322 1.59553 58.0879 -0.0432713 51.7331 0.108215L51.4612 0.117405C50.8876 0.140357 50.317 0.172482 49.7474 0.222977L49.3433 0.259709C48.7724 0.310205 48.2082 0.38363 47.6467 0.466259L47.3522 0.512181C46.6957 0.617762 46.0416 0.746304 45.3942 0.8932L45.171 0.95285C44.6268 1.08138 44.0823 1.22829 43.5445 1.38895L42.9394 1.58177C42.5261 1.7149 42.1138 1.8572 41.7043 2.00869L41.0478 2.26116C40.6382 2.42642 40.235 2.60086 39.8336 2.78448L39.2508 3.05071C38.6667 3.33532 38.0894 3.62913 37.5201 3.95231C33.6503 6.14886 30.3939 8.82418 27.6046 11.7974C29.1716 18.674 31.5259 25.2999 34.3652 31.5168Z" fill="#841C7A"/>
<path d="M12.0043 63.4048L12.2302 63.4943C14.8622 64.529 18.654 65.9507 23.204 67.6184C28.4238 69.5373 34.6426 71.7788 41.2656 74.1457C45.3428 75.6073 49.5692 77.1079 53.8115 78.6108L54.6766 78.9189C58.4156 80.2423 62.1546 81.5639 65.7996 82.846C67.8408 83.5686 69.8491 84.2769 71.8135 84.9673C72.078 85.0573 72.7277 85.267 73.6764 85.5627C77.7891 86.7103 95.481 91.265 102.919 87.173C98.1232 86.411 93.3063 86.4468 88.5793 84.7433C83.5575 82.9287 78.6756 80.4255 73.9382 77.5256C72.6458 76.7315 71.363 75.9158 70.0933 75.0693C61.1691 69.1251 53.2646 61.5131 46.2874 51.9107C41.9407 45.9247 37.7988 39.0266 34.3652 31.517C31.5259 25.3001 29.1716 18.6741 27.6046 11.7976L27.5532 11.855C26.8913 12.5633 26.2598 13.2945 25.6466 14.0336L25.2425 14.5321C24.6983 15.2079 24.171 15.8983 23.6637 16.5979L23.4431 16.899C22.8617 17.7147 22.303 18.5433 21.7717 19.3769L21.5721 19.7001C21.1206 20.4227 20.6884 21.1489 20.2683 21.8788L19.9392 22.4576C19.5114 23.2233 19.0964 23.9908 18.7 24.7657L18.5931 24.9681C18.1598 25.8201 17.7489 26.6662 17.3498 27.5182L17.0738 28.1241C16.7711 28.7824 16.4792 29.442 16.1938 30.0966L16.1583 30.1774L15.8965 30.7871C15.5478 31.6065 15.2069 32.4277 14.8791 33.2434C17.4543 35.7095 19.9842 38.9549 17.3116 51.3869L17.1357 52.1384C17.1188 52.6814 17.1134 53.2249 17.1306 53.7698L16.8516 53.3663C16.5611 54.5732 16.2442 55.8323 15.861 57.204C15.861 57.204 14.2372 56.8505 11.9819 55.9719C11.7665 56.8271 11.5805 57.6933 11.4628 58.5811C11.0995 57.6933 10.8841 56.5994 10.7586 55.4697L10.5445 55.3857C10.4177 57.8549 10.5022 60.3384 10.5736 62.8255L10.8273 62.9292L11.4256 63.1716L12.0043 63.4048Z" fill="#71C72D"/>
<path d="M72.798 85.3115C72.798 85.3115 73.1217 85.4065 73.6764 85.5626C72.7277 85.267 72.078 85.0572 71.8135 84.9672L71.6684 84.9172C71.6684 84.9172 75.7997 92.0774 82.0473 100.613C84.1321 103.464 86.4536 106.459 88.9372 109.399C98.62 120.858 110.76 131.384 120.964 128.236C123.928 127.322 125.338 125.971 125.869 124.546C125.124 125.609 123.767 126.581 121.468 127.29C100.807 133.66 72.798 85.3115 72.798 85.3115Z" fill="#3C9C3B"/>
<path d="M102.919 87.1729C95.481 91.2648 77.7891 86.7101 73.6764 85.5625C73.1217 85.4064 72.798 85.3114 72.798 85.3114C72.798 85.3114 100.807 133.66 121.468 127.29C123.767 126.581 125.124 125.609 125.869 124.546C128.196 121.225 124.502 116.97 124.519 116.799L104.791 85.7241L104.777 85.7384L104.763 85.7507C104.26 86.3122 103.632 86.7786 102.919 87.1729Z" fill="#661649"/>
<path d="M9.47168 37.6369C9.95939 38.3236 10.5631 38.6142 11.2078 38.6946C9.38205 39.8784 7.43323 40.6978 5.42354 41.4562C5.0285 41.5999 4.69704 42.5859 5.20707 42.837C6.43582 43.4379 7.76874 43.5095 9.11384 43.2226C8.3843 44.1999 7.6869 45.2131 7.071 46.3607C6.8559 46.7587 6.94044 47.6281 7.43729 47.3917C8.75972 46.7587 9.95397 45.8084 11.1695 44.8935C10.5959 47.0722 10.3277 49.4359 10.7004 51.5071C10.8273 52.2154 11.4536 51.704 11.5937 51.3097C12.5951 48.4999 13.788 45.4674 15.4236 43.1418C15.59 45.0873 16.0619 47.0419 16.9879 48.2253L17.5057 48.1661C17.7607 45.8493 17.7898 43.6798 17.643 41.3217C17.5044 39.1159 16.371 36.4209 15.0472 34.9024L14.9914 34.7766L14.2581 34.2064L14.1171 34.0953L13.9453 34.3143C13.4444 34.8073 12.842 35.1443 12.217 35.3954C11.4878 35.9155 10.6805 36.2597 9.87585 36.4443L9.47168 37.6369Z" fill="#332323"/>
<path d="M11.4628 58.5809C11.5805 57.6931 11.7665 56.8269 11.9819 55.9717L12.3134 54.7525C12.5184 54.0621 12.7389 53.3772 12.9743 52.6991L13.1143 52.2906L13.4126 51.1659L13.553 50.8882C13.8912 49.2957 14.3163 47.7446 14.8514 46.2082C14.9491 48.889 15.5823 51.5157 16.8516 53.3661L17.1306 53.7696C17.1134 53.2247 17.1188 52.6812 17.1357 52.1382L17.1766 51.2164C17.2389 50.2515 17.342 49.2921 17.4912 48.3474L17.5071 48.166H17.5057L16.9879 48.2252C16.0619 47.0418 15.5901 45.0872 15.4237 43.1417C13.788 45.4673 12.5951 48.4998 11.5937 51.3096C11.4536 51.7039 10.8273 52.2153 10.7004 51.507C10.3277 49.4358 10.5959 47.0721 11.1695 44.8935C9.95398 45.8083 8.75973 46.7586 7.4373 47.3916C6.94045 47.628 6.85591 46.7586 7.07101 46.3606C7.68691 45.213 8.38431 44.1999 9.11385 43.2225C7.76875 43.5094 6.43583 43.4378 5.20708 42.8369C4.69705 42.5858 5.02851 41.5998 5.42355 41.4561C7.43324 40.6978 9.38206 39.8784 11.2078 38.6945C10.5631 38.6141 9.9594 38.3235 9.47169 37.6368L9.87586 36.4442C10.6805 36.2597 11.4878 35.9154 12.217 35.3953H12.2251C11.5751 35.6588 10.9013 35.8382 10.2976 35.9994C8.85342 36.6682 7.50596 36.6237 6.5904 35.2195L6.57721 35.2879C6.96954 36.6453 7.4028 38.2643 8.28657 39.1967L8.01058 39.3582C6.05534 40.375 2.2382 42.1589 0.160187 40.9002C0.456128 41.6535 0.778453 42.3705 1.15624 43.0251C2.70224 44.9169 4.61892 45.6486 6.61948 44.9476C4.73662 47.8755 3.46695 51.3399 3.59243 55.1739L3.66007 55.3029L3.86605 54.9049L4.49107 53.8596L4.53335 53.7986L4.65072 53.4882C5.5426 51.2417 7.05545 49.8122 8.60246 48.4998C7.31554 52.6133 6.96819 57.3025 7.58375 61.5487C7.92603 60.2932 8.43471 59.1042 9.03302 58.0553C9.41893 56.5726 9.94215 55.1955 10.6291 53.8289C10.649 54.3724 10.695 54.9228 10.7586 55.4695C10.8841 56.5992 11.0995 57.6931 11.4628 58.5809Z" fill="#211715"/>
<path d="M75.7284 177.534C76.0994 180.618 76.398 183.744 76.6385 186.885C77.7787 186.156 78.9056 185.366 80.0102 184.488L81.0421 188.872C79.7089 189.885 78.3469 190.791 76.9595 191.619C77.1499 194.799 77.295 197.958 77.4063 201.083C79.4116 199.949 81.3391 198.6 82.906 196.775L77.0559 171.948L78.0969 176.377C77.3095 176.768 76.5171 177.145 75.7284 177.534Z" fill="#404CA7"/>
<path d="M70.717 151.273C70.3591 151.252 69.9969 151.243 69.6377 151.228L69.8241 151.713C70.9061 154.462 71.8389 157.384 72.6326 160.445C73.1877 160.379 73.7413 160.298 74.296 160.245L74.7056 161.98L74.2169 159.904C72.4544 153.7 70.2942 149.973 68.1117 147.8L68.134 147.848C69.0073 148.723 69.8768 149.839 70.717 151.273Z" fill="#404CA7"/>
<path d="M73.5918 164.494C74.0964 166.834 74.5446 169.228 74.9251 171.676C75.542 171.365 76.1603 171.066 76.7721 170.743L75.1825 164.004C74.6528 164.166 74.1228 164.327 73.5918 164.494Z" fill="#404CA7"/>
<path d="M77.5659 206.149C77.6041 207.494 77.6386 208.825 77.6704 210.139H83.3674C84.1388 209.538 84.8931 208.911 85.6027 208.215L84.1243 201.939C82.1254 203.741 79.882 205.055 77.5659 206.149Z" fill="#404CA7"/>
<path d="M68.5145 148.643C68.8845 149.44 69.24 150.257 69.5782 151.09L69.6377 151.228C69.9969 151.243 70.3591 151.252 70.717 151.273C69.8768 149.839 69.0073 148.723 68.134 147.848L68.3072 148.209L68.3285 148.213L68.5145 148.643Z" fill="#363536"/>
<path d="M72.6326 160.445C72.9763 161.772 73.2945 163.122 73.5918 164.494C74.1228 164.327 74.6528 164.166 75.1825 164.005L74.7056 161.98L74.296 160.245C73.7413 160.298 73.1877 160.379 72.6326 160.445Z" fill="#363536"/>
<path d="M74.9251 171.676C75.2288 173.603 75.4916 175.558 75.7284 177.534C76.5171 177.145 77.3095 176.768 78.0969 176.377L77.0559 171.948L76.7721 170.743C76.1603 171.066 75.542 171.365 74.9251 171.676Z" fill="#363536"/>
<path d="M81.0421 188.872L80.0102 184.488C78.9056 185.367 77.7787 186.156 76.6385 186.886C76.7576 188.463 76.8658 190.042 76.9595 191.619C78.3469 190.791 79.7089 189.885 81.0421 188.872Z" fill="#363536"/>
<path d="M77.4063 201.083C77.4668 202.787 77.5196 204.476 77.5659 206.149C79.882 205.055 82.1254 203.741 84.1243 201.939L82.906 196.775C81.3391 198.6 79.4116 199.948 77.4063 201.083Z" fill="#363536"/>
<path d="M83.3674 210.139H86.0559L85.604 208.215H85.6026C84.8931 208.911 84.1388 209.538 83.3674 210.139Z" fill="#363536"/>
<path d="M29.0552 193.995C30.3343 189.984 31.789 185.612 33.3161 181.363C30.1943 181.777 27.0695 182.103 23.9386 181.999C24.3624 180.238 24.8383 178.52 25.3416 176.826C27.8187 176.153 30.2681 175.312 32.7269 174.482C33.9306 174.078 35.1326 173.732 36.3404 173.439C37.9892 169.393 39.6404 165.848 41.1732 163.391C41.8365 162.324 42.5352 161.428 43.2472 160.612C38.6894 161.44 34.2252 162.866 29.8162 164.772C31.1772 161.79 32.6596 159.029 34.2489 156.518C39.4635 152.982 45.2319 150.947 50.9589 149.408C52.5191 148.987 54.1033 148.643 55.6994 148.368C56.2845 145.164 56.8923 141.967 57.5423 138.784C54.4601 139.031 50.8561 140.649 46.6825 143.168C46.6825 143.168 42.2447 145.75 37.1461 152.364C36.5491 153.138 35.9427 153.959 35.3309 154.851C28.4369 164.907 23.2632 179.834 21.5735 195.609C21.703 194.413 21.8549 193.221 22.023 192.037C24.2187 193.215 26.6681 193.674 29.0552 193.995Z" fill="#464EA8"/>
<path d="M24.311 209.745C24.311 209.745 25.1961 206.574 26.6217 201.846C24.771 201.294 22.9541 200.576 21.2183 199.599L21.2434 199.24C20.9698 203.008 20.7215 206.651 20.4875 210.139H24.5924L24.311 209.745Z" fill="#464EA8"/>
<path d="M21.2434 199.24C21.3306 198.035 21.4416 196.825 21.5721 195.627C21.4429 196.83 21.3293 198.03 21.2434 199.24Z" fill="#464EA8"/>
<path d="M58.722 138.757C59.0552 138.771 59.3802 138.807 59.6985 138.861H59.6907C59.3735 138.807 59.0538 138.771 58.722 138.757Z" fill="#464EA8"/>
<path d="M58.7221 138.757H58.6138C58.2678 138.748 57.9164 138.753 57.5569 138.781H57.5423V138.784C56.8923 141.967 56.2845 145.164 55.6994 148.369C59.8821 147.647 64.1454 147.483 68.3072 148.209L68.134 147.849L68.1117 147.8C67.2898 146.106 66.4219 144.468 65.4455 142.967L64.6449 141.859L64.2908 141.474L63.7903 140.932L63.4453 140.64L62.8825 140.17L62.5852 139.986L61.9219 139.578L61.6815 139.475L60.9073 139.148L60.7186 139.098L59.8412 138.879L59.6985 138.861C59.3802 138.807 59.0552 138.771 58.7221 138.757Z" fill="#3F45A3"/>
<path d="M69.5782 151.09C69.24 150.257 68.8845 149.44 68.5145 148.643C68.8818 149.44 69.24 150.257 69.5782 151.09Z" fill="#3F45A3"/>
<path d="M77.4063 201.083C77.295 197.958 77.1499 194.798 76.9595 191.619C76.8658 190.041 76.7576 188.463 76.6385 186.885C76.3981 183.744 76.0994 180.618 75.7284 177.534C75.4916 175.558 75.2288 173.603 74.9251 171.676C74.5446 169.228 74.0965 166.834 73.5918 164.494C73.2945 163.122 72.9763 161.772 72.6327 160.445C71.8389 157.384 70.9061 154.461 69.8241 151.712C71.042 154.815 72.0712 158.137 72.9273 161.634C69.3178 161.234 65.711 160.777 62.1019 160.409C63.2153 162.669 64.1758 165.875 64.4336 170.349C64.5472 171.147 64.6409 171.948 64.7177 172.755C68.2767 173.23 71.8257 173.854 75.353 174.586C75.5988 176.374 75.818 178.181 76.0121 180C74.275 179.928 72.5349 179.838 70.7938 179.768C68.6877 179.673 66.5792 179.641 64.4681 179.632C64.1772 183.03 64.0017 186.451 63.7507 189.867C63.6726 190.92 63.5616 191.978 63.4534 193.032C65.361 192.632 67.2675 192.193 69.17 191.741C71.7421 191.122 74.296 190.4 76.8249 189.523C76.9554 191.49 77.0718 193.457 77.1682 195.417C72.5867 198.236 67.4961 200.016 62.4002 201.239C62.0474 203.563 61.6723 205.877 61.2827 208.172C61.1704 208.83 61.046 209.484 60.9313 210.139H73.7041C75.0147 209.676 76.324 209.215 77.6373 208.785C77.6478 209.242 77.6586 209.685 77.6704 210.139C77.6386 208.825 77.6041 207.494 77.5659 206.149C77.5196 204.476 77.4668 202.787 77.4063 201.083Z" fill="#3F45A3"/>
<path d="M43.9463 159.82L44.8419 158.98C45.2146 158.648 45.5856 158.347 45.9611 158.066L46.3348 157.782C46.6493 157.564 46.9612 157.366 47.273 157.182L47.5304 157.026C47.8727 156.832 48.2109 156.653 48.5491 156.491L48.5741 156.479L48.5755 156.482C53.4928 154.169 57.8633 155.425 57.8633 155.425C57.8633 155.425 60.1994 156.551 62.1019 160.409C65.711 160.777 69.3178 161.234 72.9272 161.634C72.0712 158.138 71.042 154.815 69.8241 151.713L69.6377 151.228L69.5782 151.09C69.24 150.257 68.8818 149.44 68.5145 148.643L68.3285 148.212L68.3072 148.209C64.1454 147.483 59.8821 147.647 55.6994 148.369C54.1033 148.643 52.5191 148.987 50.9589 149.408C45.2319 150.947 39.4635 152.982 34.2489 156.518C32.6596 159.029 31.1772 161.79 29.8162 164.772C34.2252 162.866 38.6893 161.44 43.2472 160.612L43.9463 159.82Z" fill="#363536"/>
<path d="M32.7269 174.482C30.2681 175.312 27.8187 176.153 25.3416 176.826C24.8383 178.52 24.3624 180.238 23.9386 181.999C27.0695 182.103 30.1943 181.777 33.3161 181.363C34.3044 178.621 35.3217 175.935 36.3404 173.439C35.1327 173.732 33.9306 174.079 32.7269 174.482Z" fill="#363536"/>
<path d="M64.4681 179.632C66.5792 179.641 68.6877 179.673 70.7938 179.768C72.5349 179.838 74.275 179.928 76.0121 180C75.818 178.181 75.5988 176.373 75.3529 174.586C71.8257 173.854 68.2767 173.23 64.7177 172.755C64.7982 173.621 64.8655 174.491 64.9091 175.364C64.7295 176.781 64.5922 178.203 64.4681 179.632Z" fill="#363536"/>
<path d="M26.6217 201.846C27.3168 199.536 28.1397 196.864 29.0552 193.995C26.6681 193.674 24.2187 193.215 22.023 192.037C21.8549 193.221 21.703 194.413 21.5735 195.609L21.5721 195.627C21.4416 196.825 21.3306 198.035 21.2434 199.24L21.2183 199.599C22.9541 200.576 24.771 201.293 26.6217 201.846Z" fill="#363536"/>
<path d="M62.4002 201.239C67.4961 200.016 72.5866 198.236 77.1682 195.417C77.0718 193.457 76.9554 191.49 76.8249 189.523C74.296 190.4 71.7421 191.122 69.17 191.741C67.2675 192.193 65.3609 192.632 63.4534 193.032C63.1744 195.779 62.8152 198.519 62.4002 201.239Z" fill="#363536"/>
<path d="M73.7041 210.139H77.6704C77.6586 209.685 77.6477 209.242 77.6373 208.785C76.3239 209.215 75.0147 209.676 73.7041 210.139Z" fill="#363536"/>
<path d="M61.2827 208.172C61.6723 205.877 62.0474 203.563 62.4002 201.239C62.8152 198.519 63.1744 195.779 63.4534 193.032C63.5616 191.978 63.6726 190.92 63.7507 189.867C64.0016 186.451 64.1772 183.03 64.4681 179.632C64.5922 178.203 64.7295 176.781 64.9091 175.364C64.8655 174.491 64.7982 173.621 64.7177 172.755C64.6409 171.948 64.5472 171.147 64.4335 170.349C64.7176 175.275 64.1454 181.735 61.9642 190.184L61.9274 190.346L60.5731 196.066H60.5704L58.767 203.684L57.5224 208.946H57.5214L57.2373 210.139H60.9313C61.046 209.484 61.1704 208.83 61.2827 208.172Z" fill="#293174"/>
<path d="M47.5304 157.026C47.8727 156.832 48.2123 156.653 48.5491 156.491C48.2109 156.653 47.8727 156.832 47.5304 157.026Z" fill="#404CA7"/>
<path d="M44.8419 158.98C45.2119 158.649 45.5857 158.344 45.9611 158.066C45.5857 158.347 45.2146 158.649 44.8419 158.98Z" fill="#404CA7"/>
<path d="M37.462 170.779C38.248 168.963 39.0276 167.313 39.7926 165.851C46.9203 173.14 55.3903 176.924 64.0294 179.569C63.8735 180.794 63.683 182.071 63.4426 183.421C54.1669 181.619 44.9951 178.463 37.462 170.779ZM57.5214 208.946C47.4739 208.376 34.9399 206.09 28.7424 194.982C29.182 193.597 29.6447 192.157 30.123 190.692C37.2678 200.644 48.4619 203.454 58.882 203.199L58.767 203.684L60.5704 196.066C50.3102 195.157 39.8045 193.35 32.7851 182.869C33.4098 181.099 34.0466 179.35 34.694 177.641C41.8338 187.742 52.0781 188.496 61.9274 190.346L61.9642 190.184C64.1454 181.735 64.7177 175.275 64.4336 170.349C64.1758 165.875 63.2153 162.669 62.1019 160.409C60.1994 156.55 57.8633 155.424 57.8633 155.424C57.8633 155.424 53.4929 154.169 48.5755 156.482C53.3873 160.328 58.6784 162.782 63.7916 165.735C64.0876 167.184 64.3121 168.792 64.4031 170.639C62.0569 169.614 59.684 168.684 57.3269 167.686C52.6209 165.692 48.2599 162.92 43.9463 159.819L43.2472 160.612C42.5352 161.428 41.8365 162.324 41.1732 163.391C39.6404 165.848 37.9893 169.393 36.3404 173.438C35.3217 175.934 34.3044 178.621 33.3161 181.362C31.789 185.612 30.3344 189.984 29.0552 193.995C28.1397 196.864 27.3168 199.536 26.6217 201.846C25.1961 206.574 24.311 209.745 24.311 209.745C24.311 209.745 24.9506 207.453 26.0153 203.872C27.8995 206.239 29.9167 208.322 32.061 210.139H57.2373L57.5214 208.946Z" fill="#404CA7"/>
<path d="M48.5491 156.491C48.2122 156.653 47.8727 156.832 47.5304 157.026L47.273 157.182C46.9612 157.366 46.6493 157.564 46.3348 157.782L45.9611 158.066C45.5856 158.344 45.2119 158.648 44.8419 158.98L43.9463 159.819C48.2599 162.92 52.6209 165.692 57.3269 167.686C59.6839 168.685 62.0569 169.614 64.4031 170.639C64.3121 168.793 64.0876 167.184 63.7916 165.735C58.6784 162.782 53.3873 160.329 48.5755 156.482L48.5741 156.479L48.5491 156.491Z" fill="#363536"/>
<path d="M63.4426 183.421C63.683 182.071 63.8735 180.794 64.0294 179.569C55.3903 176.925 46.9203 173.141 39.7926 165.851C39.0276 167.313 38.248 168.963 37.462 170.779C44.9951 178.463 54.1669 181.619 63.4426 183.421Z" fill="#363536"/>
<path d="M34.694 177.642C34.0467 179.351 33.4098 181.099 32.7851 182.869C39.8045 193.35 50.3102 195.157 60.5704 196.067H60.5731L61.9274 190.346C52.0781 188.496 41.8338 187.743 34.694 177.642Z" fill="#363536"/>
<path d="M30.123 190.692C29.6447 192.157 29.182 193.597 28.7424 194.981C34.9399 206.09 47.4739 208.376 57.5214 208.946H57.5224L58.767 203.684L58.882 203.199C48.4619 203.454 37.2678 200.644 30.123 190.692Z" fill="#363536"/>
<path d="M26.0153 203.872C24.9506 207.453 24.311 209.745 24.311 209.745L24.5924 210.139H32.061C29.9167 208.322 27.8995 206.239 26.0153 203.872Z" fill="#363536"/>
</svg>
