<svg width="147" height="220" viewBox="0 0 147 220" fill="none" xmlns="http://www.w3.org/2000/svg">
<path d="M83.241 146.658C82.6322 143.725 81.9591 140.631 81.2421 137.545L80.9952 138.024L80.9512 138.11C80.7449 138.537 80.5453 138.987 80.3458 139.451L80.0989 139.808C79.8216 139.093 79.6153 138.325 79.4665 137.486C79.3921 137.063 79.179 137.059 78.9727 137.207V136.995L78.8407 137.33L78.5262 137.866L78.3503 138.501L77.7923 139.593L77.1259 139.828L76.9568 138.937C76.9906 138.363 76.9941 137.821 76.9501 137.312L76.6592 136.98C76.1756 136.15 75.9659 135.132 75.3909 134.452C74.4507 132.387 73.3244 130.418 72.3876 128.25C71.126 125.33 70.7911 121.584 70.2906 118.315C70.162 117.48 70.0369 116.641 69.9253 115.787V115.746C68.613 120.151 66.9253 124.315 64.4631 127.947C60.5296 133.746 55.4834 139.028 49.967 142.353C48.834 142.824 47.684 143.197 46.5172 143.439L46.5273 143.495C48.6716 143.78 54.6412 139.772 56.0313 143.472C56.5623 144.89 57.922 149.386 59.5285 154.842C63.3301 150.707 66.2285 149.018 66.2285 149.018C73.5848 144.574 79.1857 142.912 83.241 146.658Z" fill="#8B613E"/>
<path d="M64.4631 127.946C66.9253 124.315 68.6131 120.151 69.9254 115.746C69.9659 115.154 69.9896 114.565 70.0065 113.977C69.6886 113.812 69.3977 113.506 69.1373 113C68.0347 110.834 68.2275 107.147 68.3763 104.481C68.6705 99.0169 70.2399 91.3512 73.2771 88.0373C73.6796 87.6054 74.1091 87.2611 74.5454 86.9668C72.4654 87.5911 70.798 89.1941 69.4282 92.2101C68.3899 94.4856 68.1125 97.3781 67.7303 99.9441C67.2568 103.113 66.5533 105.609 65.2816 108.071C64.8994 108.506 64.5071 108.942 64.0945 109.328C63.0088 110.117 61.7236 110.429 60.5432 110.301C59.9986 110.237 58.7235 109.392 58.8892 108.451L59.0719 108.257C62.2714 108.194 63.4484 103.631 62.0279 100.288C61.7066 99.5406 61.2973 98.8984 60.8949 98.2461C60.3097 97.7366 59.8329 97.0425 59.4574 95.9651C58.3447 92.7104 60.6006 89.1386 61.8487 86.7052C63.7664 82.9593 62.0651 78.53 60.2557 74.5133C60.046 74.0455 57.4789 77.4149 56.6266 78.8977C55.9569 79.875 55.4293 80.9955 55.1587 82.4677C55.0843 82.8909 55.0336 83.5295 55.0336 84.218C53.7686 83.4739 53.3527 80.5957 53.4474 79.1074C53.5725 77.1996 54.1982 75.1463 54.577 73.1095C49.4529 75.0871 42.2354 77.492 34.6593 78.81C34.7269 81.9136 33.7089 84.7955 32.2545 87.408C31.9163 88.3908 31.5239 89.3681 31.0437 90.3776C29.9039 92.7784 28.6694 95.5184 26.9377 97.2509C26.1565 98.0308 25.2196 98.6818 24.4586 99.5227C24.3233 100.018 24.2591 100.527 24.2692 101.047L24.3639 99.9818C26.7382 103.154 30.3808 103.91 33.6886 104.14C32.6435 105.732 31.4326 107.032 30.1339 108.171L30.1305 108.157L30.1508 108.313C30.1508 108.313 30.1407 109.374 29.542 111.026C29.1801 112.008 28.48 114.047 28.5138 115.401C30.6683 117.302 33.0832 118.146 35.6063 118.544L34.9467 118.765C33.462 119.201 32.1835 119.377 30.8476 120.224C30.4789 120.566 30.2354 120.996 30.2489 121.557C30.3098 124.297 31.5206 123.535 32.0178 126.275C33.1204 129.434 33.4552 133.139 34.1249 136.558C35.7483 140.052 38.0787 142.852 40.9907 143.468C42.8814 143.866 44.7212 143.812 46.5172 143.439C47.684 143.197 48.834 142.824 49.9671 142.353C55.4834 139.028 60.5296 133.745 64.4631 127.946Z" fill="#A06E46"/>
<path d="M35.6063 118.545C33.0832 118.147 30.6682 117.302 28.5138 115.402L28.5307 115.746C28.8723 118.165 32.5657 119.077 34.1181 118.959L34.0572 118.991L34.0268 119L33.6243 119.088L33.5364 119.106L33.3537 119.142L32.9952 119.225L32.9039 119.253L32.471 119.371L32.3391 119.418L31.8453 119.607L31.8351 119.61L31.3786 119.848L31.2669 119.913L30.8476 120.225C32.1835 119.377 33.4619 119.201 34.9467 118.766L35.6063 118.545Z" fill="#8B613E"/>
<path d="M33.6886 104.14C30.3808 103.91 26.7381 103.154 24.3639 99.9819L24.2692 101.047L24.2793 101.23L24.3098 101.607L24.4417 102.227L24.7224 102.96C25.4225 103.893 26.3256 104.632 27.1001 105.128C27.9693 105.687 30.0155 106.588 30.1305 108.157L30.1339 108.171C31.4326 107.032 32.6435 105.732 33.6886 104.14Z" fill="#8B613E"/>
<path d="M85.6762 98.92C85.507 99.5085 85.8047 99.9676 86.2376 99.7018C87.9626 98.6639 89.5691 96.5803 90.8577 93.9963C90.5803 98.7102 89.3797 103.428 87.6007 107.038C87.2861 107.675 87.746 108.542 88.2026 107.886C90.1102 105.114 92.3594 101.735 94.1485 98.0396C93.7562 104.929 90.9389 111.417 86.8465 115.749C86.5049 116.116 86.5488 117.155 87.1102 116.938C94.0031 114.298 99.3774 108.883 103.341 100.835L103.531 100.435C105.056 102.845 107.021 104.585 109.578 105.013C109.957 105.073 110.356 104.205 110.106 103.787C107.88 100.097 106.673 96.2626 106.737 92.0756C106.997 91.1575 107.221 90.227 107.42 89.2855C100.04 86.2048 91.0471 82.3906 81.8813 78.4657C84.5533 84.9388 87.9828 90.8651 85.6762 98.92Z" fill="#AA571E"/>
<path d="M79.7505 81.1787C79.2906 79.8281 78.9693 78.4799 78.7528 77.1298C77.7787 76.7116 76.8115 76.2994 75.8442 75.8854C76.6221 78.1177 77.6266 80.2013 78.8712 82.0499C79.2365 82.5971 79.9636 81.8025 79.7505 81.1787Z" fill="#AA571E"/>
<path d="M65.1734 81.9411C65.0314 82.6296 65.5826 82.7586 65.8938 82.4272C67.2872 80.9403 68.2884 78.8838 69.0257 76.6119C68.816 79.9488 68.1395 83.1534 66.5702 86.017C66.2185 86.6642 66.6852 87.4226 67.1722 86.8616C69.7359 83.9191 72.4958 79.8574 74.5183 75.317C71.4744 74.0133 68.4575 72.7132 65.5184 71.4476C65.9446 74.8937 65.8938 78.4302 65.1734 81.9411Z" fill="#AA571E"/>
<path d="M107.42 89.2856C107.221 90.2271 106.998 91.1576 106.737 92.0757C106.673 96.2627 107.88 100.097 110.106 103.787C110.356 104.205 109.957 105.073 109.578 105.014C107.021 104.585 105.056 102.845 103.531 100.435L103.341 100.835C99.3775 108.883 94.0032 114.298 87.1103 116.938C86.5489 117.155 86.505 116.117 86.8466 115.749C90.939 111.417 93.7563 104.929 94.1487 98.0397C92.3595 101.736 90.1103 105.114 88.2027 107.886C87.7462 108.542 87.2862 107.675 87.6008 107.038C89.3798 103.428 90.5805 98.7104 90.8578 93.9964C89.5692 96.5804 87.9627 98.664 86.2378 99.7019C85.8048 99.9677 85.5072 99.5087 85.6763 98.9202C87.9829 90.8652 84.5534 84.9389 81.8815 78.4658C80.8398 78.0247 79.7947 77.5743 78.7529 77.13C78.9694 78.48 79.2907 79.8283 79.7507 81.1788C79.9637 81.8027 79.2366 82.5973 78.8714 82.0501C77.6267 80.2015 76.6222 78.1179 75.8443 75.8855C75.4012 75.6936 74.9581 75.505 74.5184 75.3167C72.4959 79.8572 69.736 83.9189 67.1723 86.8614C66.6853 87.4223 66.2186 86.664 66.5703 86.0167C68.1396 83.1532 68.8161 79.9485 69.0258 76.6117C68.2885 78.8836 67.2873 80.9401 65.8939 82.427C65.5827 82.7584 65.0314 82.6294 65.1735 81.9408C65.8939 78.43 65.9446 74.8935 65.5185 71.4474C64.3009 70.9236 63.0934 70.4054 61.9063 69.8908L62.0111 69.9408C62.0111 69.9408 59.116 71.3556 54.5771 73.1096C54.1983 75.1464 53.5726 77.1998 53.4475 79.1076C53.3528 80.5958 53.7688 83.4741 55.0337 84.2182C55.0337 83.5296 55.0844 82.8911 55.1588 82.4678C55.4294 80.9956 55.957 79.8751 56.6267 78.8978C57.479 77.4151 60.0461 74.0456 60.2558 74.5134C62.0653 78.5301 63.7665 82.9595 61.8488 86.7053C60.6008 89.1387 58.3448 92.7106 59.4576 95.9652C59.833 97.0426 60.3099 97.7367 60.895 98.2463C61.2975 98.8986 61.7067 99.5408 62.028 100.289C63.4486 103.631 62.2716 108.194 59.072 108.257L58.8894 108.451C58.7236 109.392 59.9988 110.237 60.5433 110.301C61.7237 110.429 63.0089 110.117 64.0946 109.328C64.5072 108.942 64.8996 108.506 65.2817 108.071C66.5535 105.609 67.2569 103.113 67.7304 99.9443C68.1126 97.3782 68.39 94.4857 69.4283 92.2102C70.7981 89.1943 72.4655 87.5913 74.5455 86.967C75.523 86.311 76.5715 85.9896 77.5996 86.0957C78.3911 86.187 79.1622 86.5134 79.8657 87.1051C81.6177 88.5736 83.5861 91.8049 82.47 98.687C81.6346 103.814 80.0822 104.47 76.3483 108.602C74.7451 110.375 71.9311 115.007 70.0067 113.977C69.9897 114.565 69.9661 115.154 69.9255 115.746V115.787C70.0371 116.64 70.1622 117.48 70.2907 118.315C70.7913 121.584 71.1262 125.33 72.3877 128.249C73.3246 130.417 74.4508 132.386 75.3911 134.452C75.966 135.131 76.1757 136.15 76.6594 136.98L76.9503 137.312C76.9943 137.821 76.9908 138.363 76.957 138.936L77.1261 139.828L77.7925 139.593L78.3505 138.501L78.5264 137.866L78.8409 137.33L78.9728 136.995V137.206C79.1791 137.059 79.3922 137.063 79.4666 137.486C79.6154 138.325 79.8217 139.092 80.099 139.808L80.3459 139.451C80.5455 138.987 80.745 138.537 80.9514 138.11L80.9954 138.024L81.2423 137.545C81.6853 136.659 82.152 135.82 82.7202 135.029C83.5827 134.611 84.408 134.111 85.2028 133.639L85.541 133.378L85.8116 133.275C93.7597 128.552 101.735 124.114 108.936 117.379C110.261 116.14 111.564 114.831 112.822 113.45C113.556 101.951 121.321 98.3463 121.321 98.3463C122.282 98.1278 123.012 98.2192 123.604 98.4432C123.814 97.6164 124.01 96.7952 124.216 95.9831C122.217 95.3772 115.883 92.8162 107.42 89.2856Z" fill="#8F4D1D"/>
<path d="M120.134 86.7665C120.134 86.7665 122.566 88.1882 125.901 89.2537C126.279 87.6057 126.645 85.9435 126.979 84.2863C128.133 78.6129 129.181 73.0038 129.655 67.2514C126.259 67.6692 122.65 69.7762 120.134 86.7665Z" fill="#8F4D1D"/>
<path d="M77.9141 99.1461C77.7991 100.079 77.6131 100.964 77.4 101.68C76.5105 104.673 74.5015 107.203 71.9919 107.23C70.9772 107.239 70.1757 106.789 70.4936 105.173C70.6221 104.526 71.1227 103.631 71.4981 103.199C72.1542 102.456 72.2659 100.432 72.2963 99.3903C72.3978 96.5749 72.3606 92.8791 75.232 92.8488C77.8938 92.8199 78.2726 96.2072 77.9141 99.1461ZM76.3482 108.602C80.0821 104.47 81.6345 103.814 82.4699 98.687C83.586 91.805 81.6176 88.5737 79.8656 87.1052C79.1621 86.5135 78.391 86.1871 77.5996 86.0958C76.5714 85.9897 75.5229 86.3111 74.5454 86.967C74.1091 87.2613 73.6796 87.6056 73.2771 88.0375C70.2399 91.3514 68.6706 99.0171 68.3763 104.481C68.2275 107.147 68.0347 110.834 69.1373 113C69.3978 113.506 69.6886 113.813 70.0066 113.978C71.931 115.007 74.745 110.375 76.3482 108.602Z" fill="#A06E46"/>
<path d="M75.2319 92.8488C72.3604 92.8791 72.3977 96.5749 72.2962 99.3902C72.2658 100.432 72.1541 102.456 71.498 103.199C71.1226 103.631 70.622 104.526 70.4935 105.173C70.1756 106.789 70.9771 107.239 71.9918 107.23C74.5013 107.203 76.5104 104.673 77.3999 101.68C77.613 100.964 77.799 100.079 77.914 99.146C78.2725 96.2072 77.8937 92.8198 75.2319 92.8488Z" fill="#8B613E"/>
<path d="M72.7461 23.2183C69.8272 30.9864 68.312 39.7028 66.303 47.9478C65.1598 52.6264 64.0268 57.317 62.9851 62.0401C64.3921 62.3073 65.7957 62.5405 67.2027 62.7434C77.0922 64.1472 86.7686 63.4141 96.4417 60.3155C102.465 58.3875 108.678 55.5313 114.53 51.6527C114.57 49.3717 114.55 47.0889 114.404 44.8405C113.83 35.8477 110.762 27.5903 106.548 20.7454C104.339 17.1557 101.955 13.6517 99.5803 10.2612C97.6999 7.57482 95.6096 5.25249 93.9016 2.4197C100.561 4.39728 106.842 7.82225 112.169 12.5564C104.052 5.32961 93.7224 1.15732 83.2173 0.5096C85.693 0.665676 88.1621 1.00996 90.5972 1.54797C83.197 6.30693 76.6964 12.7249 72.7461 23.2183Z" fill="#85C627"/>
<path d="M83.187 0.509534C80.7315 0.362638 78.2693 0.40395 75.8172 0.647705C78.2659 0.40395 80.7315 0.362638 83.187 0.509534Z" fill="#85C627"/>
<path d="M33.8611 45.3787C33.7901 45.8231 33.7225 46.2771 33.6582 46.727L33.6616 46.7449C33.7292 46.2968 33.7867 45.8231 33.8611 45.3787Z" fill="#85C627"/>
<path d="M112.297 12.6659C112.815 13.1337 113.322 13.6107 113.826 14.1023C113.326 13.6107 112.815 13.1337 112.297 12.6659Z" fill="#85C627"/>
<path d="M34.6695 49.2893C39.0258 52.112 43.0945 55.6136 47.7619 57.5843C52.727 59.6771 57.8375 61.0777 62.9852 62.0403C64.0269 57.3171 65.1598 52.6266 66.303 47.9479C68.312 39.7029 69.8273 30.9865 72.7461 23.2185C76.6965 12.7251 83.1971 6.30708 90.5973 1.54812C88.1621 1.01011 85.6931 0.665828 83.2173 0.509752H83.187C80.7315 0.362856 78.2659 0.404168 75.8172 0.647923L75.6785 0.665827C73.2704 0.913254 70.8791 1.35073 68.5285 1.98743L68.2579 2.06638C67.5172 2.2725 66.7799 2.49835 66.0561 2.73705L65.975 2.76413C64.4564 3.27322 62.9614 3.87917 61.4902 4.57325L61.108 4.75596C60.4688 5.05939 59.8397 5.38026 59.214 5.72088L58.9637 5.85354C58.2433 6.25337 57.533 6.67111 56.8329 7.10675L56.7281 7.17514C56.0956 7.58049 55.4733 8.00189 54.8544 8.43386L54.4011 8.76391C53.8634 9.15824 53.3324 9.56174 52.8081 9.98499L52.4394 10.2737C51.8002 10.7975 51.1678 11.3387 50.5522 11.9038L50.3831 12.0686C49.8386 12.5745 49.3076 13.0978 48.78 13.634L48.3098 14.1307C47.86 14.6026 47.4169 15.0901 46.984 15.5904L46.5748 16.0582C46.0235 16.7059 45.4823 17.3798 44.9513 18.0739L44.7721 18.3213C44.3155 18.9365 43.8656 19.5658 43.4259 20.2131L42.993 20.8695C42.6244 21.4341 42.2659 22.008 41.9141 22.5854L41.5319 23.2295C41.0753 24.0181 40.6255 24.8215 40.1959 25.6519L40.0539 25.9425C39.6785 26.6811 39.3166 27.4431 38.9649 28.218L38.6063 29.0264C38.3188 29.6828 38.0449 30.348 37.7777 31.0278L37.4666 31.8256C37.1115 32.758 36.7698 33.705 36.4552 34.6768L36.3707 34.9531C36.0832 35.8423 35.816 36.7517 35.559 37.684L35.3087 38.6343C35.1092 39.3963 34.9232 40.1675 34.7439 40.9437L34.5274 41.9032C34.3008 42.9773 34.0844 44.0694 33.8916 45.1991L33.8611 45.3786C33.7867 45.823 33.7293 46.2967 33.6616 46.7448C33.8646 47.5912 34.2197 48.4396 34.6695 49.2893Z" fill="#288E3E"/>
<path d="M130.297 54.3888C130.358 55.3482 130.409 56.3021 130.443 57.2491C130.409 56.3021 130.355 55.3482 130.297 54.3888Z" fill="#3EAE3C"/>
<path d="M99.5803 10.2613C101.955 13.6518 104.339 17.1557 106.548 20.7455C110.762 27.5904 113.829 35.8478 114.404 44.8405C114.55 47.089 114.57 49.3718 114.53 51.6528C119.366 48.4395 123.962 44.5339 127.981 39.841C128.282 40.9708 128.542 42.1005 128.782 43.2247C127.595 37.6192 125.684 31.8545 122.664 26.0337C122.305 25.3452 121.93 24.6745 121.544 24.0093L121.179 23.4066C120.898 22.9439 120.614 22.4848 120.327 22.035L119.901 21.3964C119.596 20.9466 119.285 20.5017 118.967 20.0661L118.585 19.5373C118.148 18.9543 117.705 18.3805 117.249 17.8246L117.215 17.7888C116.708 17.1736 116.19 16.5764 115.659 15.9939L115.541 15.8699C115.057 15.3429 114.563 14.832 114.063 14.3317L113.826 14.1021C113.322 13.6105 112.815 13.1335 112.297 12.6658L112.169 12.5565C106.842 7.82233 100.561 4.39736 93.9016 2.41978C95.6096 5.25257 97.6998 7.5749 99.5803 10.2613Z" fill="#3EAE3C"/>
<path d="M114.53 51.6526C108.679 55.5311 102.465 58.3873 96.4418 60.3153C86.7687 63.4139 77.0923 64.147 67.2028 62.7433C65.7958 62.5404 64.3922 62.3072 62.9852 62.04C57.8375 61.0774 52.727 59.6768 47.762 57.584C43.0946 55.6133 39.0258 52.1117 34.6696 49.289C39.3674 58.1294 56.1261 67.0358 60.0596 69.0405C61.0133 69.4908 61.6695 69.7901 61.9062 69.8907C63.0934 70.4053 64.3009 70.9235 65.5185 71.4473C68.4576 72.7129 71.4745 74.0129 74.5184 75.3166C74.9581 75.5048 75.4012 75.6935 75.8443 75.8854C76.8116 76.2994 77.7789 76.7117 78.7529 77.1299C79.7946 77.5742 80.8397 78.0246 81.8814 78.4657C91.0472 82.3906 100.04 86.2048 107.42 89.2855C115.883 92.816 122.217 95.3771 124.216 95.983C124.629 96.1065 124.856 96.1533 124.879 96.1033C125.004 95.8504 126.083 93.5409 127.368 89.6798C126.861 89.5421 126.374 89.4003 125.901 89.2534C122.566 88.1879 120.134 86.7662 120.134 86.7662C122.65 69.7759 126.259 67.6689 129.655 67.2511L130.352 67.1832C130.396 66.2651 130.429 65.3236 130.456 64.3766L130.477 63.5553C130.49 62.8075 130.497 62.0547 130.5 61.2927L130.504 60.5449C130.5 59.5386 130.484 58.5292 130.453 57.5055L130.443 57.2489C130.409 56.3019 130.358 55.348 130.297 54.3886L130.243 53.6913C130.176 52.741 130.091 51.7816 129.986 50.8167L129.953 50.5013C129.827 49.3803 129.679 48.2561 129.503 47.1264L129.459 46.8556C129.293 45.8319 129.104 44.8045 128.894 43.7717L128.782 43.2245C128.542 42.1003 128.282 40.9705 127.981 39.8408C123.963 44.5337 119.366 48.4393 114.53 51.6526Z" fill="#3D5676"/>
<path d="M62.011 69.9409L61.9062 69.8908C61.6694 69.7903 61.0133 69.491 60.0595 69.0407C60.5905 69.3078 60.9017 69.4589 60.9017 69.4589C60.9017 69.4589 18.232 90.1804 3.23538 69.8637C1.56797 67.6048 0.800263 65.8062 0.583803 64.3643C0.478955 65.9568 1.13849 68.1102 3.29632 71.0329C10.0979 80.2429 22.8048 80.8667 34.6593 78.8102C42.2354 77.4922 49.453 75.0873 54.577 73.1097C59.1159 71.3556 62.011 69.9409 62.011 69.9409Z" fill="#1B4322"/>
<path d="M60.9017 69.4591C60.9017 69.4591 60.5905 69.3081 60.0595 69.0409C56.126 67.0362 39.3674 58.1298 34.6695 49.2894C34.2197 48.4397 33.8646 47.5914 33.6616 46.7449L33.6582 46.727L33.6515 46.7036L4.76754 58.7825C4.71343 58.9386 -0.0824702 59.8709 0.583821 64.3646C0.80028 65.8064 1.56798 67.605 3.2354 69.864C18.232 90.1806 60.9017 69.4591 60.9017 69.4591Z" fill="#1F6330"/>
<path d="M121.605 106.109C119.319 113.032 123.043 121.952 123.367 128.938C123.601 134.007 122.488 138.978 120.526 143.247C119.095 146.337 117.005 148.75 115.595 151.878C113.119 157.363 114.13 163.331 117.144 167.884C117.469 168.371 118.023 167.682 117.891 167.141C117.09 163.849 117.895 160.686 119.349 158.064C119.244 161.269 119.698 164.62 120.323 167.521C122.488 177.511 124.615 189.565 116.755 195.997C116.451 196.244 116.285 197.071 116.775 197.126C118.784 197.336 120.749 196.418 122.505 194.799C119.958 202.014 118.064 209.869 123.36 215.185C123.702 215.524 124.145 214.794 124.04 214.341C122.758 209.074 123.58 203.203 125.877 198.713C126.54 204.672 129.472 211.366 125.846 215.533C125.583 215.833 125.589 216.801 126.07 216.539C131.089 213.83 132.952 206.838 132.841 199.802C133.223 200.435 133.652 201.037 134.143 201.615C134.457 201.997 134.948 201.215 134.819 200.779C134.001 198.016 133.656 195.423 133.693 192.902L133.707 192.833C133.862 187.339 137.173 185.759 139.541 182.143C141.55 179.076 140.61 174.059 139.399 170.832C138.431 168.26 137.244 165.732 137.004 162.798C136.707 159.217 138.678 155.848 139.913 152.9C141.628 148.8 142.784 144.33 141.976 139.625C141.323 135.806 139.145 132.745 137.434 129.732C135.286 125.959 134.63 122.301 134.843 117.608C134.928 115.713 135.029 113.771 135.036 111.88L135.144 112.541C134.999 111.44 134.789 110.323 134.508 109.24C132.973 104.334 129.682 101.432 125.515 100.382C123.76 101.735 122.437 103.599 121.605 106.109Z" fill="#AA571E"/>
<path d="M114.831 114.134C115.369 117.458 116.481 120.607 117.337 123.92C118.284 127.593 119.031 131.721 118.125 135.571C117.212 139.451 115.571 142.618 113.796 145.846C111.526 149.968 109.598 154.424 111.263 159.667C112.582 163.826 115.122 167.489 115.96 171.929C116.667 175.684 115.487 181.549 112.487 181.628C115.101 184.359 118.717 182.487 120.269 178.686C120.533 180.893 120.371 183.088 119.755 185.245C118.565 189.382 114.949 191.833 112.653 194.788C109.889 198.36 107.955 206.087 112.291 209.092L112.511 208.712C110.775 205.246 112.182 202.28 114.442 200.114C114.202 201.05 114.039 202.029 114.019 203.062C113.982 204.71 114.12 206.297 114.543 207.753C116.522 211.576 120.083 215.28 120.432 220H131.573L131.559 219.55C131.61 217.714 132.408 216.218 133.382 215.033C134.623 213.306 136.067 211.366 136.111 208.777C136.118 208.171 136.091 207.611 136.044 207.068C138.191 206.973 140.387 204.512 139.348 201.294C138.665 199.181 137.302 198.098 136.23 196.391C133.203 191.58 137.417 187.278 140.099 184.868C143.18 182.105 144.969 178.544 143.549 173.462C142.808 170.817 141.415 168.122 141.229 165.258C140.972 161.227 142.619 158.234 144.242 155.136C146.823 150.219 147.993 144.298 145.981 138.537C145.044 135.87 143.917 133.23 142.423 131.05C140.66 128.499 138.591 126.39 136.839 123.853C134.356 120.254 135.692 116.779 135.144 112.541L135.036 111.88C135.029 113.771 134.928 115.713 134.843 117.609C134.63 122.301 135.286 125.96 137.434 129.732C139.145 132.745 141.323 135.806 141.976 139.625C142.785 144.33 141.628 148.801 139.913 152.9C138.679 155.848 136.707 159.217 137.004 162.798C137.244 165.732 138.432 168.26 139.399 170.832C140.61 174.059 141.55 179.076 139.541 182.143C137.173 185.76 133.862 187.339 133.707 192.834L133.693 192.902C133.656 195.423 134.001 198.016 134.819 200.779C134.948 201.215 134.458 201.997 134.143 201.615C133.653 201.037 133.223 200.435 132.841 199.802C132.952 206.838 131.089 213.83 126.07 216.539C125.589 216.801 125.583 215.833 125.846 215.533C129.472 211.366 126.54 204.672 125.877 198.713C123.58 203.203 122.759 209.074 124.04 214.341C124.145 214.794 123.702 215.524 123.361 215.185C118.064 209.869 119.958 202.015 122.505 194.799C120.75 196.418 118.785 197.336 116.776 197.126C116.285 197.071 116.451 196.244 116.755 195.997C124.615 189.565 122.488 177.511 120.323 167.521C119.698 164.62 119.244 161.269 119.349 158.064C117.895 160.686 117.09 163.849 117.892 167.141C118.023 167.683 117.469 168.371 117.144 167.884C114.131 163.331 113.119 157.363 115.595 151.878C117.005 148.75 119.096 146.337 120.526 143.247C122.488 138.978 123.601 134.007 123.367 128.938C123.043 121.952 119.319 113.032 121.605 106.109C122.437 103.599 123.76 101.736 125.515 100.382H125.518C118.23 104.711 114.851 114.065 114.831 114.134Z" fill="#8F4D1D"/>
<path d="M121.321 98.3462C121.321 98.3462 113.555 101.951 112.822 113.45C112.822 113.45 112.876 116.245 114.827 114.142L114.831 114.133C114.851 114.065 118.23 104.71 125.518 100.382C125.518 100.382 125.035 98.9934 123.604 98.443C123.012 98.219 122.282 98.1277 121.321 98.3462Z" fill="#3D5676"/>
<path d="M92.3662 166.842C95.7518 180.21 96.6954 196.047 97.1317 210.581L97.1453 211.131C97.2197 213.711 97.2839 216.263 97.3414 218.738C97.3515 219.15 97.3313 219.582 97.3279 220H106.571L92.3865 166.874L92.3662 166.842Z" fill="#8B613E"/>
<path d="M48.4011 184.942C49.0708 174.907 50.3155 169.21 50.9817 166.768C51.5195 165.776 52.0235 165.337 52.4192 164.74C52.4868 164.831 50.816 170.087 49.8825 182.426C50.8295 180.746 51.6446 179.153 52.2669 177.905C54.6649 173.139 56.6198 167.851 59.2309 163.298C61.6829 159.02 64.0979 154.732 67.2129 151.298C69.8848 148.352 73.0438 146.796 76.3549 146.037C81.276 148.829 84.391 154.235 86.4981 161.659C88.3853 168.33 89.2816 174.907 90.0798 181.908C90.2455 183.367 90.4214 184.836 90.6006 186.306C89.5995 169.748 88.6018 158.096 88.3346 154.98C87.347 152.785 86.2579 150.707 85.0302 148.815C84.4721 147.952 83.8701 147.246 83.241 146.658C79.1858 142.912 73.5848 144.574 66.2286 149.017C66.2286 149.017 63.3301 150.707 59.5285 154.842C58.0641 156.436 56.4744 158.372 54.8577 160.732C49.9502 167.892 42.4079 180.21 38.1024 192.695C41.3831 194.61 45.3165 189.923 48.4011 184.942Z" fill="#A06E46"/>
<path d="M35.5895 201.941C35.6977 201.381 35.8127 200.811 35.9412 200.243C35.8161 200.811 35.6977 201.381 35.5895 201.941Z" fill="#A06E46"/>
<path d="M91.9807 193.307C92.0213 194.257 92.0788 195.279 92.1295 196.294C92.603 198.754 93.1543 201.184 93.8409 203.542C94.5478 205.984 95.5963 208.812 97.1318 210.58C96.6955 196.047 95.7518 180.21 92.3662 166.841C91.5207 163.51 90.5128 160.341 89.3358 157.381C90.2727 165.608 91.8082 189.697 91.9807 193.307Z" fill="#A06E46"/>
<path d="M48.3876 215.933C47.7145 202.739 47.8938 192.586 48.4011 184.942C45.3166 189.923 41.3831 194.611 38.1024 192.696L38.0719 192.787C37.8352 193.476 37.6086 194.164 37.3955 194.853L37.2365 195.367C37.0437 196 36.8611 196.63 36.6853 197.259L36.5906 197.598C36.3944 198.328 36.2117 199.054 36.046 199.779L35.9412 200.243C35.8127 200.811 35.6977 201.382 35.5894 201.941L35.4744 202.57C35.3662 203.171 35.2681 203.768 35.1869 204.365L35.1362 204.695C35.0449 205.389 34.9739 206.067 34.9198 206.747L34.8792 207.33C34.8419 207.841 34.8183 208.341 34.8014 208.845L34.7912 209.456C34.7844 210.125 34.7912 210.792 34.8217 211.439C34.9299 213.523 35.2749 216.525 35.7619 220H47.1802L48.3876 215.933Z" fill="#F9CD10"/>
<path d="M90.0798 181.908C89.2816 174.907 88.3854 168.33 86.4982 161.659C84.3911 154.236 81.2761 148.829 76.355 146.038C73.0438 146.796 69.8848 148.352 67.2129 151.299C64.0979 154.732 61.683 159.02 59.2309 163.298C56.6199 167.851 54.6649 173.139 52.267 177.906C51.6447 179.154 50.8296 180.746 49.8826 182.426C49.3313 189.717 49.0404 199.481 49.5207 212.114L52.7236 201.335C51.4485 193.549 53.7755 183.615 58.01 173.645C65.9581 154.924 72.3504 155.021 72.3504 155.021C76.4733 155.127 81.0461 155.347 83.5455 177.511C85.6661 196.327 80.7416 212.991 71.1396 215.478L69.5128 220H92.2343C91.7913 207.555 91.196 196.074 90.6007 186.307C90.4215 184.836 90.2456 183.367 90.0798 181.908Z" fill="#F9CD10"/>
<path d="M97.1452 211.131L97.1317 210.581C95.5961 208.812 94.5477 205.985 93.8408 203.542C93.1542 201.184 92.6029 198.755 92.1294 196.294C92.471 202.85 92.9445 210.772 93.3639 220H97.3279C97.3312 219.582 97.3515 219.15 97.3413 218.738C97.2838 216.263 97.2196 213.711 97.1452 211.131Z" fill="#F9CD10"/>
<path d="M74.7484 158.452C74.7484 158.452 86.498 161.66 80.6807 188.946L71.1395 215.478C80.7416 212.991 85.6661 196.327 83.5455 177.511C81.046 155.348 76.4733 155.127 72.3504 155.021C72.3504 155.021 65.9581 154.924 58.01 173.645C53.7755 183.615 51.4485 193.549 52.7236 201.335L61.0742 173.204C63.2083 168.99 67.7337 156.96 74.7484 158.452Z" fill="#8B613E"/>
<path d="M49.8826 182.426C50.816 170.087 52.4868 164.831 52.4192 164.74C52.0235 165.337 51.5195 165.776 50.9818 166.768C50.3155 169.21 49.0708 174.907 48.4011 184.942C47.8938 192.586 47.7145 202.739 48.3876 215.933L49.5206 212.113C49.0404 199.481 49.3313 189.717 49.8826 182.426Z" fill="#8C1632"/>
<path d="M91.9806 193.307C91.8081 189.697 90.2725 165.608 89.3357 157.381C89.2139 156.307 89.1023 155.494 89.0076 155.045L88.2635 154.144C88.2635 154.173 88.2906 154.462 88.3346 154.98C88.6018 158.096 89.5995 169.748 90.6006 186.307C91.1959 196.074 91.7912 207.555 92.2342 220H93.3638C92.9444 210.772 92.471 202.85 92.1294 196.294C92.0786 195.279 92.0212 194.257 91.9806 193.307Z" fill="#8C1632"/>
<path d="M80.6807 188.946C86.4981 161.659 74.7484 158.452 74.7484 158.452C67.7338 156.96 63.2084 168.99 61.0742 173.204L52.7236 201.335L49.5207 212.114L48.3876 215.933L47.1802 220H69.5128L71.1396 215.478L80.6807 188.946Z" fill="#A06E46"/>
</svg>
