<svg width="128" height="208" viewBox="0 0 128 208" fill="none" xmlns="http://www.w3.org/2000/svg">
<path d="M58.532 137.186C58.1194 135.276 57.6865 133.331 57.2333 131.389L56.9864 131.863L56.9458 131.954C56.7428 132.386 56.5399 132.825 56.3471 133.295L56.0968 133.652C55.8195 132.936 55.6098 132.174 55.461 131.325C55.39 130.903 55.1735 130.898 54.9672 131.054L54.9706 130.838L54.8353 131.168L54.5242 131.706L54.3483 132.345L53.7902 133.432L53.1239 133.67L52.9548 132.781C52.9853 132.207 52.9886 131.665 52.948 131.151L52.6572 130.824C52.1701 129.989 51.9605 128.979 51.3889 128.29C50.4452 126.23 49.319 124.259 48.3821 122.093C47.1239 119.174 46.7891 115.423 46.2818 112.156C46.1566 111.323 46.0348 110.479 45.9232 109.631L45.9266 109.584C44.611 113.995 42.9232 118.15 40.4576 121.786C36.5241 127.587 31.4779 132.866 25.9616 136.2C24.8285 136.665 23.682 137.036 22.5151 137.283L22.5219 137.339C24.6662 137.619 30.6358 133.611 32.0225 137.316C32.523 138.637 33.744 142.659 35.2152 147.635C39.5275 142.627 42.9808 140.62 42.9808 140.62C49.4915 136.677 54.629 134.932 58.532 137.186Z" fill="#E3BA8E"/>
<path d="M40.4576 121.786C42.9232 118.15 44.6109 113.995 45.9266 109.584C45.9604 108.992 45.9841 108.4 45.9976 107.818C45.6831 107.647 45.3888 107.348 45.1318 106.839C44.0292 104.678 44.2254 100.994 44.3708 98.3228C44.6684 92.8555 46.2344 85.1899 49.275 81.8815C49.6741 81.444 50.1036 81.1048 50.5433 80.811C48.4666 81.4261 46.7958 83.0328 45.4193 86.0543C44.3877 88.3298 44.1103 91.2218 43.7248 93.7842C43.2513 96.9599 42.5478 99.458 41.2795 101.904C40.8939 102.354 40.5016 102.781 40.0855 103.166C39.0066 103.957 37.718 104.273 36.5376 104.14C35.9931 104.081 34.7146 103.231 34.8871 102.289L35.0664 102.098C38.2659 102.033 39.4463 97.4694 38.0258 94.1322C37.7045 93.3844 37.2919 92.7426 36.8928 92.0843C36.3043 91.5753 35.824 90.8867 35.4587 89.8088C34.3392 86.5542 36.5951 82.9823 37.8432 80.5489C39.7609 76.7994 38.063 72.3741 36.2502 68.3574C36.0405 67.8929 33.4768 71.2531 32.6211 72.7418C31.9514 73.7136 31.4238 74.8397 31.1566 76.3174C31.0754 76.7351 31.028 77.3732 31.0247 78.0654C29.7631 77.3213 29.3505 74.4398 29.4452 72.9516C29.6955 69.1103 31.9717 64.6795 30.196 60.9801C30.6154 61.8573 28.7011 65.3823 28.3156 65.9598C27.3381 67.4573 25.9615 68.7196 24.4159 68.2606L24.7541 67.3889C25.4508 65.7358 25.0653 63.8528 24.3347 62.1961C23.4926 59.5295 22.0856 57.4674 20.9491 55.2332C21.5478 60.9534 20.2253 67.6133 16.7789 68.3432L16.6741 67.8337C18.1487 65.924 18.3212 63.9676 17.7631 62.0221L17.4046 61.0071C16.0788 57.7851 12.9909 54.6039 10.7079 51.7435C10.6673 52.8269 10.5286 53.8882 10.2716 54.8889C9.90967 56.2895 9.14532 58.2708 8.14419 59.709C8.55682 63.923 10.4779 68.1871 10.6571 72.3649C10.7924 75.5875 9.75071 78.5621 8.24902 81.2521C7.9108 82.2295 7.51849 83.2118 7.0416 84.2213C5.89842 86.6226 4.66391 89.3626 2.93223 91.0928C2.14757 91.8746 1.2141 92.5218 0.453106 93.3665L0.283997 94.3617L0.36178 93.8255C2.73269 96.9975 6.37529 97.7545 9.68645 97.984C8.63797 99.5765 7.43052 100.871 6.12838 102.009L6.1487 102.157C6.1487 102.157 6.13515 103.208 5.5365 104.87C5.18137 105.852 4.4779 107.886 4.50834 109.239C6.65941 111.15 9.07766 111.991 11.5974 112.389L10.9446 112.605C9.45645 113.05 8.17799 113.22 6.8454 114.065L7.26145 113.757C6.66957 114.124 6.22649 114.648 6.24002 115.401C6.30428 118.141 7.51172 117.373 8.01567 120.119C9.11488 123.278 9.45309 126.972 10.1228 130.397C11.7462 133.895 14.0765 136.691 16.9886 137.312C18.8826 137.715 20.7192 137.651 22.5151 137.283C23.682 137.035 24.8285 136.664 25.9615 136.2C31.4779 132.866 36.5241 127.587 40.4576 121.786Z" fill="#F0CDA9"/>
<path d="M10.9446 112.606L11.5974 112.389C9.07762 111.991 6.65937 111.15 4.5083 109.24L4.52519 109.593C4.86679 112.003 8.56015 112.918 10.116 112.803L10.0483 112.835L10.0212 112.844C9.89272 112.876 9.6323 112.918 9.31099 112.995L9.12495 113.036L8.82059 113.11L8.49249 113.206L8.31326 113.271L7.8871 113.43L7.80593 113.463L7.36962 113.683L7.26141 113.757L6.84536 114.065C8.17794 113.221 9.45641 113.05 10.9446 112.606Z" fill="#D9B288"/>
<path d="M9.68644 97.9845C6.37528 97.755 2.73268 96.998 0.361768 93.826L0.283985 94.3621L0.280599 94.3855L0.263672 94.8717L0.277214 95.1241L0.304256 95.4455L0.436167 96.0712L0.716873 96.8047C1.41699 97.7371 2.32004 98.4702 3.09795 98.9669L3.48691 99.2056H3.49029C4.47113 99.7794 6.04043 100.638 6.12499 102.01H6.12837C7.43051 100.871 8.63796 99.5769 9.68644 97.9845Z" fill="#D9B288"/>
<path d="M8.11034 22.894C4.88712 28.9475 5.27948 35.4246 6.06415 42.4072V42.4123L6.07769 42.5808C6.18254 43.4667 7.00777 42.5684 7.03483 42.0216C7.2107 37.9779 8.26595 34.5208 9.95705 31.5457C8.62785 37.9223 12.4294 45.2763 16.4441 49.2049C16.877 49.6281 17.32 48.7421 17.2422 48.2188C16.2716 41.609 17.5331 35.7561 20.0461 30.7837C19.8905 32.0603 19.7857 33.3552 19.7722 34.6948C19.7147 41.3239 22.6605 46.3913 25.4542 51.4051C25.7823 51.9913 26.3708 51.249 26.3573 50.6968C26.1746 44.9963 26.0596 39.8177 27.5613 34.3881C28.045 36.2477 28.7755 38.0463 29.479 39.7819C31.992 45.9649 33.8014 53.5442 32.2186 60.5484C32.0968 61.0901 32.5061 61.3839 32.824 61.1511C35.4114 59.2626 36.355 54.7979 36.9401 50.8313C40.6605 58.1673 42.9638 67.0307 41.1679 75.7847C41.0258 76.4683 41.5805 76.6028 41.8882 76.2709C43.2817 74.7845 44.2828 72.7275 45.0201 70.4501C44.8105 73.7874 44.1306 76.9916 42.5681 79.8574C42.2096 80.5134 42.6831 81.2667 43.1667 80.7053C46.0213 77.4277 49.1295 72.7688 51.1758 67.5957C52.0078 70.6388 53.2321 73.4665 54.8623 75.8944C55.231 76.4357 55.9582 75.647 55.7451 75.0227C54.125 70.3032 54.1081 65.5245 55.0044 60.9216C55.1836 63.0232 55.5286 65.1118 56.0765 67.1688C58.4001 75.8765 64.5692 82.6383 61.674 92.7645C61.5049 93.3526 61.7958 93.8061 62.2355 93.5499C63.957 92.5024 65.5636 90.4243 66.8488 87.844C66.5748 92.5584 65.3742 97.2687 63.5951 100.877C63.284 101.515 63.7372 102.392 64.1972 101.725C66.1047 98.9525 68.3573 95.5743 70.1464 91.8841C69.7541 98.7698 66.9334 105.261 62.8477 109.593C62.4959 109.961 62.5433 110.999 63.1081 110.782C70.001 108.139 75.3719 102.731 79.3392 94.6797L79.5252 94.2798C81.0472 96.6862 83.0156 98.4292 85.5726 98.852C85.9548 98.9167 86.3539 98.0436 86.1002 97.6258C83.8747 93.9406 82.6707 90.1034 82.7349 85.9201C83.4553 83.3737 83.9694 80.7232 84.1825 78.057C85.2919 74.3667 86.4756 70.9973 86.9255 66.8695C87.5782 60.884 86.5906 55.1096 84.1419 50.4906C84.9333 51.529 85.5996 52.768 86.0697 54.3476C86.2862 55.0577 86.9288 54.5307 87.01 53.9657C87.9164 47.6358 86.8274 40.8327 85.1295 34.6948L85.0856 34.5263C84.6831 33.0702 84.24 31.6572 83.7868 30.2925C81.8758 24.5599 78.8589 20.0515 75.0878 16.6234C79.1633 17.1003 83.2795 19.2482 84.7913 24.8394C84.9875 25.5551 85.6707 25.0276 85.7282 24.463C86.1949 20.0015 85.3697 15.5616 83.6109 11.8892C80.594 8.88195 77.2727 7.23075 73.6098 5.75307C69.2535 3.98848 64.9717 2.10225 60.4463 1.33105C57.4058 0.80727 54.311 0.798549 51.2197 1.15707C49.231 1.28606 47.2524 1.51558 45.3009 1.8135C39.0675 2.76374 33.1318 4.8616 27.2062 7.54612C24.1961 8.91087 21.2738 10.7237 18.4497 12.6838C16.9007 13.7488 15.0438 16.017 14.1645 17.4676C13.532 17.76 12.8962 18.1277 12.2704 18.533C11.1949 18.981 10.1566 19.5425 9.17913 20.3871L10.0551 19.7219C9.36852 20.7222 8.71237 21.7643 8.11034 22.894Z" fill="#AA571E"/>
<path d="M85.7282 24.463C85.6707 25.0276 84.9875 25.555 84.7913 24.8394C83.2794 19.2482 79.1633 17.1003 75.0878 16.6233C78.8589 20.0515 81.8758 24.5598 83.7867 30.2924C84.24 31.6572 84.6831 33.0701 85.0855 34.5262C84.8386 33.6853 84.6898 32.7722 84.6898 31.8078C84.6898 28.2175 86.5906 25.2484 89.0934 24.6099C88.3933 23.4352 87.957 21.9611 87.957 20.3315C87.957 19.4221 88.0923 18.5633 88.3324 17.7709C87.3245 16.1964 86.1644 14.7545 84.9469 13.3273C84.5105 12.8164 84.0641 12.3395 83.6143 11.8891H83.6109C85.3696 15.5615 86.1949 20.0015 85.7282 24.463Z" fill="#8F4D1D"/>
<path d="M10.7079 51.7437C12.9909 54.604 16.0789 57.7853 17.4047 61.0073L17.7632 62.0223C18.3212 63.9677 18.1488 65.9242 16.6741 67.8338L16.779 68.3434C20.2254 67.6135 21.5479 60.9536 20.9492 55.2334C22.0856 57.4676 23.4926 59.5296 24.3348 62.1963C25.0653 63.853 25.4509 65.736 24.7542 67.389L24.416 68.2608C25.9616 68.7198 27.3382 67.4574 28.3156 65.96C28.7012 65.3825 30.6155 61.8575 30.1961 60.9802C31.9718 64.6797 29.6956 69.1105 29.4453 72.9518C29.3506 74.44 29.7632 77.3215 31.0247 78.0656C31.0281 77.3734 31.0755 76.7353 31.1566 76.3175C31.4238 74.8399 31.9515 73.7138 32.6211 72.742C33.4768 71.2533 36.0405 67.8931 36.2502 68.3576C38.0631 72.3743 39.7609 76.7995 37.8432 80.5491C36.5952 82.9825 34.3393 86.5543 35.4588 89.809C35.8241 90.8869 36.3044 91.5754 36.8929 92.0845C37.292 92.7428 37.7046 93.3845 38.0259 94.1323C39.4464 97.4696 38.266 102.033 35.0665 102.098L34.8872 102.29C34.7147 103.231 35.9932 104.081 36.5377 104.14C37.7181 104.273 39.0067 103.957 40.0856 103.166C40.5016 102.781 40.894 102.354 41.2795 101.904C42.5479 99.4582 43.2513 96.9601 43.7249 93.7844C44.1104 91.222 44.3878 88.3299 45.4193 86.0544C46.7959 83.033 48.4667 81.4263 50.5433 80.8112C51.5208 80.1602 52.5727 79.8339 53.5941 79.9394C54.3855 80.0257 55.1533 80.3572 55.8601 80.9489C57.6155 82.4229 59.5839 85.6454 58.4644 92.5257C57.6324 97.6542 56.08 98.3193 52.3427 102.442C50.7429 104.219 47.9289 108.851 45.9977 107.818C45.9841 108.401 45.9605 108.992 45.9267 109.584L45.9233 109.631C46.0349 110.479 46.1567 111.323 46.2818 112.156C46.7891 115.423 47.124 119.174 48.3821 122.093C49.319 124.259 50.4453 126.23 51.3889 128.29C51.9605 128.979 52.1702 129.989 52.6572 130.824L52.9481 131.151C52.9887 131.665 52.9853 132.207 52.9548 132.781L53.124 133.67L53.7902 133.432L54.3483 132.345L54.5242 131.706L54.8353 131.168L54.9706 130.838L54.9672 131.054C55.1735 130.898 55.39 130.903 55.461 131.325C55.6098 132.174 55.8195 132.936 56.0969 133.652L56.3472 133.295C56.5399 132.825 56.7429 132.386 56.9458 131.954L56.9864 131.863L57.2333 131.389C57.6764 130.503 58.1499 129.664 58.7147 128.87C59.5805 128.452 60.4058 127.955 61.1938 127.478L61.5388 127.222L61.8094 127.116C69.7609 122.396 77.7327 117.953 84.9334 111.218C87.0202 109.269 89.0563 107.133 90.9436 104.805L90.788 103.667C89.8038 98.4378 86.8207 94.1287 85.2716 89.2265C83.3167 83.0651 85.5862 77.8273 88.2615 72.9715C90.3517 69.1733 92.2829 65.4509 93.3618 60.8889C94.4306 56.3631 93.5546 51.511 92.4419 47.1821C91.7384 44.4402 90.8793 41.8007 90.2096 39.1111L90.0878 39.129C87.8624 39.129 85.9582 37.3015 85.1296 34.6946C86.8274 40.8326 87.9165 47.6357 87.0101 53.9655C86.9289 54.5306 86.2863 55.0576 86.0698 54.3474C85.5997 52.7678 84.9334 51.5289 84.142 50.4905C86.5907 55.1095 87.5783 60.8838 86.9255 66.8694C86.4757 70.9972 85.2919 74.3666 84.1826 78.0569C83.9695 80.723 83.4554 83.3736 82.735 85.9199C82.6707 90.1032 83.8748 93.9404 86.1003 97.6257C86.3539 98.0434 85.9548 98.9165 85.5726 98.8518C83.0157 98.429 81.0473 96.686 79.5253 94.2797L79.3393 94.6795C75.372 102.731 70.0011 108.139 63.1082 110.782C62.5434 110.999 62.496 109.961 62.8477 109.593C66.9334 105.261 69.7542 98.7696 70.1465 91.8839C68.3573 95.5742 66.1048 98.9524 64.1972 101.725C63.7373 102.392 63.284 101.515 63.5952 100.877C65.3742 97.2686 66.5749 92.5582 66.8489 87.8438C65.5636 90.4241 63.9571 92.5022 62.2355 93.5498C61.7959 93.8059 61.505 93.3524 61.6741 92.7644C64.5692 82.6382 58.4002 75.8764 56.0766 67.1687C55.5287 65.1117 55.1837 63.023 55.0044 60.9215C54.1082 65.5244 54.1251 70.3031 55.7452 75.0226C55.9582 75.6469 55.2311 76.4355 54.8624 75.8943C53.2322 73.4664 52.0078 70.6386 51.1758 67.5956C49.1296 72.7686 46.0213 77.4275 43.1668 80.7051C42.6831 81.2666 42.2096 80.5132 42.5681 79.8573C44.1307 76.9914 44.8105 73.7873 45.0202 70.45C44.2829 72.7273 43.2818 74.7843 41.8883 76.2707C41.5805 76.6026 41.0259 76.4681 41.1679 75.7846C42.9639 67.0305 40.6606 58.1672 36.9402 50.8311C36.3551 54.7978 35.4114 59.2625 32.8241 61.151C32.5061 61.3837 32.0969 61.09 32.2186 60.5483C33.8015 53.5441 31.992 45.9647 29.4791 39.7818C28.7756 38.0461 28.045 36.2476 27.5614 34.388C26.0597 39.8176 26.1747 44.9961 26.3573 50.6966C26.3709 51.2489 25.7823 51.9911 25.4543 51.4049C22.6606 46.3912 19.7147 41.3237 19.7722 34.6946C19.7858 33.3551 19.8906 32.0601 20.0462 30.7835C17.5332 35.7559 16.2716 41.6088 17.2423 48.2187C17.3201 48.742 16.877 49.6279 16.4441 49.2047C12.4295 45.2762 8.62791 37.9222 9.95711 31.5455C8.26602 34.5206 7.21077 37.9777 7.0349 42.0215C7.00784 42.5682 6.1826 43.4666 6.07776 42.5806L6.06421 42.4122V42.4071C5.27955 35.4245 4.88719 28.9473 8.11041 22.8938C8.71244 21.7641 9.36859 20.7221 10.0552 19.7218L9.17919 20.387C7.91426 21.4933 6.78122 22.8328 5.79024 24.3481C3.43624 26.9963 2.40807 29.5032 1.54223 33.6259C0.845503 36.9573 0.7711 40.6531 1.84325 43.8953C2.52984 45.9698 3.54785 47.7362 4.52192 49.5779C5.04277 50.5515 5.58394 51.5055 6.09803 52.4828C7.33929 54.857 6.65609 59.7771 3.98755 60.1214L3.87934 60.5249C5.42838 62.3523 6.95036 61.4214 8.14427 59.7091C9.14539 58.2709 9.90974 56.2897 10.2716 54.8891C10.5287 53.8884 10.6674 52.8271 10.7079 51.7437Z" fill="#8F4D1D"/>
<path d="M53.9085 92.9901C53.7969 93.9206 53.6075 94.8029 53.3978 95.5185C52.5049 98.5166 50.4959 101.047 47.9829 101.068C46.9716 101.077 46.1701 100.632 46.488 99.0169C46.6165 98.366 47.1171 97.4695 47.4959 97.0389C48.152 96.2948 48.2603 94.2704 48.2941 93.2283C48.3888 90.4153 48.355 86.7195 51.2265 86.6961C53.8882 86.6639 54.267 90.0476 53.9085 92.9901ZM52.3425 102.442C56.0799 98.3192 57.6323 97.654 58.4643 92.5255C59.5838 85.6453 57.6154 82.4228 55.86 80.9488C55.1532 80.3571 54.3854 80.0256 53.594 79.9393C52.5726 79.8337 51.5207 80.1601 50.5432 80.811C50.1036 81.1048 49.674 81.4441 49.2749 81.8815C46.2343 85.1899 44.6684 92.8556 44.3708 98.3229C44.2253 100.995 44.0292 104.678 45.1317 106.839C45.3888 107.348 45.683 107.648 45.9976 107.818C47.9288 108.851 50.7428 104.219 52.3425 102.442Z" fill="#F0CDA9"/>
<path d="M51.2265 86.6963C48.355 86.7198 48.3888 90.4156 48.2941 93.2286C48.2603 94.2707 48.1521 96.2951 47.4959 97.0392C47.1171 97.4698 46.6166 98.3663 46.4881 99.0172C46.1701 100.633 46.9717 101.077 47.983 101.069C50.4959 101.047 52.5049 98.5169 53.3978 95.5188C53.6075 94.8032 53.7969 93.9209 53.9086 92.9904C54.2671 90.0479 53.8883 86.6642 51.2265 86.6963Z" fill="#E3BA8E"/>
<path d="M97.4779 26.2346C94.7755 34.3703 99.1554 44.8729 99.5308 53.0945C99.8048 59.0566 98.4959 64.9058 96.1757 69.9177C94.4981 73.558 92.0359 76.3912 90.3753 80.0673C87.4565 86.517 88.6436 93.5464 92.1814 98.9081C92.5635 99.4851 93.2197 98.6675 93.0641 98.0308C92.1239 94.1615 93.0709 90.4423 94.7856 87.3616C94.6605 91.1254 95.1881 95.0686 95.9288 98.4848C98.4654 110.237 100.958 124.426 91.7078 131.981C91.3493 132.266 91.1532 133.243 91.7315 133.304C94.0991 133.561 96.4057 132.481 98.4756 130.577C95.4688 139.069 93.24 148.306 99.4632 154.557C99.8691 154.966 100.393 154.103 100.265 153.571C98.7665 147.374 99.7338 140.464 102.443 135.185C103.217 142.191 106.657 150.081 102.389 154.98C102.081 155.33 102.084 156.472 102.649 156.16C108.558 152.974 110.756 144.752 110.628 136.471C111.078 137.215 111.582 137.94 112.157 138.616C112.529 139.055 113.107 138.137 112.955 137.628C111.994 134.378 111.595 131.325 111.632 128.361L111.649 128.282C111.839 121.819 115.738 119.963 118.529 115.713C120.889 112.109 119.79 106.201 118.366 102.405C117.23 99.3759 115.836 96.3957 115.556 92.9528C115.207 88.7388 117.531 84.7726 118.982 81.3081C121.001 76.4881 122.367 71.2269 121.42 65.6858C120.649 61.1921 118.096 57.5936 116.083 54.0539C113.557 49.6048 112.789 45.303 113.039 39.7729C113.141 37.5511 113.266 35.2595 113.276 33.0345C113.117 31.9961 112.918 30.9541 112.65 29.9359C110.685 23.6419 106.285 20.1164 100.748 19.1891C101.205 19.2662 101.641 19.3865 102.081 19.5013C100.015 21.0882 98.4553 23.2829 97.4779 26.2346Z" fill="#AA571E"/>
<path d="M94.1295 26.9877C94.9683 28.2767 95.4858 29.9481 95.4858 31.8077C95.4858 35.7918 93.1352 39.023 90.2096 39.1112C90.8792 41.8007 91.7383 44.4403 92.4418 47.1822C93.5545 51.511 94.4305 56.3632 93.3618 60.8889C92.2828 65.451 90.3516 69.1734 88.2614 72.9716C85.5861 77.8274 83.3166 83.0651 85.2715 89.2265C86.8206 94.1287 89.8037 98.4378 90.7879 103.667L90.9435 104.805C91.3663 109.175 89.9322 114.992 86.6955 115.07C89.7699 118.288 94.0247 116.093 95.8544 111.623C96.1622 114.221 95.9694 116.8 95.2422 119.336C93.842 124.2 89.5838 127.075 86.8815 130.559C83.6244 134.75 81.3482 143.839 86.4418 147.382L86.7056 146.941C84.6695 142.862 86.3234 139.367 88.9852 136.82C88.6977 137.927 88.5117 139.075 88.4812 140.281C88.4339 142.227 88.5996 144.095 89.0934 145.813C91.6673 150.789 96.5376 155.595 96.0201 162.04C95.7766 165.097 94.4914 167.089 92.178 167.324C91.3324 167.41 90.5511 167.066 89.8409 166.506C91.1227 169.582 94.7112 169.825 96.9198 168.549C96.6695 170.385 96.5816 172.282 96.6864 174.14C96.7338 175.031 96.8353 175.867 96.9739 176.688C97.9548 179.768 100.025 182.611 102.412 183.624C102.098 182.858 101.831 182.087 101.628 181.389C101.097 179.539 100.823 176.89 101.087 174.484C101.235 172.391 101.729 170.299 102.592 168.357C103.403 166.497 104.553 164.597 105.446 162.59C105.72 163.863 106.143 165.102 106.735 166.232C107.706 168.077 108.998 168.76 110.608 168.839C111.287 168.875 111.845 168.531 112.39 168.086C111.622 167.489 110.963 166.607 110.459 165.653C109.515 163.876 109.042 161.893 109.106 159.708C109.17 157.551 110.107 155.789 111.257 154.401C112.718 152.367 114.419 150.081 114.47 147.034C114.48 146.326 114.45 145.661 114.392 145.031C116.919 144.917 119.503 142.026 118.285 138.248C117.48 135.755 115.88 134.484 114.615 132.469C111.061 126.808 116.026 121.749 119.181 118.921C122.807 115.672 124.911 111.479 123.243 105.494C122.378 102.387 120.737 99.2145 120.521 95.8451C120.22 91.1072 122.164 87.5872 124.072 83.9474C127.113 78.168 128.496 71.1978 126.128 64.4181C125.029 61.2745 123.707 58.1704 121.948 55.6048C119.881 52.5976 117.443 50.1192 115.387 47.1266C112.471 42.8891 114.04 38.8045 113.398 33.8179L113.276 33.0343C113.266 35.2593 113.141 37.5509 113.039 39.7727C112.789 45.3028 113.557 49.6046 116.083 54.0537C118.096 57.5934 120.649 61.1919 121.42 65.6855C122.367 71.2267 121.001 76.4879 118.982 81.3079C117.531 84.7723 115.207 88.7385 115.556 92.9526C115.836 96.3955 117.23 99.3756 118.366 102.404C119.79 106.2 120.889 112.109 118.529 115.713C115.738 119.963 111.839 121.819 111.649 128.282L111.632 128.36C111.595 131.325 111.994 134.378 112.955 137.627C113.107 138.137 112.529 139.055 112.157 138.616C111.582 137.939 111.078 137.215 110.628 136.471C110.756 144.752 108.558 152.973 102.649 156.16C102.084 156.472 102.081 155.33 102.389 154.98C106.657 150.081 103.217 142.191 102.443 135.185C99.7338 140.464 98.7665 147.373 100.265 153.571C100.393 154.103 99.8691 154.966 99.4632 154.557C93.24 148.306 95.4689 139.069 98.4756 130.577C96.4057 132.481 94.0991 133.561 91.7316 133.304C91.1532 133.243 91.3493 132.266 91.7079 131.981C100.958 124.426 98.4655 110.237 95.9288 98.4846C95.1881 95.0684 94.6605 91.1251 94.7856 87.3614C93.0709 90.4421 92.1239 94.1613 93.0641 98.0306C93.2197 98.6673 92.5636 99.4849 92.1814 98.9079C88.6436 93.5462 87.4565 86.5167 90.3753 80.0671C92.0359 76.391 94.4981 73.5578 96.1757 69.9175C98.4959 64.9056 99.8048 59.0564 99.5309 53.0943C99.1554 44.8727 94.7755 34.3701 97.4779 26.2344C98.4553 23.2827 100.015 21.088 102.081 19.501C101.641 19.3863 101.205 19.266 100.748 19.1889C99.8048 19.0333 98.8781 19.087 97.9649 19.2481L98.0461 20.3314C98.0461 23.5824 96.3719 26.2899 94.1295 26.9877Z" fill="#8F4D1D"/>
<path d="M91.143 22.2551C91.143 23.0442 90.6695 23.6859 90.0878 23.6859C89.506 23.6859 89.0359 23.0442 89.0359 22.2551C89.0359 21.4752 89.506 20.8316 90.0878 20.8316C90.6695 20.8316 91.143 21.4752 91.143 22.2551ZM92.6143 13.9688C94.0112 13.9688 95.1408 15.5075 95.1408 17.3974C95.1408 19.2947 94.0112 20.8316 92.6143 20.8316C91.2208 20.8316 90.0878 19.2947 90.0878 17.3974C90.0878 15.5075 91.2208 13.9688 92.6143 13.9688ZM89.0934 24.6096C89.4181 24.5306 89.7496 24.4769 90.0878 24.4769C91.7079 24.4769 93.1419 25.4629 94.1295 26.9874C96.3719 26.2897 98.0461 23.5822 98.0461 20.3312L97.9649 19.2479C97.5793 15.9845 95.5162 13.4831 93.0032 13.4831C90.8826 13.4831 89.0765 15.2583 88.3324 17.7706C88.0923 18.563 87.957 19.4218 87.957 20.3312C87.957 21.9608 88.3933 23.4348 89.0934 24.6096Z" fill="#E6234D"/>
<path d="M92.6143 20.8318C94.0111 20.8318 95.1408 19.2949 95.1408 17.3976C95.1408 15.5077 94.0111 13.969 92.6143 13.969C91.2208 13.969 90.0878 15.5077 90.0878 17.3976C90.0878 19.2949 91.2208 20.8318 92.6143 20.8318Z" fill="white"/>
<path d="M89.0359 22.2553C89.0359 23.0444 89.5061 23.6862 90.0878 23.6862C90.6695 23.6862 91.143 23.0444 91.143 22.2553C91.143 21.4754 90.6695 20.8318 90.0878 20.8318C89.5061 20.8318 89.0359 21.4754 89.0359 22.2553Z" fill="white"/>
<path d="M89.4283 31.867C88.2885 31.867 87.3685 30.6133 87.3685 29.0714C87.3685 27.5258 88.2885 26.2721 89.4283 26.2721C90.5647 26.2721 91.4846 27.5258 91.4846 29.0714C91.4846 30.6133 90.5647 31.867 89.4283 31.867ZM87.3685 34.1907C86.8916 34.1907 86.5094 33.6706 86.5094 33.0288C86.5094 32.3866 86.8916 31.867 87.3685 31.867C87.842 31.867 88.2276 32.3866 88.2276 33.0288C88.2276 33.6706 87.842 34.1907 87.3685 34.1907ZM95.4858 31.8078C95.4858 29.9482 94.9683 28.2768 94.1295 26.9877C93.1419 25.4632 91.7078 24.4772 90.0878 24.4772C89.7496 24.4772 89.4181 24.5309 89.0934 24.6099C86.5906 25.2484 84.6898 28.2175 84.6898 31.8078C84.6898 32.7722 84.8387 33.6853 85.0855 34.5263L85.1295 34.6947C85.9582 37.3017 87.8623 39.1292 90.0878 39.1292L90.2096 39.1112C93.1352 39.0231 95.4858 35.7919 95.4858 31.8078Z" fill="#CB1B32"/>
<path d="M89.4283 26.2719C88.2885 26.2719 87.3685 27.5256 87.3685 29.0712C87.3685 30.6132 88.2885 31.8668 89.4283 31.8668C90.5647 31.8668 91.4846 30.6132 91.4846 29.0712C91.4846 27.5256 90.5647 26.2719 89.4283 26.2719Z" fill="white"/>
<path d="M87.3685 31.8667C86.8916 31.8667 86.5094 32.3864 86.5094 33.0286C86.5094 33.6703 86.8916 34.1904 87.3685 34.1904C87.842 34.1904 88.2275 33.6703 88.2275 33.0286C88.2275 32.3864 87.842 31.8667 87.3685 31.8667Z" fill="white"/>
<path d="M73.877 202.179L73.8905 202.656C73.9446 204.466 73.9919 206.246 74.0291 208H82.3595L69.1351 158.473L69.1148 158.446C72.5004 171.818 73.444 187.646 73.877 202.179Z" fill="#E3BA8E"/>
<path d="M29.019 169.508C31.417 164.743 33.3651 159.45 35.9762 154.897C38.4282 150.619 40.8431 146.331 43.9649 142.894C46.6334 139.946 49.789 138.395 53.1002 137.636C58.0246 140.428 61.1362 145.831 63.2467 153.267C65.1306 159.929 66.0269 166.506 66.8285 173.512C67.6605 180.81 68.5805 188.243 70.5895 195.141C71.2964 197.583 72.3448 200.411 73.877 202.179C73.444 187.646 72.5004 171.817 69.1148 158.446C67.3865 151.624 65.0393 145.431 61.7755 140.414C60.8116 138.922 59.7293 137.871 58.532 137.186C54.6289 134.932 49.4914 136.677 42.9807 140.62C42.9807 140.62 39.5274 142.627 35.2152 147.635C34.0551 148.98 32.8409 150.531 31.603 152.326C26.3978 159.929 18.2332 173.327 14.1036 186.572C14.3437 185.809 14.5906 185.053 14.851 184.294C19.8093 187.192 26.2591 174.998 29.019 169.508Z" fill="#F0CDA9"/>
<path d="M29.4689 192.925C28.1972 185.148 30.5241 175.21 34.7552 165.249C42.7101 146.523 49.0991 146.62 49.0991 146.62C53.222 146.722 57.7913 146.952 60.2941 169.114C62.4114 187.926 57.4903 204.589 47.8883 207.077L47.5568 208H74.0292C73.992 206.246 73.9447 204.466 73.8906 202.656L73.877 202.179C72.3449 200.411 71.2964 197.584 70.5895 195.141C68.5805 188.243 67.6606 180.81 66.8285 173.512C66.027 166.506 65.1307 159.929 63.2468 153.268C61.1363 145.831 58.0247 140.428 53.1002 137.636C49.7891 138.395 46.6335 139.946 43.9649 142.894C40.8432 146.331 38.4283 150.619 35.9762 154.897C33.3652 159.45 31.417 164.744 29.0191 169.508C26.2592 174.999 19.8094 187.192 14.8511 184.294C14.5907 185.053 14.3438 185.81 14.1036 186.572L14.0191 186.843C13.7925 187.596 13.5692 188.343 13.3697 189.091L13.3595 189.12C13.1465 189.903 12.9537 190.68 12.7744 191.456L12.7271 191.657C12.5782 192.319 12.443 192.984 12.3178 193.64L12.2367 194.09C12.1115 194.779 11.9965 195.473 11.9052 196.153L11.8883 196.262C11.7936 196.974 11.7192 197.68 11.6651 198.387L11.6312 198.875C11.5907 199.411 11.567 199.943 11.5535 200.481L11.5399 201.041C11.5298 201.711 11.5366 202.382 11.567 203.042C11.638 204.36 11.8038 206.058 12.0371 208H24.9943L29.4689 192.925Z" fill="#DB2525"/>
<path d="M51.4971 150.045C51.4971 150.045 63.2468 153.268 57.4295 180.545L47.8883 207.077C57.4904 204.59 62.4114 187.926 60.2942 169.114C57.7914 146.952 53.222 146.723 49.0991 146.62C49.0991 146.62 42.7102 146.523 34.7553 165.249C30.5242 175.21 28.1972 185.148 29.4689 192.925L37.8196 164.803C39.9537 160.589 44.4824 148.559 51.4971 150.045Z" fill="#E3BA8E"/>
<path d="M57.4294 180.545C63.2468 153.268 51.4971 150.045 51.4971 150.045C44.4824 148.559 39.9537 160.589 37.8195 164.803L29.4689 192.925L24.9943 208H47.5568L47.8883 207.077L57.4294 180.545Z" fill="#F0CDA9"/>
</svg>
