<svg width="131" height="204" viewBox="0 0 131 204" fill="none" xmlns="http://www.w3.org/2000/svg">
<path d="M37.9301 145.595C35.4952 142.497 36.2999 135.293 38.0359 132.039C38.9752 130.276 40.212 128.752 41.5422 127.301C42.5555 125.365 44.0461 123.817 45.3181 122.115L45.2971 121.739L44.5757 117.914C43.997 119.011 43.3838 120.082 42.6956 121.095C38.7587 126.894 33.7132 132.182 28.1958 135.505L27.8853 135.629C29.0268 135.611 29.9769 135.993 30.4301 137.203C30.9966 138.715 32.5162 143.75 34.2641 149.718C35.7993 148.152 37.1349 147.01 38.1259 146.243L37.9301 145.595Z" fill="#E3BA8E"/>
<path d="M20.8754 136.846L20.9255 137.222C21.446 137.291 22.1924 137.108 23.042 136.837C22.3274 136.9 21.6046 136.905 20.8754 136.846Z" fill="#E3BA8E"/>
<path d="M70.7613 204H77.0948L66.1003 162.827L66.0803 162.795C69.2697 175.392 70.2935 190.178 70.7613 204Z" fill="#E3BA8E"/>
<path d="M62.9545 155.832C63.8873 165.702 65.1634 185.789 65.3194 189.054L65.338 189.425C65.5771 190.867 65.8412 192.3 66.1372 193.713C66.2863 194.437 66.4504 195.169 66.6208 195.884C66.9059 197.096 67.21 198.309 67.5546 199.497C67.9815 200.961 68.5324 202.567 69.2366 204H70.7613C70.2935 190.178 69.2697 175.392 66.0803 162.795C65.523 160.588 64.8925 158.454 64.1924 156.401C63.7538 156.241 63.3387 156.047 62.9545 155.832Z" fill="#F0CDA9"/>
<path d="M9.69692 196.008C9.54506 196.673 9.40876 197.335 9.28464 197.996C9.3746 197.523 9.47506 197.05 9.57923 196.573L9.69692 196.008Z" fill="#F0CDA9"/>
<path d="M61.7522 154.991C61.1867 154.478 60.7006 153.826 60.2883 153.082C60.3597 154.373 60.6874 155.667 61.3003 156.921C61.5567 157.442 61.9344 157.889 62.3004 158.352C62.2094 157.204 62.1262 156.159 62.0508 155.232L61.7522 154.991Z" fill="#F0CDA9"/>
<path d="M23.1516 179.156L23.7939 178.028C24.5745 176.622 25.2614 175.291 25.8164 174.194L25.9869 173.859C26.2524 173.331 26.4983 172.779 26.7546 172.234C28.809 167.909 30.6215 163.295 32.9454 159.243C34.9842 155.69 37.0027 152.133 39.4192 149.052C38.8723 148.152 38.4482 147.26 38.1259 146.242C37.1349 147.01 35.7993 148.152 34.2641 149.717C32.5399 151.475 30.5738 153.757 28.5726 156.682C27.6661 158.004 26.6687 159.504 25.6196 161.143C25.189 162.962 23.893 168.603 23.1516 179.156Z" fill="#F0CDA9"/>
<path d="M61.5553 163.094C62.4354 167.249 63.0286 171.422 63.5478 175.736C63.1487 169.654 62.7695 164.434 62.4523 160.317L61.7931 160.464L60.933 160.358L61.0585 160.9C61.233 161.635 61.3994 162.365 61.5553 163.094Z" fill="#F0CDA9"/>
<path d="M15.2353 188.608C15.7399 188.357 16.2459 188.016 16.7532 187.598C17.7401 186.791 18.7243 185.703 19.673 184.467L20.3572 183.54C20.8118 182.907 21.2572 182.246 21.6851 181.575C22.256 172.376 23.3075 166.676 24.0222 163.701C19.3811 171.257 14.1228 181.13 11.0697 190.932C11.3062 190.17 11.5558 189.407 11.8186 188.649C12.9032 189.278 14.0606 189.196 15.2353 188.608Z" fill="#F0CDA9"/>
<path d="M9.20009 198.441C9.07732 199.134 8.96503 199.819 8.87236 200.507C8.94643 199.957 9.04146 199.392 9.13819 198.836L9.20009 198.441Z" fill="#F0CDA9"/>
<path d="M8.59502 203.22L8.54225 204H8.55815L8.59502 203.22Z" fill="#F0CDA9"/>
<path d="M12.6259 192.12C13.1096 192.12 13.5032 192.656 13.5032 193.309C13.5032 193.969 13.1096 194.507 12.6259 194.507C12.1423 194.507 11.7472 193.969 11.7472 193.309C11.7472 192.656 12.1423 192.12 12.6259 192.12ZM13.9352 202.461C13.9352 203.123 13.5428 203.656 13.0578 203.656C12.5745 203.656 12.1822 203.123 12.1822 202.461C12.1822 201.805 12.5745 201.273 13.0578 201.273C13.5428 201.273 13.9352 201.805 13.9352 202.461ZM16.4177 196.899C16.9013 196.899 17.295 197.435 17.295 198.092C17.295 198.753 16.9013 199.286 16.4177 199.286C15.934 199.286 15.5403 198.753 15.5403 198.092C15.5403 197.435 15.934 196.899 16.4177 196.899ZM19.648 201.516C20.1313 201.516 20.5253 202.058 20.5253 202.711C20.5253 203.371 20.1313 203.903 19.648 203.903C19.1644 203.903 18.768 203.371 18.768 202.711C18.768 202.058 19.1644 201.516 19.648 201.516ZM20.1895 189.847C20.6731 189.847 21.0668 190.385 21.0668 191.041C21.0668 191.697 20.6731 192.235 20.1895 192.235C19.7062 192.235 19.3125 191.697 19.3125 191.041C19.3125 190.385 19.7062 189.847 20.1895 189.847ZM21.4196 204C21.1554 194.916 21.3178 187.521 21.6851 181.575C21.2573 182.245 20.8118 182.907 20.3573 183.54C20.2886 184.017 20.0231 184.376 19.673 184.467C18.7243 185.703 17.7401 186.791 16.7532 187.598L16.9463 188.31C16.9463 188.972 16.555 189.504 16.069 189.504C15.6621 189.504 15.3344 189.117 15.2353 188.607C14.0606 189.196 12.9033 189.278 11.8186 188.649C11.5558 189.407 11.3062 190.169 11.0698 190.931L10.9889 191.188C10.7566 191.941 10.5371 192.694 10.3324 193.451L10.3257 193.469C10.1143 194.251 9.91881 195.025 9.74056 195.805L9.69693 196.008L9.57924 196.573C9.90832 196.747 10.1434 197.17 10.1434 197.679C10.1434 198.341 9.75105 198.872 9.26605 198.872L9.1382 198.836C9.04146 199.392 8.94643 199.956 8.87236 200.507L8.85544 200.607C8.76142 201.319 8.68769 202.031 8.62951 202.738L8.59502 203.22L8.55815 204H21.4196Z" fill="#F4F3D8"/>
<path d="M24.1094 186.707C23.6261 186.707 23.2335 186.176 23.2335 185.514C23.2335 184.853 23.6261 184.32 24.1094 184.32C24.5958 184.32 24.9895 184.853 24.9895 185.514C24.9895 186.176 24.5958 186.707 24.1094 186.707ZM29.8064 167.303C30.2914 167.303 30.6837 167.832 30.6837 168.488C30.6837 169.153 30.2914 169.681 29.8064 169.681C29.3214 169.681 28.9291 169.153 28.9291 168.488C28.9291 167.832 29.3214 167.303 29.8064 167.303ZM32.5598 161.877C33.0432 161.877 33.4355 162.409 33.4355 163.066C33.4355 163.727 33.0432 164.26 32.5598 164.26C32.0748 164.26 31.6811 163.727 31.6811 163.066C31.6811 162.409 32.0748 161.877 32.5598 161.877ZM35.547 156.347C36.033 156.347 36.4226 156.879 36.4226 157.535C36.4226 158.195 36.033 158.728 35.547 158.728C35.0633 158.728 34.6696 158.195 34.6696 157.535C34.6696 156.879 35.0633 156.347 35.547 156.347ZM39.3743 151.892C39.8606 151.892 40.253 152.425 40.253 153.081C40.253 153.74 39.8606 154.27 39.3743 154.27C38.8906 154.27 38.4969 153.74 38.4969 153.081C38.4969 152.425 38.8906 151.892 39.3743 151.892ZM31.7221 169.595C34.1386 163.907 36.4081 159.967 38.4005 157.224C38.1232 156.865 37.9145 156.424 37.8469 155.92C38.2565 156.364 38.6978 156.429 39.1138 156.273C39.5975 155.649 40.0612 155.106 40.508 154.625L40.6267 154.326C41.3877 152.003 40.4312 150.686 39.5234 149.235L39.4193 149.052C37.0027 152.133 34.9842 155.691 32.9454 159.243C30.6215 163.295 28.809 167.909 26.7547 172.234C27.0648 172.422 27.2789 172.835 27.2789 173.323C27.2789 173.979 26.8893 174.515 26.4019 174.515L25.8164 174.194C25.2614 175.291 24.5745 176.622 23.7939 178.028L23.8362 178.326C23.8362 178.899 23.528 179.353 23.1306 179.468C22.8056 184.214 22.5942 189.934 22.622 196.732L23.0907 196.522C23.5771 196.522 23.9694 197.059 23.9694 197.715C23.9694 198.371 23.5771 198.904 23.0907 198.904L22.6352 198.707C22.6548 200.407 22.6879 202.173 22.7383 204H24.4412L26.4374 197.279C25.1623 189.499 27.4889 179.561 31.7221 169.595Z" fill="#F4F3D8"/>
<path d="M66.6208 195.884L66.1517 196.096L65.6748 195.875C65.8054 198.298 65.9481 200.892 66.0976 203.638L66.4977 203.491L67.1995 204H69.2366C68.5324 202.567 67.9815 200.961 67.5546 199.497C67.21 198.309 66.9059 197.096 66.6208 195.884Z" fill="#F4F3D8"/>
<path d="M62.7891 192.074C62.3058 192.074 61.9122 191.541 61.9122 190.881C61.9122 190.22 62.3058 189.687 62.7891 189.687C63.2728 189.687 63.6651 190.22 63.6651 190.881C63.6651 191.541 63.2728 192.074 62.7891 192.074ZM62.706 201.095C62.2226 201.095 61.8303 200.557 61.8303 199.901C61.8303 199.239 62.2226 198.707 62.706 198.707C63.191 198.707 63.5846 199.239 63.5846 199.901C63.5846 200.557 63.191 201.095 62.706 201.095ZM61.5631 181.103C61.5631 180.447 61.9558 179.909 62.4404 179.909C62.9268 179.909 63.3151 180.447 63.3151 181.103C63.3151 181.759 62.9268 182.296 62.4404 182.296C61.9558 182.296 61.5631 181.759 61.5631 181.103ZM60.9462 171.705C60.9462 171.049 61.3399 170.513 61.8249 170.513C62.3086 170.513 62.7022 171.049 62.7022 171.705C62.7022 172.361 62.3086 172.894 61.8249 172.894C61.3399 172.894 60.9462 172.361 60.9462 171.705ZM59.3424 197.068C58.8587 197.068 58.465 196.531 58.465 195.879C58.465 195.219 58.8587 194.686 59.3424 194.686C59.826 194.686 60.2197 195.219 60.2197 195.879C60.2197 196.531 59.826 197.068 59.3424 197.068ZM58.9977 184.908C59.481 184.908 59.8734 185.441 59.8734 186.097C59.8734 186.759 59.481 187.291 58.9977 187.291C58.5141 187.291 58.1177 186.759 58.1177 186.097C58.1177 185.441 58.5141 184.908 58.9977 184.908ZM58.0331 168.112C57.5468 168.112 57.1544 167.579 57.1544 166.917C57.1544 166.267 57.5468 165.729 58.0331 165.729C58.5168 165.729 58.9105 166.267 58.9105 166.917C58.9105 167.579 58.5168 168.112 58.0331 168.112ZM56.0129 201.87C55.5283 201.87 55.1346 201.337 55.1346 200.681C55.1346 200.025 55.5283 199.492 56.0129 199.492C56.4966 199.492 56.8903 200.025 56.8903 200.681C56.8903 201.337 56.4966 201.87 56.0129 201.87ZM61.5553 163.094L61.4762 163.118C60.9925 163.118 60.5989 162.58 60.5989 161.923C60.5989 161.479 60.7889 161.102 61.0585 160.9L60.933 160.358C58.6859 159.978 56.3221 158.669 54.7818 156.777C53.8399 155.626 53.2717 154.45 52.9521 153.196C52.9149 154.046 53.0194 154.84 53.2267 155.588C53.5186 156.18 53.8054 156.842 54.0841 157.595C54.4473 158.215 54.8782 158.798 55.371 159.339L54.635 159.234C55.6419 162.497 56.5362 167.061 57.259 173.464C57.3726 174.483 57.4598 175.489 57.5336 176.493C57.6076 175.939 57.9499 175.507 58.3791 175.507C58.8628 175.507 59.2565 176.045 59.2565 176.701C59.2565 177.357 58.8628 177.893 58.3791 177.893C58.0253 177.893 57.7226 177.599 57.584 177.192C58.2763 187.901 56.6525 197.615 53.1767 204H58.2908L58.9923 203.491L59.6938 204H65.1026C64.6284 193.424 64.0734 183.816 63.5478 175.736C63.0286 171.422 62.4354 167.249 61.5553 163.094Z" fill="#F4F3D8"/>
<path d="M66.1372 193.713C65.8412 192.3 65.5771 190.867 65.3379 189.425C65.4079 190.876 65.4871 192.418 65.5757 194.021L66.1372 193.713Z" fill="#F4F3D8"/>
<path d="M31.7221 169.595C27.4889 179.561 25.1623 189.499 26.4374 197.279L34.7884 169.163C36.0384 166.684 38.1178 161.538 41.0322 157.998L40.4603 158.16C39.7561 158.284 38.9383 157.913 38.4005 157.224C36.4081 159.967 34.1386 163.907 31.7221 169.595Z" fill="#E3BA8E"/>
<path d="M54.0841 157.595C53.8054 156.842 53.5186 156.18 53.2267 155.588C53.4195 156.3 53.7141 156.965 54.0841 157.595Z" fill="#E3BA8E"/>
<path d="M40.508 154.625C40.0612 155.106 39.5975 155.649 39.1138 156.273C39.682 156.053 40.1921 155.391 40.508 154.625Z" fill="#E3BA8E"/>
<path d="M57.584 177.192L57.5035 176.701L57.5335 176.493C57.4598 175.489 57.3726 174.483 57.2589 173.464C56.5362 167.061 55.6419 162.497 54.635 159.234C54.2241 159.178 53.8132 159.123 53.4049 159.049C55.7238 163.186 57.3922 170.843 54.3959 184.894L47.526 204H53.1766C56.6525 197.615 58.2763 187.901 57.584 177.192Z" fill="#E3BA8E"/>
<path d="M12.1822 202.462C12.1822 203.123 12.5745 203.656 13.0578 203.656C13.5428 203.656 13.9352 203.123 13.9352 202.462C13.9352 201.805 13.5428 201.273 13.0578 201.273C12.5745 201.273 12.1822 201.805 12.1822 202.462Z" fill="#484749"/>
<path d="M9.26604 198.871C9.75104 198.871 10.1434 198.341 10.1434 197.679C10.1434 197.17 9.90831 196.747 9.57923 196.573C9.47505 197.05 9.3746 197.523 9.28464 197.996L9.20008 198.441L9.13818 198.836L9.26604 198.871Z" fill="#484749"/>
<path d="M66.4977 203.491L66.0976 203.638L66.1158 204H67.1995L66.4977 203.491Z" fill="#484749"/>
<path d="M62.7059 198.707C62.2226 198.707 61.8303 199.239 61.8303 199.901C61.8303 200.557 62.2226 201.095 62.7059 201.095C63.1909 201.095 63.5846 200.557 63.5846 199.901C63.5846 199.239 63.1909 198.707 62.7059 198.707Z" fill="#484749"/>
<path d="M65.6748 195.875L66.1517 196.096L66.6208 195.884C66.4504 195.169 66.2863 194.437 66.1372 193.713L65.5757 194.021C65.6062 194.626 65.6403 195.246 65.6748 195.875Z" fill="#484749"/>
<path d="M58.9923 203.491L58.2908 204H59.6938L58.9923 203.491Z" fill="#484749"/>
<path d="M59.3423 194.686C58.8587 194.686 58.465 195.219 58.465 195.879C58.465 196.532 58.8587 197.068 59.3423 197.068C59.826 197.068 60.2197 196.532 60.2197 195.879C60.2197 195.219 59.826 194.686 59.3423 194.686Z" fill="#484749"/>
<path d="M62.7891 189.687C62.3058 189.687 61.9122 190.219 61.9122 190.881C61.9122 191.541 62.3058 192.073 62.7891 192.073C63.2728 192.073 63.6651 191.541 63.6651 190.881C63.6651 190.219 63.2728 189.687 62.7891 189.687Z" fill="#484749"/>
<path d="M56.0129 199.492C55.5283 199.492 55.1346 200.024 55.1346 200.681C55.1346 201.337 55.5283 201.87 56.0129 201.87C56.4966 201.87 56.8903 201.337 56.8903 200.681C56.8903 200.024 56.4966 199.492 56.0129 199.492Z" fill="#484749"/>
<path d="M58.9977 187.291C59.481 187.291 59.8734 186.759 59.8734 186.097C59.8734 185.441 59.481 184.908 58.9977 184.908C58.5141 184.908 58.1177 185.441 58.1177 186.097C58.1177 186.759 58.5141 187.291 58.9977 187.291Z" fill="#484749"/>
<path d="M63.3151 181.103C63.3151 180.447 62.9268 179.909 62.4404 179.909C61.9558 179.909 61.5631 180.447 61.5631 181.103C61.5631 181.759 61.9558 182.295 62.4404 182.295C62.9268 182.295 63.3151 181.759 63.3151 181.103Z" fill="#484749"/>
<path d="M57.584 177.192C57.7226 177.599 58.0253 177.894 58.3791 177.894C58.8627 177.894 59.2564 177.357 59.2564 176.701C59.2564 176.045 58.8627 175.507 58.3791 175.507C57.9499 175.507 57.6076 175.939 57.5335 176.493L57.5034 176.701L57.584 177.192Z" fill="#484749"/>
<path d="M62.7022 171.705C62.7022 171.049 62.3085 170.513 61.8249 170.513C61.3399 170.513 60.9462 171.049 60.9462 171.705C60.9462 172.361 61.3399 172.894 61.8249 172.894C62.3085 172.894 62.7022 172.361 62.7022 171.705Z" fill="#484749"/>
<path d="M58.0331 165.729C57.5468 165.729 57.1544 166.267 57.1544 166.917C57.1544 167.579 57.5468 168.112 58.0331 168.112C58.5168 168.112 58.9105 167.579 58.9105 166.917C58.9105 166.267 58.5168 165.729 58.0331 165.729Z" fill="#484749"/>
<path d="M61.0585 160.899C60.7889 161.102 60.5988 161.479 60.5988 161.923C60.5988 162.58 60.9925 163.118 61.4762 163.118L61.5553 163.094C61.3994 162.364 61.233 161.635 61.0585 160.899Z" fill="#484749"/>
<path d="M19.648 203.903C20.1313 203.903 20.5253 203.371 20.5253 202.711C20.5253 202.058 20.1313 201.517 19.648 201.517C19.1643 201.517 18.768 202.058 18.768 202.711C18.768 203.371 19.1643 203.903 19.648 203.903Z" fill="#484749"/>
<path d="M23.9694 197.715C23.9694 197.059 23.5771 196.522 23.0907 196.522L22.6219 196.732C22.6257 197.38 22.6284 198.041 22.6351 198.707L23.0907 198.904C23.5771 198.904 23.9694 198.371 23.9694 197.715Z" fill="#484749"/>
<path d="M16.4177 199.286C16.9013 199.286 17.295 198.753 17.295 198.092C17.295 197.435 16.9013 196.899 16.4177 196.899C15.934 196.899 15.5403 197.435 15.5403 198.092C15.5403 198.753 15.934 199.286 16.4177 199.286Z" fill="#484749"/>
<path d="M20.1895 192.235C20.6731 192.235 21.0668 191.697 21.0668 191.041C21.0668 190.384 20.6731 189.846 20.1895 189.846C19.7062 189.846 19.3125 190.384 19.3125 191.041C19.3125 191.697 19.7062 192.235 20.1895 192.235Z" fill="#484749"/>
<path d="M24.1094 184.32C23.6261 184.32 23.2335 184.853 23.2335 185.514C23.2335 186.176 23.6261 186.707 24.1094 186.707C24.5958 186.707 24.9895 186.176 24.9895 185.514C24.9895 184.853 24.5958 184.32 24.1094 184.32Z" fill="#484749"/>
<path d="M32.5598 164.26C33.0431 164.26 33.4355 163.727 33.4355 163.066C33.4355 162.409 33.0431 161.877 32.5598 161.877C32.0748 161.877 31.6811 162.409 31.6811 163.066C31.6811 163.727 32.0748 164.26 32.5598 164.26Z" fill="#484749"/>
<path d="M35.547 158.728C36.033 158.728 36.4226 158.195 36.4226 157.535C36.4226 156.879 36.033 156.346 35.547 156.346C35.0633 156.346 34.6696 156.879 34.6696 157.535C34.6696 158.195 35.0633 158.728 35.547 158.728Z" fill="#484749"/>
<path d="M39.3743 154.27C39.8606 154.27 40.2529 153.74 40.2529 153.081C40.2529 152.425 39.8606 151.893 39.3743 151.893C38.8906 151.893 38.4969 152.425 38.4969 153.081C38.4969 153.74 38.8906 154.27 39.3743 154.27Z" fill="#484749"/>
<path d="M12.6259 194.507C13.1096 194.507 13.5032 193.969 13.5032 193.309C13.5032 192.656 13.1096 192.12 12.6259 192.12C12.1423 192.12 11.7472 192.656 11.7472 193.309C11.7472 193.969 12.1423 194.507 12.6259 194.507Z" fill="#484749"/>
<path d="M16.069 189.504C16.555 189.504 16.9463 188.971 16.9463 188.31L16.7532 187.598C16.2458 188.016 15.7399 188.356 15.2352 188.607C15.3343 189.117 15.6621 189.504 16.069 189.504Z" fill="#484749"/>
<path d="M19.673 184.467C20.0231 184.376 20.2886 184.017 20.3572 183.54L19.673 184.467Z" fill="#484749"/>
<path d="M23.8362 178.326L23.7939 178.028L23.1516 179.156L23.1306 179.468C23.528 179.353 23.8362 178.899 23.8362 178.326Z" fill="#484749"/>
<path d="M27.2789 173.322C27.2789 172.835 27.0648 172.422 26.7547 172.234C26.4983 172.779 26.2524 173.331 25.9869 173.859L25.8164 174.194L26.4019 174.515C26.8893 174.515 27.2789 173.979 27.2789 173.322Z" fill="#484749"/>
<path d="M29.8064 169.681C30.2914 169.681 30.6837 169.153 30.6837 168.488C30.6837 167.832 30.2914 167.303 29.8064 167.303C29.3214 167.303 28.9291 167.832 28.9291 168.488C28.9291 169.153 29.3214 169.681 29.8064 169.681Z" fill="#484749"/>
<path d="M21.6851 181.575C21.3178 187.521 21.1554 194.916 21.4196 204H22.7383C22.6879 202.173 22.6548 200.407 22.6351 198.707C22.6284 198.041 22.6257 197.38 22.6219 196.732C22.5942 189.934 22.8056 184.214 23.1306 179.468L23.1516 179.156C23.893 168.603 25.189 162.962 25.6196 161.143C25.72 160.72 25.7755 160.505 25.7623 160.487C25.3673 161.084 24.8586 161.52 24.3195 162.515C24.2322 162.847 24.1307 163.25 24.0222 163.7C23.3075 166.675 22.256 172.376 21.6851 181.575Z" fill="#8C1632"/>
<path d="M65.6748 195.875C65.6403 195.246 65.6062 194.625 65.5757 194.021C65.4871 192.418 65.408 190.876 65.3379 189.425L65.3193 189.054C65.1634 185.789 63.8873 165.702 62.9545 155.832C62.6254 155.649 62.3241 155.446 62.0508 155.232C62.1262 156.158 62.2094 157.204 62.3004 158.351C62.7073 158.861 63.0986 159.384 63.2809 160.023L63.2795 160.041L62.4523 160.317C62.7695 164.434 63.1487 169.654 63.5478 175.736C64.0734 183.816 64.6284 193.424 65.1025 204H66.1158L66.0976 203.638C65.9481 200.892 65.8054 198.298 65.6748 195.875Z" fill="#8C1632"/>
<path d="M53.4049 159.049C52.6838 158.931 51.9651 158.775 51.2528 158.554C50.4032 158.059 49.6145 157.406 48.9658 156.571L48.3293 155.515C48.3279 156.732 48.5353 157.933 49.028 158.949C49.5699 160.073 50.3386 160.767 50.9451 161.762C49.7704 161.626 48.6225 161.299 47.5165 160.781C46.3209 159.601 45.309 157.907 44.7607 156.488L44.4239 155.473C44.1448 155.95 43.8066 156.368 43.4197 156.765L43.0591 156.838C42.401 157.319 41.7458 157.751 41.0322 157.998C38.1178 161.538 36.0384 166.684 34.7884 169.162L26.4374 197.279L24.4412 204H47.526L54.3959 184.894C57.3922 170.843 55.7237 163.186 53.4049 159.049Z" fill="#F0CDA9"/>
<path d="M47.3714 118.3C48.0993 115.857 47.551 111.855 48.1798 109.106L48.1575 108.939L48.1588 108.909C47.2142 112.075 46.0608 115.109 44.5757 117.914L45.2971 121.739L45.3181 122.115C46.1755 120.971 46.9351 119.759 47.3714 118.3Z" fill="#E3BA8E"/>
<path d="M42.6956 121.095C43.3839 120.082 43.997 119.011 44.5757 117.914C46.0608 115.109 47.2142 112.075 48.1588 108.909C48.1943 108.312 48.2194 107.72 48.2339 107.131C47.9197 106.967 47.6261 106.658 47.3674 106.155C46.2641 103.987 46.461 100.305 46.6064 97.6333C46.7106 95.7145 46.9751 93.5308 47.3992 91.3535V86.001C46.5773 88.1691 46.3091 90.7618 45.9604 93.0928C45.4886 96.2704 44.7844 98.7685 43.5107 101.22C43.1302 101.659 42.7365 102.097 42.3232 102.482C41.2412 103.271 39.9557 103.578 38.7756 103.454C38.2287 103.389 36.9526 102.545 37.1244 101.605L37.304 101.412C40.4985 101.347 41.6796 96.785 40.2594 93.4426C39.9411 92.6948 39.5302 92.0512 39.1284 91.4003C38.5419 90.8912 38.061 90.1971 37.691 89.1175C37.139 87.5021 37.4163 85.8091 37.9869 84.2153C38.9701 82.8987 40.072 81.7102 41.2926 80.625C42.2254 79.8093 43.9362 79.4003 44.9549 78.3445C44.9085 73.6658 42.8478 69.6547 39.2275 68.098C36.6935 67.006 34.3974 66.271 32.4631 63.6691C30.6743 61.2628 30.6706 57.9076 29.9014 54.888C28.4667 49.227 24.5681 49.5658 20.9863 49.7416C18.2674 49.8651 14.2125 49.6805 10.4275 48.6619C10.2147 51.5544 10.282 54.4326 10.2915 57.5312C10.3007 62.2328 12.6919 67.0096 12.8914 71.6791C13.0277 74.9016 11.9863 77.8763 10.4857 80.5626C10.1488 81.5431 9.7524 82.5223 9.27551 83.5317C8.13402 85.9367 6.89987 88.6731 5.1692 90.4033C4.38589 91.1832 3.45038 91.836 2.68938 92.6751C2.55613 93.1718 2.48848 93.6864 2.4993 94.1959L2.5984 93.1341C4.96965 96.3062 8.61091 97.065 11.9231 97.2945C10.8739 98.8869 9.66514 100.187 8.36401 101.324L8.35995 101.311L8.38363 101.467C8.38363 101.467 8.37179 102.523 7.77213 104.18C7.41395 105.163 6.7125 107.2 6.7453 108.55C8.89908 110.455 11.3126 111.299 13.8347 111.699L13.1809 111.914C11.6931 112.361 10.4143 112.534 9.08002 113.379C8.71001 113.714 8.46548 114.15 8.47867 114.709C8.54091 117.451 9.75105 116.684 10.2479 119.434C11.3512 122.587 11.6853 126.288 12.3563 129.713C13.9801 133.206 16.3108 136.005 19.2239 136.62C19.7789 136.74 20.3285 136.809 20.8754 136.846C21.6046 136.905 22.3274 136.9 23.042 136.837C24.6922 136.699 26.3038 136.263 27.8853 135.629L28.1958 135.505C33.7132 132.182 38.7587 126.894 42.6956 121.095Z" fill="#F0CDA9"/>
<path d="M13.8347 111.699C11.3126 111.299 8.89908 110.455 6.7453 108.55L6.76255 108.903C7.10212 111.319 10.7961 112.232 12.3499 112.111L12.2877 112.149L12.2495 112.158L11.914 112.226L11.7604 112.255L11.5808 112.296L11.2717 112.364L11.1012 112.411L10.718 112.525L10.5557 112.576L10.1211 112.741L10.0429 112.773L9.61373 112.999L9.49095 113.073L9.08002 113.379C10.4143 112.534 11.6931 112.361 13.1809 111.914L13.8347 111.699Z" fill="#D9B288"/>
<path d="M11.9231 97.2946C8.61091 97.0651 4.96965 96.3063 2.5984 93.1343L2.4993 94.1961L2.50978 94.3788L2.54293 94.7644L2.67349 95.3795L2.95353 96.1094C3.65263 97.0509 4.5577 97.7858 5.33188 98.2807C6.20245 98.8421 8.25037 99.7368 8.35995 101.311L8.36401 101.324C9.66513 100.187 10.8739 98.8871 11.9231 97.2946Z" fill="#D9B288"/>
<path d="M11.7262 20.3247C11.7117 22.5842 11.9058 24.5209 10.3957 26.4806C9.71148 27.3716 8.77731 27.8719 8.04812 28.6932C5.66198 31.3883 4.67134 36.0201 7.61723 38.6004C10.9757 41.5434 15.9012 41.6113 19.739 42.2728C22.1133 42.68 29.2264 42.8466 29.8696 47.1291C29.9992 47.9733 30.7115 47.1667 30.8106 46.7485C32.0221 41.57 29.7733 38.0628 26.9552 35.3264C29.1736 36.1495 31.1684 37.4064 32.5345 40.4637C34.8215 45.5688 32.0326 51.872 33.935 57.0165C34.8347 59.455 37.1163 62.8423 39.3557 62.7042C41.0599 62.5986 42.1223 60.7174 42.0959 58.4079C42.0445 53.9964 40.8276 49.4206 39.9898 45.1868C38.7942 39.1223 37.0013 33.2984 34.9456 27.6837C32.2903 20.4358 29.0096 15.0741 24.3553 11.2227C21.3864 11.5165 18.3929 12.0618 15.6381 13.6327C12.4395 15.451 11.524 18.388 10.3074 21.8992C10.9784 19.9712 11.5612 18.209 12.4791 16.717C12.0249 17.8142 11.7327 19.1124 11.7262 20.3247Z" fill="#E59430"/>
<path d="M84.5173 9.97831C84.932 10.3313 85.3389 10.7132 85.7447 11.108C85.3416 10.7132 84.932 10.3313 84.5173 9.97831Z" fill="#E59430"/>
<path d="M49.6821 9.50118C50.5368 11.7051 51.7828 13.6234 52.6916 15.7897C53.7749 18.3792 54.6009 21.1564 55.3933 23.9236C56.8466 29.0053 56.5889 34.5965 57.7172 39.8021C57.8427 40.3667 58.35 40.1372 58.5364 39.7842C60.5934 35.8318 61.0003 31.0118 61.0111 26.2565C62.6322 33.9166 61.9967 42.4825 60.1284 49.9154C58.6037 55.9799 55.7606 63.484 58.0517 69.8841C60.1351 75.7099 64.808 78.6437 66.4649 84.9088C68.8852 94.0434 65.1039 103.033 59.4692 107.856C59.1364 108.146 58.901 109.151 59.4942 109.188C61.1498 109.28 62.689 108.903 64.1278 108.206C60.908 111.64 56.9829 114.303 53.7394 117.584C47.5852 123.808 43.6679 134.743 48.5339 144.08C48.8934 144.765 49.5009 143.777 49.4153 143.203C48.6857 138.411 49.6253 134.33 51.4406 130.855L51.3888 131.246C50.6955 137.92 52.9967 144.48 56.0647 149.474C56.4306 150.071 57.1043 149.226 56.9444 148.602C55.606 143.4 56.5216 138.595 58.5787 134.578C59.0823 140.271 62.94 141.987 65.4408 146.587C65.8094 147.261 66.6022 146.174 66.2718 145.568C65.4685 144.094 64.972 142.543 64.7062 140.931C65.5057 142.363 66.7263 143.368 68.1901 144.071C70.3172 146.371 72.1788 148.408 70.8641 150.397C70.5249 150.906 70.6118 151.93 71.2473 151.512C73.5661 149.997 75.8518 148.014 77.5416 145.383L77.7184 145.374C77.1993 146.854 76.8479 148.428 76.7396 150.126C76.6984 150.736 77.2361 150.703 77.4739 150.429L78.2034 149.68L78.539 149.464C78.8718 149.043 79.2245 148.667 79.5945 148.326L79.7664 148.179C82.4522 145.83 85.9084 145.462 88.6656 143.153C90.683 141.464 91.464 138.379 91.6223 135.313L91.7058 135.148C91.9223 137.746 92.5909 140.354 93.8565 142.923C94.1724 143.562 94.9334 142.638 94.7376 142.046C91.95 133.66 101.019 128.596 105.187 122.18C105.17 124.12 104.901 126.1 104.36 128.165C104.246 128.596 104.373 129.202 104.799 129.019C109.212 127.123 111.893 120.406 112.283 114.462C112.439 112.122 111.88 110.124 111.046 108.27C112.181 108.206 113.337 107.788 114.44 106.967C114.8 106.696 114.839 105.998 114.621 105.74L114.272 105.254C111.239 105.74 110.009 101.155 111.594 98.0096C112.189 96.8353 113.274 95.9439 114.114 95.1084C115.315 93.9158 116.62 92.4689 117.011 90.4123C117.851 85.9742 115.994 82.0218 113.169 79.8863C109.67 77.2376 105.327 78.1612 101.645 76.2424C98.8321 74.772 97.2743 71.7111 96.4209 68.1268C99.0394 72.7352 102.394 75.1866 105.707 69.6725L105.583 68.6304C104.129 67.6715 102.51 67.368 101.096 66.2943C98.1861 64.0904 98.9643 58.4579 99.889 55.094C100.882 51.4716 102.255 47.9824 101.698 43.9799C101.227 40.6018 99.9881 37.9567 98.132 35.6436C95.7353 32.6543 92.456 31.9891 89.7766 29.6704C86.458 26.8014 86.8503 21.2483 86.4644 16.6164C86.2598 14.1973 85.5211 11.9557 84.5092 9.97262C81.8552 7.7242 78.9749 6.32915 75.845 5.05758C71.4905 3.30401 67.2073 1.41732 62.6796 0.641066C60.7784 0.314681 58.855 0.209105 56.9234 0.24996L56.6894 0.264642C53.3772 0.626832 50.3373 1.85663 47.2801 3.31274C47.8933 3.02399 48.5035 2.7426 49.118 2.47176C48.5735 4.82255 48.7666 7.13569 49.6821 9.50118Z" fill="#E59430"/>
<path d="M53.3336 79.7914C54.149 79.3737 54.9969 79.1658 55.8306 79.2534C56.6207 79.3411 57.3922 79.6657 58.0953 80.2592C59.8497 81.7314 61.8181 84.9594 60.702 91.8415C59.8683 96.9627 58.3159 97.6297 54.5755 101.756C52.9757 103.528 50.1628 108.159 48.2339 107.132C48.2194 107.72 48.1943 108.312 48.1588 108.909L48.1575 108.939L48.1798 109.106C47.551 111.855 48.0993 115.857 47.3714 118.3C46.9351 119.759 46.1755 120.971 45.3181 122.115C44.0461 123.817 42.5555 125.365 41.5422 127.301C40.212 128.752 38.9752 130.276 38.0359 132.039C36.2999 135.293 35.4952 142.497 37.9301 145.595L38.1259 146.243C38.4482 147.261 38.8723 148.152 39.4192 149.052L39.5234 149.235C40.4312 150.686 41.3877 152.004 40.6267 154.326L40.508 154.625C40.1921 155.391 39.682 156.053 39.1138 156.273C38.6978 156.429 38.2565 156.365 37.8469 155.92C37.9145 156.424 38.1232 156.865 38.4005 157.224C38.9383 157.912 39.7561 158.283 40.4603 158.16L41.0322 157.998C41.7459 157.751 42.401 157.319 43.0592 156.838L43.4197 156.765C43.8066 156.368 44.1448 155.951 44.4239 155.474L44.7607 156.489C45.309 157.907 46.3209 159.601 47.5165 160.781C48.6225 161.3 49.7704 161.626 50.9451 161.762C50.3386 160.767 49.5699 160.073 49.028 158.949C48.5353 157.934 48.3279 156.732 48.3293 155.515L48.9658 156.571C49.6145 157.407 50.4032 158.059 51.2528 158.554C51.9651 158.775 52.6838 158.931 53.4049 159.049C53.8132 159.123 54.2241 159.178 54.635 159.234L55.371 159.34C54.8782 158.798 54.4473 158.215 54.0841 157.595C53.7141 156.965 53.4195 156.3 53.2267 155.588C53.0193 154.841 52.9149 154.046 52.9521 153.196C53.2717 154.45 53.8399 155.626 54.7818 156.777C56.3221 158.669 58.6859 159.978 60.933 160.358L61.7931 160.464L62.4523 160.317L63.2796 160.041L63.2809 160.023C63.0986 159.384 62.7073 158.861 62.3004 158.352C61.9345 157.889 61.5567 157.442 61.3003 156.92C60.6874 155.667 60.3597 154.373 60.2883 153.081C60.7006 153.826 61.1867 154.478 61.7522 154.991L62.0508 155.232C62.3241 155.446 62.6254 155.649 62.9545 155.832C63.3387 156.047 63.7537 156.241 64.1924 156.401C66.9391 157.434 70.579 157.453 72.8633 156.062C72.817 156.645 72.5542 157.251 71.9437 157.889L71.9478 157.893L71.8314 158.178C72.7656 157.801 73.6243 156.975 74.4577 156.356L74.4908 156.342L74.7526 156.085C75.129 155.638 75.4436 155.106 75.7236 154.538C75.9969 155.667 76.3933 156.759 76.947 157.792L77.1211 157.975C77.2416 156.645 77.5997 155.474 78.1372 154.432C78.798 152.031 80.4469 150.897 82.2912 149.997C81.9252 151.38 81.7402 152.866 82.1153 153.946C82.5262 152.949 83.2794 152.06 83.8355 151.536L84.1023 151.315C84.4618 150.736 84.8265 150.227 85.1383 150.021C86.1039 149.359 87.4514 149.194 88.5005 148.841C89.506 148.505 90.6026 148.055 91.6236 147.472L91.6449 147.501C93.7111 148.556 96.4473 147.078 98.4634 146.013C100.503 147.854 103.656 145.039 105.222 143.285C106.025 142.387 106.738 141.239 107.363 139.968C107.716 140.554 108.142 141.055 108.655 141.487C109.239 142.175 109.971 142.74 110.887 143.126C110.248 141.225 110.565 138.603 111.264 136.932C111.705 135.881 112.3 134.963 112.969 134.137C114.002 132.586 115.195 131.217 116.34 129.799L116.762 129.276C117.429 128.795 118.083 128.313 118.566 127.733C119.795 126.265 120.841 124.902 121.486 122.816C121.713 122.096 121.753 121.38 121.681 120.677L121.986 120.659C122.885 120.541 124.543 119.962 125.578 118.961L126.047 117.819C121.981 118.411 120.822 113.503 122.917 109.115C123.875 107.109 125.796 106.135 127.036 104.451C128.929 101.876 128.671 97.065 127.563 94.117C127.077 92.8096 125.97 91.7983 125.048 91.074C127.258 90.7944 129.27 88.9812 130.14 85.5888C130.276 84.6294 130.257 83.6824 130.046 82.8056L129.996 82.89C128.735 87.5434 124.977 85.7807 122.875 83.8531C121.267 82.3754 120.252 80.3042 119.482 77.9497C119.142 74.8567 119.503 71.288 118.987 68.475C117.548 60.6564 110.242 60.5651 108.142 53.5412C108.139 53.0821 108.15 52.6341 108.133 52.175C107.926 45.3985 106.217 38.8984 103.14 33.5546C101.678 31.0211 99.8072 29.1991 97.8729 27.3864C97.0246 26.5917 96.0786 26.0037 95.1249 25.4799C94.4985 24.8832 93.8765 24.2768 93.2674 23.6584C92.3014 18.9853 89.8693 15.7807 87.1808 12.6412C86.7513 12.1317 86.3139 11.6676 85.8702 11.2228L85.7447 11.108C85.3388 10.7132 84.932 10.3313 84.5173 9.97829L84.5092 9.97279C85.5211 11.9559 86.2598 14.1974 86.4644 16.6166C86.8503 21.2484 86.458 26.8015 89.7766 29.6706C92.456 31.9893 95.7354 32.6544 98.132 35.6438C99.9881 37.9569 101.227 40.6019 101.698 43.9801C102.255 47.9825 100.882 51.4718 99.889 55.0941C98.9643 58.458 98.1861 64.0906 101.096 66.2945C102.51 67.3682 104.129 67.6716 105.583 68.6306L105.707 69.6726C102.394 75.1867 99.0394 72.7354 96.4209 68.127C97.2743 71.7113 98.8321 74.7722 101.645 76.2425C105.327 78.1614 109.67 77.2378 113.17 79.8865C115.994 82.022 117.851 85.9744 117.011 90.4125C116.62 92.469 115.315 93.9159 114.114 95.1086C113.274 95.944 112.189 96.8355 111.594 98.0097C110.009 101.155 111.239 105.74 114.272 105.254L114.621 105.74C114.839 105.999 114.8 106.696 114.44 106.967C113.337 107.788 112.181 108.206 111.046 108.27C111.88 110.125 112.439 112.122 112.283 114.462C111.893 120.406 109.212 127.124 104.799 129.019C104.373 129.202 104.246 128.596 104.36 128.166C104.901 126.1 105.17 124.12 105.187 122.18C101.019 128.596 91.95 133.66 94.7376 142.046C94.9334 142.638 94.1724 143.562 93.8566 142.923C92.5909 140.354 91.9223 137.746 91.7058 135.148L91.6223 135.313C91.464 138.379 90.683 141.464 88.6656 143.153C85.9084 145.462 82.4522 145.83 79.7664 148.179L79.5946 148.326C79.2245 148.667 78.8718 149.043 78.539 149.465L78.2035 149.68L77.4739 150.43C77.2362 150.704 76.6984 150.736 76.7396 150.127C76.8479 148.428 77.1993 146.854 77.7184 145.374L77.5416 145.384C75.8518 148.014 73.5661 149.997 71.2473 151.512C70.6118 151.93 70.5249 150.906 70.8641 150.397C72.1788 148.408 70.3172 146.372 68.1901 144.071C66.7263 143.368 65.5057 142.364 64.7062 140.931C64.972 142.543 65.4685 144.094 66.2718 145.568C66.6022 146.174 65.8094 147.261 65.4408 146.587C62.94 141.987 59.0823 140.271 58.5787 134.578C56.5216 138.595 55.606 143.4 56.9444 148.602C57.1044 149.226 56.4306 150.071 56.0647 149.474C52.9967 144.48 50.6955 137.92 51.3888 131.246L51.4406 130.855C49.6253 134.33 48.6858 138.412 49.4153 143.203C49.5009 143.777 48.8934 144.765 48.5339 144.08C43.6679 134.743 47.5852 123.808 53.7394 117.584C56.9829 114.303 60.908 111.64 64.1278 108.206C62.689 108.903 61.1498 109.28 59.4942 109.189C58.901 109.151 59.1364 108.146 59.4692 107.856C65.1039 103.033 68.8852 94.0436 66.4649 84.9089C64.808 78.6438 60.1351 75.71 58.0517 69.8842C55.7606 63.4842 58.6037 55.9801 60.1284 49.9156C61.9967 42.4827 62.6322 33.9168 61.0111 26.2566C61.0003 31.0119 60.5934 35.8319 58.5364 39.7844C58.35 40.1374 57.8427 40.3669 57.7172 39.8023C56.5889 34.5966 56.8466 29.0054 55.3933 23.9238C54.6009 21.1566 53.7749 18.3794 52.6916 15.7899C51.7828 13.6236 50.5368 11.7052 49.6821 9.50133C48.7666 7.13585 48.5735 4.82271 49.118 2.47191C48.5035 2.74275 47.8933 3.02416 47.2801 3.31291L47.0765 3.40977C46.4742 3.69851 45.8718 3.99274 45.264 4.29021C44.9735 4.71345 44.7171 5.03433 44.5585 5.05774C56.6156 27.0724 55.601 59.4551 53.3336 79.7914Z" fill="#E0741A"/>
<path d="M20.9863 49.7416C24.5681 49.5658 28.4667 49.227 29.9014 54.888C30.6705 57.9076 30.6743 61.2628 32.4631 63.6691C34.3974 66.271 36.6935 67.006 39.2275 68.0981C42.8478 69.6547 44.9085 73.6659 44.9549 78.3445C43.9362 79.4003 42.2254 79.8093 41.2926 80.6251C40.072 81.7102 38.9701 82.8987 37.9869 84.2153C37.4163 85.8091 37.139 87.5021 37.6909 89.1175C38.061 90.1971 38.5419 90.8912 39.1284 91.4003C39.5302 92.0512 39.9411 92.6948 40.2594 93.4426C41.6796 96.785 40.4985 101.347 37.304 101.412L37.1244 101.605C36.9526 102.545 38.2287 103.389 38.7756 103.454C39.9557 103.578 41.2412 103.271 42.3232 102.482C42.7365 102.097 43.1302 101.659 43.5107 101.22C44.7844 98.7685 45.4886 96.2704 45.9604 93.0928C46.3091 90.7618 46.5773 88.1691 47.3992 86.001C47.321 84.3764 47.2311 82.7789 47.1323 81.2099C47.0992 80.704 47.062 80.2128 47.0278 79.7125C46.9551 78.6525 46.8787 77.5912 46.7965 76.5638C46.7518 76.013 46.7055 75.4663 46.6591 74.9282C46.5732 73.9385 46.4836 72.9594 46.3896 72C46.3409 71.4996 46.2918 70.9997 46.2418 70.5044C46.1295 69.416 46.0104 68.3565 45.8877 67.3002L45.7754 66.3087C45.609 64.9402 45.4372 63.5989 45.2562 62.292L45.1331 61.4561C44.988 60.4324 44.8385 59.4229 44.684 58.4401L44.4858 57.219C44.3484 56.3657 44.2071 55.5297 44.063 54.7085L43.8489 53.4998C43.6943 52.6607 43.5387 51.8307 43.3801 51.0164L43.187 50.0358C42.7355 47.7814 42.261 45.6335 41.7709 43.5981L41.5805 42.8269C41.3958 42.0759 41.2094 41.3405 41.0204 40.6143L40.7867 39.7283C40.6057 39.0508 40.4221 38.3801 40.2371 37.7328L40.0111 36.9332C39.7957 36.1941 39.5802 35.4642 39.3651 34.7614L39.2356 34.3345C38.9687 33.4724 38.6992 32.6365 38.4296 31.8295L38.3424 31.5715C38.11 30.8737 37.8746 30.1943 37.6409 29.5379L37.419 28.9283C37.2259 28.3903 37.0331 27.867 36.8417 27.3629L36.6053 26.7423C36.4071 26.2332 36.2102 25.7328 36.0158 25.2472L35.8203 24.7647C35.3024 23.4968 34.7897 22.3221 34.2918 21.2392L34.1095 20.8485L33.5613 19.6917L33.3327 19.2185L32.8504 18.2591L32.6231 17.8234L32.1289 16.8961L31.9612 16.5789L31.3456 15.4777L31.1948 15.2215L30.7696 14.504L30.5424 14.1331L30.2369 13.6415L30.011 13.283L29.7536 12.8937L29.5382 12.5673C28.9145 11.6442 28.4576 11.0524 28.2249 10.7724C27.4957 10.9143 26.7374 11.029 25.9247 11.0901C25.4123 11.1314 24.8955 11.1722 24.379 11.2227H24.3553C29.0095 15.0742 32.2903 20.4359 34.9456 27.6838C37.0013 33.2984 38.7942 39.1224 39.9898 45.1869C40.8276 49.4207 42.0445 53.9965 42.0959 58.408C42.1223 60.7175 41.0599 62.5986 39.3557 62.7042C37.1163 62.8424 34.8347 59.4551 33.935 57.0166C32.0325 51.872 34.8215 45.5688 32.5345 40.4637C31.1684 37.4065 29.1736 36.1496 26.9552 35.3265C29.7732 38.0629 32.0221 41.57 30.8106 46.7486C30.7115 47.1668 29.9992 47.9733 29.8696 47.1291C29.2264 42.8467 22.1133 42.68 19.739 42.2729C15.9012 41.6114 10.9757 41.5434 7.61723 38.6005C4.67134 36.0201 5.66198 31.3883 8.04811 28.6932C8.77731 27.872 9.71148 27.3716 10.3957 26.4806C11.9058 24.5209 11.7117 22.5842 11.7262 20.3248C11.7327 19.1124 12.0249 17.8142 12.4791 16.7171C11.5612 18.209 10.9784 19.9713 10.3074 21.8993L10.2665 22.0191L10.0879 22.5287L9.85285 23.1814L9.73109 23.511L9.33741 24.5352C7.47856 29.1523 1.36559 31.2827 0.636391 36.5439C-0.355942 43.6863 4.73188 47.1255 10.4275 48.6619C14.2125 49.6805 18.2674 49.8651 20.9863 49.7416Z" fill="#E0741A"/>
<path d="M29.5382 12.5671L29.5091 12.5207C35.0143 17.5382 37.88 29.3963 40.3439 36.7498C42.1713 42.1942 43.9548 47.6757 45.1412 53.4459C45.819 56.724 46.4332 61.8093 48.6157 63.9719L49.3767 63.5165C52.7312 53.708 45.9604 17.1434 43.7434 10.5982C43.0524 8.55961 42.2755 6.58156 41.4672 4.62555C41.944 4.60764 42.3601 4.62188 42.7287 4.65768C40.2898 4.44239 35.4043 5.02906 28.0507 10.5606L28.2249 10.7722C28.4576 11.0522 28.9145 11.644 29.5382 12.5671Z" fill="#DE2225"/>
<path d="M40.0111 36.9329C39.7957 36.1938 39.5802 35.4694 39.3651 34.7611C39.5802 35.4639 39.7957 36.1938 40.0111 36.9329Z" fill="#DE2225"/>
<path d="M41.4672 4.62577C42.2755 6.58178 43.0524 8.55983 43.7434 10.5985C45.9604 17.1436 52.7312 53.7083 49.3767 63.5168L48.6157 63.9721C46.4332 61.8096 45.819 56.7242 45.1412 53.4461C43.9548 47.6759 42.1713 42.1944 40.3439 36.7501C37.88 29.3965 35.0143 17.5384 29.5091 12.521L29.5382 12.5673L29.7536 12.8937L30.011 13.283L30.237 13.6415L30.5424 14.1331L30.7696 14.5041L31.1948 15.2215L31.3456 15.4777L31.9612 16.579L32.129 16.8962L32.6231 17.8234L32.8504 18.2591L33.3327 19.2185L33.5613 19.6918L34.1096 20.8486L34.2919 21.2392C34.7897 22.3221 35.3025 23.4968 35.8203 24.7647L36.0158 25.2472C36.2102 25.7329 36.4071 26.2332 36.6053 26.7423L36.8417 27.3629C37.0331 27.867 37.2259 28.3903 37.419 28.9283L37.6409 29.5379C37.8746 30.1944 38.11 30.8738 38.3424 31.5715L38.4296 31.8295C38.6992 32.6365 38.9687 33.4724 39.2356 34.3345L39.3651 34.7615C39.5802 35.4698 39.7957 36.1941 40.0111 36.9332L40.2371 37.7329C40.4221 38.3801 40.6057 39.0508 40.7867 39.7284L41.0204 40.6143C41.2094 41.3405 41.3958 42.0759 41.5805 42.827L41.7709 43.5982C42.261 45.6336 42.7355 47.7815 43.187 50.0359L43.3801 51.0164C43.5388 51.8307 43.6943 52.6607 43.8489 53.4999L44.063 54.7085C44.2071 55.5298 44.3485 56.3657 44.4858 57.2191L44.684 58.4401C44.8385 59.423 44.988 60.4324 45.1331 61.4561L45.2562 62.292C45.4372 63.5989 45.609 64.9403 45.7754 66.3087L45.8877 67.3002C46.0105 68.3565 46.1295 69.416 46.2418 70.5044C46.2919 70.9997 46.3409 71.4996 46.3896 72C46.4836 72.9594 46.5733 73.9386 46.6592 74.9283C46.7055 75.4663 46.7518 76.013 46.7965 76.5639C46.8787 77.5912 46.9551 78.6525 47.0278 79.7125C47.062 80.2128 47.0992 80.704 47.1323 81.2099C47.2311 82.7789 47.3211 84.3764 47.3992 86.001V91.3535C48.1866 87.3226 49.5367 83.3436 51.5119 81.1902C52.0747 80.5805 52.6957 80.1215 53.3336 79.7914C55.601 59.4551 56.6156 27.0724 44.5585 5.05774L44.5071 5.04351L44.4212 5.0077L44.3525 4.97879L44.1834 4.91957L44.0894 4.89294L43.8384 4.83189L43.7248 4.79975L43.3893 4.73686L43.2584 4.71712L42.8332 4.66708L42.7287 4.65791C42.3601 4.6221 41.9441 4.60787 41.4672 4.62577Z" fill="#C12025"/>
<path d="M56.1465 92.2986C56.0315 93.231 55.8438 94.1169 55.6311 94.834C54.7432 97.827 52.7312 100.355 50.2209 100.384C49.2049 100.393 48.4057 99.9427 48.7253 98.3273C48.8535 97.6801 49.3531 96.7799 49.7268 96.353C50.385 95.6088 50.4959 93.5844 50.5301 92.5424C50.6278 89.7289 50.5909 86.0335 53.4617 86.0009C56.1239 85.9743 56.5033 89.3667 56.1465 92.2986ZM54.5755 101.756C58.3159 97.6296 59.8683 96.9626 60.702 91.8414C61.8181 84.9593 59.8497 81.7313 58.0953 80.2591C57.3922 79.6656 56.6207 79.341 55.8306 79.2534C54.9969 79.1657 54.149 79.3736 53.3336 79.7914C52.6957 80.1214 52.0747 80.5805 51.5119 81.1901C49.5367 83.3435 48.1865 87.3225 47.3992 91.3534C46.975 93.5307 46.7106 95.7144 46.6064 97.6332C46.461 100.305 46.2641 103.986 47.3674 106.155C47.6261 106.658 47.9197 106.967 48.2339 107.131C50.1628 108.159 52.9757 103.527 54.5755 101.756Z" fill="#F0CDA9"/>
<path d="M53.4617 86.0008C50.5909 86.0334 50.6278 89.7288 50.5301 92.5423C50.4959 93.5843 50.385 95.6087 49.7268 96.3529C49.3531 96.7798 48.8535 97.68 48.7253 98.3272C48.4057 99.9426 49.2049 100.393 50.2209 100.384C52.7312 100.355 54.7433 97.8269 55.6311 94.8339C55.8438 94.1168 56.0315 93.2309 56.1465 92.2985C56.5034 89.3666 56.1239 85.9742 53.4617 86.0008Z" fill="#E3BA8E"/>
</svg>
