<svg width="112" height="210" viewBox="0 0 112 210" fill="none" xmlns="http://www.w3.org/2000/svg">
<path d="M57.6714 128.671C57.2659 129.029 56.8708 129.415 56.4863 129.822L56.6145 130.351C56.8468 129.773 57.1945 129.221 57.6714 128.671Z" fill="#E3BA8E"/>
<path d="M54.9115 141.689L55.1293 141.645C56.193 141.421 57.2036 141.335 58.1561 141.412L58.3411 141.433L59.1457 141.546C58.3965 137.978 57.5578 134.207 56.6618 130.545L56.6158 130.568L56.625 130.551L56.654 130.509L56.6145 130.351L56.4863 129.823C55.5985 130.773 54.758 131.818 53.9537 132.876C53.3723 133.14 52.8014 133.454 52.2504 133.848L52.2454 133.791C52.5082 131.633 53.6628 129.625 54.5665 127.635L53.7356 128.653C53.2905 129.218 52.5663 128.976 52.5981 128.07C52.6455 126.663 52.8146 125.252 53.0459 123.851C52.6113 125.479 52.3059 127.156 51.9572 129.057L51.8358 129.365C51.2503 128.236 50.6929 126.998 50.3507 125.68C50.3111 123.382 50.5688 120.916 51.0403 118.705C50.7802 119.135 50.5171 119.557 50.261 119.935C49.797 120.62 49.3201 121.561 48.7813 122.386C48.0927 123.161 47.0625 123.493 46.1757 123.556C46.3752 122.183 46.7966 120.853 47.2472 119.526C46.9343 119.736 46.4825 119.61 46.5748 119.033C46.8799 117.034 47.2658 115.079 47.6554 113.133C46.8853 113.689 46.1415 113.928 45.4847 113.594C44.2891 117.109 42.7976 120.426 40.7869 123.39C36.0968 130.303 29.8289 136.481 23.0659 139.484C25.4743 139.332 30.8567 135.964 32.1663 139.463C32.811 141.173 34.6752 147.41 36.7056 154.398C41.606 148.229 45.7729 145.814 45.7729 145.814C49.1919 143.743 52.2281 142.29 54.9115 141.689Z" fill="#E3BA8E"/>
<path d="M7.69284 115.298C7.99825 115.119 8.33376 114.975 8.66522 114.864C8.33241 114.975 7.99825 115.119 7.69284 115.298Z" fill="#F0CDA9"/>
<path d="M40.7869 123.39C42.7976 120.426 44.2891 117.109 45.4847 113.594C45.1215 113.406 44.7819 113.067 44.4836 112.482C43.3431 110.241 43.4358 106.579 43.5849 103.665C42.7225 100.698 42.5388 97.2548 42.6389 93.9496C37.6834 88.3639 32.4041 83.2538 27.599 77.4528C26.0571 75.5932 24.5351 73.7106 23.0263 71.8042C21.8862 70.366 20.4856 69.3207 19.3655 67.8559C17.2979 65.1424 15.0095 63.1217 13.1571 60.2168C12.3711 59.2932 11.6141 58.3251 10.9336 57.2615C10.5917 56.7327 10.1967 56.1373 9.7871 55.5097C9.66027 57.0554 9.58484 58.6028 9.58754 60.1397C9.59938 64.8431 10.7845 69.3047 10.9854 73.9759C11.1636 78.229 9.28484 82.0699 7.00322 85.3604L6.42316 86.2752C5.25935 88.077 3.89329 89.5836 2.68315 91.323C1.80581 92.5872 0.667019 94.3407 0.602081 96.2233L0.68934 95.4291C3.06093 98.603 6.70321 99.3563 10.014 99.5859C8.96657 101.182 7.75642 102.482 6.45495 103.62L6.45225 103.606L6.47491 103.759C6.47491 103.759 6.4641 104.816 5.86579 106.472C5.50627 107.458 4.80479 109.493 4.83659 110.847C6.99002 112.748 9.4066 113.594 11.9273 113.994L11.2719 114.209C9.78573 114.652 8.50558 114.822 7.17232 115.67L7.59374 115.356C7.0005 115.728 6.55406 116.253 6.56996 117.001C6.64538 120.228 8.30874 118.575 8.53061 123.524C8.55022 123.932 7.89103 127.581 7.70467 130.907C7.54774 133.71 9.08158 137.44 10.5718 139.205C12.667 141.689 15.8182 141.594 18.8027 140.936C20.2401 140.608 21.663 140.111 23.0659 139.484C29.8289 136.48 36.0968 130.303 40.7869 123.39Z" fill="#F0CDA9"/>
<path d="M11.2719 114.209L11.9273 113.994C9.4066 113.594 6.99002 112.748 4.83658 110.847L4.85518 111.197C5.19441 113.612 8.88843 114.523 10.4422 114.406L10.3803 114.437L10.338 114.451L10.1304 114.496L9.804 114.563L9.70489 114.58L9.2571 114.688H9.25574L8.78798 114.822L8.66522 114.864C8.33376 114.975 7.99825 115.118 7.69284 115.297L7.59373 115.357L7.17232 115.671C8.50558 114.822 9.78572 114.652 11.2719 114.209Z" fill="#D9B288"/>
<path d="M10.014 99.586C6.7032 99.3565 3.06092 98.6032 0.689332 95.4293L0.602073 96.2235L0.597015 96.6219L0.622035 96.9139L0.766125 97.6764L1.04481 98.4058C1.74492 99.3386 2.64729 100.074 3.42283 100.578C4.29239 101.137 6.33995 102.034 6.45224 103.606L6.45494 103.621C7.75641 102.482 8.96656 101.182 10.014 99.586Z" fill="#D9B288"/>
<path d="M58.8301 114.191C57.135 111.523 55.2244 109.138 53.2546 106.812L52.5927 107.533C51.3416 108.919 49.4324 111.851 47.6554 113.133C47.2658 115.079 46.8812 117.034 46.5748 119.033C46.4825 119.61 46.9343 119.736 47.2472 119.526C46.7966 120.853 46.3752 122.183 46.1757 123.555C47.0625 123.492 48.0927 123.161 48.7813 122.386C49.3201 121.561 49.797 120.62 50.261 119.935C50.5171 119.557 50.7802 119.135 51.0403 118.705C50.5688 120.916 50.3111 123.381 50.3507 125.68C50.6929 127 51.2503 128.235 51.8358 129.365L51.9572 129.057C52.3059 127.156 52.6113 125.479 53.0459 123.851C52.8146 125.25 52.6455 126.663 52.5981 128.07C52.5663 128.976 53.2905 129.218 53.7355 128.653L54.5665 127.634C53.6628 129.625 52.5082 131.633 52.244 133.79L52.2518 133.848C52.8014 133.453 53.3723 133.139 53.9537 132.876C54.758 131.818 55.5985 130.772 56.4863 129.822C56.8708 129.415 57.2645 129.029 57.6714 128.671C57.9633 128.411 58.2579 128.146 58.5643 127.921C57.9433 128.818 57.3159 129.715 56.654 130.509L56.625 130.55L56.6158 130.568L56.6618 130.545C58.0028 129.98 59.3375 129.392 60.6612 128.764L61.4216 128.259C62.8049 127.46 64.1713 126.6 65.5309 125.739C65.2164 125.264 64.9188 124.798 64.6482 124.403C62.4836 121.224 60.8473 117.517 58.8301 114.191Z" fill="#663817"/>
<path d="M44.4714 96.0749C44.0764 95.5998 43.6854 95.1155 43.2812 94.6551L42.6389 93.95C42.5388 97.2551 42.7225 100.698 43.5849 103.665L43.6245 102.898C43.7381 100.814 44.0209 98.4422 44.4714 96.0749Z" fill="#663817"/>
<path d="M52.5927 107.533L53.2546 106.812C52.5609 105.991 51.8635 105.175 51.1607 104.359C50.167 105.342 48.9927 105.973 47.6912 105.987C46.5511 106 45.6501 105.494 46.0079 103.68C46.152 102.943 46.7134 101.939 47.1376 101.454C47.4007 101.158 47.5843 100.676 47.7149 100.127C46.6421 98.7611 45.5682 97.4018 44.4714 96.0747C44.0209 98.442 43.7381 100.814 43.6245 102.898L43.5849 103.665C43.4357 106.579 43.3431 110.241 44.4836 112.482C44.7819 113.067 45.1214 113.406 45.4847 113.594C46.1415 113.928 46.8853 113.689 47.6554 113.133C49.4324 111.851 51.3416 108.919 52.5927 107.533Z" fill="#F0CDA9"/>
<path d="M46.0079 103.68C45.6501 105.495 46.5511 106 47.6913 105.988C48.9927 105.973 50.167 105.342 51.1607 104.359L50.8434 103.988C49.7706 102.742 48.7414 101.438 47.7149 100.127C47.5844 100.676 47.4007 101.158 47.1376 101.454C46.7135 101.939 46.152 102.943 46.0079 103.68Z" fill="#E3BA8E"/>
<path d="M55.0553 1.39417C55.4939 1.32072 55.9353 1.27481 56.3753 1.22432C55.9353 1.27481 55.4966 1.32072 55.0553 1.39417Z" fill="#811963"/>
<path d="M15.6028 30.6159L15.3214 31.0515L15.4692 30.8275L15.6028 30.6159Z" fill="#811963"/>
<path d="M61.7057 1.03171C62.0236 1.05007 62.3415 1.04089 62.6561 1.06384C62.0101 1.02253 61.3607 0.99956 60.714 0.990379C60.8554 0.990379 60.9981 0.990379 61.1409 0.990379C61.3303 0.990379 61.5163 0.985789 61.7057 0.990379V1.03171Z" fill="#811963"/>
<path d="M21.3734 32.2743C23.6118 35.8695 25.8816 39.4377 28.2423 42.904C35.884 52.2195 44.1413 60.6834 52.0986 69.5596C56.5641 73.9114 60.9968 78.3137 65.169 83.1282C69.8906 88.5707 72.9853 95.8026 78.4712 100.259L79.2288 99.8403L79.31 99.4961C74.1454 89.3772 67.9695 80.2949 61.1514 71.8728C53.305 62.1753 44.5837 53.8243 36.3132 44.742C30.8317 38.7262 24.086 30.5905 22.4158 21.1441C22.7108 20.6511 23.0145 20.1668 23.3355 19.7004C24.9275 18.0722 26.5553 16.6165 28.2251 15.266C26.5644 16.6018 24.9461 18.0455 23.3618 19.6559C22.864 20.3821 22.383 21.1299 21.9576 21.9296C21.0961 23.5326 20.0774 24.8863 19.0259 26.1955L19.1964 25.9857C19.701 28.1731 20.4515 30.2622 21.3734 32.2743Z" fill="#811963"/>
<path d="M72.5625 3.05455C72.9684 3.1941 73.3776 3.3199 73.7801 3.46863C73.3776 3.31439 72.9684 3.1941 72.5625 3.05455Z" fill="#811963"/>
<path d="M66.319 1.48144C66.9447 1.58243 67.5738 1.6972 68.1995 1.83032C67.5738 1.6972 66.9447 1.59161 66.319 1.48144Z" fill="#811963"/>
<path d="M59.2106 63.0681C66.4915 72.1201 73.0394 82.2045 78.4542 93.1482C78.9142 94.081 79.3641 95.0257 79.8071 95.9814C79.8443 94.798 79.7699 93.6091 79.5873 92.4399C78.8635 90.9641 78.1228 89.4992 77.3483 88.0647C73.364 78.9553 68.284 71.2304 62.6155 63.5345C56.3158 54.9897 50.5302 46.1172 45.9393 35.9502C42.1279 27.5133 38.0375 17.9252 37.7534 7.98214C39.6109 6.81661 41.5083 5.8035 43.4554 4.92488C43.6485 12.345 45.712 19.5066 48.2527 26.2904C52.0353 36.3716 56.7318 46.1943 61.7835 55.334C65.0608 61.2571 68.5647 66.9806 71.8319 72.9037C72.6301 73.9255 73.4182 74.9533 74.1859 75.9876C76.1916 78.6813 78.5557 82.4881 81.3663 84.5984C78.2209 72.8711 74.0236 61.5835 69.3562 50.6053C65.1116 40.6178 60.0667 31.1641 56.4809 20.7492C55.6248 18.2694 52.5082 8.35352 52.6708 1.83961L52.3867 1.89469C45.7069 3.46326 39.7154 6.22856 34.0025 10.5551C32.4741 11.4879 30.5821 12.6658 29.3706 14.3244L29.1937 14.4699C33.507 34.9963 47.5458 48.5561 59.2106 63.0681Z" fill="#811963"/>
<path d="M89.9469 82.318C89.7845 74.1859 89.054 66.0575 88.0664 58.1908C86.7879 47.9825 85.1036 37.7489 82.7462 27.8417C78.0179 16.6253 71.1622 7.26845 61.8342 3.30226C62.9706 20.8246 69.9785 37.462 75.5794 53.2092C79.0867 63.0769 82.8139 72.8354 84.921 83.3669C85.107 84.2901 85.266 85.2229 85.4182 86.1639L85.5467 86.1731C87.6944 86.141 89.0743 84.6041 89.9469 82.318Z" fill="#811963"/>
<path d="M60.4377 60.3728C64.5163 64.0631 68.3145 68.397 71.8319 72.9035C68.5647 66.9804 65.0608 61.2569 61.7835 55.3338C56.7318 46.1941 52.0353 36.3714 48.2527 26.2902C45.712 19.5064 43.6485 12.3448 43.4554 4.92469C41.5083 5.80331 39.6109 6.81642 37.7534 7.98194C38.0375 17.925 42.1279 27.5131 45.9393 35.95C50.5302 46.117 56.3158 54.9895 62.6155 63.5343C68.284 71.2302 73.3641 78.9551 77.3483 88.0645C78.1228 89.499 78.8635 90.9639 79.5873 92.4397C78.7147 86.9169 75.6572 81.6539 73.0597 77.4848C69.2344 71.3432 64.5873 66.1343 60.4377 60.3728Z" fill="#2EA040"/>
<path d="M61.7057 1.03186V0.990534C61.5163 0.985943 61.3303 0.990534 61.1409 0.990534C60.9981 0.990534 60.8554 0.990534 60.714 0.990534H60.2131C60.7113 0.981353 61.2095 1.01809 61.7057 1.03186Z" fill="#2EA040"/>
<path d="M56.4809 20.7493C60.0667 31.1642 65.1116 40.6179 69.3562 50.6054C74.0236 61.5836 78.2209 72.8711 81.3663 84.5984C82.6279 85.5455 83.974 86.1459 85.4182 86.1638C85.266 85.2228 85.107 84.29 84.921 83.3668C82.8139 72.8353 79.0867 63.0768 75.5794 53.2091C69.9785 37.4619 62.9706 20.8246 61.8342 3.30217C60.4035 2.69347 58.9184 2.19311 57.3673 1.85341C56.4386 1.64684 55.5098 1.54584 54.5797 1.47699C56.4295 1.16942 58.2829 1.00876 60.1286 0.990396C59.7826 0.990396 59.4352 0.990414 59.0902 1.00878C58.6475 1.02255 58.2065 1.05467 57.7637 1.08681C57.3014 1.12353 56.8391 1.17402 56.3754 1.22452C55.9353 1.27501 55.494 1.32091 55.0553 1.39436C54.2615 1.51371 53.4646 1.66062 52.6708 1.83965C52.5082 8.35357 55.6249 18.2695 56.4809 20.7493Z" fill="#2EA040"/>
<path d="M89.9469 82.3179C92.054 76.7946 91.1984 66.8823 90.9041 63.086C90.0315 51.8159 87.4238 38.9267 82.7463 27.8416C85.1037 37.7488 86.788 47.9823 88.0664 58.1907C89.054 66.0574 89.7846 74.1858 89.9469 82.3179Z" fill="#2EA040"/>
<path d="M22.4158 21.1442C24.086 30.5905 30.8317 38.7262 36.3132 44.7421C44.5837 53.8244 53.305 62.1754 61.1513 71.8728C67.9695 80.295 74.1454 89.3773 79.3099 99.4961C79.611 98.3255 79.7665 97.1508 79.8071 95.9816C79.3641 95.0259 78.9142 94.0811 78.4542 93.1484C73.0394 82.2046 66.4915 72.1202 59.2106 63.0682C47.5458 48.5563 33.507 34.9964 29.1937 14.47L29.1924 14.4645C28.8633 14.7156 28.5487 15.0025 28.2251 15.266C26.5553 16.6166 24.9274 18.0722 23.3354 19.7004C23.0145 20.1668 22.7108 20.6511 22.4158 21.1442Z" fill="#2EA040"/>
<path d="M15.3214 31.0516L14.6344 32.1758C14.8972 31.7062 15.1827 31.2669 15.4692 30.8275L15.3214 31.0516Z" fill="#2C9A40"/>
<path d="M28.2423 42.9042C29.4129 44.6201 30.5994 46.3149 31.8241 47.9698C36.5933 54.402 42.0761 59.7867 47.583 65.1612C49.0877 66.6316 50.5938 68.0927 52.0986 69.5598C44.1413 60.6836 35.884 52.2197 28.2423 42.9042Z" fill="#2EA040"/>
<path d="M19.5809 64.1978C32.6855 78.1754 45.6565 92.5152 58.3793 107.04C61.2558 110.327 66.5523 114.084 69.7181 109.156C72.8398 104.293 71.2299 99.6575 67.9695 95.5872C66.0822 93.2327 64.0055 91.1706 61.9695 89.0365C58.9857 85.8984 56.3513 82.165 53.5782 78.7405C47.6912 71.4728 41.7406 64.2749 35.6395 57.2886C31.8741 52.9814 28.2609 48.4483 25.1297 43.3827C23.5272 40.7918 22.1175 37.9943 21.0961 34.9637C20.6006 33.4934 20.4278 31.9959 20.2573 30.4829C20.627 31.0815 21.0024 31.6733 21.3734 32.2741C20.4514 30.2621 19.7009 28.173 19.1963 25.9856L19.0258 26.1954C18.6031 26.7206 18.1776 27.2443 17.7535 27.7644L17.1497 28.5228L16.6505 29.1632L15.9819 30.0776L15.6027 30.6156L15.4705 30.8272C15.1827 31.2665 14.8972 31.7058 14.6344 32.1754C12.1255 36.6764 9.35483 42.0611 8.61379 47.5986C8.46565 48.6907 8.45381 49.7038 8.51198 50.6811C11.7619 56.0749 16.381 60.7907 19.5809 64.1978Z" fill="#2EA040"/>
<path d="M9.53714 55.1336L9.78709 55.51C10.1967 56.1375 10.5917 56.7329 10.9336 57.2617C10.5241 56.6255 10.0421 55.8993 9.53714 55.1336Z" fill="#2EA040"/>
<path d="M8.51879 50.8657L8.5029 50.6683L8.51202 50.6812L8.51879 50.8657Z" fill="#9DDCAB"/>
<path d="M9.53713 55.1335L9.29157 54.7566C9.13971 54.3123 9.01525 53.8551 8.90567 53.3905C9.01796 53.8514 9.14072 54.3123 9.29529 54.7603L9.53713 55.1335Z" fill="#9DDCAB"/>
<path d="M76.5738 4.62012C75.7824 4.26114 74.9842 3.93336 74.1826 3.62855L74.186 3.6336L73.7801 3.46882C74.717 3.81678 75.6505 4.19871 76.5738 4.62012Z" fill="#9DDCAB"/>
<path d="M94.3539 31.4548C95.3956 40.2323 95.1724 49.3991 94.7463 58.2266C94.3032 67.3626 93.4137 76.5565 92.0202 85.5456C91.3708 89.7541 90.3629 93.8332 89.6155 98.0115C89.4802 98.7432 89.3517 99.4782 89.2232 100.208C89.8861 94.3139 90.0653 88.3159 89.9469 82.318C89.0743 84.6041 87.6944 86.141 85.5467 86.1731L85.4182 86.1639C86.6696 93.8658 86.8725 101.983 86.4971 109.897C86.2806 108.807 86.0642 107.718 85.8241 106.637C84.8263 99.1109 83.2908 91.7712 81.3663 84.5985C78.5557 82.4883 76.1916 78.6814 74.1859 75.9877C73.4182 74.9534 72.6301 73.9257 71.8319 72.9038C74.0033 76.8434 76.0766 80.8651 77.8928 85.0971C80.0777 90.1755 81.8973 95.5065 83.3787 100.985C82.2322 98.0707 80.9537 95.2251 79.5873 92.44C79.77 93.6092 79.8443 94.7981 79.8071 95.9816C82.2355 101.209 84.3663 106.75 85.9154 112.509L85.3404 113.029C83.903 109.009 82.1239 105.175 80.4159 101.675C80.0574 100.934 79.6786 100.222 79.31 99.4961L79.2288 99.8403L78.4712 100.259C72.9853 95.8026 69.8906 88.5707 65.169 83.1282C60.9968 78.3137 56.5641 73.9114 52.0986 69.5596C53.1609 70.743 54.2206 71.9352 55.268 73.137C62.6595 81.606 69.9853 90.0016 76.1916 99.9212C79.4081 105.073 82.2051 110.569 84.5693 116.346C84.2277 117.491 83.6865 118.522 82.9932 119.463C84.2513 117.754 85.0191 115.737 84.9954 113.33C86.1082 112.411 87.1837 111.415 88.2423 110.393L88.5974 110.564C95.9706 102.67 99.7756 89.2395 102.715 78.1255C105.654 66.9899 107.73 55.1749 107.984 43.3562C108.326 44.3922 108.644 45.4449 108.945 46.5085C107.277 40.5854 104.906 35.1162 102.59 29.5057C100.121 23.5165 96.2344 18.0419 91.841 14.2405C90.9616 13.4785 90.0213 12.8326 89.0676 12.2143C89.3753 12.4149 89.6798 12.6265 89.9808 12.8363C91.8038 18.9063 93.5895 24.9905 94.3539 31.4548Z" fill="#811963"/>
<path d="M82.9932 119.463C83.6865 118.522 84.2277 117.491 84.5693 116.346C82.2051 110.569 79.4081 105.073 76.1916 99.9212C69.9853 90.0016 62.6595 81.606 55.268 73.137C54.2206 71.9352 53.1609 70.743 52.0986 69.5596C56.5641 73.9114 60.9968 78.3137 65.169 83.1282C69.8906 88.5707 72.9853 95.8026 78.4712 100.259L79.2288 99.8403L79.31 99.4961C79.6786 100.222 80.0574 100.934 80.4159 101.675C82.1239 105.175 83.903 109.009 85.3404 113.029L85.9154 112.509C84.3663 106.75 82.2355 101.209 79.8071 95.9816C79.8139 95.7773 79.8173 95.5744 79.8173 95.3701C79.8173 94.3891 79.7395 93.4086 79.5873 92.44C80.9537 95.2251 82.2322 98.0707 83.3787 100.985C81.8973 95.5065 80.0777 90.1755 77.8928 85.0971C76.0766 80.8651 74.0033 76.8434 71.832 72.9038C72.6301 73.9257 73.4182 74.9534 74.1859 75.9877C76.1916 78.6814 78.5557 82.4883 81.3663 84.5985C83.2908 91.7712 84.8263 99.1109 85.8241 106.637C86.0642 107.718 86.2806 108.807 86.4971 109.897C86.6053 107.578 86.6662 105.243 86.6662 102.905C86.6628 97.2637 86.3043 91.6101 85.4182 86.1639L85.5467 86.1731C87.6944 86.141 89.0743 84.6041 89.9469 82.318C89.9706 83.4422 89.9808 84.5664 89.9808 85.6906C89.9808 90.5611 89.7609 95.4188 89.2232 100.208C89.3517 99.4782 89.4802 98.7432 89.6155 98.0115C90.3629 93.8332 91.3708 89.7541 92.0202 85.5456C93.4137 76.5565 94.3032 67.3626 94.7463 58.2266C94.9458 54.0539 95.1048 49.8058 95.1014 45.5596C95.1014 40.8204 94.9052 36.083 94.3539 31.4548C93.5895 24.9905 91.8038 18.9063 89.9808 12.8363C89.6798 12.6265 89.3753 12.4149 89.0676 12.2143C90.0213 12.8326 90.9616 13.4785 91.841 14.2405C96.2344 18.0419 100.121 23.5165 102.59 29.5057C104.497 34.1265 106.442 38.6509 108.001 43.4117C107.994 43.3938 107.988 43.3755 107.984 43.3562C107.73 55.1749 105.654 66.9899 102.715 78.1255C99.7756 89.2395 95.9706 102.67 88.5974 110.564L88.2423 110.393C87.1837 111.415 86.1082 112.411 84.9954 113.33C84.9954 113.368 84.9954 113.406 84.9954 113.443C84.9954 115.8 84.231 117.781 82.9932 119.463Z" fill="#4B1A42"/>
<path d="M108.945 46.5083C108.769 45.8858 108.586 45.2656 108.397 44.6524C108.586 45.2656 108.769 45.884 108.945 46.5083Z" fill="#4B1A42"/>
<path d="M80.4971 122.036L80.7812 121.794L80.6865 121.869L80.4971 122.036Z" fill="#811963"/>
<path d="M80.4971 122.036L80.6865 121.869L80.7812 121.794L80.4971 122.036Z" fill="#4B1A42"/>
<path d="M80.788 121.789L81.346 121.296L80.7846 121.785L80.788 121.789Z" fill="#811963"/>
<path d="M80.788 121.789L80.7846 121.785L81.346 121.296L80.788 121.789Z" fill="#4B1A42"/>
<path d="M111.295 66.5195C110.034 72.9035 108.356 79.1383 106.279 85.1634C102.935 94.8553 97.7834 106.113 89.9672 111.134C89.5072 110.972 89.0506 110.788 88.6008 110.564C91.3708 111.941 94.2761 112.231 97.3607 110.465C99.6436 109.152 100.963 106.69 102.417 104.234C104.152 101.302 105.904 98.2679 107.203 94.9898C109.929 88.0949 111.316 80.8327 111.691 73.1634C111.887 69.1233 111.813 65.035 111.475 60.9825C111.566 62.0764 111.64 63.1703 111.691 64.2693C111.569 65.0226 111.444 65.7754 111.295 66.5195Z" fill="#811963"/>
<path d="M92.9976 111.695C91.4892 111.695 90.0281 111.274 88.6008 110.564C89.0506 110.788 89.5072 110.972 89.9672 111.134C97.7834 106.113 102.935 94.8555 106.279 85.1636C108.356 79.1386 110.034 72.9038 111.295 66.5198C111.444 65.7757 111.569 65.0228 111.691 64.2714C111.762 65.7472 111.799 67.2231 111.799 68.6989C111.799 70.1908 111.762 71.6809 111.691 73.1636C111.316 80.833 109.929 88.0951 107.203 94.99C105.904 98.2681 104.152 101.302 102.417 104.234C100.963 106.69 99.6436 109.153 97.3607 110.465C95.8657 111.322 94.4114 111.695 92.9976 111.695Z" fill="#4B1A42"/>
<path d="M61.8342 3.30201C71.1623 7.2682 78.018 16.625 82.7463 27.8414L82.5332 26.9265C81.3461 22.0312 79.8342 17.3012 78.0924 12.6836C76.9154 9.56896 75.4103 6.68198 74.1859 3.63344L73.7801 3.46866C73.3776 3.31993 72.9684 3.19413 72.5625 3.05458C72.0383 2.88152 71.514 2.6979 70.9864 2.54182C70.4486 2.38115 69.9109 2.25263 69.3731 2.1195C68.9808 2.01851 68.5918 1.91752 68.1995 1.8303C67.5738 1.69718 66.9447 1.58241 66.319 1.48142L65.4227 1.34371C64.726 1.24272 64.0292 1.17386 63.3291 1.11419L62.6561 1.0637C62.3415 1.04074 62.0236 1.04992 61.7057 1.03156C61.7327 1.78899 61.7835 2.54642 61.8342 3.30201Z" fill="#811963"/>
<path d="M82.7463 27.8414C78.018 16.625 71.1623 7.2682 61.8342 3.30201C61.7835 2.54642 61.7327 1.78899 61.7057 1.03156C62.0236 1.04992 62.3415 1.04074 62.6561 1.0637L63.3291 1.11419C64.0292 1.17386 64.726 1.24272 65.4227 1.34371L66.319 1.48142C66.9447 1.58241 67.5738 1.69718 68.1995 1.8303C68.5918 1.91752 68.9808 2.01851 69.3731 2.1195C69.9109 2.25263 70.4486 2.38115 70.9864 2.54182C71.514 2.6979 72.0383 2.88152 72.5625 3.05458C72.9684 3.19413 73.3776 3.31993 73.7801 3.46866L74.1859 3.63344C75.4103 6.68198 76.9154 9.56896 78.0924 12.6836C79.8342 17.3012 81.3461 22.0312 82.5332 26.9265L82.7463 27.8414Z" fill="#4B1A42"/>
<path d="M109.1 47.0549C109.411 48.1759 109.696 49.3143 109.942 50.4744C109.696 49.3143 109.408 48.1791 109.1 47.0549Z" fill="#811963"/>
<path d="M79.6042 122.712L79.6209 122.7L79.6109 122.709L79.6042 122.712Z" fill="#811963"/>
<path d="M79.6921 122.651L80.4971 122.036L79.8646 122.515L79.6921 122.651Z" fill="#811963"/>
<path d="M79.6921 122.651L79.8646 122.515L80.4971 122.036L79.6921 122.651Z" fill="#4B1A42"/>
<path d="M28.0178 42.6351L28.2423 42.9041C25.8816 39.4378 23.6118 35.8696 21.3734 32.2743C23.0754 35.9825 25.3888 39.4199 28.0178 42.6351Z" fill="#811963"/>
<path d="M28.2423 42.9041L28.0178 42.6351C25.3888 39.4199 23.0754 35.9825 21.3734 32.2743C23.6118 35.8696 25.8816 39.4378 28.2423 42.9041Z" fill="#4B1A42"/>
<path d="M77.8928 85.0971C76.0766 80.8652 74.0033 76.8435 71.8319 72.9039C68.3144 68.3974 64.5162 64.0635 60.4377 60.3732C64.5873 66.1348 69.2344 71.3436 73.0596 77.4852C75.6572 81.6543 78.7147 86.9173 79.5873 92.4401C80.9537 95.2252 82.2321 98.0708 83.3787 100.985C81.8973 95.5066 80.0777 90.1756 77.8928 85.0971Z" fill="#2EA040"/>
<path d="M83.3787 100.985C82.2321 98.0708 80.9537 95.2252 79.5873 92.4401C78.7147 86.9173 75.6572 81.6543 73.0596 77.4852C69.2344 71.3436 64.5873 66.1348 60.4377 60.3732C64.5162 64.0635 68.3144 68.3974 71.8319 72.9039C74.0033 76.8435 76.0766 80.8652 77.8928 85.0971C80.0777 90.1756 81.8973 95.5066 83.3787 100.985Z" fill="#27833B"/>
<path d="M54.5797 1.47706C55.5098 1.54592 56.4386 1.64691 57.3673 1.85348C58.9184 2.19318 60.4035 2.69355 61.8342 3.30225C61.7835 2.54665 61.7327 1.78923 61.7057 1.03179C61.2095 1.01802 60.7113 0.981287 60.2131 0.990468H60.1286C58.2829 1.00883 56.4295 1.1695 54.5797 1.47706Z" fill="#2EA040"/>
<path d="M61.8342 3.30225C60.4035 2.69355 58.9184 2.19318 57.3673 1.85348C56.4386 1.64691 55.5098 1.54592 54.5797 1.47706C56.4295 1.1695 58.2829 1.00883 60.1286 0.990468H60.2131C60.2449 0.990468 60.2781 0.990468 60.3098 0.990468C60.7759 0.990468 61.2423 1.01802 61.7057 1.03179C61.7327 1.78923 61.7835 2.54665 61.8342 3.30225Z" fill="#27833B"/>
<path d="M86.4971 109.897C86.8725 101.983 86.6696 93.8658 85.4182 86.1639C83.974 86.146 82.6279 85.5455 81.3663 84.5985C83.2908 91.7711 84.8263 99.1109 85.824 106.637C86.0642 107.718 86.2806 108.806 86.4971 109.897Z" fill="#2EA040"/>
<path d="M86.4971 109.897C86.2806 108.806 86.0642 107.718 85.824 106.637C84.8263 99.1109 83.2908 91.7711 81.3663 84.5985C82.6279 85.5455 83.974 86.146 85.4182 86.1639C86.3043 91.61 86.6628 97.2637 86.6662 102.905C86.6662 105.243 86.6053 107.578 86.4971 109.897Z" fill="#27833B"/>
<path d="M74.1859 3.63363C75.4103 6.68218 76.9154 9.56915 78.0924 12.6838C79.8342 17.3014 81.346 22.0314 82.5332 26.9267L82.7462 27.8416C87.4238 38.9267 90.0315 51.8159 90.9041 63.0861C91.1983 66.8824 92.054 76.7947 89.9469 82.3179C90.0653 88.3159 89.886 94.3138 89.2231 100.208C89.3517 99.4781 89.4802 98.7432 89.6154 98.0114C90.3629 93.8332 91.3708 89.7541 92.0202 85.5455C93.4136 76.5564 94.3032 67.3626 94.7462 58.2266C95.1724 49.399 95.3956 40.2323 94.3539 31.4548C93.5895 24.9905 91.8037 18.9062 89.9807 12.8362C89.6797 12.6264 89.3753 12.4148 89.0675 12.2142C88.5196 11.7391 87.9582 11.2763 87.3731 10.8278C83.9706 8.25993 80.2975 6.30578 76.5738 4.62015C75.7823 4.26117 74.9841 3.93339 74.1825 3.62858L74.1859 3.63363Z" fill="#2EA040"/>
<path d="M89.2231 100.208C89.7609 95.4187 89.9807 90.5611 89.9807 85.6906C89.9807 84.5664 89.9706 83.4422 89.9469 82.3179C91.0224 79.5026 91.3268 75.547 91.3268 71.8401C91.3268 68.2788 91.0461 64.9475 90.9041 63.0861C90.0315 51.8159 87.4238 38.9267 82.7462 27.8416L82.5332 26.9267C81.346 22.0314 79.8342 17.3014 78.0924 12.6838C76.9154 9.56915 75.4103 6.68218 74.1859 3.63363L74.1825 3.62858C74.9841 3.93339 75.7823 4.26117 76.5738 4.62015C80.2975 6.30578 83.9706 8.25993 87.3731 10.8278C87.9582 11.2763 88.5196 11.7391 89.0675 12.2142C89.3753 12.4148 89.6797 12.6264 89.9807 12.8362C91.8037 18.9062 93.5895 24.9905 94.3539 31.4548C94.9052 36.0829 95.1014 40.8203 95.1014 45.5595C95.1048 49.8058 94.9458 54.0538 94.7462 58.2266C94.3032 67.3626 93.4136 76.5564 92.0202 85.5455C91.3708 89.7541 90.3629 93.8332 89.6154 98.0114C89.4802 98.7432 89.3517 99.4781 89.2231 100.208Z" fill="#27833B"/>
<path d="M102.715 78.1256C99.7755 89.2397 95.9706 102.67 88.5974 110.564H88.6008C89.0506 110.788 89.5072 110.972 89.9672 111.134C97.7834 106.113 102.935 94.8557 106.279 85.1638C108.356 79.1387 110.034 72.9039 111.295 66.5199C111.444 65.7758 111.569 65.023 111.691 64.2697C111.64 63.1707 111.566 62.0768 111.475 60.9829L111.42 60.3999C111.339 59.5125 111.248 58.6247 111.14 57.7424L111.038 56.9304C110.93 56.0931 110.805 55.259 110.673 54.429L110.548 53.6486C110.365 52.5818 110.166 51.5237 109.942 50.4748C109.696 49.3147 109.411 48.1763 109.1 47.0553L108.945 46.5086C108.644 45.445 108.326 44.3924 107.984 43.3563C107.73 55.175 105.654 66.99 102.715 78.1256Z" fill="#2EA040"/>
<path d="M89.9672 111.134C89.5072 110.972 89.0506 110.788 88.6008 110.564H88.5974C95.9706 102.67 99.7755 89.2397 102.715 78.1256C105.654 66.99 107.73 55.175 107.984 43.3563C108.326 44.3924 108.644 45.445 108.945 46.5086L109.1 47.0553C109.411 48.1763 109.696 49.3147 109.942 50.4748C110.166 51.5237 110.365 52.5818 110.548 53.6486L110.673 54.429C110.805 55.259 110.93 56.0931 111.038 56.9304L111.14 57.7424C111.248 58.6247 111.339 59.5125 111.42 60.3999L111.475 60.9829C111.566 62.0768 111.64 63.1707 111.691 64.2697C111.569 65.023 111.444 65.7758 111.295 66.5199C110.034 72.9039 108.356 79.1387 106.279 85.1638C102.935 94.8557 97.7834 106.113 89.9672 111.134Z" fill="#27833B"/>
<path d="M85.3404 113.029L85.9154 112.509C84.3663 106.75 82.2355 101.209 79.8071 95.9816C79.7666 97.1508 79.611 98.3255 79.31 99.4961C79.6786 100.222 80.0574 100.934 80.4159 101.675C82.124 105.175 83.903 109.009 85.3404 113.029Z" fill="#2EA040"/>
<path d="M85.3404 113.029C83.903 109.009 82.124 105.175 80.4159 101.675C80.0574 100.934 79.6786 100.222 79.31 99.4961C79.611 98.3255 79.7666 97.1508 79.8071 95.9816C82.2355 101.209 84.3663 106.75 85.9154 112.509L85.3404 113.029Z" fill="#27833B"/>
<path d="M80.6865 121.87L80.7812 121.795L80.7879 121.789L80.7845 121.785L80.6865 121.87Z" fill="#2C9A40"/>
<path d="M80.6865 121.87L80.7845 121.785L80.7879 121.789L80.7812 121.795L80.6865 121.87Z" fill="#267E39"/>
<path d="M79.611 122.709L79.6211 122.7L79.6922 122.651L79.8647 122.515L79.611 122.709Z" fill="#2C9A40"/>
<path d="M79.611 122.709L79.8647 122.515L79.6922 122.651L79.6211 122.7L79.611 122.709Z" fill="#267E39"/>
<path d="M10.9336 57.2619C11.6141 58.3255 12.3711 59.2936 13.1571 60.2173C15.0095 63.1221 17.2979 65.1429 19.3654 67.8563C20.4856 69.3211 21.8862 70.3664 23.0263 71.8046C24.5351 73.711 26.0571 75.5936 27.599 77.4532C32.4041 83.2542 37.6833 88.3643 42.6389 93.9501L43.2812 94.6552C43.6854 95.1156 44.0764 95.5999 44.4714 96.075C45.5682 97.4021 46.6421 98.7613 47.7149 100.127C48.7414 101.439 49.7706 102.742 50.8434 103.989L51.1607 104.359C51.8635 105.175 52.5609 105.991 53.2546 106.813C55.2244 109.138 57.135 111.523 58.8301 114.191C60.8473 117.518 62.4836 121.224 64.6482 124.403C64.9187 124.798 65.2164 125.264 65.5309 125.739C66.5354 127.228 67.7767 128.8 69.3088 128.6C72.4678 128.187 75.6775 125.228 78.4779 123.471C78.7959 123.269 79.1036 123.062 79.408 122.852L79.6042 122.713L79.611 122.709L79.8646 122.515L80.4971 122.037L80.6865 121.87L80.7846 121.785L81.346 121.296L81.4509 121.197C82.0123 120.665 82.523 120.094 82.9728 119.49L82.9931 119.463C83.6865 118.522 84.2277 117.491 84.5693 116.347C82.2051 110.569 79.408 105.073 76.1916 99.9214C69.9853 90.0018 62.6594 81.6062 55.268 73.1372C54.2206 71.9354 53.1609 70.7433 52.0986 69.5598C50.5938 68.0927 49.0878 66.6316 47.583 65.1612C42.0761 59.7867 36.5933 54.402 31.8241 47.9698C30.5994 46.3149 29.4129 44.6201 28.2423 42.9042L28.0177 42.6352C25.3888 39.42 23.0753 35.9827 21.3734 32.2745C21.0024 31.6736 20.627 31.0818 20.2573 30.4832C20.4278 31.9963 20.6006 33.4937 21.0961 34.964C22.1175 37.9947 23.5272 40.7921 25.1297 43.383C28.2609 48.4486 31.8741 52.9817 35.6395 57.289C41.7406 64.2752 47.6912 71.4731 53.5783 78.7408C56.3513 82.1653 58.9857 85.8988 61.9695 89.0368C64.0055 91.171 66.0822 93.233 67.9695 95.5875C71.2299 99.6579 72.8398 104.293 69.7181 109.156C66.5523 114.084 61.2558 110.327 58.3793 107.04C45.6565 92.5155 32.6855 78.1757 19.5809 64.1981C16.381 60.7911 11.7619 56.0752 8.51199 50.6814L8.51876 50.866L8.59248 51.7088L8.79338 52.9101L8.90568 53.3907C9.01797 53.8516 9.14073 54.3125 9.2953 54.7605L9.53714 55.1338C10.0421 55.8994 10.524 56.6257 10.9336 57.2619Z" fill="#2EA040"/>
<path d="M69.0416 128.617C67.6313 128.617 66.4745 127.139 65.5309 125.739C65.2164 125.264 64.9187 124.798 64.6482 124.403C62.4836 121.224 60.8473 117.517 58.8301 114.191C57.135 111.523 55.2244 109.138 53.2546 106.812C52.5609 105.991 51.8635 105.175 51.1607 104.359L50.8434 103.988C49.7706 102.742 48.7414 101.438 47.7149 100.127C46.6421 98.761 45.5682 97.4018 44.4714 96.0747C44.0764 95.5996 43.6854 95.1153 43.2812 94.6549L42.6389 93.9498C37.6833 88.3641 32.4041 83.2539 27.599 77.4529C26.0571 75.5933 24.5351 73.7107 23.0263 71.8043C21.8862 70.3661 20.4856 69.3208 19.3654 67.856C17.2979 65.1426 15.0095 63.1218 13.1571 60.217C12.3711 59.2934 11.6141 58.3252 10.9336 57.2616C10.524 56.6254 10.0421 55.8992 9.53714 55.1335L9.2953 54.7602C9.14073 54.3122 9.01797 53.8513 8.90568 53.3905L8.79338 52.9098L8.59248 51.7085L8.51876 50.8657L8.51199 50.6811C11.7619 56.075 16.381 60.7908 19.5809 64.1978C32.6855 78.1754 45.6565 92.5152 58.3793 107.04C60.2581 109.187 63.1668 111.532 65.8387 111.532C67.2626 111.532 68.6189 110.868 69.7181 109.156C70.8883 107.332 71.3956 105.541 71.3956 103.798C71.399 100.895 70.0056 98.1317 67.9695 95.5872C66.0822 93.2327 64.0055 91.1707 61.9695 89.0366C58.9857 85.8985 56.3513 82.165 53.5783 78.7405C47.6912 71.4729 41.7406 64.275 35.6395 57.2887C31.8741 52.9814 28.2609 48.4483 25.1297 43.3827C23.5272 40.7918 22.1175 37.9944 21.0961 34.9637C20.6006 33.4934 20.4278 31.996 20.2573 30.483C20.627 31.0816 21.0024 31.6733 21.3734 32.2742C23.0753 35.9824 25.3888 39.4197 28.0177 42.6349L28.2423 42.9039C29.4129 44.6198 30.5994 46.3147 31.8241 47.9695C36.5933 54.4017 42.0761 59.7864 47.583 65.1609C49.0878 66.6313 50.5938 68.0924 52.0986 69.5595C53.1609 70.743 54.2206 71.9351 55.268 73.1369C62.6594 81.6059 69.9853 90.0015 76.1916 99.9211C79.408 105.073 82.2051 110.569 84.5693 116.346C84.2277 117.491 83.6865 118.522 82.9931 119.463L82.9728 119.49C82.523 120.094 82.0123 120.665 81.4509 121.197L81.346 121.296L80.7846 121.785L80.6865 121.87L80.4971 122.036L79.8646 122.515L79.611 122.709L79.6042 122.712L79.408 122.852C79.1036 123.062 78.7959 123.268 78.4779 123.471C75.6775 125.228 72.4678 128.187 69.3088 128.599C69.2175 128.61 69.1296 128.617 69.0416 128.617Z" fill="#27833B"/>
<path d="M76.7225 209.139H84.3257L73.3607 162.592C71.5952 156.375 69.4339 152.636 67.2457 150.458C74.7676 165.992 76.1679 188.984 76.7225 209.139Z" fill="#D2E418"/>
<path d="M40.2518 166.085C43.7277 160.499 48.0268 158.548 51.3998 157.965C52.0563 152.699 52.6918 147.422 53.2942 142.137C53.8478 141.953 54.3856 141.809 54.9115 141.689C52.2281 142.29 49.1919 143.742 45.7729 145.814C45.7729 145.814 41.606 148.229 36.7056 154.397C35.9513 155.353 35.1785 156.39 34.4003 157.523C26.9649 168.38 21.5175 184.89 20.2837 202.033C20.1092 204.453 19.9428 206.826 19.7855 209.139H24.3383C26.9831 200.06 34.4625 175.391 40.2518 166.085Z" fill="#E1E915"/>
<path d="M59.788 141.716C60.1999 141.836 60.599 141.989 60.9863 142.186C60.599 141.989 60.1972 141.836 59.788 141.716Z" fill="#E1E915"/>
<path d="M59.5012 141.639L59.1457 141.546L58.3411 141.433C58.7388 141.474 59.1234 141.546 59.5012 141.639Z" fill="#E1E915"/>
<path d="M55.1294 141.645C56.1944 141.421 57.2037 141.334 58.1561 141.411C57.2037 141.334 56.1931 141.421 55.1294 141.645Z" fill="#E1E915"/>
<path d="M58.3411 141.433L58.1561 141.411C57.2036 141.334 56.1944 141.42 55.1293 141.644L54.9115 141.689C54.3856 141.809 53.8478 141.953 53.2942 142.137C52.6918 147.422 52.0563 152.699 51.3998 157.965C54.6048 157.415 56.9736 158.097 56.9736 158.097C56.9736 158.097 62.8624 160.924 63.5591 173.06C63.7959 174.719 63.9515 176.399 64.036 178.09C63.4238 182.896 63.231 187.768 62.8725 192.627C62.4667 198.183 61.6211 203.691 60.7059 209.139H76.7226C76.1679 188.984 74.7677 165.992 67.2457 150.458C66.4204 148.758 65.5512 147.114 64.5704 145.607C64.2558 145.123 63.9278 144.696 63.5896 144.302L63.2953 143.979L62.4802 143.199L62.1961 142.957C61.8241 142.67 61.4385 142.415 61.039 142.209L60.9863 142.186C60.599 141.989 60.1999 141.836 59.788 141.716L59.5012 141.639C59.1234 141.546 58.7388 141.474 58.3411 141.433Z" fill="#B3C81A"/>
<path d="M62.8725 192.627C63.231 187.768 63.4238 182.896 64.036 178.09C63.9515 176.4 63.7959 174.719 63.5591 173.06C63.8432 178.004 63.2716 184.483 61.085 192.956L57.2513 209.139H60.7059C61.6211 203.691 62.4667 198.183 62.8725 192.627Z" fill="#9B9E21"/>
<path d="M63.5591 173.06C62.8624 160.924 56.9737 158.097 56.9737 158.097C56.9737 158.097 54.6048 157.415 51.3998 157.965C48.0268 158.548 43.7277 160.499 40.2518 166.085C34.4625 175.391 26.9831 200.06 24.3383 209.139H57.2513L61.085 192.956C63.2716 184.483 63.8432 178.004 63.5591 173.06Z" fill="#D2E418"/>
</svg>
