<svg width="131" height="216" viewBox="0 0 131 216" fill="none" xmlns="http://www.w3.org/2000/svg">
<path d="M82.7372 133.028L83.0483 132.595C82.3584 133.097 81.7158 133.71 81.0901 134.364L81.2524 135.024L81.4249 134.804C81.7226 134.199 82.1589 133.62 82.7372 133.028Z" fill="#E3BA8E"/>
<path d="M77.3595 145.407H77.3731C77.7316 145.38 78.0833 145.371 78.4283 145.383H78.5399C78.8714 145.398 79.196 145.434 79.5174 145.488L79.6594 145.5L80.532 145.724L80.7248 145.774L81.4993 146.101L81.7394 146.205L82.4024 146.614L82.7 146.796L83.2614 147.266L83.6064 147.558L84.107 148.1L84.1983 148.201C83.346 144.048 82.3516 139.516 81.2828 135.15L81.0935 135.234L81.1036 135.216L81.2524 135.024L81.0901 134.364C80.1566 135.347 79.2738 136.441 78.4317 137.553C77.8499 137.813 77.2783 138.13 76.7304 138.516L76.7203 138.467C76.9909 136.307 78.1408 134.298 79.0438 132.311L78.2152 133.33C77.7688 133.886 77.045 133.647 77.0788 132.742C77.1262 131.33 77.2919 129.923 77.5252 128.524C77.0923 130.151 76.7846 131.829 76.4362 133.728L76.3144 134.038C75.7293 132.908 75.1713 131.671 74.833 130.353C74.7924 128.052 75.0461 125.587 75.523 123.378C75.2592 123.814 74.9988 124.224 74.7383 124.606C74.2783 125.291 73.7981 126.229 73.2603 127.057C72.5703 127.83 71.5422 128.165 70.6527 128.228C70.8522 126.857 71.275 125.529 71.7248 124.197C71.4136 124.409 70.9638 124.283 71.0551 123.709C71.3595 121.705 71.7451 119.75 72.1374 117.805C71.3629 118.362 70.6222 118.599 69.9627 118.267C68.7688 121.782 67.2772 125.099 65.2682 128.067C60.5264 135.051 54.1712 141.283 47.3257 144.25L47.3291 144.268C49.4734 144.555 55.4429 140.547 56.833 144.25C57.3505 145.626 58.656 149.922 60.2017 155.179C63.8037 151.364 66.4993 149.795 66.4993 149.795C70.6696 147.271 74.2783 145.658 77.3595 145.407Z" fill="#8B613E"/>
<path d="M65.2682 128.067C67.2772 125.099 68.7688 121.782 69.9627 118.267C69.6008 118.079 69.2592 117.738 68.9616 117.155C67.8252 114.914 67.9165 111.251 68.0653 108.342C66.7936 103.961 66.9864 98.5515 67.4091 94.09C67.629 91.7194 67.9233 89.415 68.3629 87.1826C68.1127 87.6669 67.5647 87.6885 67.443 87.0661C67.0101 84.9232 66.9898 82.4306 67.142 80.0316L67.1352 80.055C66.841 81.1989 66.7124 82.3948 66.0123 83.1876C65.6605 83.5966 65.1431 83.5695 65.0146 82.8882C64.3212 79.2517 64.4633 75.2492 65.0721 71.2449C64.8827 71.7613 64.6831 72.276 64.443 72.7658C64.2096 73.2409 63.5907 73.2138 63.6245 72.5326C63.6854 71.496 63.7192 70.4613 63.7327 69.4248C62.9785 69.0217 62.231 68.627 61.4937 68.229L61.5106 68.2414C61.5106 68.2414 48.9492 73.1151 35.0687 74.473C35.2513 75.8501 35.4035 77.2396 35.461 78.642C35.6437 82.9061 33.7632 86.7434 31.4836 90.0375L30.9052 90.9482C29.7384 92.7504 28.3719 94.2566 27.1645 95.9959C26.4103 97.0811 25.4666 98.5281 25.169 100.103C27.5399 103.271 31.1859 104.029 34.4937 104.257C33.4452 105.853 32.2344 107.155 30.9323 108.288L30.956 108.432C30.956 108.432 30.9424 109.49 30.3472 111.143C29.9548 112.215 29.1465 114.546 29.3325 115.868L29.3156 115.518C31.47 117.424 33.8849 118.267 36.4047 118.665L35.7519 118.88C34.2637 119.325 32.9853 119.496 31.6527 120.342C31.284 120.683 31.0405 121.118 31.0506 121.678C31.125 124.902 32.7857 123.247 33.0123 128.196C33.0292 128.605 32.3731 132.254 32.1837 135.584C32.0281 138.386 33.5602 142.111 35.0518 143.879C37.1454 146.361 40.2975 146.267 43.284 145.607C44.6437 145.299 45.9931 144.827 47.3257 144.25C54.1713 141.283 60.5264 135.051 65.2682 128.067Z" fill="#A06E46"/>
<path d="M36.4046 118.665C33.8849 118.267 31.47 117.424 29.3156 115.518L29.3325 115.868C29.6707 118.279 33.3674 119.199 34.9232 119.077L34.8556 119.11L34.8285 119.119L34.426 119.205L34.3415 119.223L34.1521 119.262L33.7969 119.346L33.7057 119.37L33.2761 119.492L33.1408 119.54L32.647 119.723L32.6403 119.728L32.1769 119.965L32.0687 120.033L31.6527 120.341C32.9852 119.495 34.2637 119.325 35.7519 118.88L36.4046 118.665Z" fill="#8B613E"/>
<path d="M34.4937 104.257C31.1859 104.029 27.5399 103.271 25.169 100.103L25.1656 100.115L25.0811 100.886L25.0777 101.295L25.1014 101.582L25.2434 102.344L25.5241 103.079C26.2242 104.011 27.1239 104.747 27.9052 105.249C28.7744 105.808 30.8342 106.71 30.9322 108.288C32.2344 107.155 33.4452 105.853 34.4937 104.257Z" fill="#8B613E"/>
<path d="M126.192 81.8387C126.185 82.7444 126.99 82.1743 127.105 81.6418C127.761 78.5845 128.373 75.2257 128.796 71.7704C125.904 71.9623 122.823 73.6621 119.928 84.8014C119.965 86.9622 119.867 89.0743 119.691 91.0147C119.995 91.1992 120.361 91.4145 120.78 91.6477C123.148 87.1196 124.842 81.9287 125.684 76.4899C125.989 78.2384 126.208 80.0099 126.192 81.8387Z" fill="#332323"/>
<path d="M77.6538 82.786C79.1792 81.7352 80.7383 80.566 82.2874 79.3018C81.3742 78.8175 80.4644 78.3337 79.5478 77.8439C78.8883 79.221 78.151 80.539 77.2851 81.7261C76.9435 82.2012 77.0653 83.1877 77.6538 82.786Z" fill="#332323"/>
<path d="M85.8218 83.9947C86.187 83.1876 86.5963 82.4701 87.0393 81.821C86.4474 81.502 85.8522 81.188 85.2535 80.8708C85.1385 81.8518 85.0506 82.8378 85.0236 83.8565C85.0134 84.5074 85.6323 84.4161 85.8218 83.9947Z" fill="#332323"/>
<path d="M88.9401 96.1247L89.532 96.525C90.4181 95.7088 91.2095 94.7315 91.9266 93.6559C90.3775 99.299 87.8578 104.391 84.5771 108.838C84.3031 109.211 84.2558 110.183 84.824 109.968C88.3583 108.611 91.5681 106.468 94.2434 103.5C93.939 104.463 93.621 105.422 93.2828 106.364C91.8149 110.416 89.5353 113.169 87.276 116.348C86.9818 116.764 86.9615 117.607 87.5263 117.478C91.8251 116.477 95.9345 112.442 98.9345 107.311C98.8161 107.804 98.6943 108.291 98.5759 108.785C98.4846 109.181 98.5827 109.798 98.9953 109.602C102.594 107.888 105.564 104.347 108.083 100.497C107.782 102.218 107.471 103.934 107.173 105.665L107.633 106.301C110.948 105.033 113.39 100.829 115.115 96.4657C113.113 95.4526 110.796 94.2618 108.222 92.9329L108.205 92.9242C102.878 90.1625 96.4959 86.8147 89.7281 83.2373C88.7405 87.3582 88.4632 91.755 88.9401 96.1247Z" fill="#332323"/>
<path d="M71.9818 74.1787L72.2557 73.9671L71.4068 73.5186L71.3933 73.7789C71.3764 74.254 71.7383 74.3348 71.9818 74.1787Z" fill="#332323"/>
<path d="M73.7439 78.7456C73.5782 79.2836 73.8724 79.7679 74.2783 79.4897C75.4012 78.7222 76.5072 77.8078 77.5861 76.8038C76.6492 76.3071 75.7123 75.8086 74.7721 75.3083C74.4406 76.4596 74.099 77.6035 73.7439 78.7456Z" fill="#332323"/>
<path d="M122.84 100.111L122.728 100.084L122.623 100.052L122.424 99.9767L122.278 99.923L122.031 99.8156L121.812 99.7256L121.538 99.6039L121.233 99.4658L120.922 99.3221L120.533 99.1431L120.246 99.003L119.721 98.7519L119.502 98.6445L118.785 98.3002L118.727 98.2732C117.692 97.7622 116.475 97.1526 115.115 96.4659C113.39 100.829 110.948 105.034 107.634 106.301L107.174 105.665C107.471 103.934 107.782 102.218 108.083 100.497C105.564 104.347 102.594 107.888 98.9954 109.602C98.5828 109.798 98.4847 109.181 98.576 108.785C98.6944 108.291 98.8162 107.804 98.9345 107.311C95.9345 112.443 91.8251 116.477 87.5264 117.478C86.9616 117.607 86.9819 116.764 87.2761 116.348C89.5354 113.169 91.815 110.416 93.2829 106.364C93.6211 105.422 93.939 104.463 94.2434 103.5C91.5681 106.468 88.3584 108.611 84.824 109.968C84.2558 110.183 84.3032 109.211 84.5771 108.839C87.8578 104.391 90.3776 99.2991 91.9266 93.656C91.2096 94.7316 90.4182 95.7089 89.532 96.5251L88.9402 96.1248C88.4633 91.7551 88.7406 87.3583 89.7282 83.2374C88.8387 82.7715 87.9424 82.2959 87.0394 81.8208C86.5963 82.4699 86.1871 83.1874 85.8218 83.9944C85.6324 84.4158 85.0135 84.5072 85.0236 83.8562C85.0507 82.8376 85.1386 81.8516 85.2536 80.8706C84.2694 80.3541 83.2817 79.8304 82.2874 79.3016C80.7383 80.5658 79.1792 81.735 77.6538 82.7858C77.0653 83.1874 76.9436 82.2009 77.2852 81.7258C78.151 80.5387 78.8883 79.2208 79.5478 77.8436C78.8951 77.4993 78.2423 77.1532 77.5862 76.8039C76.5073 77.8078 75.4013 78.7222 74.2784 79.4898C73.8725 79.7679 73.5782 79.2837 73.744 78.7456C74.0991 77.6035 74.4407 76.4596 74.7722 75.3083C73.93 74.8635 73.0912 74.4154 72.2558 73.967L71.9819 74.1786C71.7384 74.3347 71.3765 74.2538 71.3934 73.7787L71.4069 73.5184C68.8094 72.1326 66.2389 70.7609 63.7327 69.4247C63.7192 70.4612 63.6854 71.4959 63.6245 72.5324C63.5907 73.2137 64.2096 73.2407 64.443 72.7656C64.6831 72.2758 64.8827 71.7612 65.0721 71.2448C64.4633 75.2491 64.3212 79.2515 65.0146 82.8881C65.1431 83.5693 65.6606 83.5964 66.0123 83.1874C66.7124 82.3946 66.841 81.1988 67.1352 80.0549L67.142 80.0315C66.9898 82.4304 67.0101 84.9231 67.443 87.0659C67.5648 87.6884 68.1127 87.6668 68.3629 87.1825C67.9233 89.4149 67.629 91.7193 67.4091 94.0898C66.9864 98.5513 66.7936 103.961 68.0653 108.342L68.1059 107.571C68.4374 101.42 70.2028 92.7953 73.6188 89.0687C75.0596 87.4997 76.8082 86.7111 78.4824 86.8864C79.3719 86.9888 80.2378 87.3583 81.0292 88.0198C83.0044 89.6788 85.2198 93.3099 83.9616 101.047C83.0247 106.817 81.2761 107.562 77.0721 112.206C75.8207 113.59 73.9097 116.522 72.1374 117.804C71.7451 119.75 71.3596 121.704 71.0552 123.709C70.9638 124.283 71.4137 124.409 71.7248 124.197C71.275 125.529 70.8522 126.856 70.6527 128.228C71.5422 128.165 72.5704 127.83 73.2603 127.057C73.7981 126.229 74.2784 125.291 74.7384 124.606C74.9988 124.224 75.2592 123.813 75.523 123.378C75.0461 125.587 74.7925 128.052 74.8331 130.353C75.1713 131.671 75.7294 132.908 76.3145 134.038L76.4362 133.728C76.7846 131.829 77.0924 130.15 77.5253 128.524C77.2919 129.922 77.1262 131.33 77.0788 132.741C77.045 133.647 77.7688 133.885 78.2153 133.329L79.0439 132.311C78.1408 134.298 76.9909 136.306 76.7203 138.467L76.7305 138.515C77.2784 138.13 77.85 137.812 78.4317 137.553C79.2739 136.441 80.1566 135.347 81.0901 134.364C81.7158 133.709 82.3584 133.097 83.0484 132.594L82.7372 133.028C82.3077 133.643 81.8714 134.239 81.4249 134.803L81.2525 135.024L81.1036 135.216L81.0935 135.234L81.2829 135.149C82.5783 134.611 83.8635 134.038 85.142 133.437L85.8996 132.93C93.1713 128.734 100.162 123.661 106.818 117.894C112.585 112.897 118.609 107.463 122.904 100.106L122.84 100.111Z" fill="#211715"/>
<path d="M128.796 71.7703C128.373 75.2256 127.761 78.5845 127.105 81.6417C126.99 82.1742 126.185 82.7444 126.191 81.8387C126.208 80.0098 125.989 78.2383 125.684 76.4898C124.842 81.9286 123.147 87.1196 120.78 91.6476C122.038 92.356 123.773 93.2254 125.735 93.925C124.565 96.8836 123.584 98.8598 123.158 99.6842L123.496 99.1214C127.842 91.1992 129.841 81.5196 129.831 71.7524C129.489 71.7469 129.141 71.7469 128.796 71.7703Z" fill="#211715"/>
<path d="M119.928 84.8015C119.502 86.4385 119.079 88.2765 118.659 90.351C118.659 90.351 119.038 90.6163 119.691 91.0148C119.867 89.0744 119.965 86.9623 119.928 84.8015Z" fill="#211715"/>
<path d="M75.8172 94.4841C78.8139 94.4483 79.24 98.2644 78.8342 101.569C78.7056 102.616 78.4993 103.611 78.2592 104.418C77.2615 107.786 74.9954 110.632 72.1713 110.659C71.0315 110.673 70.1284 110.165 70.4869 108.351C70.6324 107.619 71.1938 106.611 71.62 106.131C72.3539 105.288 72.4824 103.007 72.5196 101.836C72.6245 98.6766 72.5906 94.5199 75.8172 94.4841ZM77.0721 112.206C81.2761 107.562 83.0247 106.817 83.9616 101.047C85.2197 93.3098 83.0044 89.6788 81.0292 88.0198C80.2378 87.3583 79.3719 86.9887 78.4824 86.8864C76.8082 86.711 75.0596 87.4996 73.6188 89.0687C70.2028 92.7952 68.4373 101.42 68.1059 107.571L68.0653 108.342C67.9165 111.25 67.8252 114.914 68.9616 117.155C69.2592 117.738 69.6008 118.079 69.9627 118.267C70.6222 118.599 71.3629 118.362 72.1374 117.804C73.9097 116.522 75.8206 113.59 77.0721 112.206Z" fill="#A06E46"/>
<path d="M72.5196 101.836C72.4824 103.007 72.3539 105.288 71.62 106.131C71.1938 106.611 70.6324 107.62 70.4869 108.351C70.1284 110.165 71.0315 110.673 72.1713 110.659C74.9954 110.632 77.2614 107.786 78.2592 104.419C78.4993 103.612 78.7056 102.616 78.8341 101.569C79.24 98.2645 78.8138 94.4485 75.8172 94.4843C72.5906 94.5201 72.6244 98.6768 72.5196 101.836Z" fill="#8B613E"/>
<path d="M47.0619 14.9413C47.6267 14.2812 48.2118 13.6537 48.8037 13.0496C48.2118 13.6537 47.6301 14.2812 47.0619 14.9413Z" fill="#6C2285"/>
<path d="M34.6493 41.1432C34.5512 41.577 34.4633 42.031 34.3719 42.479L34.3787 42.5006C34.47 42.0489 34.5512 41.5825 34.6493 41.1432Z" fill="#6C2285"/>
<path d="M71.3697 1.04797C73.7575 0.621058 76.1758 0.396113 78.6042 0.377751C76.1758 0.396113 73.7575 0.616467 71.3697 1.04797Z" fill="#6C2285"/>
<path d="M86.1227 0.914708C88.585 1.29113 91.0303 1.86493 93.4283 2.62695C91.0303 1.86493 88.5884 1.29113 86.1227 0.914708Z" fill="#6C2285"/>
<path d="M123.192 27.8737C123.543 28.5678 123.885 29.2757 124.206 29.995C123.885 29.2757 123.54 28.5678 123.192 27.8737Z" fill="#6C2285"/>
<path d="M68.8364 1.57117C69.6008 1.38755 70.3719 1.22688 71.1464 1.08458C70.3685 1.22688 69.6008 1.38755 68.8364 1.57117Z" fill="#6C2285"/>
<path d="M114.503 15.68C115.017 16.2093 115.511 16.7473 116.004 17.2977C115.514 16.7473 115.017 16.2093 114.503 15.68Z" fill="#6C2285"/>
<path d="M74.5455 22.6055C71.2445 30.0885 69.2963 38.6456 66.8848 46.684C65.5117 51.2566 64.1487 55.8292 62.877 60.4468C64.2636 60.8356 65.6537 61.2033 67.0506 61.5315C76.8454 63.8447 86.5353 63.9971 96.3403 61.7918C102.449 60.4197 108.79 58.1424 114.817 54.8074C114.973 52.5337 115.061 50.2614 115.03 48.002C114.902 38.9734 112.257 30.4562 108.394 23.233C106.368 19.4551 104.16 15.7377 101.961 12.1387C100.223 9.28803 98.2512 6.77749 96.6887 3.79321C103.237 6.38271 109.341 10.3765 114.425 15.6C108.509 9.51207 101.214 5.09233 93.4316 2.62723C85.8149 6.6912 79.0066 12.4977 74.5455 22.6055Z" fill="#6C2285"/>
<path d="M35.2581 45.124C39.4621 48.3392 43.3449 52.2072 47.9075 54.6043C52.7541 57.1419 57.7868 59.0158 62.877 60.4467C64.1487 55.8291 65.5117 51.2565 66.8849 46.6839C69.2964 38.6455 71.2446 30.0883 74.5456 22.6054C79.0067 12.4976 85.815 6.69104 93.4317 2.62708H93.4283C91.0303 1.86506 88.585 1.29125 86.1228 0.914834L86.0889 0.91024C83.6402 0.533819 81.178 0.350203 78.7192 0.368565L78.6042 0.377727C76.1758 0.396088 73.7575 0.621033 71.3697 1.04795L71.1465 1.08468C70.3719 1.22699 69.6008 1.38765 68.8364 1.57127H68.8263C67.2671 1.94769 65.7316 2.42052 64.2164 2.98056L63.8815 3.10448C63.2017 3.36155 62.5286 3.63697 61.8657 3.93076L61.6763 4.00882C60.9255 4.34852 60.1848 4.70197 59.4509 5.08298L59.4272 5.10136C58.744 5.45483 58.0743 5.83583 57.408 6.23016L56.9852 6.48493C56.4103 6.84344 55.8353 7.21115 55.2671 7.60226L54.9458 7.81708C54.2727 8.28714 53.603 8.78017 52.9503 9.2966L52.8421 9.38612C52.2502 9.8617 51.665 10.3547 51.0901 10.8656L50.6403 11.2779C50.1465 11.7263 49.6628 12.1836 49.1927 12.6623L48.8037 13.0498C48.2118 13.6539 47.6267 14.2814 47.0619 14.9415L46.9199 15.1063C46.4125 15.693 45.9187 16.3077 45.4283 16.9356L44.9886 17.5237C44.5828 18.0562 44.1871 18.6066 43.7981 19.1767L43.4058 19.7455C42.9052 20.4951 42.4182 21.2659 41.9447 22.0586L41.8161 22.2882C41.3934 23.0089 40.9841 23.7493 40.5884 24.5063L40.2028 25.2591C39.8781 25.8958 39.5636 26.5468 39.2592 27.2101L38.9176 27.9579C38.5185 28.8549 38.1296 29.7743 37.7643 30.7214L37.6764 30.9582C37.3449 31.8277 37.027 32.7242 36.7226 33.6336L36.4283 34.548C36.1916 35.2939 35.9649 36.0505 35.7451 36.8217L35.4847 37.7416C35.2006 38.7979 34.93 39.8702 34.6831 40.9765L34.6493 41.1432C34.5512 41.5825 34.47 42.0488 34.3787 42.5006C34.5411 43.3576 34.8488 44.2362 35.2581 45.124Z" fill="#632475"/>
<path d="M130.412 62.091C130.396 63.1276 130.358 64.1494 130.311 65.1575C130.362 64.1494 130.396 63.1276 130.412 62.091Z" fill="#632475"/>
<path d="M129.98 51.6729C130.105 52.8132 130.196 53.9466 130.264 55.0671C130.196 53.9466 130.101 52.8132 129.98 51.6729Z" fill="#632475"/>
<path d="M101.962 12.1385C104.16 15.7374 106.369 19.4548 108.394 23.2328C112.257 30.4559 114.902 38.9731 115.03 48.0017C115.061 50.2612 114.973 52.5335 114.817 54.8071C119.806 52.0492 124.582 48.5668 128.83 44.254C129.066 45.3966 129.273 46.535 129.449 47.6648C128.542 41.9767 126.922 36.0632 124.206 29.9951C123.885 29.2757 123.543 28.5679 123.192 27.8738L122.86 27.2463C122.603 26.7477 122.343 26.2653 122.069 25.7846L121.686 25.1213C121.399 24.637 121.105 24.1564 120.807 23.6831L120.469 23.1488C119.603 21.8272 118.683 20.5487 117.709 19.324L117.635 19.2308C117.164 18.6423 116.684 18.074 116.194 17.5126L116.004 17.2977C115.511 16.7473 115.017 16.2093 114.503 15.6801L114.425 15.5997C109.341 10.3762 103.237 6.38246 96.6887 3.79296C98.2513 6.77724 100.223 9.28778 101.962 12.1385Z" fill="#632475"/>
<path d="M114.817 54.8072C108.79 58.1422 102.449 60.4195 96.3403 61.7916C86.5354 63.9969 76.8454 63.8445 67.0506 61.5313C65.6538 61.2031 64.2637 60.8354 62.877 60.4466C57.7868 59.0157 52.7541 57.1419 47.9074 54.6043C43.3449 52.2071 39.4621 48.3392 35.2581 45.124C39.4858 54.3444 55.6797 64.741 59.5692 67.1404C60.7225 67.8074 61.4294 68.1967 61.4937 68.2289C62.231 68.6269 62.9784 69.0216 63.7327 69.4247C66.2389 70.761 68.8093 72.1326 71.4069 73.5185L72.2558 73.967C73.0912 74.4155 73.93 74.8635 74.7721 75.3083C75.7124 75.8087 76.6493 76.3072 77.5861 76.8039C78.2423 77.1532 78.895 77.4993 79.5478 77.8436C80.4643 78.3334 81.3741 78.8173 82.2873 79.3016C83.2817 79.8304 84.2693 80.3542 85.2535 80.8706C85.8522 81.1878 86.4474 81.5018 87.0393 81.8208C87.9424 82.296 88.8386 82.7715 89.7281 83.2375C96.4959 86.8148 102.878 90.1627 108.205 92.9244L108.222 92.9331C110.796 94.262 113.113 95.4528 115.115 96.4659C116.474 97.1526 117.692 97.7623 118.727 98.2732L118.785 98.3003L119.502 98.6446L119.721 98.752L120.246 99.0031L120.533 99.1431L120.922 99.3221L121.233 99.4658L121.538 99.604L121.812 99.7256L122.031 99.8156L122.278 99.923L122.424 99.9767L122.623 100.052L122.728 100.084L122.84 100.111L122.904 100.106L122.934 100.102L123.158 99.6843C123.584 98.8598 124.565 96.8837 125.735 93.9251C123.773 93.2255 122.038 92.356 120.78 91.6477C120.361 91.4145 119.995 91.1992 119.691 91.0147C119.038 90.6162 118.659 90.3509 118.659 90.3509C119.079 88.2765 119.502 86.4384 119.928 84.8015C122.823 73.6622 125.904 71.9623 128.796 71.7704C129.141 71.747 129.489 71.747 129.831 71.7525H129.834C129.919 70.8326 130 69.8966 130.074 68.9551L130.128 68.1609C130.186 67.404 130.233 66.6328 130.274 65.862L130.311 65.1574C130.358 64.1493 130.396 63.1274 130.412 62.0909V61.8811C130.426 60.9217 130.426 59.9481 130.409 58.9671L130.399 58.2946C130.375 57.3351 130.335 56.3615 130.277 55.3842L130.264 55.067C130.196 53.9464 130.105 52.8131 129.98 51.6728L129.946 51.3606C129.838 50.3475 129.699 49.3289 129.547 48.2978L129.449 47.6648C129.273 46.5351 129.066 45.3966 128.83 44.2541C124.582 48.5668 119.806 52.0492 114.817 54.8072Z" fill="#6A2689"/>
<path d="M61.5106 68.2414L61.4937 68.229C61.4294 68.1969 60.7225 67.8076 59.5692 67.1406C60.107 67.4706 60.4249 67.6588 60.4249 67.6588C60.4249 67.6588 16.8251 84.421 2.87024 62.7778C1.31782 60.3659 0.641379 58.5013 0.499327 57.0484C0.313307 58.6266 0.867989 60.8355 2.87024 63.9433C9.4283 74.114 22.7676 75.6743 35.0686 74.473C48.9491 73.1151 61.5106 68.2414 61.5106 68.2414Z" fill="#3F244C"/>
<path d="M60.4249 67.6589C60.4249 67.6589 60.107 67.4706 59.5692 67.1406C55.6797 64.7411 39.4858 54.3446 35.2581 45.1241C34.8488 44.2363 34.5411 43.3577 34.3787 42.5006L34.3719 42.4791L34.3686 42.4611L4.94692 51.8575C4.88943 52.0044 0.0562729 52.4974 0.499339 57.0484C0.641391 58.5013 1.31783 60.3659 2.87026 62.7778C16.8252 84.421 60.4249 67.6589 60.4249 67.6589Z" fill="#6C2285"/>
<path d="M95.5455 184.16C95.9141 187.25 96.2151 190.375 96.4519 193.514C97.5951 192.782 98.7214 191.988 99.8273 191.118L100.859 195.498C99.5263 196.512 98.1633 197.417 96.7766 198.245C96.966 201.425 97.1114 204.584 97.223 207.705C99.2287 206.577 101.157 205.221 102.722 203.401L96.8713 178.575L97.913 183.004C97.1283 183.395 96.3335 183.771 95.5455 184.16Z" fill="#CDE319"/>
<path d="M90.5331 157.9C90.1746 157.878 89.8161 157.869 89.4542 157.855L89.6402 158.339C90.7225 161.093 91.6526 164.01 92.4508 167.077C93.0055 167.005 93.5568 166.919 94.1115 166.871L94.5207 168.605L94.0337 166.53C92.2716 160.329 90.1103 156.6 87.9288 154.426L87.9525 154.475C88.8251 155.35 89.6909 156.465 90.5331 157.9Z" fill="#CDE319"/>
<path d="M93.408 171.121C93.9119 173.46 94.3584 175.854 94.7439 178.297C95.3561 177.992 95.9784 177.692 96.5872 177.37L95.001 170.631C94.4666 170.792 93.939 170.954 93.408 171.121Z" fill="#CDE319"/>
<path d="M97.382 212.776C97.4091 213.649 97.4328 214.527 97.4531 215.388H104.806L105.418 214.841L103.94 208.565C101.941 210.367 99.6954 211.682 97.382 212.776Z" fill="#CDE319"/>
<path d="M88.3313 155.269C88.7 156.067 89.0551 156.883 89.3933 157.716L89.4542 157.854C89.8161 157.869 90.1746 157.878 90.5331 157.899C89.691 156.465 88.8251 155.349 87.9525 154.474L88.125 154.838H88.1419L88.3313 155.269Z" fill="#353535"/>
<path d="M92.4508 167.077C92.7924 168.399 93.1103 169.749 93.4079 171.121C93.939 170.954 94.4666 170.793 95.001 170.631L94.5207 168.605L94.1115 166.871C93.5568 166.919 93.0055 167.005 92.4508 167.077Z" fill="#353535"/>
<path d="M94.744 178.297C95.045 180.23 95.3088 182.184 95.5455 184.161C96.3336 183.771 97.1284 183.395 97.9131 183.004L96.8713 178.575L96.5872 177.37C95.9784 177.693 95.3561 177.992 94.744 178.297Z" fill="#353535"/>
<path d="M100.859 195.499L99.8274 191.118C98.7214 191.988 97.5951 192.782 96.452 193.514C96.5737 195.09 96.682 196.67 96.7767 198.246C98.1634 197.417 99.5264 196.512 100.859 195.499Z" fill="#353535"/>
<path d="M97.2231 207.705C97.284 209.414 97.3347 211.102 97.382 212.776C99.6955 211.682 101.941 210.367 103.94 208.565L102.723 203.401C101.157 205.221 99.2287 206.577 97.2231 207.705Z" fill="#353535"/>
<path d="M105.55 215.388L105.418 214.841H105.422L105.55 215.388Z" fill="#484849"/>
<path d="M104.806 215.388H105.55L105.418 214.841L104.806 215.388Z" fill="#CDE319"/>
<path d="M105.55 215.388H104.806L105.418 214.841L105.55 215.388Z" fill="#3C4019"/>
<path d="M41.0585 205.869C41.1465 204.662 41.2581 203.455 41.3866 202.254C41.2615 203.455 41.1465 204.656 41.0585 205.869Z" fill="#C7E226"/>
<path d="M46.4361 208.472C44.5861 207.92 42.7699 207.202 41.0348 206.225L41.0585 205.868C40.8218 209.139 40.6019 212.327 40.3956 215.388H44.4068C44.7687 214.111 45.4824 211.646 46.4361 208.472Z" fill="#C7E226"/>
<path d="M48.8713 200.618C50.1498 196.61 51.6075 192.238 53.1329 187.994C50.0111 188.398 46.886 188.733 43.7541 188.625C44.1769 186.864 44.6572 185.147 45.1577 183.452C47.6369 182.78 50.0855 181.937 52.5444 181.108C53.7451 180.705 54.9491 180.355 56.1565 180.059C57.8071 176.019 59.4576 172.478 60.9897 170.018C61.6526 168.951 62.3493 168.049 63.063 167.233C58.5072 168.067 54.0393 169.493 49.6323 171.398C50.992 168.418 52.4734 165.655 54.063 163.145C59.2783 159.608 65.0484 157.573 70.7778 156.035C72.337 155.619 73.9198 155.269 75.5162 154.991C76.1013 151.79 76.7101 148.593 77.3595 145.407C74.2783 145.658 70.6695 147.271 66.4993 149.795C66.4993 149.795 63.8037 151.364 60.2017 155.179C58.6391 156.838 56.9074 158.913 55.1487 161.477C48.2524 171.533 43.0777 186.461 41.39 202.236C41.5185 201.039 41.6707 199.847 41.8398 198.664C44.0348 199.843 46.4835 200.299 48.8713 200.618Z" fill="#C7E226"/>
<path d="M83.6063 147.558L83.2613 147.266L82.6999 146.796L82.4023 146.614L81.7394 146.205L81.4992 146.101L80.7247 145.774L80.5319 145.724L79.6594 145.5L79.5173 145.488C79.196 145.434 78.8713 145.398 78.5398 145.383H78.4282C78.0832 145.371 77.7315 145.38 77.373 145.407H77.3594C76.7101 148.593 76.1013 151.79 75.5162 154.991C79.6966 154.274 83.9615 154.113 88.1249 154.839L87.9524 154.475L87.9288 154.426C87.1069 152.732 86.2377 151.095 85.2636 149.594L84.462 148.487L84.1982 148.201L84.1069 148.1L83.6063 147.558Z" fill="#A7C81D"/>
<path d="M89.3933 157.717C89.0551 156.883 88.7 156.067 88.3313 155.269C88.6966 156.067 89.0551 156.883 89.3933 157.717Z" fill="#A7C81D"/>
<path d="M97.2231 207.705C97.1115 204.584 96.9661 201.425 96.7767 198.245C96.682 196.669 96.5737 195.089 96.452 193.513C96.2152 190.375 95.9142 187.25 95.5456 184.16C95.3088 182.184 95.045 180.229 94.744 178.296C94.3584 175.854 93.9119 173.46 93.408 171.121C93.1104 169.748 92.7925 168.398 92.4509 167.077C91.6527 164.01 90.7225 161.093 89.6402 158.339C90.8578 161.441 91.8894 164.764 92.7451 168.26C89.1329 167.86 85.5275 167.405 81.9187 167.035C83.0348 169.295 83.992 172.501 84.2491 176.975C84.364 177.773 84.4587 178.575 84.5331 179.382C88.0946 179.857 91.6425 180.484 95.1701 181.21C95.417 183 95.6335 184.806 95.8297 186.628C94.0912 186.554 92.3528 186.464 90.611 186.393C88.5039 186.299 86.3967 186.267 84.2863 186.254C83.9954 189.656 83.8161 193.078 83.5658 196.494C83.4881 197.552 83.3764 198.604 83.2682 199.659C85.1758 199.258 87.0867 198.825 88.9841 198.367C91.558 197.749 94.1115 197.026 96.6414 196.147C96.7699 198.116 96.8883 200.083 96.9864 202.043C92.4035 204.862 87.3099 206.643 82.2164 207.866C81.8646 210.184 81.4892 212.501 81.0969 214.796L80.992 215.388H97.4531C97.4328 214.527 97.4091 213.649 97.3821 212.776C97.3347 211.102 97.284 209.414 97.2231 207.705Z" fill="#A7C81D"/>
<path d="M63.7597 166.444L64.6594 165.607C65.028 165.275 65.4035 164.97 65.7755 164.692L66.1509 164.409C66.4655 164.19 66.7766 163.993 67.0912 163.804L67.3482 163.652C67.6898 163.458 68.028 163.279 68.3663 163.12L68.3933 163.105C73.311 160.792 77.6808 162.051 77.6808 162.051C77.6808 162.051 80.0145 163.177 81.9187 167.036C85.5275 167.405 89.1329 167.861 92.745 168.26C91.8893 164.764 90.8578 161.441 89.6402 158.339L89.4542 157.855L89.3933 157.717C89.0551 156.883 88.6965 156.067 88.3313 155.269L88.1419 154.839H88.125C83.9615 154.113 79.6966 154.274 75.5162 154.991C73.9198 155.269 72.3369 155.619 70.7778 156.035C65.0483 157.573 59.2783 159.608 54.063 163.145C52.4734 165.655 50.992 168.418 49.6323 171.399C54.0393 169.493 58.5072 168.067 63.063 167.233L63.7597 166.444Z" fill="#353535"/>
<path d="M52.5445 181.108C50.0856 181.937 47.6369 182.78 45.1578 183.452C44.6572 185.147 44.1769 186.864 43.7542 188.625C46.8861 188.733 50.0112 188.398 53.1329 187.994C54.1205 185.245 55.1386 182.561 56.1566 180.059C54.9492 180.356 53.7451 180.705 52.5445 181.108Z" fill="#353535"/>
<path d="M84.2862 186.255C86.3967 186.268 88.5038 186.3 90.6109 186.393C92.3527 186.464 94.0912 186.554 95.8296 186.628C95.6334 184.806 95.417 183 95.1701 181.211C91.6425 180.484 88.0945 179.857 84.5331 179.382C84.6143 180.248 84.6819 181.117 84.7259 181.991C84.5466 183.407 84.408 184.829 84.2862 186.255Z" fill="#353535"/>
<path d="M46.4361 208.472C47.1329 206.163 47.9581 203.49 48.8713 200.618C46.4835 200.299 44.0348 199.843 41.8398 198.664C41.6706 199.847 41.5185 201.039 41.3899 202.235L41.3866 202.253C41.258 203.455 41.1464 204.661 41.0585 205.868L41.0348 206.225C42.7699 207.202 44.5861 207.92 46.4361 208.472Z" fill="#353535"/>
<path d="M82.2163 207.866C87.3099 206.643 92.4035 204.862 96.9863 202.043C96.8882 200.083 96.7699 198.116 96.6413 196.147C94.1115 197.026 91.5579 197.749 88.9841 198.367C87.0867 198.825 85.1757 199.258 83.2682 199.659C82.9908 202.408 82.6289 205.142 82.2163 207.866Z" fill="#353535"/>
<path d="M81.0969 214.796C81.4892 212.501 81.8646 210.184 82.2163 207.866C82.629 205.142 82.9909 202.408 83.2682 199.659C83.3764 198.604 83.488 197.552 83.5658 196.494C83.8161 193.078 83.9954 189.656 84.2862 186.254C84.408 184.829 84.5467 183.407 84.7259 181.99C84.682 181.117 84.6143 180.247 84.5331 179.382C84.4587 178.575 84.364 177.773 84.249 176.975C84.5331 181.903 83.9615 188.362 81.7834 196.816L81.7428 196.974L80.3866 202.694L78.5839 210.306L77.3832 215.388H80.992L81.0969 214.796Z" fill="#6B7724"/>
<path d="M57.2761 177.405C58.0641 175.591 58.8421 173.939 59.6098 172.478C66.7361 179.767 75.2051 183.556 83.8466 186.195C83.691 187.42 83.4982 188.702 83.258 190.047C73.9841 188.245 64.8116 185.089 57.2761 177.405ZM48.5568 201.608C48.9965 200.223 49.4599 198.783 49.9402 197.319C57.0833 207.271 68.2783 210.081 78.6989 209.826L78.5839 210.306L80.3866 202.694C70.125 201.783 59.62 199.978 52.6019 189.497C53.2243 187.725 53.8635 185.98 54.5094 184.268C61.6492 194.369 71.8939 195.122 81.7428 196.974L81.7834 196.816C83.9615 188.362 84.5331 181.903 84.249 176.975C83.992 172.501 83.0348 169.295 81.9187 167.035C80.0145 163.177 77.6808 162.051 77.6808 162.051C77.6808 162.051 73.311 160.792 68.3933 163.105C73.2028 166.955 78.4959 169.408 83.6098 172.361C83.9007 173.81 84.1273 175.419 84.2186 177.265C81.8747 176.24 79.5038 175.311 77.1431 174.312C72.4384 172.316 68.0754 169.546 63.7598 166.444L63.063 167.233C62.3494 168.049 61.6526 168.951 60.9897 170.017C59.4576 172.478 57.8071 176.019 56.1566 180.059C55.1385 182.561 54.1205 185.245 53.1329 187.994C51.6076 192.238 50.1498 196.61 48.8714 200.618C47.9582 203.49 47.1329 206.163 46.4362 208.472C45.4824 211.646 44.7688 214.111 44.4069 215.388C44.691 214.393 45.178 212.695 45.8342 210.498C47.2581 212.286 48.7597 213.914 50.3325 215.388H74.8364C65.2919 214.569 54.2524 211.811 48.5568 201.608Z" fill="#CDE319"/>
<path d="M68.3663 163.12C68.0281 163.279 67.6899 163.458 67.3483 163.652L67.0912 163.804C66.7767 163.993 66.4655 164.19 66.151 164.409L65.7755 164.692C65.4035 164.97 65.0281 165.275 64.6594 165.607L63.7598 166.444C68.0754 169.546 72.4384 172.317 77.1431 174.313C79.5038 175.311 81.8748 176.24 84.2186 177.266C84.1273 175.419 83.9007 173.81 83.6098 172.362C78.4959 169.408 73.2028 166.955 68.3933 163.105L68.3663 163.12Z" fill="#353535"/>
<path d="M83.258 190.047C83.4981 188.702 83.691 187.42 83.8465 186.195C75.2051 183.556 66.736 179.767 59.6098 172.478C58.842 173.939 58.0641 175.591 57.2761 177.406C64.8116 185.089 73.984 188.245 83.258 190.047Z" fill="#353535"/>
<path d="M54.5094 184.268C53.8634 185.981 53.2243 187.725 52.6019 189.497C59.62 199.978 70.125 201.783 80.3866 202.695L81.7428 196.974C71.8939 195.122 61.6492 194.369 54.5094 184.268Z" fill="#353535"/>
<path d="M78.6988 209.826C68.2783 210.081 57.0833 207.271 49.9401 197.319C49.4598 198.783 48.9964 200.223 48.5568 201.608C54.2524 211.811 65.2918 214.569 74.8364 215.388H77.3831L78.5838 210.306L78.6988 209.826Z" fill="#353535"/>
<path d="M45.8342 210.498C45.178 212.695 44.691 214.393 44.4069 215.388H50.3325C48.7597 213.914 47.2581 212.286 45.8342 210.498Z" fill="#353535"/>
</svg>
