<svg width="133" height="211" viewBox="0 0 133 211" fill="none" xmlns="http://www.w3.org/2000/svg">
<path d="M61.0461 135.91C60.9007 135.23 60.7552 134.541 60.603 133.856C59.054 134.733 57.4678 135.51 55.8443 136.169C55.5129 136.304 55.4892 135.648 55.6989 135.445C57.1836 133.994 58.567 132.361 59.8759 130.63L59.7981 130.29C57.6944 131.846 55.4892 133.058 53.1825 134.054L52.5095 133.939C50.7947 134.807 49.0563 135.551 47.2231 135.763L46.4317 136.377L46.4351 136.055L47.2265 134.94C46.4757 135.348 45.4644 135.945 44.4159 136.41C43.0867 136.386 41.7609 136.222 40.4317 136.395L40.6177 136.066C43.7226 133.833 45.9243 130.189 47.5377 125.967C46.2761 128.118 44.8725 130.116 43.2795 131.879C41.5106 133.83 39.62 135.836 37.5264 137.111C36.8398 137.525 36.1701 138.506 35.4497 137.946L35.3618 137.534C36.9683 133.926 38.2062 130.39 39.1904 126.709C37.9492 128.136 36.6436 129.492 35.284 130.745C34.7631 131.543 34.2355 132.338 33.6673 133.1C32.9638 133.93 32.2096 134.683 31.4148 135.366C32.9131 135.156 34.2186 135.404 34.7699 136.899C35.2299 138.14 36.3156 141.748 37.6346 146.297C42.7553 142.89 52.2896 138.37 59.0202 137.484C59.7203 137.014 60.3967 136.487 61.0461 135.91Z" fill="#E3BA8E"/>
<path d="M40.5636 119.861C39.1803 123.945 37.4148 127.489 35.284 130.745C36.6436 129.492 37.9492 128.136 39.1904 126.709C39.8567 124.207 40.408 121.636 40.8612 118.933L40.5636 119.861Z" fill="#F0CDA9"/>
<path d="M25.9255 134.898C27.3088 132.415 28.5805 129.816 29.6357 127.049C31.6515 121.756 33.302 116.077 33.9548 110.16C34.7192 103.22 34.824 95.9721 33.9074 89.0396C33.735 87.718 33.5218 86.4414 33.2851 85.1735C32.3922 81.5157 31.2795 77.9347 29.9165 74.4055C26.2333 64.8839 20.9401 54.4139 19.2795 43.6084C19.1949 50.7824 20.5343 58.4485 22.8105 64.6044C23.1656 65.2659 23.47 65.9673 23.7372 66.6756L23.3652 66.4548L23.1453 66.1142C22.364 64.8803 21.4948 63.7505 20.7034 62.5295C18.877 59.6875 17.0743 56.6265 15.8161 53.2516C14.7913 50.5028 14.0709 47.693 13.6244 44.8652C13.4756 46.1276 13.3539 47.3845 13.2727 48.6166C12.9311 53.9172 12.5388 61.5884 14.6797 66.2289L14.3314 66.5966C12.6944 63.9158 11.7237 60.7167 11.1859 57.3275V57.586C11.1758 62.2912 13.5433 67.0878 13.7192 71.7573C13.8409 74.983 12.7857 77.9489 11.2705 80.6155C10.9289 81.5979 10.5298 82.5752 10.0461 83.5815C8.89278 85.9736 7.64814 88.6989 5.90631 90.4117C5.11826 91.1879 4.1814 91.8209 3.41703 92.6619L3.24115 93.6627L3.32232 93.121C5.67632 96.3164 9.31894 97.1055 12.6233 97.3617C11.5681 98.9449 10.3539 100.231 9.04838 101.366L9.06526 101.502C9.06526 101.502 9.04836 102.559 8.43957 104.212C8.08106 105.194 7.36742 107.219 7.3911 108.573C9.53541 110.5 11.9469 111.363 14.4666 111.786L13.8105 111.996C12.3223 112.428 11.0405 112.584 9.7045 113.425L10.1307 113.108C9.5354 113.475 9.08221 113.993 9.09573 114.746C9.14308 117.492 10.3573 116.73 10.8443 119.487C11.93 122.647 12.2479 126.352 12.9007 129.78C14.5072 133.291 16.824 136.11 19.7361 136.758C21.4881 137.143 23.196 137.134 24.8702 136.845C25.2321 136.202 25.5906 135.565 25.9255 134.898Z" fill="#F0CDA9"/>
<path d="M13.8105 111.996L14.4667 111.786C11.947 111.363 9.53545 110.5 7.39114 108.573L7.40803 108.926C7.7361 111.339 11.4261 112.286 12.9819 112.184L12.9176 112.217L12.8838 112.225L12.5591 112.29L12.3799 112.328L12.2209 112.36L11.8252 112.451L11.7778 112.46L11.3246 112.589L11.2029 112.631C10.868 112.736 10.5298 112.878 10.222 113.052L10.1307 113.108L9.70455 113.425C11.0405 112.584 12.3224 112.428 13.8105 111.996Z" fill="#D9B288"/>
<path d="M12.6233 97.3618C9.31894 97.1057 5.67633 96.3165 3.32233 93.1211L3.24116 93.6628L3.23777 93.6857L3.2175 94.1627L3.231 94.4193L3.2547 94.7365L3.38661 95.3663L3.66054 96.0994C4.35727 97.0409 5.25694 97.785 6.03146 98.2941C6.8973 98.8629 8.9503 99.781 9.04838 101.366C10.3539 100.231 11.5681 98.9451 12.6233 97.3618Z" fill="#D9B288"/>
<path d="M2.21637 40.0829C2.20284 40.793 2.83196 40.6457 3.0518 40.2426C4.87142 36.8732 6.97512 33.9628 9.29192 31.4523C6.92439 37.7555 5.72033 44.8097 6.42045 51.88C6.50838 52.7783 7.26936 52.339 7.37759 51.6826C8.45313 45.2509 10.381 39.4246 13.0563 34.4127C12.7079 36.4192 12.4779 38.4707 12.3122 40.5685C12.2412 41.449 12.9954 41.4366 13.2119 40.7338C14.098 37.8505 15.3325 35.3776 16.8037 33.2187C16.2829 35.8867 16.1273 38.6823 16.4148 41.555C16.5061 42.4497 17.2637 42.0196 17.3754 41.3577C17.9639 37.7821 19.2085 35.0223 21.0586 32.7147C20.0405 43.1617 24.2716 54.29 28.5704 62.5529C31.8714 68.8969 35.8082 74.5295 37.9762 81.8454C40.5399 90.4851 39.3832 99.6533 38.1217 108.49C37.9898 109.441 38.7778 109.233 39.0213 108.65C41.4058 103.008 43.3438 97.0766 44.3889 90.9116C45.5557 101.375 44.886 112.539 41.6527 121.835C41.4328 122.471 41.9469 123.051 42.3291 122.513C46.6583 116.376 49.9154 108.605 51.7857 100.263C51.6268 106.208 50.6493 112.13 49.063 117.66C48.8703 118.331 49.3167 118.828 49.7361 118.34C54.3325 112.979 56.5343 104.621 57.0585 96.0401C57.4069 99.639 57.4069 103.321 57.248 106.925C57.0822 110.698 56.6831 114.535 55.9763 118.189C55.0326 123.068 52.4013 125.882 50.2164 129.648C49.9323 130.134 50.2062 131.06 50.7 130.611C57.6267 124.216 62.5546 115.376 65.1454 104.55C65.4295 103.367 65.7068 102.15 65.9706 100.907C67.1848 108.467 66.4204 116.757 64.7564 123.963C64.638 124.487 65.0439 124.828 65.3618 124.57C69.762 121.044 71.9063 114.008 73.638 107.805C74.1284 106.057 74.5005 104.276 74.8116 102.481C74.8353 105.501 74.744 108.517 74.4802 111.515C74.4159 112.254 75.0179 112.46 75.3054 111.859C78.62 104.895 79.4757 95.5957 78.4137 86.9146C80.2975 94.9572 80.2603 103.941 79.452 112.331C79.3877 112.969 79.8206 113.24 80.169 112.828C86.6628 105.171 88.0597 90.9263 86.0168 79.1057C86.6933 79.9233 87.3325 80.818 87.8973 81.86C88.2153 82.4481 88.824 81.7095 88.8003 81.1568C88.5264 74.8862 86.0946 67.8319 81.5151 65.5601C78.8466 64.2279 75.5896 65.09 72.8838 65.6873C68.7947 66.5875 64.8545 67.4179 60.7012 67.5611C52.6346 67.8411 44.8286 65.6785 37.7564 60.3224C33.0991 56.7913 27.0044 50.0025 25.7699 42.2202C26.3145 43.2673 26.8827 44.2735 27.4746 45.2329C26.5749 42.9735 25.8139 40.5832 25.1544 38.1677L25.1612 38.1585C26.1386 41.3902 27.2581 44.347 28.6279 46.981C32.6053 52.7246 37.6346 56.65 43.9187 58.219C51.3866 60.0731 61.5941 61.8556 67.8105 54.4782C68.0946 54.1376 68.1792 53.3021 67.6786 53.2608C58.4655 52.592 49.4452 50.3183 40.9221 45.4446C39.3427 44.5352 37.8274 43.4789 36.3528 42.346C29.6459 38.3417 23.3584 32.3506 21.5084 23.496L21.5625 23.4602C22.9052 29.1157 26.284 33.3335 30.0112 36.4821C34.6854 39.6454 40.0056 41.4403 44.9266 42.6577C49.2795 43.7355 53.7271 44.5476 58.1307 45.0714C62.2908 45.5625 67.2085 45.821 70.8781 42.6613C71.1453 42.4318 71.4227 41.7611 71.0845 41.4279C68.1115 38.462 64.6549 36.9701 61.2085 35.3542C58.523 34.0831 55.5941 33.9536 52.8951 32.7918C56.1285 33.0392 59.2942 33.9073 62.47 34.8952C65.5816 35.8582 69.2953 37.7408 72.5219 37.3176C73.408 37.2028 74.0134 35.6572 73.8342 34.5545C73.381 31.8057 71.4058 29.858 69.85 28.2334C64.5163 22.6248 57.691 19.6497 51.2987 17.0193C46.6211 15.0913 41.8015 14.0318 36.9447 13.4883C40.3404 12.7263 43.7564 12.2585 47.2705 12.5399C49.2085 12.6905 51.1701 12.9934 53.1115 13.3845C48.6639 11.9463 44.098 10.9833 39.5388 11.037C36.4069 11.0746 33.2615 11.4694 30.2615 12.7318C29.7034 12.9668 29.1656 13.2321 28.638 13.5209L27.8094 13.985C26.2198 14.9123 24.691 15.9718 23.0879 16.9725L23.0777 16.9009C24.691 15.8483 26.2502 14.8654 27.8094 13.985L28.638 13.5209C31.753 11.855 34.9086 10.6982 38.5614 10.5279C44.5614 10.2483 50.585 11.1931 56.3923 13.2409C58.753 14.0768 61.1442 15.0215 63.4982 16.1333C63.8297 16.1476 64.1679 16.1389 64.5129 16.092C64.8139 16.0544 65.1555 15.6385 65.1115 15.1882C64.8748 12.6997 63.5659 10.9635 61.9931 9.66534C55.9492 6.70861 49.8376 5.09275 43.2186 4.80768L43.2322 4.74479C50.1825 4.56944 56.8657 6.03426 63.3122 9.09153C65.5681 9.69243 67.7801 10.5371 69.9717 11.7077C72.7891 13.2051 74.9571 16.0094 77.6797 17.5573C79.0833 18.3551 80.6561 18.5489 81.4678 16.4276C82.9357 12.5849 80.1555 8.94464 77.9977 6.56125C72.6978 3.90932 66.9379 2.44955 61.7158 1.53145C51.6606 -0.236351 41.7372 0.281914 31.9627 4.07779C26.4565 6.22247 19.2355 10.1749 15.6639 17.152C9.81615 19.8379 5.12167 26.8889 2.76428 34.3985C3.03824 33.5125 3.35278 32.6449 3.691 31.7823C2.81163 34.3663 2.2671 37.1206 2.21637 40.0829Z" fill="#432917"/>
<path d="M77.9977 6.56155C79.753 7.4388 81.4542 8.45007 83.0675 9.6156C81.4542 8.44457 79.753 7.4388 77.9977 6.56155Z" fill="#432917"/>
<path d="M83.2671 9.75372C84.0146 10.2949 84.735 10.8816 85.4385 11.4875C84.735 10.8816 84.0112 10.2986 83.2671 9.75372Z" fill="#432917"/>
<path d="M81.4678 16.4279C80.656 18.5491 79.0833 18.3554 77.6797 17.5576C74.957 16.0097 72.7891 13.2053 69.9717 11.7079C67.7801 10.5373 65.5681 9.69269 63.3122 9.09179C65.2028 9.99199 67.0731 11.0106 68.9232 12.1849C76.4519 16.9691 82.3978 24.4934 86.3448 34.3074C86.9875 31.5944 87.9818 29.0141 89.426 27.5419L90.2445 26.9034C89.8691 23.2167 89.5072 19.6123 87.8499 16.2575L87.9007 16.2126C89.5613 19.1909 90.4271 22.8578 90.9108 26.5949C92.5106 26.1358 94.0833 27.3569 95.2536 29.1486C95.815 28.8309 96.3832 28.5371 96.9548 28.2805L97.1306 28.2016C97.6786 27.9541 98.2299 27.7388 98.7812 27.5506C98.169 26.5628 97.523 25.5942 96.8262 24.6673C95.656 23.107 94.3167 21.8625 92.9604 20.6562C91.3606 18.158 89.6493 15.7948 87.8499 13.8292C87.2039 13.1227 86.5207 12.4667 85.8206 11.8406L85.4384 11.4876C84.7349 10.8816 84.0145 10.295 83.2671 9.75373L83.0675 9.61556C81.4542 8.45003 79.753 7.43876 77.9976 6.56151C80.1555 8.9449 82.9356 12.5851 81.4678 16.4279Z" fill="#432917"/>
<path d="M86.3448 34.3074C82.3978 24.4934 76.4519 16.9691 68.9232 12.1849C67.0731 11.0106 65.2028 9.99199 63.3122 9.09179C65.5681 9.69269 67.7801 10.5373 69.9717 11.7079C72.7891 13.2053 74.957 16.0097 77.6797 17.5576C78.2648 17.8872 78.877 18.1116 79.4486 18.1116C80.2569 18.1116 80.9909 17.6668 81.4678 16.4279C81.7552 15.6746 81.877 14.9304 81.877 14.2061C81.8736 11.208 79.7327 8.47667 77.9976 6.56151C79.753 7.43876 81.4542 8.45003 83.0675 9.61556L83.2671 9.75373C84.0145 10.295 84.7349 10.8816 85.4384 11.4876L85.8206 11.8406C86.5207 12.4667 87.2039 13.1227 87.8499 13.8292C89.6493 15.7948 91.3606 18.158 92.9604 20.6562C94.3167 21.8625 95.656 23.107 96.8262 24.6673C97.523 25.5942 98.169 26.5628 98.7812 27.5506C98.2299 27.7388 97.6786 27.9541 97.1306 28.2016L96.9548 28.2805C96.3798 28.5334 95.8082 28.8167 95.2434 29.1339C95.24 29.1252 95.2332 29.116 95.2299 29.1073C95.2231 29.1018 95.2163 29.0926 95.2096 29.0839C95.1961 29.0604 95.1825 29.037 95.1656 29.0141C95.1622 29.0104 95.1588 29.0049 95.1555 28.9962C95.1487 28.9925 95.1453 28.987 95.1419 28.9778C94.1577 27.5419 92.9131 26.509 91.6143 26.498C91.6109 26.498 91.6042 26.498 91.5974 26.498C91.3674 26.498 91.1408 26.5302 90.9108 26.5949C90.4271 22.8578 89.5613 19.1909 87.9007 16.2126L87.8499 16.2575C89.5072 19.6123 89.8691 23.2167 90.2445 26.9034L89.426 27.5419C87.9818 29.0141 86.9875 31.5944 86.3448 34.3074Z" fill="#322117"/>
<path d="M101.21 85.3172C101.264 88.4245 101.555 91.5143 102.143 94.5431C102.546 96.591 103.026 98.5883 103.621 100.531C103.922 98.7444 104.213 96.9619 104.484 95.1725C103.543 92.8625 102.664 90.5085 101.957 88.0572C101.707 87.1983 101.453 86.2766 101.21 85.3172Z" fill="#432917"/>
<path d="M103.621 100.531C103.026 98.5883 102.546 96.591 102.143 94.5431C101.555 91.5143 101.264 88.4245 101.21 85.3172C101.453 86.2766 101.707 87.1983 101.957 88.0572C102.664 90.5085 103.543 92.8625 104.484 95.1725C104.213 96.9619 103.922 98.7444 103.621 100.531Z" fill="#322117"/>
<path d="M85.7463 37.5527C85.8207 37.0111 85.9086 36.4643 86.0101 35.9084C83.7237 31.0581 81.2682 26.2973 78.1837 22.3215C74.8049 17.9697 70.9526 14.8064 66.7046 12.2261C65.1352 11.2722 63.5659 10.4312 61.9932 9.66548C63.5659 10.9637 64.8748 12.6998 65.1116 15.1883C65.1555 15.6386 64.8139 16.0545 64.5129 16.0922C64.1679 16.139 63.8297 16.1477 63.4983 16.1335C66.7215 17.6575 69.8703 19.5029 72.7384 21.8716C77.815 26.0623 81.9278 31.4203 85.7463 37.5527Z" fill="#432917"/>
<path d="M85.7463 37.5527C81.9278 31.4203 77.815 26.0623 72.7384 21.8716C69.8703 19.5029 66.7215 17.6575 63.4983 16.1335C63.5896 16.139 63.6843 16.139 63.7756 16.139C64.0191 16.139 64.2626 16.1243 64.5129 16.0922C64.797 16.0545 65.1183 15.6799 65.115 15.2622C65.115 15.2388 65.115 15.2099 65.1116 15.1883C64.8748 12.6998 63.5659 10.9637 61.9932 9.66548C63.5659 10.4312 65.1352 11.2722 66.7046 12.2261C70.9526 14.8064 74.8049 17.9697 78.1837 22.3215C81.2682 26.2973 83.7237 31.0581 86.0101 35.9084C85.9086 36.4643 85.8207 37.0111 85.7463 37.5527Z" fill="#322117"/>
<path d="M35.284 130.745C37.4148 127.489 39.1803 123.945 40.5636 119.861L40.8612 118.934C40.408 121.636 39.8567 124.208 39.1905 126.709C38.2062 130.39 36.9683 133.927 35.3618 137.534L35.4497 137.946C36.1701 138.506 36.8398 137.525 37.5264 137.111C39.62 135.836 41.5106 133.83 43.2795 131.879C44.8725 130.116 46.2761 128.118 47.5377 125.967C45.9244 130.189 43.7226 133.833 40.6177 136.066L40.4317 136.395C41.7609 136.222 43.0867 136.387 44.4159 136.41C45.4644 135.945 46.4757 135.348 47.2265 134.94L46.4351 136.055L46.4317 136.377L47.2231 135.763C49.0563 135.551 50.7947 134.807 52.5095 133.939L53.1826 134.054C55.4892 133.058 57.6944 131.846 59.7981 130.29L60.6064 129.693L59.8759 130.631C58.567 132.361 57.1837 133.994 55.6989 135.445C55.4892 135.648 55.5129 136.304 55.8443 136.169C57.4678 135.51 59.054 134.733 60.6031 133.856C62.4125 132.829 64.1713 131.667 65.8488 130.328C64.3911 132.435 62.8049 134.353 61.0461 135.91C60.3968 136.487 59.7203 137.014 59.0202 137.484C60.0856 137.341 61.0766 137.296 61.9729 137.35C67.2288 134.448 71.8624 128.38 75.4204 122.963L75.9074 122.188C74.8353 124.749 73.7023 127.259 72.4001 129.634C71.1961 131.823 69.5185 133.265 68.2028 135.192C72.3595 133.43 76.0157 130.346 79.178 126.094C79.5061 125.653 79.8139 125.543 80.0608 125.631C81.4035 123.357 82.5941 120.897 83.6662 118.434C83.9232 117.831 84.1735 117.221 84.4103 116.601C83.7541 119.425 82.9796 122.197 82.1036 124.943C81.5422 126.705 80.8624 128.412 80.1521 130.078L80.1386 130.231C79.8206 131.672 79.4351 133.082 78.9616 134.421C81.1769 132.453 83.1149 129.895 84.762 126.935C84.346 128.48 83.8861 130.001 83.3753 131.497C83.0946 132.314 82.5332 133.071 82.523 133.903C83.8488 133.738 85.222 133.021 86.4971 132.085C87.9616 130.51 89.284 128.522 90.3021 126.967C91.2525 125.508 92.1081 123.96 92.9233 122.386C92.9266 126.333 93.2445 130.401 94.3505 133.83C94.4385 130.684 94.8985 127.559 95.7609 124.675C95.8894 122.491 96.1126 120.306 96.5286 118.028C96.9142 115.921 97.4181 113.87 97.9694 111.84C98.9232 115.647 100.127 119.355 101.49 122.848C101.48 120.655 101.599 118.455 101.852 116.294C101.869 113.802 102.086 111.289 102.373 108.847C102.606 106.869 102.911 104.91 103.229 102.953C102.569 102.132 101.954 101.269 101.399 100.342L101.179 99.7632C99.647 95.5399 98.6121 91.0376 97.8782 86.4328C97.6414 84.9552 97.4655 83.5082 97.3099 82.0572C97.1341 82.9487 96.9379 83.8291 96.7113 84.7114C95.5985 88.9429 94.1003 92.698 90.9785 94.3781C91.7395 92.7677 92.2874 90.9228 92.629 88.9755C95.7068 79.0591 94.6177 67.7587 90.0315 58.4308C88.8883 56.103 87.6267 53.7522 86.7981 51.1861C86.5546 52.8341 86.1994 54.45 85.5906 55.8179C84.1769 58.967 81.0281 57.7455 78.9379 56.0153C71.0777 63.0066 61.5433 65.4166 52.0258 63.6773C45.691 62.521 39.8331 59.9673 34.3133 55.4879C31.266 53.0136 29.1217 49.3467 27.4746 45.2332C26.8827 44.2737 26.3145 43.2675 25.7699 42.2204C27.0044 50.0027 33.0991 56.7916 37.7564 60.3226C44.8286 65.6788 52.6346 67.8413 60.7012 67.5613C64.8545 67.4181 68.7947 66.5877 72.8838 65.6875C75.5895 65.0903 78.8466 64.2282 81.5151 65.5603C86.0946 67.8322 88.5264 74.8864 88.8003 81.157C88.824 81.7097 88.2153 82.4483 87.8973 81.8602C87.3325 80.8182 86.6932 79.9235 86.0168 79.106C88.0596 90.9265 86.6628 105.171 80.169 112.828C79.8206 113.24 79.3877 112.97 79.452 112.331C80.2603 103.941 80.2975 94.9574 78.4137 86.9148C79.4757 95.5959 78.6199 104.895 75.3054 111.86C75.0179 112.46 74.4159 112.254 74.4802 111.515C74.744 108.517 74.8353 105.501 74.8116 102.482C74.5005 104.277 74.1284 106.057 73.638 107.805C71.9063 114.008 69.762 121.044 65.3618 124.57C65.0439 124.828 64.638 124.487 64.7564 123.963C66.4204 116.757 67.1848 108.467 65.9706 100.907C65.7068 102.15 65.4295 103.367 65.1453 104.551C62.5546 115.376 57.6267 124.216 50.7 130.611C50.2062 131.061 49.9323 130.134 50.2164 129.648C52.4013 125.882 55.0326 123.069 55.9762 118.189C56.6831 114.535 57.0822 110.698 57.248 106.925C57.4069 103.321 57.4069 99.6392 57.0585 96.0403C56.5343 104.621 54.3325 112.979 49.7361 118.34C49.3167 118.828 48.8703 118.331 49.063 117.661C50.6493 112.13 51.6267 106.208 51.7857 100.264C49.9154 108.605 46.6583 116.377 42.3291 122.513C41.9469 123.051 41.4328 122.471 41.6527 121.835C44.886 112.539 45.5557 101.375 44.3889 90.9118C43.3438 97.0768 41.4058 103.009 39.0213 108.65C38.7778 109.233 37.9898 109.441 38.1217 108.49C39.3832 99.6535 40.5399 90.4853 37.9762 81.8456C35.8082 74.5297 31.8714 68.8972 28.5704 62.5531C24.2716 54.2902 20.0405 43.1619 21.0586 32.7149C19.2085 35.0225 17.9639 37.7823 17.3754 41.3579C17.2637 42.0198 16.5061 42.4499 16.4148 41.5553C16.1273 38.6825 16.2829 35.8869 16.8037 33.2189C15.3325 35.3778 14.098 37.8507 13.2119 40.734C12.9954 41.4368 12.2412 41.4492 12.3122 40.5688C12.4779 38.4709 12.7079 36.4194 13.0563 34.4129C10.381 39.4248 8.45313 45.2511 7.37759 51.6828C7.26936 52.3392 6.50838 52.7786 6.42045 51.8802C5.72033 44.8099 6.92439 37.7557 9.29192 31.4525C6.97512 33.963 4.87142 36.8734 3.0518 40.2428C2.83196 40.6459 2.20284 40.7932 2.21637 40.0831C2.2671 37.1208 2.81163 34.3665 3.691 31.7825C3.35278 32.6451 3.03824 33.5127 2.76428 34.3987C1.19495 39.3803 0.126178 44.7828 0.521893 50.2271C0.893934 55.3322 2.20963 60.093 4.01572 64.5399L4.17806 64.3751C1.95596 57.9539 2.57153 50.3506 4.61437 43.8005C4.25924 47.5784 4.27614 51.6273 4.72935 55.0435C5.06081 57.5719 5.55123 60.1555 6.38663 62.4796L6.69777 63.4156C7.5264 64.9076 8.41594 66.3526 9.33928 67.7408L9.34605 67.5113C7.68201 60.5645 8.97062 52.2695 10.7361 45.4659C10.5298 49.3678 10.5771 53.4726 11.1859 57.3277C11.7237 60.7169 12.6944 63.916 14.3314 66.5969L14.6797 66.2292C12.5388 61.5886 12.9312 53.9174 13.2728 48.6168C13.3539 47.3847 13.4757 46.1278 13.6245 44.8655C14.0709 47.6932 14.7914 50.503 15.8162 53.2518C17.0743 56.6268 18.877 59.6877 20.7034 62.5297C21.4948 63.7508 22.3641 64.8805 23.1453 66.1144L23.3652 66.455L23.7372 66.6758C23.47 65.9675 23.1656 65.2661 22.8105 64.6046C20.5343 58.4487 19.195 50.7826 19.2795 43.6086C20.9402 54.4141 26.2333 64.8841 29.9165 74.4058C31.2795 77.9349 32.3922 81.516 33.2851 85.1737C33.5219 86.4416 33.735 87.7182 33.9075 89.0398C34.8241 95.9724 34.7192 103.22 33.9548 110.16C33.3021 116.077 31.6516 121.756 29.6358 127.05C28.5805 129.816 27.3088 132.415 25.9255 134.898C25.5907 135.565 25.2321 136.202 24.8702 136.846C24.2987 137.864 23.7068 138.85 23.0642 139.774C26.0304 138.92 28.9188 137.52 31.4148 135.366C32.2096 134.683 32.9638 133.93 33.6673 133.1C34.2355 132.338 34.7632 131.543 35.284 130.745Z" fill="#432917"/>
<path d="M23.0642 139.774C23.7068 138.85 24.2986 137.864 24.8702 136.846C25.2321 136.202 25.5906 135.565 25.9255 134.898C27.3088 132.415 28.5805 129.816 29.6358 127.05C31.6515 121.756 33.3021 116.077 33.9548 110.16C34.3438 106.634 34.5602 103.032 34.5602 99.4276C34.5636 95.9402 34.3573 92.4505 33.9075 89.0398C33.735 87.7182 33.5219 86.4416 33.2851 85.1737C32.3922 81.516 31.2795 77.9349 29.9165 74.4058C26.2333 64.8841 20.9402 54.4141 19.2795 43.6086C19.2761 43.8271 19.2761 44.0529 19.2761 44.2774C19.2795 51.26 20.6053 58.6424 22.8105 64.6046C23.1656 65.2661 23.47 65.9675 23.7372 66.6758L23.3652 66.455L23.1453 66.1144C22.364 64.8805 21.4948 63.7508 20.7034 62.5297C18.877 59.6877 17.0743 56.6268 15.8161 53.2518C14.7913 50.503 14.0709 47.6932 13.6245 44.8655C13.4756 46.1278 13.3539 47.3847 13.2727 48.6168C13.1408 50.6449 13.0021 53.0223 13.0021 55.4415C13.0021 59.3434 13.3606 63.3656 14.6797 66.2292L14.3314 66.5969C12.6944 63.916 11.7237 60.7169 11.1859 57.3277C10.7834 54.7672 10.6245 52.101 10.6245 49.4504C10.6245 48.1109 10.6651 46.7806 10.7361 45.4659C9.54895 50.0385 8.57826 55.2817 8.57488 60.335C8.57149 62.806 8.79811 65.2284 9.34603 67.5113L9.33925 67.7408C8.41592 66.3526 7.52638 64.9076 6.69775 63.4156L6.38661 62.4796C5.55121 60.1555 5.06079 57.5719 4.72933 55.0435C4.48243 53.2018 4.36742 51.1719 4.36742 49.1062C4.36403 47.3397 4.44862 45.5398 4.61435 43.8005C3.47117 47.4582 2.7778 51.4482 2.77442 55.3731C2.77104 58.4754 3.1972 61.5381 4.17803 64.3751L4.0157 64.5399C2.20961 60.093 0.893912 55.3322 0.521872 50.2271C0.464374 49.4615 0.437317 48.699 0.437317 47.9319C0.437317 43.273 1.41477 38.677 2.76426 34.3987C3.03822 33.5127 3.35276 32.6451 3.69098 31.7825C2.81161 34.3665 2.26708 37.1208 2.21635 40.0831C2.21635 40.0868 2.21635 40.0918 2.21635 40.101C2.21297 40.4453 2.36855 40.5834 2.55118 40.5834C2.73382 40.5834 2.94355 40.4453 3.05178 40.2428C4.8714 36.8734 6.9751 33.963 9.2919 31.4525C7.37758 36.547 6.22427 42.1378 6.22089 47.8259C6.22089 49.1759 6.28514 50.5301 6.42043 51.8802C6.45425 52.2424 6.59969 52.3893 6.7688 52.3893C7.0157 52.3893 7.31331 52.0721 7.37757 51.6828C8.45311 45.2511 10.381 39.4248 13.0563 34.4129C12.7079 36.4194 12.4779 38.4709 12.3122 40.5688C12.3088 40.5958 12.3088 40.6193 12.3088 40.6459C12.3088 40.6606 12.3088 40.6693 12.3088 40.6835C12.3088 41.0641 12.4847 41.2486 12.6842 41.2486C12.8838 41.2486 13.1104 41.0691 13.2118 40.734C14.098 37.8507 15.3325 35.3778 16.8037 33.2189C16.4587 34.9904 16.2727 36.8179 16.2727 38.6862C16.2727 39.6364 16.3201 40.5922 16.4148 41.5553C16.452 41.9193 16.5974 42.0607 16.7665 42.0607C17.0134 42.0607 17.3077 41.7526 17.3753 41.3579C17.9638 37.7823 19.2085 35.0225 21.0585 32.7149C20.9537 33.7799 20.9063 34.8453 20.9063 35.9195C20.8996 45.3924 24.7079 55.1293 28.5704 62.5531C31.8714 68.8972 35.8082 74.5297 37.9762 81.8456C39.0957 85.624 39.5083 89.508 39.5083 93.4187C39.5083 98.4453 38.8319 103.523 38.1217 108.49C38.1183 108.523 38.1149 108.549 38.1115 108.573C38.1081 108.614 38.1081 108.655 38.1081 108.691C38.1081 109.012 38.2468 109.147 38.4227 109.147C38.6357 109.147 38.8996 108.949 39.0213 108.65C41.4058 103.009 43.3438 97.0768 44.3889 90.9118C44.7406 94.0572 44.9232 97.2705 44.9232 100.475C44.9198 107.92 43.9119 115.335 41.6526 121.835C41.6459 121.857 41.6391 121.877 41.6357 121.894C41.6121 121.98 41.6019 122.065 41.6019 122.142C41.5986 122.468 41.7812 122.724 42.001 122.724C42.1059 122.724 42.2242 122.665 42.3291 122.513C46.6583 116.377 49.9153 108.605 51.7857 100.264C51.6267 106.208 50.6493 112.13 49.063 117.661C49.0563 117.68 49.0529 117.698 49.0461 117.716C49.0461 117.722 49.0461 117.722 49.0461 117.722C49.0394 117.754 49.0326 117.786 49.0292 117.813C49.0224 117.869 49.0157 117.922 49.0157 117.975C49.0157 118.299 49.1814 118.537 49.3945 118.537C49.4993 118.537 49.6211 118.478 49.7361 118.34C54.3325 112.979 56.5343 104.621 57.0585 96.0403C57.2648 98.1744 57.3494 100.342 57.3494 102.503C57.3494 103.986 57.3122 105.465 57.2479 106.925C57.0822 110.698 56.6831 114.535 55.9762 118.189C55.0326 123.069 52.4012 125.882 50.2164 129.648C50.213 129.651 50.2096 129.661 50.2062 129.669C50.2028 129.669 50.2028 129.675 50.1994 129.68C50.196 129.684 50.196 129.689 50.1927 129.693C50.1284 129.822 50.1014 129.972 50.1014 130.12C50.1014 130.437 50.2366 130.731 50.4463 130.731C50.5207 130.731 50.6053 130.693 50.7 130.611C57.6267 124.216 62.5546 115.376 65.1453 104.551C65.4294 103.367 65.7068 102.15 65.9706 100.907C66.3832 103.477 66.5658 106.131 66.5658 108.797C66.5591 113.979 65.8556 119.208 64.7564 123.963C64.7496 123.992 64.7462 124.019 64.7428 124.046C64.7394 124.078 64.7361 124.111 64.7361 124.143C64.7361 124.451 64.9221 124.657 65.1352 124.657C65.2096 124.657 65.2874 124.631 65.3618 124.57C69.762 121.044 71.9063 114.008 73.638 107.805C74.1284 106.057 74.5004 104.277 74.8116 102.482C74.815 102.761 74.815 103.044 74.815 103.33C74.8184 106.066 74.7203 108.797 74.4802 111.515C74.4768 111.537 74.4768 111.56 74.4768 111.58C74.4768 111.592 74.4734 111.607 74.4734 111.616C74.4734 111.996 74.6628 112.208 74.8725 112.208C75.0247 112.208 75.1904 112.098 75.3054 111.86C77.7406 106.746 78.8466 100.369 78.8432 93.9066C78.8432 91.5682 78.6977 89.2193 78.4136 86.9148C79.5399 91.7206 79.9796 96.8615 79.9796 102.017C79.9762 105.483 79.7766 108.958 79.452 112.331C79.4486 112.346 79.4486 112.354 79.4486 112.364C79.4452 112.392 79.4452 112.425 79.4452 112.446C79.4452 112.81 79.6109 113.025 79.8206 113.025C79.9323 113.025 80.0574 112.961 80.169 112.828C84.8499 107.305 86.8826 98.3681 86.8894 89.379C86.8894 85.8999 86.5884 82.407 86.0168 79.106C86.6932 79.9235 87.3325 80.8182 87.8973 81.8602C87.9819 82.0127 88.0833 82.0751 88.1882 82.0751C88.4824 82.0751 88.8037 81.5894 88.8003 81.1859C88.8003 81.1767 88.8003 81.168 88.8003 81.157C88.5264 74.8864 86.0946 67.8322 81.5151 65.5603C80.4836 65.0457 79.364 64.8575 78.2242 64.8575C78.2208 64.8575 78.2175 64.8575 78.2175 64.8575C78.2107 64.8575 78.2073 64.8575 78.2039 64.8575C76.6955 64.8575 75.1498 65.1839 73.7158 65.5048C73.7124 65.5048 73.7056 65.5048 73.6988 65.5048C73.6414 65.5172 73.5839 65.5314 73.5264 65.5461C73.5129 65.5493 73.496 65.5493 73.4824 65.5548C73.2795 65.6016 73.0799 65.6462 72.8838 65.6875C68.7947 66.5877 64.8545 67.4181 60.7011 67.5613C60.6504 67.565 60.5997 67.565 60.5456 67.565C60.1431 67.5792 59.7406 67.5829 59.3381 67.5829C59.3347 67.5829 59.3347 67.5829 59.3347 67.5829C51.9176 67.5829 44.7473 65.4722 38.1927 60.6471C38.0472 60.5411 37.9018 60.4318 37.7564 60.3226C33.0991 56.7916 27.0044 50.0027 25.7699 42.2204C26.3144 43.2675 26.8827 44.2737 27.4745 45.2332C29.1217 49.3467 31.266 53.0136 34.3133 55.4879C39.833 59.9673 45.691 62.521 52.0258 63.6773C53.9976 64.0363 55.9728 64.219 57.9311 64.219H57.9345C57.9412 64.219 57.9446 64.219 57.9514 64.219C65.3043 64.2135 72.4542 61.6474 78.603 56.3059C78.6301 56.2825 78.6605 56.2591 78.6876 56.2357C78.7315 56.1948 78.7721 56.1585 78.8161 56.1209C78.8567 56.0851 78.8973 56.0474 78.9379 56.0153C80.0845 56.9655 81.5523 57.7602 82.8747 57.7652C82.8781 57.7652 82.8849 57.7652 82.8883 57.7652H82.8916C83.957 57.7652 84.9277 57.2456 85.5602 55.8771C85.5703 55.8592 85.5805 55.8358 85.5906 55.8179C86.1994 54.45 86.5546 52.8341 86.7981 51.1861C87.6267 53.7522 88.8883 56.103 90.0314 58.4308C92.8725 64.2047 94.3708 70.737 94.3708 77.2284C94.3674 81.2217 93.7992 85.2026 92.629 88.9755C92.2874 90.9228 91.7395 92.7677 90.9785 94.3781C94.1002 92.698 95.5985 88.9429 96.7113 84.7114C96.9379 83.8291 97.134 82.9487 97.3099 82.0572C97.4655 83.5082 97.6414 84.9552 97.8781 86.4328C98.6121 91.0376 99.647 95.5399 101.179 99.7632L101.399 100.342C101.954 101.269 102.569 102.132 103.229 102.953C102.911 104.91 102.606 106.869 102.373 108.847C102.086 111.289 101.869 113.802 101.852 116.294C101.609 118.387 101.487 120.517 101.49 122.642C101.49 122.712 101.49 122.78 101.49 122.848C100.127 119.355 98.9232 115.647 97.9694 111.84C97.4181 113.87 96.9142 115.921 96.5286 118.028C96.1126 120.306 95.8894 122.491 95.7609 124.675C94.8984 127.559 94.4384 130.684 94.3505 133.83C93.2445 130.401 92.9266 126.333 92.9232 122.386C92.1081 123.96 91.2524 125.508 90.302 126.967C89.284 128.522 87.9616 130.51 86.4971 132.085C85.222 133.021 83.8488 133.738 82.523 133.903C82.5331 133.071 83.0946 132.314 83.3753 131.497C83.886 130.001 84.346 128.48 84.762 126.935C83.1149 129.895 81.1769 132.453 78.9616 134.421C79.4351 133.082 79.8206 131.672 80.1385 130.231L80.1521 130.078C80.8623 128.412 81.5422 126.705 82.1036 124.943C82.9796 122.197 83.7541 119.425 84.4102 116.601C84.1735 117.221 83.9232 117.831 83.6662 118.434C82.594 120.897 81.4035 123.357 80.0608 125.631C80.01 125.611 79.9559 125.603 79.9018 125.603C79.6853 125.603 79.4384 125.741 79.178 126.094C76.0157 130.346 72.3595 133.43 68.2028 135.192C69.5185 133.265 71.196 131.823 72.4001 129.634C73.7022 127.259 74.8353 124.749 75.9074 122.188L75.4204 122.963C71.8624 128.38 67.2288 134.448 61.9728 137.35C61.7226 137.337 61.4689 137.328 61.2051 137.328C60.5219 137.328 59.7913 137.382 59.0202 137.484C59.7203 137.014 60.3967 136.487 61.0461 135.91C62.8049 134.353 64.3911 132.435 65.8488 130.328C64.1712 131.667 62.4125 132.829 60.603 133.856C59.054 134.733 57.4678 135.51 55.8443 136.169C55.8409 136.169 55.8375 136.169 55.8375 136.169C55.8105 136.18 55.7868 136.184 55.7631 136.189C55.7631 136.189 55.7631 136.189 55.7598 136.189C55.7598 136.189 55.7564 136.189 55.7564 136.184C55.6245 136.18 55.5636 136.023 55.5636 135.849C55.5636 135.693 55.6109 135.533 55.6989 135.445C57.1836 133.994 58.5669 132.361 59.8759 130.631L60.6064 129.693L59.7981 130.29C57.6944 131.846 55.4892 133.058 53.1825 134.054L52.5095 133.939C50.7947 134.807 49.0563 135.551 47.2231 135.763L46.4317 136.377L46.4351 136.055L47.2265 134.94C46.4757 135.348 45.4644 135.945 44.4159 136.41C43.5399 136.395 42.6639 136.317 41.7913 136.317C41.7846 136.317 41.7812 136.317 41.7744 136.317C41.7744 136.317 41.771 136.317 41.7677 136.317C41.3516 136.317 40.9356 136.337 40.5196 136.387C40.4892 136.39 40.4621 136.395 40.4317 136.395L40.6177 136.066C43.7226 133.833 45.9243 130.189 47.5376 125.967C46.2761 128.118 44.8725 130.116 43.2795 131.879C41.5106 133.83 39.62 135.836 37.5264 137.111C37.5196 137.116 37.5129 137.116 37.5061 137.12C37.5027 137.125 37.496 137.125 37.4926 137.129C37.4858 137.134 37.4824 137.14 37.4756 137.14L37.4723 137.143C37.452 137.158 37.4317 137.17 37.4114 137.184C37.3742 137.213 37.3336 137.24 37.2964 137.267C37.2761 137.281 37.2592 137.296 37.2389 137.313C37.222 137.323 37.2085 137.337 37.1949 137.346C37.1882 137.35 37.1848 137.355 37.178 137.358C36.7586 137.699 36.3426 138.112 35.9097 138.117C35.9063 138.117 35.9063 138.117 35.9029 138.117C35.8995 138.117 35.8996 138.117 35.8962 138.117C35.7541 138.117 35.6087 138.07 35.4633 137.961C35.4633 137.961 35.4633 137.961 35.4633 137.956C35.4565 137.956 35.4531 137.952 35.4497 137.946L35.3618 137.534C36.9683 133.927 38.2062 130.39 39.1904 126.709C39.8567 124.208 40.408 121.636 40.8612 118.934L40.5636 119.861C39.1803 123.945 37.4148 127.489 35.284 130.745C34.7631 131.543 34.2355 132.338 33.6673 133.1C32.9638 133.93 32.2096 134.683 31.4148 135.366C28.9187 137.52 26.0303 138.92 23.0642 139.774Z" fill="#322117"/>
<path d="M36.5557 56.0239C41.9537 59.3754 47.4565 61.3732 53.3753 62.0526C62.1791 63.057 70.6515 60.9697 78.1058 55.2495L77.727 54.8262C76.5906 53.4633 74.5647 50.7774 73.9086 48.2256C65.3077 50.7737 56.443 50.5066 47.6425 47.4814C44.2603 46.3251 40.2355 44.6679 36.3528 42.3461C37.8274 43.479 39.3426 44.5353 40.9221 45.4446C49.4452 50.3184 58.4655 52.592 67.6786 53.2609C68.1791 53.3022 68.0946 54.1377 67.8105 54.4783C61.594 61.8557 51.3866 60.0732 43.9187 58.2191C37.6346 56.65 32.6053 52.7247 28.6279 46.9811C30.5997 50.7682 33.0991 53.876 36.5557 56.0239Z" fill="#432917"/>
<path d="M57.576 62.295H57.5726C56.2738 62.295 54.9649 62.2211 53.6459 62.0853C53.6324 62.0797 53.6155 62.0798 53.6019 62.0798C53.5884 62.0742 53.5749 62.0742 53.5647 62.0742C53.5309 62.0706 53.4971 62.0655 53.4666 62.0618C53.4362 62.0618 53.4057 62.0563 53.3753 62.0527C47.4565 61.3733 41.9537 59.3755 36.5557 56.024C33.0991 53.8761 30.5997 50.7683 28.6279 46.9812C32.6053 52.7248 37.6346 56.6501 43.9187 58.2191C47.2333 59.0454 51.0856 59.8524 54.8905 59.8524C59.6594 59.8524 64.3539 58.5813 67.8105 54.4784C67.9492 54.3136 68.0405 54.0322 68.0405 53.7811C68.0405 53.5139 67.9356 53.2844 67.6786 53.261C58.4655 52.5921 49.4452 50.3184 40.9221 45.4447C39.3426 44.5353 37.8274 43.4791 36.3528 42.3461C40.2355 44.668 44.2603 46.3252 47.6425 47.4815C47.6831 47.4958 47.7203 47.5104 47.7575 47.5228C52.5162 49.1437 57.2885 49.9613 62.0303 49.9613C62.0337 49.9613 62.0371 49.9613 62.0405 49.9613C62.0438 49.9613 62.0472 49.9613 62.0506 49.9613C65.9503 49.9613 69.8263 49.4091 73.6515 48.3028C73.6921 48.2904 73.7327 48.2812 73.7733 48.267C73.8206 48.2527 73.8646 48.2399 73.9086 48.2256C74.5647 50.7775 76.5906 53.4634 77.727 54.8263L78.1058 55.2496C71.8488 60.0517 64.8714 62.2914 57.5861 62.295C57.5828 62.295 57.5794 62.295 57.576 62.295Z" fill="#322117"/>
<path d="M33.8364 39.31C38.9976 42.6707 44.3348 45.4071 49.9661 46.9133C58.1172 49.0938 65.9435 49.153 73.7226 47.1607C73.611 45.9483 73.8951 44.8241 74.8522 43.9529C76.6515 42.3085 78.9075 41.2844 80.9435 40.3484C82.3201 39.7099 83.6865 39.2242 85.0867 38.9768L85.2998 38.8331H85.5907L85.6888 38.0298L85.5772 37.9939C81.6809 32.6322 77.7339 27.6369 72.9278 23.7671C67.9627 19.7701 62.514 16.8634 56.9571 14.7385C55.6887 14.256 54.4035 13.8025 53.1115 13.3848C51.1701 12.9936 49.2085 12.6907 47.2705 12.5401C43.7564 12.2587 40.3404 12.7265 36.9447 13.4885C41.8015 14.032 46.6211 15.0915 51.2987 17.0195C57.691 19.6499 64.5163 22.625 69.85 28.2336C71.4058 29.8582 73.381 31.806 73.8342 34.5547C74.0134 35.6574 73.408 37.203 72.5219 37.3178C69.2953 37.741 65.5816 35.8584 62.47 34.8954C59.2942 33.9075 56.1285 33.0394 52.8951 32.792C55.5941 33.9538 58.523 34.0833 61.2085 35.3544C64.6549 36.9703 68.1115 38.4622 71.0845 41.4281C71.4227 41.7614 71.1453 42.432 70.8781 42.6616C67.2085 45.8212 62.2908 45.5627 58.1307 45.0716C53.7271 44.5478 49.2795 43.7357 44.9266 42.6579C40.0056 41.4405 34.6854 39.6456 30.0112 36.4823C31.2694 37.5386 32.5681 38.4801 33.8364 39.31Z" fill="#432917"/>
<path d="M62.4159 48.6022C62.4125 48.6022 62.4092 48.6022 62.4058 48.6022C58.3201 48.6022 54.1871 48.043 49.9661 46.9133C44.3348 45.4072 38.9976 42.6708 33.8364 39.3101C32.5681 38.4801 31.2694 37.5386 30.0112 36.4823C34.6854 39.6457 40.0056 41.4405 44.9266 42.6579C49.2795 43.7358 53.7271 44.5478 58.1307 45.0716C59.4903 45.2332 60.9277 45.3659 62.3753 45.3659C65.3686 45.3659 68.4058 44.7921 70.8781 42.6616C71.0574 42.5055 71.2434 42.1525 71.2401 41.8349C71.2401 41.6843 71.1961 41.5374 71.0845 41.4281C68.1115 38.4622 64.6549 36.9703 61.2085 35.3545C58.523 34.0834 55.5941 33.9539 52.8951 32.792C56.1285 33.0395 59.2942 33.9075 62.47 34.8954C65.2772 35.7635 68.5715 37.3825 71.558 37.3825C71.8827 37.3825 72.204 37.3591 72.5219 37.3178C73.3032 37.2177 73.868 36.0017 73.8646 34.9601C73.8646 34.8165 73.8545 34.6838 73.8342 34.5548C73.381 31.806 71.4058 29.8583 69.85 28.2337C64.5163 22.625 57.691 19.6499 51.2987 17.0196C46.6211 15.0916 41.8015 14.0321 36.9447 13.4886C39.6673 12.8789 42.4001 12.4557 45.1871 12.4557C45.877 12.4557 46.5704 12.4846 47.2705 12.5402C49.2085 12.6907 51.1701 12.9937 53.1115 13.3848C54.4035 13.8025 55.6887 14.2561 56.9571 14.7385C62.514 16.8635 67.9627 19.7702 72.9278 23.7671C77.7339 27.6369 81.6809 32.6323 85.5772 37.994L85.6888 38.0298L85.5907 38.8331H85.2998L85.0867 38.9768C83.6865 39.2242 82.3201 39.7099 80.9435 40.3485C78.9075 41.2845 76.6515 42.3086 74.8522 43.9529C74.0236 44.7094 73.6989 45.6546 73.6989 46.6838C73.6989 46.8399 73.7057 46.9992 73.7226 47.1608C73.5974 47.1929 73.4757 47.22 73.3539 47.2521C73.3167 47.2613 73.2829 47.27 73.2457 47.281C69.6606 48.1578 66.0619 48.6022 62.4261 48.6022C62.4227 48.6022 62.4193 48.6022 62.4159 48.6022Z" fill="#322117"/>
<path d="M25.1611 38.1587L25.1544 38.1679C25.8139 40.5834 26.5749 42.9737 27.4745 45.2331C27.85 45.8336 28.2355 46.4129 28.6279 46.9812C27.2581 44.3472 26.1386 41.3904 25.1611 38.1587Z" fill="#432917"/>
<path d="M28.6279 46.9812C28.2355 46.4129 27.85 45.8336 27.4745 45.2331C26.5749 42.9737 25.8139 40.5834 25.1544 38.1679L25.1611 38.1587C26.1386 41.3904 27.2581 44.3472 28.6279 46.9812Z" fill="#2D1E15"/>
<path d="M53.3753 62.0528C47.4565 61.3735 41.9537 59.3757 36.5557 56.0242C33.0991 53.8763 30.5997 50.7685 28.6279 46.9813C28.2356 46.413 27.85 45.8337 27.4745 45.2333C29.1217 49.3468 31.266 53.0137 34.3133 55.488C39.833 59.9674 45.691 62.5211 52.0258 63.6774C61.5433 65.4168 71.0777 63.0067 78.9379 56.0154L78.1059 55.2497C70.6515 60.9699 62.1791 63.0572 53.3753 62.0528Z" fill="#432917"/>
<path d="M57.9345 64.219C55.9762 64.219 53.9976 64.0363 52.0258 63.6773C45.691 62.521 39.833 59.9673 34.3133 55.4879C31.266 53.0136 29.1217 49.3467 27.4745 45.2332C27.85 45.8336 28.2356 46.4129 28.6279 46.9812C30.5997 50.7684 33.0991 53.8762 36.5557 56.024C41.9537 59.3756 47.4565 61.3733 53.3753 62.0527C54.7857 62.2125 56.1859 62.2951 57.576 62.2951C64.8646 62.2951 71.8454 60.0517 78.1059 55.2496L78.9379 56.0153C78.8973 56.0475 78.8567 56.0851 78.8161 56.1209C78.7721 56.1585 78.7316 56.1948 78.6876 56.2357C78.6605 56.2591 78.6301 56.2825 78.603 56.3059C72.4542 61.6474 65.3043 64.2135 57.9514 64.219C57.9447 64.219 57.9413 64.219 57.9345 64.219Z" fill="#251B14"/>
<path d="M29.7068 36.2847L30.0112 36.4821C26.284 33.3334 22.9052 29.1157 21.5625 23.4602L21.5084 23.496C23.3584 32.3506 29.6459 38.3417 36.3528 42.3459C34.0157 40.5543 31.797 38.5441 29.7068 36.2847Z" fill="#432917"/>
<path d="M36.3528 42.3459C29.6459 38.3417 23.3584 32.3506 21.5084 23.496L21.5625 23.4602C22.9052 29.1157 26.284 33.3334 30.0112 36.4821L29.7068 36.2847C31.797 38.5441 34.0157 40.5543 36.3528 42.3459Z" fill="#2D1E15"/>
<path d="M73.9086 48.2258L73.7225 47.1608C65.9435 49.1531 58.1171 49.0939 49.9661 46.9134C44.3347 45.4072 38.9976 42.6708 33.8364 39.3101C32.5681 38.4802 31.2693 37.5387 30.0112 36.4824L29.7068 36.285C31.7969 38.5445 34.0157 40.5546 36.3528 42.3463C40.2355 44.6682 44.2603 46.3253 47.6425 47.4817C56.4429 50.5068 65.3077 50.774 73.9086 48.2258Z" fill="#432917"/>
<path d="M62.0404 49.9613C57.2952 49.9613 52.5162 49.1492 47.7575 47.5228C47.7203 47.5104 47.6831 47.4957 47.6425 47.4815C44.2603 46.3252 40.2355 44.668 36.3528 42.3461C34.0157 40.5545 31.7969 38.5443 29.7068 36.2848L30.0112 36.4822C31.2693 37.5385 32.5681 38.48 33.8364 39.31C38.9976 42.6707 44.3347 45.4071 49.9661 46.9132C54.1904 48.0429 58.3268 48.6021 62.4159 48.6021C66.2174 48.6021 69.9751 48.1201 73.7225 47.1606L73.9086 48.2256C73.8646 48.2399 73.8206 48.2527 73.7733 48.2669C73.7327 48.2812 73.6921 48.2904 73.6515 48.3028C69.8263 49.4091 65.9503 49.9613 62.0506 49.9613C62.0472 49.9613 62.0438 49.9613 62.0404 49.9613Z" fill="#251B14"/>
<path d="M23.0879 16.9729C24.691 15.9722 26.2197 14.9127 27.8094 13.9854C26.2502 14.8659 24.691 15.8487 23.0777 16.9013L23.0879 16.9729Z" fill="#342217"/>
<path d="M63.4982 16.1335C61.1442 15.0217 58.753 14.077 56.3922 13.2411C50.585 11.1933 44.5613 10.2485 38.5613 10.5281C34.9086 10.6984 31.753 11.8552 28.638 13.5211C29.1656 13.2323 29.7034 12.967 30.2614 12.732C33.2614 11.4696 36.4068 11.0748 39.5387 11.0372C44.0979 10.9835 48.6639 11.9466 53.1115 13.3848C54.6537 13.7001 56.1859 14.0733 57.691 14.509C59.6662 15.0828 61.5061 16.0688 63.4982 16.1335Z" fill="#432917"/>
<path d="M63.4982 16.1335C61.5061 16.0688 59.6662 15.0828 57.691 14.509C56.1859 14.0733 54.6538 13.7001 53.1115 13.3848C48.789 11.9879 44.355 11.0372 39.921 11.034C39.9142 11.034 39.9108 11.034 39.9041 11.034C39.7823 11.034 39.6605 11.034 39.5388 11.0372C36.4069 11.0748 33.2614 11.4696 30.2614 12.732C29.9029 12.8844 29.5512 13.0492 29.2062 13.2232C32.1386 11.717 35.1318 10.6842 38.5613 10.5281C39.2547 10.496 39.948 10.4831 40.6447 10.4831C45.9514 10.4831 51.2547 11.4338 56.3922 13.2411C58.753 14.077 61.1442 15.0217 63.4982 16.1335Z" fill="#2D1E15"/>
<path d="M28.638 13.5212C28.824 13.4207 29.0168 13.3202 29.2062 13.2233C29.0168 13.3202 28.8274 13.4207 28.638 13.5212Z" fill="#2D1E15"/>
<path d="M72.9278 23.7671C77.7339 27.6369 81.6809 32.6323 85.5772 37.994L85.6888 38.0298L85.7463 37.5528C81.9278 31.4204 77.815 26.0624 72.7384 21.8717C69.8703 19.503 66.7215 17.6576 63.4982 16.1336C61.5061 16.0689 59.6662 15.0828 57.691 14.509C56.1859 14.0734 54.6538 13.7002 53.1115 13.3848C54.4035 13.8025 55.6887 14.2561 56.9571 14.7385C62.514 16.8635 67.9627 19.7702 72.9278 23.7671Z" fill="#432917"/>
<path d="M85.6888 38.0298L85.5772 37.994C81.6809 32.6323 77.7339 27.6369 72.9278 23.7671C67.9627 19.7702 62.514 16.8635 56.9571 14.7385C55.6887 14.2561 54.4035 13.8025 53.1115 13.3848C54.6538 13.7002 56.1859 14.0734 57.691 14.509C59.6662 15.0828 61.5061 16.0689 63.4982 16.1336C66.7215 17.6576 69.8703 19.503 72.7384 21.8717C77.815 26.0624 81.9278 31.4204 85.7463 37.5528L85.6888 38.0298Z" fill="#251B14"/>
<path d="M60.2479 8.42117C61.2795 8.59147 62.2975 8.821 63.3122 9.09184C56.8657 6.03457 50.1825 4.56974 43.2321 4.7451L43.2186 4.80799C49.8375 5.09306 55.9491 6.70891 61.9931 9.66565C61.4317 9.19788 60.8432 8.78887 60.2479 8.42117Z" fill="#432917"/>
<path d="M61.9931 9.66565C55.9491 6.70891 49.8375 5.09306 43.2186 4.80799L43.2321 4.7451C43.6008 4.73638 43.9695 4.73087 44.3415 4.73087C50.8962 4.73087 57.2073 6.19615 63.3122 9.09184C62.2975 8.821 61.2795 8.59147 60.2479 8.42117C60.8432 8.78887 61.4317 9.19788 61.9931 9.66565Z" fill="#2D1E15"/>
<path d="M78.1837 22.3217C81.2682 26.2976 83.7237 31.0584 86.0101 35.9087C86.1082 35.378 86.2198 34.84 86.3449 34.3075C82.3979 24.4935 76.452 16.9692 68.9233 12.185C67.0732 11.0108 65.2029 9.99214 63.3122 9.09194C62.2976 8.8211 61.2796 8.59158 60.248 8.42127C60.8433 8.78897 61.4317 9.19798 61.9932 9.66575C63.5659 10.4314 65.1352 11.2724 66.7046 12.2263C70.9526 14.8066 74.8049 17.97 78.1837 22.3217Z" fill="#432917"/>
<path d="M86.0101 35.9087C83.7237 31.0584 81.2682 26.2976 78.1837 22.3217C74.8049 17.97 70.9526 14.8066 66.7046 12.2263C65.1352 11.2724 63.5659 10.4314 61.9932 9.66575C61.4317 9.19798 60.8433 8.78897 60.248 8.42127C61.2796 8.59158 62.2976 8.8211 63.3122 9.09194C65.2029 9.99214 67.0732 11.0108 68.9233 12.185C76.452 16.9692 82.3979 24.4935 86.3449 34.3075C86.2198 34.84 86.1082 35.378 86.0101 35.9087Z" fill="#251B14"/>
<path d="M87.9007 16.2123L87.8499 16.2623C89.5072 19.612 89.8691 23.2165 90.2445 26.9031L90.9108 26.5946C90.4271 22.8575 89.5613 19.1906 87.9007 16.2123Z" fill="#342217"/>
<path d="M86.5647 38.6323L86.6155 38.4941L86.7711 38.1209C88.3945 34.1419 92.0405 31.0433 94.7463 29.4224L95.2536 29.1483C94.0834 27.3566 92.5106 26.1356 90.9108 26.5946L90.2446 26.9031L89.4261 27.5416C87.9819 29.0138 86.9875 31.5941 86.3449 34.3071C86.2198 34.8396 86.1081 35.3776 86.0101 35.9083C85.9086 36.4642 85.8207 37.0109 85.7463 37.5526L85.6888 38.0295L85.5907 38.8329H85.2998L85.0867 38.9766C83.6865 39.224 82.3201 39.7097 80.9436 40.3482C78.9075 41.2842 76.6516 42.3083 74.8522 43.9527C73.8951 44.8239 73.611 45.9481 73.7226 47.1605L73.9086 48.2255C74.5648 50.7773 76.5907 53.4632 77.7271 54.8262L78.1059 55.2494L78.9379 56.0151C81.0281 57.7453 84.1769 58.9668 85.5907 55.8177C86.1995 54.4497 86.5546 52.8339 86.7981 51.1859C86.2976 49.644 85.9492 48.0194 85.8748 46.28C85.7733 43.9329 85.7124 40.8752 86.5647 38.6323Z" fill="#82CFD6"/>
<path d="M121.195 37.1821C121.729 37.9657 122.243 38.792 122.724 39.6655C122.243 38.792 121.729 37.9707 121.195 37.1821Z" fill="#402819"/>
<path d="M119.463 34.8756C120.021 35.5554 120.562 36.2725 121.083 37.0258C120.566 36.2669 120.021 35.5554 119.463 34.8756Z" fill="#402819"/>
<path d="M99.3426 27.3745C96.0112 29.46 93.2513 32.7918 92.0845 37.9473C90.8331 43.4559 92.6087 49.1615 94.266 54.1017C96.6775 61.2762 97.939 67.8085 96.9615 75.7271C96.8668 76.5038 97.4926 76.5988 97.7868 76.0663C98.6899 74.4184 99.4813 72.6643 100.151 70.8281C101.325 79.2347 104.196 87.1854 107.727 94.5715C108.038 95.228 108.786 94.3007 108.613 93.7127C106.455 86.4092 106.215 78.5085 107.152 70.8194C109.986 79.5322 114.157 88.1898 112.202 97.464C112.016 98.3353 112.909 98.294 113.101 97.6238C115.476 89.4756 116.311 80.6206 115.827 71.8899C117.251 76.6778 118.158 81.6158 117.559 86.7122C117.437 87.745 118.337 87.4278 118.503 86.6888C120.38 78.3253 121.452 69.8279 121.049 61.0733C121.016 60.4137 120.958 59.7522 120.911 59.0957C121.053 59.9491 121.178 60.8259 121.266 61.7298C121.361 62.6391 122.098 62.1585 122.227 61.5292C124.08 52.445 123.363 42.2257 119.456 34.8667C116.666 31.5115 113.365 29.107 109.668 27.6688C106.039 26.2503 102.339 26.3417 98.7812 27.5503C98.2299 27.7385 97.6786 27.9538 97.1307 28.2013C97.8612 27.8859 98.5985 27.604 99.3426 27.3745Z" fill="#402819"/>
<path d="M96.9548 28.2805C96.3832 28.5371 95.815 28.8309 95.2536 29.1485L94.7462 29.4226C95.47 28.987 96.2107 28.6105 96.9548 28.2805Z" fill="#402819"/>
<path d="M122.226 61.5292C122.098 62.1586 121.361 62.6392 121.266 61.7298C121.178 60.826 121.053 59.9492 120.911 59.0958C120.958 59.7522 121.016 60.4137 121.049 61.0734C121.452 69.8279 120.38 78.3254 118.503 86.6888C118.337 87.4279 117.437 87.7451 117.559 86.7122C118.158 81.6158 117.251 76.6779 115.827 71.89C116.311 80.6206 115.476 89.4757 113.101 97.6238C112.909 98.294 112.016 98.3353 112.202 97.4641C114.157 88.1899 109.986 79.5322 107.152 70.8195C106.215 78.5085 106.455 86.4092 108.613 93.7127C108.786 94.3008 108.038 95.228 107.727 94.5716C104.196 87.1855 101.325 79.2348 100.151 70.8282C99.4813 72.6644 98.6898 74.4184 97.7868 76.0664C97.4925 76.5989 96.8668 76.5039 96.9615 75.7272C97.939 67.8086 96.6774 61.2763 94.2659 54.1018C92.6087 49.1615 90.833 43.456 92.0844 37.9474C93.2513 32.7918 96.0111 29.46 99.3426 27.3746C98.5985 27.6041 97.8612 27.8859 97.1306 28.2013L96.9548 28.2803C96.2107 28.6103 95.47 28.9867 94.7462 29.4224C92.0405 31.0433 88.3944 34.1419 86.771 38.1209L86.6154 38.4941L86.5647 38.6323C85.7124 40.8752 85.7732 43.9329 85.8747 46.2801C85.9491 48.0194 86.2975 49.644 86.7981 51.1859C87.6267 53.752 88.8882 56.1028 90.0314 58.4306C94.6177 67.7585 95.7068 79.0589 92.629 88.9753C92.2874 90.9226 91.7394 92.7675 90.9785 94.3779C94.1002 92.6978 95.5985 88.9427 96.7112 84.7112C96.9378 83.8289 97.134 82.9485 97.3099 82.057C97.4655 83.5081 97.6414 84.955 97.8781 86.4326C98.6121 91.0374 99.647 95.5397 101.179 99.763L101.399 100.342C101.954 101.269 102.569 102.132 103.229 102.953C103.976 103.885 104.774 104.771 105.61 105.616C105.322 104.959 104.984 104.339 104.707 103.65C104.297 102.632 103.946 101.584 103.621 100.531C103.026 98.5883 102.546 96.591 102.143 94.5431C101.555 91.5143 101.264 88.4245 101.21 85.3172C101.453 86.2766 101.707 87.1983 101.957 88.0572C102.664 90.5085 103.543 92.8626 104.484 95.1725C105.214 96.9619 105.978 98.7209 106.743 100.46C108.897 105.359 112.256 111.115 111.387 117.133C111.701 116.895 111.901 116.463 112.137 115.986C113.369 111.772 113.497 106.989 113.287 102.264L113.291 102.252C114.086 106.475 115.736 111.18 118.029 114.287C117.387 111.474 117.146 107.64 117.113 104.716C117.035 103.977 116.974 103.232 116.94 102.47C116.832 99.7304 117.038 96.2141 117.782 93.1297C118.658 96.7466 120.667 102.559 123.495 104.395C122.923 102.806 122.71 100.814 122.612 99.2447C122.511 97.5054 122.602 95.8142 122.825 94.1773C122.788 93.2036 122.788 92.3769 122.791 91.8623C122.845 87.415 123.965 83.0256 124.547 78.6646C125.04 74.9385 125.233 71.3161 125.179 67.7085C125.304 68.2121 125.433 68.7088 125.541 69.2325C125.903 70.925 126.018 72.6791 126.052 74.4381C126.058 74.8182 126.048 75.4297 126.072 75.9246L125.923 76.4107C126.363 75.7272 126.803 75.0478 127.239 74.3647C127.526 73.2492 127.736 72.0369 127.827 70.9719C127.956 69.4423 128.03 67.8356 128.061 66.1877C128.484 66.7202 128.94 67.1971 129.431 67.6438C129.904 68.0707 130.465 68.1997 131.03 68.291C131.524 68.7124 132.075 68.9654 132.688 69.0117C132.008 68.1708 131.389 67.226 130.854 66.184C129.255 63.869 128.433 59.9455 127.783 57.4336L127.777 57.3978C127.012 51.0482 125.659 44.9979 122.724 39.6651C122.243 38.7916 121.729 37.9653 121.195 37.1817L121.083 37.0256C120.562 36.2723 120.021 35.5553 119.463 34.8754L119.456 34.8667C123.363 42.2257 124.08 52.4451 122.226 61.5292Z" fill="#402819"/>
<path d="M111.387 117.133C111.481 116.463 111.529 115.797 111.525 115.132C111.522 109.844 108.657 104.813 106.743 100.46C105.978 98.7209 105.214 96.9619 104.484 95.1725C103.543 92.8626 102.664 90.5085 101.957 88.0572C101.707 87.1983 101.453 86.2766 101.21 85.3172C101.264 88.4245 101.555 91.5143 102.143 94.5431C102.546 96.591 103.026 98.5883 103.621 100.531C103.946 101.584 104.298 102.632 104.707 103.65C104.984 104.339 105.322 104.959 105.61 105.616C104.774 104.771 103.976 103.885 103.229 102.953C102.569 102.132 101.954 101.269 101.399 100.342L101.179 99.763C99.647 95.5397 98.6121 91.0374 97.8781 86.4326C97.6414 84.955 97.4655 83.5081 97.3099 82.057C97.1341 82.9485 96.9379 83.8289 96.7113 84.7112C95.5985 88.9427 94.1002 92.6978 90.9785 94.3779C91.7395 92.7675 92.2874 90.9226 92.629 88.9753C93.7992 85.2024 94.3674 81.2215 94.3708 77.2282C94.3708 70.7368 92.8725 64.2046 90.0315 58.4306C88.8883 56.1028 87.6267 53.752 86.7981 51.1859C86.2975 49.644 85.9491 48.0194 85.8747 46.2801C85.8443 45.5805 85.8173 44.824 85.8173 44.0385C85.8173 42.1899 85.9661 40.21 86.5647 38.6323L86.6155 38.4941L86.771 38.1209C88.3945 34.1419 92.0405 31.0433 94.7462 29.4224C95.47 28.9867 96.2107 28.6103 96.9548 28.2803L97.1307 28.2013C97.8612 27.8859 98.5985 27.6041 99.3426 27.3746C96.0112 29.46 93.2513 32.7918 92.0845 37.9474C91.7868 39.2506 91.6617 40.5635 91.6617 41.8723C91.6651 46.1134 93.001 50.3325 94.266 54.1018C96.1228 59.6228 97.2964 64.7655 97.293 70.4481C97.293 72.1516 97.1882 73.9001 96.9615 75.7272C96.9615 75.7308 96.9615 75.7418 96.9615 75.7506C96.9548 75.7919 96.9514 75.8332 96.9514 75.8745C96.9514 76.2275 97.1239 76.4015 97.3235 76.4015C97.4858 76.4015 97.6651 76.2867 97.7868 76.0664C98.6899 74.4184 99.4813 72.6644 100.151 70.8282C101.325 79.2348 104.196 87.1855 107.727 94.5716C107.801 94.7313 107.903 94.7956 108.011 94.7956C108.302 94.7956 108.64 94.3187 108.637 93.8954C108.637 93.833 108.63 93.7719 108.613 93.7127C107.23 89.0309 106.635 84.1085 106.631 79.1521C106.631 76.3744 106.814 73.5825 107.152 70.8195C109.479 77.9669 112.702 85.0785 112.706 92.5183C112.706 94.1484 112.553 95.7963 112.202 97.4641C112.202 97.4677 112.202 97.4677 112.198 97.4728C112.185 97.5499 112.178 97.6201 112.178 97.6826C112.178 97.9823 112.34 98.1237 112.537 98.1237C112.753 98.1237 113.01 97.9447 113.101 97.6238C115.049 90.9405 115.963 83.7784 115.959 76.6039C115.959 75.0299 115.915 73.4553 115.827 71.89C116.944 75.6482 117.745 79.5001 117.748 83.4488C117.748 84.5317 117.688 85.6201 117.559 86.7122C117.556 86.7356 117.556 86.759 117.552 86.7802C117.549 86.8215 117.549 86.8591 117.549 86.8949C117.549 87.2305 117.688 87.3737 117.86 87.3737C118.104 87.3737 118.411 87.0923 118.503 86.6888C120.116 79.5001 121.134 72.2163 121.134 64.7568C121.134 63.5302 121.107 62.3036 121.049 61.0734C121.016 60.4137 120.958 59.7522 120.911 59.0958C121.053 59.9492 121.178 60.826 121.266 61.7298C121.303 62.0883 121.442 62.232 121.604 62.232C121.851 62.232 122.149 61.9056 122.227 61.5292C122.869 58.3893 123.201 55.1112 123.204 51.8658C123.204 45.7186 122.013 39.683 119.456 34.8667L119.463 34.8754C120.021 35.5553 120.562 36.2723 121.083 37.0256L121.195 37.1817C121.729 37.9653 122.243 38.7916 122.724 39.6651C125.659 44.9979 127.012 51.0482 127.777 57.3978L127.783 57.4336C128.433 59.9455 129.255 63.869 130.854 66.184C131.389 67.226 132.008 68.1708 132.688 69.0117C132.075 68.9654 131.524 68.7124 131.03 68.291C130.465 68.1997 129.904 68.0707 129.431 67.6438C128.94 67.1971 128.484 66.7202 128.061 66.1877C128.03 67.8356 127.956 69.4423 127.827 70.9719C127.736 72.0369 127.526 73.2492 127.239 74.3647C126.803 75.0478 126.363 75.7272 125.923 76.4107L126.072 75.9246C126.048 75.4297 126.059 74.8182 126.052 74.4381C126.018 72.6791 125.903 70.925 125.541 69.2325C125.433 68.7088 125.304 68.2121 125.179 67.7085C125.186 68.1028 125.189 68.4971 125.189 68.8919C125.186 72.1103 124.986 75.3452 124.547 78.6646C123.965 83.0256 122.845 87.415 122.791 91.8623C122.791 91.977 122.788 92.1116 122.788 92.2566C122.788 92.7588 122.798 93.424 122.825 94.1773C122.663 95.3662 122.571 96.5818 122.571 97.8263C122.571 98.294 122.585 98.7678 122.612 99.2447C122.71 100.814 122.923 102.806 123.495 104.395C120.667 102.559 118.658 96.7466 117.782 93.1297C117.16 95.7105 116.913 98.5883 116.913 101.067C116.913 101.549 116.923 102.022 116.94 102.47C116.974 103.232 117.035 103.977 117.113 104.716C117.146 107.64 117.387 111.474 118.029 114.287C115.736 111.18 114.086 106.475 113.291 102.252L113.287 102.264C113.338 103.408 113.369 104.556 113.369 105.698C113.372 109.274 113.071 112.79 112.137 115.986C111.901 116.463 111.701 116.895 111.387 117.133Z" fill="#2B1C14"/>
<path d="M68.886 154.684C69.1904 155.432 69.4847 156.19 69.7688 156.965C69.9345 157.42 70.0969 157.871 70.2558 158.333C70.5332 159.145 70.7936 159.986 71.0506 160.831C71.1825 161.258 71.3178 161.684 71.443 162.125C71.7372 163.162 72.0146 164.227 72.275 165.301L72.4678 166.045C72.7857 167.39 73.0833 168.762 73.3539 170.159L73.5365 171.16C73.6955 171.995 73.8578 172.834 73.9999 173.684L74.0844 174.262C74.2738 175.433 74.4464 176.622 74.6087 177.816C74.6763 178.293 74.7507 178.766 74.815 179.243C75.0315 180.927 75.2242 182.618 75.3967 184.32L75.5084 185.532C75.6335 186.853 75.7519 188.18 75.8567 189.513C75.9041 190.146 75.9446 190.779 75.992 191.417C76.0698 192.529 76.1442 193.635 76.2085 194.745C76.2491 195.434 76.2829 196.117 76.3201 196.811C76.3742 197.876 76.4283 198.941 76.4723 200.001C76.5027 200.689 76.5298 201.378 76.5568 202.063C76.5974 203.137 76.6346 204.206 76.6651 205.267C76.6887 205.918 76.7057 206.571 76.7259 207.218C76.7598 208.366 76.7834 209.499 76.8105 210.629L76.8173 210.935L84.3257 211L73.2085 163.42C71.886 158.76 70.3167 155.546 68.6763 153.366C68.7372 153.655 68.8015 154.101 68.8725 154.652L68.886 154.684Z" fill="#6D42A4"/>
<path d="M67.9385 152.457L67.9255 152.445L67.9385 152.466V152.457Z" fill="#6D42A4"/>
<path d="M27.4035 200.488C27.2852 179.596 29.4734 168.914 30.5118 165.048C23.0608 176.91 13.7936 194.886 14.4599 209.158C14.4768 209.535 14.5039 209.94 14.5343 210.376L24.3393 210.458C25.0394 208.104 26.1014 204.573 27.4035 200.488Z" fill="#6D42A4"/>
<path d="M32.0405 162.726C32.1318 162.846 28.9728 172.445 28.7395 196.357C32.1927 185.835 36.7485 173.279 40.5534 167.243C45.3291 159.669 51.6064 158.856 54.9582 159.054C54.9244 158.535 54.8871 158.007 54.8499 157.485C54.7146 155.537 54.7045 153.583 54.7383 151.621C48.6572 153.265 41.0134 155.864 33.9615 159.774V159.766C33.2411 160.822 32.4768 161.973 31.682 163.199L32.0405 162.726Z" fill="#6D42A4"/>
<path d="M68.8725 154.652V154.657L68.886 154.684L68.8725 154.652Z" fill="#6D42A4"/>
<path d="M76.726 207.218C76.7598 208.361 76.7834 209.499 76.8105 210.629C76.7834 209.499 76.7598 208.366 76.726 207.218Z" fill="#6D42A4"/>
<path d="M54.7384 151.621C54.7045 153.583 54.7147 155.538 54.85 157.485C54.8872 158.007 54.9244 158.536 54.9582 159.054C56.4024 159.142 57.3156 159.407 57.3156 159.407C57.3156 159.407 60.1194 160.784 62.0642 165.642C62.7305 166.849 63.319 168.285 63.8229 170.015C66.319 178.623 64.5433 188.81 63.1194 197.472L63.0247 198.096C62.1081 202.255 61.1747 206.41 60.5321 210.647L60.5084 210.785L71.3347 210.885C70.1205 177.76 67.9695 153.068 67.939 152.466L67.9255 152.444C67.7192 151.994 67.4892 151.559 67.2694 151.117L66.7485 150.061L66.2378 149.143C66.0247 149.17 61.2964 149.841 54.7384 151.621Z" fill="#4E298A"/>
<path d="M76.7259 207.218C76.7056 206.571 76.6887 205.918 76.665 205.267C76.6346 204.206 76.5974 203.137 76.5568 202.063C76.5298 201.378 76.5027 200.689 76.4723 200.001C76.4283 198.941 76.3742 197.876 76.32 196.811C76.2828 196.117 76.249 195.433 76.2084 194.745C76.1442 193.635 76.0698 192.528 75.992 191.417C75.9446 190.778 75.904 190.145 75.8567 189.512C75.7518 188.18 75.6335 186.853 75.5083 185.532L75.3967 184.319C75.2242 182.618 75.0314 180.927 74.815 179.243C74.7507 178.766 74.6763 178.293 74.6087 177.816C74.4463 176.621 74.2738 175.432 74.0844 174.262L73.9999 173.684C73.8578 172.834 73.6955 171.995 73.5365 171.159L73.3539 170.159C73.0833 168.762 72.7857 167.39 72.4678 166.045L72.275 165.301C72.0145 164.227 71.7372 163.162 71.443 162.125C71.3178 161.684 71.1825 161.258 71.0506 160.831C70.7936 159.986 70.5331 159.145 70.2558 158.333C70.0968 157.87 69.9345 157.42 69.7687 156.965C69.4846 156.19 69.1904 155.431 68.886 154.684L68.8725 154.657C69.7519 161.638 71.2975 187.873 71.4598 191.646C71.6898 197.004 72.0416 203.458 72.3899 210.894L76.8172 210.935L76.8105 210.629C76.7834 209.499 76.7597 208.36 76.7259 207.218Z" fill="#4E298A"/>
<path d="M54.7383 151.621C61.2964 149.841 66.0247 149.17 66.2378 149.143L66.2547 149.138C65.5749 144.108 63.3933 137.552 63.3933 137.552C62.957 137.446 62.4768 137.382 61.9728 137.35C61.0765 137.295 60.0856 137.34 59.0202 137.484C52.2896 138.37 42.7553 142.89 37.6346 146.297C35.4836 147.725 34.1104 148.955 34.0495 149.629C33.8093 152.31 33.9582 159.665 33.9615 159.766V159.775C41.0134 155.864 48.6572 153.265 54.7383 151.621Z" fill="#47297C"/>
<path d="M27.4035 200.489C27.8263 199.162 28.2727 197.775 28.7395 196.357C28.9729 172.445 32.1318 162.847 32.0405 162.726L31.682 163.2C31.3539 163.609 30.9819 164.03 30.5929 164.737L30.5118 165.048C29.4734 168.915 27.2852 179.596 27.4035 200.489Z" fill="#8C1632"/>
<path d="M71.3347 210.885L72.39 210.894C72.0416 203.458 71.6898 197.004 71.4599 191.646C71.2975 187.873 69.7519 161.638 68.8725 154.657V154.652C68.8015 154.101 68.7372 153.654 68.6763 153.366L68.6729 153.357L68.656 153.342L68.0472 152.58L67.939 152.448V152.457V152.466C67.9695 153.068 70.1205 177.76 71.3347 210.885Z" fill="#8C1632"/>
<path d="M63.0247 198.096L63.1194 197.472C64.5433 188.81 66.319 178.623 63.8229 170.015C63.319 168.285 62.7305 166.849 62.0642 165.642C64.08 170.668 65.1724 179.431 61.2524 194.3L57.2682 210.761L60.5083 210.785L60.532 210.647C61.1747 206.409 62.1081 202.255 63.0247 198.096Z" fill="#4E298A"/>
<path d="M60.5083 210.785L57.2682 210.761L61.2524 194.3C63.1668 187.038 63.8838 181.235 63.8838 176.612C63.8838 171.766 63.0957 168.212 62.0642 165.642C62.7305 166.849 63.319 168.285 63.8229 170.015C64.7293 173.143 65.0743 176.474 65.0743 179.872C65.0777 185.82 64.0258 191.958 63.1194 197.472L63.0247 198.096C62.1081 202.255 61.1747 206.409 60.532 210.647L60.5083 210.785Z" fill="#2F2A69"/>
<path d="M62.0642 165.642C60.1194 160.784 57.3155 159.407 57.3155 159.407C57.3155 159.407 56.4024 159.142 54.9582 159.054C51.6064 158.857 45.3291 159.669 40.5534 167.243C36.7485 173.279 32.1927 185.835 28.7395 196.357C28.2727 197.776 27.8263 199.162 27.4035 200.489C26.1014 204.574 25.0393 208.104 24.3392 210.459L57.2682 210.762L61.2524 194.3C65.1724 179.432 64.0799 170.668 62.0642 165.642Z" fill="#8B66B9"/>
</svg>
