<svg width="131" height="216" viewBox="0 0 131 216" fill="none" xmlns="http://www.w3.org/2000/svg">
<path d="M82.6492 133.028L82.957 132.595C82.2704 133.097 81.6278 133.71 81.0054 134.364L81.1611 135.024L81.3369 134.804C81.6345 134.199 82.0709 133.62 82.6492 133.028Z" fill="#E3BA8E"/>
<path d="M77.4473 145.093L77.6605 145.048C78.7258 144.827 79.7371 144.74 80.6909 144.815L80.8769 144.836C81.2726 144.878 81.6582 144.949 82.0336 145.044L82.3211 145.123C82.7304 145.245 83.1295 145.392 83.5184 145.589L83.5691 145.613H83.5725C82.8487 142.201 82.0471 138.623 81.1948 135.15L81.0088 135.236L81.0156 135.216L81.1611 135.024L81.0054 134.364C80.0685 135.347 79.1858 136.441 78.3437 137.553C77.7653 137.813 77.1971 138.13 76.6424 138.515L76.6356 138.467C76.8995 136.306 78.0562 134.298 78.9559 132.311L78.1272 133.329C77.6841 133.885 76.957 133.647 76.9908 132.741C77.0415 131.33 77.2107 129.922 77.4373 128.524C77.0043 130.151 76.6965 131.827 76.3515 133.728L76.2264 134.038C75.6447 132.908 75.0832 131.671 74.745 130.353C74.7044 128.052 74.9614 125.587 75.435 123.378C75.1711 123.811 74.9107 124.224 74.6536 124.606C74.1903 125.291 73.7101 126.229 73.1723 127.057C72.4823 127.83 71.4542 128.165 70.568 128.228C70.7642 126.856 71.1869 125.529 71.6368 124.197C71.3256 124.409 70.8758 124.283 70.9671 123.709C71.2749 121.704 71.657 119.75 72.0494 117.804C71.2782 118.362 70.5342 118.599 69.878 118.267C68.6807 121.782 67.1926 125.099 65.1802 128.067C60.4418 135.051 54.09 141.282 47.2411 144.25V144.268C48.0088 144.37 49.2636 143.923 50.6267 143.477C53.0686 142.674 55.8521 141.872 56.7484 144.25C57.2997 145.724 58.7574 150.557 60.4518 156.336C64.8081 151.252 68.3054 149.217 68.3054 149.217C71.7247 147.146 74.7619 145.693 77.4473 145.093Z" fill="#E3BA8E"/>
<path d="M65.1802 128.067C67.1926 125.099 68.6807 121.782 69.878 118.267C69.5128 118.079 69.1746 117.738 68.8769 117.155C67.7371 114.914 67.8284 111.253 67.9772 108.342C66.7055 103.963 66.8983 98.5515 67.3211 94.0919C67.5409 91.7195 67.8352 89.4151 68.2783 87.1827C68.0246 87.667 67.4801 87.6886 67.3549 87.0661C66.9254 84.9233 66.9051 82.4306 67.0573 80.0335L67.0505 80.0551C66.7529 81.1972 66.6278 82.3948 65.9277 83.1895C65.5692 83.5966 65.0551 83.5695 64.9266 82.8883C64.2332 79.2517 64.3786 75.2493 64.9874 71.245C64.798 71.7614 64.595 72.276 64.3549 72.7658C64.1215 73.241 63.5026 73.2139 63.5398 72.5326C63.5973 71.4961 63.6312 70.4614 63.6447 69.4249C62.8803 69.0182 62.1227 68.6091 61.3719 68.2111L61.426 68.2414C61.426 68.2414 48.8645 73.1152 34.984 74.473C35.1633 75.8502 35.3155 77.2397 35.373 78.6421C35.5556 82.9062 33.6785 86.7434 31.3989 90.0376L30.8172 90.9483C29.6503 92.7505 28.2839 94.2567 27.0765 95.996C26.3256 97.0812 25.382 98.5281 25.081 100.103C27.4553 103.271 31.0979 104.029 34.4023 104.257C33.3572 105.855 32.1464 107.153 30.8476 108.288V108.274L30.8679 108.432C30.8679 108.432 30.8578 109.49 30.2558 111.143C29.8668 112.215 29.0585 114.546 29.2445 115.868L29.2309 115.518C31.382 117.424 33.7969 118.267 36.32 118.665L35.6639 118.882C34.1757 119.325 32.9006 119.496 31.5646 120.342C31.196 120.683 30.9524 121.118 30.966 121.678C31.037 124.902 32.6977 123.247 32.9243 128.196C32.9446 128.605 32.2851 132.254 32.099 135.584C31.9401 138.386 33.4722 142.111 34.9603 143.877C37.0573 146.361 40.2129 146.267 43.196 145.607C44.5556 145.299 45.9085 144.827 47.2411 144.25C54.09 141.283 60.4418 135.051 65.1802 128.067Z" fill="#F0CDA9"/>
<path d="M36.3201 118.665C33.797 118.267 31.3821 117.424 29.231 115.518L29.2446 115.868C29.5862 118.279 33.2794 119.199 34.8352 119.077L34.771 119.11L34.7439 119.119L34.3415 119.205L34.2535 119.223L34.0675 119.262L33.7124 119.346L33.6177 119.37L33.1882 119.492L33.0528 119.54L32.5624 119.723L32.5523 119.728L32.0923 119.965L31.9807 120.033L31.5647 120.341C32.9007 119.495 34.1758 119.325 35.6639 118.88L36.3201 118.665Z" fill="#D9B288"/>
<path d="M34.4024 104.257C31.098 104.029 27.4554 103.271 25.0811 100.103L25.0777 100.12L24.9931 100.891L24.9897 101.295L25.0134 101.582L25.1555 102.344L25.4362 103.079C26.1363 104.011 27.0393 104.747 27.8172 105.249C28.6864 105.808 30.7293 106.705 30.8477 108.274L30.8511 108.288C32.1465 107.155 33.3573 105.853 34.4024 104.257Z" fill="#D9B288"/>
<path d="M77.5658 82.7838C79.0911 81.7348 80.6469 80.5656 82.1993 79.3014C81.2895 78.8171 80.373 78.3333 79.4632 77.8435C78.8003 79.2206 78.0629 80.5386 77.2004 81.7257C76.8555 82.2008 76.9773 83.1891 77.5658 82.7838Z" fill="#DE731A"/>
<path d="M126.107 81.8387C126.1 82.7444 126.902 82.1743 127.013 81.6418C127.673 78.5845 128.285 75.2257 128.708 71.7704C125.823 71.9641 122.738 73.6621 119.84 84.7978C119.877 86.9622 119.779 89.0743 119.61 91.0147C119.911 91.1992 120.273 91.4145 120.689 91.6477C123.06 87.1196 124.754 81.9287 125.596 76.4899C125.901 78.2384 126.12 80.0099 126.107 81.8387Z" fill="#DE731A"/>
<path d="M85.7337 83.9947C86.099 83.1895 86.5117 82.4701 86.9547 81.821C86.3629 81.5075 85.7642 81.188 85.1656 80.8745C85.0539 81.8518 84.966 82.8378 84.9424 83.8565C84.9254 84.5074 85.5443 84.4161 85.7337 83.9947Z" fill="#DE731A"/>
<path d="M88.8556 96.1247L89.4441 96.525C90.3302 95.7088 91.1216 94.7315 91.842 93.6559C90.2896 99.299 87.7732 104.391 84.4891 108.838C84.2152 109.211 84.1678 110.183 84.736 109.968C88.2704 108.611 91.4801 106.468 94.1554 103.5C93.851 104.463 93.5365 105.422 93.1949 106.364C91.7304 110.416 89.4474 113.169 87.1881 116.348C86.8938 116.764 86.8702 117.607 87.435 117.478C91.7371 116.477 95.8465 112.442 98.8431 107.311C98.7281 107.804 98.6132 108.291 98.4914 108.785C98.3933 109.181 98.4948 109.798 98.9108 109.601C102.506 107.888 105.476 104.347 107.995 100.497C107.694 102.218 107.383 103.934 107.089 105.665C107.018 106.068 107.241 106.417 107.549 106.301C110.86 105.033 113.302 100.829 115.03 96.4657C113.045 95.4613 110.752 94.2834 108.212 92.9687L108.117 92.9242C102.79 90.1625 96.4079 86.8147 89.6402 83.2373C88.6526 87.3563 88.3753 91.755 88.8556 96.1247Z" fill="#DE731A"/>
<path d="M73.656 78.7456C73.4869 79.2836 73.7846 79.7679 74.1904 79.4897C75.3133 78.7222 76.4193 77.8078 77.4982 76.8038C76.5613 76.3071 75.6245 75.8086 74.6842 75.3064C74.3528 76.4595 74.0111 77.6017 73.656 78.7456Z" fill="#DE731A"/>
<path d="M71.8938 74.1767L72.1678 73.9669L71.3188 73.5184L71.3053 73.7787C71.2918 74.2538 71.6503 74.3346 71.8938 74.1767Z" fill="#DE731A"/>
<path d="M128.708 71.7705C128.285 75.2258 127.673 78.5846 127.013 81.6419C126.902 82.1744 126.1 82.7445 126.107 81.8388C126.12 80.01 125.901 78.2385 125.596 76.49C124.754 81.9288 123.06 87.1197 120.689 91.6478C121.95 92.3561 123.685 93.2256 125.647 93.9252C124.466 96.9053 123.479 98.8957 123.056 99.7023L123.408 99.1216C127.754 91.1993 129.756 81.5198 129.746 71.7526C129.401 71.7471 129.056 71.7471 128.708 71.7705Z" fill="#DE731A"/>
<path d="M123.056 99.7023C123.479 98.8957 124.466 96.9053 125.647 93.9252C123.685 93.2256 121.95 92.3561 120.689 91.6478C123.06 87.1197 124.754 81.9288 125.596 76.49C125.89 78.1843 126.107 79.8989 126.107 81.6667C126.107 81.7241 126.107 81.7814 126.107 81.8388C126.107 81.8443 126.107 81.8498 126.107 81.8554C126.107 82.1886 126.222 82.3144 126.367 82.3144C126.611 82.3144 126.946 81.9715 127.013 81.6419C127.673 78.5846 128.285 75.2258 128.708 71.7705C128.948 71.7544 129.188 71.7508 129.425 71.7508C129.533 71.7508 129.638 71.7508 129.746 71.7526C129.746 71.7902 129.746 71.8297 129.746 71.8674C129.739 81.5951 127.737 91.2296 123.408 99.1216L123.056 99.7023Z" fill="#D14F1F"/>
<path d="M122.752 100.111L122.661 100.088L122.532 100.052L122.39 99.9983L122.187 99.923L122.028 99.8546L121.717 99.7256L121.598 99.6719L121.128 99.4566L121.02 99.4065L120.425 99.1283L120.35 99.0981L119.61 98.7432L119.589 98.7304C118.368 98.1423 116.823 97.3711 115.03 96.4659C113.302 100.829 110.86 105.034 107.549 106.301C107.241 106.418 107.018 106.068 107.089 105.665C107.383 103.934 107.694 102.218 107.995 100.497C105.476 104.347 102.506 107.888 98.9108 109.601C98.4948 109.798 98.3933 109.181 98.4914 108.785C98.6132 108.291 98.7281 107.804 98.8431 107.311C95.8465 112.443 91.7371 116.477 87.435 117.478C86.8702 117.607 86.8938 116.764 87.1881 116.348C89.4474 113.169 91.7304 110.416 93.1949 106.364C93.5365 105.422 93.851 104.463 94.1554 103.5C91.4801 106.468 88.2704 108.611 84.736 109.968C84.1678 110.183 84.2152 109.211 84.4891 108.839C87.7732 104.391 90.2896 99.2991 91.842 93.656C91.1216 94.7316 90.3302 95.7089 89.4441 96.5251L88.8556 96.1248C88.3753 91.7551 88.6526 87.3565 89.6402 83.2374C88.754 82.7715 87.8578 82.2959 86.9547 81.8208C86.5117 82.4699 86.099 83.1893 85.7337 83.9944C85.5443 84.4158 84.9254 84.5072 84.9424 83.8562C84.966 82.8376 85.0539 81.8516 85.1656 80.8743C84.1813 80.3542 83.1937 79.8304 82.1994 79.3016C80.6469 80.5658 79.0912 81.735 77.5658 82.7839C76.9773 83.1892 76.8555 82.2009 77.2005 81.7258C78.0629 80.5387 78.8003 79.2208 79.4632 77.8436C78.8071 77.4993 78.1543 77.1532 77.4982 76.8039C76.4192 77.8078 75.3133 78.7222 74.1904 79.4898C73.7845 79.7679 73.4869 79.2837 73.656 78.7456C74.0111 77.6017 74.3527 76.4596 74.6842 75.3064C73.842 74.8635 73.0032 74.4154 72.1678 73.967L71.8939 74.1767C71.6503 74.3346 71.2918 74.2538 71.3054 73.7787L71.3189 73.5184C68.7214 72.1344 66.1509 70.7609 63.6447 69.4247C63.6312 70.4612 63.5974 71.4959 63.5399 72.5324C63.5027 73.2137 64.1216 73.2407 64.355 72.7656C64.5951 72.2758 64.7981 71.7612 64.9875 71.2448C64.3787 75.2491 64.2333 79.2515 64.9266 82.8881C65.0551 83.5693 65.5692 83.5964 65.9277 83.1892C66.6278 82.3946 66.7529 81.197 67.0505 80.0549L67.0573 80.0333C66.9051 82.4304 66.9255 84.9231 67.355 87.0659C67.4801 87.6884 68.0247 87.6668 68.2783 87.1825C67.8353 89.4149 67.541 91.7193 67.3211 94.0917C66.8984 98.5513 66.7056 103.963 67.9773 108.342L68.0179 107.571C68.3527 101.42 70.1149 92.7953 73.5343 89.0687C74.9717 87.4997 76.7202 86.7111 78.3944 86.8864C79.2839 86.9888 80.1532 87.3565 80.9412 88.0198C82.9164 89.6788 85.1283 93.3099 83.8735 101.047C82.9367 106.817 81.1881 107.562 76.9841 112.206C75.7327 113.59 73.8285 116.522 72.0494 117.804C71.6571 119.75 71.2749 121.704 70.9671 123.709C70.8758 124.283 71.3256 124.409 71.6368 124.197C71.187 125.529 70.7642 126.856 70.5681 128.228C71.4542 128.165 72.4824 127.83 73.1723 127.057C73.7101 126.229 74.1903 125.291 74.6537 124.606C74.9107 124.224 75.1712 123.811 75.435 123.378C74.9615 125.587 74.7044 128.052 74.745 130.353C75.0832 131.671 75.6447 132.908 76.2265 134.038L76.3516 133.728C76.6965 131.827 77.0044 130.15 77.4373 128.524C77.2107 129.922 77.0416 131.33 76.9908 132.741C76.957 133.647 77.6841 133.885 78.1272 133.329L78.9559 132.311C78.0562 134.298 76.8995 136.306 76.6357 138.467L76.6425 138.515C77.1971 138.13 77.7654 137.812 78.3437 137.553C79.1859 136.441 80.0686 135.347 81.0054 134.364C81.6278 133.709 82.2704 133.097 82.957 132.594L82.6492 133.028C82.2197 133.643 81.7833 134.239 81.3369 134.803L81.1611 135.024L81.0156 135.216L81.0088 135.236L81.1949 135.149C82.4869 134.611 83.7755 134.038 85.0506 133.437L85.8149 132.93C93.0866 128.734 100.074 123.659 106.73 117.894C112.497 112.897 118.521 107.463 122.816 100.106L122.752 100.111Z" fill="#DE731A"/>
<path d="M76.6425 138.515L76.6357 138.467C76.8995 136.306 78.0563 134.298 78.9559 132.311L78.1272 133.329C78.1171 133.34 78.1104 133.351 78.1002 133.362C78.1002 133.364 78.0968 133.367 78.0934 133.369C78.0901 133.373 78.0867 133.378 78.0833 133.384C77.9311 133.545 77.7586 133.625 77.5929 133.627C77.5895 133.627 77.5895 133.627 77.5861 133.627C77.2682 133.627 76.9875 133.34 76.9908 132.795C76.9908 132.777 76.9908 132.759 76.9908 132.741C77.0416 131.33 77.2107 129.922 77.4373 128.524C77.0044 130.15 76.6965 131.827 76.3516 133.728L76.2265 134.038C75.6447 132.908 75.0832 131.671 74.745 130.353C74.7416 130.191 74.7416 130.028 74.7416 129.865C74.7416 127.708 74.9953 125.432 75.435 123.378C75.1712 123.811 74.9107 124.224 74.6537 124.606C74.1903 125.291 73.7101 126.229 73.1723 127.057C72.4824 127.83 71.4542 128.165 70.5681 128.228C70.7642 126.856 71.187 125.529 71.6368 124.197C71.6334 124.201 71.63 124.203 71.6267 124.204C71.6233 124.208 71.6199 124.209 71.6131 124.213C71.5286 124.265 71.4339 124.292 71.346 124.294C71.3426 124.294 71.3426 124.294 71.3392 124.294C71.3358 124.294 71.3291 124.294 71.3223 124.294C71.1261 124.287 70.9536 124.147 70.9536 123.849C70.9536 123.806 70.9604 123.76 70.9672 123.709C71.2749 121.704 71.6571 119.75 72.0494 117.804C73.8285 116.522 75.7327 113.59 76.9841 112.206C81.1881 107.562 82.9367 106.817 83.8735 101.047C84.1306 99.4763 84.2422 98.0744 84.2422 96.8225C84.2389 91.9167 82.5139 89.3414 80.9412 88.0198C80.1532 87.3565 79.2839 86.9888 78.3944 86.8864C78.2422 86.8704 78.0867 86.8635 77.9345 86.8635C76.4024 86.8635 74.8398 87.6452 73.5343 89.0687C70.1149 92.7953 68.3527 101.42 68.0179 107.571L67.9773 108.342C67.2467 105.826 66.9999 102.972 66.9999 100.152C67.0032 98.0615 67.1419 95.9908 67.3211 94.0917C67.541 91.7193 67.8353 89.4149 68.2783 87.1825C68.1566 87.4102 67.974 87.536 67.7981 87.5392C67.7981 87.5392 67.7947 87.5392 67.7913 87.5392C67.7879 87.5392 67.7845 87.5392 67.7812 87.5392C67.5918 87.536 67.4193 87.385 67.355 87.0659C67.0777 85.6764 66.9694 84.1395 66.9694 82.5778C66.9694 81.7295 67.0032 80.8761 67.0573 80.0333L67.0506 80.0549C66.7529 81.197 66.6278 82.3946 65.9277 83.1892C65.921 83.1929 65.9176 83.198 65.9142 83.2016C65.9108 83.2035 65.9108 83.2072 65.9074 83.209C65.8973 83.2196 65.8837 83.2324 65.8736 83.2448C65.7383 83.3793 65.5827 83.4528 65.4372 83.4564C65.4339 83.4564 65.4306 83.4564 65.4306 83.4564C65.4272 83.4564 65.4204 83.4564 65.417 83.4564C65.2107 83.4509 65.028 83.2985 64.9435 82.9652C64.9401 82.9597 64.9401 82.9542 64.9401 82.9487C64.9367 82.9418 64.9367 82.9363 64.9333 82.929C64.9333 82.9257 64.9333 82.9239 64.9333 82.9202C64.9299 82.9092 64.9266 82.8987 64.9266 82.8881C64.6053 81.2112 64.4632 79.4576 64.4632 77.6627C64.4666 75.5612 64.6594 73.4037 64.9875 71.2448C64.7981 71.7612 64.5951 72.2758 64.355 72.7656C64.3482 72.7743 64.3448 72.7835 64.3414 72.7904C64.338 72.7941 64.338 72.7959 64.338 72.7977C64.2366 72.9809 64.0742 73.081 63.922 73.0883C63.9186 73.0883 63.912 73.0883 63.9086 73.0883C63.9052 73.0883 63.9052 73.0883 63.9018 73.0883C63.709 73.0847 63.5365 72.9249 63.5365 72.5843C63.5365 72.5664 63.5365 72.5503 63.5399 72.5324C63.5974 71.4959 63.6312 70.4612 63.6448 69.4247C66.151 70.7609 68.7214 72.1344 71.3189 73.5184L71.3054 73.7787C71.3054 73.7842 71.3054 73.7893 71.3054 73.793C71.3054 73.7985 71.3054 73.8035 71.3054 73.809C71.3054 74.1193 71.4745 74.2502 71.6571 74.2502C71.7383 74.2502 71.8228 74.2249 71.8939 74.1767L72.1678 73.967C73.0032 74.4154 73.842 74.8635 74.6842 75.3064C74.3527 76.4596 74.0111 77.6017 73.656 78.7456C73.6526 78.7493 73.6526 78.753 73.6526 78.7567C73.6221 78.8567 73.6087 78.9536 73.6087 79.0468C73.6053 79.3447 73.7507 79.5706 73.9604 79.5706C74.0314 79.5706 74.1092 79.5453 74.1904 79.4898C75.3133 78.7222 76.4193 77.8078 77.4982 76.8039C78.1543 77.1532 78.8071 77.4993 79.4632 77.8436C78.8003 79.2208 78.063 80.5387 77.2005 81.7258C77.072 81.8998 77.0112 82.1435 77.0078 82.3607C77.0078 82.6402 77.1092 82.8789 77.3155 82.8789C77.3865 82.8789 77.4711 82.8505 77.5658 82.7839C79.0912 81.735 80.647 80.5658 82.1994 79.3016C83.1937 79.8304 84.1813 80.3542 85.1656 80.8743C85.054 81.8516 84.966 82.8376 84.9424 83.8562C84.9424 83.8618 84.9424 83.8668 84.9424 83.8705C84.9424 83.876 84.9424 83.8815 84.9424 83.8865C84.9424 84.1968 85.0979 84.3277 85.2738 84.3277C85.4463 84.3277 85.6424 84.2005 85.7337 83.9944C86.099 83.1893 86.5117 82.4699 86.9548 81.8208C87.8578 82.2959 88.7541 82.7715 89.6402 83.2374C88.9705 86.0386 88.6255 88.9669 88.6255 91.9273C88.6255 93.3223 88.7034 94.7265 88.8556 96.1248L89.4441 96.5251C90.3302 95.7089 91.1216 94.7316 91.842 93.656C90.2896 99.2991 87.7732 104.391 84.4891 108.839C84.4857 108.842 84.4857 108.844 84.4824 108.847C84.3674 109.011 84.2929 109.283 84.2929 109.522C84.2929 109.78 84.3775 109.999 84.5872 109.999C84.6312 109.999 84.6819 109.99 84.736 109.968C88.2704 108.611 91.4801 106.468 94.1554 103.5C93.851 104.463 93.5365 105.422 93.1949 106.364C91.7304 110.416 89.4474 113.169 87.1881 116.348C87.0596 116.53 86.9818 116.793 86.9818 117.021C86.9852 117.279 87.0867 117.49 87.3234 117.49C87.3573 117.49 87.3944 117.487 87.435 117.478C91.7371 116.477 95.8465 112.443 98.8431 107.311C98.7281 107.804 98.6132 108.291 98.4914 108.785C98.488 108.799 98.4847 108.813 98.4813 108.828C98.4644 108.905 98.4576 108.989 98.4576 109.072C98.4542 109.359 98.5489 109.64 98.7619 109.64C98.8059 109.64 98.8533 109.628 98.9108 109.601C102.506 107.888 105.476 104.347 107.995 100.497C107.694 102.218 107.383 103.934 107.089 105.665C107.086 105.681 107.082 105.695 107.082 105.709C107.075 105.744 107.075 105.778 107.075 105.81C107.075 106.097 107.221 106.324 107.434 106.324C107.471 106.324 107.508 106.318 107.549 106.301C110.86 105.034 113.302 100.829 115.03 96.4659C116.823 97.3711 118.368 98.1423 119.589 98.7304L119.61 98.7432L120.35 99.0981L120.425 99.1283L121.02 99.4065L121.128 99.4566L121.598 99.6719L121.717 99.7256L122.028 99.8546L122.187 99.923L122.39 99.9983L122.532 100.052L122.661 100.088L122.752 100.111L122.816 100.106C118.521 107.463 112.497 112.897 106.73 117.894C100.074 123.659 93.0866 128.734 85.8149 132.93L85.0506 133.437C83.7755 134.038 82.4869 134.611 81.1949 135.149L81.0088 135.236L81.0156 135.216L81.1611 135.024L81.3369 134.803C81.7834 134.239 82.2197 133.643 82.6492 133.028L82.957 132.594C82.2704 133.097 81.6278 133.709 81.0055 134.364C80.0686 135.347 79.1859 136.441 78.3437 137.553C77.7654 137.812 77.1971 138.13 76.6425 138.515Z" fill="#D14F1F"/>
<path d="M119.84 84.7979C119.414 86.4385 118.991 88.2765 118.571 90.351C118.571 90.351 118.95 90.6163 119.61 91.0148C119.779 89.0744 119.877 86.9623 119.84 84.7979Z" fill="#DE731A"/>
<path d="M119.61 91.0148C118.95 90.6163 118.571 90.351 118.571 90.351C118.991 88.2765 119.414 86.4385 119.84 84.7979C119.846 85.1027 119.847 85.4057 119.847 85.7068C119.847 87.554 119.755 89.347 119.61 91.0148Z" fill="#D14F1F"/>
<path d="M75.7293 94.4841C78.7259 94.4483 79.152 98.2644 78.7495 101.569C78.621 102.616 78.4113 103.611 78.1712 104.418C77.1734 107.786 74.9074 110.632 72.0832 110.659C70.9435 110.673 70.0404 110.165 70.3989 108.351C70.5477 107.619 71.1058 106.611 71.5285 106.131C72.2692 105.288 72.3944 103.007 72.4316 101.836C72.5399 98.6766 72.5027 94.5199 75.7293 94.4841ZM76.984 112.206C81.1881 107.562 82.9366 106.817 83.8735 101.047C85.1283 93.3098 82.9164 89.6788 80.9412 88.0198C80.1531 87.3583 79.2839 86.9887 78.3944 86.8864C76.7202 86.711 74.9716 87.4996 73.5342 89.0687C70.1148 92.7952 68.3527 101.42 68.0179 107.571L67.9772 108.342C67.8284 111.25 67.7371 114.914 68.8769 117.155C69.1746 117.738 69.5128 118.079 69.8781 118.267C70.5342 118.599 71.2783 118.362 72.0494 117.804C73.8284 116.522 75.7326 113.59 76.984 112.206Z" fill="#F0CDA9"/>
<path d="M72.4317 101.836C72.3945 103.007 72.2693 105.288 71.5286 106.131C71.1058 106.611 70.5478 107.62 70.399 108.351C70.0405 110.165 70.9435 110.673 72.0833 110.659C74.9074 110.632 77.1735 107.786 78.1712 104.419C78.4114 103.612 78.6211 102.616 78.7496 101.569C79.1521 98.2645 78.7259 94.4485 75.7293 94.4843C72.5027 94.5201 72.5399 98.6768 72.4317 101.836Z" fill="#E3BA8E"/>
<path d="M86.0381 0.914664C88.497 1.29108 90.939 1.86488 93.3335 2.62231C90.9356 1.86488 88.497 1.29108 86.0381 0.914664Z" fill="#D5DA11"/>
<path d="M119.129 21.3194C119.559 21.9148 119.968 22.5212 120.371 23.1395C119.968 22.5212 119.556 21.9148 119.129 21.3194Z" fill="#D5DA11"/>
<path d="M71.2817 1.04797C73.6729 0.621058 76.0912 0.396113 78.5162 0.377751C76.0912 0.396113 73.6729 0.616467 71.2817 1.04797Z" fill="#D5DA11"/>
<path d="M34.5613 41.1524C34.4632 41.5862 34.3753 42.0342 34.2839 42.4846L34.2907 42.5006C34.382 42.0526 34.4632 41.5917 34.5613 41.1524Z" fill="#D5DA11"/>
<path d="M40.5004 24.5024C40.8927 23.7528 41.2986 23.0179 41.7146 22.3096C41.2986 23.0229 40.8927 23.7528 40.5004 24.5024Z" fill="#D5DA11"/>
<path d="M74.4575 22.6055C71.1565 30.0885 69.2083 38.6456 66.7968 46.684C65.4237 51.2566 64.0607 55.8292 62.789 60.4468C64.1757 60.8356 65.5691 61.2033 66.9626 61.5315C76.7574 63.8447 86.4474 63.9971 96.2523 61.7918C102.361 60.4197 108.699 58.1424 114.729 54.8074C114.885 52.5337 114.976 50.2614 114.942 48.002C114.817 38.9734 112.165 30.4562 108.306 23.233C106.28 19.4551 104.072 15.7377 101.877 12.1387C100.135 9.28803 98.1633 6.77749 96.6007 3.79321C103.145 6.37766 109.24 10.3728 114.323 15.5853C108.408 9.50654 101.119 5.08774 93.3436 2.62723C85.7269 6.6912 78.9186 12.4977 74.4575 22.6055Z" fill="#D5DA11"/>
<path d="M35.17 45.124C39.3775 48.3392 43.2569 52.2072 47.8195 54.6043C52.6695 57.1419 57.6988 59.0158 62.789 60.4467C64.0607 55.8291 65.4237 51.2565 66.7969 46.6839C69.2084 38.6455 71.1565 30.0883 74.4576 22.6054C78.9187 12.4976 85.7269 6.69104 93.3436 2.62708L93.3336 2.62248C90.939 1.86505 88.497 1.29125 86.0382 0.914834L85.9975 0.91024C83.5556 0.533819 81.09 0.350203 78.6277 0.368565L78.5162 0.377727C76.0912 0.396088 73.6728 0.621033 71.2816 1.04795L71.0551 1.08468C70.2839 1.22699 69.5161 1.38765 68.7518 1.56668L68.7382 1.57127C67.1824 1.94769 65.647 2.42051 64.1317 2.97596L63.7901 3.10448C63.1171 3.36155 62.444 3.63241 61.7811 3.9262L61.5849 4.00882C60.8375 4.34852 60.0968 4.70197 59.3628 5.08298L59.329 5.10136C58.6526 5.45942 57.9863 5.83583 57.3233 6.23016L56.8972 6.49045C56.3188 6.84346 55.7507 7.21115 55.1859 7.59859L54.8544 7.82075C54.1814 8.28714 53.5184 8.78017 52.8657 9.2966L52.7372 9.39898C52.152 9.87043 51.577 10.3547 51.0088 10.8601L50.5455 11.2815C50.0585 11.7263 49.585 12.1836 49.1149 12.6536L48.7123 13.0535C48.1238 13.6576 47.5421 14.2814 46.9773 14.9305L46.815 15.1242C46.3178 15.7072 45.8273 16.3113 45.3504 16.9265L44.8938 17.531C44.4947 18.0599 44.1024 18.6066 43.7202 19.168L43.3144 19.7505C42.8206 20.4983 42.3301 21.2608 41.8566 22.055L41.7146 22.3097C41.2986 23.0181 40.8927 23.753 40.5004 24.5026L40.1081 25.2701C39.7901 25.9013 39.479 26.5413 39.178 27.2014L38.8262 27.9634C38.4305 28.8599 38.0416 29.7743 37.6797 30.7158L37.585 30.9793C37.2535 31.8401 36.9389 32.7297 36.6345 33.6299L36.3403 34.5567C36.1036 35.2976 35.877 36.0454 35.6605 36.8074L35.3967 37.7453C35.1126 38.7979 34.842 39.8734 34.5951 40.9765L34.5613 41.1523C34.4632 41.5917 34.382 42.0525 34.2907 42.5006C34.4531 43.3576 34.7608 44.2362 35.17 45.124Z" fill="#B7C11A"/>
<path d="M130.196 55.4385C130.25 56.3942 130.287 57.3353 130.308 58.2717C130.287 57.3353 130.247 56.3942 130.196 55.4385Z" fill="#B7C11A"/>
<path d="M130.324 58.9887C130.341 59.9481 130.341 60.9038 130.328 61.8453C130.341 60.9038 130.338 59.9481 130.324 58.9887Z" fill="#B7C11A"/>
<path d="M101.877 12.1385C104.072 15.7374 106.281 19.4548 108.306 23.2328C112.166 30.4559 114.817 38.9731 114.942 48.0017C114.976 50.2612 114.885 52.5335 114.729 54.8071C119.718 52.0492 124.494 48.5668 128.742 44.254C127.771 39.6227 126.296 34.8582 124.118 29.9951C123.797 29.2757 123.452 28.5679 123.104 27.8738L122.765 27.2316C122.512 26.7477 122.255 26.2689 121.984 25.7938L121.592 25.1121C121.311 24.637 121.024 24.1656 120.733 23.7047L120.371 23.1396C119.968 22.5213 119.559 21.9149 119.129 21.3195L119.089 21.2607C118.619 20.6061 118.132 19.9657 117.631 19.3327L117.513 19.195C117.06 18.6244 116.593 18.074 116.119 17.5309L115.896 17.2762C115.419 16.7418 114.936 16.2181 114.438 15.7016L114.323 15.585C109.24 10.3725 103.145 6.37741 96.6008 3.79296C98.1633 6.77724 100.135 9.28778 101.877 12.1385Z" fill="#B7C11A"/>
<path d="M128.742 44.2671C128.978 45.4019 129.181 46.5265 129.361 47.6489C129.181 46.5265 128.978 45.4055 128.742 44.2671Z" fill="#B7C11A"/>
<path d="M114.729 54.8072C108.699 58.1422 102.361 60.4195 96.2524 61.7916C86.4474 63.9969 76.7574 63.8445 66.9626 61.5313C65.5691 61.2031 64.1757 60.8354 62.789 60.4466C57.6988 59.0157 52.6695 57.1419 47.8195 54.6043C43.2569 52.2071 39.3775 48.3392 35.17 45.124C39.3978 54.3444 55.5883 64.7359 59.4812 67.1404C60.5297 67.7446 61.2062 68.1215 61.3719 68.211C62.1228 68.609 62.8804 69.018 63.6447 69.4247C66.1509 70.761 68.7214 72.1326 71.3189 73.5185L72.1678 73.967C73.0032 74.4155 73.842 74.8635 74.6842 75.3083C75.6244 75.8087 76.5613 76.3072 77.4982 76.8039C78.1543 77.1532 78.8071 77.4993 79.4632 77.8436C80.373 78.3334 81.2896 78.8173 82.1994 79.3016C83.1937 79.8304 84.1813 80.3542 85.1655 80.8743C85.7642 81.1878 86.3629 81.5073 86.9547 81.8208C87.8578 82.296 88.754 82.7715 89.6402 83.2375C96.4079 86.8148 102.79 90.1627 108.117 92.9244L108.212 92.9689C110.755 94.2836 113.045 95.4615 115.03 96.4659C116.823 97.3711 118.368 98.1423 119.589 98.7304L119.61 98.7432L120.35 99.0981L120.425 99.1284L121.02 99.4084L121.128 99.4566L121.598 99.6719L121.717 99.7256L122.028 99.8546L122.187 99.923L122.39 100L122.532 100.052L122.66 100.088L122.752 100.111L122.816 100.106L122.847 100.102L123.056 99.7022C123.479 98.8956 124.467 96.9052 125.647 93.9251C123.685 93.2255 121.95 92.356 120.689 91.6477C120.273 91.4145 119.914 91.1992 119.61 91.0147C118.95 90.6162 118.571 90.3509 118.571 90.3509C118.991 88.2765 119.414 86.4384 119.84 84.7978C122.735 73.6622 125.823 71.9623 128.708 71.7704C129.056 71.747 129.401 71.747 129.746 71.7525C129.831 70.8326 129.915 69.9003 129.986 68.9587L130.047 68.1536C130.098 67.404 130.145 66.6419 130.189 65.8707L130.223 65.1537C130.274 64.1442 130.308 63.1307 130.328 62.1051V61.8453C130.341 60.9038 130.341 59.9481 130.325 58.9887L130.308 58.2716C130.287 57.3351 130.25 56.3941 130.196 55.4384L130.176 55.0491C130.105 53.9428 130.017 52.8204 129.898 51.6907L129.851 51.3138C129.746 50.3241 129.614 49.3289 129.462 48.3249L129.361 47.6488C129.181 46.5264 128.978 45.4017 128.742 44.2669V44.2541C124.494 48.5668 119.718 52.0492 114.729 54.8072Z" fill="#DABE11"/>
<path d="M61.426 68.2414L61.3719 68.2111C61.2062 68.1216 60.5297 67.7447 59.4812 67.1406C60.0224 67.4706 60.3369 67.6588 60.3369 67.6588C60.3369 67.6588 16.7371 84.421 2.78562 62.7778C1.23319 60.3659 0.553372 58.5013 0.414702 57.0484C0.2253 58.6266 0.779982 60.8355 2.78562 63.9433C9.33691 74.114 22.6797 75.6743 34.9841 74.473C48.8646 73.1151 61.426 68.2414 61.426 68.2414Z" fill="#7B7021"/>
<path d="M60.337 67.6589C60.337 67.6589 60.0224 67.4706 59.4812 67.1406C55.5884 64.7361 39.3978 54.3446 35.1701 45.1241C34.7608 44.2363 34.4531 43.3577 34.2907 42.5006L34.284 42.4846L34.2806 42.4611L4.86233 51.8575C4.80145 52.0044 -0.0317047 52.4974 0.414744 57.0484C0.553414 58.5013 1.23324 60.3659 2.78566 62.7778C16.7372 84.421 60.337 67.6589 60.337 67.6589Z" fill="#D5DA11"/>
<path d="M99.3301 215.388H107.525L95.8938 165.992C94.1283 159.773 91.9637 156.034 89.7755 153.856C97.6559 170.125 98.8228 194.588 99.3301 215.388Z" fill="#5DC0EA"/>
<path d="M62.7857 169.489C66.2592 163.897 70.5613 161.954 73.9334 161.369C74.5895 156.103 75.2254 150.831 75.8274 145.541C76.3787 145.356 76.9198 145.213 77.4474 145.092C74.762 145.693 71.7248 147.146 68.3054 149.217C68.3054 149.217 64.8082 151.252 60.4519 156.336C59.3189 157.657 58.1352 159.172 56.9311 160.93C49.497 171.784 44.0517 188.294 42.8172 205.433C42.5703 208.861 42.3403 212.188 42.1273 215.388H46.054C47.3325 210.875 56.1634 180.131 62.7857 169.489Z" fill="#5C9EDB"/>
<path d="M84.7293 146.366C84.3572 146.079 83.9751 145.819 83.5726 145.613H83.5692C83.9717 145.819 84.3572 146.079 84.7293 146.366Z" fill="#5C9EDB"/>
<path d="M82.3212 145.123C82.7304 145.24 83.1329 145.397 83.5185 145.589C83.1329 145.392 82.7304 145.245 82.3212 145.123Z" fill="#5C9EDB"/>
<path d="M77.6605 145.048C78.7259 144.827 79.7371 144.743 80.6909 144.815C79.7371 144.739 78.7259 144.827 77.6605 145.048Z" fill="#5C9EDB"/>
<path d="M83.5692 145.613L83.5185 145.589C83.1329 145.397 82.7304 145.24 82.3212 145.123L82.0337 145.044C81.6582 144.949 81.2727 144.878 80.877 144.836L80.691 144.815C79.7372 144.743 78.7259 144.827 77.6605 145.048L77.4474 145.092C76.9198 145.213 76.3787 145.356 75.8274 145.541C75.2254 150.831 74.5895 156.103 73.9333 161.369C77.1363 160.819 79.5072 161.503 79.5072 161.503C79.5072 161.503 85.3922 164.328 86.0923 176.464C86.329 178.122 86.4847 179.803 86.5658 181.494C85.9571 186.299 85.7642 191.171 85.4057 196.031C84.9559 202.214 83.9616 208.346 82.9334 214.389L82.7541 215.388H99.3302C98.8229 194.588 97.656 170.125 89.7755 153.856C88.9537 152.158 88.081 150.517 87.1036 149.011C86.7924 148.527 86.461 148.1 86.1228 147.705L85.8251 147.383L85.0134 146.602L84.7293 146.366C84.3572 146.079 83.9717 145.819 83.5692 145.613Z" fill="#5BB0E4"/>
<path d="M85.4057 196.031C85.7642 191.171 85.9571 186.299 86.5659 181.494C86.4847 179.803 86.3291 178.122 86.0923 176.464C86.3764 181.404 85.8048 187.881 83.6165 196.354L79.1115 215.388H82.7541L82.9334 214.389C83.9616 208.346 84.9559 202.214 85.4057 196.031Z" fill="#5BB0E4"/>
<path d="M86.0922 176.464C85.3921 164.328 79.5071 161.503 79.5071 161.503C79.5071 161.503 77.1362 160.819 73.9333 161.369C70.5613 161.954 66.2591 163.897 62.7856 169.489C56.1633 180.131 47.3324 210.875 46.054 215.388H79.1114L83.6165 196.354C85.8047 187.881 86.3763 181.404 86.0922 176.464Z" fill="#5DC0EA"/>
</svg>
