<svg width="106" height="204" viewBox="0 0 106 204" fill="none" xmlns="http://www.w3.org/2000/svg">
<path d="M58.4171 122.034L58.7248 121.598C58.0382 122.102 57.3956 122.716 56.7699 123.37L56.9323 124.028L57.1081 123.81C57.4024 123.203 57.8353 122.626 58.4171 122.034Z" fill="#E3BA8E"/>
<path d="M54.1217 136.98H54.1352C54.4971 136.948 54.8489 136.945 55.1938 136.953H55.3021C55.6369 136.968 55.9582 137.007 56.2761 137.056L56.4216 137.074L57.2976 137.294L57.487 137.348L58.2615 137.671L58.5016 137.778L59.1611 138.182L59.4622 138.37L60.0168 138.831L60.2502 139.025C59.3201 134.398 58.1938 129.166 56.9661 124.154L56.7733 124.24L56.7835 124.222L56.9323 124.028L56.77 123.37C55.8365 124.351 54.9571 125.445 54.1149 126.553C53.5298 126.817 52.9616 127.131 52.4103 127.521L52.4035 127.471C52.6673 125.31 53.8207 123.302 54.7271 121.312L53.8951 122.334C53.452 122.89 52.7249 122.653 52.7553 121.747C52.806 120.334 52.9751 118.929 53.2051 117.53C52.7722 119.156 52.4678 120.833 52.1194 122.734L51.9943 123.042C51.4126 121.909 50.8511 120.675 50.5095 119.357C50.4723 117.059 50.7293 114.593 51.2028 112.382C50.939 112.812 50.6786 113.23 50.4216 113.61C49.9582 114.297 49.4813 115.235 48.9402 116.063C48.2536 116.834 47.222 117.17 46.3359 117.232C46.5354 115.86 46.9582 114.53 47.408 113.197C47.0935 113.409 46.6437 113.287 46.735 112.71C47.0428 110.71 47.4283 108.756 47.8173 106.81C47.0428 107.366 46.3021 107.605 45.6425 107.271C44.4486 110.782 42.9571 114.103 40.9481 117.067C36.2062 124.057 29.8545 130.288 23.0089 133.254V133.274C23.7767 133.374 25.0315 132.926 26.3911 132.479C28.8364 131.674 31.62 130.871 32.5129 133.251C33.1183 134.873 34.8162 140.513 36.7136 147.022C40.4374 143.014 43.2615 141.365 43.2615 141.365C47.4351 138.845 51.0405 137.226 54.1217 136.98Z" fill="#8B613E"/>
<path d="M40.9481 117.067C42.9571 114.103 44.4486 110.782 45.6425 107.271C45.2806 107.083 44.9391 106.742 44.6414 106.159C43.505 103.918 43.5963 100.251 43.7451 97.3423C42.4734 92.9671 42.6696 87.5572 43.089 83.0957C43.3088 80.7233 43.6031 78.4194 44.0428 76.1866C43.7925 76.6709 43.2445 76.6943 43.1228 76.07C42.6932 73.9271 42.6729 71.4313 42.8251 69.0373L42.8184 69.0589C42.5208 70.1973 42.3922 71.3955 41.6955 72.1933C41.3404 72.5968 40.8195 72.5697 40.6944 71.894C40.001 68.2519 40.1431 64.2531 40.7552 60.2511C40.5658 60.7657 40.3629 61.2785 40.1228 61.7697C39.8894 62.2448 39.2705 62.2182 39.3077 61.5328C39.5106 57.9196 39.4599 54.2583 39.0675 50.6611V51.6256L38.3742 52.1815L38.2153 51.9933L38.0664 51.6527L37.2953 50.8994C35.3505 48.2635 33.7947 44.0531 32.8782 40.9564L32.6143 40.0543C32.5941 42.3909 32.7835 44.7041 33.3348 46.8956L33.3212 47.3041C32.0394 46.0077 30.9233 44.4658 29.9154 42.771C28.1465 38.9967 26.868 34.7431 26.5636 30.3358C25.9785 31.9852 25.6166 33.7603 25.4982 35.6397C25.1363 37.2661 24.9909 39.0288 25.0687 40.7539L24.9841 40.7323C22.6944 39.0559 21.0236 35.2935 21.2908 31.6895L21.3686 30.7085L21.2806 30.793C19.5422 33.6047 17.9796 36.886 17.2626 40.3559C16.8398 41.566 16.5084 42.8251 16.346 44.1073C15.9605 43.6138 15.5715 43.1263 15.2231 42.5791C14.523 41.0606 14.0698 39.2565 13.8973 37.4061C13.576 38.136 13.2784 38.8856 13.0112 39.6779C12.1454 42.2422 12.2367 45.1204 11.4385 47.5644L11.3776 47.6755C11.0258 46.6532 10.7384 45.5597 10.5084 44.4529C10.0383 47.541 9.74062 50.6933 9.74739 53.8189C9.75753 58.515 10.9447 62.9765 11.1442 67.6478C11.3235 71.9119 9.44637 75.7473 7.16339 79.0377L6.58505 79.9522C5.4182 81.7507 4.05516 83.2573 2.84433 85.0003C1.96835 86.2609 0.835303 88.0089 0.760895 89.8864L0.848835 89.1065C3.21975 92.2767 6.86577 93.0337 10.1735 93.2632C9.12507 94.8589 7.91762 96.1589 6.61548 97.2941L6.63575 97.4355C6.63575 97.4355 6.62224 98.4936 6.0236 100.149C5.66847 101.135 4.96496 103.17 4.9954 104.524C7.14985 106.425 9.56476 107.271 12.0879 107.671L11.4317 107.886C9.94355 108.329 8.66508 108.5 7.3325 109.348C6.96046 109.683 6.71693 110.122 6.73046 110.678C6.80487 113.906 8.46892 112.253 8.69215 117.196C8.71244 117.609 8.05289 121.258 7.86687 124.584C7.70791 127.387 9.24007 131.117 10.7316 132.883C12.8252 135.366 15.9774 135.271 18.9638 134.613C20.3235 134.299 21.673 133.833 23.0089 133.254C29.8545 130.288 36.2062 124.057 40.9481 117.067Z" fill="#A06E46"/>
<path d="M12.0878 107.671C9.56473 107.271 7.14981 106.425 4.99536 104.524L5.01567 104.874C5.35389 107.285 9.04725 108.2 10.6031 108.078L10.5388 108.114L10.5083 108.123L10.1058 108.209L10.0213 108.222L9.83529 108.266L9.48014 108.349L9.38543 108.371L8.95593 108.496L8.82063 108.545L8.33019 108.729L8.32008 108.733L7.8601 108.971L7.74847 109.038L7.33246 109.344V109.348C8.66505 108.502 9.94351 108.329 11.4317 107.886L12.0878 107.671Z" fill="#8B613E"/>
<path d="M10.1735 93.2633C6.86575 93.0337 3.21973 92.2768 0.84882 89.1066L0.76088 89.8865L0.75415 90.3042L0.781193 90.5861L0.926645 91.3481L1.20397 92.083C1.90408 93.0158 2.80713 93.7508 3.58165 94.2493C4.45426 94.8139 6.514 95.7141 6.61546 97.2942C7.91761 96.159 9.12505 94.8589 10.1735 93.2633Z" fill="#8B613E"/>
<path d="M30.4023 8.94857C26.0123 11.6505 21.3144 13.1571 16.9041 15.7893C16.576 15.983 16.4001 16.8327 16.8127 17.0265C18.0608 17.6182 19.3223 18.013 20.594 18.2407C17.6177 20.0121 14.8511 22.1315 12.9164 25.9958C12.6662 26.498 12.886 27.2747 13.3798 26.907C15.196 25.5657 17.1239 24.6958 19.1025 24.1041C17.6853 26.4406 16.6301 29.1394 15.9063 32.2003C15.7507 32.8604 16.3088 32.95 16.5963 32.6575C18.93 30.3141 21.3178 28.2824 23.8544 26.7331C23.4858 28.3416 23.2998 30.0056 23.3201 31.8239C23.3302 32.5859 24.0404 32.3077 24.1859 31.7968C25.2851 27.938 27.4058 25.7268 29.9255 24.3015C28.603 28.3953 28.4204 32.9679 30.1318 37.248C30.3922 37.899 30.9942 37.0327 30.9908 36.581C30.9333 31.8597 32.6684 28.8025 35.1374 26.683C34.0314 33.2369 35.3911 40.0005 38.638 45.8607C38.9661 46.4524 39.6391 45.6041 39.4768 45.0303C38.3979 41.2165 38.5196 37.2985 39.4193 33.6441C39.8589 36.6476 40.6402 39.5309 41.8781 42.1939C42.1352 42.753 42.6459 42.0988 42.7203 41.6953C42.9164 40.6459 43.116 39.597 43.3155 38.5481C44.063 44.5249 44.7327 50.4994 45.0506 56.5515C45.0912 57.3457 45.7372 57.0087 45.9164 56.5244C46.6233 54.6419 47.2118 52.6657 47.6988 50.6449L47.7665 51.737C47.9525 55.4989 47.2017 59.0621 47.0731 62.7827C47.0596 63.2541 47.4181 63.3349 47.665 63.1775C49.3697 62.1015 50.7935 60.3405 52.0111 58.2243C51.3245 61.4611 50.4012 64.6083 49.4238 67.7464C49.2546 68.2876 49.5523 68.7682 49.9582 68.4905C52.5489 66.7241 55.0754 64.2856 57.3043 61.3716C56.2964 64.8231 54.9165 68.0512 52.9649 70.732C52.6233 71.2035 52.7451 72.1932 53.3336 71.7897C56.1273 69.8713 59.0224 67.5848 61.7924 64.9526C61.2039 67.5077 60.7778 70.1008 60.7068 72.8565C60.6932 73.5111 61.3122 73.4161 61.5016 73.0002C62.8781 69.9696 64.8398 68.1049 67.1836 66.8531C64.789 72.3548 63.93 78.7796 64.6199 85.131L65.2118 85.5309C66.1013 84.7133 66.8894 83.736 67.6064 82.66C66.0573 88.3049 63.5376 93.3976 60.2569 97.8444C59.9829 98.2121 59.9356 99.1894 60.5038 98.9741C64.0382 97.6112 67.2479 95.472 69.9232 92.5043C69.6188 93.4692 69.3043 94.425 68.9627 95.3697C67.4948 99.4226 65.2152 102.175 62.9559 105.353C62.6616 105.77 62.6413 106.613 63.2028 106.482C67.5049 105.48 71.6143 101.449 74.6109 96.3148C74.4959 96.8079 74.3775 97.2977 74.2592 97.7907C74.1645 98.185 74.2659 98.7983 74.6752 98.6064C78.2738 96.8942 81.2434 93.3471 83.7631 89.497C83.4621 91.2185 83.1509 92.9367 82.8567 94.6705L83.3167 95.3073C87.9773 93.5229 90.9266 85.9233 92.5568 80.2444C93.7033 76.2457 94.3832 71.9242 94.647 67.6564C94.6842 67.0739 94.7282 66.4674 94.7688 65.8454C95.8375 70.8124 95.7665 76.5684 95.2727 81.1143C95.1915 81.853 95.7732 81.9356 96.054 81.4279C98.6413 76.7244 100.474 71.243 101.364 65.4957C101.668 67.2442 101.892 69.0138 101.875 70.8431C101.865 71.7484 102.666 71.1746 102.785 70.6421C103.975 65.1101 105.034 58.6012 105.044 52.2801C105.179 53.7146 105.301 55.1404 105.385 56.5571C104.898 48.4016 103.586 39.7549 101.151 32.9178C100.021 29.7435 98.1239 26.5517 96.2096 24.1991C95.1848 22.9386 93.5951 22.3344 92.0765 21.7964L91.8736 21.1455C87.1554 8.11813 76.1126 4.34338 66.4125 1.94989C57.9537 -0.137406 49.0078 -0.0387179 40.6504 2.77985C36.5173 4.17857 32.5196 6.95262 28.4914 9.17258C31.1126 7.72887 33.7203 6.05242 36.3617 4.6716C34.4271 6.22273 32.4553 7.67884 30.4023 8.94857Z" fill="#E78617"/>
<path d="M11.4385 47.5642C12.2366 45.1202 12.1453 42.242 13.0112 39.6778C13.2784 38.8854 13.576 38.1358 13.8973 37.4059C14.0698 39.2564 14.523 41.0604 15.2231 42.5789C15.5715 43.1261 15.9604 43.6136 16.346 44.1071C16.5084 42.825 16.8398 41.5658 17.2626 40.3558C17.9796 36.8858 19.5422 33.6045 21.2806 30.7929L21.3685 30.7084L21.2908 31.6894C21.0236 35.2934 22.6943 39.0557 24.9841 40.7322L25.0686 40.7538C24.9908 39.0287 25.1363 37.2659 25.4982 35.6395C25.6166 33.7601 25.9785 31.985 26.5636 30.3356C26.868 34.743 28.1465 38.9965 29.9153 42.7708C30.9232 44.4656 32.0393 46.0076 33.3212 47.3039L33.3347 46.8954C32.7834 44.7039 32.594 42.3907 32.6143 40.0542L32.8781 40.9562C33.7947 44.0529 35.3505 48.2634 37.2953 50.8992L38.0664 51.6525L38.2152 51.9931L38.3742 52.1813L39.0675 51.6254V50.661C39.4598 54.2581 39.5106 57.9195 39.3077 61.5326C39.2705 62.218 39.8894 62.2446 40.1228 61.7695C40.3629 61.2783 40.5658 60.7656 40.7552 60.251C40.143 64.253 40.001 68.2517 40.6944 71.8938C40.8195 72.5696 41.3403 72.5966 41.6955 72.1931C42.3922 71.3953 42.5208 70.1972 42.8184 69.0587L42.8251 69.0372C42.6729 71.4311 42.6932 73.927 43.1228 76.0698C43.2445 76.6941 43.7925 76.6707 44.0427 76.1864C43.6031 78.4192 43.3088 80.7232 43.0889 83.0956C42.6695 87.5571 42.4734 92.967 43.7451 97.3422L43.7857 96.5746C44.1205 90.4261 45.8826 81.7992 49.302 78.075C50.7394 76.5059 52.488 75.7168 54.1622 75.8871C55.0517 75.9895 55.9176 76.3567 56.709 77.0256C58.6842 78.6846 60.8996 82.3101 59.6414 90.0479C58.7045 95.8236 56.9593 96.5659 52.7519 101.21C51.5005 102.596 49.5929 105.528 47.8172 106.81C47.4283 108.756 47.0427 110.71 46.7349 112.71C46.6436 113.287 47.0935 113.409 47.408 113.197C46.9582 114.53 46.5354 115.86 46.3358 117.232C47.222 117.169 48.2536 116.834 48.9401 116.063C49.4813 115.235 49.9582 114.297 50.4215 113.61C50.6786 113.23 50.939 112.812 51.2028 112.382C50.7293 114.592 50.4723 117.058 50.5095 119.357C50.8511 120.675 51.4125 121.909 51.9943 123.042L52.1194 122.734C52.4678 120.833 52.7721 119.156 53.2051 117.53C52.9751 118.929 52.806 120.334 52.7553 121.747C52.7248 122.653 53.452 122.89 53.895 122.334L54.7271 121.311C53.8206 123.302 52.6673 125.31 52.4035 127.471L52.4103 127.521C52.9616 127.13 53.5297 126.816 54.1149 126.553C54.957 125.445 55.8364 124.351 56.7699 123.37C57.3956 122.716 58.0382 122.102 58.7248 121.598L58.417 122.034C57.9875 122.647 57.5512 123.244 57.1081 123.81L56.9322 124.028L56.7834 124.222L56.7733 124.24L56.9661 124.154C58.2581 123.612 59.5433 123.047 60.8184 122.441L61.5828 121.936C68.8511 117.74 75.842 112.665 82.4982 106.896C88.5252 101.673 94.8567 96.0008 99.1758 88.1254C104.144 79.0647 106.048 67.7105 105.385 56.557C105.301 55.1404 105.179 53.7146 105.044 52.28C105.034 58.6011 103.975 65.11 102.785 70.642C102.666 71.1745 101.865 71.7483 101.875 70.8431C101.892 69.0138 101.668 67.2441 101.364 65.4956C100.475 71.2429 98.6413 76.7244 96.054 81.4278C95.7732 81.9355 95.1915 81.8529 95.2727 81.1143C95.7665 76.5683 95.8375 70.8123 94.7688 65.8454C94.7282 66.4674 94.6842 67.0738 94.647 67.6563C94.3832 71.9241 93.7034 76.2456 92.5568 80.2444C90.9266 85.9233 87.9773 93.5229 83.3167 95.3072L82.8567 94.6705C83.151 92.9367 83.4621 91.2184 83.7631 89.497C81.2434 93.347 78.2738 96.8941 74.6752 98.6064C74.2659 98.7983 74.1645 98.185 74.2592 97.7907C74.3776 97.2976 74.4959 96.8078 74.6109 96.3148C71.6143 101.449 67.5049 105.48 63.2028 106.482C62.6413 106.613 62.6616 105.77 62.9559 105.353C65.2152 102.175 67.4948 99.4226 68.9627 95.3696C69.3043 94.4249 69.6188 93.4692 69.9232 92.5042C67.2479 95.472 64.0382 97.6112 60.5038 98.9741C59.9356 99.1894 59.983 98.2121 60.2569 97.8444C63.5376 93.3976 66.0574 88.3049 67.6064 82.6599C66.8894 83.7359 66.1013 84.7133 65.2118 85.5308L64.6199 85.131C63.93 78.7796 64.789 72.3547 67.1836 66.853C64.8398 68.1048 62.8781 69.9695 61.5016 73.0002C61.3122 73.4161 60.6932 73.5111 60.7068 72.8565C60.7778 70.1008 61.2039 67.5076 61.7924 64.9526C59.0224 67.5848 56.1273 69.8713 53.3336 71.7896C52.7451 72.1931 52.6233 71.2034 52.9649 70.732C54.9165 68.0511 56.2964 64.8231 57.3043 61.3715C55.0754 64.2856 52.5489 66.724 49.9582 68.4904C49.5523 68.7682 49.2547 68.2876 49.4238 67.7463C50.4012 64.6083 51.3246 61.461 52.0111 58.2243C50.7936 60.3405 49.3697 62.1014 47.665 63.1774C47.4181 63.3349 47.0596 63.2541 47.0732 62.7826C47.2017 59.062 47.9525 55.4989 47.7665 51.737L47.6989 50.6449C47.2118 52.6656 46.6233 54.6418 45.9164 56.5244C45.7372 57.0087 45.0912 57.3456 45.0506 56.5515C44.7327 50.4994 44.063 44.5249 43.3156 38.548C43.116 39.597 42.9165 40.6459 42.7203 41.6953C42.6459 42.0988 42.1352 42.7529 41.8781 42.1938C40.6403 39.5309 39.859 36.6476 39.4193 33.644C38.5196 37.2985 38.3979 41.2165 39.4768 45.0303C39.6391 45.6041 38.9661 46.4524 38.638 45.8607C35.3911 40.0005 34.0314 33.2368 35.1374 26.683C32.6684 28.8024 30.9334 31.8597 30.9909 36.581C30.9942 37.0327 30.3922 37.8989 30.1318 37.248C28.4204 32.9678 28.6031 28.3952 29.9255 24.3014C27.4058 25.7268 25.2851 27.938 24.1859 31.7968C24.0405 32.3077 23.3302 32.5859 23.3201 31.8239C23.2998 30.0056 23.4858 28.3415 23.8544 26.733C21.3178 28.2823 18.93 30.314 16.5963 32.6575C16.3088 32.9499 15.7507 32.8604 15.9063 32.2003C16.6301 29.1394 17.6854 26.4406 19.1025 24.104C17.1239 24.6957 15.1961 25.5657 13.3798 26.907C12.886 27.2747 12.6662 26.498 12.9165 25.9958C14.8511 22.1315 17.6177 20.0121 20.594 18.2406C19.3223 18.0129 18.0608 17.6181 16.8128 17.0264C16.4001 16.8327 16.576 15.983 16.9041 15.7893C21.3144 13.1571 26.0123 11.6505 30.4024 8.94853C32.4553 7.6788 34.4272 6.22269 36.3618 4.67156C33.7203 6.05238 31.1126 7.72883 28.4915 9.17254L28.3866 9.22625C28.0112 9.43236 27.6324 9.63344 27.2569 9.82715L26.983 9.96531C26.6346 10.1443 26.2829 10.3147 25.9345 10.4781L25.6876 10.5947C24.8454 10.9784 23.9999 11.3191 23.1476 11.5968L22.789 11.7097L21.8793 11.9663L21.4565 12.065L20.5534 12.2353L20.1645 12.3014C19.7383 12.3556 19.3122 12.3951 18.8826 12.413C18.3347 12.5167 17.7834 12.592 17.2288 12.5883C15.5343 12.5704 13.6707 12.2569 12.0236 11.7818L11.2355 11.4586C11.8883 13.4885 12.9875 14.8033 14.3133 15.619C13.4272 15.8379 12.5376 16.0675 11.6312 16.1428C10.7011 16.2231 9.7778 16.0941 8.85446 15.9633C8.49933 15.8967 8.14758 15.7893 7.79583 15.6764L7.68085 15.6493L7.46777 15.5919L7.43057 15.574L7.2885 15.5024L7.22426 15.4666C6.28063 15.081 5.35051 14.5375 4.37306 14.1486L4.68085 14.7225C4.66056 16.2589 4.64703 17.5107 5.14421 19.1605C5.50272 20.3385 6.20284 21.2676 6.96383 22.0562C5.3167 23.0335 3.76428 24.3694 2.57037 26.0587L2.29301 26.4943C1.73833 28.1262 1.35953 29.8422 1.28174 31.632C3.17238 29.2289 5.03596 27.5616 7.23776 26.5751C6.31104 27.5795 5.58389 28.7932 4.93113 30.0896L4.81276 30.4072C4.29867 31.2643 4.08895 32.254 3.98072 33.2942C5.59064 31.7486 6.95028 29.9679 8.72255 28.6142C9.04386 28.3718 9.37194 28.1497 9.70339 27.9417L8.9187 29.1123C8.22535 30.3104 7.29527 32.1842 6.60868 34.1815C6.41251 36.3928 6.45649 38.5751 6.91647 40.6964L7.10247 40.3645C8.19491 36.9611 9.63234 34.4111 11.7936 32.2361C11.6278 32.6896 11.4757 33.156 11.3505 33.6491C10.8905 35.4334 10.2885 37.9563 10.0112 40.5045C10.0551 41.7724 10.2378 43.1206 10.5084 44.4528C10.7383 45.5595 11.0258 46.653 11.3776 47.6753L11.4385 47.5642Z" fill="#E78617"/>
<path d="M52.4103 127.521L52.4035 127.471C52.6673 125.31 53.8206 123.302 54.7271 121.311L53.8951 122.334C53.8917 122.341 53.8849 122.348 53.8781 122.355C53.868 122.371 53.8545 122.384 53.8409 122.398C53.6955 122.552 53.523 122.629 53.364 122.631C53.3606 122.631 53.3573 122.631 53.3539 122.631C53.0359 122.631 52.7553 122.344 52.7553 121.801C52.7553 121.783 52.7553 121.765 52.7553 121.747C52.806 120.334 52.9751 118.929 53.2051 117.53C52.7722 119.156 52.4678 120.833 52.1194 122.734L51.9943 123.042C51.4125 121.909 50.8511 120.675 50.5095 119.357C50.5095 119.196 50.5061 119.032 50.5061 118.871C50.5095 116.712 50.7631 114.437 51.2028 112.382C50.939 112.812 50.6786 113.23 50.4215 113.61C49.9582 114.297 49.4813 115.235 48.9401 116.063C48.2536 116.834 47.222 117.169 46.3358 117.232C46.5354 115.86 46.9582 114.53 47.408 113.197C47.4012 113.203 47.3945 113.206 47.3877 113.212C47.2998 113.264 47.2051 113.292 47.1171 113.294C47.1138 113.294 47.1104 113.294 47.107 113.294C46.9007 113.294 46.7214 113.156 46.7214 112.851C46.7214 112.807 46.7248 112.76 46.7349 112.71C47.0427 110.71 47.4283 108.756 47.8172 106.81C49.5929 105.528 51.5005 102.596 52.7519 101.21C56.9593 96.5659 58.7045 95.8236 59.6414 90.0479C59.8984 88.477 60.01 87.0746 60.01 85.8246C60.01 80.9187 58.2817 78.3472 56.709 77.0256C55.9176 76.3567 55.0517 75.9895 54.1622 75.8871C54.0134 75.8729 53.8612 75.8637 53.7124 75.8637C52.1769 75.8637 50.6109 76.6455 49.302 78.075C45.8826 81.7992 44.1205 90.4261 43.7857 96.5746L43.7451 97.3422C43.0146 94.8302 42.7677 91.9754 42.771 89.1564C42.771 87.0659 42.9097 84.9946 43.0889 83.0956C43.3088 80.7232 43.6031 78.4192 44.0427 76.1864C43.9244 76.4178 43.7383 76.5435 43.5625 76.5454H43.5591C43.3764 76.5454 43.2039 76.4091 43.1329 76.1148C43.1295 76.1075 43.1295 76.1006 43.1261 76.0914C43.1261 76.0845 43.1228 76.0771 43.1228 76.0698C42.8454 74.6803 42.7406 73.1434 42.7406 71.5798C42.7406 70.7334 42.771 69.8781 42.8251 69.0372L42.8184 69.0587C42.5208 70.1972 42.3922 71.3953 41.6955 72.1931C41.5467 72.3616 41.3708 72.4548 41.2051 72.4566C41.2051 72.4566 41.2017 72.4566 41.1983 72.4566C41.1949 72.4566 41.1915 72.4566 41.1882 72.4566C40.9751 72.4516 40.7857 72.2937 40.7045 71.9475C40.7045 71.9457 40.7045 71.9457 40.7045 71.9439C40.7011 71.9278 40.6978 71.9099 40.6944 71.8938C40.3764 70.2156 40.231 68.4597 40.231 66.6648C40.231 64.5651 40.4238 62.4081 40.7552 60.251C40.5658 60.7656 40.3629 61.2783 40.1228 61.7695C40.0213 61.9775 39.8454 62.0885 39.6831 62.0922C39.6831 62.0922 39.6797 62.0922 39.6763 62.0922H39.6729C39.4802 62.0904 39.3077 61.9311 39.3077 61.5937C39.3077 61.574 39.3077 61.5524 39.3077 61.5326C39.3855 60.1771 39.426 58.8165 39.426 57.4535C39.426 55.1817 39.311 52.9076 39.0675 50.661V51.6254L38.3742 52.1813L38.2152 51.9931L38.0664 51.6525L37.2953 50.8992C35.3505 48.2634 33.7947 44.0529 32.8781 40.9562L32.6143 40.0542C32.6143 40.1836 32.6143 40.3108 32.6143 40.4379C32.6143 42.6437 32.8139 44.8242 33.3347 46.8954L33.3212 47.3039C32.0393 46.0076 30.9232 44.4656 29.9153 42.7708C28.1465 38.9965 26.868 34.743 26.5636 30.3356C25.9785 31.985 25.6166 33.7601 25.4982 35.6395C25.2039 36.9735 25.0484 38.3993 25.0484 39.8214C25.0484 40.1331 25.0551 40.4434 25.0686 40.7538L24.9841 40.7322C22.8567 39.1737 21.2603 35.8135 21.2637 32.4514C21.2637 32.1966 21.2739 31.9437 21.2908 31.6894L21.3685 30.7084L21.2806 30.7929C19.5422 33.6045 17.9796 36.8858 17.2626 40.3558C16.8398 41.5658 16.5084 42.825 16.346 44.1071C15.9604 43.6136 15.5715 43.1261 15.2231 42.5789C14.523 41.0604 14.0698 39.2564 13.8973 37.4059C13.576 38.1358 13.2784 38.8854 13.0112 39.6778C12.1453 42.242 12.2367 45.1202 11.4385 47.5642L11.3776 47.6753C11.0258 46.653 10.7383 45.5595 10.5084 44.4528C10.2378 43.1206 10.0552 41.7724 10.0112 40.5045C10.2885 37.9563 10.8905 35.4334 11.3505 33.6491C11.4757 33.156 11.6278 32.6896 11.7936 32.2361C9.63234 34.4111 8.19491 36.9611 7.10247 40.3645L6.91647 40.6964C6.62222 39.3371 6.50047 37.9527 6.50047 36.5526C6.50047 35.7671 6.54104 34.9762 6.60868 34.1815C7.29527 32.1842 8.22535 30.3104 8.9187 29.1123L9.70339 27.9417C9.37194 28.1497 9.04386 28.3718 8.72255 28.6142C6.95028 29.9679 5.59064 31.7486 3.98072 33.2942C4.08895 32.254 4.29867 31.2643 4.81276 30.4072L4.93113 30.0896C5.58389 28.7932 6.31104 27.5795 7.23776 26.5751C5.03596 27.5616 3.17238 29.2289 1.28174 31.632C1.35953 29.8422 1.73833 28.1262 2.29301 26.4943L2.57037 26.0587C3.76428 24.3694 5.3167 23.0335 6.96383 22.0562C6.20284 21.2676 5.50272 20.3385 5.14421 19.1605C4.74173 17.821 4.67408 16.7432 4.67408 15.5616C4.67408 15.2889 4.67747 15.0112 4.68085 14.7225L4.37306 14.1486C5.35051 14.5375 6.28063 15.081 7.22426 15.4666L7.2885 15.5024L7.43057 15.574L7.46777 15.5919L7.68085 15.6493L7.79583 15.6764C8.14758 15.7893 8.49933 15.8967 8.85446 15.9633C9.58163 16.0656 10.3054 16.1675 11.036 16.1675C11.2355 16.1675 11.4317 16.1607 11.6312 16.1428C12.5376 16.0675 13.4272 15.8379 14.3133 15.619C12.9875 14.8033 11.8883 13.4885 11.2355 11.4586L12.0236 11.7818C13.6707 12.2569 15.5343 12.5704 17.2288 12.5883C17.2457 12.5883 17.2592 12.5883 17.2761 12.5883C17.8139 12.5883 18.3483 12.5131 18.8827 12.413C18.9503 12.4111 19.0179 12.4075 19.0856 12.4038C19.3122 12.3964 19.5422 12.3767 19.7722 12.3464C19.9041 12.334 20.0326 12.3179 20.1645 12.3014L20.4418 12.2532L20.5534 12.2353L21.4565 12.065L21.6053 12.0292L21.8793 11.9663L22.7891 11.7097L23.1476 11.5968C23.9627 11.3296 24.7778 11.0051 25.5895 10.6392C25.6233 10.6231 25.6572 10.6089 25.6876 10.5947L25.7789 10.5515L25.9345 10.4781C26.2355 10.3381 26.5365 10.193 26.8342 10.0406C26.8849 10.0153 26.9322 9.9901 26.983 9.96531L27.2569 9.82715C27.5478 9.67842 27.8421 9.52235 28.1329 9.36443C28.2175 9.31945 28.302 9.27307 28.3866 9.22625L28.4001 9.21936L28.4915 9.17254C31.1126 7.72883 33.7203 6.05238 36.3618 4.67156C34.4272 6.22269 32.4553 7.6788 30.4024 8.94853C26.0123 11.6505 21.3145 13.1571 16.9041 15.7893C16.7113 15.9022 16.5726 16.241 16.5726 16.5426C16.5726 16.7542 16.6436 16.9461 16.8128 17.0264C18.0608 17.6181 19.3223 18.0129 20.594 18.2406C17.6177 20.0121 14.8511 22.1315 12.9165 25.9958C12.9131 26.0013 12.9131 26.0068 12.9097 26.0123C12.8454 26.15 12.8116 26.3061 12.8116 26.4535C12.8116 26.7454 12.93 27.002 13.1397 27.002C13.2107 27.002 13.2919 26.9731 13.3798 26.907C15.1961 25.5657 17.1239 24.6957 19.1025 24.104C17.6854 26.4406 16.6301 29.1394 15.9063 32.2003C15.8995 32.2343 15.8928 32.2669 15.8894 32.2972C15.8827 32.3403 15.8793 32.3798 15.8793 32.4174C15.8826 32.6915 16.0484 32.8173 16.2344 32.8173C16.3595 32.8173 16.4948 32.7617 16.5963 32.6575C18.93 30.314 21.3178 28.2823 23.8544 26.733C23.5027 28.2663 23.3167 29.8477 23.3167 31.5691C23.3167 31.6536 23.3201 31.7394 23.3201 31.8239C23.3235 32.1608 23.4655 32.2953 23.6346 32.2953C23.8477 32.2953 24.1047 32.0818 24.1859 31.7968C25.2851 27.938 27.4058 25.7268 29.9255 24.3014C29.2694 26.3332 28.8939 28.4811 28.8905 30.6529C28.8871 32.8604 29.2693 35.0909 30.1318 37.248C30.1995 37.4146 30.2874 37.483 30.3855 37.483C30.6628 37.483 30.9942 36.9179 30.9909 36.581C30.9909 36.5075 30.9875 36.4341 30.9875 36.3607C30.9875 31.7647 32.7056 28.7698 35.1374 26.683C34.8838 28.1928 34.7586 29.715 34.7586 31.234C34.7586 36.3065 36.1386 41.351 38.638 45.8607C38.7158 46.0021 38.8139 46.0613 38.9187 46.0613C39.1961 46.0613 39.4971 45.622 39.5004 45.2222C39.5004 45.1579 39.4937 45.0931 39.4768 45.0303C38.9458 43.1527 38.7056 41.2504 38.7056 39.3674C38.7056 37.4238 38.9627 35.5 39.4193 33.644C39.859 36.6476 40.6403 39.5309 41.8781 42.1938C41.9492 42.3481 42.0405 42.4105 42.1352 42.4105C42.3855 42.4105 42.6662 41.9872 42.7203 41.6953C42.9165 40.6459 43.116 39.597 43.3156 38.548C44.063 44.5249 44.7327 50.4994 45.0506 56.5515C45.0675 56.8958 45.1995 57.0266 45.355 57.0266C45.5647 57.0266 45.815 56.8007 45.9164 56.5244C46.6233 54.6418 47.2118 52.6656 47.6989 50.6449L47.7665 51.737C47.7868 52.1492 47.797 52.5582 47.797 52.9649C47.797 56.2807 47.1882 59.4687 47.0732 62.7826C47.0732 62.7936 47.0732 62.8042 47.0732 62.8134C47.0732 63.1214 47.2423 63.2509 47.4249 63.2509C47.5061 63.2509 47.5906 63.2256 47.6651 63.1774C49.3697 62.1014 50.7936 60.3405 52.0112 58.2243C51.3246 61.461 50.4012 64.6083 49.4238 67.7463C49.3899 67.8501 49.3765 67.9524 49.3765 68.0493C49.3731 68.3449 49.5185 68.5712 49.7282 68.5712C49.7992 68.5712 49.877 68.546 49.9582 68.4904C52.5489 66.724 55.0754 64.2856 57.3043 61.3715C56.2964 64.8231 54.9165 68.0511 52.965 70.732C52.9514 70.7517 52.9379 70.7728 52.9244 70.7963C52.921 70.8018 52.9176 70.8054 52.9142 70.8105C52.8229 70.9739 52.7789 71.1782 52.7755 71.3645C52.7755 71.6446 52.877 71.8846 53.0833 71.8846C53.1543 71.8846 53.2389 71.8562 53.3336 71.7896C56.1273 69.8713 59.0224 67.5848 61.7925 64.9526C61.2039 67.5076 60.7778 70.1008 60.7068 72.8565C60.7068 72.862 60.7068 72.8675 60.7068 72.873C60.7034 73.1957 60.8624 73.3302 61.0416 73.3302C61.2141 73.3302 61.4103 73.2026 61.5016 73.0002C62.8781 69.9695 64.8398 68.1048 67.1836 66.853C65.3201 71.13 64.3866 75.9624 64.3899 80.8884C64.3899 82.2977 64.4678 83.7162 64.62 85.131L65.2118 85.5308C66.1014 84.7133 66.8894 83.7359 67.6064 82.6599C66.0574 88.3049 63.5376 93.3976 60.2569 97.8444C60.2502 97.8517 60.2434 97.8604 60.24 97.8678C60.1284 98.0307 60.0608 98.2947 60.0608 98.5256C60.0608 98.784 60.1453 99.0044 60.355 99.0044C60.399 99.0044 60.4497 98.9957 60.5038 98.9741C64.0382 97.6112 67.2479 95.472 69.9232 92.5042C69.6188 93.4692 69.3043 94.4249 68.9627 95.3696C67.4948 99.4226 65.2152 102.175 62.9559 105.353C62.9491 105.365 62.939 105.377 62.9322 105.388C62.8206 105.566 62.753 105.804 62.753 106.014C62.7496 106.276 62.8511 106.497 63.0946 106.497C63.1284 106.497 63.1656 106.493 63.2028 106.482C67.5049 105.48 71.6143 101.449 74.6109 96.3148C74.496 96.8078 74.3776 97.2976 74.2592 97.7907C74.2592 97.7943 74.2592 97.7962 74.2558 97.7975C74.2355 97.8857 74.2254 97.9825 74.2254 98.0776C74.2254 98.3626 74.3167 98.6422 74.5331 98.6422C74.5737 98.6422 74.6245 98.6316 74.6752 98.6064C78.2738 96.8941 81.2434 93.347 83.7631 89.497C83.4621 91.2184 83.151 92.9367 82.8567 94.6705L83.3167 95.3072C87.9773 93.5229 90.9266 85.9233 92.5568 80.2444C93.7034 76.2456 94.3832 71.9241 94.647 67.6563C94.6842 67.0738 94.7282 66.4674 94.7688 65.8454C95.3776 68.6786 95.6177 71.7681 95.6177 74.7432C95.6177 76.9847 95.4858 79.1615 95.2727 81.1143C95.2693 81.1519 95.2659 81.1878 95.2659 81.2217C95.2659 81.2309 95.2659 81.2378 95.2659 81.247C95.2659 81.5857 95.4249 81.7505 95.6109 81.7505C95.7665 81.7505 95.9356 81.6413 96.054 81.4278C98.6413 76.7244 100.475 71.2429 101.364 65.4956C101.662 67.1886 101.878 68.9045 101.875 70.6728C101.875 70.7302 101.875 70.7875 101.875 70.8431C101.875 70.8481 101.875 70.8536 101.875 70.8592C101.875 71.1924 101.986 71.3182 102.132 71.3182C102.375 71.3182 102.71 70.9721 102.785 70.642C103.975 65.11 105.034 58.6011 105.044 52.28C105.179 53.7146 105.301 55.1404 105.385 56.557C105.467 57.9736 105.511 59.3916 105.511 60.8083C105.517 70.5562 103.512 80.2159 99.1758 88.1254C94.8567 96.0008 88.5252 101.673 82.4982 106.896C75.842 112.665 68.8511 117.74 61.5828 121.936L60.8184 122.441C59.5433 123.047 58.2581 123.612 56.9661 124.154L56.7733 124.24L56.7834 124.222L56.9322 124.028L57.1081 123.81C57.5512 123.244 57.9875 122.647 58.417 122.034L58.7248 121.598C58.0382 122.102 57.3956 122.716 56.7699 123.37C55.8364 124.351 54.957 125.445 54.1149 126.553C53.5297 126.816 52.9616 127.13 52.4103 127.521ZM19.0856 12.4038C19.3122 12.3896 19.5422 12.3717 19.7722 12.3464C19.5422 12.3767 19.3122 12.3964 19.0856 12.4038Z" fill="#DD5F1C"/>
<path d="M51.497 83.4905C54.4937 83.4542 54.9198 87.2648 54.5174 90.5731C54.3888 91.6221 54.1792 92.6122 53.939 93.4243C52.9379 96.7864 50.6752 99.6325 47.8511 99.6646C46.7113 99.677 45.8116 99.168 46.1667 97.3552C46.3121 96.6198 46.8736 95.6158 47.2998 95.1315C48.0371 94.2942 48.1622 92.0114 48.1994 90.8422C48.3076 87.6775 48.2704 83.5263 51.497 83.4905ZM52.7519 101.21C56.9593 96.566 58.7045 95.8219 59.6414 90.048C60.8995 82.3103 58.6842 78.6847 56.709 77.0257C55.9176 76.3569 55.0517 75.9896 54.1622 75.8872C52.488 75.7169 50.7394 76.5061 49.302 78.0751C45.8826 81.8012 44.1205 90.4263 43.7857 96.5748L43.7451 97.3423C43.5963 100.251 43.5049 103.918 44.6447 106.159C44.939 106.742 45.2806 107.083 45.6425 107.271C46.302 107.603 47.0461 107.366 47.8172 106.81C49.5929 105.528 51.5005 102.597 52.7519 101.21Z" fill="#A06E46"/>
<path d="M48.1994 90.8423C48.1622 92.0115 48.0371 94.2944 47.2998 95.1317C46.8736 95.616 46.3122 96.6199 46.1667 97.3553C45.8116 99.1681 46.7113 99.6772 47.8511 99.6648C50.6752 99.6327 52.9379 96.7866 53.939 93.4245C54.1792 92.6124 54.3888 91.6222 54.5174 90.5733C54.9198 87.265 54.4937 83.4544 51.4971 83.4907C48.2705 83.5265 48.3077 87.6776 48.1994 90.8423Z" fill="#8B613E"/>
<path d="M67.2953 149.47C66.9368 149.446 66.5783 149.443 66.2164 149.425L66.4159 149.939C67.4915 152.679 68.4216 155.593 69.213 158.645C69.7677 158.579 70.319 158.493 70.8737 158.439L71.0326 159.108L70.7959 158.098C69.0338 151.899 66.8725 148.17 64.691 146L64.7147 146.045C65.5873 146.918 66.4565 148.035 67.2953 149.47Z" fill="#DC1794"/>
<path d="M72.3077 175.73C72.6797 178.818 72.9774 181.944 73.2175 185.082C74.3607 184.356 75.4869 183.561 76.5895 182.688L77.6211 187.067C76.2885 188.08 74.9255 188.985 73.5388 189.816C73.6132 191.08 73.6842 192.339 73.7485 193.594V193.617C73.8398 195.518 73.9176 197.404 73.9852 199.278C75.9909 198.145 77.9187 196.795 79.4847 194.975L74.638 174.416L74.6786 174.577C73.8905 174.968 73.0991 175.345 72.3077 175.73Z" fill="#DC1794"/>
<path d="M70.1701 162.689C70.6775 165.029 71.1239 167.423 71.5061 169.87C72.1216 169.562 72.7406 169.266 73.3494 168.943L71.7631 162.201C71.2321 162.366 70.7011 162.527 70.1701 162.689Z" fill="#DC1794"/>
<path d="M76.461 203.139H81.4091L80.7022 200.135C79.3832 201.328 77.9457 202.296 76.461 203.139Z" fill="#DC1794"/>
<path d="M65.1037 146.855C65.4655 147.644 65.8173 148.447 66.1487 149.272L66.2164 149.425C66.5783 149.443 66.9368 149.446 67.2953 149.47C66.4565 148.035 65.5873 146.918 64.7147 146.045L64.8872 146.407L64.9075 146.412L65.1037 146.855Z" fill="#363435"/>
<path d="M69.213 158.645C69.5546 159.969 69.8759 161.317 70.1701 162.689C70.7011 162.527 71.2321 162.366 71.7631 162.201L71.0326 159.108L70.8736 158.439C70.3189 158.493 69.7676 158.579 69.213 158.645Z" fill="#363435"/>
<path d="M71.5061 169.87C71.8105 171.798 72.0709 173.758 72.3077 175.73C73.0991 175.345 73.8905 174.968 74.6786 174.577L74.638 174.416L73.3494 168.943C72.7406 169.266 72.1217 169.562 71.5061 169.87Z" fill="#363435"/>
<path d="M77.6211 187.067L76.5895 182.688C75.4869 183.561 74.3607 184.356 73.2175 185.082C73.3359 186.66 73.4441 188.238 73.5388 189.816C74.9255 188.985 76.2885 188.08 77.6211 187.067Z" fill="#363435"/>
<path d="M73.9852 199.278C74.0325 200.575 74.0731 201.86 74.1103 203.139H76.461C77.9458 202.296 79.3832 201.328 80.7023 200.135L79.488 194.975H79.4846C77.9187 196.795 75.9908 198.145 73.9852 199.278Z" fill="#363435"/>
<path d="M23.2017 200.04C21.3517 199.494 19.532 198.772 17.8003 197.799L17.8207 197.442C17.682 199.373 17.5501 201.274 17.4215 203.139H22.2784C22.5489 202.21 22.8601 201.172 23.2017 200.04Z" fill="#E31C98"/>
<path d="M17.8206 197.442C17.912 196.235 18.0168 195.038 18.1487 193.847C18.0202 195.038 17.9086 196.235 17.8206 197.442Z" fill="#E31C98"/>
<path d="M25.6335 192.192C26.9153 188.184 28.3696 183.809 29.895 179.563C26.7733 179.971 23.6481 180.303 20.5162 180.196C20.9424 178.438 21.4193 176.717 21.9198 175.022C24.399 174.35 26.8477 173.507 29.3065 172.682C30.5106 172.274 31.7147 171.929 32.9187 171.633C34.5692 167.593 36.2197 164.048 37.7518 161.586C38.4147 160.519 39.1148 159.623 39.8251 158.807C35.2693 159.637 30.8048 161.063 26.3945 162.972C27.7541 159.992 29.2389 157.225 30.8285 154.719C36.0438 151.182 41.8105 149.147 47.5399 147.605C49.0991 147.187 50.6853 146.838 52.2783 146.565C52.8668 143.358 53.4722 140.164 54.1216 136.98C51.0404 137.226 47.435 138.845 43.2614 141.365C43.2614 141.365 40.4373 143.014 36.7135 147.022C35.2152 148.636 33.5782 150.617 31.9108 153.047C25.0281 163.089 19.8601 177.985 18.1622 193.734C18.2908 192.559 18.4362 191.394 18.6019 190.232C20.7969 191.417 23.249 191.873 25.6335 192.192Z" fill="#E31C98"/>
<path d="M59.4621 138.37L59.1611 138.182L58.5016 137.778L58.2614 137.671L57.487 137.348L57.2975 137.294L56.4216 137.074L56.2761 137.056C55.9582 137.007 55.6369 136.966 55.302 136.953H55.1938C54.8488 136.945 54.4971 136.948 54.1352 136.98H54.1217C53.4723 140.163 52.8669 143.358 52.2784 146.565C56.4621 145.847 60.7237 145.681 64.8872 146.407L64.7147 146.045L64.691 146C63.8691 144.3 62.9999 142.665 62.0258 141.162L61.2242 140.061L60.8454 139.643L60.3686 139.127L60.2502 139.024L60.0168 138.831L59.4621 138.37Z" fill="#C51A86"/>
<path d="M73.7485 193.617C69.1656 196.436 64.0754 198.217 58.9818 199.439C58.7924 200.673 58.603 201.91 58.4001 203.139H74.1104C74.0732 201.86 74.0326 200.575 73.9852 199.278C73.9176 197.404 73.8398 195.518 73.7485 193.617Z" fill="#C51A86"/>
<path d="M69.5072 159.829C65.8984 159.434 62.293 158.974 58.6808 158.606C59.7936 160.865 60.7541 164.066 61.0111 168.535C61.1295 169.338 61.2209 170.145 61.2987 170.956C64.8567 171.427 68.4046 172.055 71.9322 172.781C72.1791 174.569 72.399 176.376 72.5918 178.196C70.8533 178.125 69.1149 178.038 67.3731 177.963C65.266 177.868 63.1588 177.838 61.0483 177.829C60.7575 181.23 60.5782 184.646 60.3313 188.062C60.2535 189.122 60.1419 190.175 60.0337 191.227C61.9412 190.829 63.8488 190.393 65.7496 189.936C68.3234 189.318 70.8736 188.596 73.4035 187.718C73.5354 189.682 73.6504 191.645 73.7485 193.594C73.6842 192.339 73.6132 191.08 73.5388 189.816C73.4441 188.238 73.3359 186.66 73.2175 185.082C72.9774 181.944 72.6797 178.819 72.3077 175.731C72.0709 173.758 71.8105 171.798 71.5061 169.87C71.1239 167.423 70.6775 165.029 70.1701 162.689C69.8759 161.317 69.5546 159.969 69.2129 158.645C68.4215 155.594 67.4914 152.68 66.4159 149.939C67.6267 153.033 68.6549 156.346 69.5072 159.829Z" fill="#C51A86"/>
<path d="M42.5546 156.251L42.9097 155.982C43.2276 155.758 43.5422 155.566 43.8567 155.373L44.107 155.226C44.452 155.028 44.7936 154.849 45.1352 154.688L45.1555 154.679C50.0732 152.366 54.443 153.625 54.443 153.625C54.443 153.625 56.78 154.751 58.6808 158.606C62.293 158.973 65.8984 159.434 69.5072 159.829C68.6549 156.346 67.6267 153.033 66.4159 149.939L66.2164 149.425L66.1487 149.272C65.8173 148.448 65.4655 147.644 65.1036 146.856L64.9075 146.413L64.8872 146.407C60.7237 145.681 56.4621 145.847 52.2784 146.565C50.6854 146.838 49.0991 147.187 47.5399 147.605C41.8105 149.147 36.0439 151.182 30.8285 154.719C29.2389 157.225 27.7541 159.992 26.3945 162.972C30.8049 161.063 35.2693 159.637 39.8251 158.807C40.718 157.781 41.6313 156.939 42.5546 156.251Z" fill="#363435"/>
<path d="M29.3066 172.682C26.8477 173.507 24.399 174.35 21.9199 175.022C21.4193 176.717 20.9424 178.438 20.5163 180.196C23.6482 180.303 26.7733 179.971 29.8951 179.563C30.8827 176.815 31.9007 174.129 32.9188 171.633C31.7147 171.929 30.5106 172.273 29.3066 172.682Z" fill="#363435"/>
<path d="M72.5917 178.196C72.399 176.376 72.1791 174.569 71.9322 172.781C68.4046 172.055 64.8567 171.427 61.2987 170.956C61.3798 171.821 61.4475 172.686 61.4914 173.561C61.3088 174.977 61.1701 176.403 61.0483 177.828C63.1588 177.838 65.266 177.868 67.3731 177.963C69.1149 178.038 70.8533 178.125 72.5917 178.196Z" fill="#363435"/>
<path d="M23.2017 200.04C23.8951 197.736 24.7169 195.061 25.6335 192.191C23.249 191.872 20.7969 191.417 18.6019 190.232C18.4362 191.394 18.2908 192.559 18.1622 193.734L18.1487 193.847C18.0168 195.038 17.912 196.235 17.8206 197.442L17.8003 197.799C19.532 198.772 21.3517 199.494 23.2017 200.04Z" fill="#363435"/>
<path d="M73.4035 187.718C70.8736 188.597 68.3235 189.318 65.7496 189.936C63.8488 190.393 61.9413 190.829 60.0337 191.227C59.7564 193.982 59.3945 196.716 58.9819 199.44C64.0754 198.217 69.1656 196.436 73.7485 193.618V193.594C73.6504 191.645 73.5354 189.682 73.4035 187.718Z" fill="#363435"/>
<path d="M60.0337 191.227C60.1419 190.174 60.2535 189.122 60.3313 188.062C60.5782 184.646 60.7575 181.23 61.0483 177.828C61.1701 176.403 61.3088 174.977 61.4914 173.561C61.4475 172.686 61.3798 171.821 61.2987 170.955C61.2209 170.145 61.1295 169.338 61.0111 168.534C61.2952 173.466 60.7271 179.93 58.5422 188.385L58.505 188.543L57.1521 194.263H57.1487L55.461 201.394L55.0483 203.139H58.4001C58.603 201.91 58.7924 200.673 58.9818 199.439C59.3945 196.716 59.7563 193.981 60.0337 191.227Z" fill="#731855"/>
<path d="M44.107 155.226C44.452 155.032 44.7936 154.849 45.1352 154.688C44.7936 154.849 44.452 155.028 44.107 155.226Z" fill="#DC1794"/>
<path d="M42.9097 155.982C43.2277 155.764 43.5422 155.561 43.8568 155.373C43.5422 155.566 43.2277 155.758 42.9097 155.982Z" fill="#DC1794"/>
<path d="M34.0416 168.979C34.8263 167.159 35.6076 165.513 36.3719 164.052C43.4982 171.337 51.9706 175.124 60.6087 177.766C60.4531 178.994 60.2637 180.271 60.0202 181.615C50.7462 179.814 41.5771 176.663 34.0416 168.979ZM25.3223 193.178C25.762 191.792 26.222 190.353 26.7023 188.887C33.8455 198.839 45.0405 201.651 55.461 201.394L57.1487 194.263C46.8906 193.352 36.3855 191.552 29.3641 181.065C29.9898 179.299 30.629 177.551 31.2716 175.842C38.4114 185.937 48.6594 186.69 58.505 188.543L58.5422 188.385C60.7271 179.93 61.2953 173.466 61.0112 168.534C60.7541 164.066 59.7936 160.865 58.6808 158.606C56.78 154.751 54.443 153.624 54.443 153.624C54.443 153.624 50.0732 152.366 45.1555 154.679C49.9649 158.525 55.2581 160.976 60.3686 163.935C60.6662 165.378 60.8894 166.992 60.9841 168.839C58.6369 167.814 56.2626 166.881 53.9052 165.882C49.2006 163.887 44.8376 161.116 40.5253 158.018C41.1949 157.333 41.8748 156.759 42.5546 156.251C41.6312 156.938 40.718 157.781 39.8251 158.807C39.1149 159.622 38.4148 160.519 37.7519 161.586C36.2197 164.048 34.5692 167.593 32.9187 171.633C31.9007 174.129 30.8826 176.815 29.895 179.563C28.3697 183.809 26.9153 188.184 25.6335 192.191C24.7169 195.061 23.8951 197.736 23.2017 200.04C22.8601 201.172 22.5489 202.21 22.2784 203.139L22.5963 202.072L23.4926 203.139H36.0675C31.7891 201.059 27.974 197.93 25.3223 193.178Z" fill="#DC1794"/>
<path d="M45.1352 154.688C44.7936 154.849 44.452 155.032 44.107 155.226L43.8567 155.373C43.5422 155.561 43.2276 155.764 42.9097 155.982L42.5546 156.251C41.8748 156.759 41.1949 157.333 40.5253 158.018C44.8376 161.116 49.2006 163.887 53.9052 165.883C56.2626 166.881 58.6369 167.814 60.9841 168.839C60.8894 166.992 60.6662 165.378 60.3686 163.935C55.2581 160.976 49.9649 158.525 45.1555 154.679L45.1352 154.688Z" fill="#363435"/>
<path d="M60.0202 181.615C60.2637 180.271 60.4531 178.994 60.6087 177.766C51.9706 175.125 43.4982 171.337 36.3719 164.052C35.6076 165.513 34.8263 167.159 34.0416 168.979C41.5771 176.663 50.7462 179.814 60.0202 181.615Z" fill="#363435"/>
<path d="M31.2716 175.842C30.629 177.551 29.9897 179.299 29.364 181.065C36.3855 191.552 46.8905 193.352 57.1487 194.263H57.1521L58.505 188.543C48.6594 186.69 38.4114 185.937 31.2716 175.842Z" fill="#363435"/>
<path d="M55.461 201.394C45.0405 201.651 33.8455 198.839 26.7023 188.887C26.222 190.353 25.762 191.792 25.3223 193.178C27.974 197.93 31.7891 201.059 36.0675 203.139H55.0484L55.461 201.394Z" fill="#363435"/>
<path d="M22.2784 203.139H23.4926L22.5963 202.072L22.2784 203.139Z" fill="#363435"/>
</svg>
