<svg width="400" height="112" viewBox="0 0 400 112" fill="none" xmlns="http://www.w3.org/2000/svg">
<g clip-path="url(#clip0_2_60)">
<path d="M0 33.0938C1.33099 27.6692 5.03187 24.4545 9.77285 21.8237C20.743 15.738 31.5541 9.36783 42.4092 3.07782C47.4465 0.159998 52.4104 0.165397 57.4482 3.08214C69.1038 9.83222 80.7815 16.5421 92.4545 23.2602C97.4292 26.1233 99.8731 30.3777 99.8544 36.1335C99.8099 49.5928 99.8093 63.0521 99.8544 76.5112C99.8743 82.349 97.3534 86.5955 92.3088 89.487C80.6768 96.154 69.0604 102.846 57.4598 109.569C52.4237 112.487 47.4537 112.514 42.4214 109.586C36.3096 106.029 30.1677 102.521 24.041 98.9864C23.5194 98.6852 23.0202 98.345 22.4806 98.0011C24.8378 96.172 26.0994 93.9244 26.8245 91.098C27.5322 88.3396 28.9776 85.7681 30.1261 83.1265C32.5165 77.6296 35.735 72.6304 39.4087 67.9135C41.171 65.6501 41.9269 65.4081 44.0859 67.2215C46.6166 69.3481 48.9389 71.7389 51.2299 74.1299C53.9955 77.0148 56.7262 79.9423 59.2966 82.9983C61.0883 85.1271 62.9337 87.291 63.2889 90.2844C63.3461 90.7679 64.2465 91.216 64.8289 91.5593C65.7462 92.0989 66.7098 92.5675 67.6807 93.0072C68.7334 93.483 69.8199 94.2328 70.8859 94.2237C71.7832 94.2147 72.9709 93.4757 73.452 92.7012C73.7376 92.2436 73.1209 90.8535 72.5216 90.2981C71.1454 89.0232 69.5319 88.003 67.9638 86.8407C68.4201 86.0986 68.7135 85.5723 69.0538 85.0784C69.9234 83.8179 69.5549 82.8916 68.4968 81.878C66.6129 80.0743 64.8193 78.1675 63.0848 76.2186C61.2202 74.1239 59.7428 71.7089 57.0038 70.4435C56.107 70.0292 55.5632 68.7072 55.0163 67.7147C52.8019 63.7001 50.883 59.5029 48.4204 55.649C44.6381 49.7294 45.9403 43.8061 47.7121 37.7735C47.7471 37.6572 47.7633 37.4981 47.8464 37.4392C50.161 35.7781 52.3646 33.9141 54.8423 32.5447C56.7268 31.5027 58.9587 31.0871 61.0395 30.403C61.8356 30.1417 62.6384 29.72 63.4437 29.705C64.841 29.6802 66.2436 29.9152 67.5307 30.0314C67.4561 29.791 67.2994 29.2864 67.1428 28.7829C67.3114 28.6979 67.4801 28.6136 67.6488 28.5294C67.27 28.2793 66.891 28.03 66.4767 27.7573C66.7706 27.5844 67.0688 27.4091 67.7481 27.0098C66.7845 26.8142 66.2303 26.7015 65.6764 26.5895C65.5601 26.4889 65.4439 26.3896 65.327 26.2901C65.8401 26.1372 66.3526 25.9836 66.8663 25.8307C66.726 25.612 66.587 25.3947 66.4477 25.1771C65.5728 25.3223 64.4177 25.868 63.8984 25.5053C63.3113 25.0959 63.2956 23.8709 62.6627 23.0211C62.5916 23.3866 62.5265 23.754 62.45 24.119C61.8514 27.0206 61.0372 28.0951 58.2131 27.7476C54.8905 27.3393 52.6506 29.2881 50.0567 30.4813C48.801 31.0582 47.7513 31.6068 46.251 31.3305C45.2797 31.1515 44.1553 31.7357 43.1127 32.0254C42.2666 32.2604 41.4396 32.5656 40.3104 32.9361C40.37 31.8358 40.158 30.9667 40.4911 30.4397C41.837 28.3108 40.8096 26.4569 39.7834 24.7923C38.2296 22.273 34.687 22.6013 33.582 25.3422C32.7906 27.3062 32.7616 29.3575 34.2162 31.2016C34.6437 31.7429 34.8244 32.4771 35.2508 33.413C34.1739 33.413 33.408 33.3606 32.652 33.4239C31.1494 33.5498 29.6443 33.9172 28.1543 33.8563C26.4337 33.7852 24.6209 33.6316 23.0449 33.0155C21.3272 32.3447 19.7613 32.1068 18.0527 32.7235C17.9949 32.7445 17.9305 32.7463 17.8726 32.7662C15.5629 33.5396 13.5478 33.3541 12.1536 31.057C11.8808 30.6077 11.5435 30.1976 10.8111 29.8874C10.9491 30.6168 11.0876 31.3455 11.2538 32.2235C10.3317 31.9875 9.46329 31.7665 8.59604 31.5442C8.4786 31.7315 8.36236 31.9189 8.24553 32.1062C8.61892 32.4121 8.99292 32.7181 9.31091 32.9776C9.06881 33.0638 8.69963 33.1944 7.98776 33.4468C8.81887 33.8442 9.33622 34.0918 9.98424 34.4019C9.46028 34.6754 9.0128 34.9085 8.5882 35.1295C8.81526 35.6728 9.03087 36.1871 9.28743 36.7995C11.8976 35.9215 14.5518 35.9623 17.2336 36.9767C18.1068 37.3066 19.218 37.403 20.1172 37.1837C21.7644 36.7833 23.0876 37.2465 24.4998 37.9836C25.84 38.6828 27.325 39.1008 28.7192 39.7018C29.1687 39.8963 29.6323 40.2078 29.9232 40.5914C32.4431 43.917 32.5281 47.8347 32.8304 51.7826C33.1916 56.5049 31.7951 60.8092 30.4201 65.1648C29.6287 67.6689 29.0475 70.2634 27.9918 72.6507C27.2589 74.31 25.7231 75.5989 24.8306 77.2099C23.6483 79.3413 22.7906 81.648 21.7018 83.8342C21.1881 84.8664 20.5913 85.9167 19.8023 86.7388C18.2521 88.3529 18.6206 89.7645 19.9282 91.2269C20.1721 91.4996 20.3895 91.7966 20.7695 92.2705C19.9625 93.3415 19.1398 94.4327 18.1858 95.6981C13.7321 93.0325 9.33501 90.5752 5.12943 87.8259C2.22595 85.9276 0.974454 82.7759 0 79.5647C0 64.0741 0 48.584 0 33.0938Z" fill="white"/>
<path d="M245.015 47.0404C243.09 53.0382 241.338 58.5049 239.581 63.9699C239.093 65.4893 238.654 67.0282 238.079 68.5132C236.998 71.3073 235.086 73.0965 231.946 73.347C228.645 73.6096 226.196 72.3082 224.611 69.4342C224.11 68.5248 223.688 67.5587 223.341 66.58C219.781 56.5789 216.235 46.5724 212.71 36.5581C212.263 35.2874 211.884 33.9804 211.613 32.662C210.959 29.4869 212.166 27.1997 214.961 26.1258C218.051 24.9392 221.23 25.8187 222.806 28.3643C223.219 29.0316 223.494 29.8031 223.725 30.5597C225.942 37.8379 228.136 45.1229 230.344 52.4053C230.552 53.0871 230.802 53.7556 231.183 54.8722C233.571 47.259 235.806 40.1295 238.042 32.9994C238.335 32.0629 238.592 31.1136 238.922 30.1898C240.051 27.0376 241.967 25.6457 245.106 25.662C248.168 25.6782 250.068 26.981 251.096 30.1519C253.558 37.7385 255.911 45.3618 258.309 52.969C258.474 53.487 258.662 53.9971 258.965 54.8807C260.692 49.1947 262.311 43.8725 263.922 38.5479C264.724 35.9052 265.496 33.2541 266.303 30.6138C267.544 26.5539 270.708 24.7676 274.521 25.953C277.94 27.0177 279.493 30.2662 278.167 34.1557C275.54 41.882 272.775 49.5626 270.052 57.2565C268.763 60.9007 267.536 64.5715 266.099 68.1586C264.88 71.2054 262.774 73.2989 259.197 73.3669C255.405 73.4386 253.04 71.7456 251.736 67.7761C249.724 61.656 247.795 55.5075 245.828 49.3729C245.629 48.7544 245.401 48.1468 245.015 47.0404Z" fill="white"/>
<path d="M127.197 29.3333C132.764 24.714 138.816 24.1335 145.149 26.0902C151.62 28.0891 155.489 32.7271 155.934 39.3935C156.445 47.0422 156.204 54.7421 156.253 62.4203C156.266 64.2584 156.278 66.1175 156.036 67.9334C155.597 71.2385 153.228 73.3006 150.075 73.3639C146.76 73.4289 144.378 71.4795 143.756 68.1213C143.589 67.222 143.535 66.2916 143.533 65.3756C143.515 58.9235 143.524 52.4716 143.523 46.0196C143.522 45.3438 143.523 44.6674 143.499 43.9924C143.312 38.7328 140.212 35.6306 135.193 35.6722C130.444 35.7114 127.273 39.0244 127.215 44.1821C127.148 50.1414 127.198 56.1031 127.196 62.0632C127.196 63.5994 127.222 65.1358 127.18 66.6716C127.066 70.7279 124.557 73.3711 120.86 73.3657C117.157 73.3616 114.597 70.7175 114.583 66.6542C114.539 53.9345 114.562 41.2135 114.562 28.4938C114.562 22.9019 114.499 17.3093 114.598 11.7197C114.674 7.39546 117.928 4.72756 122.069 5.39115C125.061 5.87064 127.122 8.41088 127.167 11.9112C127.234 17.0732 127.192 22.2351 127.197 27.3966C127.198 27.944 127.197 28.4909 127.197 29.3333Z" fill="white"/>
<path d="M314.517 45.1969C314.203 39.3814 309.758 35.4084 303.956 35.6812C299.013 35.913 294.685 40.3939 294.812 45.1969C301.38 45.1969 307.948 45.1969 314.517 45.1969ZM295.051 53.7459C295.244 58.2038 298.95 61.7717 303.916 62.6155C307.47 63.2195 310.762 62.5438 313.913 60.9303C315.607 60.0618 317.251 59.0831 318.984 58.3002C321.33 57.2402 323.444 57.8413 325.057 59.8577C326.634 61.8258 326.784 64.1355 325.233 66.1253C324.377 67.222 323.343 68.2826 322.171 69.0133C314.968 73.5025 307.186 75.1893 298.865 73.0399C288.241 70.296 281.594 60.8225 281.893 49.1989C282.162 38.8406 288.031 29.8928 296.764 26.5274C309.434 21.6474 323.726 29.6966 326.785 43.4775C327.129 45.024 327.32 46.6357 327.325 48.2178C327.337 52.0439 325.634 53.7194 321.785 53.7339C313.538 53.7652 305.288 53.7453 297.04 53.7459C296.378 53.7459 295.717 53.7459 295.051 53.7459Z" fill="white"/>
<path d="M196.519 49.6699C196.349 49.6169 196.179 49.5638 196.008 49.5114C196.024 46.5014 195.364 43.6642 193.753 41.0954C190.051 35.1904 181.879 35.1361 178.324 41.1377C175.18 46.4429 175.15 52.018 178.034 57.4715C179.71 60.6412 182.448 62.3287 186.141 62.2926C189.758 62.2564 192.508 60.5859 194.009 57.4294C195.165 54.9951 195.705 52.2673 196.519 49.6699ZM163.299 50.6841C163.489 41.8669 166.184 35.1475 172.27 30.0555C182.014 21.9015 196.585 23.8782 203.916 34.5219C210.072 43.463 210.449 53.0274 205.395 62.5691C200.928 71.0018 192.265 74.9756 182.353 73.6542C173.686 72.4984 166.337 65.5196 164.169 56.2585C163.669 54.1212 163.484 51.9084 163.299 50.6841Z" fill="white"/>
<path d="M348.537 73.9764C344.016 73.7808 339.547 72.7774 335.512 70.3286C334.322 69.6064 333.191 68.6819 332.273 67.64C330.513 65.6417 330.439 63.5862 331.782 61.3657C333.124 59.1482 335.281 58.0382 337.723 58.7182C339.533 59.2223 341.266 60.0877 342.939 60.9701C345.623 62.3853 348.37 63.2243 351.442 62.6799C352.983 62.4064 354.075 61.724 354.374 60.0836C354.664 58.5062 353.905 57.407 352.619 56.7555C350.708 55.7871 348.7 55.0046 346.744 54.1235C344.17 52.9661 341.502 51.9687 339.055 50.5877C329.063 44.9548 331.565 32.7037 338.639 28.1121C345.122 23.9046 356.27 24.1623 362.417 28.8515C365.302 31.0516 366.212 34.1545 364.787 36.9393C363.52 39.4183 361.05 40.4089 358.423 39.4038C356.187 38.5486 354.043 37.414 351.756 36.7532C350.285 36.3286 348.548 36.2112 347.086 36.5762C346.132 36.8153 345.011 38.0692 344.796 39.0484C344.611 39.9024 345.328 41.422 346.112 41.9212C348.005 43.1275 350.17 43.9164 352.229 44.8608C354.85 46.0635 357.582 47.0663 360.08 48.4823C369.601 53.8808 367.717 65.4141 360.871 70.3111C357.223 72.9218 353.082 73.8324 348.537 73.9764Z" fill="white"/>
<path d="M377.677 37.3446C371.024 36.7641 369.329 35.5975 369.312 31.7966C369.297 28.0036 371.084 26.7226 377.677 25.9644C377.677 24.7328 377.664 23.4662 377.68 22.1997C377.703 20.5429 377.639 18.8745 377.808 17.231C378.131 14.0481 380.436 11.8287 383.435 11.6391C386.815 11.4246 389.374 13.1935 390.023 16.5011C390.373 18.2849 390.288 20.158 390.353 21.9925C390.398 23.2752 390.362 24.5604 390.362 26.142C391.778 26.142 393.105 26.0782 394.426 26.154C398.034 26.3606 399.998 28.3415 399.998 31.6924C399.998 34.8303 398.111 36.9177 394.949 37.1429C393.495 37.2476 392.027 37.1616 390.362 37.1616C390.362 38.0601 390.361 38.7166 390.361 39.3731C390.361 48.0956 390.373 56.8181 390.347 65.5406C390.344 66.5746 390.257 67.6352 390.015 68.6374C389.268 71.733 386.853 73.4784 383.648 73.3578C380.683 73.2465 378.336 71.1772 377.848 68.1508C377.69 67.1872 377.686 66.1923 377.684 65.2123C377.672 56.6736 377.677 48.136 377.677 39.5984C377.677 38.8762 377.677 38.154 377.677 37.3446Z" fill="white"/>
<path d="M295.973 93.4366C294.778 97.4169 293.594 101.403 292.379 105.379C291.671 107.694 289.978 108.958 288.013 108.226C286.976 107.841 285.774 106.691 285.504 105.661C283.887 99.4887 282.501 93.2572 281.079 87.0352C280.7 85.3736 281.388 84.2317 282.808 83.877C284.392 83.4818 285.695 84.2527 286.078 86.0247C286.998 90.2832 287.823 94.5623 288.691 98.8341C288.756 99.1575 288.851 99.4755 289.306 99.8157C290.079 97.2712 290.86 94.7285 291.623 92.1802C292.186 90.2994 292.74 88.4155 293.268 86.5245C293.702 84.979 294.459 83.7493 296.258 83.7945C297.946 83.8372 298.649 85.0213 299.079 86.4998C300.274 90.6247 301.517 94.7357 302.75 98.8503C302.868 99.2436 303.04 99.6182 303.359 100.445C304.338 95.5698 305.205 91.1486 306.133 86.7401C306.292 85.9824 306.517 84.9243 307.054 84.6311C307.914 84.1613 309.163 83.8685 310.066 84.1269C311.519 84.5418 311.508 85.9855 311.23 87.2357C310.362 91.13 309.437 95.0097 308.529 98.8943C308.011 101.105 307.479 103.312 306.96 105.522C306.546 107.287 305.516 108.339 303.626 108.365C301.773 108.387 300.635 107.437 300.106 105.703C298.857 101.598 297.612 97.494 296.364 93.3915C296.233 93.406 296.104 93.4209 295.973 93.4366Z" fill="white"/>
<path d="M226.425 92.0026C227.589 91.2854 229.006 90.6915 228.685 89.072C228.565 88.465 227.573 87.6568 226.938 87.6193C226.21 87.5754 225.026 88.109 224.767 88.7052C224.12 90.2012 225.348 91.0981 226.425 92.0026ZM229.203 102.093C227.752 100.479 226.335 98.8744 224.875 97.3085C224.675 97.0935 224.223 96.9249 223.953 96.9923C222.65 97.3236 221.309 99.6332 221.452 101.179C221.607 102.833 222.704 103.883 224.514 104.045C226.347 104.209 227.869 103.569 229.203 102.093ZM221.514 93.8793C221.084 93.3144 220.663 92.9157 220.433 92.4291C220.046 91.6093 219.625 90.7559 219.493 89.876C219.147 87.6056 220.22 85.7217 222.331 84.572C225.2 83.0103 229.391 83.3162 231.741 85.2977C233.358 86.6607 234.103 88.5023 233.207 90.3945C232.404 92.0924 230.999 93.5071 229.658 95.3168C229.855 95.5427 230.392 96.1613 230.937 96.7725C231.506 97.4109 232.084 98.0421 232.715 98.7389C233.452 97.956 234.098 97.2182 234.803 96.5425C235.688 95.6944 236.918 95.2236 237.717 96.2142C238.253 96.8809 238.332 98.2739 238.04 99.1502C237.693 100.192 236.728 101.026 235.947 102.064C236.682 102.913 237.453 103.776 238.191 104.666C239.107 105.771 239.194 106.93 238.1 107.934C237.041 108.906 235.86 108.883 234.795 107.895C233.987 107.145 233.249 106.323 232.741 105.804C230.365 106.775 228.265 108.05 226.007 108.471C220.273 109.543 215.782 105.354 216.642 100.013C217.1 97.1718 219.104 95.4542 221.514 93.8793Z" fill="white"/>
<path d="M376.338 93.6648C376.338 97.4717 376.349 101.277 376.335 105.084C376.326 107.384 375.549 108.361 373.78 108.367C372.015 108.374 371.203 107.378 371.196 105.102C371.182 99.081 371.196 93.0614 371.19 87.0412C371.189 85.6788 371.372 84.4124 372.912 83.942C374.46 83.4685 375.483 84.2775 376.354 85.4434C379.295 89.3834 382.249 93.3125 385.205 97.2411C385.597 97.762 386.018 98.2589 386.754 99.1773C386.754 95.35 386.753 92.0074 386.754 88.665C386.754 87.8663 386.713 87.0635 386.781 86.2703C386.915 84.6816 387.811 83.7439 389.419 83.7986C391.021 83.8529 391.873 84.8153 391.878 86.4335C391.89 91.5322 391.889 96.631 391.892 101.73C391.892 103.02 392.089 104.352 391.822 105.585C391.616 106.538 391.002 107.841 390.25 108.117C389.457 108.407 388.104 107.899 387.323 107.308C386.377 106.591 385.769 105.427 385.025 104.45C382.246 100.8 379.471 97.1477 376.696 93.498C376.576 93.5535 376.457 93.6095 376.338 93.6648Z" fill="white"/>
<path d="M250.771 93.5624C252.621 93.4306 254.588 94.1906 255.634 92.3037C256.025 91.5954 256.024 90.2283 255.581 89.5888C254.423 87.9144 252.545 88.5077 250.771 88.5408C250.771 90.2242 250.771 91.7877 250.771 93.5624ZM250.742 103.631C252.319 103.631 253.719 103.691 255.113 103.614C256.739 103.526 257.737 102.636 257.838 100.975C257.936 99.3538 256.998 98.3986 255.483 98.2426C253.939 98.0824 252.368 98.2059 250.742 98.2059C250.742 100.001 250.742 101.689 250.742 103.631ZM258.434 94.9115C262.695 96.961 263.993 99.4483 262.871 103.279C262.081 105.983 260.197 107.643 257.485 107.925C254.377 108.246 251.221 108.219 248.088 108.176C246.421 108.154 245.544 107.058 245.541 105.381C245.53 99.1743 245.512 92.9681 245.553 86.7618C245.567 84.8507 246.488 84.0251 248.467 83.9895C250.561 83.9522 252.655 83.9582 254.75 83.9878C257.724 84.0299 260.02 85.518 260.86 87.8976C261.781 90.512 260.993 92.8657 258.434 94.9115Z" fill="white"/>
<path d="M346.63 98.5281C345.557 98.5281 344.468 98.566 343.381 98.5191C341.821 98.4498 340.967 97.5615 341.038 96.0365C341.105 94.5772 342.046 93.8745 343.503 93.8745C345.412 93.8756 347.32 93.8366 349.224 93.8877C351.269 93.9437 352.043 94.7538 352.197 96.8436C352.717 103.902 346.614 109.557 339.598 108.518C334.527 107.769 330.941 104.504 329.767 99.57C328.469 94.1172 330.27 88.568 334.272 85.6861C338.011 82.9952 344.282 82.8646 348.253 85.4127C348.714 85.7084 349.155 86.062 349.533 86.457C350.535 87.5074 350.874 88.7336 349.917 89.9369C348.976 91.1221 347.771 90.8023 346.577 90.2229C345.267 89.5857 343.976 88.6932 342.586 88.465C337.518 87.6313 334.072 91.4974 334.719 97.0766C335.256 101.704 337.911 104.26 341.782 103.875C344.838 103.571 346.767 101.554 346.63 98.5281Z" fill="white"/>
<path d="M171.03 96.4895C170.634 94.8272 170.476 93.3987 169.951 92.1201C168.962 89.7068 167.121 88.3252 164.4 88.3181C161.69 88.3102 159.826 89.628 158.797 92.0503C157.561 94.9687 157.592 97.9427 159.083 100.758C161.238 104.836 167.064 105.061 169.386 101.112C170.225 99.682 170.532 97.9397 171.03 96.4895ZM176.048 96.0606C176.073 105.779 166.986 111.632 158.742 107.21C153.381 104.334 151.119 97.0002 153.666 90.7553C155.944 85.1742 161.701 82.381 167.575 84.0094C172.652 85.4169 176.035 90.2271 176.048 96.0606Z" fill="white"/>
<path d="M184.106 94.7368C186.375 94.4315 188.871 95.5667 190.177 93.177C190.648 92.3176 190.524 90.565 189.924 89.8056C188.4 87.8723 186.118 88.9907 184.106 88.7046C184.106 90.8409 184.106 92.662 184.106 94.7368ZM189.818 98.2107C191.722 100.258 193.447 102.084 195.142 103.94C196.406 105.328 196.411 106.76 195.21 107.788C194.072 108.76 192.504 108.544 191.329 107.187C190.125 105.794 188.972 104.355 187.798 102.935C186.674 101.576 185.55 100.213 184.018 98.9304C184.018 101.031 184.152 103.143 183.959 105.227C183.868 106.209 183.398 107.464 182.663 108.014C181.075 109.201 178.945 107.953 178.925 105.877C178.861 99.4345 178.895 92.9921 178.902 86.5485C178.904 85.1249 179.59 84.0788 181.044 84.0467C183.99 83.9835 186.972 83.8612 189.88 84.2274C193.657 84.7032 195.657 87.0395 195.927 90.5536C196.221 94.3652 194.73 96.5244 190.894 97.8415C190.612 97.9379 190.331 98.036 189.818 98.2107Z" fill="white"/>
<path d="M122.84 83.3108C124.474 83.7812 126.165 84.1155 127.725 84.7641C129.115 85.341 129.802 86.5245 129.098 88.0717C128.442 89.5117 127.293 89.7092 125.859 89.2786C124.693 88.9281 123.436 88.4264 122.299 88.5775C121.407 88.6956 120.242 89.5484 119.901 90.3663C119.392 91.584 120.643 92.1309 121.645 92.4935C123.317 93.0987 125.031 93.5926 126.689 94.2309C129.413 95.2807 130.976 97.2772 131.118 100.215C131.257 103.124 130.199 105.579 127.662 107.102C123.721 109.466 119.642 108.979 115.661 107.16C114.25 106.516 113.77 105.179 114.37 103.736C114.988 102.247 116.307 102.217 117.66 102.589C118.429 102.8 119.168 103.164 119.947 103.288C121.025 103.459 122.143 103.616 123.218 103.514C124.597 103.381 125.61 102.398 125.482 101.07C125.402 100.249 124.552 99.2869 123.785 98.8039C122.83 98.2017 121.612 98.0011 120.494 97.6705C115.567 96.2094 113.761 94.0473 114.279 90.2018C114.807 86.2709 118.268 83.5758 122.84 83.3108Z" fill="white"/>
<path d="M139.154 95.7626C141.557 95.5035 144.052 96.4491 145.547 93.9798C146.37 92.6206 146.325 91.0883 145.314 89.8296C143.643 87.7488 141.346 88.5746 139.154 88.5282C139.154 90.977 139.154 93.218 139.154 95.7626ZM139.059 100.171C139.059 102.128 139.086 103.836 139.051 105.541C139.013 107.429 138.219 108.324 136.631 108.369C135.032 108.414 134.002 107.538 133.983 105.734C133.921 99.3472 133.931 92.9571 133.986 86.5697C134.001 84.908 134.98 83.9829 136.71 83.9853C138.926 83.9884 141.146 83.9203 143.359 84.0148C148.029 84.2125 151.298 87.5014 151.377 91.9749C151.455 96.4593 148.307 99.8097 143.606 100.154C142.199 100.258 140.779 100.171 139.059 100.171Z" fill="white"/>
<path d="M360.151 88.7215C360.151 90.45 360.151 91.9033 360.151 93.6076C361.847 93.6076 363.484 93.5865 365.123 93.6124C367.098 93.6438 368.213 94.5538 368.165 96.0444C368.121 97.4669 367.04 98.3233 365.182 98.3534C363.583 98.3805 361.983 98.3595 360.234 98.3595C360.234 100.04 360.234 101.654 360.234 103.514C362.114 103.514 363.998 103.497 365.883 103.518C367.791 103.538 368.793 104.351 368.801 105.83C368.81 107.295 367.781 108.202 365.916 108.232C363.27 108.277 360.62 108.29 357.974 108.229C355.822 108.181 354.961 107.291 354.952 105.143C354.926 99.1834 354.923 93.2252 354.952 87.267C354.965 84.8171 355.851 83.9955 358.335 83.9829C360.737 83.9702 363.139 83.9648 365.54 83.9853C367.465 84.0011 368.466 84.7869 368.506 86.2613C368.548 87.7555 367.436 88.6805 365.473 88.7149C363.76 88.7444 362.044 88.7215 360.151 88.7215Z" fill="white"/>
<path d="M271.025 88.7168C271.025 90.3898 271.025 91.846 271.025 93.6064C272.63 93.6064 274.263 93.5902 275.897 93.6107C277.891 93.6378 279.004 94.5128 278.992 95.9974C278.979 97.4699 277.849 98.3342 275.863 98.3571C274.28 98.3745 272.695 98.3613 271.025 98.3613C271.025 100.125 271.025 101.695 271.025 103.514C272.957 103.514 274.844 103.497 276.731 103.52C278.665 103.542 279.621 104.327 279.581 105.862C279.537 107.591 278.417 108.208 276.889 108.231C274.178 108.271 271.469 108.291 268.76 108.227C266.628 108.176 265.806 107.273 265.8 105.095C265.783 99.1954 265.78 93.2963 265.8 87.3984C265.809 84.7726 266.61 83.9944 269.221 83.9824C271.684 83.9709 274.147 83.9559 276.611 83.9907C278.35 84.0154 279.374 84.8984 279.302 86.3293C279.218 87.9988 278.156 88.6872 276.594 88.7106C274.812 88.7371 273.026 88.7168 271.025 88.7168Z" fill="white"/>
<path d="M319.062 88.7137C319.062 90.4386 319.062 91.8949 319.062 93.6076C320.748 93.6076 322.387 93.5865 324.022 93.6124C325.991 93.6439 327.109 94.5683 327.047 96.0618C326.989 97.4838 325.911 98.3191 324.044 98.3571C322.505 98.3884 320.967 98.3902 319.426 98.4083C319.372 98.4083 319.318 98.4498 319.13 98.5299C319.13 100.084 319.13 101.695 319.13 103.514C321.068 103.514 322.962 103.53 324.855 103.509C326.414 103.491 327.527 104.012 327.632 105.74C327.729 107.287 326.773 108.191 324.886 108.229C322.177 108.283 319.463 108.294 316.758 108.223C314.71 108.169 313.87 107.264 313.862 105.215C313.84 99.1936 313.836 93.171 313.867 87.1496C313.877 84.8526 314.738 84.0077 316.976 83.986C319.562 83.9613 322.151 83.9878 324.736 83.9812C326.26 83.9769 327.228 84.6479 327.356 86.2137C327.471 87.6477 326.468 88.6348 324.772 88.698C322.935 88.7667 321.095 88.7137 319.062 88.7137Z" fill="white"/>
<path d="M207.064 88.7168C207.064 93.9841 207.068 99.0099 207.063 104.035C207.063 104.772 207.105 105.517 207.01 106.245C206.833 107.586 206.021 108.309 204.652 108.365C203.301 108.419 202.379 107.824 202.083 106.491C201.94 105.841 201.941 105.15 201.94 104.479C201.929 99.3231 201.933 94.1665 201.933 88.7191C200.748 88.7191 199.667 88.7564 198.589 88.7106C196.825 88.6353 195.914 87.782 195.942 86.3065C195.973 84.8375 196.904 84.0004 198.666 83.9889C202.607 83.9636 206.551 83.9853 210.493 83.9812C212.034 83.9787 212.956 84.6876 213.059 86.2553C213.156 87.7615 212.249 88.6246 210.493 88.7077C209.453 88.7564 208.407 88.7168 207.064 88.7168Z" fill="white"/>
</g>
<defs>
<clipPath id="clip0_2_60">
<rect width="400" height="110.885" fill="white" transform="translate(0 0.884979)"/>
</clipPath>
</defs>
</svg>
