<svg width="400" height="123" viewBox="0 0 400 123" fill="none" xmlns="http://www.w3.org/2000/svg">
<g clip-path="url(#clip0_4_89)">
<path d="M73.7362 92.5848L54.9716 102.937L36.207 92.5848V114.214L47.4511 120.703C52.1053 123.389 57.8379 123.389 62.4921 120.703L73.7362 114.214V92.5848Z" fill="black"/>
<path d="M102.423 25.5338L62.492 2.49233C57.8379 -0.193365 52.1052 -0.193365 47.4511 2.49233L7.52049 25.5338C2.86836 28.2195 0 33.1827 0 38.5541V84.6411C0 90.0104 2.86836 94.9736 7.52049 97.6593L14.472 101.671V41.0972C14.472 38.6032 17.1737 37.0448 19.3342 38.2926L54.999 58.3742L90.609 38.2926C92.7694 37.0448 95.4711 38.6032 95.4711 41.0972V101.671L102.423 97.6593C107.077 94.9736 109.943 90.0104 109.943 84.6411V38.5541C109.943 33.1827 107.077 28.2195 102.423 25.5338Z" fill="black"/>
<path d="M125.602 12.3613C125.602 8.30573 128.137 5.60202 131.687 5.60202C135.238 5.60202 137.774 8.30573 137.774 12.3613V28.9214H137.943C140.479 25.7953 145.212 24.6969 149.016 24.6969C158.568 24.6969 165.669 30.78 165.669 41.088V64.4074C165.669 68.4624 163.133 71.1661 159.583 71.1661C156.032 71.1661 153.496 68.4624 153.496 64.4074V43.2005C153.496 37.5397 149.946 34.836 145.55 34.836C140.563 34.836 137.774 38.4688 137.774 43.2005V64.4074C137.774 68.4624 135.238 71.1661 131.687 71.1661C128.137 71.1661 125.602 68.4624 125.602 64.4074V12.3613Z" fill="black"/>
<path d="M216.138 48.2696C216.138 60.9435 207.431 71.6729 194.328 71.6729C181.226 71.6729 172.52 60.9435 172.52 48.2696C172.52 35.934 181.48 24.6969 194.328 24.6969C207.177 24.6969 216.138 35.934 216.138 48.2696ZM184.692 48.2696C184.692 54.0998 187.735 60.5207 194.328 60.5207C200.922 60.5207 203.965 54.0998 203.965 48.2696C203.965 42.4399 201.006 35.8495 194.328 35.8495C187.65 35.8495 184.692 42.4399 184.692 48.2696Z" fill="black"/>
<path d="M220.024 35.8495C219.179 33.3992 218.756 31.8784 218.756 30.1043C218.756 27.4006 221.292 25.2036 224.842 25.2036C227.801 25.2036 229.914 27.1472 230.59 30.0198L237.606 53.2552H237.775L244.876 30.5266C245.805 27.2317 247.496 25.2036 251.046 25.2036C254.597 25.2036 256.287 27.2317 257.217 30.5266L264.318 53.2552H264.487L271.503 30.0198C272.179 27.1472 274.292 25.2036 277.25 25.2036C280.801 25.2036 283.337 27.4006 283.337 31.1183C283.337 32.4702 282.745 33.822 282.153 35.6806L271.757 64.9981C270.489 68.5474 268.376 71.1661 264.403 71.1661C260.683 71.1661 258.485 69.0541 257.386 65.5058L251.131 45.9042H250.962L244.707 65.5058C243.608 69.0541 241.41 71.1661 237.69 71.1661C233.718 71.1661 231.604 68.5474 230.336 64.9981L220.024 35.8495Z" fill="black"/>
<path d="M298.896 52.2407C299.742 58.2398 304.729 61.0275 310.393 61.0275C316.648 61.0275 320.959 56.1278 324.171 56.1278C326.792 56.1278 329.159 58.7466 329.159 61.3663C329.159 66.6043 318.339 71.6729 309.294 71.6729C295.6 71.6729 286.47 61.7041 286.47 48.2696C286.47 35.934 295.431 24.6969 308.279 24.6969C321.466 24.6969 330.173 36.6946 330.173 46.8333C330.173 50.4665 328.567 52.2407 324.847 52.2407H298.896ZM318 44.1296C317.324 38.8066 313.943 34.836 308.279 34.836C302.869 34.836 299.235 38.976 298.643 44.1296H318Z" fill="black"/>
<path d="M361.791 38.8911C359.508 38.8911 354.859 35.3428 350.886 35.3428C348.688 35.3428 346.744 36.3568 346.744 38.7222C346.744 44.3834 367.876 43.5383 367.876 57.3952C367.876 65.5058 361.03 71.6729 350.548 71.6729C343.701 71.6729 333.557 67.7867 333.557 62.2949C333.557 60.4368 335.417 56.8875 338.798 56.8875C343.532 56.8875 345.645 61.0275 351.393 61.0275C355.113 61.0275 356.212 59.845 356.212 57.5641C356.212 51.9878 335.079 52.8324 335.079 38.8911C335.079 30.4421 341.926 24.6969 351.562 24.6969C357.564 24.6969 366.777 27.485 366.777 33.4837C366.777 36.2723 364.665 38.8911 361.791 38.8911Z" fill="black"/>
<path d="M378.529 36.3568H375.824C372.528 36.3568 370.499 34.3288 370.499 31.0338C370.499 27.9918 372.781 25.7109 375.824 25.7109H378.529V18.4444C378.529 14.3888 381.065 11.6851 384.616 11.6851C388.166 11.6851 390.702 14.3888 390.702 18.4444V25.7109H394.168C397.295 25.7109 400 27.1472 400 31.0338C400 34.836 397.295 36.3568 394.168 36.3568H390.702V64.4074C390.702 68.4624 388.166 71.1661 384.616 71.1661C381.065 71.1661 378.529 68.4624 378.529 64.4074V36.3568Z" fill="black"/>
<path d="M133.601 102.097C135.342 102.097 138.73 102.669 138.73 104.768C138.73 105.626 138.134 106.365 137.251 106.365C136.273 106.365 135.604 105.531 133.601 105.531C130.642 105.531 129.115 108.035 129.115 110.944C129.115 113.782 130.666 116.215 133.601 116.215C135.604 116.215 136.416 115.213 137.394 115.213C138.468 115.213 138.968 116.286 138.968 116.835C138.968 119.124 135.366 119.648 133.601 119.648C128.757 119.648 125.393 115.809 125.393 110.873C125.393 105.912 128.733 102.097 133.601 102.097Z" fill="black"/>
<path d="M141.119 104.243C141.119 103.099 141.763 102.383 142.956 102.383H147.154C150.829 102.383 153.096 104.028 153.096 107.773C153.096 110.396 151.116 111.898 148.681 112.279L152.738 116.62C153.072 116.978 153.215 117.335 153.215 117.669C153.215 118.599 152.475 119.505 151.425 119.505C150.996 119.505 150.423 119.338 150.042 118.885L144.745 112.47H144.698V117.645C144.698 118.837 143.934 119.505 142.908 119.505C141.882 119.505 141.119 118.837 141.119 117.645V104.243ZM144.698 109.895H147.154C148.467 109.895 149.374 109.108 149.374 107.773C149.374 106.413 148.467 105.674 147.154 105.674H144.698V109.895Z" fill="black"/>
<path d="M155.03 104.458C155.03 103.265 155.626 102.383 156.891 102.383H162.807C163.953 102.383 164.501 103.194 164.501 104.028C164.501 104.839 163.929 105.674 162.807 105.674H158.609V109.156H162.521C163.69 109.156 164.262 109.967 164.262 110.801C164.262 111.612 163.666 112.446 162.521 112.446H158.609V116.071H163.022C164.167 116.071 164.716 116.882 164.716 117.717C164.716 118.527 164.143 119.362 163.022 119.362H156.867C155.817 119.362 155.03 118.647 155.03 117.574V104.458Z" fill="black"/>
<path d="M170.492 104.076C170.898 102.979 171.828 102.097 173.045 102.097C174.309 102.097 175.192 102.932 175.598 104.076L180.274 117.049C180.417 117.431 180.465 117.764 180.465 117.931C180.465 118.861 179.701 119.505 178.819 119.505C177.816 119.505 177.316 118.98 177.077 118.265L176.361 116.024H169.729L169.013 118.241C168.774 118.98 168.274 119.505 167.295 119.505C166.341 119.505 165.53 118.79 165.53 117.836C165.53 117.454 165.649 117.168 165.697 117.049L170.492 104.076ZM170.754 112.732H175.288L173.069 105.817H173.021L170.754 112.732Z" fill="black"/>
<path d="M182.733 105.674H180.132C178.988 105.674 178.51 104.839 178.51 104.028C178.51 103.194 179.107 102.383 180.132 102.383H188.912C189.938 102.383 190.534 103.194 190.534 104.028C190.534 104.839 190.057 105.674 188.912 105.674H186.312V117.645C186.312 118.837 185.548 119.505 184.522 119.505C183.496 119.505 182.733 118.837 182.733 117.645V105.674Z" fill="black"/>
<path d="M191.802 104.1C191.802 102.908 192.565 102.24 193.591 102.24C194.617 102.24 195.381 102.908 195.381 104.1V117.645C195.381 118.837 194.617 119.505 193.591 119.505C192.565 119.505 191.802 118.837 191.802 117.645V104.1Z" fill="black"/>
<path d="M197.28 104.839C197.16 104.529 197.113 104.291 197.113 103.957C197.113 102.956 197.996 102.24 198.95 102.24C199.761 102.24 200.262 102.765 200.572 103.409L204.27 113.329L207.968 103.409C208.278 102.765 208.779 102.24 209.59 102.24C210.545 102.24 211.427 102.956 211.427 103.957C211.427 104.291 211.379 104.529 211.26 104.839L206.035 118.122C205.725 118.885 205.32 119.505 204.27 119.505C203.221 119.505 202.814 118.885 202.504 118.122L197.28 104.839Z" fill="black"/>
<path d="M212.453 104.458C212.453 103.265 213.049 102.383 214.314 102.383H220.23C221.376 102.383 221.924 103.194 221.924 104.028C221.924 104.839 221.352 105.674 220.23 105.674H216.032V109.156H219.944C221.113 109.156 221.685 109.967 221.685 110.801C221.685 111.612 221.089 112.446 219.944 112.446H216.032V116.071H220.445C221.59 116.071 222.139 116.882 222.139 117.717C222.139 118.527 221.566 119.362 220.445 119.362H214.29C213.24 119.362 212.453 118.647 212.453 117.574V104.458Z" fill="black"/>
<path d="M234.481 105.674H231.88C230.734 105.674 230.258 104.839 230.258 104.028C230.258 103.194 230.853 102.383 231.88 102.383H240.66C241.685 102.383 242.282 103.194 242.282 104.028C242.282 104.839 241.804 105.674 240.66 105.674H238.059V117.645C238.059 118.837 237.295 119.505 236.269 119.505C235.244 119.505 234.481 118.837 234.481 117.645V105.674Z" fill="black"/>
<path d="M243.29 104.458C243.29 103.265 243.887 102.383 245.151 102.383H251.069C252.213 102.383 252.761 103.194 252.761 104.028C252.761 104.839 252.189 105.674 251.069 105.674H246.868V109.156H250.781C251.95 109.156 252.523 109.967 252.523 110.801C252.523 111.612 251.927 112.446 250.781 112.446H246.868V116.071H251.282C252.428 116.071 252.976 116.882 252.976 117.717C252.976 118.527 252.404 119.362 251.282 119.362H245.127C244.078 119.362 243.29 118.647 243.29 117.574V104.458Z" fill="black"/>
<path d="M262.001 102.097C263.743 102.097 267.131 102.669 267.131 104.768C267.131 105.626 266.534 106.365 265.652 106.365C264.675 106.365 264.006 105.531 262.001 105.531C259.043 105.531 257.517 108.035 257.517 110.944C257.517 113.782 259.067 116.215 262.001 116.215C264.006 116.215 264.817 115.213 265.794 115.213C266.868 115.213 267.369 116.286 267.369 116.835C267.369 119.124 263.768 119.648 262.001 119.648C257.159 119.648 253.794 115.809 253.794 110.873C253.794 105.912 257.134 102.097 262.001 102.097Z" fill="black"/>
<path d="M269.191 104.1C269.191 102.908 269.953 102.24 270.981 102.24C272.006 102.24 272.769 102.908 272.769 104.1V109.156H280.261V104.1C280.261 102.908 281.024 102.24 282.049 102.24C283.077 102.24 283.839 102.908 283.839 104.1V117.645C283.839 118.837 283.077 119.505 282.049 119.505C281.024 119.505 280.261 118.837 280.261 117.645V112.446H272.769V117.645C272.769 118.837 272.006 119.505 270.981 119.505C269.953 119.505 269.191 118.837 269.191 117.645V104.1Z" fill="black"/>
<path d="M286.324 104.1C286.324 102.908 287.088 102.24 288.114 102.24C288.567 102.24 289.306 102.598 289.617 103.027L297.179 113.114H297.227V104.1C297.227 102.908 297.991 102.24 299.017 102.24C300.043 102.24 300.807 102.908 300.807 104.1V117.645C300.807 118.837 300.043 119.505 299.017 119.505C298.564 119.505 297.847 119.147 297.513 118.718L289.952 108.751H289.904V117.645C289.904 118.837 289.139 119.505 288.114 119.505C287.088 119.505 286.324 118.837 286.324 117.645V104.1Z" fill="black"/>
<path d="M302.622 110.873C302.622 105.912 305.962 102.097 310.828 102.097C315.624 102.097 319.035 106.031 319.035 110.873C319.035 115.809 315.72 119.648 310.828 119.648C305.986 119.648 302.622 115.809 302.622 110.873ZM315.315 110.873C315.315 107.988 313.811 105.388 310.828 105.388C307.847 105.388 306.344 107.988 306.344 110.873C306.344 113.782 307.799 116.358 310.828 116.358C313.859 116.358 315.315 113.782 315.315 110.873Z" fill="black"/>
<path d="M320.996 104.1C320.996 102.908 321.758 102.24 322.786 102.24C323.811 102.24 324.574 102.908 324.574 104.1V116.071H328.82C330.038 116.071 330.562 116.978 330.539 117.788C330.491 118.575 329.871 119.362 328.82 119.362H322.857C321.687 119.362 320.996 118.599 320.996 117.407V104.1Z" fill="black"/>
<path d="M329.406 110.873C329.406 105.912 332.746 102.097 337.613 102.097C342.409 102.097 345.82 106.031 345.82 110.873C345.82 115.809 342.504 119.648 337.613 119.648C332.771 119.648 329.406 115.809 329.406 110.873ZM342.099 110.873C342.099 107.988 340.595 105.388 337.613 105.388C334.632 105.388 333.128 107.988 333.128 110.873C333.128 113.782 334.584 116.358 337.613 116.358C340.643 116.358 342.099 113.782 342.099 110.873Z" fill="black"/>
<path d="M361.073 109.299C362.575 109.299 363.172 110.062 363.172 111.588C363.172 116.191 360.166 119.648 355.394 119.648C350.552 119.648 347.187 115.809 347.187 110.873C347.187 105.912 350.527 102.097 355.394 102.097C358.997 102.097 361.955 103.79 361.955 105.459C361.955 106.485 361.311 107.129 360.476 107.129C358.853 107.129 358.52 105.388 355.394 105.388C352.413 105.388 350.909 107.988 350.909 110.873C350.909 113.782 352.365 116.358 355.394 116.358C357.28 116.358 359.45 115.308 359.45 112.589H357.017C356.039 112.589 355.346 111.898 355.346 110.92C355.346 109.919 356.11 109.299 357.017 109.299H361.073Z" fill="black"/>
<path d="M364.798 104.1C364.798 102.908 365.56 102.24 366.588 102.24C367.613 102.24 368.376 102.908 368.376 104.1V117.645C368.376 118.837 367.613 119.505 366.588 119.505C365.56 119.505 364.798 118.837 364.798 117.645V104.1Z" fill="black"/>
<path d="M371.001 104.458C371.001 103.265 371.598 102.383 372.862 102.383H378.779C379.924 102.383 380.472 103.194 380.472 104.028C380.472 104.839 379.899 105.674 378.779 105.674H374.579V109.156H378.492C379.661 109.156 380.233 109.967 380.233 110.801C380.233 111.612 379.638 112.446 378.492 112.446H374.579V116.071H378.993C380.139 116.071 380.687 116.882 380.687 117.717C380.687 118.527 380.114 119.362 378.993 119.362H372.837C371.788 119.362 371.001 118.647 371.001 117.574V104.458Z" fill="black"/>
<path d="M392.571 104.482C392.571 105.411 391.951 106.246 390.971 106.246C389.994 106.246 389.231 105.531 387.798 105.531C386.773 105.531 385.843 106.079 385.843 107.081C385.843 109.537 393.812 107.964 393.812 114.115C393.812 117.526 390.996 119.648 387.704 119.648C385.866 119.648 381.906 119.219 381.906 116.978C381.906 116.048 382.526 115.284 383.504 115.284C384.626 115.284 385.962 116.215 387.512 116.215C389.087 116.215 389.946 115.332 389.946 114.163C389.946 111.349 381.977 113.042 381.977 107.511C381.977 104.172 384.722 102.097 387.894 102.097C389.231 102.097 392.571 102.598 392.571 104.482Z" fill="black"/>
<path d="M184.919 81.8236C185.062 80.9647 185.993 79.9869 187.257 79.9869C188.45 79.9869 189.381 80.8458 189.643 81.7041L192.46 91.1491H192.507L195.322 81.7041C195.586 80.8458 196.515 79.9869 197.709 79.9869C198.973 79.9869 199.904 80.9647 200.048 81.8236L202.266 95.1322C202.291 95.2749 202.291 95.4181 202.291 95.5376C202.291 96.5867 201.527 97.2548 200.572 97.2548C199.355 97.2548 198.878 96.7061 198.711 95.5851L197.303 85.878H197.256L194.392 95.8716C194.225 96.4435 193.772 97.2548 192.483 97.2548C191.195 97.2548 190.741 96.4435 190.574 95.8716L187.711 85.878H187.664L186.256 95.5851C186.089 96.7061 185.611 97.2548 184.395 97.2548C183.44 97.2548 182.676 96.5867 182.676 95.5376C182.676 95.4181 182.676 95.2749 182.7 95.1322L184.919 81.8236Z" fill="black"/>
<path d="M203.653 81.8473C203.653 80.655 204.417 79.9869 205.442 79.9869C206.469 79.9869 207.233 80.655 207.233 81.8473V90.1713C207.233 92.3653 208.641 94.1063 210.907 94.1063C213.078 94.1063 214.558 92.2701 214.558 90.1713V81.8473C214.558 80.655 215.321 79.9869 216.347 79.9869C217.374 79.9869 218.138 80.655 218.138 81.8473V90.3621C218.138 94.369 214.844 97.398 210.907 97.398C206.922 97.398 203.653 94.4165 203.653 90.3621V81.8473Z" fill="black"/>
<path d="M220.383 81.8473C220.383 80.655 221.147 79.9869 222.172 79.9869C223.198 79.9869 223.962 80.655 223.962 81.8473V93.8203H228.209C229.426 93.8203 229.951 94.7268 229.928 95.5376C229.879 96.3245 229.259 97.1115 228.209 97.1115H222.243C221.075 97.1115 220.383 96.3483 220.383 95.1559V81.8473Z" fill="black"/>
<path d="M231.002 83.4213H228.401C227.256 83.4213 226.778 82.5868 226.778 81.776C226.778 80.9409 227.376 80.1301 228.401 80.1301H237.183C238.208 80.1301 238.805 80.9409 238.805 81.776C238.805 82.5868 238.328 83.4213 237.183 83.4213H234.581V95.3943C234.581 96.5867 233.817 97.2548 232.791 97.2548C231.766 97.2548 231.002 96.5867 231.002 95.3943V83.4213Z" fill="black"/>
<path d="M239.833 81.8473C239.833 80.655 240.596 79.9869 241.622 79.9869C242.648 79.9869 243.412 80.655 243.412 81.8473V95.3943C243.412 96.5867 242.648 97.2548 241.622 97.2548C240.596 97.2548 239.833 96.5867 239.833 95.3943V81.8473Z" fill="black"/>
<path d="M247.54 81.8236C247.683 80.9647 248.614 79.9869 249.879 79.9869C251.072 79.9869 252.002 80.8458 252.265 81.7041L255.081 91.1491H255.129L257.944 81.7041C258.207 80.8458 259.137 79.9869 260.331 79.9869C261.595 79.9869 262.525 80.9647 262.669 81.8236L264.888 95.1322C264.912 95.2749 264.912 95.4181 264.912 95.5376C264.912 96.5867 264.149 97.2548 263.194 97.2548C261.976 97.2548 261.499 96.7061 261.332 95.5851L259.925 85.878H259.877L257.013 95.8716C256.846 96.4435 256.393 97.2548 255.104 97.2548C253.816 97.2548 253.362 96.4435 253.195 95.8716L250.332 85.878H250.285L248.877 95.5851C248.71 96.7061 248.232 97.2548 247.016 97.2548C246.061 97.2548 245.297 96.5867 245.297 95.5376C245.297 95.4181 245.297 95.2749 245.322 95.1322L247.54 81.8236Z" fill="black"/>
<path d="M266.8 82.2052C266.8 81.0128 267.397 80.1301 268.66 80.1301H274.578C275.724 80.1301 276.273 80.9409 276.273 81.776C276.273 82.5868 275.699 83.4213 274.578 83.4213H270.379V86.9033H274.292C275.462 86.9033 276.034 87.7147 276.034 88.5492C276.034 89.36 275.437 90.1951 274.292 90.1951H270.379V93.8203H274.793C275.939 93.8203 276.487 94.6311 276.487 95.4657C276.487 96.277 275.914 97.1115 274.793 97.1115H268.637C267.587 97.1115 266.8 96.3959 266.8 95.323V82.2052Z" fill="black"/>
<path d="M278.088 81.9668C278.088 80.8696 278.851 80.1301 279.925 80.1301H283.886C289.231 80.1301 292.286 83.5646 292.286 88.8595C292.286 93.8679 289.04 97.1115 284.124 97.1115H279.972C279.185 97.1115 278.088 96.6824 278.088 95.323V81.9668ZM281.666 93.8203H284.077C287.155 93.8203 288.563 91.5545 288.563 88.6925C288.563 85.6396 287.131 83.4213 283.839 83.4213H281.666V93.8203Z" fill="black"/>
<path d="M294.244 81.8473C294.244 80.655 295.008 79.9869 296.034 79.9869C297.059 79.9869 297.823 80.655 297.823 81.8473V95.3943C297.823 96.5867 297.059 97.2548 296.034 97.2548C295.008 97.2548 294.244 96.5867 294.244 95.3943V81.8473Z" fill="black"/>
<path d="M304.147 81.8236C304.552 80.7263 305.483 79.8442 306.7 79.8442C307.965 79.8442 308.848 80.6788 309.253 81.8236L313.93 94.7981C314.074 95.1797 314.121 95.5138 314.121 95.6803C314.121 96.6105 313.358 97.2548 312.475 97.2548C311.473 97.2548 310.972 96.7299 310.733 96.0143L310.017 93.7722H303.384L302.668 95.9905C302.429 96.7299 301.928 97.2548 300.949 97.2548C299.995 97.2548 299.184 96.5391 299.184 95.5851C299.184 95.2035 299.304 94.917 299.351 94.7981L304.147 81.8236ZM304.41 90.481H308.943L306.725 83.5646H306.676L304.41 90.481Z" fill="black"/>
<path d="M332.235 90.6026L333.166 89.5295C333.786 88.8144 334.215 88.4325 334.979 88.4325C335.67 88.4325 336.291 89.0286 336.291 89.9346C336.291 90.5786 335.742 91.3417 334.979 92.2006L334.382 92.8438L336.005 94.6799C336.339 95.0619 336.529 95.3239 336.529 95.8729C336.529 96.683 335.766 97.4701 334.86 97.4701C334.311 97.4701 333.953 97.3031 333.594 96.922L331.948 95.2049C330.398 96.564 328.824 97.4701 326.7 97.4701C323.504 97.4701 320.855 95.6579 320.855 92.3197C320.855 89.9586 322.501 88.2184 324.458 87.1453C323.527 86.2153 322.884 85.2613 322.884 83.9261C322.884 81.2079 325.436 79.9199 327.894 79.9199C330.041 79.9199 332.761 81.136 332.761 83.664C332.761 85.5713 331.257 87.0494 329.73 87.8364L332.235 90.6026ZM326.342 89.1005C325.269 89.7916 324.291 90.6266 324.291 91.9857C324.291 93.4878 325.317 94.3228 326.772 94.3228C328.061 94.3228 328.895 93.7978 329.801 92.9397L326.342 89.1005ZM327.894 82.6381C327.274 82.6381 326.462 83.1151 326.462 83.8302C326.462 84.5461 326.796 84.9752 327.727 85.8813C328.442 85.5233 329.467 84.8801 329.467 84.0212C329.467 82.9481 328.514 82.6381 327.894 82.6381Z" fill="black"/>
</g>
<defs>
<clipPath id="clip0_4_89">
<rect width="400" height="122.239" fill="white" transform="translate(0 0.478058)"/>
</clipPath>
</defs>
</svg>
