<svg width="400" height="123" viewBox="0 0 400 123" fill="none" xmlns="http://www.w3.org/2000/svg">
<g clip-path="url(#clip0_3_45)">
<path d="M73.7362 92.3457L54.9716 102.698L36.207 92.3457V113.975L47.4511 120.464C52.1053 123.149 57.8379 123.149 62.4921 120.464L73.7362 113.975V92.3457Z" fill="white"/>
<path d="M102.423 25.2948L62.492 2.2533C57.8379 -0.432394 52.1052 -0.432394 47.4511 2.2533L7.52049 25.2948C2.86836 27.9804 0 32.9436 0 38.315V84.4021C0 89.7714 2.86836 94.7346 7.52049 97.4203L14.472 101.432V40.8582C14.472 38.3641 17.1737 36.8057 19.3342 38.0536L54.999 58.1351L90.609 38.0536C92.7694 36.8057 95.4711 38.3641 95.4711 40.8582V101.432L102.423 97.4203C107.077 94.7346 109.943 89.7714 109.943 84.4021V38.315C109.943 32.9436 107.077 27.9804 102.423 25.2948Z" fill="white"/>
<path d="M125.602 12.1223C125.602 8.06671 128.137 5.36301 131.687 5.36301C135.238 5.36301 137.774 8.06671 137.774 12.1223V28.6823H137.943C140.479 25.5563 145.212 24.4579 149.016 24.4579C158.568 24.4579 165.669 30.541 165.669 40.849V64.1684C165.669 68.2234 163.133 70.9271 159.583 70.9271C156.032 70.9271 153.496 68.2234 153.496 64.1684V42.9615C153.496 37.3007 149.946 34.597 145.55 34.597C140.563 34.597 137.774 38.2298 137.774 42.9615V64.1684C137.774 68.2234 135.238 70.9271 131.687 70.9271C128.137 70.9271 125.602 68.2234 125.602 64.1684V12.1223Z" fill="white"/>
<path d="M216.138 48.0306C216.138 60.7045 207.431 71.4339 194.328 71.4339C181.226 71.4339 172.52 60.7045 172.52 48.0306C172.52 35.695 181.48 24.4579 194.328 24.4579C207.177 24.4579 216.138 35.695 216.138 48.0306ZM184.692 48.0306C184.692 53.8608 187.735 60.2817 194.328 60.2817C200.922 60.2817 203.965 53.8608 203.965 48.0306C203.965 42.2009 201.006 35.6105 194.328 35.6105C187.65 35.6105 184.692 42.2009 184.692 48.0306Z" fill="white"/>
<path d="M220.024 35.6105C219.179 33.1602 218.756 31.6394 218.756 29.8653C218.756 27.1616 221.292 24.9646 224.842 24.9646C227.801 24.9646 229.914 26.9082 230.59 29.7808L237.606 53.0162H237.775L244.876 30.2876C245.805 26.9927 247.496 24.9646 251.046 24.9646C254.597 24.9646 256.287 26.9927 257.217 30.2876L264.318 53.0162H264.487L271.503 29.7808C272.179 26.9082 274.292 24.9646 277.25 24.9646C280.801 24.9646 283.337 27.1616 283.337 30.8793C283.337 32.2311 282.745 33.583 282.153 35.4416L271.757 64.7591C270.489 68.3084 268.376 70.9271 264.403 70.9271C260.683 70.9271 258.485 68.8151 257.386 65.2668L251.131 45.6652H250.962L244.707 65.2668C243.608 68.8151 241.41 70.9271 237.69 70.9271C233.718 70.9271 231.604 68.3084 230.336 64.7591L220.024 35.6105Z" fill="white"/>
<path d="M298.896 52.0017C299.742 58.0008 304.729 60.7885 310.393 60.7885C316.648 60.7885 320.959 55.8888 324.171 55.8888C326.792 55.8888 329.159 58.5076 329.159 61.1273C329.159 66.3653 318.339 71.4339 309.294 71.4339C295.6 71.4339 286.47 61.4651 286.47 48.0306C286.47 35.695 295.431 24.4579 308.279 24.4579C321.466 24.4579 330.173 36.4556 330.173 46.5943C330.173 50.2275 328.567 52.0017 324.847 52.0017H298.896ZM318 43.8906C317.324 38.5676 313.943 34.597 308.279 34.597C302.869 34.597 299.235 38.737 298.643 43.8906H318Z" fill="white"/>
<path d="M361.791 38.6521C359.508 38.6521 354.859 35.1038 350.886 35.1038C348.688 35.1038 346.744 36.1178 346.744 38.4831C346.744 44.1444 367.876 43.2993 367.876 57.1562C367.876 65.2668 361.03 71.4339 350.548 71.4339C343.701 71.4339 333.557 67.5477 333.557 62.0559C333.557 60.1977 335.417 56.6484 338.798 56.6484C343.532 56.6484 345.645 60.7885 351.393 60.7885C355.113 60.7885 356.212 59.606 356.212 57.3251C356.212 51.7488 335.079 52.5934 335.079 38.6521C335.079 30.2031 341.926 24.4579 351.562 24.4579C357.564 24.4579 366.777 27.246 366.777 33.2447C366.777 36.0333 364.665 38.6521 361.791 38.6521Z" fill="white"/>
<path d="M378.529 36.1178H375.824C372.528 36.1178 370.499 34.0897 370.499 30.7948C370.499 27.7528 372.781 25.4719 375.824 25.4719H378.529V18.2054C378.529 14.1498 381.065 11.4461 384.616 11.4461C388.166 11.4461 390.702 14.1498 390.702 18.2054V25.4719H394.168C397.295 25.4719 400 26.9082 400 30.7948C400 34.597 397.295 36.1178 394.168 36.1178H390.702V64.1683C390.702 68.2234 388.166 70.9271 384.616 70.9271C381.065 70.9271 378.529 68.2234 378.529 64.1683V36.1178Z" fill="white"/>
<path d="M133.601 101.858C135.342 101.858 138.73 102.43 138.73 104.529C138.73 105.387 138.134 106.126 137.251 106.126C136.273 106.126 135.604 105.292 133.601 105.292C130.642 105.292 129.115 107.796 129.115 110.705C129.115 113.543 130.666 115.976 133.601 115.976C135.604 115.976 136.416 114.973 137.394 114.973C138.468 114.973 138.968 116.047 138.968 116.596C138.968 118.885 135.366 119.409 133.601 119.409C128.757 119.409 125.393 115.57 125.393 110.634C125.393 105.673 128.733 101.858 133.601 101.858Z" fill="white"/>
<path d="M141.119 104.004C141.119 102.86 141.763 102.144 142.956 102.144H147.154C150.829 102.144 153.096 103.789 153.096 107.534C153.096 110.157 151.116 111.659 148.681 112.04L152.738 116.381C153.072 116.739 153.215 117.096 153.215 117.43C153.215 118.36 152.475 119.266 151.425 119.266C150.996 119.266 150.423 119.099 150.042 118.646L144.745 112.231H144.698V117.406C144.698 118.598 143.934 119.266 142.908 119.266C141.882 119.266 141.119 118.598 141.119 117.406V104.004ZM144.698 109.656H147.154C148.467 109.656 149.374 108.869 149.374 107.534C149.374 106.174 148.467 105.435 147.154 105.435H144.698V109.656Z" fill="white"/>
<path d="M155.03 104.219C155.03 103.026 155.626 102.144 156.891 102.144H162.807C163.953 102.144 164.501 102.955 164.501 103.789C164.501 104.6 163.929 105.435 162.807 105.435H158.609V108.917H162.521C163.69 108.917 164.262 109.728 164.262 110.562C164.262 111.373 163.666 112.207 162.521 112.207H158.609V115.832H163.022C164.167 115.832 164.716 116.643 164.716 117.478C164.716 118.288 164.143 119.123 163.022 119.123H156.867C155.817 119.123 155.03 118.408 155.03 117.335V104.219Z" fill="white"/>
<path d="M170.492 103.837C170.898 102.74 171.828 101.858 173.045 101.858C174.309 101.858 175.192 102.693 175.598 103.837L180.274 116.81C180.417 117.192 180.465 117.525 180.465 117.692C180.465 118.622 179.701 119.266 178.819 119.266C177.816 119.266 177.316 118.741 177.077 118.026L176.361 115.785H169.729L169.013 118.002C168.774 118.741 168.274 119.266 167.295 119.266C166.341 119.266 165.53 118.551 165.53 117.597C165.53 117.215 165.649 116.929 165.697 116.81L170.492 103.837ZM170.754 112.493H175.288L173.069 105.578H173.021L170.754 112.493Z" fill="white"/>
<path d="M182.733 105.435H180.132C178.988 105.435 178.51 104.6 178.51 103.789C178.51 102.955 179.107 102.144 180.132 102.144H188.912C189.938 102.144 190.534 102.955 190.534 103.789C190.534 104.6 190.057 105.435 188.912 105.435H186.312V117.406C186.312 118.598 185.548 119.266 184.522 119.266C183.496 119.266 182.733 118.598 182.733 117.406V105.435Z" fill="white"/>
<path d="M191.802 103.861C191.802 102.669 192.565 102.001 193.591 102.001C194.617 102.001 195.381 102.669 195.381 103.861V117.406C195.381 118.598 194.617 119.266 193.591 119.266C192.565 119.266 191.802 118.598 191.802 117.406V103.861Z" fill="white"/>
<path d="M197.28 104.6C197.16 104.29 197.113 104.052 197.113 103.718C197.113 102.717 197.996 102.001 198.95 102.001C199.761 102.001 200.262 102.526 200.572 103.17L204.27 113.09L207.968 103.17C208.278 102.526 208.779 102.001 209.59 102.001C210.545 102.001 211.427 102.717 211.427 103.718C211.427 104.052 211.379 104.29 211.26 104.6L206.035 117.883C205.725 118.646 205.32 119.266 204.27 119.266C203.221 119.266 202.814 118.646 202.504 117.883L197.28 104.6Z" fill="white"/>
<path d="M212.453 104.219C212.453 103.026 213.049 102.144 214.314 102.144H220.23C221.376 102.144 221.924 102.955 221.924 103.789C221.924 104.6 221.352 105.435 220.23 105.435H216.032V108.917H219.944C221.113 108.917 221.685 109.728 221.685 110.562C221.685 111.373 221.089 112.207 219.944 112.207H216.032V115.832H220.445C221.59 115.832 222.139 116.643 222.139 117.478C222.139 118.288 221.566 119.123 220.445 119.123H214.29C213.24 119.123 212.453 118.408 212.453 117.335V104.219Z" fill="white"/>
<path d="M234.481 105.435H231.88C230.734 105.435 230.258 104.6 230.258 103.789C230.258 102.955 230.853 102.144 231.88 102.144H240.66C241.685 102.144 242.282 102.955 242.282 103.789C242.282 104.6 241.804 105.435 240.66 105.435H238.059V117.406C238.059 118.598 237.295 119.266 236.269 119.266C235.244 119.266 234.481 118.598 234.481 117.406V105.435Z" fill="white"/>
<path d="M243.29 104.219C243.29 103.026 243.887 102.144 245.151 102.144H251.069C252.213 102.144 252.761 102.955 252.761 103.789C252.761 104.6 252.189 105.435 251.069 105.435H246.868V108.917H250.781C251.95 108.917 252.523 109.728 252.523 110.562C252.523 111.373 251.927 112.207 250.781 112.207H246.868V115.832H251.282C252.428 115.832 252.976 116.643 252.976 117.478C252.976 118.288 252.404 119.123 251.282 119.123H245.127C244.078 119.123 243.29 118.408 243.29 117.335V104.219Z" fill="white"/>
<path d="M262.001 101.858C263.743 101.858 267.131 102.43 267.131 104.529C267.131 105.387 266.534 106.126 265.652 106.126C264.675 106.126 264.006 105.292 262.001 105.292C259.043 105.292 257.517 107.796 257.517 110.705C257.517 113.543 259.067 115.976 262.001 115.976C264.006 115.976 264.817 114.973 265.794 114.973C266.868 114.973 267.369 116.047 267.369 116.596C267.369 118.885 263.768 119.409 262.001 119.409C257.159 119.409 253.794 115.57 253.794 110.634C253.794 105.673 257.134 101.858 262.001 101.858Z" fill="white"/>
<path d="M269.191 103.861C269.191 102.669 269.953 102.001 270.981 102.001C272.006 102.001 272.769 102.669 272.769 103.861V108.917H280.261V103.861C280.261 102.669 281.024 102.001 282.049 102.001C283.077 102.001 283.839 102.669 283.839 103.861V117.406C283.839 118.598 283.077 119.266 282.049 119.266C281.024 119.266 280.261 118.598 280.261 117.406V112.207H272.769V117.406C272.769 118.598 272.006 119.266 270.981 119.266C269.953 119.266 269.191 118.598 269.191 117.406V103.861Z" fill="white"/>
<path d="M286.324 103.861C286.324 102.669 287.088 102.001 288.114 102.001C288.567 102.001 289.306 102.359 289.617 102.788L297.179 112.875H297.227V103.861C297.227 102.669 297.991 102.001 299.017 102.001C300.043 102.001 300.807 102.669 300.807 103.861V117.406C300.807 118.598 300.043 119.266 299.017 119.266C298.564 119.266 297.847 118.908 297.513 118.479L289.952 108.512H289.904V117.406C289.904 118.598 289.139 119.266 288.114 119.266C287.088 119.266 286.324 118.598 286.324 117.406V103.861Z" fill="white"/>
<path d="M302.622 110.634C302.622 105.673 305.962 101.858 310.828 101.858C315.624 101.858 319.035 105.792 319.035 110.634C319.035 115.57 315.72 119.409 310.828 119.409C305.986 119.409 302.622 115.57 302.622 110.634ZM315.315 110.634C315.315 107.749 313.811 105.149 310.828 105.149C307.847 105.149 306.344 107.749 306.344 110.634C306.344 113.543 307.799 116.119 310.828 116.119C313.859 116.119 315.315 113.543 315.315 110.634Z" fill="white"/>
<path d="M320.996 103.861C320.996 102.669 321.758 102.001 322.786 102.001C323.811 102.001 324.574 102.669 324.574 103.861V115.832H328.82C330.038 115.832 330.562 116.739 330.539 117.549C330.491 118.336 329.871 119.123 328.82 119.123H322.857C321.687 119.123 320.996 118.36 320.996 117.168V103.861Z" fill="white"/>
<path d="M329.406 110.634C329.406 105.673 332.746 101.858 337.613 101.858C342.409 101.858 345.82 105.792 345.82 110.634C345.82 115.57 342.504 119.409 337.613 119.409C332.771 119.409 329.406 115.57 329.406 110.634ZM342.099 110.634C342.099 107.749 340.595 105.149 337.613 105.149C334.632 105.149 333.128 107.749 333.128 110.634C333.128 113.543 334.584 116.119 337.613 116.119C340.643 116.119 342.099 113.543 342.099 110.634Z" fill="white"/>
<path d="M361.073 109.06C362.575 109.06 363.172 109.823 363.172 111.349C363.172 115.952 360.166 119.409 355.394 119.409C350.552 119.409 347.187 115.57 347.187 110.634C347.187 105.673 350.527 101.858 355.394 101.858C358.997 101.858 361.955 103.551 361.955 105.22C361.955 106.246 361.311 106.89 360.476 106.89C358.853 106.89 358.52 105.149 355.394 105.149C352.413 105.149 350.909 107.749 350.909 110.634C350.909 113.543 352.365 116.119 355.394 116.119C357.28 116.119 359.45 115.069 359.45 112.35H357.017C356.039 112.35 355.346 111.659 355.346 110.681C355.346 109.68 356.11 109.06 357.017 109.06H361.073Z" fill="white"/>
<path d="M364.798 103.861C364.798 102.669 365.56 102.001 366.588 102.001C367.613 102.001 368.376 102.669 368.376 103.861V117.406C368.376 118.598 367.613 119.266 366.588 119.266C365.56 119.266 364.798 118.598 364.798 117.406V103.861Z" fill="white"/>
<path d="M371.001 104.219C371.001 103.026 371.598 102.144 372.862 102.144H378.779C379.924 102.144 380.472 102.955 380.472 103.789C380.472 104.6 379.899 105.435 378.779 105.435H374.579V108.917H378.492C379.661 108.917 380.233 109.728 380.233 110.562C380.233 111.373 379.638 112.207 378.492 112.207H374.579V115.832H378.993C380.139 115.832 380.687 116.643 380.687 117.478C380.687 118.288 380.114 119.123 378.993 119.123H372.837C371.788 119.123 371.001 118.408 371.001 117.335V104.219Z" fill="white"/>
<path d="M392.571 104.243C392.571 105.172 391.951 106.007 390.971 106.007C389.994 106.007 389.231 105.292 387.798 105.292C386.773 105.292 385.843 105.84 385.843 106.842C385.843 109.298 393.812 107.725 393.812 113.876C393.812 117.287 390.996 119.409 387.704 119.409C385.866 119.409 381.906 118.98 381.906 116.739C381.906 115.809 382.526 115.045 383.504 115.045C384.626 115.045 385.962 115.976 387.512 115.976C389.087 115.976 389.946 115.093 389.946 113.924C389.946 111.11 381.977 112.803 381.977 107.272C381.977 103.933 384.722 101.858 387.894 101.858C389.231 101.858 392.571 102.359 392.571 104.243Z" fill="white"/>
<path d="M184.919 81.5846C185.062 80.7257 185.993 79.7479 187.257 79.7479C188.45 79.7479 189.381 80.6068 189.643 81.4651L192.46 90.9101H192.507L195.322 81.4651C195.586 80.6068 196.515 79.7479 197.709 79.7479C198.973 79.7479 199.904 80.7257 200.048 81.5846L202.266 94.8932C202.291 95.0359 202.291 95.1791 202.291 95.2986C202.291 96.3477 201.527 97.0158 200.572 97.0158C199.355 97.0158 198.878 96.4671 198.711 95.3461L197.303 85.639H197.256L194.392 95.6326C194.225 96.2045 193.772 97.0158 192.483 97.0158C191.195 97.0158 190.741 96.2045 190.574 95.6326L187.711 85.639H187.664L186.256 95.3461C186.089 96.4671 185.611 97.0158 184.395 97.0158C183.44 97.0158 182.676 96.3477 182.676 95.2986C182.676 95.1791 182.676 95.0359 182.7 94.8932L184.919 81.5846Z" fill="white"/>
<path d="M203.653 81.6083C203.653 80.416 204.417 79.7479 205.442 79.7479C206.469 79.7479 207.233 80.416 207.233 81.6083V89.9323C207.233 92.1263 208.641 93.8673 210.907 93.8673C213.078 93.8673 214.558 92.0311 214.558 89.9323V81.6083C214.558 80.416 215.321 79.7479 216.347 79.7479C217.374 79.7479 218.138 80.416 218.138 81.6083V90.1231C218.138 94.13 214.844 97.159 210.907 97.159C206.922 97.159 203.653 94.1775 203.653 90.1231V81.6083Z" fill="white"/>
<path d="M220.383 81.6083C220.383 80.416 221.147 79.7479 222.172 79.7479C223.198 79.7479 223.962 80.416 223.962 81.6083V93.5813H228.209C229.426 93.5813 229.951 94.4878 229.928 95.2986C229.879 96.0855 229.259 96.8725 228.209 96.8725H222.243C221.075 96.8725 220.383 96.1093 220.383 94.9169V81.6083Z" fill="white"/>
<path d="M231.002 83.1823H228.401C227.256 83.1823 226.778 82.3478 226.778 81.537C226.778 80.7019 227.376 79.8911 228.401 79.8911H237.183C238.208 79.8911 238.805 80.7019 238.805 81.537C238.805 82.3478 238.328 83.1823 237.183 83.1823H234.581V95.1553C234.581 96.3477 233.817 97.0158 232.791 97.0158C231.766 97.0158 231.002 96.3477 231.002 95.1553V83.1823Z" fill="white"/>
<path d="M239.833 81.6083C239.833 80.416 240.596 79.7479 241.622 79.7479C242.648 79.7479 243.412 80.416 243.412 81.6083V95.1553C243.412 96.3477 242.648 97.0158 241.622 97.0158C240.596 97.0158 239.833 96.3477 239.833 95.1553V81.6083Z" fill="white"/>
<path d="M247.54 81.5846C247.683 80.7257 248.614 79.7479 249.879 79.7479C251.072 79.7479 252.002 80.6068 252.265 81.4651L255.081 90.9101H255.129L257.944 81.4651C258.207 80.6068 259.137 79.7479 260.331 79.7479C261.595 79.7479 262.525 80.7257 262.669 81.5846L264.888 94.8932C264.912 95.0359 264.912 95.1791 264.912 95.2986C264.912 96.3477 264.149 97.0158 263.194 97.0158C261.976 97.0158 261.499 96.4671 261.332 95.3461L259.925 85.639H259.877L257.013 95.6326C256.846 96.2045 256.393 97.0158 255.104 97.0158C253.816 97.0158 253.362 96.2045 253.195 95.6326L250.332 85.639H250.285L248.877 95.3461C248.71 96.4671 248.232 97.0158 247.016 97.0158C246.061 97.0158 245.297 96.3477 245.297 95.2986C245.297 95.1791 245.297 95.0359 245.322 94.8932L247.54 81.5846Z" fill="white"/>
<path d="M266.8 81.9662C266.8 80.7738 267.397 79.8911 268.66 79.8911H274.578C275.724 79.8911 276.273 80.7019 276.273 81.537C276.273 82.3478 275.699 83.1823 274.578 83.1823H270.379V86.6643H274.292C275.462 86.6643 276.034 87.4756 276.034 88.3102C276.034 89.121 275.437 89.9561 274.292 89.9561H270.379V93.5813H274.793C275.939 93.5813 276.487 94.3921 276.487 95.2267C276.487 96.038 275.914 96.8725 274.793 96.8725H268.637C267.587 96.8725 266.8 96.1569 266.8 95.084V81.9662Z" fill="white"/>
<path d="M278.088 81.7278C278.088 80.6305 278.851 79.8911 279.925 79.8911H283.886C289.231 79.8911 292.286 83.3256 292.286 88.6205C292.286 93.6289 289.04 96.8725 284.124 96.8725H279.972C279.185 96.8725 278.088 96.4434 278.088 95.084V81.7278ZM281.666 93.5813H284.077C287.155 93.5813 288.563 91.3155 288.563 88.4534C288.563 85.4006 287.131 83.1823 283.839 83.1823H281.666V93.5813Z" fill="white"/>
<path d="M294.244 81.6083C294.244 80.416 295.008 79.7479 296.034 79.7479C297.059 79.7479 297.823 80.416 297.823 81.6083V95.1553C297.823 96.3477 297.059 97.0158 296.034 97.0158C295.008 97.0158 294.244 96.3477 294.244 95.1553V81.6083Z" fill="white"/>
<path d="M304.147 81.5846C304.552 80.4873 305.483 79.6052 306.7 79.6052C307.965 79.6052 308.848 80.4397 309.253 81.5846L313.93 94.5591C314.074 94.9407 314.121 95.2748 314.121 95.4412C314.121 96.3715 313.358 97.0158 312.475 97.0158C311.473 97.0158 310.972 96.4909 310.733 95.7753L310.017 93.5332H303.384L302.668 95.7515C302.429 96.4909 301.928 97.0158 300.949 97.0158C299.995 97.0158 299.184 96.3001 299.184 95.3461C299.184 94.9645 299.304 94.678 299.351 94.5591L304.147 81.5846ZM304.41 90.242H308.943L306.725 83.3256H306.676L304.41 90.242Z" fill="white"/>
<path d="M332.235 90.3636L333.166 89.2905C333.786 88.5754 334.215 88.1935 334.979 88.1935C335.67 88.1935 336.291 88.7895 336.291 89.6956C336.291 90.3396 335.742 91.1027 334.979 91.9616L334.382 92.6048L336.005 94.4409C336.339 94.8229 336.529 95.0849 336.529 95.6339C336.529 96.444 335.766 97.2311 334.86 97.2311C334.311 97.2311 333.953 97.0641 333.594 96.683L331.948 94.9659C330.398 96.325 328.824 97.2311 326.7 97.2311C323.504 97.2311 320.855 95.4189 320.855 92.0807C320.855 89.7196 322.501 87.9794 324.458 86.9063C323.527 85.9763 322.884 85.0222 322.884 83.6871C322.884 80.9689 325.436 79.6809 327.894 79.6809C330.041 79.6809 332.761 80.897 332.761 83.425C332.761 85.3323 331.257 86.8104 329.73 87.5974L332.235 90.3636ZM326.342 88.8615C325.269 89.5526 324.291 90.3876 324.291 91.7467C324.291 93.2488 325.317 94.0838 326.772 94.0838C328.061 94.0838 328.895 93.5588 329.801 92.7007L326.342 88.8615ZM327.894 82.3991C327.274 82.3991 326.462 82.8761 326.462 83.5912C326.462 84.3071 326.796 84.7362 327.727 85.6423C328.442 85.2843 329.467 84.6411 329.467 83.7822C329.467 82.7091 328.514 82.3991 327.894 82.3991Z" fill="white"/>
</g>
<defs>
<clipPath id="clip0_3_45">
<rect width="400" height="122.239" fill="white" transform="translate(0 0.239029)"/>
</clipPath>
</defs>
</svg>
