<svg width="400" height="112" viewBox="0 0 400 112" fill="none" xmlns="http://www.w3.org/2000/svg">
<g clip-path="url(#clip0_2_113)">
<path d="M0 32.9788C1.33099 27.5542 5.03187 24.3395 9.77285 21.7087C20.743 15.623 31.5541 9.25281 42.4092 2.9628C47.4465 0.0449773 52.4104 0.0503758 57.4482 2.96712C69.1038 9.7172 80.7815 16.427 92.4545 23.1452C97.4292 26.0083 99.8731 30.2627 99.8544 36.0184C99.8099 49.4777 99.8093 62.937 99.8544 76.3962C99.8743 82.234 97.3534 86.4805 92.3088 89.372C80.6768 96.039 69.0604 102.731 57.4598 109.454C52.4237 112.372 47.4537 112.399 42.4214 109.471C36.3096 105.914 30.1677 102.406 24.041 98.8713C23.5194 98.5702 23.0202 98.2299 22.4806 97.8861C24.8378 96.057 26.0994 93.8094 26.8245 90.983C27.5322 88.2246 28.9776 85.653 30.1261 83.0115C32.5165 77.5146 35.735 72.5154 39.4087 67.7984C41.171 65.5351 41.9269 65.293 44.0859 67.1065C46.6166 69.2331 48.9389 71.6239 51.2299 74.0149C53.9955 76.8997 56.7262 79.8273 59.2966 82.8832C61.0883 85.0121 62.9337 87.176 63.2889 90.1694C63.3461 90.6529 64.2465 91.1009 64.8289 91.4443C65.7462 91.9839 66.7098 92.4525 67.6807 92.8922C68.7334 93.368 69.8199 94.1177 70.8859 94.1086C71.7832 94.0997 72.9709 93.3607 73.452 92.5861C73.7376 92.1285 73.1209 90.7385 72.5216 90.1831C71.1454 88.9082 69.5319 87.888 67.9638 86.7257C68.4201 85.9836 68.7135 85.4572 69.0538 84.9634C69.9234 83.7028 69.5549 82.7765 68.4968 81.763C66.6129 79.9592 64.8193 78.0525 63.0848 76.1036C61.2202 74.0089 59.7428 71.5938 57.0038 70.3285C56.107 69.9142 55.5632 68.5921 55.0163 67.5997C52.8019 63.5851 50.883 59.3879 48.4204 55.534C44.6381 49.6143 45.9403 43.6911 47.7121 37.6584C47.7471 37.5422 47.7633 37.3831 47.8464 37.3242C50.161 35.6631 52.3646 33.7991 54.8423 32.4297C56.7268 31.3877 58.9587 30.9721 61.0395 30.288C61.8356 30.0266 62.6384 29.6049 63.4437 29.59C64.841 29.5652 66.2436 29.8001 67.5307 29.9164C67.4561 29.676 67.2994 29.1714 67.1428 28.6678C67.3114 28.5829 67.4801 28.4986 67.6488 28.4144C67.27 28.1643 66.891 27.915 66.4767 27.6423C66.7706 27.4694 67.0688 27.2941 67.7481 26.8948C66.7845 26.6991 66.2303 26.5865 65.6764 26.4745C65.5601 26.3738 65.4439 26.2745 65.327 26.1751C65.8401 26.0222 66.3526 25.8686 66.8663 25.7157C66.726 25.497 66.587 25.2796 66.4477 25.0621C65.5728 25.2073 64.4177 25.753 63.8984 25.3903C63.3113 24.9808 63.2956 23.7559 62.6627 22.9061C62.5916 23.2716 62.5265 23.639 62.45 24.004C61.8514 26.9056 61.0372 27.9801 58.2131 27.6325C54.8905 27.2243 52.6506 29.1731 50.0567 30.3663C48.801 30.9432 47.7513 31.4918 46.251 31.2155C45.2797 31.0365 44.1553 31.6207 43.1127 31.9104C42.2666 32.1453 41.4396 32.4506 40.3104 32.8211C40.37 31.7207 40.158 30.8516 40.4911 30.3247C41.837 28.1958 40.8096 26.3419 39.7834 24.6773C38.2296 22.158 34.687 22.4862 33.582 25.2272C32.7906 27.1911 32.7616 29.2425 34.2162 31.0866C34.6437 31.6279 34.8244 32.3621 35.2508 33.298C34.1739 33.298 33.408 33.2456 32.652 33.3089C31.1494 33.4347 29.6443 33.8021 28.1543 33.7412C26.4337 33.6702 24.6209 33.5166 23.0449 32.9005C21.3272 32.2297 19.7613 31.9918 18.0527 32.6085C17.9949 32.6295 17.9305 32.6313 17.8726 32.6512C15.5629 33.4246 13.5478 33.2391 12.1536 30.942C11.8808 30.4927 11.5435 30.0826 10.8111 29.7724C10.9491 30.5018 11.0876 31.2305 11.2538 32.1085C10.3317 31.8724 9.46329 31.6515 8.59604 31.4292C8.4786 31.6165 8.36236 31.8038 8.24553 31.9912C8.61892 32.2971 8.99292 32.6031 9.31091 32.8626C9.06881 32.9488 8.69963 33.0794 7.98776 33.3317C8.81887 33.7292 9.33622 33.9768 9.98424 34.2869C9.46028 34.5604 9.0128 34.7935 8.5882 35.0144C8.81526 35.5578 9.03087 36.0721 9.28743 36.6845C11.8976 35.8065 14.5518 35.8473 17.2336 36.8616C18.1068 37.1916 19.218 37.288 20.1172 37.0687C21.7644 36.6683 23.0876 37.1315 24.4998 37.8686C25.84 38.5678 27.325 38.9858 28.7192 39.5868C29.1687 39.7813 29.6323 40.0928 29.9232 40.4764C32.4431 43.802 32.5281 47.7197 32.8304 51.6675C33.1916 56.3899 31.7951 60.6942 30.4201 65.0497C29.6287 67.5539 29.0475 70.1484 27.9918 72.5357C27.2589 74.195 25.7231 75.4839 24.8306 77.0949C23.6483 79.2263 22.7906 81.5329 21.7018 83.7192C21.1881 84.7514 20.5913 85.8017 19.8023 86.6238C18.2521 88.2378 18.6206 89.6495 19.9282 91.1119C20.1721 91.3846 20.3895 91.6816 20.7695 92.1555C19.9625 93.2264 19.1398 94.3177 18.1858 95.583C13.7321 92.9175 9.33501 90.4602 5.12943 87.7109C2.22595 85.8126 0.974454 82.6609 0 79.4497C0 63.9591 0 48.469 0 32.9788Z" fill="black"/>
<path d="M245.015 46.9254C243.09 52.9232 241.338 58.3899 239.581 63.8549C239.093 65.3743 238.654 66.9132 238.079 68.3982C236.998 71.1922 235.086 72.9815 231.946 73.232C228.645 73.4946 226.196 72.1932 224.611 69.3191C224.11 68.4098 223.688 67.4437 223.341 66.465C219.781 56.4639 216.235 46.4574 212.71 36.4431C212.263 35.1724 211.884 33.8654 211.613 32.547C210.959 29.3719 212.166 27.0846 214.961 26.0108C218.051 24.8242 221.23 25.7037 222.806 28.2493C223.219 28.9166 223.494 29.6881 223.725 30.4446C225.942 37.7229 228.136 45.0078 230.344 52.2903C230.552 52.9721 230.802 53.6406 231.183 54.7572C233.571 47.144 235.806 40.0145 238.042 32.8843C238.335 31.9479 238.592 30.9986 238.922 30.0748C240.051 26.9226 241.967 25.5307 245.106 25.547C248.168 25.5632 250.068 26.866 251.096 30.0368C253.558 37.6235 255.911 45.2468 258.309 52.854C258.474 53.372 258.662 53.882 258.965 54.7656C260.692 49.0797 262.311 43.7575 263.922 38.4329C264.724 35.7901 265.496 33.139 266.303 30.4987C267.544 26.4389 270.708 24.6526 274.521 25.8379C277.94 26.9027 279.493 30.1512 278.167 34.0407C275.54 41.767 272.775 49.4476 270.052 57.1415C268.763 60.7857 267.536 64.4565 266.099 68.0436C264.88 71.0903 262.774 73.1839 259.197 73.2519C255.405 73.3236 253.04 71.6306 251.736 67.6611C249.724 61.541 247.795 55.3925 245.828 49.2579C245.629 48.6394 245.401 48.0317 245.015 46.9254Z" fill="black"/>
<path d="M127.197 29.2183C132.764 24.599 138.816 24.0185 145.149 25.9752C151.62 27.9741 155.489 32.6121 155.934 39.2784C156.445 46.9272 156.204 54.627 156.253 62.3053C156.266 64.1434 156.278 66.0025 156.036 67.8184C155.597 71.1235 153.228 73.1856 150.075 73.2488C146.76 73.3139 144.378 71.3645 143.756 68.0063C143.589 67.107 143.535 66.1765 143.533 65.2606C143.515 58.8085 143.524 52.3566 143.523 45.9046C143.522 45.2288 143.523 44.5524 143.499 43.8774C143.312 38.6178 140.212 35.5156 135.193 35.5572C130.444 35.5964 127.273 38.9093 127.215 44.0671C127.148 50.0264 127.198 55.9881 127.196 61.9482C127.196 63.4844 127.222 65.0208 127.18 66.5566C127.066 70.6129 124.557 73.2561 120.86 73.2507C117.157 73.2465 114.597 70.6025 114.583 66.5392C114.539 53.8195 114.562 41.0985 114.562 28.3788C114.562 22.7869 114.499 17.1943 114.598 11.6047C114.674 7.28044 117.928 4.61254 122.069 5.27613C125.061 5.75562 127.122 8.29586 127.167 11.7962C127.234 16.9582 127.192 22.1201 127.197 27.2815C127.198 27.829 127.197 28.3759 127.197 29.2183Z" fill="black"/>
<path d="M314.517 45.0819C314.203 39.2664 309.758 35.2934 303.956 35.5661C299.013 35.798 294.685 40.2789 294.812 45.0819C301.38 45.0819 307.948 45.0819 314.517 45.0819ZM295.051 53.6309C295.244 58.0888 298.95 61.6566 303.916 62.5004C307.47 63.1045 310.762 62.4288 313.913 60.8153C315.607 59.9468 317.251 58.9681 318.984 58.1852C321.33 57.1252 323.444 57.7263 325.057 59.7427C326.634 61.7108 326.784 64.0205 325.233 66.0103C324.377 67.107 323.343 68.1676 322.171 68.8982C314.968 73.3874 307.186 75.0743 298.865 72.9249C288.241 70.181 281.594 60.7075 281.893 49.0839C282.162 38.7256 288.031 29.7778 296.764 26.4124C309.434 21.5324 323.726 29.5816 326.785 43.3625C327.129 44.909 327.32 46.5207 327.325 48.1028C327.337 51.9289 325.634 53.6044 321.785 53.6189C313.538 53.6502 305.288 53.6303 297.04 53.6309C296.378 53.6309 295.717 53.6309 295.051 53.6309Z" fill="black"/>
<path d="M196.519 49.5549C196.349 49.5019 196.179 49.4488 196.008 49.3964C196.024 46.3864 195.364 43.5492 193.753 40.9804C190.051 35.0754 181.879 35.0211 178.324 41.0227C175.18 46.3279 175.15 51.903 178.034 57.3565C179.71 60.5262 182.448 62.2137 186.141 62.1776C189.758 62.1414 192.508 60.4709 194.009 57.3144C195.165 54.8801 195.705 52.1523 196.519 49.5549ZM163.299 50.5691C163.489 41.7519 166.184 35.0325 172.27 29.9405C182.014 21.7865 196.585 23.7632 203.916 34.4069C210.072 43.348 210.449 52.9124 205.395 62.4541C200.928 70.8868 192.265 74.8606 182.353 73.5392C173.686 72.3834 166.337 65.4046 164.169 56.1435C163.669 54.0062 163.484 51.7934 163.299 50.5691Z" fill="black"/>
<path d="M348.537 73.8614C344.016 73.6657 339.547 72.6623 335.512 70.2135C334.322 69.4914 333.191 68.5669 332.273 67.525C330.513 65.5267 330.439 63.4712 331.782 61.2507C333.124 59.0331 335.281 57.9232 337.723 58.6031C339.533 59.1073 341.266 59.9727 342.939 60.8551C345.623 62.2703 348.37 63.1093 351.442 62.5649C352.983 62.2914 354.075 61.609 354.374 59.9685C354.664 58.3911 353.905 57.292 352.619 56.6405C350.708 55.6721 348.7 54.8896 346.744 54.0085C344.17 52.8511 341.502 51.8537 339.055 50.4727C329.063 44.8398 331.565 32.5887 338.639 27.9971C345.122 23.7895 356.27 24.0473 362.417 28.7365C365.302 30.9366 366.212 34.0395 364.787 36.8242C363.52 39.3033 361.05 40.2939 358.423 39.2888C356.187 38.4335 354.043 37.299 351.756 36.6381C350.285 36.2135 348.548 36.0962 347.086 36.4611C346.132 36.7003 345.011 37.9542 344.796 38.9334C344.611 39.7874 345.328 41.307 346.112 41.8062C348.005 43.0125 350.17 43.8014 352.229 44.7458C354.85 45.9485 357.582 46.9513 360.08 48.3672C369.601 53.7658 367.717 65.2991 360.871 70.1961C357.223 72.8068 353.082 73.7174 348.537 73.8614Z" fill="black"/>
<path d="M377.677 37.2296C371.024 36.6491 369.329 35.4824 369.312 31.6816C369.297 27.8885 371.084 26.6076 377.677 25.8494C377.677 24.6178 377.664 23.3512 377.68 22.0846C377.703 20.4278 377.639 18.7595 377.808 17.1159C378.131 13.9331 380.436 11.7137 383.435 11.5241C386.815 11.3096 389.374 13.0785 390.023 16.3861C390.373 18.1699 390.288 20.043 390.353 21.8774C390.398 23.1602 390.362 24.4454 390.362 26.027C391.778 26.027 393.105 25.9632 394.426 26.039C398.034 26.2456 399.998 28.2265 399.998 31.5774C399.998 34.7152 398.111 36.8027 394.949 37.0279C393.495 37.1326 392.027 37.0466 390.362 37.0466C390.362 37.9451 390.361 38.6016 390.361 39.2581C390.361 47.9806 390.373 56.7031 390.347 65.4255C390.344 66.4596 390.257 67.5202 390.015 68.5224C389.268 71.6179 386.853 73.3634 383.648 73.2428C380.683 73.1315 378.336 71.0621 377.848 68.0358C377.69 67.0722 377.686 66.0772 377.684 65.0973C377.672 56.5586 377.677 48.021 377.677 39.4833C377.677 38.7612 377.677 38.039 377.677 37.2296Z" fill="black"/>
<path d="M295.973 93.3216C294.778 97.3019 293.594 101.288 292.379 105.264C291.671 107.579 289.978 108.843 288.013 108.111C286.976 107.726 285.774 106.575 285.504 105.546C283.887 99.3737 282.501 93.1422 281.079 86.9201C280.7 85.2586 281.388 84.1167 282.808 83.7619C284.392 83.3668 285.695 84.1377 286.078 85.9097C286.998 90.1682 287.823 94.4473 288.691 98.719C288.756 99.0424 288.851 99.3604 289.306 99.7007C290.079 97.1562 290.86 94.6135 291.623 92.0652C292.186 90.1844 292.74 88.3005 293.268 86.4095C293.702 84.864 294.459 83.6343 296.258 83.6795C297.946 83.7222 298.649 84.9063 299.079 86.3848C300.274 90.5097 301.517 94.6207 302.75 98.7353C302.868 99.1286 303.04 99.5032 303.359 100.33C304.338 95.4548 305.205 91.0336 306.133 86.625C306.292 85.8674 306.517 84.8093 307.054 84.516C307.914 84.0463 309.163 83.7535 310.066 84.0119C311.519 84.4268 311.508 85.8705 311.23 87.1207C310.362 91.015 309.437 94.8947 308.529 98.7793C308.011 100.99 307.479 103.197 306.96 105.407C306.546 107.172 305.516 108.224 303.626 108.25C301.773 108.272 300.635 107.322 300.106 105.588C298.857 101.483 297.612 97.379 296.364 93.2764C296.233 93.2909 296.104 93.3059 295.973 93.3216Z" fill="black"/>
<path d="M226.425 91.8876C227.589 91.1704 229.006 90.5765 228.685 88.957C228.565 88.35 227.573 87.5418 226.938 87.5043C226.21 87.4604 225.026 87.994 224.767 88.5902C224.12 90.0862 225.348 90.983 226.425 91.8876ZM229.203 101.978C227.752 100.364 226.335 98.7594 224.875 97.1935C224.675 96.9785 224.223 96.8099 223.953 96.8773C222.65 97.2086 221.309 99.5182 221.452 101.064C221.607 102.718 222.704 103.768 224.514 103.93C226.347 104.094 227.869 103.454 229.203 101.978ZM221.514 93.7643C221.084 93.1994 220.663 92.8006 220.433 92.3141C220.046 91.4943 219.625 90.6409 219.493 89.761C219.147 87.4906 220.22 85.6067 222.331 84.457C225.2 82.8953 229.391 83.2012 231.741 85.1827C233.358 86.5456 234.103 88.3873 233.207 90.2795C232.404 91.9773 230.999 93.3921 229.658 95.2018C229.855 95.4277 230.392 96.0463 230.937 96.6575C231.506 97.2959 232.084 97.9271 232.715 98.6239C233.452 97.8409 234.098 97.1032 234.803 96.4274C235.688 95.5794 236.918 95.1085 237.717 96.0991C238.253 96.7659 238.332 98.1589 238.04 99.0352C237.693 100.077 236.728 100.911 235.947 101.949C236.682 102.798 237.453 103.661 238.191 104.551C239.107 105.656 239.194 106.815 238.1 107.819C237.041 108.791 235.86 108.768 234.795 107.78C233.987 107.03 233.249 106.208 232.741 105.689C230.365 106.66 228.265 107.935 226.007 108.356C220.273 109.428 215.782 105.238 216.642 99.8977C217.1 97.0568 219.104 95.3392 221.514 93.7643Z" fill="black"/>
<path d="M376.338 93.5498C376.338 97.3567 376.349 101.162 376.335 104.969C376.326 107.269 375.549 108.246 373.78 108.252C372.015 108.259 371.203 107.263 371.196 104.987C371.182 98.9659 371.196 92.9463 371.19 86.9261C371.189 85.5638 371.372 84.2974 372.912 83.827C374.46 83.3535 375.483 84.1625 376.354 85.3284C379.295 89.2684 382.249 93.1975 385.205 97.126C385.597 97.647 386.018 98.1439 386.754 99.0623C386.754 95.235 386.753 91.8924 386.754 88.5499C386.754 87.7513 386.713 86.9485 386.781 86.1552C386.915 84.5666 387.811 83.6289 389.419 83.6836C391.021 83.7379 391.873 84.7003 391.878 86.3185C391.89 91.4172 391.889 96.516 391.892 101.615C391.892 102.905 392.089 104.237 391.822 105.47C391.616 106.423 391.002 107.726 390.25 108.002C389.457 108.292 388.104 107.784 387.323 107.193C386.377 106.476 385.769 105.312 385.025 104.335C382.246 100.685 379.471 97.0327 376.696 93.383C376.576 93.4385 376.457 93.4944 376.338 93.5498Z" fill="black"/>
<path d="M250.771 93.4474C252.621 93.3156 254.588 94.0755 255.634 92.1887C256.025 91.4804 256.024 90.1133 255.581 89.4738C254.423 87.7994 252.545 88.3927 250.771 88.4258C250.771 90.1091 250.771 91.6727 250.771 93.4474ZM250.742 103.516C252.319 103.516 253.719 103.576 255.113 103.499C256.739 103.411 257.737 102.521 257.838 100.86C257.936 99.2388 256.998 98.2836 255.483 98.1276C253.939 97.9674 252.368 98.0909 250.742 98.0909C250.742 99.8856 250.742 101.574 250.742 103.516ZM258.434 94.7965C262.695 96.846 263.993 99.3333 262.871 103.164C262.081 105.868 260.197 107.528 257.485 107.81C254.377 108.131 251.221 108.104 248.088 108.061C246.421 108.039 245.544 106.943 245.541 105.266C245.53 99.0593 245.512 92.8531 245.553 86.6468C245.567 84.7357 246.488 83.9101 248.467 83.8745C250.561 83.8372 252.655 83.8432 254.75 83.8728C257.724 83.9149 260.02 85.403 260.86 87.7826C261.781 90.397 260.993 92.7507 258.434 94.7965Z" fill="black"/>
<path d="M346.63 98.4131C345.557 98.4131 344.468 98.451 343.381 98.404C341.821 98.3348 340.967 97.4464 341.038 95.9215C341.105 94.4622 342.046 93.7595 343.503 93.7595C345.412 93.7605 347.32 93.7215 349.224 93.7727C351.269 93.8287 352.043 94.6387 352.197 96.7285C352.717 103.787 346.614 109.442 339.598 108.403C334.527 107.654 330.941 104.389 329.767 99.455C328.469 94.0021 330.27 88.453 334.272 85.5711C338.011 82.8802 344.282 82.7496 348.253 85.2977C348.714 85.5934 349.155 85.9469 349.533 86.3419C350.535 87.3924 350.874 88.6185 349.917 89.8219C348.976 91.0071 347.771 90.6873 346.577 90.1079C345.267 89.4707 343.976 88.5781 342.586 88.35C337.518 87.5163 334.072 91.3823 334.719 96.9616C335.256 101.589 337.911 104.145 341.782 103.76C344.838 103.456 346.767 101.439 346.63 98.4131Z" fill="black"/>
<path d="M171.03 96.3744C170.634 94.7121 170.476 93.2837 169.951 92.0051C168.962 89.5917 167.121 88.2101 164.4 88.203C161.69 88.1952 159.826 89.5129 158.797 91.9352C157.561 94.8537 157.592 97.8277 159.083 100.643C161.238 104.721 167.064 104.946 169.386 100.997C170.225 99.567 170.532 97.8247 171.03 96.3744ZM176.048 95.9456C176.073 105.664 166.986 111.517 158.742 107.095C153.381 104.219 151.119 96.8851 153.666 90.6403C155.944 85.0592 161.701 82.266 167.575 83.8944C172.652 85.3019 176.035 90.1121 176.048 95.9456Z" fill="black"/>
<path d="M184.106 94.6218C186.375 94.3165 188.871 95.4517 190.177 93.062C190.648 92.2026 190.524 90.45 189.924 89.6905C188.4 87.7573 186.118 88.8757 184.106 88.5896C184.106 90.7258 184.106 92.547 184.106 94.6218ZM189.818 98.0957C191.722 100.143 193.447 101.969 195.142 103.825C196.406 105.213 196.411 106.645 195.21 107.673C194.072 108.645 192.504 108.429 191.329 107.072C190.125 105.679 188.972 104.24 187.798 102.82C186.674 101.461 185.55 100.098 184.018 98.8154C184.018 100.916 184.152 103.028 183.959 105.112C183.868 106.094 183.398 107.349 182.663 107.899C181.075 109.086 178.945 107.838 178.925 105.762C178.861 99.3195 178.895 92.8771 178.902 86.4335C178.904 85.0098 179.59 83.9637 181.044 83.9317C183.99 83.8685 186.972 83.7462 189.88 84.1124C193.657 84.5882 195.657 86.9244 195.927 90.4386C196.221 94.2502 194.73 96.4094 190.894 97.7265C190.612 97.8229 190.331 97.921 189.818 98.0957Z" fill="black"/>
<path d="M122.84 83.1958C124.474 83.6662 126.165 84.0004 127.725 84.6491C129.115 85.226 129.802 86.4095 129.098 87.9567C128.442 89.3967 127.293 89.5942 125.859 89.1636C124.693 88.8131 123.436 88.3114 122.299 88.4625C121.407 88.5806 120.242 89.4334 119.901 90.2513C119.392 91.469 120.643 92.0159 121.645 92.3785C123.317 92.9836 125.031 93.4776 126.689 94.1159C129.413 95.1657 130.976 97.1622 131.118 100.1C131.257 103.009 130.199 105.464 127.662 106.987C123.721 109.351 119.642 108.864 115.661 107.045C114.25 106.401 113.77 105.064 114.37 103.621C114.988 102.132 116.307 102.102 117.66 102.474C118.429 102.685 119.168 103.049 119.947 103.173C121.025 103.344 122.143 103.501 123.218 103.399C124.597 103.266 125.61 102.283 125.482 100.955C125.402 100.134 124.552 99.1719 123.785 98.6889C122.83 98.0866 121.612 97.8861 120.494 97.5555C115.567 96.0943 113.761 93.9323 114.279 90.0868C114.807 86.1559 118.268 83.4608 122.84 83.1958Z" fill="black"/>
<path d="M139.154 95.6475C141.557 95.3885 144.052 96.3341 145.547 93.8648C146.37 92.5055 146.325 90.9733 145.314 89.7146C143.643 87.6338 141.346 88.4596 139.154 88.4132C139.154 90.862 139.154 93.103 139.154 95.6475ZM139.059 100.056C139.059 102.013 139.086 103.721 139.051 105.426C139.013 107.314 138.219 108.209 136.631 108.254C135.032 108.299 134.002 107.423 133.983 105.619C133.921 99.2322 133.931 92.8421 133.986 86.4547C134.001 84.7929 134.98 83.8679 136.71 83.8703C138.926 83.8734 141.146 83.8053 143.359 83.8998C148.029 84.0974 151.298 87.3864 151.377 91.8598C151.455 96.3443 148.307 99.6947 143.606 100.039C142.199 100.143 140.779 100.056 139.059 100.056Z" fill="black"/>
<path d="M360.151 88.6065C360.151 90.335 360.151 91.7883 360.151 93.4926C361.847 93.4926 363.484 93.4715 365.123 93.4974C367.098 93.5288 368.213 94.4388 368.165 95.9294C368.121 97.3519 367.04 98.2083 365.182 98.2384C363.583 98.2655 361.983 98.2444 360.234 98.2444C360.234 99.9254 360.234 101.539 360.234 103.399C362.114 103.399 363.998 103.382 365.883 103.403C367.791 103.423 368.793 104.236 368.801 105.715C368.81 107.18 367.781 108.087 365.916 108.117C363.27 108.162 360.62 108.174 357.974 108.114C355.822 108.066 354.961 107.176 354.952 105.028C354.926 99.0683 354.923 93.1102 354.952 87.152C354.965 84.7021 355.851 83.8805 358.335 83.8679C360.737 83.8552 363.139 83.8498 365.54 83.8703C367.465 83.8861 368.466 84.6719 368.506 86.1463C368.548 87.6404 367.436 88.5655 365.473 88.5999C363.76 88.6293 362.044 88.6065 360.151 88.6065Z" fill="black"/>
<path d="M271.025 88.6017C271.025 90.2747 271.025 91.7309 271.025 93.4914C272.63 93.4914 274.263 93.4752 275.897 93.4957C277.891 93.5228 279.004 94.3978 278.992 95.8823C278.979 97.3549 277.849 98.2192 275.863 98.242C274.28 98.2595 272.695 98.2462 271.025 98.2462C271.025 100.01 271.025 101.58 271.025 103.399C272.957 103.399 274.844 103.382 276.731 103.405C278.665 103.427 279.621 104.212 279.581 105.747C279.537 107.476 278.417 108.093 276.889 108.116C274.178 108.156 271.469 108.176 268.76 108.112C266.628 108.061 265.806 107.158 265.8 104.979C265.783 99.0804 265.78 93.1813 265.8 87.2834C265.809 84.6576 266.61 83.8794 269.221 83.8674C271.684 83.8558 274.147 83.8409 276.611 83.8757C278.35 83.9004 279.374 84.7834 279.302 86.2143C279.218 87.8837 278.156 88.5721 276.594 88.5956C274.812 88.6221 273.026 88.6017 271.025 88.6017Z" fill="black"/>
<path d="M319.062 88.5987C319.062 90.3236 319.062 91.7798 319.062 93.4926C320.748 93.4926 322.387 93.4715 324.022 93.4974C325.991 93.5288 327.109 94.4533 327.047 95.9468C326.989 97.3688 325.911 98.2041 324.044 98.242C322.505 98.2734 320.967 98.2752 319.426 98.2932C319.372 98.2932 319.318 98.3348 319.13 98.4149C319.13 99.9687 319.13 101.58 319.13 103.399C321.068 103.399 322.962 103.415 324.855 103.394C326.414 103.376 327.527 103.897 327.632 105.625C327.729 107.172 326.773 108.076 324.886 108.114C322.177 108.168 319.463 108.179 316.758 108.108C314.71 108.054 313.87 107.149 313.862 105.1C313.84 99.0786 313.836 93.056 313.867 87.0345C313.877 84.7376 314.738 83.8927 316.976 83.871C319.562 83.8463 322.151 83.8728 324.736 83.8662C326.26 83.8619 327.228 84.5328 327.356 86.0987C327.471 87.5327 326.468 88.5197 324.772 88.5829C322.935 88.6517 321.095 88.5987 319.062 88.5987Z" fill="black"/>
<path d="M207.064 88.6018C207.064 93.8691 207.068 98.8949 207.063 103.92C207.063 104.657 207.105 105.402 207.01 106.13C206.833 107.471 206.021 108.194 204.652 108.25C203.301 108.304 202.379 107.709 202.083 106.376C201.94 105.726 201.941 105.035 201.94 104.364C201.929 99.2081 201.933 94.0515 201.933 88.6041C200.748 88.6041 199.667 88.6414 198.589 88.5956C196.825 88.5204 195.914 87.667 195.942 86.1915C195.973 84.7225 196.904 83.8855 198.666 83.8739C202.607 83.8486 206.551 83.8703 210.493 83.8662C212.034 83.8637 212.956 84.5726 213.059 86.1403C213.156 87.6465 212.249 88.5096 210.493 88.5927C209.453 88.6414 208.407 88.6018 207.064 88.6018Z" fill="black"/>
</g>
<defs>
<clipPath id="clip0_2_113">
<rect width="400" height="110.885" fill="white" transform="translate(0 0.769958)"/>
</clipPath>
</defs>
</svg>
