<svg width="400" height="112" viewBox="0 0 400 112" fill="none" xmlns="http://www.w3.org/2000/svg">
<g clip-path="url(#clip0_2_136)">
<path d="M0 32.8638C1.33099 27.4392 5.03187 24.2244 9.77285 21.5937C20.743 15.508 31.5541 9.13779 42.4092 2.84778C47.4465 -0.0700435 52.4104 -0.0646449 57.4482 2.8521C69.1038 9.60217 80.7815 16.312 92.4545 23.0302C97.4292 25.8933 99.8731 30.1476 99.8544 35.9034C99.8099 49.3627 99.8093 62.822 99.8544 76.2812C99.8743 82.119 97.3534 86.3655 92.3088 89.257C80.6768 95.9239 69.0604 102.616 57.4598 109.339C52.4237 112.257 47.4537 112.284 42.4214 109.356C36.3096 105.799 30.1677 102.291 24.041 98.7563C23.5194 98.4552 23.0202 98.1149 22.4806 97.771C24.8378 95.942 26.0994 93.6944 26.8245 90.868C27.5322 88.1096 28.9776 85.538 30.1261 82.8965C32.5165 77.3996 35.735 72.4003 39.4087 67.6834C41.171 65.4201 41.9269 65.178 44.0859 66.9915C46.6166 69.118 48.9389 71.5089 51.2299 73.8999C53.9955 76.7847 56.7262 79.7122 59.2966 82.7682C61.0883 84.8971 62.9337 87.061 63.2889 90.0544C63.3461 90.5379 64.2465 90.9859 64.8289 91.3293C65.7462 91.8689 66.7098 92.3374 67.6807 92.7772C68.7334 93.2529 69.8199 94.0027 70.8859 93.9936C71.7832 93.9847 72.9709 93.2457 73.452 92.4711C73.7376 92.0135 73.1209 90.6234 72.5216 90.0681C71.1454 88.7932 69.5319 87.773 67.9638 86.6106C68.4201 85.8686 68.7135 85.3422 69.0538 84.8484C69.9234 83.5878 69.5549 82.6615 68.4968 81.648C66.6129 79.8442 64.8193 77.9375 63.0848 75.9885C61.2202 73.8939 59.7428 71.4788 57.0038 70.2135C56.107 69.7992 55.5632 68.4771 55.0163 67.4847C52.8019 63.47 50.883 59.2728 48.4204 55.419C44.6381 49.4993 45.9403 43.5761 47.7121 37.5434C47.7471 37.4272 47.7633 37.2681 47.8464 37.2092C50.161 35.548 52.3646 33.684 54.8423 32.3146C56.7268 31.2727 58.9587 30.857 61.0395 30.1729C61.8356 29.9116 62.6384 29.4899 63.4437 29.475C64.841 29.4501 66.2436 29.6851 67.5307 29.8014C67.4561 29.561 67.2994 29.0564 67.1428 28.5528C67.3114 28.4679 67.4801 28.3835 67.6488 28.2994C67.27 28.0493 66.891 27.8 66.4767 27.5272C66.7706 27.3544 67.0688 27.1791 67.7481 26.7798C66.7845 26.5841 66.2303 26.4714 65.6764 26.3595C65.5601 26.2588 65.4439 26.1595 65.327 26.0601C65.8401 25.9071 66.3526 25.7536 66.8663 25.6006C66.726 25.382 66.587 25.1646 66.4477 24.9471C65.5728 25.0923 64.4177 25.6379 63.8984 25.2753C63.3113 24.8658 63.2956 23.6409 62.6627 22.791C62.5916 23.1566 62.5265 23.524 62.45 23.8889C61.8514 26.7906 61.0372 27.865 58.2131 27.5175C54.8905 27.1093 52.6506 29.0581 50.0567 30.2513C48.801 30.8282 47.7513 31.3768 46.251 31.1005C45.2797 30.9215 44.1553 31.5057 43.1127 31.7954C42.2666 32.0303 41.4396 32.3356 40.3104 32.7061C40.37 31.6057 40.158 30.7366 40.4911 30.2096C41.837 28.0807 40.8096 26.2269 39.7834 24.5622C38.2296 22.043 34.687 22.3712 33.582 25.1122C32.7906 27.0761 32.7616 29.1275 34.2162 30.9716C34.6437 31.5129 34.8244 32.2471 35.2508 33.183C34.1739 33.183 33.408 33.1305 32.652 33.1939C31.1494 33.3197 29.6443 33.6871 28.1543 33.6262C26.4337 33.5551 24.6209 33.4016 23.0449 32.7855C21.3272 32.1147 19.7613 31.8768 18.0527 32.4935C17.9949 32.5144 17.9305 32.5163 17.8726 32.5362C15.5629 33.3095 13.5478 33.1241 12.1536 30.827C11.8808 30.3777 11.5435 29.9676 10.8111 29.6574C10.9491 30.3868 11.0876 31.1154 11.2538 31.9935C10.3317 31.7574 9.46329 31.5365 8.59604 31.3142C8.4786 31.5015 8.36236 31.6888 8.24553 31.8761C8.61892 32.182 8.99292 32.4881 9.31091 32.7476C9.06881 32.8337 8.69963 32.9643 7.98776 33.2167C8.81887 33.6142 9.33622 33.8618 9.98424 34.1719C9.46028 34.4454 9.0128 34.6785 8.5882 34.8994C8.81526 35.4427 9.03087 35.9571 9.28743 36.5695C11.8976 35.6914 14.5518 35.7323 17.2336 36.7466C18.1068 37.0766 19.218 37.1729 20.1172 36.9537C21.7644 36.5533 23.0876 37.0164 24.4998 37.7536C25.84 38.4528 27.325 38.8707 28.7192 39.4717C29.1687 39.6663 29.6323 39.9777 29.9232 40.3613C32.4431 43.687 32.5281 47.6046 32.8304 51.5525C33.1916 56.2748 31.7951 60.5792 30.4201 64.9347C29.6287 67.4389 29.0475 70.0334 27.9918 72.4207C27.2589 74.08 25.7231 75.3689 24.8306 76.9799C23.6483 79.1113 22.7906 81.4179 21.7018 83.6042C21.1881 84.6364 20.5913 85.6867 19.8023 86.5087C18.2521 88.1228 18.6206 89.5345 19.9282 90.9969C20.1721 91.2696 20.3895 91.5665 20.7695 92.0405C19.9625 93.1114 19.1398 94.2027 18.1858 95.468C13.7321 92.8024 9.33501 90.3451 5.12943 87.5958C2.22595 85.6976 0.974454 82.5459 0 79.3347C0 63.8441 0 48.3539 0 32.8638Z" fill="#44C8F5"/>
<path d="M245.015 46.8104C243.09 52.8082 241.338 58.2749 239.581 63.7399C239.093 65.2593 238.654 66.7982 238.079 68.2832C236.998 71.0773 235.086 72.8665 231.946 73.117C228.645 73.3796 226.196 72.0782 224.611 69.2041C224.11 68.2948 223.688 67.3287 223.341 66.35C219.781 56.3489 216.235 46.3424 212.71 36.3281C212.263 35.0574 211.884 33.7504 211.613 32.432C210.959 29.2569 212.166 26.9696 214.961 25.8958C218.051 24.7092 221.23 25.5887 222.806 28.1343C223.219 28.8016 223.494 29.5731 223.725 30.3296C225.942 37.6079 228.136 44.8929 230.344 52.1753C230.552 52.8571 230.802 53.5256 231.183 54.6422C233.571 47.029 235.806 39.8995 238.042 32.7694C238.335 31.8329 238.592 30.8836 238.922 29.9598C240.051 26.8076 241.967 25.4157 245.106 25.432C248.168 25.4482 250.068 26.751 251.096 29.9218C253.558 37.5085 255.911 45.1318 258.309 52.739C258.474 53.257 258.662 53.767 258.965 54.6506C260.692 48.9647 262.311 43.6425 263.922 38.3179C264.724 35.6752 265.496 33.0241 266.303 30.3838C267.544 26.3239 270.708 24.5376 274.521 25.723C277.94 26.7877 279.493 30.0362 278.167 33.9257C275.54 41.652 272.775 49.3326 270.052 57.0265C268.763 60.6707 267.536 64.3415 266.099 67.9286C264.88 70.9753 262.774 73.0689 259.197 73.1369C255.405 73.2086 253.04 71.5156 251.736 67.5461C249.724 61.426 247.795 55.2775 245.828 49.1429C245.629 48.5244 245.401 47.9168 245.015 46.8104Z" fill="#44C8F5"/>
<path d="M127.197 29.1033C132.764 24.484 138.816 23.9035 145.149 25.8602C151.62 27.8591 155.489 32.4971 155.934 39.1634C156.445 46.8122 156.204 54.512 156.253 62.1903C156.266 64.0284 156.278 65.8874 156.036 67.7034C155.597 71.0085 153.228 73.0706 150.075 73.1338C146.76 73.1989 144.378 71.2495 143.756 67.8913C143.589 66.992 143.535 66.0615 143.533 65.1455C143.515 58.6935 143.524 52.2416 143.523 45.7895C143.522 45.1138 143.523 44.4374 143.499 43.7624C143.312 38.5028 140.212 35.4005 135.193 35.4422C130.444 35.4813 127.273 38.7943 127.215 43.952C127.148 49.9113 127.198 55.8731 127.196 61.8332C127.196 63.3694 127.222 64.9058 127.18 66.4416C127.066 70.4978 124.557 73.1411 120.86 73.1357C117.157 73.1315 114.597 70.4875 114.583 66.4241C114.539 53.7044 114.562 40.9835 114.562 28.2638C114.562 22.6719 114.499 17.0792 114.598 11.4897C114.674 7.16542 117.928 4.49752 122.069 5.16111C125.061 5.6406 127.122 8.18084 127.167 11.6811C127.234 16.8432 127.192 22.0051 127.197 27.1665C127.198 27.714 127.197 28.2609 127.197 29.1033Z" fill="#44C8F5"/>
<path d="M314.517 44.9669C314.203 39.1514 309.758 35.1784 303.956 35.4511C299.013 35.683 294.685 40.1639 294.812 44.9669C301.38 44.9669 307.948 44.9669 314.517 44.9669ZM295.051 53.5159C295.244 57.9738 298.95 61.5416 303.916 62.3855C307.47 62.9895 310.762 62.3138 313.913 60.7003C315.607 59.8318 317.251 58.8531 318.984 58.0702C321.33 57.0102 323.444 57.6113 325.057 59.6277C326.634 61.5958 326.784 63.9055 325.233 65.8953C324.377 66.992 323.343 68.0526 322.171 68.7832C314.968 73.2724 307.186 74.9593 298.865 72.8099C288.241 70.066 281.594 60.5925 281.893 48.9689C282.162 38.6106 288.031 29.6628 296.764 26.2974C309.434 21.4174 323.726 29.4666 326.785 43.2475C327.129 44.794 327.32 46.4057 327.325 47.9878C327.337 51.8139 325.634 53.4894 321.785 53.5039C313.538 53.5352 305.288 53.5153 297.04 53.5159C296.378 53.5159 295.717 53.5159 295.051 53.5159Z" fill="#44C8F5"/>
<path d="M196.519 49.4398C196.349 49.3868 196.179 49.3338 196.008 49.2813C196.024 46.2713 195.364 43.4341 193.753 40.8654C190.051 34.9603 181.879 34.9061 178.324 40.9076C175.18 46.2129 175.15 51.788 178.034 57.2414C179.71 60.4112 182.448 62.0986 186.141 62.0626C189.758 62.0263 192.508 60.3558 194.009 57.1993C195.165 54.765 195.705 52.0373 196.519 49.4398ZM163.299 50.454C163.489 41.6369 166.184 34.9175 172.27 29.8254C182.014 21.6714 196.585 23.6481 203.916 34.2918C210.072 43.2329 210.449 52.7974 205.395 62.339C200.928 70.7718 192.265 74.7456 182.353 73.4241C173.686 72.2684 166.337 65.2895 164.169 56.0285C163.669 53.8911 163.484 51.6784 163.299 50.454Z" fill="#44C8F5"/>
<path d="M348.537 73.7463C344.016 73.5507 339.547 72.5473 335.512 70.0985C334.322 69.3763 333.191 68.4519 332.273 67.4099C330.513 65.4116 330.439 63.3561 331.782 61.1356C333.124 58.9181 335.281 57.8082 337.723 58.4881C339.533 58.9923 341.266 59.8577 342.939 60.74C345.623 62.1552 348.37 62.9943 351.442 62.4499C352.983 62.1763 354.075 61.4939 354.374 59.8535C354.664 58.2761 353.905 57.177 352.619 56.5254C350.708 55.557 348.7 54.7746 346.744 53.8934C344.17 52.736 341.502 51.7386 339.055 50.3577C329.063 44.7248 331.565 32.4736 338.639 27.882C345.122 23.6745 356.27 23.9323 362.417 28.6215C365.302 30.8216 366.212 33.9244 364.787 36.7092C363.52 39.1882 361.05 40.1788 358.423 39.1737C356.187 38.3185 354.043 37.1839 351.756 36.5231C350.285 36.0985 348.548 35.9812 347.086 36.3461C346.132 36.5852 345.011 37.8392 344.796 38.8183C344.611 39.6723 345.328 41.1919 346.112 41.6911C348.005 42.8974 350.17 43.6864 352.229 44.6307C354.85 45.8335 357.582 46.8362 360.08 48.2522C369.601 53.6507 367.717 65.184 360.871 70.0811C357.223 72.6918 353.082 73.6023 348.537 73.7463Z" fill="#44C8F5"/>
<path d="M377.677 37.1146C371.024 36.5341 369.329 35.3674 369.312 31.5666C369.297 27.7735 371.084 26.4926 377.677 25.7344C377.677 24.5028 377.664 23.2362 377.68 21.9696C377.703 20.3128 377.639 18.6445 377.808 17.0009C378.131 13.8181 380.436 11.5987 383.435 11.409C386.815 11.1946 389.374 12.9635 390.023 16.271C390.373 18.0549 390.288 19.928 390.353 21.7624C390.398 23.0452 390.362 24.3304 390.362 25.912C391.778 25.912 393.105 25.8481 394.426 25.924C398.034 26.1306 399.998 28.1115 399.998 31.4624C399.998 34.6002 398.111 36.6876 394.949 36.9129C393.495 37.0176 392.027 36.9315 390.362 36.9315C390.362 37.8301 390.361 38.4866 390.361 39.1431C390.361 47.8656 390.373 56.588 390.347 65.3105C390.344 66.3446 390.257 67.4052 390.015 68.4073C389.268 71.5029 386.853 73.2484 383.648 73.1278C380.683 73.0165 378.336 70.9471 377.848 67.9207C377.69 66.9571 377.686 65.9622 377.684 64.9823C377.672 56.4436 377.677 47.9059 377.677 39.3683C377.677 38.6462 377.677 37.924 377.677 37.1146Z" fill="#44C8F5"/>
<path d="M295.973 93.2066C294.778 97.1869 293.594 101.173 292.379 105.149C291.671 107.464 289.978 108.728 288.013 107.996C286.976 107.611 285.774 106.46 285.504 105.431C283.887 99.2587 282.501 93.0271 281.079 86.8051C280.7 85.1435 281.388 84.0017 282.808 83.6469C284.392 83.2518 285.695 84.0227 286.078 85.7946C286.998 90.0532 287.823 94.3322 288.691 98.604C288.756 98.9274 288.851 99.2454 289.306 99.5857C290.079 97.0411 290.86 94.4985 291.623 91.9502C292.186 90.0694 292.74 88.1855 293.268 86.2945C293.702 84.749 294.459 83.5193 296.258 83.5644C297.946 83.6071 298.649 84.7912 299.079 86.2698C300.274 90.3947 301.517 94.5057 302.75 98.6203C302.868 99.0135 303.04 99.3882 303.359 100.215C304.338 95.3398 305.205 90.9186 306.133 86.51C306.292 85.7524 306.517 84.6943 307.054 84.401C307.914 83.9312 309.163 83.6384 310.066 83.8968C311.519 84.3117 311.508 85.7555 311.23 87.0057C310.362 90.8999 309.437 94.7797 308.529 98.6642C308.011 100.875 307.479 103.082 306.96 105.292C306.546 107.057 305.516 108.109 303.626 108.135C301.773 108.157 300.635 107.207 300.106 105.473C298.857 101.368 297.612 97.264 296.364 93.1614C296.233 93.1759 296.104 93.1909 295.973 93.2066Z" fill="#44C8F5"/>
<path d="M226.425 91.7726C227.589 91.0553 229.006 90.4615 228.685 88.842C228.565 88.235 227.573 87.4268 226.938 87.3893C226.21 87.3454 225.026 87.879 224.767 88.4752C224.12 89.9712 225.348 90.868 226.425 91.7726ZM229.203 101.863C227.752 100.249 226.335 98.6444 224.875 97.0785C224.675 96.8635 224.223 96.6948 223.953 96.7623C222.65 97.0936 221.309 99.4032 221.452 100.949C221.607 102.603 222.704 103.653 224.514 103.815C226.347 103.979 227.869 103.339 229.203 101.863ZM221.514 93.6492C221.084 93.0843 220.663 92.6856 220.433 92.199C220.046 91.3793 219.625 90.5259 219.493 89.646C219.147 87.3756 220.22 85.4917 222.331 84.342C225.2 82.7803 229.391 83.0862 231.741 85.0677C233.358 86.4306 234.103 88.2723 233.207 90.1645C232.404 91.8623 230.999 93.2771 229.658 95.0868C229.855 95.3127 230.392 95.9312 230.937 96.5425C231.506 97.1809 232.084 97.812 232.715 98.5089C233.452 97.7259 234.098 96.9882 234.803 96.3124C235.688 95.4644 236.918 94.9935 237.717 95.9841C238.253 96.6509 238.332 98.0439 238.04 98.9202C237.693 99.9621 236.728 100.796 235.947 101.834C236.682 102.683 237.453 103.546 238.191 104.436C239.107 105.541 239.194 106.7 238.1 107.704C237.041 108.676 235.86 108.653 234.795 107.665C233.987 106.915 233.249 106.093 232.741 105.574C230.365 106.545 228.265 107.82 226.007 108.241C220.273 109.313 215.782 105.123 216.642 99.7826C217.1 96.9418 219.104 95.2242 221.514 93.6492Z" fill="#44C8F5"/>
<path d="M376.338 93.4348C376.338 97.2417 376.349 101.047 376.335 104.854C376.326 107.154 375.549 108.131 373.78 108.137C372.015 108.144 371.203 107.148 371.196 104.872C371.182 98.8509 371.196 92.8313 371.19 86.8111C371.189 85.4488 371.372 84.1824 372.912 83.712C374.46 83.2385 375.483 84.0475 376.354 85.2134C379.295 89.1534 382.249 93.0825 385.205 97.011C385.597 97.532 386.018 98.0289 386.754 98.9473C386.754 95.1199 386.753 91.7774 386.754 88.4349C386.754 87.6363 386.713 86.8335 386.781 86.0402C386.915 84.4516 387.811 83.5139 389.419 83.5686C391.021 83.6229 391.873 84.5852 391.878 86.2035C391.89 91.3022 391.889 96.4009 391.892 101.5C391.892 102.79 392.089 104.122 391.822 105.355C391.616 106.308 391.002 107.611 390.25 107.887C389.457 108.177 388.104 107.669 387.323 107.078C386.377 106.361 385.769 105.197 385.025 104.22C382.246 100.57 379.471 96.9177 376.696 93.2679C376.576 93.3235 376.457 93.3794 376.338 93.4348Z" fill="#44C8F5"/>
<path d="M250.771 93.3324C252.621 93.2006 254.588 93.9605 255.634 92.0737C256.025 91.3654 256.024 89.9983 255.581 89.3588C254.423 87.6844 252.545 88.2777 250.771 88.3108C250.771 89.9942 250.771 91.5577 250.771 93.3324ZM250.742 103.401C252.319 103.401 253.719 103.461 255.113 103.384C256.739 103.296 257.737 102.406 257.838 100.745C257.936 99.1238 256.998 98.1686 255.483 98.0126C253.939 97.8524 252.368 97.9759 250.742 97.9759C250.742 99.7706 250.742 101.459 250.742 103.401ZM258.434 94.6815C262.695 96.731 263.993 99.2183 262.871 103.049C262.081 105.753 260.197 107.413 257.485 107.695C254.377 108.016 251.221 107.989 248.088 107.946C246.421 107.924 245.544 106.828 245.541 105.151C245.53 98.9443 245.512 92.7381 245.553 86.5318C245.567 84.6207 246.488 83.7951 248.467 83.7595C250.561 83.7222 252.655 83.7282 254.75 83.7578C257.724 83.7999 260.02 85.288 260.86 87.6676C261.781 90.282 260.993 92.6357 258.434 94.6815Z" fill="#44C8F5"/>
<path d="M346.63 98.2981C345.557 98.2981 344.468 98.336 343.381 98.289C341.821 98.2198 340.967 97.3314 341.038 95.8065C341.105 94.3472 342.046 93.6445 343.503 93.6445C345.412 93.6456 347.32 93.6065 349.224 93.6577C351.269 93.7137 352.043 94.5237 352.197 96.6136C352.717 103.672 346.614 109.327 339.598 108.288C334.527 107.539 330.941 104.274 329.767 99.34C328.469 93.8871 330.27 88.338 334.272 85.4561C338.011 82.7652 344.282 82.6346 348.253 85.1827C348.714 85.4784 349.155 85.832 349.533 86.227C350.535 87.2774 350.874 88.5036 349.917 89.7069C348.976 90.8921 347.771 90.5723 346.577 89.9929C345.267 89.3557 343.976 88.4632 342.586 88.235C337.518 87.4013 334.072 91.2674 334.719 96.8466C335.256 101.474 337.911 104.03 341.782 103.645C344.838 103.341 346.767 101.324 346.63 98.2981Z" fill="#44C8F5"/>
<path d="M171.03 96.2594C170.634 94.5971 170.476 93.1687 169.951 91.8901C168.962 89.4767 167.121 88.0951 164.4 88.088C161.69 88.0802 159.826 89.3979 158.797 91.8202C157.561 94.7387 157.592 97.7127 159.083 100.528C161.238 104.606 167.064 104.831 169.386 100.882C170.225 99.452 170.532 97.7097 171.03 96.2594ZM176.048 95.8305C176.073 105.549 166.986 111.402 158.742 106.98C153.381 104.104 151.119 96.7701 153.666 90.5253C155.944 84.9442 161.701 82.1509 167.575 83.7794C172.652 85.1869 176.035 89.9971 176.048 95.8305Z" fill="#44C8F5"/>
<path d="M184.106 94.5068C186.375 94.2015 188.871 95.3367 190.177 92.9469C190.648 92.0875 190.524 90.335 189.924 89.5755C188.4 87.6423 186.118 88.7607 184.106 88.4745C184.106 90.6108 184.106 92.432 184.106 94.5068ZM189.818 97.9807C191.722 100.028 193.447 101.854 195.142 103.71C196.406 105.098 196.411 106.53 195.21 107.558C194.072 108.53 192.504 108.314 191.329 106.957C190.125 105.564 188.972 104.125 187.798 102.705C186.674 101.346 185.55 99.9832 184.018 98.7004C184.018 100.801 184.152 102.913 183.959 104.997C183.868 105.979 183.398 107.234 182.663 107.784C181.075 108.971 178.945 107.723 178.925 105.647C178.861 99.2044 178.895 92.7621 178.902 86.3185C178.904 84.8948 179.59 83.8487 181.044 83.8167C183.99 83.7534 186.972 83.6312 189.88 83.9974C193.657 84.4731 195.657 86.8094 195.927 90.3236C196.221 94.1352 194.73 96.2943 190.894 97.6115C190.612 97.7078 190.331 97.806 189.818 97.9807Z" fill="#44C8F5"/>
<path d="M122.84 83.0808C124.474 83.5512 126.165 83.8855 127.725 84.5341C129.115 85.111 129.802 86.2945 129.098 87.8417C128.442 89.2817 127.293 89.4792 125.859 89.0486C124.693 88.6981 123.436 88.1964 122.299 88.3475C121.407 88.4656 120.242 89.3184 119.901 90.1363C119.392 91.354 120.643 91.9009 121.645 92.2635C123.317 92.8686 125.031 93.3626 126.689 94.0009C129.413 95.0507 130.976 97.0472 131.118 99.985C131.257 102.894 130.199 105.349 127.662 106.872C123.721 109.236 119.642 108.749 115.661 106.93C114.25 106.286 113.77 104.949 114.37 103.506C114.988 102.017 116.307 101.987 117.66 102.359C118.429 102.57 119.168 102.934 119.947 103.058C121.025 103.229 122.143 103.386 123.218 103.284C124.597 103.151 125.61 102.168 125.482 100.84C125.402 100.019 124.552 99.0569 123.785 98.5739C122.83 97.9717 121.612 97.7711 120.494 97.4405C115.567 95.9793 113.761 93.8173 114.279 89.9718C114.807 86.0409 118.268 83.3458 122.84 83.0808Z" fill="#44C8F5"/>
<path d="M139.154 95.5325C141.557 95.2735 144.052 96.2191 145.547 93.7498C146.37 92.3905 146.325 90.8583 145.314 89.5996C143.643 87.5188 141.346 88.3446 139.154 88.2982C139.154 90.747 139.154 92.988 139.154 95.5325ZM139.059 99.941C139.059 101.898 139.086 103.606 139.051 105.311C139.013 107.199 138.219 108.094 136.631 108.139C135.032 108.184 134.002 107.308 133.983 105.504C133.921 99.1171 133.931 92.7271 133.986 86.3396C134.001 84.6779 134.98 83.7528 136.71 83.7553C138.926 83.7584 141.146 83.6902 143.359 83.7848C148.029 83.9824 151.298 87.2713 151.377 91.7448C151.455 96.2293 148.307 99.5797 143.606 99.9242C142.199 100.028 140.779 99.941 139.059 99.941Z" fill="#44C8F5"/>
<path d="M360.151 88.4915C360.151 90.22 360.151 91.6733 360.151 93.3776C361.847 93.3776 363.484 93.3564 365.123 93.3823C367.098 93.4138 368.213 94.3238 368.165 95.8144C368.121 97.2369 367.04 98.0933 365.182 98.1234C363.583 98.1505 361.983 98.1294 360.234 98.1294C360.234 99.8103 360.234 101.424 360.234 103.284C362.114 103.284 363.998 103.267 365.883 103.288C367.791 103.308 368.793 104.121 368.801 105.6C368.81 107.065 367.781 107.972 365.916 108.002C363.27 108.047 360.62 108.059 357.974 107.999C355.822 107.951 354.961 107.061 354.952 104.913C354.926 98.9533 354.923 92.9952 354.952 87.037C354.965 84.5871 355.851 83.7655 358.335 83.7528C360.737 83.7402 363.139 83.7348 365.54 83.7553C367.465 83.771 368.466 84.5569 368.506 86.0313C368.548 87.5254 367.436 88.4505 365.473 88.4849C363.76 88.5143 362.044 88.4915 360.151 88.4915Z" fill="#44C8F5"/>
<path d="M271.025 88.4868C271.025 90.1597 271.025 91.616 271.025 93.3764C272.63 93.3764 274.263 93.3602 275.897 93.3807C277.891 93.4078 279.004 94.2828 278.992 95.7674C278.979 97.2399 277.849 98.1042 275.863 98.127C274.28 98.1445 272.695 98.1312 271.025 98.1312C271.025 99.8947 271.025 101.465 271.025 103.284C272.957 103.284 274.844 103.267 276.731 103.29C278.665 103.312 279.621 104.097 279.581 105.632C279.537 107.361 278.417 107.978 276.889 108.001C274.178 108.041 271.469 108.061 268.76 107.997C266.628 107.946 265.806 107.043 265.8 104.865C265.783 98.9654 265.78 93.0663 265.8 87.1684C265.809 84.5426 266.61 83.7644 269.221 83.7524C271.684 83.7408 274.147 83.7259 276.611 83.7607C278.35 83.7854 279.374 84.6684 279.302 86.0993C279.218 87.7687 278.156 88.4572 276.594 88.4806C274.812 88.5071 273.026 88.4868 271.025 88.4868Z" fill="#44C8F5"/>
<path d="M319.062 88.4836C319.062 90.2086 319.062 91.6648 319.062 93.3775C320.748 93.3775 322.387 93.3564 324.022 93.3823C325.991 93.4138 327.109 94.3382 327.047 95.8318C326.989 97.2537 325.911 98.089 324.044 98.127C322.505 98.1583 320.967 98.1601 319.426 98.1782C319.372 98.1782 319.318 98.2197 319.13 98.2998C319.13 99.8537 319.13 101.465 319.13 103.284C321.068 103.284 322.962 103.3 324.855 103.279C326.414 103.261 327.527 103.782 327.632 105.51C327.729 107.057 326.773 107.961 324.886 107.999C322.177 108.053 319.463 108.064 316.758 107.993C314.71 107.939 313.87 107.034 313.862 104.985C313.84 98.9635 313.836 92.9409 313.867 86.9195C313.877 84.6225 314.738 83.7776 316.976 83.7559C319.562 83.7312 322.151 83.7578 324.736 83.7511C326.26 83.7468 327.228 84.4178 327.356 85.9836C327.471 87.4176 326.468 88.4047 324.772 88.4679C322.935 88.5367 321.095 88.4836 319.062 88.4836Z" fill="#44C8F5"/>
<path d="M207.064 88.4867C207.064 93.7541 207.068 98.7798 207.063 103.804C207.063 104.542 207.105 105.287 207.01 106.015C206.833 107.356 206.021 108.079 204.652 108.135C203.301 108.189 202.379 107.594 202.083 106.26C201.94 105.611 201.941 104.92 201.94 104.249C201.929 99.093 201.933 93.9365 201.933 88.489C200.748 88.489 199.667 88.5263 198.589 88.4805C196.825 88.4053 195.914 87.5519 195.942 86.0764C195.973 84.6074 196.904 83.7704 198.666 83.7588C202.607 83.7336 206.551 83.7553 210.493 83.7511C212.034 83.7487 212.956 84.4576 213.059 86.0253C213.156 87.5314 212.249 88.3945 210.493 88.4776C209.453 88.5263 208.407 88.4867 207.064 88.4867Z" fill="#44C8F5"/>
</g>
<defs>
<clipPath id="clip0_2_136">
<rect width="400" height="110.885" fill="white" transform="translate(0 0.654938)"/>
</clipPath>
</defs>
</svg>
