<svg width="400" height="123" viewBox="0 0 400 123" fill="none" xmlns="http://www.w3.org/2000/svg">
<g clip-path="url(#clip0_4_132)">
<path d="M73.7362 92.8238L54.9716 103.176L36.207 92.8238V114.453L47.4511 120.942C52.1053 123.628 57.8379 123.628 62.4921 120.942L73.7362 114.453V92.8238Z" fill="#44C8F5"/>
<path d="M102.423 25.7729L62.492 2.73137C57.8379 0.0456788 52.1052 0.0456788 47.4511 2.73137L7.52049 25.7729C2.86836 28.4585 0 33.4217 0 38.7931V84.8802C0 90.2494 2.86836 95.2127 7.52049 97.8983L14.472 101.91V41.3363C14.472 38.8422 17.1737 37.2838 19.3342 38.5316L54.999 58.6132L90.609 38.5316C92.7694 37.2838 95.4711 38.8422 95.4711 41.3363V101.91L102.423 97.8983C107.077 95.2127 109.943 90.2494 109.943 84.8802V38.7931C109.943 33.4217 107.077 28.4585 102.423 25.7729Z" fill="#44C8F5"/>
<path d="M125.602 12.6003C125.602 8.54477 128.137 5.84106 131.687 5.84106C135.238 5.84106 137.774 8.54477 137.774 12.6003V29.1604H137.943C140.479 26.0344 145.212 24.9359 149.016 24.9359C158.568 24.9359 165.669 31.019 165.669 41.3271V64.6464C165.669 68.7015 163.133 71.4052 159.583 71.4052C156.032 71.4052 153.496 68.7015 153.496 64.6464V43.4396C153.496 37.7788 149.946 35.0751 145.55 35.0751C140.563 35.0751 137.774 38.7078 137.774 43.4396V64.6464C137.774 68.7015 135.238 71.4052 131.687 71.4052C128.137 71.4052 125.602 68.7015 125.602 64.6464V12.6003Z" fill="#44C8F5"/>
<path d="M216.138 48.5086C216.138 61.1826 207.431 71.9119 194.328 71.9119C181.226 71.9119 172.52 61.1826 172.52 48.5086C172.52 36.173 181.48 24.9359 194.328 24.9359C207.177 24.9359 216.138 36.173 216.138 48.5086ZM184.692 48.5086C184.692 54.3388 187.735 60.7598 194.328 60.7598C200.922 60.7598 203.965 54.3388 203.965 48.5086C203.965 42.6789 201.006 36.0886 194.328 36.0886C187.65 36.0886 184.692 42.6789 184.692 48.5086Z" fill="#44C8F5"/>
<path d="M220.024 36.0886C219.179 33.6383 218.756 32.1175 218.756 30.3433C218.756 27.6396 221.292 25.4427 224.842 25.4427C227.801 25.4427 229.914 27.3863 230.59 30.2589L237.606 53.4942H237.775L244.876 30.7656C245.805 27.4707 247.496 25.4427 251.046 25.4427C254.597 25.4427 256.287 27.4707 257.217 30.7656L264.318 53.4942H264.487L271.503 30.2589C272.179 27.3863 274.292 25.4427 277.25 25.4427C280.801 25.4427 283.337 27.6396 283.337 31.3574C283.337 32.7092 282.745 34.0611 282.153 35.9197L271.757 65.2371C270.489 68.7864 268.376 71.4052 264.403 71.4052C260.683 71.4052 258.485 69.2932 257.386 65.7449L251.131 46.1433H250.962L244.707 65.7449C243.608 69.2932 241.41 71.4052 237.69 71.4052C233.718 71.4052 231.604 68.7864 230.336 65.2371L220.024 36.0886Z" fill="#44C8F5"/>
<path d="M298.896 52.4797C299.742 58.4789 304.729 61.2665 310.393 61.2665C316.648 61.2665 320.959 56.3669 324.171 56.3669C326.792 56.3669 329.159 58.9856 329.159 61.6054C329.159 66.8434 318.339 71.9119 309.294 71.9119C295.6 71.9119 286.47 61.9432 286.47 48.5086C286.47 36.173 295.431 24.9359 308.279 24.9359C321.466 24.9359 330.173 36.9337 330.173 47.0723C330.173 50.7056 328.567 52.4797 324.847 52.4797H298.896ZM318 44.3686C317.324 39.0457 313.943 35.0751 308.279 35.0751C302.869 35.0751 299.235 39.2151 298.643 44.3686H318Z" fill="#44C8F5"/>
<path d="M361.791 39.1301C359.508 39.1301 354.859 35.5818 350.886 35.5818C348.688 35.5818 346.744 36.5958 346.744 38.9612C346.744 44.6225 367.876 43.7774 367.876 57.6342C367.876 65.7449 361.03 71.9119 350.548 71.9119C343.701 71.9119 333.557 68.0258 333.557 62.5339C333.557 60.6758 335.417 57.1265 338.798 57.1265C343.532 57.1265 345.645 61.2665 351.393 61.2665C355.113 61.2665 356.212 60.0841 356.212 57.8032C356.212 52.2268 335.079 53.0714 335.079 39.1301C335.079 30.6812 341.926 24.9359 351.562 24.9359C357.564 24.9359 366.777 27.7241 366.777 33.7227C366.777 36.5114 364.665 39.1301 361.791 39.1301Z" fill="#44C8F5"/>
<path d="M378.529 36.5958H375.824C372.528 36.5958 370.499 34.5678 370.499 31.2729C370.499 28.2309 372.781 25.9499 375.824 25.9499H378.529V18.6834C378.529 14.6279 381.065 11.9242 384.616 11.9242C388.166 11.9242 390.702 14.6279 390.702 18.6834V25.9499H394.168C397.295 25.9499 400 27.3863 400 31.2729C400 35.0751 397.295 36.5958 394.168 36.5958H390.702V64.6464C390.702 68.7015 388.166 71.4052 384.616 71.4052C381.065 71.4052 378.529 68.7015 378.529 64.6464V36.5958Z" fill="#44C8F5"/>
<path d="M133.601 102.336C135.342 102.336 138.73 102.908 138.73 105.007C138.73 105.865 138.134 106.605 137.251 106.605C136.273 106.605 135.604 105.77 133.601 105.77C130.642 105.77 129.115 108.274 129.115 111.183C129.115 114.021 130.666 116.454 133.601 116.454C135.604 116.454 136.416 115.452 137.394 115.452C138.468 115.452 138.968 116.525 138.968 117.074C138.968 119.363 135.366 119.887 133.601 119.887C128.757 119.887 125.393 116.048 125.393 111.112C125.393 106.152 128.733 102.336 133.601 102.336Z" fill="#44C8F5"/>
<path d="M141.119 104.482C141.119 103.338 141.763 102.622 142.956 102.622H147.154C150.829 102.622 153.096 104.267 153.096 108.012C153.096 110.635 151.116 112.137 148.681 112.518L152.738 116.859C153.072 117.217 153.215 117.574 153.215 117.908C153.215 118.838 152.475 119.744 151.425 119.744C150.996 119.744 150.423 119.577 150.042 119.124L144.745 112.709H144.698V117.884C144.698 119.076 143.934 119.744 142.908 119.744C141.882 119.744 141.119 119.076 141.119 117.884V104.482ZM144.698 110.134H147.154C148.467 110.134 149.374 109.347 149.374 108.012C149.374 106.652 148.467 105.913 147.154 105.913H144.698V110.134Z" fill="#44C8F5"/>
<path d="M155.03 104.697C155.03 103.504 155.626 102.622 156.891 102.622H162.807C163.953 102.622 164.501 103.433 164.501 104.267C164.501 105.078 163.929 105.913 162.807 105.913H158.609V109.395H162.521C163.69 109.395 164.262 110.206 164.262 111.04C164.262 111.851 163.666 112.685 162.521 112.685H158.609V116.311H163.022C164.167 116.311 164.716 117.121 164.716 117.956C164.716 118.766 164.143 119.601 163.022 119.601H156.867C155.817 119.601 155.03 118.886 155.03 117.813V104.697Z" fill="#44C8F5"/>
<path d="M170.492 104.315C170.898 103.218 171.828 102.336 173.045 102.336C174.309 102.336 175.192 103.171 175.598 104.315L180.274 117.288C180.417 117.67 180.465 118.003 180.465 118.17C180.465 119.1 179.701 119.744 178.819 119.744C177.816 119.744 177.316 119.219 177.077 118.504L176.361 116.263H169.729L169.013 118.48C168.774 119.219 168.274 119.744 167.295 119.744C166.341 119.744 165.53 119.029 165.53 118.075C165.53 117.693 165.649 117.407 165.697 117.288L170.492 104.315ZM170.754 112.971H175.288L173.069 106.056H173.021L170.754 112.971Z" fill="#44C8F5"/>
<path d="M182.733 105.913H180.132C178.988 105.913 178.51 105.078 178.51 104.267C178.51 103.433 179.107 102.622 180.132 102.622H188.912C189.938 102.622 190.534 103.433 190.534 104.267C190.534 105.078 190.057 105.913 188.912 105.913H186.312V117.884C186.312 119.076 185.548 119.744 184.522 119.744C183.496 119.744 182.733 119.076 182.733 117.884V105.913Z" fill="#44C8F5"/>
<path d="M191.802 104.339C191.802 103.147 192.565 102.479 193.591 102.479C194.617 102.479 195.381 103.147 195.381 104.339V117.884C195.381 119.076 194.617 119.744 193.591 119.744C192.565 119.744 191.802 119.076 191.802 117.884V104.339Z" fill="#44C8F5"/>
<path d="M197.28 105.078C197.16 104.768 197.113 104.53 197.113 104.196C197.113 103.195 197.996 102.479 198.95 102.479C199.761 102.479 200.262 103.004 200.572 103.648L204.27 113.568L207.968 103.648C208.278 103.004 208.779 102.479 209.59 102.479C210.545 102.479 211.427 103.195 211.427 104.196C211.427 104.53 211.379 104.768 211.26 105.078L206.035 118.361C205.725 119.124 205.32 119.744 204.27 119.744C203.221 119.744 202.814 119.124 202.504 118.361L197.28 105.078Z" fill="#44C8F5"/>
<path d="M212.453 104.697C212.453 103.504 213.049 102.622 214.314 102.622H220.23C221.376 102.622 221.924 103.433 221.924 104.267C221.924 105.078 221.352 105.913 220.23 105.913H216.032V109.395H219.944C221.113 109.395 221.685 110.206 221.685 111.04C221.685 111.851 221.089 112.685 219.944 112.685H216.032V116.311H220.445C221.59 116.311 222.139 117.121 222.139 117.956C222.139 118.766 221.566 119.601 220.445 119.601H214.29C213.24 119.601 212.453 118.886 212.453 117.813V104.697Z" fill="#44C8F5"/>
<path d="M234.481 105.913H231.88C230.734 105.913 230.258 105.078 230.258 104.267C230.258 103.433 230.853 102.622 231.88 102.622H240.66C241.685 102.622 242.282 103.433 242.282 104.267C242.282 105.078 241.804 105.913 240.66 105.913H238.059V117.884C238.059 119.076 237.295 119.744 236.269 119.744C235.244 119.744 234.481 119.076 234.481 117.884V105.913Z" fill="#44C8F5"/>
<path d="M243.29 104.697C243.29 103.504 243.887 102.622 245.151 102.622H251.069C252.213 102.622 252.761 103.433 252.761 104.267C252.761 105.078 252.189 105.913 251.069 105.913H246.868V109.395H250.781C251.95 109.395 252.523 110.206 252.523 111.04C252.523 111.851 251.927 112.685 250.781 112.685H246.868V116.311H251.282C252.428 116.311 252.976 117.121 252.976 117.956C252.976 118.766 252.404 119.601 251.282 119.601H245.127C244.078 119.601 243.29 118.886 243.29 117.813V104.697Z" fill="#44C8F5"/>
<path d="M262.001 102.336C263.743 102.336 267.131 102.908 267.131 105.007C267.131 105.865 266.534 106.605 265.652 106.605C264.675 106.605 264.006 105.77 262.001 105.77C259.043 105.77 257.517 108.274 257.517 111.183C257.517 114.021 259.067 116.454 262.001 116.454C264.006 116.454 264.817 115.452 265.794 115.452C266.868 115.452 267.369 116.525 267.369 117.074C267.369 119.363 263.768 119.887 262.001 119.887C257.159 119.887 253.794 116.048 253.794 111.112C253.794 106.152 257.134 102.336 262.001 102.336Z" fill="#44C8F5"/>
<path d="M269.191 104.339C269.191 103.147 269.953 102.479 270.981 102.479C272.006 102.479 272.769 103.147 272.769 104.339V109.395H280.261V104.339C280.261 103.147 281.024 102.479 282.049 102.479C283.077 102.479 283.839 103.147 283.839 104.339V117.884C283.839 119.076 283.077 119.744 282.049 119.744C281.024 119.744 280.261 119.076 280.261 117.884V112.685H272.769V117.884C272.769 119.076 272.006 119.744 270.981 119.744C269.953 119.744 269.191 119.076 269.191 117.884V104.339Z" fill="#44C8F5"/>
<path d="M286.324 104.339C286.324 103.147 287.088 102.479 288.114 102.479C288.567 102.479 289.306 102.837 289.617 103.266L297.179 113.353H297.227V104.339C297.227 103.147 297.991 102.479 299.017 102.479C300.043 102.479 300.807 103.147 300.807 104.339V117.884C300.807 119.076 300.043 119.744 299.017 119.744C298.564 119.744 297.847 119.386 297.513 118.957L289.952 108.99H289.904V117.884C289.904 119.076 289.139 119.744 288.114 119.744C287.088 119.744 286.324 119.076 286.324 117.884V104.339Z" fill="#44C8F5"/>
<path d="M302.622 111.112C302.622 106.152 305.962 102.336 310.828 102.336C315.624 102.336 319.035 106.271 319.035 111.112C319.035 116.048 315.72 119.887 310.828 119.887C305.986 119.887 302.622 116.048 302.622 111.112ZM315.315 111.112C315.315 108.227 313.811 105.627 310.828 105.627C307.847 105.627 306.344 108.227 306.344 111.112C306.344 114.021 307.799 116.597 310.828 116.597C313.859 116.597 315.315 114.021 315.315 111.112Z" fill="#44C8F5"/>
<path d="M320.996 104.339C320.996 103.147 321.758 102.479 322.786 102.479C323.811 102.479 324.574 103.147 324.574 104.339V116.311H328.82C330.038 116.311 330.562 117.217 330.539 118.027C330.491 118.814 329.871 119.601 328.82 119.601H322.857C321.687 119.601 320.996 118.838 320.996 117.646V104.339Z" fill="#44C8F5"/>
<path d="M329.406 111.112C329.406 106.152 332.746 102.336 337.613 102.336C342.409 102.336 345.82 106.271 345.82 111.112C345.82 116.048 342.504 119.887 337.613 119.887C332.771 119.887 329.406 116.048 329.406 111.112ZM342.099 111.112C342.099 108.227 340.595 105.627 337.613 105.627C334.632 105.627 333.128 108.227 333.128 111.112C333.128 114.021 334.584 116.597 337.613 116.597C340.643 116.597 342.099 114.021 342.099 111.112Z" fill="#44C8F5"/>
<path d="M361.073 109.538C362.575 109.538 363.172 110.301 363.172 111.827C363.172 116.43 360.166 119.887 355.394 119.887C350.552 119.887 347.187 116.048 347.187 111.112C347.187 106.152 350.527 102.336 355.394 102.336C358.997 102.336 361.955 104.029 361.955 105.698C361.955 106.724 361.311 107.368 360.476 107.368C358.853 107.368 358.52 105.627 355.394 105.627C352.413 105.627 350.909 108.227 350.909 111.112C350.909 114.021 352.365 116.597 355.394 116.597C357.28 116.597 359.45 115.547 359.45 112.828H357.017C356.039 112.828 355.346 112.137 355.346 111.159C355.346 110.158 356.11 109.538 357.017 109.538H361.073Z" fill="#44C8F5"/>
<path d="M364.798 104.339C364.798 103.147 365.56 102.479 366.588 102.479C367.613 102.479 368.376 103.147 368.376 104.339V117.884C368.376 119.076 367.613 119.744 366.588 119.744C365.56 119.744 364.798 119.076 364.798 117.884V104.339Z" fill="#44C8F5"/>
<path d="M371.001 104.697C371.001 103.504 371.598 102.622 372.862 102.622H378.779C379.924 102.622 380.472 103.433 380.472 104.267C380.472 105.078 379.899 105.913 378.779 105.913H374.579V109.395H378.492C379.661 109.395 380.233 110.206 380.233 111.04C380.233 111.851 379.638 112.685 378.492 112.685H374.579V116.311H378.993C380.139 116.311 380.687 117.121 380.687 117.956C380.687 118.766 380.114 119.601 378.993 119.601H372.837C371.788 119.601 371.001 118.886 371.001 117.813V104.697Z" fill="#44C8F5"/>
<path d="M392.571 104.721C392.571 105.65 391.951 106.486 390.971 106.486C389.994 106.486 389.231 105.77 387.798 105.77C386.773 105.77 385.843 106.319 385.843 107.32C385.843 109.776 393.812 108.203 393.812 114.354C393.812 117.765 390.996 119.887 387.704 119.887C385.866 119.887 381.906 119.458 381.906 117.217C381.906 116.287 382.526 115.524 383.504 115.524C384.626 115.524 385.962 116.454 387.512 116.454C389.087 116.454 389.946 115.571 389.946 114.402C389.946 111.588 381.977 113.281 381.977 107.75C381.977 104.411 384.722 102.336 387.894 102.336C389.231 102.336 392.571 102.837 392.571 104.721Z" fill="#44C8F5"/>
<path d="M184.919 82.0626C185.062 81.2037 185.993 80.226 187.257 80.226C188.45 80.226 189.381 81.0848 189.643 81.9432L192.46 91.3882H192.507L195.322 81.9432C195.586 81.0848 196.515 80.226 197.709 80.226C198.973 80.226 199.904 81.2037 200.048 82.0626L202.266 95.3712C202.291 95.5139 202.291 95.6572 202.291 95.7766C202.291 96.8258 201.527 97.4939 200.572 97.4939C199.355 97.4939 198.878 96.9452 198.711 95.8242L197.303 86.117H197.256L194.392 96.1107C194.225 96.6825 193.772 97.4939 192.483 97.4939C191.195 97.4939 190.741 96.6825 190.574 96.1107L187.711 86.117H187.664L186.256 95.8242C186.089 96.9452 185.611 97.4939 184.395 97.4939C183.44 97.4939 182.676 96.8258 182.676 95.7766C182.676 95.6572 182.676 95.5139 182.7 95.3712L184.919 82.0626Z" fill="#44C8F5"/>
<path d="M203.653 82.0864C203.653 80.894 204.417 80.226 205.442 80.226C206.469 80.226 207.233 80.894 207.233 82.0864V90.4104C207.233 92.6043 208.641 94.3453 210.907 94.3453C213.078 94.3453 214.558 92.5092 214.558 90.4104V82.0864C214.558 80.894 215.321 80.226 216.347 80.226C217.374 80.226 218.138 80.894 218.138 82.0864V90.6012C218.138 94.608 214.844 97.6371 210.907 97.6371C206.922 97.6371 203.653 94.6556 203.653 90.6012V82.0864Z" fill="#44C8F5"/>
<path d="M220.383 82.0864C220.383 80.894 221.147 80.226 222.172 80.226C223.198 80.226 223.962 80.894 223.962 82.0864V94.0594H228.209C229.426 94.0594 229.951 94.9659 229.928 95.7766C229.879 96.5636 229.259 97.3506 228.209 97.3506H222.243C221.075 97.3506 220.383 96.5874 220.383 95.395V82.0864Z" fill="#44C8F5"/>
<path d="M231.002 83.6604H228.401C227.256 83.6604 226.778 82.8259 226.778 82.0151C226.778 81.18 227.376 80.3692 228.401 80.3692H237.183C238.208 80.3692 238.805 81.18 238.805 82.0151C238.805 82.8259 238.328 83.6604 237.183 83.6604H234.581V95.6334C234.581 96.8258 233.817 97.4939 232.791 97.4939C231.766 97.4939 231.002 96.8258 231.002 95.6334V83.6604Z" fill="#44C8F5"/>
<path d="M239.833 82.0864C239.833 80.894 240.596 80.226 241.622 80.226C242.648 80.226 243.412 80.894 243.412 82.0864V95.6334C243.412 96.8258 242.648 97.4939 241.622 97.4939C240.596 97.4939 239.833 96.8258 239.833 95.6334V82.0864Z" fill="#44C8F5"/>
<path d="M247.54 82.0626C247.683 81.2037 248.614 80.226 249.879 80.226C251.072 80.226 252.002 81.0848 252.265 81.9432L255.081 91.3882H255.129L257.944 81.9432C258.207 81.0848 259.137 80.226 260.331 80.226C261.595 80.226 262.525 81.2037 262.669 82.0626L264.888 95.3712C264.912 95.5139 264.912 95.6572 264.912 95.7766C264.912 96.8258 264.149 97.4939 263.194 97.4939C261.976 97.4939 261.499 96.9452 261.332 95.8242L259.925 86.117H259.877L257.013 96.1107C256.846 96.6825 256.393 97.4939 255.104 97.4939C253.816 97.4939 253.362 96.6825 253.195 96.1107L250.332 86.117H250.285L248.877 95.8242C248.71 96.9452 248.232 97.4939 247.016 97.4939C246.061 97.4939 245.297 96.8258 245.297 95.7766C245.297 95.6572 245.297 95.5139 245.322 95.3712L247.54 82.0626Z" fill="#44C8F5"/>
<path d="M266.8 82.4443C266.8 81.2519 267.397 80.3692 268.66 80.3692H274.578C275.724 80.3692 276.273 81.18 276.273 82.0151C276.273 82.8259 275.699 83.6604 274.578 83.6604H270.379V87.1424H274.292C275.462 87.1424 276.034 87.9537 276.034 88.7883C276.034 89.5991 275.437 90.4342 274.292 90.4342H270.379V94.0594H274.793C275.939 94.0594 276.487 94.8702 276.487 95.7047C276.487 96.5161 275.914 97.3506 274.793 97.3506H268.637C267.587 97.3506 266.8 96.635 266.8 95.5621V82.4443Z" fill="#44C8F5"/>
<path d="M278.088 82.2059C278.088 81.1086 278.851 80.3692 279.925 80.3692H283.886C289.231 80.3692 292.286 83.8036 292.286 89.0986C292.286 94.107 289.04 97.3506 284.124 97.3506H279.972C279.185 97.3506 278.088 96.9215 278.088 95.5621V82.2059ZM281.666 94.0594H284.077C287.155 94.0594 288.563 91.7936 288.563 88.9315C288.563 85.8787 287.131 83.6604 283.839 83.6604H281.666V94.0594Z" fill="#44C8F5"/>
<path d="M294.244 82.0864C294.244 80.894 295.008 80.226 296.034 80.226C297.059 80.226 297.823 80.894 297.823 82.0864V95.6334C297.823 96.8258 297.059 97.4939 296.034 97.4939C295.008 97.4939 294.244 96.8258 294.244 95.6334V82.0864Z" fill="#44C8F5"/>
<path d="M304.147 82.0626C304.552 80.9654 305.483 80.0833 306.7 80.0833C307.965 80.0833 308.848 80.9178 309.253 82.0626L313.93 95.0372C314.074 95.4188 314.121 95.7528 314.121 95.9193C314.121 96.8495 313.358 97.4938 312.475 97.4938C311.473 97.4938 310.972 96.969 310.733 96.2533L310.017 94.0113H303.384L302.668 96.2296C302.429 96.969 301.928 97.4938 300.949 97.4938C299.995 97.4938 299.184 96.7782 299.184 95.8242C299.184 95.4426 299.304 95.1561 299.351 95.0372L304.147 82.0626ZM304.41 90.7201H308.943L306.725 83.8036H306.676L304.41 90.7201Z" fill="#44C8F5"/>
<path d="M332.235 90.8417L333.166 89.7686C333.786 89.0535 334.215 88.6715 334.979 88.6715C335.67 88.6715 336.291 89.2676 336.291 90.1737C336.291 90.8177 335.742 91.5807 334.979 92.4397L334.382 93.0829L336.005 94.919C336.339 95.3009 336.529 95.563 336.529 96.1119C336.529 96.9221 335.766 97.7091 334.86 97.7091C334.311 97.7091 333.953 97.5421 333.594 97.161L331.948 95.4439C330.398 96.803 328.824 97.7091 326.7 97.7091C323.504 97.7091 320.855 95.897 320.855 92.5587C320.855 90.1977 322.501 88.4574 324.458 87.3844C323.527 86.4543 322.884 85.5003 322.884 84.1652C322.884 81.4469 325.436 80.1589 327.894 80.1589C330.041 80.1589 332.761 81.375 332.761 83.9031C332.761 85.8103 331.257 87.2885 329.73 88.0755L332.235 90.8417ZM326.342 89.3395C325.269 90.0307 324.291 90.8656 324.291 92.2247C324.291 93.7269 325.317 94.5618 326.772 94.5618C328.061 94.5618 328.895 94.0369 329.801 93.1788L326.342 89.3395ZM327.894 82.8771C327.274 82.8771 326.462 83.3542 326.462 84.0693C326.462 84.7852 326.796 85.2143 327.727 86.1203C328.442 85.7624 329.467 85.1192 329.467 84.2602C329.467 83.1872 328.514 82.8771 327.894 82.8771Z" fill="#44C8F5"/>
</g>
<defs>
<clipPath id="clip0_4_132">
<rect width="400" height="122.239" fill="white" transform="translate(0 0.717102)"/>
</clipPath>
</defs>
</svg>
