<svg width="524" height="160" viewBox="0 0 524 160" fill="none" xmlns="http://www.w3.org/2000/svg">
<g clip-path="url(#clip0_4_132)">
<path d="M96.5139 120.559L71.9528 134.11L47.3916 120.559V148.87L62.1091 157.364C68.201 160.879 75.7045 160.879 81.7964 157.364L96.5139 148.87V120.559Z" fill="#44C8F5"/>
<path d="M134.062 32.7957L81.7965 2.6365C75.7046 -0.878833 68.2011 -0.878833 62.1092 2.6365L9.84365 32.7957C3.75442 36.311 0 42.8074 0 49.8381V110.162C0 117.19 3.75442 123.686 9.84365 127.202L18.9426 132.453V53.1669C18.9426 49.9024 22.4788 47.8626 25.3067 49.4959L71.9888 75.7809L118.599 49.4959C121.427 47.8626 124.963 49.9024 124.963 53.1669V132.452L134.062 127.202C140.154 123.686 143.906 117.19 143.906 110.162V49.8381C143.906 42.8074 140.154 36.311 134.062 32.7957Z" fill="#44C8F5"/>
<path d="M164.401 15.5541C164.401 10.2458 167.72 6.70685 172.367 6.70685C177.014 6.70685 180.334 10.2458 180.334 15.5541V37.2298H180.555C183.874 33.1381 190.07 31.7003 195.049 31.7003C207.552 31.7003 216.845 39.6625 216.845 53.1549V83.6778C216.845 88.9855 213.526 92.5244 208.879 92.5244C204.232 92.5244 200.913 88.9855 200.913 83.6778V55.9199C200.913 48.5105 196.266 44.9716 190.512 44.9716C183.985 44.9716 180.334 49.7265 180.334 55.9199V83.6778C180.334 88.9855 177.014 92.5244 172.367 92.5244C167.72 92.5244 164.401 88.9855 164.401 83.6778V15.5541Z" fill="#44C8F5"/>
<path d="M282.905 62.5549C282.905 79.1439 271.508 93.1877 254.358 93.1877C237.209 93.1877 225.812 79.1439 225.812 62.5549C225.812 46.4087 237.541 31.7003 254.358 31.7003C271.176 31.7003 282.905 46.4087 282.905 62.5549ZM241.745 62.5549C241.745 70.1861 245.728 78.5905 254.358 78.5905C262.988 78.5905 266.971 70.1861 266.971 62.5549C266.971 54.9243 263.099 46.2982 254.358 46.2982C245.617 46.2982 241.745 54.9243 241.745 62.5549Z" fill="#44C8F5"/>
<path d="M287.991 46.2982C286.885 43.0909 286.332 41.1004 286.332 38.7782C286.332 35.2393 289.651 32.3636 294.298 32.3636C298.171 32.3636 300.937 34.9076 301.822 38.6676L311.005 69.0806H311.226L320.521 39.3309C321.737 35.0182 323.951 32.3636 328.597 32.3636C333.245 32.3636 335.457 35.0182 336.675 39.3309L345.968 69.0806H346.19L355.373 38.6676C356.258 34.9076 359.025 32.3636 362.896 32.3636C367.544 32.3636 370.864 35.2393 370.864 40.1054C370.864 41.8749 370.089 43.6443 369.314 46.0771L355.705 84.451C354.046 89.0967 351.28 92.5245 346.08 92.5245C341.211 92.5245 338.334 89.76 336.896 85.1156L328.708 59.4589H328.487L320.3 85.1156C318.861 89.76 315.984 92.5245 311.116 92.5245C305.916 92.5245 303.15 89.0967 301.49 84.451L287.991 46.2982Z" fill="#44C8F5"/>
<path d="M391.228 67.7527C392.336 75.605 398.863 79.2538 406.277 79.2538C414.464 79.2538 420.107 72.8406 424.311 72.8406C427.741 72.8406 430.84 76.2683 430.84 79.6973C430.84 86.5534 416.677 93.1877 404.838 93.1877C386.914 93.1877 374.964 80.1395 374.964 62.5549C374.964 46.4087 386.693 31.7003 403.51 31.7003C420.77 31.7003 432.167 47.4043 432.167 60.6749C432.167 65.4305 430.065 67.7527 425.196 67.7527H391.228ZM416.234 57.136C415.349 50.1687 410.923 44.9716 403.51 44.9716C396.429 44.9716 391.672 50.3905 390.897 57.136H416.234Z" fill="#44C8F5"/>
<path d="M473.552 50.2793C470.563 50.2793 464.478 45.6349 459.278 45.6349C456.401 45.6349 453.857 46.9621 453.857 50.0582C453.857 57.4683 481.517 56.3621 481.517 74.4995C481.517 85.1156 472.555 93.1877 458.836 93.1877C449.874 93.1877 436.596 88.1011 436.596 80.9128C436.596 78.4806 439.031 73.8349 443.456 73.8349C449.652 73.8349 452.418 79.2539 459.942 79.2539C464.811 79.2539 466.249 77.7061 466.249 74.7206C466.249 67.4217 438.588 68.5272 438.588 50.2793C438.588 39.2203 447.55 31.7003 460.163 31.7003C468.019 31.7003 480.079 35.3498 480.079 43.2015C480.079 46.8516 477.313 50.2793 473.552 50.2793Z" fill="#44C8F5"/>
<path d="M495.461 46.9621H491.921C487.606 46.9621 484.951 44.3076 484.951 39.9948C484.951 36.0131 487.938 33.0276 491.921 33.0276H495.461V23.5163C495.461 18.208 498.78 14.6691 503.428 14.6691C508.075 14.6691 511.394 18.208 511.394 23.5163V33.0276H515.931C520.024 33.0276 523.564 34.9076 523.564 39.9948C523.564 44.9715 520.024 46.9621 515.931 46.9621H511.394V83.6778C511.394 88.9855 508.075 92.5244 503.428 92.5244C498.78 92.5244 495.461 88.9855 495.461 83.6778V46.9621Z" fill="#44C8F5"/>
<path d="M174.872 133.01C177.151 133.01 181.585 133.759 181.585 136.507C181.585 137.63 180.805 138.597 179.649 138.597C178.369 138.597 177.494 137.505 174.872 137.505C170.999 137.505 169.001 140.782 169.001 144.59C169.001 148.305 171.031 151.489 174.872 151.489C177.494 151.489 178.556 150.177 179.837 150.177C181.242 150.177 181.897 151.582 181.897 152.3C181.897 155.297 177.182 155.983 174.872 155.983C168.532 155.983 164.129 150.957 164.129 144.497C164.129 138.004 168.5 133.01 174.872 133.01Z" fill="#44C8F5"/>
<path d="M184.712 135.819C184.712 134.322 185.555 133.385 187.116 133.385H192.612C197.421 133.385 200.389 135.538 200.389 140.439C200.389 143.873 197.797 145.839 194.611 146.338L199.92 152.019C200.357 152.488 200.545 152.955 200.545 153.392C200.545 154.61 199.577 155.796 198.202 155.796C197.64 155.796 196.891 155.577 196.391 154.984L189.458 146.588H189.397V153.361C189.397 154.921 188.397 155.796 187.054 155.796C185.711 155.796 184.712 154.921 184.712 153.361V135.819ZM189.397 143.217H192.612C194.33 143.217 195.517 142.187 195.517 140.439C195.517 138.66 194.33 137.693 192.612 137.693H189.397V143.217Z" fill="#44C8F5"/>
<path d="M202.92 136.101C202.92 134.539 203.701 133.385 205.356 133.385H213.1C214.6 133.385 215.317 134.446 215.317 135.538C215.317 136.6 214.568 137.693 213.1 137.693H207.605V142.249H212.725C214.255 142.249 215.004 143.311 215.004 144.403C215.004 145.465 214.224 146.556 212.725 146.556H207.605V151.302H213.382C214.88 151.302 215.599 152.362 215.599 153.455C215.599 154.516 214.849 155.608 213.382 155.608H205.324C203.951 155.608 202.92 154.672 202.92 153.268V136.101Z" fill="#44C8F5"/>
<path d="M223.159 135.601C223.69 134.165 224.907 133.01 226.5 133.01C228.155 133.01 229.31 134.103 229.842 135.601L235.962 152.581C236.15 153.081 236.212 153.517 236.212 153.735C236.212 154.953 235.213 155.796 234.058 155.796C232.746 155.796 232.091 155.108 231.778 154.172L230.841 151.239H222.16L221.223 154.141C220.91 155.108 220.255 155.796 218.974 155.796C217.725 155.796 216.664 154.86 216.664 153.611C216.664 153.111 216.82 152.736 216.883 152.581L223.159 135.601ZM223.502 146.931H229.436L226.531 137.88H226.47L223.502 146.931Z" fill="#44C8F5"/>
<path d="M239.181 137.693H235.777C234.279 137.693 233.654 136.6 233.654 135.538C233.654 134.446 234.435 133.385 235.777 133.385H247.269C248.612 133.385 249.392 134.446 249.392 135.538C249.392 136.6 248.768 137.693 247.269 137.693H243.866V153.361C243.866 154.921 242.866 155.796 241.523 155.796C240.18 155.796 239.181 154.921 239.181 153.361V137.693Z" fill="#44C8F5"/>
<path d="M251.051 135.632C251.051 134.072 252.05 133.197 253.393 133.197C254.736 133.197 255.736 134.072 255.736 135.632V153.361C255.736 154.921 254.736 155.796 253.393 155.796C252.05 155.796 251.051 154.921 251.051 153.361V135.632Z" fill="#44C8F5"/>
<path d="M258.222 136.6C258.065 136.194 258.003 135.882 258.003 135.445C258.003 134.135 259.159 133.197 260.408 133.197C261.469 133.197 262.125 133.885 262.531 134.728L267.372 147.712L272.212 134.728C272.617 133.885 273.273 133.197 274.335 133.197C275.584 133.197 276.74 134.135 276.74 135.445C276.74 135.882 276.677 136.194 276.521 136.6L269.682 153.985C269.276 154.984 268.745 155.796 267.372 155.796C265.998 155.796 265.466 154.984 265.06 153.985L258.222 136.6Z" fill="#44C8F5"/>
<path d="M278.082 136.101C278.082 134.539 278.862 133.385 280.517 133.385H288.262C289.761 133.385 290.479 134.446 290.479 135.538C290.479 136.6 289.73 137.693 288.262 137.693H282.766V142.249H287.887C289.417 142.249 290.166 143.311 290.166 144.403C290.166 145.465 289.385 146.556 287.887 146.556H282.766V151.302H288.543C290.042 151.302 290.76 152.362 290.76 153.455C290.76 154.516 290.01 155.608 288.543 155.608H280.486C279.112 155.608 278.082 154.672 278.082 153.268V136.101Z" fill="#44C8F5"/>
<path d="M306.915 137.693H303.511C302.01 137.693 301.387 136.6 301.387 135.538C301.387 134.446 302.166 133.385 303.511 133.385H315.002C316.345 133.385 317.126 134.446 317.126 135.538C317.126 136.6 316.5 137.693 315.002 137.693H311.598V153.361C311.598 154.921 310.598 155.796 309.255 155.796C307.913 155.796 306.915 154.921 306.915 153.361V137.693Z" fill="#44C8F5"/>
<path d="M318.445 136.101C318.445 134.539 319.227 133.385 320.881 133.385H328.626C330.125 133.385 330.842 134.446 330.842 135.538C330.842 136.6 330.092 137.693 328.626 137.693H323.129V142.249H328.25C329.781 142.249 330.53 143.311 330.53 144.403C330.53 145.465 329.75 146.556 328.25 146.556H323.129V151.302H328.906C330.406 151.302 331.123 152.362 331.123 153.455C331.123 154.516 330.374 155.608 328.906 155.608H320.849C319.476 155.608 318.445 154.672 318.445 153.268V136.101Z" fill="#44C8F5"/>
<path d="M342.936 133.01C345.216 133.01 349.651 133.759 349.651 136.507C349.651 137.63 348.869 138.597 347.715 138.597C346.435 138.597 345.56 137.505 342.936 137.505C339.065 137.505 337.066 140.782 337.066 144.59C337.066 148.305 339.095 151.489 342.936 151.489C345.56 151.489 346.621 150.177 347.901 150.177C349.306 150.177 349.962 151.582 349.962 152.3C349.962 155.297 345.249 155.983 342.936 155.983C336.598 155.983 332.194 150.957 332.194 144.497C332.194 138.004 336.566 133.01 342.936 133.01Z" fill="#44C8F5"/>
<path d="M352.346 135.632C352.346 134.072 353.345 133.197 354.689 133.197C356.032 133.197 357.03 134.072 357.03 135.632V142.249H366.837V135.632C366.837 134.072 367.835 133.197 369.177 133.197C370.522 133.197 371.52 134.072 371.52 135.632V153.361C371.52 154.921 370.522 155.796 369.177 155.796C367.835 155.796 366.837 154.921 366.837 153.361V146.556H357.03V153.361C357.03 154.921 356.032 155.796 354.689 155.796C353.345 155.796 352.346 154.921 352.346 153.361V135.632Z" fill="#44C8F5"/>
<path d="M374.772 135.632C374.772 134.072 375.773 133.197 377.115 133.197C377.709 133.197 378.676 133.666 379.084 134.228L388.981 147.431H389.044V135.632C389.044 134.072 390.044 133.197 391.387 133.197C392.729 133.197 393.73 134.072 393.73 135.632V153.361C393.73 154.921 392.729 155.796 391.387 155.796C390.793 155.796 389.856 155.327 389.418 154.765L379.521 141.719H379.458V153.361C379.458 154.921 378.458 155.796 377.115 155.796C375.773 155.796 374.772 154.921 374.772 153.361V135.632Z" fill="#44C8F5"/>
<path d="M396.105 144.497C396.105 138.004 400.476 133.01 406.847 133.01C413.124 133.01 417.589 138.16 417.589 144.497C417.589 150.957 413.249 155.983 406.847 155.983C400.509 155.983 396.105 150.957 396.105 144.497ZM412.719 144.497C412.719 140.72 410.751 137.318 406.847 137.318C402.945 137.318 400.977 140.72 400.977 144.497C400.977 148.305 402.882 151.676 406.847 151.676C410.814 151.676 412.719 148.305 412.719 144.497Z" fill="#44C8F5"/>
<path d="M420.155 135.632C420.155 134.072 421.153 133.197 422.498 133.197C423.84 133.197 424.838 134.072 424.838 135.632V151.302H430.397C431.99 151.302 432.677 152.488 432.646 153.548C432.584 154.578 431.772 155.608 430.397 155.608H422.591C421.06 155.608 420.155 154.61 420.155 153.049V135.632Z" fill="#44C8F5"/>
<path d="M431.163 144.497C431.163 138.004 435.535 133.01 441.905 133.01C448.182 133.01 452.647 138.16 452.647 144.497C452.647 150.957 448.308 155.983 441.905 155.983C435.567 155.983 431.163 150.957 431.163 144.497ZM447.777 144.497C447.777 140.72 445.809 137.318 441.905 137.318C438.003 137.318 436.035 140.72 436.035 144.497C436.035 148.305 437.94 151.676 441.905 151.676C445.872 151.676 447.777 148.305 447.777 144.497Z" fill="#44C8F5"/>
<path d="M472.612 142.437C474.578 142.437 475.36 143.435 475.36 145.433C475.36 151.457 471.426 155.983 465.179 155.983C458.841 155.983 454.437 150.957 454.437 144.497C454.437 138.004 458.809 133.01 465.179 133.01C469.895 133.01 473.766 135.226 473.766 137.411C473.766 138.753 472.924 139.596 471.831 139.596C469.706 139.596 469.271 137.318 465.179 137.318C461.277 137.318 459.309 140.72 459.309 144.497C459.309 148.305 461.214 151.676 465.179 151.676C467.647 151.676 470.488 150.303 470.488 146.744H467.303C466.023 146.744 465.116 145.839 465.116 144.559C465.116 143.248 466.116 142.437 467.303 142.437H472.612Z" fill="#44C8F5"/>
<path d="M477.487 135.632C477.487 134.072 478.485 133.197 479.83 133.197C481.173 133.197 482.171 134.072 482.171 135.632V153.361C482.171 154.921 481.173 155.796 479.83 155.796C478.485 155.796 477.487 154.921 477.487 153.361V135.632Z" fill="#44C8F5"/>
<path d="M485.607 136.101C485.607 134.539 486.389 133.385 488.043 133.385H495.788C497.287 133.385 498.003 134.446 498.003 135.538C498.003 136.6 497.254 137.693 495.788 137.693H490.291V142.249H495.412C496.942 142.249 497.692 143.311 497.692 144.403C497.692 145.465 496.912 146.556 495.412 146.556H490.291V151.302H496.068C497.568 151.302 498.285 152.362 498.285 153.455C498.285 154.516 497.536 155.608 496.068 155.608H488.011C486.638 155.608 485.607 154.672 485.607 153.268V136.101Z" fill="#44C8F5"/>
<path d="M513.84 136.132C513.84 137.348 513.029 138.441 511.747 138.441C510.467 138.441 509.469 137.505 507.594 137.505C506.251 137.505 505.034 138.223 505.034 139.533C505.034 142.748 515.464 140.689 515.464 148.741C515.464 153.205 511.779 155.983 507.47 155.983C505.065 155.983 499.881 155.421 499.881 152.488C499.881 151.27 500.693 150.271 501.973 150.271C503.441 150.271 505.19 151.489 507.219 151.489C509.28 151.489 510.404 150.333 510.404 148.804C510.404 145.12 499.974 147.337 499.974 140.096C499.974 135.726 503.566 133.01 507.719 133.01C509.469 133.01 513.84 133.666 513.84 136.132Z" fill="#44C8F5"/>
<path d="M242.043 106.474C242.23 105.35 243.448 104.07 245.103 104.07C246.665 104.07 247.883 105.194 248.226 106.318L251.913 118.68H251.975L255.66 106.318C256.004 105.194 257.221 104.07 258.784 104.07C260.438 104.07 261.656 105.35 261.845 106.474L264.749 123.894C264.781 124.081 264.781 124.268 264.781 124.425C264.781 125.798 263.781 126.672 262.531 126.672C260.938 126.672 260.314 125.954 260.095 124.487L258.253 111.781H258.19L254.442 124.862C254.223 125.61 253.63 126.672 251.943 126.672C250.257 126.672 249.663 125.61 249.444 124.862L245.697 111.781H245.635L243.792 124.487C243.574 125.954 242.948 126.672 241.356 126.672C240.106 126.672 239.107 125.798 239.107 124.425C239.107 124.268 239.107 124.081 239.139 123.894L242.043 106.474Z" fill="#44C8F5"/>
<path d="M266.564 106.505C266.564 104.945 267.563 104.07 268.906 104.07C270.25 104.07 271.25 104.945 271.25 106.505V117.401C271.25 120.272 273.092 122.551 276.058 122.551C278.9 122.551 280.837 120.148 280.837 117.401V106.505C280.837 104.945 281.836 104.07 283.179 104.07C284.523 104.07 285.523 104.945 285.523 106.505V117.65C285.523 122.895 281.212 126.86 276.058 126.86C270.842 126.86 266.564 122.957 266.564 117.65V106.505Z" fill="#44C8F5"/>
<path d="M288.462 106.505C288.462 104.945 289.461 104.07 290.804 104.07C292.147 104.07 293.146 104.945 293.146 106.505V122.177H298.705C300.299 122.177 300.985 123.363 300.955 124.425C300.891 125.455 300.08 126.485 298.705 126.485H290.897C289.367 126.485 288.462 125.486 288.462 123.925V106.505Z" fill="#44C8F5"/>
<path d="M302.361 108.565H298.957C297.458 108.565 296.832 107.473 296.832 106.412C296.832 105.319 297.614 104.258 298.957 104.258H310.451C311.793 104.258 312.574 105.319 312.574 106.412C312.574 107.473 311.95 108.565 310.451 108.565H307.045V124.237C307.045 125.798 306.046 126.672 304.703 126.672C303.361 126.672 302.361 125.798 302.361 124.237V108.565Z" fill="#44C8F5"/>
<path d="M313.92 106.505C313.92 104.945 314.919 104.07 316.262 104.07C317.605 104.07 318.604 104.945 318.604 106.505V124.237C318.604 125.798 317.605 126.672 316.262 126.672C314.919 126.672 313.92 125.798 313.92 124.237V106.505Z" fill="#44C8F5"/>
<path d="M324.008 106.474C324.195 105.35 325.413 104.07 327.069 104.07C328.63 104.07 329.849 105.194 330.192 106.318L333.878 118.68H333.94L337.625 106.318C337.97 105.194 339.187 104.07 340.75 104.07C342.404 104.07 343.622 105.35 343.81 106.474L346.714 123.894C346.746 124.081 346.746 124.268 346.746 124.425C346.746 125.798 345.747 126.672 344.497 126.672C342.904 126.672 342.279 125.954 342.061 124.487L340.218 111.781H340.156L336.407 124.862C336.188 125.61 335.596 126.672 333.909 126.672C332.223 126.672 331.629 125.61 331.41 124.862L327.663 111.781H327.601L325.758 124.487C325.539 125.954 324.914 126.672 323.322 126.672C322.072 126.672 321.072 125.798 321.072 124.425C321.072 124.268 321.072 124.081 321.104 123.894L324.008 106.474Z" fill="#44C8F5"/>
<path d="M349.218 106.974C349.218 105.413 349.998 104.258 351.652 104.258H359.399C360.898 104.258 361.616 105.319 361.616 106.412C361.616 107.473 360.866 108.565 359.399 108.565H353.902V113.123H359.024C360.555 113.123 361.304 114.185 361.304 115.277C361.304 116.339 360.523 117.432 359.024 117.432H353.902V122.177H359.68C361.179 122.177 361.897 123.238 361.897 124.33C361.897 125.392 361.147 126.485 359.68 126.485H351.622C350.247 126.485 349.218 125.548 349.218 124.144V106.974Z" fill="#44C8F5"/>
<path d="M363.992 106.662C363.992 105.225 364.991 104.258 366.396 104.258H371.582C378.578 104.258 382.576 108.753 382.576 115.684C382.576 122.239 378.327 126.485 371.893 126.485H366.459C365.429 126.485 363.992 125.923 363.992 124.144V106.662ZM368.676 122.177H371.831C375.861 122.177 377.703 119.211 377.703 115.465C377.703 111.469 375.829 108.565 371.52 108.565H368.676V122.177Z" fill="#44C8F5"/>
<path d="M385.139 106.505C385.139 104.945 386.139 104.07 387.482 104.07C388.824 104.07 389.824 104.945 389.824 106.505V124.237C389.824 125.798 388.824 126.672 387.482 126.672C386.139 126.672 385.139 125.798 385.139 124.237V106.505Z" fill="#44C8F5"/>
<path d="M398.102 106.474C398.632 105.038 399.85 103.883 401.443 103.883C403.099 103.883 404.255 104.976 404.785 106.474L410.906 123.457C411.095 123.956 411.157 124.393 411.157 124.611C411.157 125.829 410.157 126.672 409.002 126.672C407.691 126.672 407.035 125.985 406.722 125.049L405.785 122.114H397.102L396.165 125.017C395.852 125.985 395.198 126.672 393.916 126.672C392.667 126.672 391.605 125.735 391.605 124.487C391.605 123.987 391.762 123.612 391.824 123.457L398.102 106.474ZM398.445 117.806H404.379L401.475 108.753H401.412L398.445 117.806Z" fill="#44C8F5"/>
<path d="M434.866 117.965L436.084 116.56C436.896 115.624 437.457 115.125 438.458 115.125C439.363 115.125 440.175 115.905 440.175 117.091C440.175 117.934 439.456 118.932 438.458 120.057L437.676 120.899L439.8 123.302C440.237 123.802 440.486 124.145 440.486 124.863C440.486 125.924 439.488 126.954 438.302 126.954C437.583 126.954 437.115 126.735 436.645 126.237L434.491 123.989C432.462 125.768 430.401 126.954 427.621 126.954C423.438 126.954 419.971 124.582 419.971 120.213C419.971 117.122 422.126 114.844 424.687 113.44C423.468 112.222 422.626 110.974 422.626 109.226C422.626 105.668 425.967 103.982 429.184 103.982C431.994 103.982 435.554 105.574 435.554 108.883C435.554 111.379 433.586 113.314 431.587 114.344L434.866 117.965ZM427.153 115.999C425.748 116.904 424.468 117.996 424.468 119.775C424.468 121.742 425.811 122.834 427.716 122.834C429.403 122.834 430.494 122.147 431.681 121.024L427.153 115.999ZM429.184 107.54C428.372 107.54 427.309 108.165 427.309 109.101C427.309 110.038 427.746 110.599 428.965 111.785C429.901 111.317 431.243 110.475 431.243 109.351C431.243 107.946 429.996 107.54 429.184 107.54Z" fill="#44C8F5"/>
</g>
<defs>
<clipPath id="clip0_4_132">
<rect width="523.564" height="160" fill="white"/>
</clipPath>
</defs>
</svg>
