<svg width="578" height="160" viewBox="0 0 578 160" fill="none" xmlns="http://www.w3.org/2000/svg">
<g clip-path="url(#clip0_2_136)">
<path d="M0 46.4753C1.92054 38.648 7.26067 34.0093 14.1016 30.2133C29.9308 21.4319 45.5306 12.2402 61.1938 3.16409C68.4623 -1.04614 75.6249 -1.03835 82.8941 3.17032C99.7124 12.9103 116.563 22.5921 133.406 32.286C140.584 36.4173 144.111 42.5561 144.084 50.8613C144.019 70.2822 144.018 89.7031 144.084 109.124C144.112 117.547 140.475 123.675 133.196 127.847C116.412 137.467 99.6498 147.124 82.9108 156.825C75.644 161.035 68.4727 161.074 61.2113 156.849C52.3924 151.716 43.5301 146.654 34.6897 141.554C33.937 141.12 33.2167 140.629 32.438 140.132C35.8394 137.493 37.6598 134.25 38.7061 130.172C39.7273 126.191 41.8129 122.481 43.4701 118.669C46.9192 110.738 51.5633 103.524 56.8643 96.7178C59.4071 93.452 60.4979 93.1027 63.6131 95.7194C67.2647 98.7879 70.6158 102.238 73.9215 105.688C77.9121 109.85 81.8523 114.075 85.5613 118.484C88.1466 121.556 90.8093 124.678 91.3219 128.998C91.4045 129.695 92.7037 130.342 93.5439 130.837C94.8676 131.616 96.2581 132.292 97.659 132.926C99.178 133.613 100.746 134.695 102.284 134.682C103.579 134.669 105.292 133.603 105.987 132.485C106.399 131.825 105.509 129.819 104.644 129.017C102.658 127.178 100.33 125.706 98.0674 124.029C98.7259 122.958 99.1493 122.198 99.6403 121.486C100.895 119.667 100.363 118.33 98.8365 116.868C96.1181 114.265 93.5301 111.514 91.0274 108.702C88.3368 105.679 86.2051 102.194 82.2529 100.369C80.9588 99.7708 80.1742 97.8631 79.3851 96.431C76.1898 90.6382 73.4209 84.5819 69.8676 79.021C64.41 70.4793 66.289 61.9325 68.8456 53.2277C68.8961 53.06 68.9195 52.8304 69.0394 52.7454C72.3791 50.3485 75.5588 47.6589 79.1339 45.6829C81.8532 44.1794 85.0736 43.5797 88.0761 42.5926C89.2249 42.2155 90.3833 41.607 91.5453 41.5854C93.5615 41.5496 95.5853 41.8887 97.4425 42.0564C97.3348 41.7096 97.1088 40.9814 96.8828 40.2549C97.1261 40.1323 97.3695 40.0106 97.6129 39.8891C97.0663 39.5283 96.5195 39.1685 95.9217 38.775C96.3457 38.5256 96.776 38.2726 97.7562 37.6965C96.3657 37.4141 95.5662 37.2515 94.7669 37.09C94.5991 36.9447 94.4314 36.8015 94.2627 36.658C95.0031 36.4373 95.7426 36.2157 96.4839 35.995C96.2814 35.6796 96.0808 35.3659 95.8799 35.052C94.6174 35.2615 92.9506 36.0488 92.2013 35.5256C91.3542 34.9347 91.3315 33.1672 90.4182 31.941C90.3157 32.4684 90.2218 32.9986 90.1115 33.5252C89.2476 37.712 88.0728 39.2624 83.9978 38.761C79.2036 38.1719 75.9715 40.9839 72.2287 42.7056C70.4167 43.5381 68.9021 44.3296 66.7373 43.9309C65.3357 43.6727 63.7132 44.5156 62.2089 44.9336C60.988 45.2726 59.7947 45.7131 58.1653 46.2477C58.2514 44.66 57.9455 43.4059 58.426 42.6455C60.3682 39.5737 58.8857 36.8987 57.4049 34.4967C55.1629 30.8615 50.0512 31.3352 48.4567 35.2902C47.3148 38.124 47.273 41.084 49.3717 43.745C49.9887 44.5261 50.2494 45.5854 50.8647 46.9358C49.3108 46.9358 48.2056 46.8602 47.1148 46.9516C44.9466 47.1332 42.7749 47.6633 40.6249 47.5754C38.1422 47.4729 35.5264 47.2513 33.2523 46.3623C30.7737 45.3943 28.5143 45.0511 26.0489 45.941C25.9655 45.9712 25.8725 45.9739 25.7891 46.0026C22.4563 47.1185 19.5486 46.8508 17.5368 43.5363C17.1432 42.888 16.6565 42.2962 15.5998 41.8486C15.7988 42.9011 15.9987 43.9525 16.2385 45.2195C14.9081 44.8789 13.6549 44.5601 12.4035 44.2393C12.2341 44.5096 12.0664 44.7799 11.8978 45.0502C12.4366 45.4916 12.9762 45.9332 13.4351 46.3076C13.0857 46.4319 12.553 46.6204 11.5258 46.9846C12.7251 47.5581 13.4716 47.9154 14.4066 48.3628C13.6506 48.7574 13.0049 49.0938 12.3922 49.4126C12.7199 50.1966 13.031 50.9387 13.4012 51.8224C17.1675 50.5554 20.9973 50.6144 24.867 52.078C26.127 52.5541 27.7304 52.6931 29.0278 52.3768C31.4047 51.799 33.3139 52.4673 35.3517 53.5309C37.2854 54.5398 39.4283 55.143 41.44 56.0101C42.0885 56.2909 42.7575 56.7403 43.1773 57.2938C46.8134 62.0924 46.9359 67.7454 47.3722 73.4419C47.8934 80.256 45.8783 86.4669 43.8943 92.7516C42.7524 96.365 41.9137 100.109 40.3904 103.553C39.3328 105.948 37.1168 107.807 35.8289 110.132C34.123 113.207 32.8854 116.536 31.3143 119.69C30.5731 121.18 29.7119 122.695 28.5735 123.882C26.3366 126.211 26.8683 128.248 28.7551 130.358C29.107 130.751 29.4207 131.18 29.9691 131.864C28.8047 133.409 27.6176 134.983 26.2409 136.809C19.8146 132.963 13.4698 129.417 7.40145 125.45C3.2119 122.711 1.40608 118.163 0 113.53C0 91.1779 0 68.8266 0 46.4753Z" fill="#44C8F5"/>
<path d="M353.542 66.5994C350.763 75.2539 348.236 83.142 345.7 91.0276C344.997 93.22 344.363 95.4405 343.533 97.5833C341.973 101.615 339.215 104.197 334.683 104.558C329.92 104.937 326.387 103.059 324.1 98.9121C323.377 97.6 322.768 96.206 322.267 94.7938C317.13 80.3629 312.013 65.9242 306.928 51.4741C306.283 49.6405 305.735 47.7546 305.344 45.8523C304.4 41.2708 306.142 37.9704 310.176 36.4209C314.634 34.7088 319.221 35.9778 321.495 39.651C322.091 40.6138 322.487 41.7271 322.821 42.8187C326.02 53.3208 329.186 63.8325 332.372 74.3406C332.672 75.3244 333.032 76.289 333.582 77.9001C337.028 66.9148 340.254 56.6274 343.479 46.3391C343.902 44.9878 344.274 43.618 344.75 42.285C346.378 37.7366 349.143 35.7282 353.673 35.7517C358.091 35.7751 360.832 37.655 362.316 42.2303C365.869 53.1773 369.264 64.1773 372.723 75.154C372.961 75.9015 373.232 76.6374 373.671 77.9124C376.162 69.7079 378.498 62.0283 380.823 54.3453C381.98 50.5319 383.095 46.7066 384.258 42.8968C386.049 37.0387 390.614 34.4612 396.116 36.1715C401.05 37.7079 403.29 42.3953 401.377 48.0076C397.586 59.1562 393.597 70.2387 389.669 81.3406C387.809 86.5989 386.038 91.8957 383.964 97.0717C382.205 101.468 379.166 104.489 374.004 104.587C368.534 104.69 365.121 102.247 363.239 96.5197C360.336 87.6888 357.553 78.8169 354.714 69.9651C354.427 69.0725 354.098 68.1958 353.542 66.5994Z" fill="#44C8F5"/>
<path d="M183.537 41.0491C191.569 34.3837 200.302 33.5461 209.44 36.3695C218.779 39.2538 224.36 45.9461 225.003 55.5653C225.74 66.602 225.393 77.7123 225.464 88.7915C225.482 91.4438 225.499 94.1263 225.15 96.7466C224.516 101.516 221.098 104.491 216.549 104.582C211.766 104.676 208.328 101.863 207.431 97.0178C207.19 95.7201 207.112 94.3775 207.109 93.0558C207.082 83.7459 207.096 74.4362 207.094 65.1263C207.093 64.1513 207.095 63.1753 207.06 62.2013C206.79 54.612 202.317 50.1357 195.075 50.1957C188.222 50.2523 183.647 55.0327 183.563 62.4749C183.466 71.0738 183.539 79.6763 183.535 88.2763C183.535 90.493 183.573 92.7099 183.512 94.9259C183.349 100.779 179.727 104.593 174.393 104.585C169.05 104.579 165.355 100.764 165.337 94.9008C165.273 76.547 165.306 58.1915 165.306 39.8378C165.306 31.769 165.215 23.6992 165.358 15.6338C165.468 9.39418 170.163 5.54457 176.137 6.50208C180.455 7.19396 183.429 10.8594 183.494 15.9101C183.59 23.3586 183.53 30.8069 183.537 38.2545C183.538 39.0445 183.537 39.8336 183.537 41.0491Z" fill="#44C8F5"/>
<path d="M453.829 63.9393C453.375 55.548 446.961 49.8152 438.59 50.2087C431.457 50.5433 425.213 57.0089 425.395 63.9393C434.872 63.9393 444.349 63.9393 453.829 63.9393ZM425.74 76.275C426.018 82.7075 431.366 87.8556 438.532 89.0732C443.66 89.9449 448.409 88.9698 452.957 86.6416C455.402 85.3885 457.773 83.9762 460.274 82.8465C463.66 81.317 466.71 82.1845 469.037 85.0939C471.313 87.9337 471.528 91.2665 469.29 94.1377C468.056 95.7202 466.563 97.2505 464.872 98.3048C454.478 104.782 443.25 107.216 431.244 104.115C415.913 100.156 406.323 86.4861 406.754 69.7139C407.141 54.7676 415.611 41.8565 428.211 37.0005C446.494 29.9589 467.117 41.5733 471.531 61.4583C472.027 63.6899 472.303 66.0154 472.309 68.2984C472.327 73.8192 469.869 76.2367 464.316 76.2577C452.416 76.3028 440.512 76.2741 428.61 76.275C427.655 76.275 426.701 76.275 425.74 76.275Z" fill="#44C8F5"/>
<path d="M283.564 70.3935C283.319 70.317 283.075 70.2405 282.828 70.1648C282.85 65.8216 281.898 61.7277 279.573 58.0211C274.231 49.5006 262.441 49.4222 257.31 58.0821C252.774 65.7373 252.73 73.7818 256.892 81.6507C259.31 86.2245 263.261 88.6594 268.59 88.6073C273.809 88.5551 277.778 86.1446 279.942 81.59C281.611 78.0774 282.389 74.1415 283.564 70.3935ZM235.631 71.8569C235.904 59.1344 239.793 49.4387 248.574 42.0912C262.634 30.3255 283.66 33.1777 294.238 48.5359C303.121 61.4374 303.664 75.2383 296.372 89.0062C289.927 101.174 277.426 106.908 263.123 105.001C250.618 103.334 240.013 93.2636 236.885 79.9005C236.165 76.8165 235.898 73.6236 235.631 71.8569Z" fill="#44C8F5"/>
<path d="M502.917 105.466C496.394 105.184 489.944 103.736 484.122 100.203C482.405 99.1606 480.774 97.8267 479.448 96.3233C476.91 93.4398 476.803 90.4739 478.741 87.2699C480.676 84.0701 483.789 82.4685 487.313 83.4496C489.924 84.1771 492.425 85.4258 494.839 86.699C498.712 88.7411 502.676 89.9517 507.108 89.1662C509.333 88.7715 510.908 87.7869 511.339 85.4198C511.758 83.1437 510.663 81.5577 508.808 80.6176C506.049 79.2203 503.152 78.0912 500.329 76.8198C496.616 75.1497 492.765 73.7106 489.235 71.7179C474.816 63.59 478.427 45.9124 488.634 39.287C497.989 33.2158 514.076 33.5878 522.945 40.354C527.108 43.5286 528.42 48.0058 526.365 52.024C524.536 55.6011 520.972 57.0305 517.181 55.5802C513.956 54.3462 510.861 52.709 507.562 51.7555C505.439 51.1428 502.932 50.9735 500.823 51.5001C499.446 51.8452 497.829 53.6545 497.519 55.0674C497.253 56.2997 498.287 58.4923 499.417 59.2127C502.149 60.9533 505.273 62.0917 508.245 63.4543C512.027 65.1898 515.969 66.6367 519.573 68.6799C533.31 76.4696 530.592 93.1115 520.714 100.178C515.451 103.945 509.475 105.259 502.917 105.466Z" fill="#44C8F5"/>
<path d="M544.963 52.6089C535.364 51.7713 532.919 50.0879 532.894 44.6036C532.872 39.1304 535.45 37.2821 544.963 36.188C544.963 34.4109 544.945 32.5833 544.968 30.7557C545.001 28.3651 544.91 25.9578 545.152 23.5862C545.62 18.9936 548.945 15.7911 553.272 15.5175C558.149 15.208 561.842 17.7604 562.779 22.5331C563.284 25.107 563.161 27.8098 563.255 30.4567C563.319 32.3077 563.268 34.1622 563.268 36.4443C565.31 36.4443 567.226 36.3522 569.132 36.4616C574.338 36.7598 577.172 39.618 577.172 44.4532C577.172 48.9809 574.449 51.9929 569.886 52.3179C567.789 52.469 565.671 52.3448 563.268 52.3448C563.268 53.6414 563.266 54.5887 563.266 55.5359C563.266 68.1219 563.284 80.7079 563.246 93.2939C563.241 94.786 563.117 96.3164 562.767 97.7624C561.688 102.229 558.205 104.748 553.58 104.574C549.301 104.413 545.915 101.427 545.21 97.0603C544.983 95.6699 544.977 94.2343 544.974 92.8203C544.957 80.4995 544.963 68.1802 544.963 55.861C544.963 54.8189 544.963 53.7769 544.963 52.6089Z" fill="#44C8F5"/>
<path d="M427.07 133.546C425.346 139.289 423.637 145.041 421.884 150.779C420.863 154.119 418.42 155.943 415.584 154.887C414.089 154.331 412.354 152.671 411.964 151.185C409.631 142.279 407.631 133.287 405.58 124.309C405.032 121.912 406.024 120.264 408.073 119.752C410.36 119.182 412.24 120.294 412.792 122.851C414.12 128.996 415.31 135.17 416.563 141.334C416.656 141.801 416.794 142.26 417.45 142.751C418.565 139.079 419.693 135.41 420.794 131.733C421.606 129.019 422.405 126.301 423.168 123.572C423.793 121.342 424.885 119.568 427.482 119.633C429.918 119.695 430.932 121.403 431.553 123.537C433.277 129.489 435.07 135.421 436.85 141.358C437.019 141.925 437.268 142.466 437.729 143.659C439.141 136.624 440.392 130.245 441.731 123.883C441.96 122.79 442.285 121.263 443.059 120.84C444.3 120.162 446.102 119.74 447.406 120.113C449.502 120.711 449.486 122.795 449.086 124.599C447.833 130.218 446.498 135.816 445.188 141.421C444.44 144.611 443.673 147.795 442.923 150.985C442.327 153.531 440.841 155.049 438.113 155.087C435.439 155.119 433.798 153.748 433.034 151.245C431.232 145.323 429.435 139.401 427.635 133.481C427.446 133.502 427.259 133.523 427.07 133.546Z" fill="#44C8F5"/>
<path d="M326.716 131.477C328.396 130.442 330.44 129.585 329.978 127.248C329.804 126.372 328.374 125.206 327.457 125.152C326.407 125.089 324.699 125.859 324.325 126.719C323.39 128.878 325.163 130.172 326.716 131.477ZM330.725 146.037C328.632 143.708 326.587 141.393 324.481 139.133C324.191 138.823 323.539 138.579 323.15 138.677C321.27 139.155 319.335 142.487 319.542 144.717C319.764 147.105 321.348 148.619 323.96 148.853C326.605 149.09 328.801 148.167 330.725 146.037ZM319.631 134.185C319.01 133.37 318.403 132.794 318.071 132.092C317.513 130.909 316.905 129.678 316.714 128.408C316.216 125.132 317.764 122.414 320.81 120.755C324.95 118.502 330.997 118.943 334.387 121.802C336.721 123.769 337.795 126.426 336.503 129.157C335.344 131.606 333.317 133.648 331.382 136.259C331.666 136.585 332.44 137.478 333.228 138.36C334.049 139.281 334.883 140.192 335.793 141.197C336.857 140.067 337.789 139.003 338.805 138.028C340.082 136.804 341.858 136.125 343.01 137.554C343.784 138.516 343.898 140.526 343.477 141.791C342.977 143.294 341.584 144.498 340.456 145.995C341.517 147.22 342.63 148.465 343.695 149.749C345.017 151.344 345.141 153.016 343.564 154.465C342.036 155.867 340.331 155.834 338.794 154.409C337.628 153.327 336.563 152.141 335.831 151.391C332.403 152.792 329.373 154.632 326.113 155.24C317.84 156.787 311.359 150.741 312.601 143.035C313.261 138.936 316.153 136.457 319.631 134.185Z" fill="#44C8F5"/>
<path d="M543.032 133.875C543.032 139.369 543.048 144.86 543.028 150.353C543.014 153.672 541.893 155.08 539.342 155.089C536.794 155.1 535.622 153.663 535.613 150.379C535.593 141.691 535.613 133.005 535.604 124.318C535.602 122.352 535.867 120.525 538.089 119.846C540.323 119.163 541.798 120.33 543.055 122.012C547.299 127.698 551.562 133.367 555.826 139.036C556.392 139.787 556.999 140.504 558.062 141.83C558.062 136.307 558.06 131.484 558.062 126.661C558.062 125.509 558.002 124.35 558.1 123.206C558.294 120.913 559.586 119.56 561.907 119.639C564.218 119.717 565.448 121.106 565.455 123.441C565.473 130.798 565.471 138.155 565.475 145.513C565.475 147.374 565.76 149.296 565.375 151.076C565.077 152.451 564.191 154.331 563.106 154.729C561.962 155.147 560.009 154.415 558.883 153.561C557.517 152.527 556.641 150.847 555.566 149.438C551.557 144.172 547.553 138.901 543.548 133.635C543.375 133.715 543.204 133.796 543.032 133.875Z" fill="#44C8F5"/>
<path d="M361.846 133.728C364.516 133.537 367.355 134.634 368.863 131.911C369.428 130.889 369.426 128.917 368.788 127.994C367.117 125.578 364.407 126.434 361.846 126.482C361.846 128.911 361.846 131.167 361.846 133.728ZM361.804 148.256C364.08 148.256 366.1 148.343 368.111 148.232C370.458 148.104 371.898 146.82 372.044 144.424C372.185 142.084 370.832 140.706 368.645 140.481C366.418 140.25 364.151 140.428 361.804 140.428C361.804 143.018 361.804 145.453 361.804 148.256ZM372.903 135.674C379.052 138.632 380.925 142.221 379.306 147.748C378.167 151.65 375.448 154.045 371.535 154.452C367.05 154.914 362.496 154.876 357.976 154.815C355.571 154.782 354.305 153.201 354.3 150.781C354.285 141.825 354.258 132.87 354.318 123.915C354.338 121.157 355.666 119.966 358.523 119.915C361.544 119.861 364.565 119.869 367.588 119.912C371.88 119.973 375.192 122.12 376.405 125.554C377.733 129.326 376.596 132.722 372.903 135.674Z" fill="#44C8F5"/>
<path d="M500.165 140.893C498.616 140.893 497.046 140.948 495.477 140.88C493.226 140.78 491.993 139.498 492.096 137.298C492.194 135.192 493.551 134.178 495.653 134.178C498.407 134.18 501.161 134.123 503.909 134.197C506.859 134.278 507.976 135.447 508.198 138.462C508.948 148.647 500.142 156.807 490.018 155.308C482.701 154.226 477.526 149.516 475.833 142.396C473.96 134.528 476.558 126.521 482.334 122.363C487.729 118.48 496.776 118.291 502.507 121.968C503.172 122.395 503.809 122.905 504.354 123.475C505.8 124.991 506.289 126.76 504.908 128.496C503.551 130.206 501.811 129.745 500.089 128.909C498.198 127.99 496.336 126.702 494.329 126.372C487.017 125.17 482.044 130.748 482.979 138.798C483.753 145.475 487.584 149.164 493.17 148.608C497.58 148.169 500.363 145.26 500.165 140.893Z" fill="#44C8F5"/>
<path d="M246.785 137.951C246.214 135.553 245.987 133.491 245.228 131.647C243.802 128.164 241.146 126.171 237.219 126.16C233.308 126.149 230.618 128.051 229.135 131.546C227.35 135.757 227.395 140.048 229.546 144.111C232.656 149.994 241.063 150.32 244.414 144.621C245.624 142.558 246.067 140.044 246.785 137.951ZM254.027 137.332C254.062 151.356 240.95 159.801 229.054 153.421C221.319 149.27 218.055 138.688 221.731 129.677C225.017 121.624 233.324 117.594 241.8 119.943C249.126 121.974 254.007 128.915 254.027 137.332Z" fill="#44C8F5"/>
<path d="M265.653 135.422C268.928 134.982 272.529 136.62 274.414 133.172C275.092 131.931 274.914 129.403 274.049 128.307C271.849 125.517 268.556 127.131 265.653 126.718C265.653 129.801 265.653 132.428 265.653 135.422ZM273.895 140.435C276.643 143.39 279.132 146.024 281.577 148.702C283.402 150.705 283.408 152.771 281.675 154.255C280.033 155.657 277.771 155.345 276.076 153.388C274.338 151.378 272.674 149.301 270.981 147.252C269.359 145.291 267.737 143.324 265.526 141.473C265.526 144.504 265.72 147.552 265.442 150.559C265.31 151.975 264.632 153.787 263.571 154.58C261.279 156.293 258.207 154.493 258.178 151.497C258.084 142.201 258.133 132.905 258.145 123.607C258.147 121.553 259.137 120.043 261.235 119.997C265.486 119.906 269.789 119.729 273.984 120.258C279.435 120.944 282.32 124.315 282.71 129.386C283.135 134.886 280.983 138.002 275.448 139.902C275.041 140.041 274.636 140.183 273.895 140.435Z" fill="#44C8F5"/>
<path d="M177.25 118.935C179.608 119.614 182.048 120.096 184.299 121.032C186.305 121.865 187.296 123.572 186.28 125.805C185.333 127.883 183.676 128.168 181.606 127.546C179.924 127.041 178.111 126.317 176.469 126.535C175.182 126.705 173.502 127.936 173.009 129.116C172.276 130.873 174.08 131.662 175.527 132.185C177.938 133.058 180.411 133.771 182.805 134.692C186.735 136.207 188.99 139.088 189.195 143.327C189.396 147.524 187.868 151.067 184.208 153.264C178.521 156.675 172.636 155.973 166.891 153.349C164.856 152.419 164.163 150.489 165.029 148.408C165.921 146.259 167.824 146.216 169.776 146.753C170.886 147.057 171.952 147.583 173.076 147.761C174.632 148.008 176.244 148.234 177.795 148.087C179.786 147.895 181.247 146.477 181.062 144.56C180.947 143.376 179.721 141.988 178.614 141.291C177.236 140.422 175.478 140.132 173.865 139.655C166.756 137.547 164.149 134.427 164.897 128.879C165.66 123.206 170.653 119.318 177.25 118.935Z" fill="#44C8F5"/>
<path d="M200.79 136.902C204.257 136.529 207.858 137.893 210.015 134.33C211.202 132.369 211.138 130.158 209.679 128.341C207.268 125.339 203.953 126.531 200.79 126.464C200.79 129.997 200.79 133.231 200.79 136.902ZM200.654 143.264C200.654 146.088 200.693 148.552 200.642 151.013C200.588 153.737 199.441 155.027 197.15 155.093C194.843 155.158 193.356 153.894 193.329 151.291C193.24 142.075 193.254 132.854 193.334 123.638C193.355 121.24 194.767 119.905 197.263 119.909C200.461 119.913 203.665 119.815 206.857 119.951C213.597 120.236 218.313 124.982 218.427 131.437C218.541 137.908 213.997 142.742 207.214 143.239C205.185 143.39 203.135 143.264 200.654 143.264Z" fill="#44C8F5"/>
<path d="M519.675 126.743C519.675 129.237 519.675 131.334 519.675 133.793C522.122 133.793 524.485 133.762 526.85 133.8C529.7 133.845 531.308 135.158 531.239 137.309C531.175 139.362 529.615 140.597 526.934 140.641C524.627 140.68 522.318 140.649 519.795 140.649C519.795 143.075 519.795 145.403 519.795 148.087C522.507 148.087 525.226 148.063 527.947 148.093C530.699 148.121 532.145 149.295 532.156 151.43C532.169 153.542 530.685 154.852 527.993 154.895C524.176 154.961 520.352 154.978 516.534 154.891C513.428 154.821 512.187 153.537 512.174 150.437C512.136 141.838 512.131 133.241 512.174 124.644C512.191 121.109 513.471 119.923 517.055 119.905C520.521 119.887 523.987 119.879 527.451 119.909C530.229 119.931 531.673 121.065 531.731 123.193C531.791 125.349 530.187 126.683 527.355 126.733C524.883 126.776 522.407 126.743 519.675 126.743Z" fill="#44C8F5"/>
<path d="M391.072 126.736C391.072 129.15 391.072 131.251 391.072 133.791C393.388 133.791 395.744 133.768 398.102 133.797C400.979 133.836 402.585 135.099 402.567 137.241C402.549 139.366 400.919 140.613 398.053 140.646C395.769 140.671 393.482 140.652 391.072 140.652C391.072 143.197 391.072 145.462 391.072 148.087C393.86 148.087 396.583 148.063 399.306 148.095C402.096 148.128 403.475 149.26 403.417 151.476C403.355 153.97 401.737 154.861 399.533 154.894C395.622 154.952 391.713 154.98 387.804 154.888C384.727 154.815 383.542 153.512 383.533 150.368C383.508 141.856 383.504 133.344 383.533 124.833C383.546 121.044 384.701 119.922 388.469 119.904C392.022 119.888 395.577 119.866 399.132 119.916C401.642 119.952 403.119 121.226 403.014 123.291C402.894 125.7 401.361 126.693 399.108 126.727C396.536 126.765 393.96 126.736 391.072 126.736Z" fill="#44C8F5"/>
<path d="M460.387 126.731C460.387 129.22 460.387 131.321 460.387 133.793C462.819 133.793 465.184 133.762 467.544 133.8C470.385 133.845 471.998 135.179 471.909 137.334C471.824 139.386 470.269 140.591 467.575 140.646C465.355 140.691 463.135 140.694 460.912 140.72C460.834 140.72 460.756 140.78 460.485 140.895C460.485 143.138 460.485 145.462 460.485 148.087C463.281 148.087 466.013 148.11 468.745 148.081C470.994 148.054 472.601 148.805 472.752 151.299C472.892 153.531 471.513 154.836 468.79 154.891C464.881 154.969 460.965 154.984 457.061 154.882C454.107 154.804 452.894 153.498 452.883 150.542C452.852 141.853 452.845 133.163 452.89 124.474C452.905 121.16 454.147 119.941 457.377 119.909C461.108 119.874 464.843 119.912 468.574 119.903C470.772 119.896 472.169 120.865 472.354 123.124C472.521 125.193 471.072 126.617 468.625 126.709C465.976 126.808 463.319 126.731 460.387 126.731Z" fill="#44C8F5"/>
<path d="M298.781 126.736C298.781 134.336 298.785 141.588 298.779 148.838C298.779 149.903 298.839 150.978 298.703 152.028C298.447 153.963 297.275 155.007 295.299 155.087C293.35 155.165 292.02 154.306 291.593 152.382C291.386 151.445 291.388 150.448 291.386 149.48C291.37 142.04 291.377 134.599 291.377 126.739C289.666 126.739 288.107 126.793 286.552 126.727C284.007 126.618 282.692 125.387 282.732 123.258C282.776 121.138 284.12 119.93 286.663 119.914C292.349 119.877 298.04 119.909 303.729 119.903C305.951 119.899 307.281 120.922 307.431 123.184C307.571 125.357 306.263 126.603 303.729 126.723C302.227 126.793 300.719 126.736 298.781 126.736Z" fill="#44C8F5"/>
</g>
<defs>
<clipPath id="clip0_2_136">
<rect width="577.175" height="160" fill="white"/>
</clipPath>
</defs>
</svg>
