<svg width="400" height="190" viewBox="0 0 400 190" fill="none" xmlns="http://www.w3.org/2000/svg">
<g clip-path="url(#clip0_2_85)">
<path d="M16.1863 43.6512C19.901 43.6512 22.5445 43.175 24.1171 42.2225C25.6902 41.2714 26.4904 40.2242 26.5177 39.081C26.5443 37.9391 26.2059 37.0284 25.501 36.3474C24.796 35.6693 23.806 35.0427 22.531 34.4717C21.256 33.9008 19.2907 33.1795 16.6323 32.3092C13.9746 31.4388 11.3017 30.297 8.61402 28.8822C5.07778 27.0329 2.60281 24.5445 1.18853 21.4169C0.395996 19.7849 0 17.7727 0 15.379C0 9.88549 2.27916 5.81933 6.83693 3.18051C10.5445 1.05971 14.9396 -0.00138373 20.0228 -0.00138373C25.1055 -0.00138373 29.7216 0.760327 33.8697 2.28374V13.1356L33.7539 13.2985C30.0566 12.1288 25.9906 11.544 21.5557 11.544C15.5075 11.544 12.4837 12.8905 12.4837 15.5823C12.4837 17.27 13.8898 18.7377 16.7025 19.9882C17.8933 20.587 19.9749 21.403 22.9514 22.4362C25.9264 23.4709 28.5542 24.5849 30.8366 25.7824C36.3066 28.6928 39.0421 32.8132 39.0421 38.1438C39.0421 43.4465 36.8462 47.6491 32.4544 50.7493C28.0624 53.8498 22.8644 55.4 16.8614 55.4C10.8573 55.4 5.83116 54.0271 1.78362 51.2797V39.9387C7.67134 42.4132 12.4723 43.6512 16.1863 43.6512Z" fill="white"/>
<path d="M61.6841 25.5777C71.5019 25.5777 76.4115 23.4708 76.4115 19.2543C76.4115 14.7941 71.5019 12.5633 61.6841 12.5633H59.0323V25.5777H61.6841ZM46.5486 54.5841V0.814617H60.7322C70.6784 0.814617 77.8584 2.22943 82.2731 5.05762C86.6873 7.88582 88.8953 12.4421 88.8953 18.7238C88.8953 25.0486 85.9498 29.8179 80.0588 33.0332C75.0951 35.7598 68.0863 37.1913 59.0323 37.3278V54.5841H46.5486Z" fill="white"/>
<path d="M106.805 27.4145C106.805 32.0808 108.178 35.9603 110.925 39.0517C113.644 42.1459 117.371 43.6776 122.103 43.6512C126.836 43.6512 130.521 42.2002 133.159 39.2968C135.797 36.3948 137.117 32.596 137.117 27.9032C137.117 23.2091 135.784 19.3434 133.118 16.3064C130.453 13.2679 126.781 11.7473 122.103 11.7473C117.425 11.7473 113.699 13.1997 110.925 16.1017C108.178 18.9772 106.805 22.7481 106.805 27.4145ZM94.3212 27.6999C94.3212 19.8322 96.9321 13.2554 102.154 7.96937C107.376 2.65553 114.08 -0.00138373 122.267 -0.00138373C130.426 -0.00138373 137.021 2.62351 142.053 7.8719C147.084 13.1217 149.601 19.6902 149.601 27.5774C149.601 35.4911 147.002 42.0999 141.808 47.404C136.613 52.7347 129.95 55.4 121.818 55.4C113.713 55.4 107.104 52.7428 101.991 47.4291C96.8771 42.1445 94.3212 35.5676 94.3212 27.6999Z" fill="white"/>
<path d="M170.039 12.5633V28.1079H171.508C177.11 28.0801 181.19 27.4089 183.747 26.0929C186.303 24.777 187.582 22.776 187.582 20.0884C187.582 17.4023 186.466 15.4708 184.235 14.2914C182.006 13.1398 178.117 12.5633 172.567 12.5633H170.039ZM157.556 54.5841V0.814616H172.964C181.984 0.814616 188.755 2.26424 193.278 5.16206C197.801 8.05989 200.064 12.5981 200.064 18.7725C200.064 22.8804 199.325 26.2503 197.849 28.8877C196.368 31.5266 194.248 33.7156 191.483 35.4562C192.55 37.8792 194.288 40.071 196.693 42.0317C199.099 43.9923 201.732 45.584 204.587 46.8094L204.751 47.1784L199.039 55.3184C195.518 55.3184 191.763 53.6344 187.777 50.2651C183.79 46.8957 180.923 43.1972 179.176 39.1701C176.103 39.6282 173.058 39.8566 170.039 39.8566V54.5841H157.556Z" fill="white"/>
<path d="M206.307 0.814617H250.488V12.5633H234.619V54.5841H222.135V12.5633H206.307V0.814617Z" fill="white"/>
<path d="M352.624 163.686C352.596 180.576 344.831 189.02 329.33 189.02C322.149 189.02 316.573 186.954 312.603 182.819C308.631 178.685 306.646 172.307 306.646 163.686V134.435H319.13V163.25C319.13 168.141 319.865 171.701 321.333 173.928C322.802 176.156 325.467 177.271 329.33 177.271C336.536 177.271 340.14 172.651 340.14 163.415V134.435H352.624V163.686Z" fill="white"/>
<path d="M376.153 177.271C379.867 177.271 382.511 176.795 384.085 175.843C385.658 174.891 386.458 173.844 386.484 172.701C386.512 171.559 386.174 170.649 385.468 169.969C384.763 169.288 383.773 168.663 382.497 168.092C381.223 167.521 379.258 166.8 376.6 165.929C373.942 165.059 371.27 163.917 368.581 162.502C365.045 160.653 362.571 158.165 361.156 155.037C360.363 153.405 359.967 151.393 359.967 148.999C359.967 143.505 362.246 139.439 366.805 136.801C370.512 134.68 374.907 133.619 379.99 133.619C385.074 133.619 389.688 134.38 393.837 135.904V146.756L393.721 146.919C390.023 145.749 385.958 145.164 381.523 145.164C375.475 145.164 372.45 146.511 372.45 149.202C372.45 150.889 373.857 152.358 376.67 153.61C377.86 154.207 379.942 155.023 382.919 156.057C385.894 157.091 388.521 158.205 390.804 159.402C396.274 162.313 399.01 166.434 399.01 171.764C399.01 177.067 396.813 181.269 392.422 184.369C388.03 187.47 382.832 189.02 376.829 189.02C370.824 189.02 365.798 187.647 361.752 184.9V173.559C367.638 176.033 372.439 177.271 376.153 177.271Z" fill="white"/>
<path d="M111.784 177.271C115.129 177.271 119.617 176.643 125.247 175.389L125.9 175.879V187.353C120.678 188.463 115.89 189.02 111.539 189.02C102.891 189.02 95.7431 186.341 90.0968 180.983C84.32 175.623 81.4316 168.783 81.4316 160.459C81.4316 156.815 82.19 153.362 83.7053 150.098C86.851 143.328 92.1991 138.528 99.7492 135.7C103.366 134.313 107.46 133.619 112.029 133.619C116.598 133.619 121.222 134.092 125.9 135.041V146.513L125.288 147.045C120.229 145.926 115.796 145.369 111.988 145.369C106.467 145.369 102.075 146.948 98.8109 150.112C95.5471 153.274 93.9154 157.012 93.9154 161.32C93.9154 165.655 95.5471 169.402 98.8109 172.566C102.075 175.729 106.399 177.298 111.784 177.271Z" fill="white"/>
<path d="M399.999 35.6818H262.587V24.3398H399.999V35.6818Z" fill="white"/>
<path d="M69.2787 169.279H1.46594V157.939H69.2787V169.279Z" fill="white"/>
<path d="M1.63184 67.6552H14.1155V121.425H1.63184V67.6552Z" fill="white"/>
<path d="M36.7983 121.425H24.3146V67.6552H36.7983L56.8292 99.7212V67.6552H69.313V121.425H56.8292L36.7983 89.3998V121.425Z" fill="white"/>
<path d="M92.3629 121.425H79.8793V67.6552H92.3629L112.394 99.7212V67.6552H124.878V121.425H112.394L92.3629 89.3998V121.425Z" fill="white"/>
<path d="M145.684 94.2562C145.684 98.9205 147.057 102.802 149.804 105.894C152.524 108.986 156.25 110.519 160.982 110.491C165.715 110.491 169.4 109.041 172.038 106.139C174.676 103.235 175.995 99.4373 175.995 94.743C175.995 90.0502 174.662 86.1844 171.998 83.1464C169.331 80.1085 165.659 78.5887 160.982 78.5887C156.304 78.5887 152.578 80.0405 149.804 82.943C147.057 85.8184 145.684 89.589 145.684 94.2562ZM133.2 94.5401C133.2 86.6724 135.811 80.0959 141.033 74.8093C146.255 69.4965 152.96 66.8393 161.146 66.8393C169.305 66.8393 175.9 69.4644 180.931 74.713C185.962 79.9621 188.478 86.5304 188.478 94.4177C188.478 102.332 185.881 108.941 180.686 114.245C175.492 119.575 168.829 122.241 160.696 122.241C152.592 122.241 145.983 119.584 140.87 114.27C135.756 108.985 133.2 102.407 133.2 94.5401Z" fill="white"/>
<path d="M191.13 67.6552H204.267L217.159 105.066L230.05 67.6552H243.186L224.664 121.425H209.611L191.13 67.6552Z" fill="white"/>
<path d="M260.035 100.129H273.906L266.97 79.8942L260.035 100.129ZM277.985 111.878H255.996L252.691 121.425H239.514L257.995 67.6552H276.19L294.712 121.425H281.289L277.985 111.878Z" fill="white"/>
<path d="M290.632 67.6552H334.815V79.4046H318.944V121.425H306.462V79.4046H290.632V67.6552Z" fill="white"/>
<path d="M340.527 67.6552H353.01V121.425H340.527V67.6552Z" fill="white"/>
<path d="M362.802 67.6552H399.681V79.4046H375.284V88.951H399.681V100.496H375.284V109.675H399.681V121.425H362.802V67.6552Z" fill="white"/>
<path d="M152.932 166.908H166.803L159.866 146.673L152.932 166.908ZM170.881 178.658H148.892L145.588 188.204H132.411L150.892 134.435H169.086L187.608 188.204H174.186L170.881 178.658Z" fill="white"/>
<path d="M232.299 159.035L226.179 171.519H213.737L207.414 158.872L207.046 188.204H194.562L194.93 134.435H207.74L219.898 158.994L231.932 134.435H244.783L245.272 188.204H232.788L232.299 159.035Z" fill="white"/>
<path d="M271.035 159.198C280.854 159.198 285.762 157.091 285.762 152.875C285.762 148.414 280.854 146.183 271.035 146.183H268.384V159.198H271.035ZM255.9 188.204V134.435H270.084C280.029 134.435 287.209 135.849 291.625 138.678C296.039 141.506 298.246 146.063 298.246 152.344C298.246 158.668 295.301 163.438 289.411 166.655C284.446 169.38 277.438 170.811 268.384 170.948V188.204H255.9Z" fill="white"/>
</g>
<defs>
<clipPath id="clip0_2_85">
<rect width="400" height="189.02" fill="white"/>
</clipPath>
</defs>
</svg>
