<svg width="400" height="190" viewBox="0 0 400 190" fill="none" xmlns="http://www.w3.org/2000/svg">
<g clip-path="url(#clip0_2_216)">
<path d="M16.1863 43.6912C19.901 43.6912 22.5445 43.215 24.1171 42.2625C25.6902 41.3114 26.4904 40.2642 26.5177 39.121C26.5443 37.9791 26.2059 37.0684 25.501 36.3875C24.796 35.7093 23.806 35.0827 22.531 34.5118C21.256 33.9408 19.2907 33.2195 16.6323 32.3492C13.9746 31.4789 11.3017 30.337 8.61402 28.9222C5.07778 27.0729 2.60281 24.5845 1.18853 21.4569C0.395996 19.8249 0 17.8127 0 15.419C0 9.92551 2.27916 5.85935 6.83693 3.22053C10.5445 1.09973 14.9396 0.0386401 20.0228 0.0386401C25.1055 0.0386401 29.7216 0.800351 33.8697 2.32376V13.1756L33.7539 13.3386C30.0566 12.1688 25.9906 11.584 21.5557 11.584C15.5075 11.584 12.4837 12.9306 12.4837 15.6223C12.4837 17.31 13.8898 18.7777 16.7025 20.0282C17.8933 20.627 19.9749 21.443 22.9514 22.4762C25.9264 23.5109 28.5542 24.6249 30.8366 25.8225C36.3066 28.7328 39.0421 32.8533 39.0421 38.1838C39.0421 43.4865 36.8462 47.6891 32.4544 50.7893C28.0624 53.8899 22.8644 55.44 16.8614 55.44C10.8573 55.44 5.83116 54.0671 1.78362 51.3197V39.9788C7.67134 42.4533 12.4723 43.6912 16.1863 43.6912Z" fill="#44C8F5"/>
<path d="M61.6841 25.6178C71.5019 25.6178 76.4115 23.5109 76.4115 19.2944C76.4115 14.8341 71.5019 12.6033 61.6841 12.6033H59.0323V25.6178H61.6841ZM46.5486 54.6241V0.854671H60.7322C70.6784 0.854671 77.8584 2.26948 82.2731 5.09768C86.6873 7.92588 88.8953 12.4822 88.8953 18.7638C88.8953 25.0886 85.9498 29.858 80.0588 33.0733C75.0951 35.7998 68.0863 37.2314 59.0323 37.3678V54.6241H46.5486Z" fill="#44C8F5"/>
<path d="M106.805 27.4545C106.805 32.1208 108.178 36.0004 110.925 39.0917C113.644 42.1859 117.371 43.7177 122.103 43.6912C126.836 43.6912 130.521 42.2402 133.159 39.3368C135.797 36.4348 137.117 32.636 137.117 27.9433C137.117 23.2491 135.784 19.3835 133.118 16.3464C130.453 13.3079 126.781 11.7873 122.103 11.7873C117.425 11.7873 113.699 13.2397 110.925 16.1417C108.178 19.0172 106.805 22.7882 106.805 27.4545ZM94.3212 27.74C94.3212 19.8722 96.9321 13.2954 102.154 8.0094C107.376 2.69556 114.08 0.0386401 122.267 0.0386401C130.426 0.0386401 137.021 2.66354 142.053 7.91193C147.084 13.1617 149.601 19.7302 149.601 27.6174C149.601 35.5311 147.002 42.14 141.808 47.444C136.613 52.7747 129.95 55.44 121.818 55.44C113.713 55.44 107.104 52.7828 101.991 47.4691C96.8771 42.1845 94.3212 35.6077 94.3212 27.74Z" fill="#44C8F5"/>
<path d="M170.039 12.6033V28.148H171.508C177.11 28.1201 181.19 27.4489 183.747 26.133C186.303 24.8171 187.582 22.816 187.582 20.1285C187.582 17.4423 186.466 15.5109 184.235 14.3314C182.006 13.1798 178.117 12.6033 172.567 12.6033H170.039ZM157.556 54.6241V0.854655H172.964C181.984 0.854655 188.755 2.30428 193.278 5.2021C197.801 8.09992 200.064 12.6381 200.064 18.8125C200.064 22.9205 199.325 26.2904 197.849 28.9278C196.368 31.5666 194.248 33.7556 191.483 35.4963C192.55 37.9192 194.288 40.111 196.693 42.0717C199.099 44.0324 201.732 45.624 204.587 46.8494L204.751 47.2185L199.039 55.3584C195.518 55.3584 191.763 53.6744 187.777 50.3051C183.79 46.9358 180.923 43.2373 179.176 39.2101C176.103 39.6682 173.058 39.8966 170.039 39.8966V54.6241H157.556Z" fill="#44C8F5"/>
<path d="M206.307 0.854671H250.488V12.6033H234.619V54.6241H222.135V12.6033H206.307V0.854671Z" fill="#44C8F5"/>
<path d="M352.624 163.726C352.596 180.616 344.831 189.06 329.33 189.06C322.149 189.06 316.573 186.994 312.603 182.859C308.631 178.725 306.646 172.347 306.646 163.726V134.475H319.13V163.29C319.13 168.181 319.865 171.741 321.333 173.968C322.802 176.196 325.467 177.311 329.33 177.311C336.536 177.311 340.14 172.691 340.14 163.455V134.475H352.624V163.726Z" fill="#44C8F5"/>
<path d="M376.153 177.311C379.867 177.311 382.511 176.835 384.085 175.883C385.658 174.931 386.458 173.884 386.484 172.741C386.512 171.599 386.174 170.689 385.468 170.009C384.763 169.328 383.773 168.703 382.497 168.132C381.223 167.561 379.258 166.84 376.6 165.969C373.942 165.099 371.27 163.957 368.581 162.542C365.045 160.693 362.571 158.205 361.156 155.077C360.363 153.445 359.967 151.433 359.967 149.039C359.967 143.545 362.246 139.479 366.805 136.841C370.512 134.72 374.907 133.659 379.99 133.659C385.074 133.659 389.688 134.42 393.837 135.944V146.796L393.721 146.959C390.023 145.789 385.958 145.204 381.523 145.204C375.475 145.204 372.45 146.551 372.45 149.242C372.45 150.929 373.857 152.398 376.67 153.65C377.86 154.247 379.942 155.063 382.919 156.097C385.894 157.131 388.521 158.245 390.804 159.443C396.274 162.353 399.01 166.474 399.01 171.804C399.01 177.107 396.813 181.309 392.422 184.409C388.03 187.51 382.832 189.06 376.829 189.06C370.824 189.06 365.798 187.687 361.752 184.94V173.599C367.638 176.073 372.439 177.311 376.153 177.311Z" fill="#44C8F5"/>
<path d="M111.784 177.311C115.129 177.311 119.617 176.684 125.247 175.429L125.9 175.919V187.393C120.678 188.503 115.89 189.06 111.539 189.06C102.891 189.06 95.7431 186.381 90.0968 181.023C84.32 175.663 81.4316 168.823 81.4316 160.499C81.4316 156.855 82.19 153.402 83.7053 150.138C86.851 143.368 92.1991 138.568 99.7492 135.74C103.366 134.353 107.46 133.659 112.029 133.659C116.598 133.659 121.222 134.132 125.9 135.081V146.554L125.288 147.085C120.229 145.966 115.796 145.409 111.988 145.409C106.467 145.409 102.075 146.988 98.8109 150.152C95.5471 153.314 93.9154 157.052 93.9154 161.36C93.9154 165.695 95.5471 169.442 98.8109 172.606C102.075 175.769 106.399 177.338 111.784 177.311Z" fill="#44C8F5"/>
<path d="M399.999 35.7219H262.587V24.3798H399.999V35.7219Z" fill="#44C8F5"/>
<path d="M69.2787 169.32H1.46594V157.979H69.2787V169.32Z" fill="#44C8F5"/>
<path d="M1.63184 67.6952H14.1155V121.465H1.63184V67.6952Z" fill="#44C8F5"/>
<path d="M36.7983 121.465H24.3146V67.6952H36.7983L56.8292 99.7612V67.6952H69.313V121.465H56.8292L36.7983 89.4398V121.465Z" fill="#44C8F5"/>
<path d="M92.3629 121.465H79.8793V67.6952H92.3629L112.394 99.7612V67.6952H124.878V121.465H112.394L92.3629 89.4398V121.465Z" fill="#44C8F5"/>
<path d="M145.684 94.2962C145.684 98.9606 147.057 102.842 149.804 105.934C152.524 109.026 156.25 110.559 160.982 110.531C165.715 110.531 169.4 109.081 172.038 106.179C174.676 103.275 175.995 99.4774 175.995 94.783C175.995 90.0903 174.662 86.2245 171.998 83.1865C169.331 80.1485 165.659 78.6288 160.982 78.6288C156.304 78.6288 152.578 80.0806 149.804 82.983C147.057 85.8584 145.684 89.6291 145.684 94.2962ZM133.2 94.5801C133.2 86.7124 135.811 80.136 141.033 74.8493C146.255 69.5366 152.96 66.8794 161.146 66.8794C169.305 66.8794 175.9 69.5044 180.931 74.7531C185.962 80.0022 188.478 86.5704 188.478 94.4578C188.478 102.372 185.881 108.981 180.686 114.285C175.492 119.615 168.829 122.281 160.696 122.281C152.592 122.281 145.983 119.624 140.87 114.31C135.756 109.025 133.2 102.447 133.2 94.5801Z" fill="#44C8F5"/>
<path d="M191.13 67.6952H204.267L217.159 105.106L230.05 67.6952H243.186L224.664 121.465H209.611L191.13 67.6952Z" fill="#44C8F5"/>
<path d="M260.035 100.169H273.906L266.97 79.9342L260.035 100.169ZM277.985 111.918H255.996L252.691 121.465H239.514L257.995 67.6952H276.19L294.712 121.465H281.289L277.985 111.918Z" fill="#44C8F5"/>
<path d="M290.632 67.6952H334.815V79.4446H318.944V121.465H306.462V79.4446H290.632V67.6952Z" fill="#44C8F5"/>
<path d="M340.527 67.6952H353.01V121.465H340.527V67.6952Z" fill="#44C8F5"/>
<path d="M362.802 67.6952H399.681V79.4446H375.284V88.991H399.681V100.536H375.284V109.715H399.681V121.465H362.802V67.6952Z" fill="#44C8F5"/>
<path d="M152.932 166.948H166.803L159.866 146.713L152.932 166.948ZM170.881 178.698H148.892L145.588 188.244H132.411L150.892 134.475H169.086L187.608 188.244H174.186L170.881 178.698Z" fill="#44C8F5"/>
<path d="M232.299 159.075L226.179 171.559H213.737L207.414 158.912L207.046 188.244H194.562L194.93 134.475H207.74L219.898 159.035L231.932 134.475H244.783L245.272 188.244H232.788L232.299 159.075Z" fill="#44C8F5"/>
<path d="M271.035 159.238C280.854 159.238 285.762 157.131 285.762 152.915C285.762 148.454 280.854 146.223 271.035 146.223H268.384V159.238H271.035ZM255.9 188.244V134.475H270.084C280.029 134.475 287.209 135.889 291.625 138.718C296.039 141.546 298.246 146.103 298.246 152.384C298.246 158.708 295.301 163.478 289.411 166.695C284.446 169.42 277.438 170.851 268.384 170.988V188.244H255.9Z" fill="#44C8F5"/>
</g>
<defs>
<clipPath id="clip0_2_216">
<rect width="400" height="189.02" fill="white" transform="translate(0 0.0400391)"/>
</clipPath>
</defs>
</svg>
