<svg width="339" height="160" viewBox="0 0 339 160" fill="none" xmlns="http://www.w3.org/2000/svg">
<g clip-path="url(#clip0_2_191)">
<path d="M13.7013 36.9495C16.8456 36.9495 19.0833 36.5464 20.4144 35.7401C21.746 34.935 22.4233 34.0486 22.4464 33.0809C22.469 32.1143 22.1825 31.3435 21.5859 30.7671C20.9891 30.193 20.1511 29.6626 19.0719 29.1793C17.9926 28.6961 16.329 28.0855 14.0788 27.3488C11.8291 26.6121 9.56655 25.6455 7.29152 24.4479C4.29819 22.8826 2.2032 20.7762 1.00606 18.1288C0.3352 16.7473 0 15.0441 0 13.0178C0 8.36778 1.92924 4.92589 5.78726 2.69221C8.92562 0.897013 12.6459 -0.00117208 16.9488 -0.00117208C21.2511 -0.00117208 25.1584 0.643594 28.6697 1.93312V11.1189L28.5717 11.2568C25.442 10.2667 22.0003 9.77163 18.2463 9.77163C13.1266 9.77163 10.5671 10.9115 10.5671 13.1899C10.5671 14.6185 11.7573 15.8609 14.1382 16.9194C15.1461 17.4263 16.9082 18.117 19.4277 18.9916C21.946 19.8674 24.1703 20.8104 26.1023 21.8241C30.7325 24.2876 33.048 27.7755 33.048 32.2876C33.048 36.7762 31.1893 40.3336 27.4717 42.9578C23.754 45.5823 19.3541 46.8945 14.2727 46.8945C9.19037 46.8945 4.93591 45.7324 1.50978 43.4068V33.807C6.49357 35.9016 10.5574 36.9495 13.7013 36.9495Z" fill="black"/>
<path d="M52.2139 21.6508C60.5244 21.6508 64.6802 19.8674 64.6802 16.2982C64.6802 12.5228 60.5244 10.6344 52.2139 10.6344H49.9692V21.6508H52.2139ZM39.4021 46.2039V0.689549H51.4081C59.8273 0.689549 65.905 1.88714 69.6419 4.28113C73.3783 6.67512 75.2473 10.5319 75.2473 15.8491C75.2473 21.2029 72.7541 25.24 67.7675 27.9617C63.5659 30.2696 57.6332 31.4814 49.9692 31.5969V46.2039H39.4021Z" fill="black"/>
<path d="M90.4071 23.2055C90.4071 27.1555 91.5693 30.4394 93.895 33.0562C96.1966 35.6753 99.3512 36.9719 103.357 36.9495C107.363 36.9495 110.482 35.7213 112.715 33.2636C114.948 30.8071 116.065 27.5916 116.065 23.6193C116.065 19.6458 114.937 16.3737 112.681 13.8029C110.424 11.2309 107.316 9.94372 103.357 9.94372C99.3972 9.94372 96.2432 11.1731 93.895 13.6296C91.5693 16.0637 90.4071 19.2556 90.4071 23.2055ZM79.8401 23.4472C79.8401 16.7874 82.0502 11.2203 86.4704 6.74584C90.8906 2.24783 96.5655 -0.00117208 103.495 -0.00117208C110.402 -0.00117208 115.984 2.22073 120.244 6.66334C124.503 11.1071 126.633 16.6672 126.633 23.3435C126.633 30.0422 124.433 35.6364 120.036 40.1261C115.639 44.6384 109.999 46.8945 103.115 46.8945C96.2548 46.8945 90.6604 44.6452 86.3323 40.1474C82.0036 35.6741 79.8401 30.107 79.8401 23.4472Z" fill="black"/>
<path d="M143.933 10.6344V23.7925H145.176C149.918 23.769 153.372 23.2008 155.536 22.0869C157.7 20.973 158.782 19.2792 158.782 17.0043C158.782 14.7305 157.838 13.0956 155.95 12.0972C154.063 11.1224 150.771 10.6344 146.073 10.6344H143.933ZM133.367 46.2039V0.689546H146.409C154.044 0.689546 159.776 1.91661 163.605 4.36953C167.433 6.82246 169.348 10.6639 169.348 15.8904C169.348 19.3676 168.723 22.2201 167.473 24.4526C166.22 26.6863 164.425 28.5393 162.085 30.0127C162.988 32.0636 164.459 33.919 166.495 35.5786C168.532 37.2382 170.761 38.5855 173.177 39.6228L173.316 39.9352L168.481 46.8254C165.5 46.8254 162.322 45.4 158.947 42.5479C155.573 39.6959 153.146 36.5652 151.668 33.1563C149.066 33.5441 146.488 33.7374 143.933 33.7374V46.2039H133.367Z" fill="black"/>
<path d="M174.633 0.689549H212.031V10.6344H198.598V46.2039H188.031V10.6344H174.633V0.689549Z" fill="black"/>
<path d="M298.486 138.555C298.462 152.852 291.89 160 278.768 160C272.69 160 267.97 158.251 264.609 154.751C261.248 151.252 259.567 145.853 259.567 138.555V113.795H270.134V138.187C270.134 142.326 270.757 145.34 271.999 147.225C273.242 149.111 275.499 150.055 278.768 150.055C284.868 150.055 287.919 146.144 287.919 138.326V113.795H298.486V138.555Z" fill="black"/>
<path d="M318.403 150.055C321.547 150.055 323.785 149.652 325.117 148.846C326.449 148.041 327.125 147.154 327.148 146.186C327.171 145.22 326.885 144.449 326.287 143.874C325.691 143.298 324.853 142.768 323.773 142.285C322.695 141.802 321.031 141.191 318.781 140.454C316.531 139.718 314.269 138.751 311.993 137.554C309 135.988 306.906 133.882 305.708 131.235C305.037 129.853 304.701 128.15 304.701 126.124C304.701 121.473 306.631 118.031 310.49 115.798C313.628 114.003 317.348 113.105 321.65 113.105C325.954 113.105 329.86 113.749 333.372 115.039V124.224L333.274 124.362C330.143 123.373 326.702 122.877 322.948 122.877C317.829 122.877 315.269 124.017 315.269 126.295C315.269 127.723 316.459 128.966 318.84 130.026C319.848 130.532 321.61 131.223 324.13 132.097C326.648 132.973 328.872 133.916 330.804 134.93C335.434 137.393 337.75 140.881 337.75 145.393C337.75 149.882 335.89 153.439 332.174 156.063C328.456 158.688 324.056 160 318.975 160C313.892 160 309.638 158.838 306.213 156.512V146.913C311.195 149.007 315.259 150.055 318.403 150.055Z" fill="black"/>
<path d="M94.622 150.055C97.4536 150.055 101.252 149.524 106.018 148.461L106.57 148.876V158.589C102.15 159.529 98.0973 160 94.4148 160C87.0938 160 81.0437 157.732 76.2643 153.197C71.3744 148.659 68.9294 142.87 68.9294 135.824C68.9294 132.74 69.5714 129.816 70.8541 127.053C73.5168 121.323 78.0438 117.26 84.4347 114.866C87.4962 113.692 90.9614 113.105 94.8292 113.105C98.6968 113.105 102.611 113.505 106.57 114.308V124.019L106.052 124.47C101.77 123.522 98.0178 123.051 94.7947 123.051C90.1208 123.051 86.4031 124.387 83.6405 127.065C80.8778 129.742 79.4966 132.906 79.4966 136.553C79.4966 140.222 80.8778 143.394 83.6405 146.072C86.4031 148.749 90.0636 150.078 94.622 150.055Z" fill="black"/>
<path d="M338.587 30.2036H222.272V20.6029H338.587V30.2036Z" fill="black"/>
<path d="M58.6425 143.29H1.24097V133.691H58.6425V143.29Z" fill="black"/>
<path d="M1.38135 57.2682H11.9484V102.783H1.38135V57.2682Z" fill="black"/>
<path d="M31.1487 102.783H20.5815V57.2682H31.1487L48.1043 84.4111V57.2682H58.6714V102.783H48.1043L31.1487 75.6743V102.783Z" fill="black"/>
<path d="M78.1825 102.783H67.6155V57.2682H78.1825L95.1382 84.4111V57.2682H105.705V102.783H95.1382L78.1825 75.6743V102.783Z" fill="black"/>
<path d="M123.317 79.7851C123.317 83.7334 124.479 87.0186 126.805 89.6362C129.107 92.2538 132.261 93.5509 136.266 93.5277C140.273 93.5277 143.392 92.2998 145.625 89.8434C147.858 87.3855 148.974 84.1708 148.974 80.1972C148.974 76.2249 147.846 72.9527 145.591 70.381C143.334 67.8095 140.226 66.5231 136.266 66.5231C132.307 66.5231 129.153 67.752 126.805 70.2088C124.479 72.6428 123.317 75.8345 123.317 79.7851ZM112.75 80.0255C112.75 73.3657 114.96 67.7989 119.38 63.3239C123.8 58.8268 129.476 56.5776 136.405 56.5776C143.312 56.5776 148.894 58.7996 153.153 63.2424C157.412 67.6856 159.541 73.2454 159.541 79.9219C159.541 86.6213 157.343 92.2156 152.945 96.7049C148.549 101.217 142.908 103.473 136.025 103.473C129.165 103.473 123.57 101.224 119.242 96.7265C114.914 92.2524 112.75 86.6848 112.75 80.0255Z" fill="black"/>
<path d="M161.786 57.2682H172.906L183.818 88.935L194.731 57.2682H205.85L190.172 102.783H177.43L161.786 57.2682Z" fill="black"/>
<path d="M220.113 84.7564H231.854L225.983 67.6281L220.113 84.7564ZM235.306 94.7019H216.693L213.896 102.783H202.742L218.386 57.2682H233.787L249.465 102.783H238.103L235.306 94.7019Z" fill="black"/>
<path d="M246.011 57.2682H283.411V67.2137H269.977V102.783H259.411V67.2137H246.011V57.2682Z" fill="black"/>
<path d="M288.246 57.2682H298.812V102.783H288.246V57.2682Z" fill="black"/>
<path d="M307.101 57.2682H338.319V67.2137H317.667V75.2944H338.319V85.0672H317.667V92.8371H338.319V102.783H307.101V57.2682Z" fill="black"/>
<path d="M129.452 141.283H141.194L135.322 124.155L129.452 141.283ZM144.646 151.229H126.033L123.236 159.309H112.082L127.725 113.795H143.127L158.805 159.309H147.443L144.646 151.229Z" fill="black"/>
<path d="M196.635 134.619L191.454 145.186H180.922L175.57 134.481L175.259 159.309H164.691L165.003 113.795H175.846L186.137 134.584L196.324 113.795H207.202L207.616 159.309H197.049L196.635 134.619Z" fill="black"/>
<path d="M229.423 134.756C237.735 134.756 241.89 132.973 241.89 129.404C241.89 125.628 237.735 123.74 229.423 123.74H227.179V134.756H229.423ZM216.612 159.309V113.795H228.618C237.037 113.795 243.114 114.993 246.852 117.387C250.589 119.781 252.457 123.638 252.457 128.955C252.457 134.307 249.964 138.346 244.978 141.069C240.776 143.375 234.843 144.587 227.179 144.702V159.309H216.612Z" fill="black"/>
</g>
<defs>
<clipPath id="clip0_2_191">
<rect width="338.588" height="160" fill="white"/>
</clipPath>
</defs>
</svg>
