<svg width="400" height="190" viewBox="0 0 400 190" fill="none" xmlns="http://www.w3.org/2000/svg">
<g clip-path="url(#clip0_2_191)">
<path d="M16.1863 43.6712C19.901 43.6712 22.5445 43.195 24.1171 42.2425C25.6902 41.2914 26.4904 40.2442 26.5177 39.101C26.5443 37.9591 26.2059 37.0484 25.501 36.3675C24.796 35.6893 23.806 35.0627 22.531 34.4917C21.256 33.9208 19.2907 33.1995 16.6323 32.3292C13.9746 31.4588 11.3017 30.317 8.61402 28.9022C5.07778 27.0529 2.60281 24.5645 1.18853 21.4369C0.395996 19.8049 0 17.7927 0 15.399C0 9.90549 2.27916 5.83933 6.83693 3.20051C10.5445 1.07971 14.9396 0.0186205 20.0228 0.0186205C25.1055 0.0186205 29.7216 0.780331 33.8697 2.30374V13.1556L33.7539 13.3185C30.0566 12.1488 25.9906 11.564 21.5557 11.564C15.5075 11.564 12.4837 12.9105 12.4837 15.6023C12.4837 17.29 13.8898 18.7577 16.7025 20.0082C17.8933 20.607 19.9749 21.423 22.9514 22.4562C25.9264 23.4909 28.5542 24.6049 30.8366 25.8024C36.3066 28.7128 39.0421 32.8333 39.0421 38.1638C39.0421 43.4665 36.8462 47.6691 32.4544 50.7693C28.0624 53.8698 22.8644 55.42 16.8614 55.42C10.8573 55.42 5.83116 54.0471 1.78362 51.2997V39.9588C7.67134 42.4333 12.4723 43.6712 16.1863 43.6712Z" fill="black"/>
<path d="M61.6841 25.5978C71.5019 25.5978 76.4115 23.4909 76.4115 19.2743C76.4115 14.8141 71.5019 12.5833 61.6841 12.5833H59.0323V25.5978H61.6841ZM46.5486 54.6041V0.834651H60.7322C70.6784 0.834651 77.8584 2.24946 82.2731 5.07766C86.6873 7.90586 88.8953 12.4622 88.8953 18.7438C88.8953 25.0686 85.9498 29.838 80.0588 33.0533C75.0951 35.7798 68.0863 37.2113 59.0323 37.3478V54.6041H46.5486Z" fill="black"/>
<path d="M106.805 27.4345C106.805 32.1008 108.178 35.9803 110.925 39.0717C113.644 42.1659 117.371 43.6976 122.103 43.6712C126.836 43.6712 130.521 42.2202 133.159 39.3168C135.797 36.4148 137.117 32.616 137.117 27.9232C137.117 23.2291 135.784 19.3634 133.118 16.3264C130.453 13.2879 126.781 11.7673 122.103 11.7673C117.425 11.7673 113.699 13.2197 110.925 16.1217C108.178 18.9972 106.805 22.7681 106.805 27.4345ZM94.3212 27.7199C94.3212 19.8522 96.9321 13.2754 102.154 7.98938C107.376 2.67554 114.08 0.0186205 122.267 0.0186205C130.426 0.0186205 137.021 2.64352 142.053 7.89191C147.084 13.1417 149.601 19.7102 149.601 27.5974C149.601 35.5111 147.002 42.1199 141.808 47.424C136.613 52.7547 129.95 55.42 121.818 55.42C113.713 55.42 107.104 52.7628 101.991 47.4491C96.8771 42.1645 94.3212 35.5876 94.3212 27.7199Z" fill="black"/>
<path d="M170.039 12.5833V28.1279H171.508C177.11 28.1001 181.19 27.4289 183.747 26.113C186.303 24.797 187.582 22.796 187.582 20.1084C187.582 17.4223 186.466 15.4909 184.235 14.3114C182.006 13.1598 178.117 12.5833 172.567 12.5833H170.039ZM157.556 54.6041V0.834635H172.964C181.984 0.834635 188.755 2.28426 193.278 5.18208C197.801 8.0799 200.064 12.6181 200.064 18.7925C200.064 22.9004 199.325 26.2703 197.849 28.9078C196.368 31.5466 194.248 33.7356 191.483 35.4762C192.55 37.8992 194.288 40.091 196.693 42.0517C199.099 44.0124 201.732 45.604 204.587 46.8294L204.751 47.1984L199.039 55.3384C195.518 55.3384 191.763 53.6544 187.777 50.2851C183.79 46.9158 180.923 43.2172 179.176 39.1901C176.103 39.6482 173.058 39.8766 170.039 39.8766V54.6041H157.556Z" fill="black"/>
<path d="M206.307 0.834651H250.488V12.5833H234.619V54.6041H222.135V12.5833H206.307V0.834651Z" fill="black"/>
<path d="M352.624 163.706C352.596 180.596 344.831 189.04 329.33 189.04C322.149 189.04 316.573 186.974 312.603 182.839C308.631 178.705 306.646 172.327 306.646 163.706V134.455H319.13V163.27C319.13 168.161 319.865 171.721 321.333 173.948C322.802 176.176 325.467 177.291 329.33 177.291C336.536 177.291 340.14 172.671 340.14 163.435V134.455H352.624V163.706Z" fill="black"/>
<path d="M376.153 177.291C379.867 177.291 382.511 176.815 384.085 175.863C385.658 174.911 386.458 173.864 386.484 172.721C386.512 171.579 386.174 170.669 385.468 169.989C384.763 169.308 383.773 168.683 382.497 168.112C381.223 167.541 379.258 166.82 376.6 165.949C373.942 165.079 371.27 163.937 368.581 162.522C365.045 160.673 362.571 158.185 361.156 155.057C360.363 153.425 359.967 151.413 359.967 149.019C359.967 143.525 362.246 139.459 366.805 136.821C370.512 134.7 374.907 133.639 379.99 133.639C385.074 133.639 389.688 134.4 393.837 135.924V146.776L393.721 146.939C390.023 145.769 385.958 145.184 381.523 145.184C375.475 145.184 372.45 146.531 372.45 149.222C372.45 150.909 373.857 152.378 376.67 153.63C377.86 154.227 379.942 155.043 382.919 156.077C385.894 157.111 388.521 158.225 390.804 159.422C396.274 162.333 399.01 166.454 399.01 171.784C399.01 177.087 396.813 181.289 392.422 184.389C388.03 187.49 382.832 189.04 376.829 189.04C370.824 189.04 365.798 187.667 361.752 184.92V173.579C367.638 176.053 372.439 177.291 376.153 177.291Z" fill="black"/>
<path d="M111.784 177.291C115.129 177.291 119.617 176.664 125.247 175.409L125.9 175.899V187.373C120.678 188.483 115.89 189.04 111.539 189.04C102.891 189.04 95.7431 186.361 90.0968 181.003C84.32 175.643 81.4316 168.803 81.4316 160.479C81.4316 156.835 82.19 153.382 83.7053 150.118C86.851 143.348 92.1991 138.548 99.7492 135.72C103.366 134.333 107.46 133.639 112.029 133.639C116.598 133.639 121.222 134.112 125.9 135.061V146.534L125.288 147.065C120.229 145.946 115.796 145.389 111.988 145.389C106.467 145.389 102.075 146.968 98.8109 150.132C95.5471 153.294 93.9154 157.032 93.9154 161.34C93.9154 165.675 95.5471 169.422 98.8109 172.586C102.075 175.749 106.399 177.318 111.784 177.291Z" fill="black"/>
<path d="M399.999 35.7018H262.587V24.3598H399.999V35.7018Z" fill="black"/>
<path d="M69.2787 169.299H1.46594V157.959H69.2787V169.299Z" fill="black"/>
<path d="M1.63184 67.6752H14.1155V121.445H1.63184V67.6752Z" fill="black"/>
<path d="M36.7983 121.445H24.3146V67.6752H36.7983L56.8292 99.7413V67.6752H69.313V121.445H56.8292L36.7983 89.4198V121.445Z" fill="black"/>
<path d="M92.3629 121.445H79.8793V67.6752H92.3629L112.394 99.7413V67.6752H124.878V121.445H112.394L92.3629 89.4198V121.445Z" fill="black"/>
<path d="M145.684 94.2762C145.684 98.9406 147.057 102.822 149.804 105.914C152.524 109.006 156.25 110.539 160.982 110.511C165.715 110.511 169.4 109.061 172.038 106.159C174.676 103.255 175.995 99.4573 175.995 94.763C175.995 90.0702 174.662 86.2045 171.998 83.1664C169.331 80.1285 165.659 78.6087 160.982 78.6087C156.304 78.6087 152.578 80.0606 149.804 82.963C147.057 85.8384 145.684 89.609 145.684 94.2762ZM133.2 94.5601C133.2 86.6924 135.811 80.116 141.033 74.8293C146.255 69.5166 152.96 66.8594 161.146 66.8594C169.305 66.8594 175.9 69.4844 180.931 74.7331C185.962 79.9822 188.478 86.5504 188.478 94.4377C188.478 102.352 185.881 108.961 180.686 114.265C175.492 119.595 168.829 122.261 160.696 122.261C152.592 122.261 145.983 119.604 140.87 114.29C135.756 109.005 133.2 102.427 133.2 94.5601Z" fill="black"/>
<path d="M191.13 67.6752H204.267L217.159 105.086L230.05 67.6752H243.186L224.664 121.445H209.611L191.13 67.6752Z" fill="black"/>
<path d="M260.035 100.149H273.906L266.97 79.9142L260.035 100.149ZM277.985 111.898H255.996L252.691 121.445H239.514L257.995 67.6752H276.19L294.712 121.445H281.289L277.985 111.898Z" fill="black"/>
<path d="M290.632 67.6752H334.815V79.4246H318.944V121.445H306.462V79.4246H290.632V67.6752Z" fill="black"/>
<path d="M340.527 67.6752H353.01V121.445H340.527V67.6752Z" fill="black"/>
<path d="M362.802 67.6752H399.681V79.4246H375.284V88.971H399.681V100.516H375.284V109.696H399.681V121.445H362.802V67.6752Z" fill="black"/>
<path d="M152.932 166.928H166.803L159.866 146.693L152.932 166.928ZM170.881 178.678H148.892L145.588 188.224H132.411L150.892 134.455H169.086L187.608 188.224H174.186L170.881 178.678Z" fill="black"/>
<path d="M232.299 159.055L226.179 171.539H213.737L207.414 158.892L207.046 188.224H194.562L194.93 134.455H207.74L219.898 159.014L231.932 134.455H244.783L245.272 188.224H232.788L232.299 159.055Z" fill="black"/>
<path d="M271.035 159.218C280.854 159.218 285.762 157.111 285.762 152.895C285.762 148.434 280.854 146.203 271.035 146.203H268.384V159.218H271.035ZM255.9 188.224V134.455H270.084C280.029 134.455 287.209 135.869 291.625 138.698C296.039 141.526 298.246 146.083 298.246 152.364C298.246 158.688 295.301 163.458 289.411 166.675C284.446 169.4 277.438 170.831 268.384 170.968V188.224H255.9Z" fill="black"/>
</g>
<defs>
<clipPath id="clip0_2_191">
<rect width="400" height="189.02" fill="white" transform="translate(0 0.0200195)"/>
</clipPath>
</defs>
</svg>
