<svg width="719" height="160" viewBox="0 0 719 160" fill="none" xmlns="http://www.w3.org/2000/svg">
<g clip-path="url(#clip0_447_4041)">
<mask id="mask0_447_4041" style="mask-type:luminance" maskUnits="userSpaceOnUse" x="0" y="0" width="120" height="160">
<path d="M0 0H119.206V159.994H0V0Z" fill="white"/>
</mask>
<g mask="url(#mask0_447_4041)">
<path fill-rule="evenodd" clip-rule="evenodd" d="M40.9794 89.1226C37.3037 80.0392 35.1296 69.8779 35.7744 60.0483C35.9402 57.4227 36.3087 54.7972 36.8799 52.2269C37.4142 49.7304 38.5934 47.1877 38.6303 44.6175C38.6395 44.424 38.6579 44.1845 38.5474 44.0187C55.1573 69.5278 82.5642 63.5674 107.373 70.6333C117.673 56.3909 123.458 38.2517 115.452 21.5681C109.013 8.16402 95.1207 0.333483 80.4638 0.0110494C57.4973 -0.48642 34.7334 15.8932 21.007 33.1204C5.6591 52.3651 -1.45288 77.1741 0.242205 101.642C1.20951 115.369 4.73786 129.501 11.6103 141.504C13.4436 144.71 15.5164 147.778 17.8102 150.68C20.0581 153.499 23.0982 155.959 24.7288 159.183C24.8485 159.432 25.0328 159.717 24.9959 159.994C27.8426 136.769 40.6201 123.457 56.0141 112.181C49.6115 105.548 44.4709 97.7178 40.9794 89.1226Z" fill="#24B2B9"/>
</g>
<path fill-rule="evenodd" clip-rule="evenodd" d="M112.331 72.2446C110.692 71.6365 109.043 71.1022 107.375 70.6324C105.256 73.5619 103.018 76.3717 100.604 78.9235C87.5132 92.6316 70.5992 101.494 56.016 112.18C61.6724 118.039 68.2961 122.959 75.7305 126.487C89.9084 133.203 109.614 136.556 124.16 129.048C133.437 124.258 139.876 114.898 139.794 104.294C139.683 88.4123 126.113 77.3298 112.331 72.2446Z" fill="#F3474F"/>
<path fill-rule="evenodd" clip-rule="evenodd" d="M107.374 70.6343C82.5652 63.5592 55.1583 69.5288 38.5484 44.0104C38.6589 44.1855 38.6405 44.425 38.6313 44.6185C38.5944 47.1887 37.4152 49.7221 36.8809 52.2279C36.3097 54.7982 35.9412 57.4145 35.7754 60.0492C35.1305 69.8789 37.3047 80.0401 40.9804 89.1236C44.4719 97.7095 49.6124 105.549 56.0151 112.182C70.5983 101.496 87.5123 92.6335 100.603 78.9162C103.017 76.3736 105.265 73.5546 107.374 70.6343Z" fill="#23356A"/>
<path fill-rule="evenodd" clip-rule="evenodd" d="M356.9 94.323C359.003 86.0335 366.551 83.0641 373.221 83.0641C379.779 83.0641 387.078 85.7963 388.81 94.323H356.9ZM372.984 68.609C351.58 68.609 338.104 84.0642 338.104 101.994C338.104 120.171 351.961 134.884 374.706 134.884C382.872 134.884 391.398 133.028 398.698 127.708C402.039 125.233 402.276 121.903 399.812 118.934L398.44 117.202C396.1 114.356 393.378 114.108 390.037 115.964C385.212 118.676 380.521 119.8 375.943 119.8C363.695 119.8 356.158 112.5 356.405 104.953H400.678C404.379 104.953 406.864 103.355 406.73 99.7565C405.864 79.4864 391.038 68.609 372.984 68.609Z" fill="#23356A"/>
<path fill-rule="evenodd" clip-rule="evenodd" d="M224.869 118.679H193.711L225.859 84.1807C227.962 81.8403 228.705 79.737 228.705 76.7676V75.9015C228.705 72.0661 226.601 69.9628 222.766 69.9628H173.802C169.967 69.9628 167.863 72.0661 167.863 75.9015V78.8709C167.863 82.7063 169.967 84.7993 173.802 84.7993H201.372L169.101 119.421C166.997 121.782 166.245 123.875 166.245 126.845V127.587C166.245 131.412 168.358 133.516 172.194 133.516H224.869C228.705 133.516 230.798 131.412 230.932 127.587V124.618C230.932 120.782 228.705 118.679 224.869 118.679Z" fill="#23356A"/>
<path fill-rule="evenodd" clip-rule="evenodd" d="M327.661 69.9669H319.506C316.041 69.9669 313.814 71.4515 312.835 75.0292L302.937 107.672L293.286 76.7614C292.297 73.2971 290.07 71.699 286.616 71.699H284.76C281.296 71.699 279.068 73.2971 278.068 76.7614L268.562 107.672L258.541 75.0292C257.551 71.4515 255.448 69.9669 251.86 69.9669H243.694C239.25 69.9669 237.27 72.6888 238.879 76.8851L257.303 128.694C258.417 132.045 260.644 133.52 264.108 133.52H269.428C272.893 133.52 275.233 131.922 276.223 128.581L285.75 98.0419L295.142 128.581C296.256 131.922 298.483 133.52 301.947 133.52H307.257C310.721 133.52 312.948 132.045 314.062 128.694L332.61 76.8851C334.095 72.6888 332.115 69.9669 327.661 69.9669Z" fill="#23356A"/>
<path fill-rule="evenodd" clip-rule="evenodd" d="M683.397 119.545C673.509 119.545 667.571 111.627 667.571 101.739C667.571 91.9753 673.509 83.9333 683.397 83.9333C693.161 83.9333 699.595 91.6041 699.718 101.739C699.595 111.885 693.161 119.545 683.397 119.545ZM712.575 44.1251H705.41C701.574 44.1251 699.347 46.2284 699.347 50.0536V78.9843C694.78 71.8186 687.356 68.6121 679.067 68.6121C661.137 68.6121 648.393 83.0672 648.393 101.739C648.393 120.545 661.137 134.877 679.067 134.877C687.356 134.877 694.78 131.67 699.347 124.618V127.587C699.347 131.412 701.574 133.516 705.41 133.516H712.575C716.411 133.516 718.514 131.412 718.514 127.587V50.0536C718.514 46.2284 716.411 44.1251 712.575 44.1251Z" fill="#23356A"/>
<path fill-rule="evenodd" clip-rule="evenodd" d="M564.254 70.8329H553.129V64.2756C553.129 59.6978 555.222 56.9759 559.181 56.9759C562.151 56.9759 564.491 58.708 564.491 61.0588V61.8011C564.491 63.0383 565.491 64.0281 567.089 64.0281H576.008C577.606 64.0281 578.719 63.1621 578.967 61.6774C579.091 61.0588 579.214 60.3164 579.214 59.6978C579.214 47.9543 569.079 42.7579 557.944 42.7579C547.304 42.7579 534.447 47.3357 534.447 66.7501V70.8329H528.766C526.786 70.8329 525.673 71.9361 525.673 73.926V81.0917C525.673 83.0713 526.786 84.1848 528.766 84.1848H534.447V91.0824V98.3615V108.806C534.447 108.806 534.395 109.012 534.395 109.095C534.323 109.301 534.313 109.538 534.22 109.744C534.127 110.033 533.942 110.321 533.777 110.62C532.189 113.157 528.951 114.982 525.25 114.982C522.837 114.982 520.662 114.178 518.95 112.961C518.569 112.683 518.239 112.384 517.961 112.085C517.744 111.868 517.579 111.631 517.383 111.414C516.301 109.775 516.27 108.125 516.27 108.125L516.259 98.279C516.259 98.2171 516.28 98.1759 516.28 98.1244V96.8046C516.28 96.6603 516.259 96.5159 516.259 96.3819V96.1963H516.249C516.053 81.4835 509.135 68.3688 492.907 68.3688C485.741 68.3688 478.441 69.9669 472.513 79.3699C468.43 71.4619 461.367 68.3688 454.078 68.3688C446.17 68.3688 439.365 72.5651 436.891 79.8648V75.6582C436.891 71.8227 434.787 69.7297 430.952 69.7297H423.662C419.827 69.7297 417.724 71.8227 417.724 75.6582V127.344C417.724 131.179 419.827 133.283 423.662 133.283H430.952C434.787 133.283 436.891 131.179 436.891 127.344V100.516C436.891 88.6492 442.706 83.9374 448.397 83.9374C454.078 83.9374 457.418 88.7626 457.418 97.6707V127.344C457.418 131.179 459.522 133.283 463.357 133.283H470.657C474.482 133.283 476.585 131.179 476.585 127.344V99.8874C476.833 88.2677 482.648 83.9374 487.968 83.9374C493.556 83.9374 496.959 88.6492 497.072 97.248V107.301C497.072 121.766 509.712 133.551 525.25 133.551C540.788 133.551 553.418 121.766 553.418 107.301L553.48 98.3821C553.48 98.3718 553.49 98.3718 553.49 98.3615V84.1848H564.254C566.223 84.1848 567.347 83.0713 567.347 81.0917V73.926C567.347 71.9361 566.223 70.8329 564.254 70.8329Z" fill="#23356A"/>
<path fill-rule="evenodd" clip-rule="evenodd" d="M591.481 94.323C593.584 86.0335 601.131 83.0641 607.802 83.0641C614.359 83.0641 621.659 85.7963 623.391 94.323H591.481ZM607.565 68.609C586.16 68.609 572.685 84.0642 572.685 101.994C572.685 120.171 586.542 134.884 609.286 134.884C617.452 134.884 625.979 133.028 633.279 127.708C636.619 125.233 636.856 121.903 634.392 118.934L633.021 117.202C630.68 114.356 627.958 114.108 624.618 115.964C619.793 118.676 615.101 119.8 610.524 119.8C598.275 119.8 590.738 112.5 590.986 104.953H635.258C638.96 104.953 641.444 103.355 641.31 99.7565C640.444 79.4864 625.618 68.609 607.565 68.609Z" fill="#23356A"/>
</g>
<defs>
<clipPath id="clip0_447_4041">
<rect width="718.514" height="160" fill="white"/>
</clipPath>
</defs>
</svg>
