<svg width="127" height="213" viewBox="0 0 127 213" fill="none" xmlns="http://www.w3.org/2000/svg">
<path d="M59.5726 129.953L59.8803 129.523C59.1937 130.028 58.5511 130.643 57.9254 131.298L58.0878 131.956L58.2602 131.732C58.5579 131.128 58.9908 130.55 59.5726 129.953Z" fill="#E3BA8E"/>
<path d="M55.5105 141.653L55.7303 141.605C56.7923 141.384 57.8037 141.295 58.7541 141.37L58.94 141.393C59.3391 141.433 59.7214 141.504 60.1035 141.599L60.303 141.644C59.63 138.501 58.8927 135.252 58.1182 132.082L57.9287 132.167L57.9355 132.149L58.0877 131.956L57.9254 131.298C56.9919 132.275 56.1092 133.369 55.267 134.476C54.6853 134.741 54.117 135.054 53.5624 135.449L53.5556 135.395C53.8194 133.234 54.9762 131.226 55.8792 129.239L55.0471 130.258C54.6074 130.817 53.8803 130.575 53.9107 129.67C53.9615 128.262 54.1306 126.851 54.3572 125.452C53.9243 127.078 53.6198 128.755 53.2715 130.656L53.1497 130.966C52.5646 129.836 52.0065 128.599 51.6649 127.281C51.6277 124.986 51.8848 122.52 52.3583 120.306C52.0911 120.736 51.8306 121.158 51.5736 121.538C51.1102 122.219 50.6334 123.16 50.099 123.985C49.4023 124.762 48.3775 125.093 47.488 125.156C47.6875 123.788 48.1103 122.458 48.5567 121.125C48.2489 121.337 47.7991 121.211 47.887 120.637C48.1948 118.633 48.5804 116.678 48.9727 114.733C48.1982 115.289 47.4541 115.527 46.798 115.195C45.6007 118.704 44.1125 122.027 42.1001 124.995C37.3616 131.979 31.0066 138.21 24.1644 141.184V141.2C26.3054 141.478 32.2749 137.47 33.6683 141.178C34.2433 142.72 35.8059 147.903 37.5917 154.012C42.364 148.103 46.3718 145.774 46.3718 145.774C49.7946 143.701 52.8284 142.254 55.5105 141.653Z" fill="#E3BA8E"/>
<path d="M13.6831 51.4576L13.5443 51.7303L13.2434 52.8563L13.1046 53.2635C12.9795 54.0306 12.8239 54.7783 12.5939 55.4922L12.5297 55.5996L12.4451 55.3163L12.1103 56.5411C14.3662 57.411 15.993 57.7695 15.993 57.7695C16.3752 56.3979 16.6932 55.1424 16.9807 53.9355C15.7124 52.0796 15.0798 49.4529 14.9818 46.7739C14.4474 48.314 14.0213 49.8615 13.6831 51.4576Z" fill="#F0CDA9"/>
<path d="M17.2681 52.7073L17.4406 51.9558L17.3053 51.7837L17.2681 52.7073Z" fill="#F0CDA9"/>
<path d="M42.1001 124.995C44.1125 122.027 45.6007 118.704 46.798 115.196C46.4361 115.007 46.0945 114.666 45.7969 114.084C44.6571 111.842 44.7483 108.175 44.8972 105.27C43.6255 100.89 43.8183 95.4743 44.241 91.0183C44.4643 88.651 44.7552 86.3433 45.1982 84.1147C44.9446 84.5948 44.4034 84.6164 44.2783 83.9944C43.8454 81.8515 43.825 79.3589 43.9772 76.965L43.9704 76.9829C43.6728 78.1254 43.5477 79.3176 42.8476 80.1209C42.4925 80.5244 41.9749 80.4978 41.8464 79.8161C41.5319 78.1791 41.4 76.4632 41.3933 74.7147C34.7709 72.3478 28.5511 70.1008 23.3323 68.1875L23.329 68.1911C18.7934 66.5234 15.0494 65.116 12.4248 64.0813L12.1035 63.956L11.559 63.7407L10.9536 63.4932C11.1937 67.56 12.1238 71.4908 12.2963 75.5754C12.4756 79.834 10.6018 83.6717 8.31885 86.9658L7.73712 87.8766C6.57027 89.6788 5.20385 91.1849 3.99979 92.9243C3.24556 94.009 2.30535 95.4564 2.00433 97.0305C4.37525 100.204 8.0178 100.961 11.329 101.191C10.2771 102.781 9.06965 104.081 7.7709 105.22L7.76759 105.208L7.79121 105.364C7.79121 105.364 7.77774 106.418 7.17571 108.077C6.79014 109.147 5.98172 111.474 6.16774 112.796L6.1509 112.446C8.30197 114.353 10.7168 115.196 13.2433 115.594L12.5872 115.809C11.0957 116.253 9.82054 116.427 8.48796 117.275L8.91073 116.961C8.31547 117.329 7.86901 117.853 7.88592 118.606C7.96033 121.83 9.62099 120.175 9.84422 125.124C9.86451 125.533 9.20839 129.182 9.01898 132.508C8.86002 135.315 10.3921 139.039 11.8837 140.81C13.9806 143.289 17.1328 143.196 20.1159 142.536C21.4789 142.222 22.8285 141.757 24.1644 141.184C31.0066 138.21 37.3616 131.979 42.1001 124.995Z" fill="#F0CDA9"/>
<path d="M12.5873 115.809L13.2434 115.593C10.7169 115.195 8.30201 114.353 6.15094 112.446L6.16778 112.796C6.506 115.213 10.2027 116.122 11.7585 116.006L11.6943 116.041L11.6504 116.051L11.444 116.096L11.1194 116.164L11.0179 116.181L10.5714 116.289L10.1013 116.427L9.97952 116.463C9.64806 116.576 9.31326 116.719 9.00549 116.899L8.91077 116.961L8.488 117.275C9.82058 116.427 11.0957 116.253 12.5873 115.809Z" fill="#D9B288"/>
<path d="M11.329 101.191C8.01785 100.961 4.37529 100.204 2.00438 97.0305L2.00099 97.0521L1.91305 97.8196L1.90967 98.2268L1.93337 98.5101L2.07539 99.2776L2.35614 100.007C3.05625 100.943 3.95923 101.678 4.73713 102.177C5.60635 102.738 7.65264 103.633 7.76764 105.208L7.77094 105.22C9.0697 104.082 10.2771 102.782 11.329 101.191Z" fill="#D9B288"/>
<path d="M15.1746 35.4677C16.5004 36.9899 17.6334 39.6849 17.7721 41.8907C17.9209 44.2433 17.8871 46.4219 17.6368 48.7351L17.6199 48.9109C17.4711 49.8561 17.3696 50.8155 17.3054 51.7837L17.4406 51.9558C20.1126 39.5183 17.5827 36.2728 15.0122 33.8073C15.3336 32.9966 15.6751 32.1754 16.0235 31.356L16.2873 30.7408C15.6008 32.0285 14.9682 33.3767 14.3899 34.7667L15.1239 35.3405L15.1746 35.4677Z" fill="#332323"/>
<path d="M54.4857 79.7175L54.807 79.4848L53.9411 79.18C53.9005 79.6046 54.0764 79.9957 54.4857 79.7175Z" fill="#332323"/>
<path d="M65.7754 93.0588L66.364 93.4531C67.2535 92.6373 68.0415 91.66 68.7619 90.5877C67.2129 96.2271 64.6932 101.32 61.4091 105.767C61.1351 106.14 61.0945 107.112 61.6594 106.896C65.1904 105.539 68.4035 103.396 71.0788 100.429C70.7744 101.391 70.4564 102.347 70.1148 103.298C68.6503 107.345 66.3674 110.103 64.1081 113.277C63.8138 113.693 63.7901 114.535 64.3549 114.406C68.6605 113.406 72.7698 109.371 75.7631 104.243C75.6481 104.732 75.5331 105.225 75.4114 105.713C75.3201 106.108 75.4181 106.723 75.8308 106.529C78.2051 105.399 80.2986 103.463 82.179 101.182C75.9322 92.6497 71.8059 85.4918 71.7991 85.4826C69.8781 84.8046 67.9198 84.1146 65.9277 83.415C65.4745 86.5623 65.4237 89.8133 65.7754 93.0588Z" fill="#332323"/>
<path d="M12.594 55.4922C12.824 54.7784 12.9796 54.0306 13.1047 53.2635C12.8713 53.9411 12.6481 54.626 12.4452 55.3164L12.5297 55.5996L12.594 55.4922Z" fill="#332323"/>
<path d="M82.179 101.182C80.2985 103.463 78.205 105.399 75.8307 106.529C75.4181 106.723 75.32 106.108 75.4113 105.713C75.5331 105.225 75.648 104.732 75.763 104.243C72.7697 109.371 68.6604 113.406 64.3549 114.406C63.7901 114.535 63.8137 113.693 64.108 113.277C66.3673 110.103 68.6503 107.345 70.1147 103.298C70.4563 102.347 70.7743 101.391 71.0787 100.429C68.4034 103.396 65.1903 105.539 61.6593 106.896C61.0945 107.112 61.135 106.14 61.409 105.767C64.6931 101.32 67.2128 96.2271 68.7619 90.5877C68.0415 91.66 67.2535 92.6373 66.364 93.4531L65.7754 93.0588C65.4236 89.8133 65.4744 86.5623 65.9276 83.415C62.2816 82.1329 58.5477 80.8113 54.807 79.4847L54.4857 79.7174C54.0764 79.9956 53.9005 79.6045 53.9411 79.1799C49.6998 77.6733 45.4688 76.1708 41.3932 74.7147C41.4 76.4632 41.5319 78.1791 41.8464 79.8161C41.9749 80.4978 42.4925 80.5244 42.8476 80.1209C43.5477 79.3176 43.6728 78.1254 43.9704 76.9828L43.9772 76.9649C43.825 79.3589 43.8453 81.8515 44.2783 83.9944C44.4034 84.6164 44.9445 84.5948 45.1982 84.1146C44.7551 86.3433 44.4642 88.651 44.241 91.0183C43.8183 95.4743 43.6254 100.89 44.8971 105.27L44.9378 104.499C45.276 98.3484 47.0347 89.727 50.4541 85.9972C51.895 84.4281 53.6401 83.6391 55.3177 83.8149C56.2038 83.9136 57.073 84.2813 57.8611 84.9501C59.8363 86.6068 62.055 90.2379 60.7968 97.9756C59.8566 103.746 58.1114 104.49 53.9073 109.134C52.6559 110.519 50.7483 113.451 48.9727 114.733C48.5804 116.678 48.1948 118.633 47.887 120.638C47.7991 121.211 48.2489 121.337 48.5567 121.125C48.1102 122.458 47.6875 123.788 47.488 125.156C48.3775 125.094 49.4023 124.762 50.099 123.985C50.6334 123.16 51.1102 122.219 51.5736 121.538C51.8306 121.158 52.0911 120.736 52.3583 120.306C51.8848 122.521 51.6277 124.986 51.6649 127.281C52.0065 128.599 52.5646 129.836 53.1497 130.966L53.2714 130.656C53.6198 128.755 53.9243 127.078 54.3572 125.452C54.1306 126.851 53.9615 128.262 53.9107 129.67C53.8803 130.575 54.6074 130.817 55.0471 130.258L55.8792 129.239C54.9761 131.226 53.8194 133.234 53.5556 135.396L53.5623 135.449C54.117 135.054 54.6852 134.741 55.267 134.476C56.1091 133.369 56.9919 132.275 57.9253 131.298C58.551 130.643 59.1937 130.028 59.8803 129.523L59.5725 129.953C59.143 130.572 58.7066 131.167 58.2602 131.732L58.0877 131.956L57.9355 132.15L57.9287 132.167L58.1181 132.082C59.4068 131.534 60.6953 130.97 61.9704 130.365L62.7382 129.863C70.0065 125.662 76.9975 120.587 83.6503 114.819C85.453 113.262 87.276 111.648 89.0685 109.963C86.586 107.028 84.2624 104.027 82.179 101.182Z" fill="#211715"/>
<path d="M52.6492 91.4128C55.6458 91.377 56.0753 95.1926 55.6694 98.501C55.5409 99.5448 55.3312 100.54 55.0911 101.347C54.0934 104.715 51.8273 107.56 49.0066 107.587C47.8634 107.602 46.9637 107.094 47.3188 105.279C47.4677 104.544 48.0257 103.54 48.4484 103.056C49.1891 102.222 49.3143 99.9392 49.3549 98.77C49.4598 95.6053 49.4226 91.4486 52.6492 91.4128ZM53.9073 109.134C58.1114 104.49 59.8566 103.746 60.7968 97.9758C62.055 90.2381 59.8363 86.607 57.8611 84.9503C57.073 84.2815 56.2038 83.9137 55.3177 83.815C53.6401 83.6392 51.895 84.4283 50.4541 85.9974C47.0348 89.7271 45.276 98.3486 44.9378 104.499L44.8972 105.271C44.7483 108.175 44.6571 111.842 45.7969 114.084C46.0945 114.666 46.4361 115.007 46.798 115.196C47.4541 115.527 48.1982 115.289 48.9727 114.733C50.7483 113.451 52.6559 110.519 53.9073 109.134Z" fill="#F0CDA9"/>
<path d="M49.355 98.7697C49.3144 99.9389 49.1892 102.222 48.4485 103.055C48.0257 103.54 47.4677 104.544 47.3189 105.279C46.9638 107.094 47.8634 107.601 49.0066 107.587C51.8273 107.56 54.0934 104.714 55.0911 101.347C55.3313 100.54 55.541 99.5445 55.6695 98.5007C56.0753 95.1923 55.6458 91.3766 52.6492 91.4125C49.4226 91.4483 49.4598 95.605 49.355 98.7697Z" fill="#E3BA8E"/>
<path d="M105.993 51.0127C106.203 51.9597 106.399 52.91 106.571 53.8694C106.399 52.91 106.199 51.9597 105.993 51.0127Z" fill="#33602A"/>
<path d="M63.3775 7.82427C60.0426 8.98108 56.6435 10.2237 53.3695 11.667C47.1193 14.4231 41.285 19.2018 37.2738 26.4071C36.2693 28.2088 35.3526 30.1189 34.4935 32.0823C37.9298 39.59 42.0696 46.4937 46.4191 52.4797C53.3932 62.0816 61.2974 69.6885 70.223 75.6383C71.4947 76.4843 72.7765 77.2968 74.0651 78.0896C75.0392 73.3375 75.9152 68.5496 76.7844 63.7585C78.3165 55.3304 80.4507 46.8527 81.0223 38.1702C81.79 26.4337 78.8002 16.3025 74.3999 6.93694C76.6728 8.23697 78.9051 9.72519 81.0663 11.3929C71.9107 4.34192 61.524 0.416584 51.8104 0.678242C58.1824 0.512984 64.8453 2.14719 71.258 5.28342C68.7044 6.44894 66.0223 6.90617 63.3775 7.82427Z" fill="#33602A"/>
<path d="M104.911 86.3018C105.022 85.8896 105.144 85.4737 105.249 85.0555C105.141 85.4769 105.012 85.8983 104.897 86.311L104.911 86.3018Z" fill="#33602A"/>
<path d="M81.0732 11.398C83.2175 13.0479 85.2873 14.8717 87.2727 16.8492C85.2873 14.868 83.2175 13.0479 81.0732 11.398Z" fill="#33602A"/>
<path d="M81.0224 38.1703C80.4508 46.8527 78.3166 55.3305 76.7845 63.7586C75.9153 68.5497 75.0393 73.3376 74.0652 78.0897C78.807 80.9909 83.6841 83.4922 88.7101 85.3068C93.435 87.0104 98.2547 86.9746 103.051 87.7366C103.764 87.3422 104.39 86.8759 104.897 86.3112C105.012 85.8985 105.141 85.4771 105.249 85.0557L105.313 84.828C105.591 83.7433 105.831 82.6673 106.057 81.5913L106.257 80.5997C106.409 79.8198 106.551 79.0454 106.676 78.2742L106.842 77.2519C106.984 76.3108 107.109 75.373 107.214 74.4402L107.261 74.0638C107.373 73.0236 107.458 71.9894 107.522 70.9528L107.573 70.0021C107.61 69.2493 107.637 68.5052 107.65 67.7661L107.667 66.7745C107.674 65.8922 107.664 65.0228 107.637 64.1529L107.627 63.7136C107.593 62.7129 107.529 61.7232 107.451 60.7316L107.373 59.8672C107.305 59.141 107.228 58.4148 107.14 57.6941L107.025 56.7742C106.906 55.935 106.781 55.1064 106.636 54.2765L106.571 53.8693C106.399 52.9099 106.203 51.9596 105.993 51.0126L105.821 50.2827C105.651 49.5657 105.476 48.8482 105.283 48.1399L105.066 47.3421C104.836 46.5263 104.596 45.7193 104.343 44.9178L104.245 44.6112C103.944 43.6876 103.629 42.7823 103.294 41.8821L103.088 41.3405C102.81 40.6179 102.526 39.9004 102.229 39.1866L101.962 38.5591C101.613 37.7576 101.258 36.9634 100.883 36.1798L100.812 36.0127C100.389 35.1341 99.9525 34.2734 99.5027 33.4274L99.3302 33.1134C98.9379 32.378 98.5353 31.6554 98.1193 30.9434L97.8589 30.5041C96.8848 28.858 95.8567 27.2678 94.7744 25.7383L94.7135 25.663C94.1926 24.9276 93.6582 24.2101 93.1137 23.5023L92.9108 23.2365C91.1724 21.0004 89.3155 18.8971 87.3741 16.9535L87.2726 16.8492C85.2873 14.8717 83.2175 13.0478 81.0731 11.398L81.0664 11.393C78.9052 9.72526 76.6728 8.23703 74.4 6.937C78.8002 16.3025 81.7901 26.4338 81.0224 38.1703Z" fill="#4C8F33"/>
<path d="M23.329 68.1909L23.3324 68.1872C18.8171 66.5287 15.0528 65.1158 12.4248 64.0811C15.0494 65.1158 18.7935 66.5232 23.329 68.1909Z" fill="#4C8F33"/>
<path d="M20.3932 22.4528C20.8193 21.7086 21.2557 20.9737 21.7157 20.2475C21.2591 20.9737 20.816 21.7086 20.3932 22.4528Z" fill="#4C8F33"/>
<path d="M17.4813 28.0781C17.8804 27.2321 18.2896 26.3838 18.7191 25.5373C18.2896 26.3838 17.877 27.2321 17.4813 28.0781Z" fill="#4C8F33"/>
<path d="M34.4936 32.0824C35.3527 30.119 36.2693 28.2089 37.2738 26.4072C41.2851 19.2019 47.1193 14.4232 53.3696 11.6671C56.6436 10.2238 60.0427 8.98119 63.3775 7.82439C66.0224 6.90629 68.7045 6.44906 71.258 5.28354C64.8454 2.14731 58.1825 0.513102 51.8105 0.67836L51.6751 0.682955C51.0494 0.701317 50.4203 0.738036 49.8014 0.793122L49.5275 0.820664C48.8984 0.87575 48.2727 0.958379 47.6537 1.05019L47.5218 1.06857C46.842 1.17874 46.1621 1.31186 45.4925 1.46334L45.4621 1.47253C44.8533 1.61484 44.2445 1.7801 43.6424 1.95913L43.1216 2.12897C42.6785 2.27128 42.2388 2.42276 41.8025 2.58343L41.1971 2.82211C40.7743 2.98829 40.355 3.1765 39.9356 3.36471L39.3911 3.61032C38.8026 3.89401 38.2208 4.19513 37.6492 4.51601C33.78 6.71256 30.5195 9.38976 27.7326 12.3667C29.2986 19.2377 31.6526 25.8692 34.4936 32.0824Z" fill="#4C8F33"/>
<path d="M12.1035 63.956L12.4248 64.0813C15.0527 65.116 18.8171 66.5289 23.3323 68.1874C28.551 70.1008 34.7709 72.3478 41.3932 74.7147C45.4688 76.1708 49.6998 77.6733 53.9411 79.1799L54.807 79.4847C58.5477 80.8113 62.2816 82.1329 65.9276 83.415C67.9197 84.1146 69.878 84.8046 71.7991 85.4826C71.7991 85.4826 72.5837 85.7516 73.8994 86.1551C78.1779 87.3422 95.6638 91.7982 103.051 87.7365C98.2546 86.9745 93.4349 87.0103 88.71 85.3068C83.6841 83.4922 78.8069 80.9908 74.0651 78.0896C72.7765 77.2968 71.4947 76.4843 70.223 75.6383C61.2974 69.6885 53.3932 62.0817 46.4191 52.4797C42.0696 46.4937 37.9298 39.5901 34.4935 32.0823C31.6525 25.8691 29.2985 19.2377 27.7325 12.3666C27.0426 13.1015 26.3933 13.8548 25.7608 14.6205L25.3921 15.0741C24.8307 15.7736 24.2895 16.482 23.7686 17.199L23.5826 17.4538C22.9941 18.275 22.4327 19.1087 21.8983 19.957L21.7157 20.2476C21.2557 20.9738 20.8194 21.7087 20.3932 22.4528L20.0719 23.0179C19.6458 23.7836 19.2298 24.5511 18.8307 25.3256L18.719 25.5372C18.2895 26.3837 17.8803 27.232 17.4812 28.078L17.1971 28.7023C16.8994 29.3565 16.6085 30.0024 16.3244 30.6514L16.2873 30.741L16.0235 31.3561C15.6751 32.1755 15.3335 32.9967 15.0122 33.8074C17.5826 36.273 20.1125 39.5185 17.4406 51.9559L17.2681 52.7074C17.2512 53.2504 17.2444 53.7921 17.2613 54.3389L16.9806 53.9353C16.6932 55.1422 16.3752 56.3977 15.993 57.7693C15.993 57.7693 14.3662 57.4108 12.1102 56.5409C11.8972 57.3929 11.7078 58.2569 11.5928 59.1502C11.2275 58.2569 11.0111 57.1634 10.8859 56.0337L10.6762 55.9492C10.5477 58.4239 10.6323 60.9074 10.7033 63.3945L10.9536 63.4932L11.559 63.7407L12.1035 63.956Z" fill="#404AA6"/>
<path d="M72.9287 85.8805C72.9287 85.8805 73.2838 85.9847 73.8993 86.155C72.5837 85.7515 71.799 85.4825 71.799 85.4825C71.8058 85.4917 75.932 92.6497 82.1789 101.182C84.2623 104.027 86.5859 107.028 89.0685 109.963C98.7483 121.427 110.89 131.947 121.094 128.8C124.061 127.885 125.468 126.537 125.999 125.111C125.254 126.178 123.898 127.147 121.595 127.859C100.937 134.229 72.9287 85.8805 72.9287 85.8805Z" fill="#2C3381"/>
<path d="M103.051 87.7366C95.6638 91.7983 78.1779 87.3423 73.8994 86.1552C73.2839 85.9849 72.9288 85.8807 72.9288 85.8807C72.9288 85.8807 100.937 134.23 121.595 127.859C123.898 127.147 125.255 126.178 125.999 125.111C128.322 121.785 124.632 117.535 124.649 117.365L104.924 86.2897L104.911 86.3021L104.897 86.3112C104.39 86.8759 103.764 87.3423 103.051 87.7366Z" fill="#33602A"/>
<path d="M9.60071 38.2062C10.0844 38.8929 10.6897 39.1798 11.3391 39.2638C9.51274 40.4422 7.56126 41.2671 5.55224 42.0199C5.15653 42.1691 4.82841 43.1496 5.33574 43.4007C6.56347 44.0016 7.89945 44.0751 9.23879 43.7882C8.51501 44.7655 7.81827 45.7823 7.20271 46.9262C6.98625 47.3279 7.06745 48.1941 7.56463 47.9554C8.89045 47.3242 10.081 46.374 11.2986 45.4596C10.7236 47.6414 10.4597 49.9996 10.8284 52.0708C10.9535 52.7791 11.5827 52.2682 11.7247 51.8734C12.7259 49.0691 13.9163 46.0334 15.5533 43.7111C15.719 45.6515 16.1926 47.6056 17.1193 48.7946L17.6368 48.7353C17.8871 46.4222 17.9209 44.2436 17.772 41.8909C17.6334 39.6852 16.5004 36.9901 15.1745 35.4679L15.1238 35.3408L14.3899 34.767L14.2478 34.6591L14.0753 34.8799C13.5782 35.3729 12.9727 35.7048 12.3504 35.9591C11.6198 36.4792 10.8081 36.8253 10.0066 37.008L9.60071 38.2062Z" fill="#332323"/>
<path d="M11.5929 59.1503C11.7078 58.257 11.8973 57.3931 12.1103 56.5411L12.4452 55.3163C12.6481 54.6259 12.8713 53.941 13.1047 53.2634L13.2434 52.8563L13.5444 51.7302L13.6831 51.4576C14.0213 49.8614 14.4474 48.314 14.9818 46.7739C15.0799 49.4529 15.7124 52.0795 16.9807 53.9355L17.2614 54.339C17.2445 53.7923 17.2513 53.2506 17.2682 52.7075L17.3054 51.7839C17.3697 50.8158 17.4711 49.8564 17.6199 48.9112L17.6369 48.7354L17.1194 48.7946C16.1927 47.6057 15.7191 45.6515 15.5534 43.7111C13.9164 46.0334 12.7259 49.0691 11.7248 51.8734C11.5828 52.2682 10.9536 52.7792 10.8285 52.0708C10.4598 49.9996 10.7237 47.6415 11.2986 45.4596C10.0811 46.374 8.89052 47.3243 7.5647 47.9555C7.06752 48.1942 6.98632 47.3279 7.20278 46.9263C7.81834 45.7823 8.51508 44.7655 9.23886 43.7882C7.89952 44.0751 6.56354 44.0017 5.33581 43.4008C4.82848 43.1497 5.1566 42.1691 5.55231 42.0199C7.56133 41.2671 9.51281 40.4422 11.3392 39.2638C10.6898 39.1798 10.0844 38.8929 9.60078 38.2062L10.0066 37.008C10.8082 36.8253 11.6199 36.4792 12.3505 35.9591H12.3538C11.7045 36.2244 11.0314 36.4039 10.426 36.5655C8.98182 37.2376 7.63572 37.193 6.71915 35.7888L6.70561 35.8517C7.10133 37.2109 7.53426 38.8282 8.41363 39.766L8.13965 39.9276C6.18475 40.9444 2.36966 42.725 0.289612 41.464C0.587244 42.2228 0.908535 42.9348 1.28734 43.589C2.833 45.4862 4.74737 46.2179 6.74962 45.517C4.86574 48.4448 3.59736 51.906 3.7225 55.7377L3.79021 55.8685L3.99648 55.4687L4.61883 54.4253L4.66276 54.3661L4.78117 54.0576C5.67406 51.8073 7.18249 50.376 8.73154 49.0691C7.44631 53.179 7.09794 57.8718 7.71349 62.118C8.0551 60.8575 8.56244 59.6736 9.16447 58.6247C9.54665 57.1364 10.0743 55.7611 10.7575 54.3982C10.7811 54.9399 10.8251 55.4921 10.886 56.0338C11.0112 57.1635 11.2276 58.257 11.5929 59.1503Z" fill="#211715"/>
<path d="M61.6356 142.168C62.0381 142.374 62.4237 142.634 62.7992 142.921C62.4237 142.634 62.0381 142.379 61.6356 142.168Z" fill="#73309A"/>
<path d="M26.4609 203.96C24.2253 179.991 29.2648 157.63 45.1408 150.027C45.1408 150.027 48.9761 147.508 53.2749 147.395C53.4812 145.634 53.6943 143.868 53.8973 142.096C54.4485 141.913 54.9863 141.77 55.5106 141.653C52.8285 142.254 49.7947 143.701 46.3719 145.774C46.3719 145.774 42.364 148.103 37.5917 154.012C36.7428 155.057 35.8769 156.205 35.0009 157.487C27.5601 168.339 22.1148 184.854 20.8803 201.993C20.6233 205.579 20.3832 209.053 20.1633 212.388H23.9954C24.178 211.73 25.0911 208.497 26.4609 203.96Z" fill="#73309A"/>
<path d="M34.2061 180.727C36.435 174.8 38.7551 169.415 40.8487 166.044C42.462 163.458 44.2512 161.665 46.0438 160.41C44.5658 161.136 43.6458 161.836 43.6458 161.836C43.6458 161.836 36.7428 166.22 34.2061 180.727Z" fill="#73309A"/>
<path d="M58.7541 141.37C57.8037 141.295 56.7924 141.384 55.7303 141.605C56.7957 141.384 57.8037 141.295 58.7541 141.37Z" fill="#73309A"/>
<path d="M58.94 141.394L58.754 141.37C57.8037 141.295 56.7957 141.384 55.7303 141.605L55.5105 141.653C54.9863 141.77 54.4485 141.914 53.8972 142.096C53.6943 143.868 53.4812 145.634 53.2748 147.395C55.2433 147.347 57.3098 147.808 59.1531 149.242L59.2411 149.31L59.7145 149.726L59.8904 149.888L60.2996 150.306L60.5229 150.557L60.8746 150.987L61.1283 151.328L61.4361 151.767L61.7135 152.215L61.9704 152.655L62.2816 153.255L62.4811 153.644L62.6469 154.035L62.6266 153.434L62.6131 152.574L62.6199 152.039C62.6503 150.548 62.8025 149.283 63.0663 148.216C62.1159 150.834 62.6436 154.008 62.6436 154.008C61.5105 150.117 62.126 146.468 63.9152 143.962L63.8983 143.944L63.0696 143.151L62.7991 142.921C62.4237 142.634 62.0381 142.375 61.6356 142.168L61.5951 142.15C61.2061 141.953 60.8002 141.801 60.3876 141.675L60.303 141.645L60.1035 141.6C59.7214 141.505 59.3391 141.433 58.94 141.394Z" fill="#673199"/>
<path d="M66.2015 176.288C65.887 174.552 65.5759 172.822 65.2647 171.097C64.5511 169.013 63.7596 167.254 62.9073 165.784C63.5228 167.717 63.9896 170.105 64.1587 173.03C64.3921 174.683 64.5477 176.364 64.6322 178.054C64.0234 182.86 63.8307 187.728 63.4755 192.591C63.0189 198.774 62.0279 204.902 60.9964 210.945C60.9152 211.429 60.8239 211.909 60.7393 212.388H71.2748C70.4056 201.5 68.931 191.839 67.3278 182.632C66.9659 182.51 66.5093 179.041 66.2015 176.288Z" fill="#673199"/>
<path d="M63.4755 192.591C63.8307 187.728 64.0234 182.86 64.6322 178.054C64.5477 176.364 64.3921 174.683 64.1587 173.03C64.4395 177.968 63.8678 184.447 61.6796 192.914L57.073 212.388H60.7393C60.8239 211.909 60.9152 211.429 60.9964 210.945C62.0279 204.902 63.0189 198.774 63.4755 192.591Z" fill="#673199"/>
<path d="M39.9253 160.879C42.6581 158.195 45.878 156.558 49.1621 155.626C51.5635 154.944 54.1475 155.577 56.4643 154.388C57.9152 153.644 59.0483 151.255 58.6661 149.125L58.5882 148.838L59.1531 149.242C57.3098 147.807 55.2432 147.347 53.2748 147.395C48.9761 147.508 45.1407 150.027 45.1407 150.027C29.2647 157.63 24.2252 179.991 26.4608 203.96C27.5499 200.365 28.9231 195.964 30.4518 191.381C30.4789 179.811 32.8633 167.824 39.9253 160.879Z" fill="#E22824"/>
<path d="M67.3278 182.633C67.2534 182.2 67.179 181.767 67.1046 181.34L66.9491 181.564C66.6819 180.296 66.4079 178.13 66.2015 176.289C66.5093 179.041 66.9659 182.511 67.3278 182.633Z" fill="#E22824"/>
<path d="M58.6661 149.126C59.0483 151.256 57.9152 153.644 56.4643 154.389C54.1475 155.577 51.5635 154.944 49.1621 155.626C45.878 156.558 42.6582 158.195 39.9254 160.88C32.8633 167.825 30.4789 179.812 30.4518 191.381C31.6322 187.84 32.9073 184.191 34.2061 180.727C36.7427 166.22 43.6458 161.835 43.6458 161.835C43.6458 161.835 44.5657 161.136 46.0438 160.41C51.7935 156.384 57.5736 158.061 57.5736 158.061C57.5736 158.061 60.9659 159.692 62.9073 165.784C63.7596 167.254 64.5511 169.013 65.2647 171.097C64.5308 167.021 63.8137 162.965 63.1643 158.859C63.0527 158.159 62.9615 157.505 62.8904 156.863L62.8127 156.16L62.7112 155.057L62.6604 154.241L62.6469 154.035L62.4811 153.644L62.2816 153.255L61.9704 152.654L61.7135 152.215L61.4361 151.767L61.1283 151.328L60.8746 150.987L60.5229 150.556L60.2996 150.305L59.8904 149.888L59.7145 149.726L59.2411 149.31L59.1531 149.242L58.5882 148.839L58.6661 149.126Z" fill="#9E1B25"/>
<path d="M67.1046 181.339C66.807 179.645 66.5059 177.96 66.2015 176.289C66.4079 178.13 66.6819 180.296 66.9491 181.564L67.1046 181.339Z" fill="#9E1B25"/>
<path d="M99.2185 199.904C93.1171 179.516 77.603 146.176 69.2591 144.926C65.7044 144.391 63.9863 145.966 63.1746 147.938C68.099 158.835 70.6086 171.455 72.6819 183.855C74.2716 193.345 75.6211 202.831 76.6729 212.388H110.782C110.633 211.883 110.481 211.375 110.329 210.869C102.202 212.366 99.2185 199.904 99.2185 199.904Z" fill="#CE2625"/>
<path d="M63.0663 148.216C62.8025 149.283 62.6503 150.547 62.6198 152.039C62.6536 150.493 62.8227 149.188 63.1001 148.1L63.0663 148.216Z" fill="#CE2625"/>
<path d="M63.1746 147.938L63.1002 148.099C62.8228 149.188 62.6538 150.493 62.6199 152.039L62.6132 152.573L62.6267 153.434L62.6469 154.035L62.6605 154.241L62.7113 155.057L62.8127 156.16L62.8905 156.863C62.9615 157.505 63.0528 158.159 63.1644 158.859C63.8138 162.965 64.5309 167.021 65.2648 171.097C65.576 172.822 65.8871 174.552 66.2016 176.288C66.506 177.959 66.8071 179.645 67.1047 181.339C67.1791 181.766 67.2535 182.2 67.3279 182.632C68.9311 191.839 70.4057 201.5 71.2749 212.388H76.6729C75.6211 202.831 74.2716 193.345 72.6819 183.855C70.6087 171.455 68.099 158.835 63.1746 147.938Z" fill="#9E1B25"/>
<path d="M62.6435 154.008C62.6435 154.008 62.1159 150.834 63.0663 148.216L63.1001 148.1L63.1745 147.938C63.9862 145.966 65.7044 144.391 69.259 144.926C77.6029 146.176 93.117 179.516 99.2185 199.904C99.2185 199.904 102.202 212.367 110.329 210.87H110.332C110.332 210.87 112.023 210.462 111.486 207.911C110.951 205.364 98.586 171.504 85.4564 151.847C76.5714 138.537 67.666 138.73 63.9152 143.961C62.126 146.468 61.5105 150.117 62.6435 154.008Z" fill="#9E1B25"/>
<path d="M64.1588 173.03C63.9897 170.105 63.5229 167.717 62.9073 165.784C60.966 159.692 57.5736 158.061 57.5736 158.061C57.5736 158.061 51.7935 156.384 46.0438 160.41C44.2513 161.665 42.462 163.458 40.8487 166.044C38.7552 169.415 36.435 174.8 34.2062 180.726C32.9074 184.19 31.6323 187.84 30.4519 191.381C28.9232 195.965 27.55 200.365 26.4609 203.96C25.0911 208.497 24.178 211.73 23.9954 212.388H57.0731L61.6797 192.914C63.8679 184.447 64.4395 177.968 64.1588 173.03Z" fill="#5E3298"/>
</svg>
