<svg width="128" height="209" viewBox="0 0 128 209" fill="none" xmlns="http://www.w3.org/2000/svg">
<path d="M58.8007 135.534C58.4706 134.023 58.1283 132.495 57.7729 130.976L57.527 131.448L57.4847 131.535C57.2801 131.967 57.0805 132.412 56.8823 132.875L56.6314 133.233C56.3567 132.521 56.1477 131.756 55.9986 130.915C55.9259 130.493 55.7091 130.485 55.5058 130.635L55.5085 130.424L55.3722 130.75L55.0617 131.292L54.8848 131.927L54.3274 133.022L53.6628 133.251L53.491 132.366C53.5215 131.788 53.5265 131.25 53.4829 130.741L53.1951 130.406C52.7087 129.579 52.4973 128.561 51.9281 127.877C50.9821 125.812 49.8579 123.846 48.9224 121.675C47.6608 118.755 47.325 115.01 46.8217 111.741C46.6921 110.905 46.5748 110.066 46.4598 109.216L46.4625 109.171C45.1505 113.577 43.4608 117.737 40.9965 121.372C37.0637 127.169 32.0168 132.459 26.5008 135.782C25.3675 136.255 24.2179 136.626 23.0527 136.865L23.0591 136.92C25.2034 137.206 31.174 133.201 32.5637 136.902C32.9865 138.027 33.9362 141.111 35.1163 145.077C40.5183 141.281 51.8699 135.782 58.8007 135.534Z" fill="#E3BA8E"/>
<path d="M40.9965 121.372C43.4608 117.737 45.1506 113.577 46.4625 109.171C46.4994 108.577 46.5231 107.986 46.5362 107.408C46.222 107.233 45.9298 106.935 45.6724 106.429C44.5692 104.258 44.7633 100.577 44.9074 97.91C45.2074 92.4427 46.7743 84.7802 49.8129 81.4631C50.2093 81.0307 50.6385 80.6901 51.0799 80.3981C49.0015 81.0128 47.3317 82.6195 45.9576 85.6396C44.9246 87.9114 44.647 90.8089 44.2654 93.3695C43.7896 96.542 43.0854 99.0433 41.8157 101.491C41.4315 101.936 41.0415 102.371 40.6242 102.757C39.5449 103.548 38.258 103.86 37.0769 103.731C36.5324 103.666 35.2536 102.818 35.4254 101.877L35.605 101.683C38.8035 101.618 39.9819 97.0598 38.5604 93.7193C38.2448 92.966 37.8312 92.3224 37.4311 91.677C36.8429 91.1569 36.3633 90.4738 35.9946 89.3941C34.8785 86.1395 37.1351 82.5639 38.3808 80.131C40.3018 76.3847 38.5989 71.9594 36.7888 67.9427C36.5801 67.4745 34.0144 70.8439 33.1583 72.3235C32.4897 73.304 31.9627 74.425 31.6932 75.899C31.6151 76.3167 31.5687 76.9585 31.5636 77.6471C30.3004 76.9029 29.8885 74.0252 29.9835 72.542C30.2331 68.6956 32.5069 64.2667 30.734 60.5622C31.1527 61.4477 29.237 64.964 28.8538 65.547C27.875 67.0444 26.5009 68.3013 24.9552 67.8477L25.2934 66.9709C25.9895 65.323 25.6012 63.4344 24.8747 61.7777C24.0302 59.1111 22.6245 57.0546 21.4885 54.8185C22.0844 60.5387 20.763 67.2005 17.3175 67.9248L17.213 67.4245C18.6863 65.5148 18.8591 63.5547 18.299 61.6037L17.9436 60.5943C16.6198 57.3667 13.5308 54.1947 11.2441 51.3307C11.2046 52.4085 11.0669 53.4698 10.8105 54.4706C10.45 55.8748 9.68124 57.8634 8.68113 59.2943C9.09443 63.5083 11.0155 67.7775 11.1924 71.9558C11.3314 75.1728 10.29 78.1474 8.78663 80.8338C8.44977 81.8161 8.05744 82.7971 7.58055 83.8084C6.43771 86.2097 5.20355 88.9493 3.47018 90.6799C2.68686 91.4599 1.75541 92.1071 0.99171 92.9518L0.821259 93.9525L0.899393 93.4108C3.27098 96.5796 6.91595 97.3361 10.2241 97.5712C9.17525 99.1632 7.96612 100.462 6.66635 101.597L6.68596 101.744C6.68596 101.744 6.67277 102.798 6.07446 104.451C5.719 105.437 5.01482 107.471 5.04662 108.827C7.20006 110.731 9.61358 111.576 12.137 111.976L11.4819 112.191C9.99409 112.632 8.71528 112.802 7.38236 113.656L7.80243 113.338C7.2119 113.715 6.76409 114.233 6.77999 114.986C6.84323 117.728 8.05203 116.961 8.55293 119.706C9.65214 122.863 9.98765 126.559 10.6573 129.984C12.2838 133.477 14.6118 136.276 17.5262 136.892C19.4182 137.297 21.2531 137.241 23.0527 136.864C24.2179 136.626 25.3675 136.255 26.5008 135.782C32.0168 132.459 37.0637 127.169 40.9965 121.372Z" fill="#F0CDA9"/>
<path d="M11.4819 112.19L12.137 111.976C9.61356 111.576 7.20004 110.731 5.0466 108.827L5.06487 109.18C5.40309 111.59 9.09712 112.508 10.6522 112.384L10.5873 112.42L10.5623 112.426C10.4354 112.458 10.1804 112.508 9.86081 112.572L9.61121 112.632L9.39169 112.691L9.01796 112.797L8.86205 112.852L8.38381 113.031L8.36791 113.041L7.90556 113.279L7.80241 113.338L7.38234 113.656C8.71526 112.802 9.99408 112.632 11.4819 112.19Z" fill="#D9B288"/>
<path d="M10.2241 97.5711C6.91594 97.3361 3.27097 96.5796 0.899382 93.4108L0.821248 93.9525L0.819885 93.9759L0.802979 94.4528L0.81617 94.7058L0.843914 95.0266L0.975804 95.6505L1.25484 96.3859C1.95495 97.3182 2.85868 98.0568 3.63422 98.5572C4.50479 99.1168 6.56319 100.017 6.66499 101.6L6.66634 101.597C7.96611 100.462 9.17524 99.1631 10.2241 97.5711Z" fill="#D9B288"/>
<path d="M8.65067 22.484C5.42711 28.5343 5.81674 35.011 6.60005 41.9936L6.61865 42.1676C6.71775 43.0481 7.54605 42.1534 7.56973 41.6085C7.74966 37.5629 8.80524 34.1113 10.4963 31.1275C9.16714 37.5092 12.9694 44.8627 16.982 48.7862C17.4139 49.2149 17.8577 48.3235 17.7812 47.8001C16.8102 41.194 18.0731 35.3374 20.5834 30.365C20.4288 31.6453 20.3243 32.9453 20.3111 34.2816C20.2519 40.9052 23.1991 45.9782 25.9922 50.9864C26.3212 51.5781 26.9077 50.8303 26.8932 50.2836C26.7122 44.5776 26.5972 39.4046 28.0996 33.9694C28.5829 35.8327 29.3148 37.6276 30.019 39.3633C32.5292 45.5513 34.338 53.1256 32.7565 60.1353C32.6338 60.6769 33.046 60.9707 33.3616 60.7412C35.95 58.844 36.8919 54.388 37.477 50.4126C41.1988 57.7487 43.5004 66.6212 41.7075 75.3697C41.5647 76.0551 42.1184 76.1878 42.4289 75.8577C43.8214 74.3658 44.8215 72.3088 45.5588 70.0406C45.3487 73.3742 44.6723 76.5784 43.1067 79.4424C42.7472 80.0947 43.219 80.8462 43.7064 80.2921C46.5616 77.0141 49.6675 72.3538 51.7154 67.1858C52.5464 70.2201 53.767 73.0534 55.4026 75.4758C55.7672 76.0225 56.4991 75.2339 56.2827 74.604C54.663 69.8937 54.6443 65.1114 55.5413 60.5066C55.7212 62.61 56.0632 64.7023 56.6114 66.7502C58.938 75.4634 65.1081 82.2197 62.2093 92.3514C62.0415 92.9339 62.3348 93.3984 62.7734 93.1313C64.4963 92.0892 66.1029 90.0056 67.3871 87.4253C67.1148 92.1397 65.9114 96.8592 64.1344 100.462C63.8199 101.096 64.2772 101.973 64.7354 101.312C66.6433 98.5393 68.8959 95.1612 70.6834 91.4691C70.2924 98.3598 67.4703 104.846 63.3826 109.18C63.0339 109.548 63.0799 110.581 63.6454 110.369C70.5379 107.73 75.9109 102.312 79.8748 94.2647L80.0642 93.8662C81.5862 96.2712 83.5546 98.0156 86.1115 98.4338C86.4903 98.5017 86.8894 97.6336 86.6358 97.2159C84.4171 93.5219 83.2062 89.6884 83.2705 85.5065C83.9977 82.9551 84.5084 80.31 84.7215 77.6384C85.8308 73.9517 87.0112 70.5786 87.461 66.4559C88.1172 60.4653 87.1262 54.6946 84.6775 50.072C85.4723 51.1191 86.1386 52.3548 86.6087 53.9289C86.8218 54.6446 87.4678 54.1121 87.5456 53.5525C88.452 47.2208 87.3663 40.4232 85.6685 34.2848L85.6211 34.1113C85.2153 32.657 84.7756 31.2422 84.3257 29.8793C82.4114 24.1449 79.3945 19.6365 75.6268 16.2047C79.6989 16.6853 83.815 18.8332 85.3303 24.4208C85.5264 25.1415 86.2096 24.609 86.2671 24.0443C86.7338 19.592 85.9052 15.1521 84.1498 11.476C81.1329 8.47429 77.8083 6.81208 74.1487 5.33256C69.7915 3.56981 65.5083 1.68909 60.9832 0.912375C57.9447 0.389059 54.8493 0.385387 51.7563 0.738396C49.7693 0.871061 47.789 1.09737 45.8388 1.40034C39.6068 2.34874 33.6707 4.4521 27.7441 7.13846C24.7333 8.50092 21.8121 10.3105 18.9859 12.2651C17.4389 13.3301 15.5787 15.5983 14.7041 17.0493C14.0686 17.3468 13.4344 17.7145 12.8057 18.1143C11.7329 18.5624 10.6918 19.1238 9.72079 19.9772L10.5941 19.3033C9.90851 20.3035 9.25033 21.3456 8.65067 22.484Z" fill="#AA571E"/>
<path d="M84.1566 11.4846C84.6064 11.9349 85.0495 12.4027 85.4858 12.9177C85.0495 12.4027 84.6064 11.9294 84.1566 11.4846Z" fill="#AA571E"/>
<path d="M86.2671 24.0443C86.2096 24.6089 85.5264 25.1414 85.3303 24.4207C83.815 18.8331 79.6989 16.6852 75.6267 16.2046C79.3945 19.6365 82.4114 24.1448 84.3257 29.8792C84.7755 31.2421 85.2153 32.6569 85.6211 34.1112C85.3742 33.2666 85.2288 32.3535 85.2288 31.389C85.2288 27.8043 87.1262 24.8297 89.6324 24.1967C88.9323 23.0201 88.496 21.5429 88.496 19.9128C88.496 19.0089 88.6313 18.1445 88.868 17.3559C87.8635 15.7869 86.7034 14.3395 85.4858 12.9178C85.0495 12.4028 84.6064 11.935 84.1566 11.4847L84.1498 11.4759C85.9052 15.152 86.7338 19.5919 86.2671 24.0443Z" fill="#8F4D1D"/>
<path d="M11.2441 51.3308C13.5308 54.1948 16.6198 57.3668 17.9436 60.5944L18.299 61.6038C18.8591 63.5548 18.6863 65.5149 17.213 67.4246L17.3175 67.9249C20.763 67.2005 22.0844 60.5388 21.4884 54.8186C22.6245 57.0546 24.0301 59.1112 24.8747 61.7778C25.6012 63.4345 25.9895 65.323 25.2934 66.971L24.9552 67.8478C26.5008 68.3014 27.875 67.0445 28.8538 65.5471C29.237 64.9641 31.1527 61.4477 30.734 60.5622C32.5069 64.2668 30.2331 68.6957 29.9835 72.5421C29.8884 74.0252 30.3004 76.903 31.5636 77.6471C31.5687 76.9586 31.6151 76.3168 31.6932 75.8991C31.9627 74.4251 32.4897 73.3041 33.1583 72.3235C34.0144 70.844 36.5801 67.4746 36.7888 67.9428C38.5989 71.9595 40.3018 76.3847 38.3808 80.1311C37.1351 82.564 34.8785 86.1396 35.9946 89.3942C36.3633 90.4739 36.8429 91.157 37.431 91.6771C37.8312 92.3225 38.2448 92.9661 38.5604 93.7194C39.9819 97.0599 38.8035 101.618 35.605 101.683L35.4254 101.877C35.2536 102.818 36.5324 103.666 37.0769 103.731C38.258 103.86 39.5449 103.548 40.6242 102.757C41.0415 102.372 41.4315 101.936 41.8157 101.491C43.0854 99.0434 43.7896 96.5421 44.2654 93.3696C44.647 90.809 44.9246 87.9115 45.9575 85.6396C47.3317 82.6196 49.0015 81.0129 51.0799 80.3982C52.055 79.7455 53.1065 79.4191 54.133 79.521C54.9217 79.6128 55.6935 79.9392 56.399 80.5309C58.152 82.0049 60.1218 85.227 59.003 92.1072C58.1706 97.2449 56.6168 97.9009 52.8805 102.032C51.2794 103.799 48.4665 108.436 46.5362 107.408C46.523 107.986 46.4994 108.577 46.4625 109.171L46.4598 109.216C46.5748 110.066 46.6922 110.905 46.8217 111.741C47.325 115.01 47.6608 118.755 48.9224 121.675C49.8579 123.846 50.9821 125.812 51.9281 127.877C52.4973 128.561 52.7087 129.579 53.1951 130.406L53.4829 130.741C53.5265 131.25 53.5215 131.788 53.491 132.366L53.6628 133.251L54.3274 133.022L54.8848 131.927L55.0617 131.292L55.3722 130.75L55.5085 130.424L55.5058 130.635C55.7091 130.485 55.9259 130.493 55.9986 130.915C56.1477 131.756 56.3567 132.521 56.6314 133.233L56.8823 132.875C57.0805 132.412 57.2801 131.967 57.4847 131.535L57.527 131.448L57.7729 130.976C58.2169 130.09 58.6857 129.249 59.2539 128.455C60.1181 128.037 60.9437 127.542 61.7324 127.069L62.0747 126.803L62.3456 126.701C70.2947 121.983 78.2716 117.54 85.4689 110.805C87.5591 108.854 89.5918 106.72 91.4791 104.387L91.3269 103.248C90.3427 98.0303 87.3596 93.7107 85.8071 88.8117C83.8556 82.6522 86.125 77.4089 88.8004 72.5618C90.8906 68.7659 92.8184 65.0325 93.8973 60.4741C94.9695 55.9483 94.0901 51.0962 92.9774 46.7728C92.2739 44.0309 91.4148 41.3877 90.7485 38.7018L90.6267 38.7161C88.4047 38.7161 86.4937 36.8886 85.6685 34.2849C87.3664 40.4233 88.452 47.2209 87.5456 53.5526C87.4678 54.1121 86.8218 54.6446 86.6087 53.929C86.1386 52.3549 85.4723 51.1191 84.6775 50.072C87.1262 54.6947 88.1172 60.4654 87.461 66.456C87.0112 70.5787 85.8308 73.9518 84.7215 77.6384C84.5084 80.3101 83.9977 82.9551 83.2705 85.5065C83.2062 89.6885 84.4171 93.522 86.6358 97.216C86.8895 97.6337 86.4903 98.5018 86.1115 98.4338C83.5546 98.0156 81.5862 96.2712 80.0642 93.8663L79.8748 94.2647C75.9109 102.312 70.5379 107.73 63.6454 110.369C63.0799 110.581 63.0339 109.548 63.3826 109.18C67.4703 104.846 70.2924 98.3599 70.6834 91.4691C68.8959 95.1613 66.6433 98.5394 64.7355 101.312C64.2772 101.974 63.8199 101.096 64.1344 100.462C65.9114 96.8593 67.1148 92.1398 67.3871 87.4254C66.1029 90.0057 64.4963 92.0893 62.7734 93.1313C62.3348 93.3985 62.0415 92.9339 62.2093 92.3514C65.1082 82.2197 58.938 75.4634 56.6114 66.7502C56.0632 64.7024 55.7212 62.6101 55.5413 60.5067C54.6444 65.1114 54.663 69.8938 56.2827 74.6041C56.4992 75.2339 55.7672 76.0226 55.4026 75.4758C53.767 73.0534 52.5464 70.2202 51.7154 67.1859C49.6675 72.3538 46.5616 77.0141 43.7064 80.2922C43.219 80.8463 42.7472 80.0948 43.1067 79.4425C44.6723 76.5785 45.3487 73.3743 45.5588 70.0407C44.8215 72.3089 43.8214 74.3659 42.4289 75.8578C42.1184 76.1878 41.5647 76.0552 41.7075 75.3698C43.5004 66.6212 41.1988 57.7487 37.477 50.4127C36.8919 54.388 35.95 58.844 33.3616 60.7413C33.046 60.9708 32.6338 60.677 32.7565 60.1353C34.338 53.1256 32.5293 45.5513 30.019 39.3633C29.3148 37.6277 28.5829 35.8328 28.0996 33.9695C26.5972 39.4047 26.7122 44.5777 26.8932 50.2837C26.9077 50.8304 26.3212 51.5782 25.9922 50.9865C23.1991 45.9782 20.2519 40.9053 20.3111 34.2817C20.3243 32.9454 20.4288 31.6453 20.5834 30.3651C18.0731 35.3375 16.8102 41.194 17.7812 47.8002C17.8577 48.3235 17.4139 49.215 16.982 48.7862C12.9694 44.8628 9.16714 37.5092 10.4963 31.1275C8.80525 34.1113 7.74966 37.5629 7.56973 41.6085C7.54605 42.1534 6.71775 43.0481 6.61865 42.1677L6.60005 41.9937C5.81674 35.0111 5.42711 28.5344 8.65067 22.4841C9.25033 21.3457 9.90852 20.3036 10.5941 19.3033L9.72079 19.9772C8.45383 21.0785 7.32012 22.4198 6.32542 23.9296C3.97514 26.5834 2.9446 29.0884 2.08045 33.2112C1.3827 36.5443 1.3076 40.2401 2.38314 43.4805C3.06871 45.5513 4.08742 47.3233 5.06081 49.1594C5.58167 50.1368 6.12317 51.0925 6.63862 52.073C7.87785 54.4385 7.19465 59.3641 4.52475 59.7121L4.41482 60.1174C5.96725 61.9339 7.48924 61.0066 8.68112 59.2943C9.68123 57.8635 10.45 55.8749 10.8105 54.4707C11.0669 53.4699 11.2046 52.4086 11.2441 51.3308Z" fill="#8F4D1D"/>
<path d="M54.4489 92.5753C54.3339 93.5076 54.1475 94.388 53.9348 95.1088C53.0446 98.0981 51.0322 100.632 48.5219 100.655C47.51 100.67 46.7094 100.219 47.0267 98.604C47.1549 97.9512 47.6541 97.0597 48.0318 96.6241C48.69 95.88 48.801 93.8519 48.8324 92.8135C48.9291 90.0055 48.896 86.3097 51.7654 86.2776C54.4276 86.2509 54.8057 89.6328 54.4489 92.5753ZM52.8806 102.032C56.6169 97.9007 58.1706 97.2447 59.003 92.107C60.1218 85.2268 58.152 82.0047 56.399 80.5307C55.6935 79.939 54.9217 79.6126 54.133 79.5208C53.1065 79.4189 52.055 79.7453 51.0799 80.3981C50.6385 80.69 50.2093 81.0306 49.8129 81.4631C46.7743 84.7801 45.2074 92.4426 44.9074 97.9099C44.7633 100.576 44.5692 104.258 45.6724 106.429C45.9298 106.935 46.222 107.233 46.5362 107.408C48.4665 108.436 51.2794 103.799 52.8806 102.032Z" fill="#F0CDA9"/>
<path d="M51.7654 86.2777C48.896 86.3099 48.9291 90.0057 48.8324 92.8137C48.8009 93.8521 48.69 95.8801 48.0318 96.6243C47.654 97.0599 47.1548 97.9514 47.0266 98.6041C46.7094 100.22 47.5099 100.67 48.5219 100.655C51.0322 100.632 53.0446 98.0983 53.9348 95.1089C54.1475 94.3882 54.3339 93.5078 54.4489 92.5754C54.8057 89.6329 54.4275 86.2511 51.7654 86.2777Z" fill="#E3BA8E"/>
<path d="M98.0168 25.8215C95.3144 33.9554 99.6944 44.458 100.07 52.6847C100.347 58.6436 99.0314 64.4909 96.7146 69.5084C95.0371 73.1486 92.5749 75.9764 90.9108 79.6538C87.9954 86.1076 89.1825 93.126 92.7237 98.4895C93.1025 99.067 93.7586 98.249 93.603 97.6215C92.6628 93.7466 93.6098 90.0237 95.3246 86.9431C95.1994 90.7123 95.727 94.65 96.4644 98.0663C99.0044 109.828 101.497 124.011 92.2434 131.563C91.8883 131.856 91.6921 132.83 92.2704 132.889C94.638 133.148 96.9413 132.074 99.0112 130.164C96.0078 138.656 93.7755 147.897 100.002 154.144C100.405 154.547 100.932 153.69 100.804 153.158C99.302 146.964 100.273 140.055 102.978 134.772C103.756 141.782 107.193 149.668 102.928 154.562C102.62 154.915 102.623 156.053 103.188 155.745C109.097 152.561 111.295 144.339 111.167 136.061C111.617 136.805 112.12 137.521 112.695 138.201C113.068 138.642 113.646 137.724 113.494 137.214C112.533 133.963 112.131 130.915 112.175 127.946L112.188 127.869C112.374 121.399 116.274 119.55 119.064 115.299C121.425 111.691 120.326 105.787 118.905 101.995C117.769 98.961 116.372 95.9827 116.091 92.5343C115.746 88.3202 118.066 84.3591 119.517 80.8932C121.54 76.0695 122.903 70.8171 121.956 65.2709C121.188 60.7772 118.631 57.1751 116.622 53.639C114.092 49.1954 113.328 44.8845 113.578 39.358C113.68 37.133 113.805 34.8501 113.812 32.6247C113.653 31.5831 113.456 30.5355 113.189 29.521C111.387 23.7503 107.521 20.3253 102.62 19.0827C100.553 20.6751 98.9942 22.8699 98.0168 25.8215Z" fill="#AA571E"/>
<path d="M94.6651 26.5747C95.5039 27.8637 96.0247 29.5388 96.0247 31.3893C96.0247 35.3788 93.6707 38.6101 90.7485 38.7019C91.4148 41.3878 92.2739 44.031 92.9774 46.7729C94.0901 51.0962 94.9695 55.9484 93.8973 60.4742C92.8184 65.0325 90.8905 68.766 88.8003 72.5619C86.125 77.409 83.8556 82.6522 85.8071 88.8118C87.3595 93.7107 90.3427 98.0304 91.3269 103.248L91.4791 104.387C91.9018 108.757 90.4711 114.578 87.2344 114.656C90.3054 117.873 94.5636 115.675 96.3934 111.213C96.7012 113.803 96.5084 116.387 95.7778 118.921C94.3776 123.787 90.1194 126.665 87.417 130.144C84.16 134.337 81.8872 143.424 86.9807 146.969L87.2412 146.528C85.2085 142.443 86.8624 138.954 89.5241 136.406C89.2367 137.509 89.0473 138.66 89.0202 139.872C88.9728 141.814 89.1386 143.686 89.6324 145.395C92.2062 150.374 97.0766 155.186 96.5591 161.621C96.3156 164.678 95.0304 166.68 92.7136 166.906C91.8714 166.992 91.0901 166.658 90.3798 166.093C91.6617 169.172 95.2468 169.407 97.4588 168.13C97.2051 169.972 97.1205 171.867 97.2254 173.727C97.2727 174.613 97.3742 175.454 97.5129 176.269C98.4903 179.35 100.564 182.196 102.951 183.211C102.637 182.44 102.37 181.672 102.167 180.971C101.636 179.126 101.358 176.472 101.626 174.066C101.771 171.973 102.268 169.884 103.127 167.938C103.942 166.084 105.089 164.184 105.985 162.177C106.259 163.454 106.682 164.687 107.274 165.814C108.245 167.659 109.537 168.342 111.143 168.424C111.826 168.462 112.384 168.118 112.929 167.668C112.161 167.076 111.502 166.188 110.994 165.234C110.054 163.457 109.581 161.479 109.645 159.294C109.709 157.137 110.646 155.379 111.792 153.982C113.257 151.954 114.958 149.673 115.009 146.619C115.019 145.908 114.989 145.251 114.931 144.613C117.458 144.509 120.042 141.617 118.821 137.83C118.019 135.341 116.416 134.066 115.154 132.054C111.6 126.389 116.565 121.336 119.72 118.503C123.343 115.257 125.45 111.066 123.782 105.081C122.916 101.974 121.273 98.8011 121.06 95.4322C120.762 90.6893 122.7 87.1693 124.611 83.529C127.648 77.7533 129.035 70.7849 126.664 63.9997C125.568 60.8598 124.242 57.7525 122.487 55.1914C120.42 52.1791 117.982 49.7007 115.922 46.7119C113.007 42.4744 114.579 38.3898 113.937 33.4045L113.812 32.6246C113.805 34.85 113.68 37.1329 113.578 39.3579C113.328 44.8844 114.092 49.1953 116.622 53.6389C118.631 57.175 121.188 60.7771 121.956 65.2708C122.903 70.817 121.54 76.0695 119.517 80.8931C118.066 84.359 115.746 88.3201 116.091 92.5342C116.372 95.9826 117.769 98.9609 118.905 101.995C120.326 105.787 121.425 111.691 119.064 115.298C116.274 119.55 112.374 121.399 112.188 127.869L112.175 127.946C112.131 130.915 112.533 133.963 113.494 137.214C113.646 137.723 113.068 138.642 112.696 138.201C112.121 137.521 111.617 136.805 111.167 136.061C111.295 144.339 109.097 152.56 103.188 155.745C102.623 156.053 102.62 154.915 102.928 154.561C107.193 149.668 103.756 141.781 102.978 134.772C100.273 140.055 99.3021 146.964 100.804 153.158C100.932 153.69 100.405 154.547 100.002 154.144C93.7755 147.896 96.0078 138.656 99.0112 130.164C96.9413 132.073 94.638 133.148 92.2705 132.889C91.6921 132.83 91.8883 131.856 92.2434 131.563C101.497 124.011 99.0044 109.827 96.4644 98.0662C95.7271 94.6499 95.1995 90.7122 95.3246 86.943C93.6098 90.0236 92.6628 93.7465 93.6031 97.6214C93.7587 98.2489 93.1025 99.0669 92.7237 98.4894C89.1826 93.1259 87.9954 86.1075 90.9109 79.6537C92.5749 75.9763 95.0371 73.1485 96.7147 69.5083C99.0315 64.4909 100.347 58.6435 100.07 52.6846C99.6944 44.4579 95.3144 33.9553 98.0168 25.8214C98.9943 22.8698 100.553 20.675 102.62 19.0826C102.18 18.977 101.744 18.8531 101.287 18.7796C100.344 18.6235 99.4171 18.6685 98.5039 18.8388L98.585 19.913C98.585 23.1677 96.9075 25.8751 94.6651 26.5747Z" fill="#8F4D1D"/>
<path d="M91.6786 21.8458C91.6786 22.6349 91.2085 23.273 90.6268 23.273C90.045 23.273 89.5749 22.6349 89.5749 21.8458C89.5749 21.0549 90.045 20.4131 90.6268 20.4131C91.2085 20.4131 91.6786 21.0549 91.6786 21.8458ZM93.1566 13.5503C94.5535 13.5503 95.6831 15.0872 95.6831 16.9845C95.6831 18.8799 94.5535 20.4131 93.1566 20.4131C91.7564 20.4131 90.6268 18.8799 90.6268 16.9845C90.6268 15.0872 91.7564 13.5503 93.1566 13.5503ZM89.6324 24.1966C89.9571 24.1121 90.2852 24.0584 90.6268 24.0584C92.2434 24.0584 93.6775 25.0449 94.6651 26.5745C96.9075 25.8749 98.585 23.1674 98.585 19.9127L98.5039 18.8386C98.1183 15.5752 96.0518 13.0683 93.5388 13.0683C91.4182 13.0683 89.6155 14.8453 88.868 17.3558C88.6313 18.1445 88.496 19.0089 88.496 19.9127C88.496 21.5428 88.9323 23.02 89.6324 24.1966Z" fill="#E6234D"/>
<path d="M93.1566 20.4133C94.5534 20.4133 95.6831 18.8801 95.6831 16.9847C95.6831 15.0874 94.5534 13.5505 93.1566 13.5505C91.7564 13.5505 90.6267 15.0874 90.6267 16.9847C90.6267 18.8801 91.7564 20.4133 93.1566 20.4133Z" fill="white"/>
<path d="M89.5749 21.846C89.5749 22.6351 90.045 23.2732 90.6267 23.2732C91.2085 23.2732 91.6786 22.6351 91.6786 21.846C91.6786 21.0551 91.2085 20.4133 90.6267 20.4133C90.045 20.4133 89.5749 21.0551 89.5749 21.846Z" fill="white"/>
<path d="M89.9639 31.4536C88.8274 31.4536 87.9041 30.2004 87.9041 28.6584C87.9041 27.1073 88.8274 25.8628 89.9639 25.8628C91.1036 25.8628 92.027 27.1073 92.027 28.6584C92.027 30.2004 91.1036 31.4536 89.9639 31.4536ZM87.9041 33.7759C87.4306 33.7759 87.0484 33.2576 87.0484 32.6195C87.0484 31.9773 87.4306 31.4536 87.9041 31.4536C88.3776 31.4536 88.7632 31.9773 88.7632 32.6195C88.7632 33.2576 88.3776 33.7759 87.9041 33.7759ZM96.0247 31.3893C96.0247 29.5389 95.5039 27.8638 94.6651 26.5748C93.6775 25.0452 92.2434 24.0587 90.6267 24.0587C90.2851 24.0587 89.9571 24.1124 89.6324 24.1969C87.1262 24.8299 85.2288 27.8046 85.2288 31.3893C85.2288 32.3538 85.3742 33.2668 85.6211 34.1115L85.6685 34.285C86.4937 36.8887 88.4046 38.7162 90.6267 38.7162L90.7485 38.702C93.6707 38.6101 96.0247 35.3789 96.0247 31.3893Z" fill="#CB1B32"/>
<path d="M89.9639 25.8626C88.8274 25.8626 87.9041 27.1071 87.9041 28.6582C87.9041 30.2002 88.8274 31.4534 89.9639 31.4534C91.1037 31.4534 92.027 30.2002 92.027 28.6582C92.027 27.1071 91.1037 25.8626 89.9639 25.8626Z" fill="white"/>
<path d="M87.9041 31.4536C87.4306 31.4536 87.0484 31.9773 87.0484 32.6195C87.0484 33.2576 87.4306 33.7759 87.9041 33.7759C88.3776 33.7759 88.7632 33.2576 88.7632 32.6195C88.7632 31.9773 88.3776 31.4536 87.9041 31.4536Z" fill="white"/>
<path d="M70.3492 163.301C70.7679 163.136 71.1893 162.98 71.6054 162.806L72.3072 165.744C71.8962 165.964 71.4799 166.17 71.0652 166.391C71.5448 168.571 71.9808 170.784 72.3508 173.061C72.85 172.771 73.354 172.479 73.841 172.156L75.39 178.635L75.1296 178.832C74.531 179.25 73.9188 179.621 73.3066 180.012C73.6144 182.59 73.8748 185.198 74.0913 187.816C75.1195 187.227 76.1341 186.598 77.1352 185.933L78.4441 191.409C77.142 192.342 75.8399 193.245 74.5276 194.081C74.6696 196.486 74.7914 198.883 74.8895 201.261C76.6381 200.242 78.3427 199.107 79.9627 197.762L81.4239 203.877C79.4994 205.548 77.3213 206.793 75.1093 207.876L75.1397 209H82.6482L71.2962 161.515C70.8711 160.032 70.4179 158.72 69.9447 157.522C69.5642 157.654 69.1837 157.802 68.8046 157.945C69.3647 159.679 69.8855 161.461 70.3492 163.301Z" fill="#F3D70B"/>
<path d="M69.9224 157.462C68.6764 154.305 67.3039 152.072 65.9006 150.521L65.9152 150.55C67.313 152.105 68.6818 154.317 69.9224 157.462Z" fill="#F3D70B"/>
<path d="M65.9152 150.55C67.0039 152.867 67.9617 155.341 68.8046 157.945C69.1837 157.802 69.5642 157.654 69.9447 157.522H69.9474L69.9224 157.462C68.6818 154.318 67.313 152.105 65.9152 150.55Z" fill="#F18614"/>
<path d="M72.3071 165.744L71.6053 162.807C71.1893 162.981 70.7679 163.136 70.3492 163.301C70.6028 164.316 70.8379 165.349 71.0652 166.391C71.4798 166.171 71.8962 165.964 72.3071 165.744Z" fill="#F18614"/>
<path d="M73.1882 179.011L73.3066 180.012C73.9187 179.621 74.5309 179.25 75.1296 178.832L75.39 178.635L73.841 172.156C73.3539 172.479 72.85 172.771 72.3508 173.061C72.6558 174.933 72.9173 176.84 73.1591 178.762L73.1922 179.011H73.1882Z" fill="#F18614"/>
<path d="M74.4464 192.686L74.4532 192.818C74.4802 193.242 74.5005 193.663 74.5276 194.081C75.8399 193.245 77.142 192.341 78.4441 191.409L77.1352 185.933C76.1341 186.598 75.1195 187.227 74.0913 187.816C74.2232 189.435 74.3416 191.061 74.443 192.686H74.4464Z" fill="#F18614"/>
<path d="M81.4239 203.877L79.9627 197.762C78.3427 199.107 76.6381 200.242 74.8895 201.261C74.9774 203.491 75.0484 205.695 75.1093 207.876C77.3213 206.793 79.4994 205.548 81.4239 203.877Z" fill="#F18614"/>
<path d="M24.0146 204.41C20.282 204.427 16.2488 204.318 12.9285 202.459C13.2099 199.636 13.8018 196.729 14.6013 193.787C17.9872 195.453 21.7671 195.931 25.2816 196.491C25.6607 196.546 26.0385 196.591 26.4163 196.647C27.8656 192.089 29.5516 187.034 31.3127 182.219C27.5605 181.787 23.3314 181.066 20.1342 179.106C21.1685 176.884 22.2572 174.722 23.3669 172.635C26.9422 174.024 30.6823 174.094 34.4135 174.268C35.8668 170.816 37.3093 167.809 38.6622 165.634C39.0122 165.069 39.3758 164.569 39.7404 164.072L39.7418 164.069L40.3614 163.287C36.7438 163.319 33.1543 162.939 29.8394 161.576C30.6085 160.373 31.3364 159.27 32.0338 158.225V158.216C24.4783 169.457 11.9206 191.185 12.7739 207.784C12.7939 208.161 12.8216 208.573 12.8558 209H22.6577C23.0169 207.765 23.4769 206.204 24.0146 204.41Z" fill="#F3EA07"/>
<path d="M51.5277 154.818C51.9755 154.797 52.4236 154.797 52.8714 154.786C52.7777 153.158 52.7524 151.528 52.7723 149.88C46.7003 151.587 39.0677 154.249 32.0338 158.225C33.0115 157.875 33.9907 157.522 34.9854 157.233C40.4182 155.654 45.988 155.062 51.5277 154.818Z" fill="#F3EA07"/>
<path d="M52.7723 149.879C52.7524 151.527 52.7777 153.157 52.8714 154.785C57.991 154.708 63.0894 155.447 68.1917 156.085C68.6395 157.357 69.0623 158.669 69.4519 160.002C68.5932 160.135 67.7754 160.262 67.0435 160.418C64.4209 160.988 61.7814 161.383 59.1335 161.704C59.4904 162.319 59.8367 163.036 60.1641 163.839C60.8382 165.037 61.4351 166.47 61.9438 168.195C62.5279 170.164 62.878 172.226 63.0667 174.327C65.8174 173.868 68.5604 173.314 71.2952 172.832C71.6175 172.776 71.9371 172.708 72.2595 172.638C72.5913 174.654 72.899 176.696 73.1591 178.762C72.9173 176.84 72.6559 174.933 72.3494 173.061C71.9808 170.784 71.5448 168.571 71.0652 166.391C70.8379 165.349 70.6029 164.316 70.3479 163.301C69.8865 161.461 69.3646 159.679 68.8046 157.945C67.9617 155.341 67.0039 152.867 65.9152 150.55L65.9006 150.521C65.3774 149.411 64.8241 148.337 64.2373 147.305C63.8358 147.363 59.1734 148.088 52.7723 149.879Z" fill="#F0BA0F"/>
<path d="M70.2156 179.709C67.8744 180.31 65.5215 180.81 63.1607 181.26C62.9189 186.006 62.1579 190.776 61.4537 195.173C63.6285 194.797 65.8028 194.425 67.9854 194.108C70.1906 193.792 72.364 193.425 74.443 192.686C74.3415 191.061 74.2231 189.435 74.0912 187.816C73.8748 185.198 73.6143 182.59 73.3066 180.012L73.1882 179.011C72.1921 179.235 71.1961 179.456 70.2156 179.709Z" fill="#F0BA0F"/>
<path d="M74.8895 201.261C74.7914 198.883 74.6696 196.486 74.5276 194.081C74.5005 193.663 74.4802 193.242 74.4532 192.819C74.629 195.632 74.7745 198.451 74.8861 201.228C72.0877 201.723 69.2037 201.806 66.4688 202.215C64.2664 202.546 62.0602 202.844 59.8536 203.129C59.4799 205.03 59.1335 206.934 58.8522 208.858L58.8312 209H75.1397L75.1093 207.876C75.0451 205.695 74.9774 203.491 74.8895 201.261Z" fill="#F0BA0F"/>
<path d="M61.8038 170.678L61.821 170.784H61.8169C61.9384 171.926 62.0192 173.153 62.0337 174.483C62.3784 174.43 62.722 174.383 63.0667 174.327C62.8779 172.226 62.5279 170.164 61.9438 168.195C61.4351 166.47 60.8381 165.037 60.1641 163.839C60.8868 165.611 61.4892 167.856 61.8038 170.678Z" fill="#F0BA0F"/>
<path d="M62.0337 174.483C62.0192 173.153 61.9384 171.926 61.8169 170.784H61.821L61.8038 170.678C61.4892 167.856 60.8868 165.611 60.1641 163.839C60.8381 165.037 61.4351 166.47 61.9438 168.195C62.5279 170.164 62.8779 172.226 63.0667 174.327C62.722 174.383 62.3784 174.43 62.0337 174.483Z" fill="#BF961B"/>
<path d="M63.1607 181.26C62.6439 181.36 62.1288 181.466 61.6123 181.563C61.4537 182.861 61.2488 184.229 60.9914 185.671L60.9768 185.75C60.8064 186.695 60.6122 187.672 60.3927 188.682L60.2896 189.164C60.0504 190.243 59.7904 191.35 59.4931 192.501L58.752 195.632C59.6517 195.481 60.5541 195.329 61.4537 195.173C62.1579 190.776 62.9189 186.006 63.1607 181.26Z" fill="#F0BA0F"/>
<path d="M58.752 195.632L59.4931 192.501C59.7904 191.35 60.0504 190.243 60.2896 189.164L60.3927 188.682C60.6122 187.672 60.8064 186.695 60.9768 185.75L60.9914 185.671C61.2488 184.229 61.4537 182.861 61.6123 181.563C62.1288 181.466 62.6439 181.36 63.1607 181.26C62.9189 186.006 62.1579 190.776 61.4537 195.173C60.5541 195.329 59.6517 195.481 58.752 195.632Z" fill="#BF961B"/>
<path d="M59.8536 203.129C58.8657 203.257 57.8774 203.391 56.8891 203.5L56.0554 207.031L55.589 209H58.8312L58.8521 208.858C59.1335 206.934 59.4799 205.03 59.8536 203.129Z" fill="#F0BA0F"/>
<path d="M58.8312 209H55.589L56.0554 207.031L56.8891 203.5C57.8774 203.391 58.8657 203.257 59.8536 203.129C59.4799 205.03 59.1335 206.934 58.8521 208.858L58.8312 209Z" fill="#BF961B"/>
<path d="M74.443 192.686C72.364 193.425 70.1906 193.792 67.9854 194.108C65.8028 194.425 63.6285 194.796 61.4537 195.173C60.554 195.329 59.6517 195.481 58.752 195.632L56.8891 203.5C57.8774 203.391 58.8657 203.257 59.8536 203.129C62.0601 202.849 64.2663 202.546 66.4688 202.215C69.2037 201.806 72.0876 201.723 74.8861 201.228C74.7744 198.451 74.629 195.632 74.4531 192.819L74.4464 192.686H74.443Z" fill="#F18614"/>
<path d="M25.2816 196.491C21.7671 195.931 17.9872 195.453 14.6013 193.787C13.8017 196.729 13.2099 199.636 12.9285 202.459C16.2488 204.318 20.282 204.427 24.0146 204.409C24.7002 202.132 25.5099 199.493 26.4163 196.647C26.0385 196.591 25.6607 196.546 25.2816 196.491Z" fill="#F18614"/>
<path d="M40.4683 163.159L40.7602 162.819C47.3186 155.315 55.3844 157.646 55.3844 157.646C55.3844 157.646 57.3423 158.587 59.1335 161.704C61.7815 161.383 64.4209 160.988 67.0435 160.418C67.7754 160.262 68.5932 160.135 69.4519 160.006C69.0623 158.669 68.6395 157.357 68.1917 156.085C63.0894 155.447 57.9911 154.708 52.8714 154.785C52.4236 154.796 51.9755 154.796 51.5277 154.818C45.988 155.062 40.4182 155.653 34.9854 157.233C33.9907 157.522 33.0116 157.875 32.0338 158.225C31.3364 159.27 30.6085 160.373 29.8394 161.576C33.1543 162.939 36.7438 163.319 40.3614 163.287L40.4683 163.159Z" fill="#F18614"/>
<path d="M23.3669 172.634C22.2572 174.722 21.1685 176.884 20.1342 179.106C23.3314 181.066 27.5605 181.787 31.3127 182.219C32.3311 179.441 33.3734 176.743 34.4135 174.268C30.6822 174.094 26.9422 174.024 23.3669 172.634Z" fill="#F18614"/>
<path d="M61.6124 181.563C62.1288 181.466 62.6439 181.36 63.1621 181.26C65.5215 180.81 67.8745 180.31 70.2156 179.709C71.1961 179.456 72.1922 179.235 73.1882 179.011H73.1923L73.1591 178.762C72.899 176.696 72.5913 174.654 72.2595 172.638C71.9372 172.708 71.6175 172.776 71.2952 172.832C68.5604 173.314 65.8161 173.868 63.0667 174.328C62.7221 174.383 62.3784 174.43 62.0338 174.484C62.0588 176.587 61.9279 178.941 61.6124 181.563Z" fill="#F18614"/>
<path d="M52.7723 149.88C59.1734 148.088 63.8358 147.364 64.2373 147.305L64.2758 147.299C63.5689 142.268 61.3587 135.735 61.3587 135.735C60.6068 135.561 59.744 135.502 58.8007 135.534C51.8699 135.782 40.5183 141.281 35.1163 145.078C33.2811 146.363 32.1251 147.461 32.0723 148.079C31.8464 150.756 32.0314 158.096 32.0338 158.216V158.225C39.0677 154.249 46.7003 151.587 52.7723 149.88Z" fill="#DB7C19"/>
<path d="M60.2896 189.164C60.0518 190.238 59.7904 191.35 59.4931 192.501C59.7904 191.35 60.0494 190.243 60.2896 189.164Z" fill="#F3D70B"/>
<path d="M60.3927 188.682C60.6122 187.672 60.8064 186.695 60.9768 185.75C60.8064 186.695 60.6095 187.672 60.3927 188.682Z" fill="#F3D70B"/>
<path d="M40.4683 163.16L40.3614 163.287L39.7418 164.069L40.4683 163.16Z" fill="#F3D70B"/>
<path d="M55.3844 157.646C55.3844 157.646 47.3185 155.315 40.7601 162.819C41.5965 161.874 42.4566 161.079 43.3208 160.414C49.061 163.454 55.1584 164.757 61.1063 166.782C61.3996 167.938 61.6414 169.228 61.8038 170.678C61.4892 167.856 60.8868 165.611 60.1641 163.834C59.8367 163.036 59.4903 162.319 59.1335 161.704C57.3423 158.587 55.3844 157.646 55.3844 157.646Z" fill="#F3D70B"/>
<path d="M25.7385 198.8C26.4254 196.6 27.18 194.246 27.9765 191.836C35.0963 201.899 45.7184 205.796 56.0554 207.031L56.8891 203.5L58.752 195.632L59.4931 192.501L58.5562 196.455C48.7032 194.508 39.6741 189.284 32.0723 180.18C32.8347 178.165 33.6034 176.219 34.3725 174.378C41.8884 182.664 51.3981 185.024 60.9914 185.671C61.2488 184.229 61.4537 182.861 61.6123 181.563C61.9279 178.941 62.0588 176.587 62.0337 174.483C62.0192 173.153 61.9384 171.926 61.817 170.784C58.5406 170.89 55.2467 170.101 51.9031 169.201C47.7322 168.085 43.3604 167.117 39.7404 164.072C39.3758 164.569 39.0122 165.069 38.6622 165.634C37.3093 167.809 35.8668 170.816 34.4135 174.268C33.3734 176.743 32.3311 179.442 31.3127 182.219C29.5516 187.034 27.8655 192.089 26.4163 196.647C25.5098 199.493 24.7002 202.132 24.0146 204.41C23.4768 206.204 23.0168 207.765 22.6577 209H22.659C22.9364 208.041 23.2719 206.902 23.6618 205.593C24.687 206.814 25.7544 207.949 26.8577 209H36.9515C32.7711 206.434 28.9279 203.014 25.7385 198.8Z" fill="#F3D70B"/>
<path d="M51.9031 169.201C55.2467 170.101 58.5406 170.89 61.817 170.784H61.821L61.8038 170.679C61.6414 169.228 61.3996 167.939 61.1064 166.782C55.1585 164.758 49.061 163.454 43.3208 160.414C42.4567 161.08 41.5966 161.874 40.7602 162.819L40.4683 163.16L39.7418 164.069L39.7404 164.073C43.3604 167.117 47.7322 168.086 51.9031 169.201Z" fill="#F18614"/>
<path d="M60.2895 189.164L60.3927 188.681C60.6095 187.672 60.8063 186.695 60.9768 185.75L60.9914 185.671C51.3981 185.023 41.8884 182.664 34.3725 174.377C33.6034 176.219 32.8346 178.165 32.0723 180.18C39.6741 189.284 48.7032 194.507 58.5562 196.455L59.493 192.501C59.7903 191.35 60.0518 190.238 60.2895 189.164Z" fill="#F18614"/>
<path d="M56.0554 207.031C45.7184 205.796 35.0963 201.899 27.9765 191.836C27.18 194.246 26.4254 196.6 25.7385 198.8C28.9279 203.014 32.7711 206.434 36.9515 209H55.589L56.0554 207.031Z" fill="#F18614"/>
<path d="M22.659 209H26.8576C25.7544 207.949 24.6869 206.814 23.6618 205.593C23.2718 206.902 22.9363 208.041 22.659 209Z" fill="#F18614"/>
</svg>
