<svg width="115" height="219" viewBox="0 0 115 219" fill="none" xmlns="http://www.w3.org/2000/svg">
<path d="M62.5238 133.691C62.6398 134.155 62.7521 134.623 62.8657 135.091L63.1921 134.411L62.5238 133.691Z" fill="#E3BA8E"/>
<path d="M65.47 146.544C64.6799 142.807 63.7985 138.891 62.8657 135.091C62.7521 134.623 62.6398 134.155 62.5238 133.69C58.0434 128.885 53.9161 122.98 51.4458 116.173C51.3703 115.646 51.2898 115.113 51.2185 114.584L51.2198 114.539C49.7716 119.401 47.909 123.995 45.1874 128.003C40.8433 134.406 35.2732 140.241 29.1825 143.919C27.9301 144.437 26.6632 144.846 25.3751 145.111L25.383 145.17C27.7505 145.484 34.3404 141.062 35.8759 145.149C36.5679 146.997 38.5444 153.591 40.7242 161.081C46.2348 154.05 50.9699 151.305 50.9699 151.305C56.7619 147.801 61.5659 145.87 65.47 146.544Z" fill="#E3BA8E"/>
<path d="M90.7214 214.304C90.5905 213.656 90.6592 212.973 90.8919 212.371L90.5442 211.076L89.8322 210.407C88.6789 209.251 87.5334 207.812 86.3296 206.182C85.1009 203.443 84.3967 200.161 84.4285 196.828L83.8184 196.18C84.4999 203.824 84.8526 211.555 85.0759 219H91.6698C91.6884 217.797 91.7202 216.71 91.753 215.823C91.2497 215.557 90.8705 215.039 90.7214 214.304Z" fill="#E3BA8E"/>
<path d="M24.9325 195.138C25.9273 195.185 27.2894 194.927 28.5869 194.914C29.7852 193.352 30.9281 191.595 31.9691 189.841C33.2665 185.972 34.8426 181.729 36.7938 177.047C42.2185 164.043 47.8136 156.555 52.8446 153.012C55.6194 150.289 58.8098 148.78 62.1443 148.012C67.5825 151.093 71.0175 157.064 73.3441 165.264C75.4302 172.622 76.4185 179.884 77.3036 187.614C78.2232 195.676 79.2365 203.878 81.4532 211.505C82.201 214.08 83.2989 217.044 84.8763 219H85.0759C84.8526 211.555 84.4999 203.824 83.8183 196.18L83.4693 195.809C82.1205 193.257 81.3372 190.186 81.3964 187.032L80.7636 186.399C79.3079 183.63 78.5083 180.269 78.7184 176.868C78.3987 176.574 78.0828 176.276 77.795 175.959C76.3339 173.163 75.5371 169.772 75.7552 166.36C75.417 166.035 75.0852 165.709 74.7642 165.37C73.2754 162.625 72.4772 159.268 72.6741 155.89C72.3294 155.586 71.9831 155.28 71.6462 154.963C70.5206 153.071 69.7846 150.849 69.5232 148.509C68.2972 147.438 66.9507 146.8 65.47 146.544C61.5659 145.869 56.7619 147.801 50.9699 151.304C50.9699 151.304 46.2348 154.05 40.7242 161.081C39.9646 162.051 39.1918 163.097 38.4135 164.235C33.1792 171.879 25.2337 184.828 20.4128 198.128C20.7906 197.089 21.1817 196.056 21.5912 195.029C22.7037 195.051 23.8174 195.088 24.9325 195.138Z" fill="#F0CDA9"/>
<path d="M17.4745 208.112C17.3463 208.689 17.2314 209.263 17.1217 209.837C17.201 209.419 17.2935 209.001 17.3833 208.58L17.4745 208.112Z" fill="#F0CDA9"/>
<path d="M19.5263 200.721L19.9186 199.523L19.9305 199.532L20.3309 198.357C19.8896 199.582 19.4774 200.803 19.0956 202.033L19.1762 201.786L19.5263 200.721Z" fill="#F0CDA9"/>
<path d="M18.9991 202.342C18.7732 203.08 18.5565 203.816 18.3544 204.549L18.4733 204.155C18.6424 203.554 18.8128 202.948 18.9991 202.342Z" fill="#F0CDA9"/>
<path d="M16.3607 215.616C16.3277 216.095 16.3 216.563 16.2828 217.031L16.3145 216.558L16.3607 215.616Z" fill="#F0CDA9"/>
<path d="M16.4625 214.354L16.3964 215.08L16.4427 214.639L16.4625 214.354Z" fill="#F0CDA9"/>
<path d="M16.2603 218.014L16.263 219H16.2749L16.2603 218.014Z" fill="#F0CDA9"/>
<path d="M16.6487 212.735L16.5127 213.904L16.5589 213.57L16.6487 212.735Z" fill="#F0CDA9"/>
<path d="M17.0279 210.343L16.8971 211.064L16.9817 210.637L17.0279 210.343Z" fill="#F0CDA9"/>
<path d="M18.2976 204.761L18.283 204.811L18.2949 204.775L18.2976 204.761Z" fill="#F0CDA9"/>
<path d="M16.8919 211.091C16.8099 211.6 16.736 212.106 16.6659 212.609L16.8099 211.706L16.8919 211.091Z" fill="#F0CDA9"/>
<path d="M17.5736 207.665L17.5617 207.712L17.5643 207.698L17.5736 207.665Z" fill="#F0CDA9"/>
<path d="M16.8099 211.706L16.6659 212.609L16.6487 212.735L16.5589 213.571C16.6303 212.95 16.7135 212.33 16.8099 211.706Z" fill="#DB2525"/>
<path d="M16.2854 219C16.2749 218.491 16.2564 217.994 16.2696 217.476L16.2603 218.014L16.2749 219H16.2854Z" fill="#DB2525"/>
<path d="M17.3833 208.58C17.2935 209.001 17.201 209.419 17.1217 209.837L17.0279 210.343L16.9817 210.637C17.1006 209.957 17.238 209.269 17.3833 208.58Z" fill="#DB2525"/>
<path d="M28.5869 194.914C29.1852 194.905 29.7693 194.956 30.2976 195.106C30.7945 193.435 31.3481 191.687 31.9691 189.842C30.9281 191.595 29.7852 193.352 28.5869 194.914Z" fill="#DB2525"/>
<path d="M19.1761 201.786L19.0956 202.033L18.9991 202.341C18.8128 202.947 18.6424 203.554 18.4733 204.154C18.6966 203.365 18.9278 202.574 19.1761 201.786Z" fill="#DB2525"/>
<path d="M18.2949 204.775L18.283 204.811L18.2698 204.857C18.0373 205.715 17.822 206.568 17.6251 207.423L17.5736 207.665L17.5643 207.698C17.7863 206.729 18.0267 205.752 18.2949 204.775Z" fill="#DB2525"/>
<path d="M16.4427 214.639L16.3964 215.08L16.3607 215.616L16.3145 216.558C16.3449 215.919 16.3858 215.287 16.4427 214.639Z" fill="#DB2525"/>
<path d="M19.5263 200.721L19.9305 199.532L19.9186 199.523L19.5263 200.721Z" fill="#DB2525"/>
<path d="M72.4931 183.877C67.5375 159.021 64.0891 149.463 51.8553 159.462C51.8553 159.462 42.0893 165.938 35.2272 200.037C34.8467 201.506 33.7025 207.271 32.9743 211.361C33.072 212.665 33.1647 213.968 33.2956 215.263C33.3707 216.016 33.4579 216.773 33.5425 217.526L36.0582 209.052C34.6508 200.464 37.2206 189.497 41.8924 178.489C50.6729 157.822 57.7278 157.932 57.7278 157.932C62.2792 158.043 67.3288 158.291 70.086 182.762C71.7703 197.737 69.416 211.467 64.0021 219H74.3878C74.6506 205.967 74.2874 192.881 72.4931 183.877Z" fill="#DB2525"/>
<path d="M81.4532 211.505C79.2365 203.878 78.2232 195.676 77.3036 187.614C76.4185 179.884 75.4302 172.622 73.3441 165.264C71.0175 157.064 67.5825 151.093 62.1443 148.012C58.8098 148.78 55.6194 150.289 52.8446 153.012C59.3963 148.403 64.9928 150.492 68.0076 155.831C68.0076 155.831 76.9376 175.84 78.5929 208.198C78.7806 211.912 78.9007 215.516 78.9697 219H84.8763C83.2989 217.044 82.201 214.08 81.4532 211.505Z" fill="#DB2525"/>
<path d="M16.2854 219H33.1025L33.5425 217.526C33.4579 216.773 33.3707 216.016 33.2956 215.263C33.1647 213.968 33.072 212.665 32.9743 211.361C32.7051 212.88 32.491 214.175 32.3983 214.924C32.2874 215.787 32.2119 216.664 32.1355 217.526C29.929 217.926 27.5986 217.366 25.7582 215.943C26.4333 211.6 27.403 204.82 30.2976 195.106C29.7693 194.955 29.1852 194.905 28.5869 194.914C27.2894 194.927 25.9273 195.185 24.9325 195.138C23.8174 195.088 22.7037 195.051 21.5912 195.029C21.1817 196.056 20.7906 197.089 20.4128 198.128L20.3309 198.357L19.9305 199.532L19.5263 200.721L19.1761 201.786C18.9278 202.575 18.6966 203.365 18.4733 204.154L18.3544 204.549L18.2976 204.761L18.2949 204.775C18.0267 205.752 17.7863 206.729 17.5643 207.698L17.5617 207.712L17.4745 208.112L17.3833 208.58C17.238 209.269 17.1006 209.957 16.9817 210.637L16.8971 211.063L16.8919 211.09L16.8099 211.705C16.7135 212.329 16.6303 212.95 16.5589 213.57L16.5127 213.904L16.4625 214.354L16.4427 214.639C16.3858 215.286 16.3449 215.919 16.3145 216.558L16.2828 217.031L16.2696 217.476C16.2564 217.994 16.2749 218.491 16.2854 219Z" fill="#5E3717"/>
<path d="M32.9347 206.968C32.5992 209.672 31.27 211.623 29.9689 211.325C28.6674 211.026 27.8878 208.592 28.2237 205.89C28.5619 203.181 29.888 201.226 31.1895 201.529C32.491 201.821 33.2702 204.26 32.9347 206.968ZM68.0077 155.831C64.9928 150.492 59.3963 148.403 52.8446 153.012C47.8136 156.555 42.2185 164.043 36.7938 177.047C34.8426 181.729 33.2665 185.972 31.9691 189.841C31.3481 191.687 30.7945 193.435 30.2976 195.106C27.403 204.82 26.4333 211.6 25.7582 215.943C27.5986 217.366 29.929 217.926 32.1355 217.526C32.2119 216.664 32.2874 215.787 32.3983 214.924C32.491 214.175 32.7051 212.88 32.9743 211.361C33.7025 207.271 34.8467 201.506 35.2272 200.037C42.0893 165.938 51.8553 159.462 51.8553 159.462C64.0891 149.463 67.5375 159.021 72.4931 183.877C74.2874 192.881 74.6506 205.967 74.3878 219H78.9697C78.9007 215.516 78.7806 211.912 78.5929 208.198C76.9376 175.84 68.0077 155.831 68.0077 155.831Z" fill="#623917"/>
<path d="M31.1895 201.529C29.888 201.226 28.5619 203.181 28.2237 205.89C27.8878 208.592 28.6674 211.026 29.9689 211.325C31.27 211.623 32.5992 209.672 32.9347 206.968C33.2702 204.26 32.491 201.821 31.1895 201.529Z" fill="#4B3619"/>
<path d="M70.086 182.762C67.3288 158.291 62.2792 158.043 57.7278 157.932C57.7278 157.932 50.6729 157.822 41.8924 178.489C37.2206 189.497 34.6508 200.464 36.0582 209.052L45.277 178.007C47.6327 173.351 52.6309 160.068 60.3754 161.719C60.3754 161.719 73.3441 165.264 66.9243 195.386L58.432 219H64.0021C69.416 211.467 71.7703 197.737 70.086 182.762Z" fill="#E3BA8E"/>
<path d="M60.3754 161.719C52.6309 160.068 47.6327 173.351 45.277 178.007L36.0582 209.052L33.5425 217.526L33.1025 219H58.432L66.9243 195.386C73.3441 165.264 60.3754 161.719 60.3754 161.719Z" fill="#F0CDA9"/>
<path d="M9.82626 118.556C10.216 118.427 10.5925 118.339 10.9043 118.271C10.5925 118.339 10.2173 118.427 9.82626 118.556Z" fill="#F0CDA9"/>
<path d="M54.9189 83.9428C55.3458 83.475 55.804 83.1073 56.2745 82.7915C55.0299 83.1716 53.9124 83.8748 52.9136 84.9848C52.6031 86.1843 52.3018 87.382 52.0322 88.598C51.9159 89.1163 51.7904 89.6359 51.673 90.1542C52.5078 87.6244 53.5806 85.4026 54.9189 83.9428Z" fill="#F0CDA9"/>
<path d="M45.1874 128.003C47.909 123.995 49.7716 119.401 51.2198 114.539C51.2607 113.878 51.2858 113.225 51.303 112.588C50.9567 112.4 50.633 112.065 50.3479 111.504C49.131 109.108 49.3451 105.047 49.5047 102.104C49.5947 100.427 49.7993 98.5731 50.1088 96.6813C49.4601 99.2975 48.7968 101.907 48.1505 104.517C48.0345 104.986 47.334 105.33 47.3739 104.591C47.724 98.1411 48.3754 92.0674 47.7859 85.5728C47.2258 79.3899 46.4185 73.711 44.8569 67.9673C43.4567 64.3794 42.1366 60.7157 40.9542 57.1205L40.6556 56.1845C41.1869 58.9746 41.7206 61.7702 42.2861 64.557C42.7113 66.6604 43.2849 68.7528 43.6481 70.874C43.7564 72.063 43.8991 73.234 44.0763 74.394C42.5212 72.5165 41.167 70.347 39.7546 68.2616L39.4931 68.0784C37.7953 64.8274 36.4028 61.3813 35.3685 57.4739C35.6087 60.393 36.0328 63.2621 36.7688 66.0076C37.3092 68.0197 37.8707 70.1676 38.6976 71.9987C39.1985 72.7052 39.6673 73.4493 40.0755 74.2577C39.2354 73.8436 38.423 73.3396 37.6393 72.7515C36.3565 71.5952 35.0422 70.5334 34.0194 68.9001C31.6481 65.118 29.7916 60.0272 28.8352 54.6549C28.8311 55.7612 28.8602 56.8822 28.9424 58.0243C29.0652 59.6829 29.2143 62.2205 29.5434 64.754L29.5075 64.9982C29.5329 67.9549 30.2739 70.8887 31.4499 73.4456L31.3508 73.4135L31.3468 73.4167L31.3031 73.3488L31.2845 73.3254L31.2727 73.2987C26.8442 66.6278 24.7475 57.0346 24.9919 47.687C24.8836 48.3342 24.7805 48.987 24.7026 49.6522C24.2877 53.1506 23.9641 56.8551 24.1292 60.4219L24.0962 60.7373C24.3181 64.2412 24.7607 67.5872 25.675 70.7326C24.3023 69.9509 23.026 68.918 21.9836 67.4458C19.0427 61.4172 18.682 53.5307 19.1947 46.4246L19.2924 45.277L19.1497 46.0298C18.5671 49.7022 18.1892 53.4985 18.2751 57.2678C18.324 59.3101 18.254 62.0194 18.5209 64.4207L18.3702 64.9982C18.4046 65.8658 18.435 66.7247 18.4852 67.5927C15.9776 60.7249 15.3157 53.6831 15.9248 46.1267C15.7411 46.8208 15.5694 47.5181 15.4293 48.2337C14.1821 54.7196 14.6644 60.3985 14.9273 66.7931C14.8665 67.349 14.7939 67.8994 14.6974 68.4461L14.5428 68.3818L14.5283 68.3529L14.1517 68.179C12.0207 64.8274 10.3666 61.0371 9.40613 56.9791L9.4114 57.8269C9.42331 63.0147 12.0617 68.285 12.2836 73.4456C12.4356 76.9978 11.2862 80.2882 9.62675 83.2454C9.25288 84.3283 8.82084 85.4222 8.29369 86.5285C7.032 89.186 5.67118 92.2056 3.75683 94.1152C2.89146 94.9833 1.86094 95.6953 1.02199 96.6276L0.831745 97.7284L0.917619 97.1367C3.53618 100.633 7.56047 101.469 11.2121 101.727C10.0548 103.484 8.72174 104.917 7.28431 106.171L7.30681 106.331C7.30681 106.331 7.29226 107.498 6.63169 109.323C6.23665 110.412 5.46111 112.657 5.49679 114.154C7.87356 116.256 10.541 117.188 13.3234 117.624L12.602 117.862C10.9611 118.359 9.54882 118.547 8.07571 119.483L8.55 119.13C7.89074 119.537 7.39136 120.116 7.40983 120.952C7.47855 123.977 8.81557 123.132 9.36649 126.167C10.5819 129.65 10.9519 133.732 11.6917 137.51C13.4872 141.365 16.0569 144.455 19.2752 145.143C21.3627 145.584 23.3907 145.525 25.3751 145.111C26.6632 144.846 27.9301 144.437 29.1825 143.918C35.2732 140.241 40.8433 134.406 45.1874 128.003Z" fill="#F0CDA9"/>
<path d="M12.602 117.862L13.3234 117.624C10.541 117.188 7.87356 116.256 5.4968 114.154H5.49548L5.5153 114.539C5.89052 117.206 9.97028 118.212 11.6851 118.083L11.6164 118.119L11.5662 118.133L11.3932 118.171L10.9215 118.271H10.9043C10.5925 118.339 10.216 118.427 9.82626 118.556L9.74831 118.578C9.37045 118.707 8.98468 118.868 8.63719 119.074L8.55 119.13L8.07571 119.483C9.54882 118.547 10.9611 118.359 12.602 117.862Z" fill="#D9B288"/>
<path d="M11.2121 101.727C7.56047 101.469 3.53618 100.633 0.91762 97.1368L0.831746 97.7285L0.830426 97.7556L0.810607 98.2844L0.825151 98.5644L0.855523 98.923L1.00217 99.6152L1.31134 100.419C2.08288 101.451 3.07907 102.263 3.93913 102.814C4.89832 103.434 7.17071 104.426 7.283 106.175L7.28432 106.171C8.72174 104.917 10.0548 103.485 11.2121 101.727Z" fill="#D9B288"/>
<path d="M105.427 26.7315C107.216 29.8159 108.77 33.1527 110.063 36.6892C108.774 33.1495 107.216 29.8214 105.427 26.7315Z" fill="#E78617"/>
<path d="M110.433 37.699C110.639 38.2907 110.83 38.8966 111.021 39.5026C110.831 38.8966 110.639 38.2907 110.433 37.699Z" fill="#E78617"/>
<path d="M112.448 44.8049C112.543 45.2263 112.645 45.644 112.732 46.0709C112.645 45.644 112.542 45.2263 112.448 44.8049Z" fill="#E78617"/>
<path d="M8.01098 41.9717C8.2065 41.1683 8.43507 40.365 8.69269 39.5764C8.43507 40.365 8.20782 41.1683 8.01098 41.9717Z" fill="#E78617"/>
<path d="M46.042 31.0012C40.5565 36.8362 36.7728 46.4294 37.1283 55.7844C35.9337 51.6672 35.9036 47.3888 36.6815 43.2808C37.4148 41.0824 38.3689 38.9519 39.625 36.8578C41.5765 33.6031 44.0787 31.1481 46.7821 29.1774C46.5152 29.7838 46.2761 30.3861 46.042 31.0012ZM33.7539 53.8623C31.9596 46.9389 33.5225 39.2407 36.5232 32.8732C38.2103 31.1839 40.0519 29.7567 41.9239 28.5035C39.164 32.4431 36.9605 37.2218 35.8505 42.275C34.6008 45.879 33.9798 49.7722 33.7539 53.8623ZM28.8247 43.564C29.2634 39.5707 30.253 35.7515 31.7391 32.2957C34.0048 29.9073 36.5469 27.8934 39.2036 26.1578C37.9512 27.9114 36.7924 29.877 35.7818 31.9873C32.7629 35.1148 30.2408 38.9519 28.8247 43.564ZM10.7101 55.5838C11.0629 56.276 11.7023 55.3721 11.7036 54.8071C11.7102 46.4528 14.1266 39.6621 17.9184 34.2917C16.9275 37.6161 16.3885 41.165 16.4889 44.8783C16.5127 45.7642 17.3225 45.4521 17.497 44.8461C19.5501 37.8043 23.1119 32.4555 27.4572 28.4673C22.4764 35.4301 19.3347 44.6437 21.2161 54.2888C21.3785 55.1192 22.199 54.4577 22.2518 53.8711C22.956 45.7679 25.8071 39.4757 29.7879 34.5267C28.0001 39.7681 27.2009 45.6352 27.5748 51.5473C27.6435 52.6413 28.6329 51.9238 28.6464 51.1117C28.7361 44.5753 31.0864 39.3178 34.4276 35.1864C31.7141 42.3393 30.8158 50.6022 33.7157 57.7119C34.0234 58.4707 34.7063 57.4503 34.7077 56.9375C34.7236 54.6367 34.8585 52.4797 35.1159 50.4048C35.2694 54.0037 36.0805 57.5884 37.7953 60.9813C38.1666 61.7162 38.9039 60.6549 38.7676 60.0127C36.807 50.7403 39.8882 40.5173 45.0751 33.9116C41.6689 45.7766 44.1714 58.9977 49.0874 70.9151C49.4215 71.7239 50.1548 70.5529 50.0611 69.9506C48.9646 62.9373 48.6196 55.7578 49.7756 49.0313C50.0953 59.2686 52.9637 69.9736 50.5935 80.0171C50.377 80.9265 51.2039 80.8494 51.5026 80.3848C53.7352 76.9149 55.3376 72.6186 56.8559 68.4495C56.3367 71.2452 55.5954 73.9673 54.4897 76.4921C54.1738 77.2215 54.5902 78.0951 55.1543 77.4299C59.6381 72.1311 63.623 65.5984 66.1146 58.2036C66.1938 65.76 66.1383 73.3072 65.7419 80.8581C65.6983 81.6651 66.4329 81.4319 66.6656 81.0234C67.8453 78.943 69.0805 76.6445 70.2338 74.2056C69.6382 85.2049 67.8717 96.0017 64.3958 106.212C64.1421 106.945 64.7063 107.487 65.1423 106.95C66.3656 105.441 67.4435 103.714 68.4281 101.878C67.799 108.007 68.1372 114.102 70.3661 119.736C70.6806 120.528 71.3293 119.433 71.3621 118.954C71.9371 109.99 73.9914 101.989 77.1304 94.7122C76.6468 98.6642 76.5358 102.69 76.8781 106.83C76.9376 107.542 77.5454 107.539 77.8028 106.997C79.2534 103.92 80.2603 100.571 81.3832 97.2604C82.1164 95.1065 83.0215 93.1055 84.0176 91.1817C83.5803 96.76 83.0056 102.301 81.7573 107.695C81.5486 108.584 82.3688 108.563 82.6647 108.057C85.6704 102.966 88.2521 97.4018 90.3791 91.5347C90.095 99.2114 89.2667 106.78 86.8251 113.878C86.5701 114.613 87.1356 115.154 87.5729 114.616C91.226 110.132 94.4405 105.211 97.1131 99.8908C97.3417 100.138 97.8122 100.027 98.0154 99.4909C99.0314 96.828 99.9497 94.115 100.788 91.3607C103.398 84.1596 105.069 76.3232 105.558 67.8633L105.479 67.4635C106.115 60.3248 106.081 53.0893 105.238 45.8882C107.258 52.7 108.631 59.7689 107.777 67.1422C107.685 67.8436 107.587 68.5372 107.481 69.2295C107.311 70.3326 108.373 70.0617 108.523 69.1992C108.651 68.4587 108.75 67.7339 108.834 67.0045C110.434 55.0458 110.232 42.9865 106.972 31.4924C106.517 29.9036 106 28.3061 105.427 26.7316C99.8716 17.1274 92.1507 9.79359 83.6239 5.59191C76.0721 1.87866 68.5126 0.736078 60.7914 0.533637C59.6513 0.621315 58.5125 0.739753 57.3724 0.910061C47.7954 2.2638 37.8879 5.00019 29.4389 11.5596C25.3552 14.7284 21.2491 18.5568 18.291 23.6009C17.9686 24.1476 17.67 24.7214 17.3635 25.281C13.7581 29.0034 10.5555 34.0084 8.75215 39.4202C9.52501 37.1015 10.5503 34.8563 11.7578 32.7585C9.27402 39.3141 7.48251 49.2429 10.7101 55.5838Z" fill="#E78617"/>
<path d="M39.2036 26.1578C36.5469 27.8935 34.0048 29.9074 31.7391 32.2958C30.253 35.7515 29.2633 39.5708 28.8247 43.5641C30.2408 38.952 32.7629 35.1148 35.7818 31.9873C36.7924 29.8771 37.9512 27.9114 39.2036 26.1578Z" fill="#E3611F"/>
<path d="M14.5283 68.3529L14.5428 68.3818L14.6974 68.4461C14.7939 67.8993 14.8665 67.3489 14.9273 66.793C14.6644 60.3985 14.1821 54.7196 15.4293 48.2336C15.5694 47.518 15.7411 46.8207 15.9248 46.1266C15.3157 53.683 15.9776 60.7248 18.4852 67.5927C18.435 66.7246 18.4046 65.8657 18.3702 64.9981L18.5209 64.4206C18.254 62.0194 18.324 59.31 18.2751 57.2677C18.1892 53.4985 18.5671 49.7021 19.1497 46.0298L19.2924 45.2769L19.1947 46.4245C18.682 53.5306 19.0427 61.4171 21.9836 67.4458C23.026 68.918 24.3023 69.9508 25.675 70.7326C24.7607 67.5872 24.3181 64.2412 24.0962 60.7372L24.1292 60.4219C23.9641 56.8551 24.2877 53.1505 24.7026 49.6521C24.7805 48.9869 24.8836 48.3342 24.9919 47.6869C24.7475 57.0345 26.8442 66.6278 31.2727 73.2987L31.2845 73.3253L31.3031 73.3487L31.3468 73.4166L31.3508 73.4134L31.4499 73.4456C30.2739 70.8887 29.5329 67.9549 29.5075 64.9981L29.5434 64.7539C29.2143 62.2204 29.0652 59.6828 28.9424 58.0243C28.8602 56.8821 28.8311 55.7611 28.8352 54.6548C29.7917 60.0271 31.6481 65.1179 34.0194 68.9C35.0422 70.5333 36.3565 71.5951 37.6393 72.7515C38.423 73.3395 39.2354 73.8436 40.0755 74.2576C39.6673 73.4492 39.1985 72.7051 38.6976 71.9986C37.8707 70.1675 37.3092 68.0196 36.7688 66.0076C36.0328 63.262 35.6087 60.3929 35.3685 57.4739C36.4028 61.3813 37.7953 64.8274 39.4931 68.0784L39.7546 68.2615C41.167 70.347 42.5212 72.5164 44.0763 74.394C43.8991 73.2339 43.7564 72.0629 43.6481 70.874C43.2849 68.7527 42.7113 66.6603 42.2861 64.557C41.7206 61.7701 41.1869 58.9745 40.6556 56.1844L40.9542 57.1204C42.1366 60.7157 43.4567 64.3793 44.8569 67.9673C46.4185 73.7109 47.2258 79.3898 47.7859 85.5727C48.3754 92.0674 47.724 98.141 47.3739 104.591C47.334 105.33 48.0345 104.985 48.1505 104.517C48.7968 101.907 49.4601 99.2974 50.1088 96.6813C50.4734 94.465 50.9925 92.211 51.673 90.154C51.7904 89.6358 51.9159 89.1161 52.0322 88.5979C52.3018 87.3818 52.6031 86.1842 52.9136 84.9847C53.9124 83.8747 55.0299 83.1714 56.2745 82.7914C57.3646 82.0472 58.5416 81.685 59.6885 81.8035C60.5604 81.9003 61.4114 82.2625 62.1906 82.9153C64.1276 84.5399 66.301 88.1062 65.0655 95.6984C64.1472 101.359 62.4311 102.099 58.3065 106.653C56.5373 108.608 53.4328 113.727 51.303 112.588C51.2858 113.225 51.2608 113.878 51.2198 114.539L51.2185 114.584C51.2898 115.113 51.3703 115.646 51.4458 116.173C53.9161 122.98 58.0434 128.885 62.5238 133.69L63.1921 134.411C63.7721 135.012 64.3562 135.604 64.9441 136.169L65.2491 135.968L65.285 135.918L64.8223 135.665C61.962 132.528 61.1733 127.699 63.1275 122.732L63.3744 121.699L63.9108 120.749C65.4396 121.113 66.696 121.782 67.9113 122.526C69.9801 124.032 71.8762 125.704 73.8565 127.378C74.8924 128.255 75.7407 129.173 76.4448 130.142C76.4631 128.75 76.5571 127.328 76.7181 125.892C77.0922 122.564 77.4132 119.175 78.0196 115.599C78.0855 115.214 78.1637 114.708 78.2587 114.143C78.3815 113.684 78.5019 113.277 78.6037 112.983L79.2524 113.322C80.2021 113.925 81.3818 114.658 82.9765 115.567C85.6823 118.171 86.3151 121.393 85.8859 124.871L85.3258 126.052C87.4119 124.827 89.4622 123.362 91.4678 121.484C99.8229 113.643 106.435 99.2295 110.263 86.444C112.088 80.3437 113.468 73.6517 114.176 66.8431C114.439 61.0457 114.226 55.2397 113.37 49.6016C113.189 48.4076 112.971 47.2329 112.732 46.0711C112.645 45.6442 112.543 45.2264 112.448 44.805C112.285 44.093 112.12 43.3865 111.939 42.6929C111.802 42.1604 111.656 41.6422 111.509 41.1184C111.353 40.5717 111.187 40.0355 111.021 39.5025C110.83 38.8966 110.639 38.2906 110.433 37.6989L110.063 36.6895C108.77 33.153 107.216 29.8161 105.427 26.7318C106 28.3063 106.517 29.9038 106.972 31.4926C110.232 42.9867 110.434 55.0459 108.834 67.0046C108.75 67.7341 108.651 68.4589 108.523 69.1994C108.373 70.0619 107.311 70.3327 107.481 69.2297C107.587 68.5374 107.685 67.8438 107.777 67.1424C108.631 59.7691 107.258 52.7002 105.238 45.8884C106.081 53.0895 106.115 60.325 105.479 67.4637L105.558 67.8635C105.069 76.3233 103.398 84.1598 100.788 91.3609C99.9497 94.1152 99.0314 96.8282 98.0154 99.4911C97.8121 100.027 97.3417 100.138 97.113 99.8909C94.4404 105.211 91.226 110.132 87.5729 114.616C87.1356 115.154 86.5701 114.613 86.8251 113.878C89.2667 106.78 90.095 99.2115 90.3791 91.5349C88.2521 97.402 85.6704 102.966 82.6647 108.057C82.3688 108.563 81.5486 108.584 81.7572 107.695C83.0056 102.301 83.5803 96.7602 84.0176 91.1818C83.0215 93.1057 82.1164 95.1067 81.3832 97.2606C80.2603 100.571 79.2534 103.92 77.8028 106.997C77.5454 107.539 76.9376 107.542 76.8781 106.83C76.5358 102.69 76.6468 98.6644 77.1304 94.7124C73.9914 101.989 71.9371 109.99 71.3621 118.954C71.3293 119.433 70.6806 120.528 70.366 119.736C68.1372 114.102 67.799 108.007 68.4281 101.878C67.4435 103.714 66.3656 105.441 65.1423 106.951C64.7063 107.487 64.1421 106.945 64.3958 106.212C67.8717 96.0019 69.6382 85.205 70.2338 74.2057C69.0805 76.6447 67.8453 78.9431 66.6656 81.0235C66.4329 81.4321 65.6983 81.6653 65.7419 80.8583C66.1383 73.3074 66.1938 65.7602 66.1146 58.2037C63.623 65.5986 59.6381 72.1313 55.1543 77.4301C54.5902 78.0953 54.1738 77.2217 54.4897 76.4923C55.5954 73.9675 56.3367 71.2453 56.8559 68.4497C55.3376 72.6188 53.7352 76.9151 51.5026 80.385C51.2039 80.8496 50.377 80.9267 50.5934 80.0173C52.9637 69.9738 50.0953 59.2687 49.7756 49.0315C48.6196 55.7579 48.9646 62.9375 50.0611 69.9508C50.1548 70.5531 49.4215 71.7241 49.0874 70.9153C44.1714 58.9979 41.6689 45.7768 45.0751 33.9118C39.8882 40.5175 36.807 50.7405 38.7676 60.0129C38.9039 60.6551 38.1666 61.7164 37.7953 60.9814C36.0805 57.5886 35.2694 54.0039 35.1159 50.405C34.8585 52.4799 34.7236 54.6369 34.7077 56.9377C34.7063 57.4504 34.0234 58.4709 33.7157 57.7121C30.8158 50.6023 31.7141 42.3395 34.4276 35.1865C31.0864 39.318 28.7361 44.5755 28.6464 51.1119C28.6329 51.9239 27.6435 52.6414 27.5748 51.5475C27.2009 45.6354 28.0001 39.7683 29.7879 34.5269C25.8071 39.4759 22.956 45.7681 22.2518 53.8712C22.199 54.4579 21.3785 55.1194 21.216 54.289C19.3347 44.6439 22.4764 35.4303 27.4572 28.4674C23.1119 32.4557 19.5501 37.8045 17.497 44.8463C17.3225 45.4523 16.5127 45.7644 16.4889 44.8785C16.3885 41.1652 16.9275 37.6163 17.9184 34.2919C14.1266 39.6623 11.7102 46.453 11.7036 54.8072C11.7023 55.3723 11.0629 56.2762 10.7101 55.5839C7.48251 49.2431 9.27402 39.3143 11.7578 32.7586C10.5503 34.8565 9.52501 37.1017 8.75215 39.4204L8.69269 39.5764C8.43507 40.3651 8.2065 41.1684 8.01098 41.9718C6.8404 46.7973 6.37008 51.8739 6.60923 56.9414C6.69906 58.8565 7.09806 60.9489 7.68199 62.6937C8.08231 63.8771 8.55794 64.9389 9.05864 66.054C8.92126 65.751 9.25156 66.4253 9.5911 67.0189C9.42727 66.1223 9.33213 65.2042 9.27135 64.3183C8.74156 62.3173 8.3492 60.3016 8.22236 57.9292C8.07176 55.1873 8.20386 52.3793 8.48658 49.62C8.52094 52.1447 8.84462 54.6103 9.40613 56.979C10.3666 61.037 12.0207 64.8274 14.1517 68.1789L14.5283 68.3529Z" fill="#E3611F"/>
<path d="M39.625 36.8581C38.3689 38.9522 37.4148 41.0827 36.6815 43.2811C35.9036 47.3891 35.9337 51.6675 37.1283 55.7847C36.7728 46.4297 40.5565 36.8365 46.042 31.0015C46.2761 30.3864 46.5152 29.7841 46.7821 29.1777C44.0787 31.1484 41.5765 33.6034 39.625 36.8581Z" fill="#E3611F"/>
<path d="M36.5232 32.8733C33.5225 39.2408 31.9596 46.939 33.7539 53.8624C33.9798 49.7723 34.6008 45.8791 35.8505 42.2751C36.9605 37.2219 39.164 32.4432 41.9239 28.5036C40.0519 29.7568 38.2103 31.184 36.5232 32.8733Z" fill="#E3611F"/>
<path d="M60.0372 96.21C59.9117 97.2374 59.7067 98.2147 59.4703 99.0088C58.4875 102.305 56.2667 105.106 53.4947 105.133C52.3772 105.147 51.4918 104.647 51.8432 102.866C51.9859 102.145 52.5369 101.157 52.9546 100.686C53.6783 99.859 53.8014 97.6285 53.8397 96.4753C53.9425 93.3713 53.907 89.2917 57.0751 89.2595C60.0135 89.2274 60.4309 92.9641 60.0372 96.21ZM58.3065 106.653C62.4311 102.099 64.1472 101.36 65.0655 95.6986C66.301 88.1064 64.1276 84.5401 62.1906 82.9155C61.4114 82.2627 60.5604 81.9005 59.6885 81.8037C58.5416 81.6852 57.3646 82.0474 56.2745 82.7915C55.804 83.1074 55.3458 83.4751 54.9189 83.9428C53.5806 85.4026 52.5078 87.6244 51.673 90.1542C50.9925 92.2112 50.4734 94.4652 50.1088 96.6815C49.7993 98.5732 49.5947 100.427 49.5047 102.104C49.3451 105.047 49.131 109.108 50.3479 111.504C50.633 112.065 50.9567 112.4 51.303 112.588C53.4328 113.727 56.5373 108.608 58.3065 106.653Z" fill="#F0CDA9"/>
<path d="M57.0751 89.2594C53.907 89.2915 53.9425 93.3711 53.8397 96.4752C53.8015 97.6283 53.6783 99.8588 52.9546 100.686C52.5369 101.157 51.9859 102.145 51.8432 102.866C51.4918 104.647 52.3772 105.147 53.4947 105.132C56.2667 105.106 58.4875 102.305 59.4703 99.0087C59.7068 98.2145 59.9117 97.2372 60.0372 96.2098C60.4309 92.9639 60.0135 89.2273 57.0751 89.2594Z" fill="#E3BA8E"/>
<path d="M96.6876 214.345C96.0852 214.53 95.4615 214.497 94.891 214.304C94.5686 215.039 93.9554 215.64 93.2408 215.896C92.6925 216.095 92.1785 216.052 91.753 215.823C91.7202 216.71 91.6884 217.797 91.6698 219H95.7297C97.1012 215.866 99.3379 215.616 99.3379 215.616C99.3379 215.616 100.487 216.696 101.662 219H102.815C101.59 216.011 99.9443 213.977 98.5928 212.688C98.1791 213.473 97.5199 214.08 96.6876 214.345Z" fill="#E3611F"/>
<path d="M91.8034 202.272L91.8088 202.351L91.6961 202.74L91.6752 202.727C92.4149 204.64 93.0585 206.674 93.5141 208.754C93.9781 208.153 94.6001 207.685 95.3333 207.456C95.8447 207.303 96.3324 207.294 96.7816 207.386C97.3694 205.523 97.8345 203.452 98.1554 201.271C98.1105 197.866 97.4394 194.326 96.1474 191.401C95.7761 193.279 95.2951 195.074 94.6728 196.686C93.8854 198.737 92.7426 200.487 91.8034 202.272Z" fill="#E78617"/>
<path d="M91.5284 202.783L91.2906 202.53L91.2761 202.489C89.8586 201.644 88.6958 200.844 87.4857 199.799C86.5478 198.981 85.5186 197.975 84.4285 196.828C84.3967 200.161 85.1009 203.443 86.3296 206.183C87.5333 207.813 88.6789 209.251 89.8322 210.407L90.5442 211.076L91.2592 211.697C91.5074 211.358 91.8165 211.081 92.197 210.931L92.7044 210.811C92.7717 210.063 93.0585 209.351 93.5141 208.754C93.0585 206.674 92.4149 204.64 91.6752 202.727L91.5839 202.677L91.5284 202.783Z" fill="#E3611F"/>
<path d="M89.6973 192.334L89.7027 192.398L89.6604 192.558C90.7542 195.565 91.6116 198.89 91.8034 202.271C92.7426 200.487 93.8854 198.737 94.6728 196.686C95.2951 195.074 95.7761 193.279 96.1474 191.401C96.2452 190.906 96.3389 190.41 96.4221 189.9C96.3984 186.705 95.7774 183.465 94.5845 180.719C94.1523 182.785 93.5776 184.768 92.7943 186.54C91.8629 188.629 90.6237 190.447 89.6973 192.334Z" fill="#E3611F"/>
<path d="M91.5284 202.782L91.5839 202.677L91.2761 202.488L91.2906 202.53L91.5284 202.782Z" fill="#E3611F"/>
<path d="M87.4857 199.799C88.6958 200.844 89.8586 201.644 91.2761 202.489L91.5839 202.677L91.6752 202.727L91.6961 202.74L91.8088 202.351L91.8034 202.272C91.6116 198.89 90.7542 195.565 89.6604 192.558L89.5958 192.802L89.4886 192.746L89.4291 192.861L89.2018 192.632L89.1876 192.587C87.8212 191.88 86.6919 191.219 85.3535 190.259C84.2012 189.438 82.7178 188.35 81.3964 187.032C81.3372 190.186 82.1205 193.258 83.4693 195.809L83.8183 196.18L84.4285 196.828C85.5186 197.975 86.5478 198.981 87.4857 199.799Z" fill="#E78617"/>
<path d="M87.4633 181.446L87.4674 181.505L87.3669 181.926C88.5544 185.048 89.4954 188.624 89.6973 192.334C90.6237 190.447 91.8629 188.629 92.7943 186.54C93.5777 184.768 94.1523 182.785 94.5845 180.719L94.8105 179.609C94.8142 176.143 94.1205 172.659 92.6489 169.849C92.1561 171.8 91.5088 173.678 90.6115 175.349C89.4754 177.465 88.3339 179.416 87.4633 181.446Z" fill="#E78617"/>
<path d="M89.1876 192.587L89.2018 192.632L89.4291 192.861L89.4886 192.747L89.1876 192.587Z" fill="#E78617"/>
<path d="M85.3535 190.259C86.6919 191.219 87.8212 191.88 89.1876 192.587L89.4886 192.746L89.5958 192.802L89.6604 192.558L89.7027 192.399L89.6973 192.334C89.4954 188.624 88.5544 185.048 87.3669 181.926L87.2678 181.885L87.2124 182.014L86.9915 181.808L86.977 181.761C85.6691 181.211 84.5185 180.702 82.8815 179.816C81.5618 179.104 80.0344 178.077 78.7184 176.868C78.5083 180.27 79.3079 183.63 80.7636 186.399L81.3964 187.032C82.7178 188.35 84.2012 189.438 85.3535 190.259Z" fill="#E3611F"/>
<path d="M85.3072 170.491L85.3136 170.585L85.2108 171.029L85.1949 171.024C86.38 174.069 87.2597 177.639 87.4633 181.446C88.3339 179.416 89.4754 177.465 90.6115 175.349C91.5088 173.678 92.1561 171.801 92.6489 169.85C92.7771 169.335 92.9026 168.822 93.0108 168.298C93.0636 164.782 92.3621 161.289 90.7214 158.544C90.1123 160.495 89.289 162.357 88.2707 164.043C86.9756 166.182 86.1091 168.322 85.3072 170.491Z" fill="#E3611F"/>
<path d="M86.977 181.762L86.9915 181.808L87.2124 182.014L87.2678 181.885L86.977 181.762Z" fill="#E3611F"/>
<path d="M82.8815 179.816C84.5185 180.702 85.6691 181.211 86.977 181.762L87.2678 181.885L87.3669 181.927L87.4674 181.505L87.4633 181.446C87.2597 177.639 86.38 174.069 85.1949 171.024L85.1168 171.002L85.0681 171.135L84.8472 170.965L84.8316 170.92C83.5329 170.538 82.1668 170.194 80.0567 169.29C78.396 168.584 77.009 167.545 75.7552 166.36C75.5371 169.773 76.3339 173.163 77.795 175.959C78.0828 176.276 78.3987 176.574 78.7183 176.868C80.0344 178.077 81.5618 179.104 82.8815 179.816Z" fill="#E78617"/>
<path d="M83.2566 159.833L83.2633 159.953L83.1696 160.374C84.348 163.281 85.109 166.71 85.3072 170.491C86.1091 168.322 86.9756 166.182 88.2707 164.043C89.289 162.358 90.1123 160.495 90.7214 158.544C90.8878 158.006 91.0451 157.47 91.1783 156.923C91.2906 153.415 90.6105 149.996 88.8189 147.32C88.0366 149.298 86.9574 151.176 85.9968 152.98C84.7958 155.239 84.068 157.538 83.2566 159.833Z" fill="#E78617"/>
<path d="M84.8317 170.92L84.8472 170.964L85.0681 171.135L85.1168 171.002L84.8317 170.92Z" fill="#E78617"/>
<path d="M80.0567 169.29C82.1668 170.194 83.5329 170.538 84.8317 170.92L85.1168 171.002L85.1949 171.024L85.2108 171.029L85.3136 170.584L85.3072 170.491C85.109 166.71 84.348 163.281 83.1696 160.374L83.1602 160.416L83.0574 160.398L83.0056 160.539L82.781 160.392L82.7678 160.351C81.3095 160.118 79.1543 159.818 77.055 158.864C75.4038 158.117 73.9992 157.055 72.6741 155.89C72.4772 159.268 73.2754 162.625 74.7642 165.37C75.0852 165.709 75.417 166.035 75.7552 166.36C77.009 167.545 78.396 168.583 80.0567 169.29Z" fill="#E3611F"/>
<path d="M81.4058 150.299L81.4136 150.44L81.3899 150.528C82.5051 153.194 83.0915 156.308 83.2566 159.833C84.068 157.538 84.7958 155.239 85.9968 152.98C86.9574 151.176 88.0366 149.298 88.8189 147.32C89.0185 146.815 89.214 146.305 89.3631 145.782C89.5414 142.533 88.9762 139.411 87.2861 136.886C86.355 139.029 84.9822 141.049 84.0335 143.083C82.9292 145.455 82.3133 147.897 81.4058 150.299Z" fill="#E3611F"/>
<path d="M82.7679 160.351L82.781 160.392L83.0056 160.539L83.0574 160.398L82.7679 160.351Z" fill="#E3611F"/>
<path d="M77.055 158.865C79.1543 159.819 81.3094 160.118 82.7678 160.351L83.0574 160.398L83.1602 160.416L83.1696 160.374L83.2633 159.953L83.2566 159.833C83.0915 156.308 82.505 153.194 81.3899 150.528L81.2908 150.919L81.1772 150.908L81.1217 151.061L80.8667 150.923L80.8522 150.881C79.1756 150.752 76.4185 150.396 74.3097 149.407C72.5381 148.586 70.983 147.456 69.4319 146.291C69.416 147.039 69.44 147.78 69.5232 148.509C69.7846 150.849 70.5206 153.071 71.6462 154.963C71.9831 155.28 72.3294 155.587 72.6741 155.89C73.9992 157.056 75.4038 158.117 77.055 158.865Z" fill="#E78617"/>
<path d="M79.2734 139.943L79.2788 140.067L79.1347 140.488C80.6726 143.23 81.2672 146.479 81.4058 150.299C82.3133 147.897 82.9292 145.455 84.0335 143.083C84.9822 141.049 86.355 139.028 87.2861 136.886L87.7211 135.788C88.0062 132.308 87.3683 129.04 85.1168 126.446C84.0598 128.425 82.7519 130.324 81.9541 132.327C80.9513 134.832 80.4385 137.451 79.2734 139.943Z" fill="#E78617"/>
<path d="M80.8522 150.882L80.8667 150.923L81.1217 151.061L81.1772 150.909L80.8522 150.882Z" fill="#E78617"/>
<path d="M78.9707 140.553L78.8969 140.714L78.5733 140.594L78.5479 140.549C76.5122 140.479 73.3387 139.961 71.1866 138.997C69.5005 138.243 67.9008 137.316 66.2256 136.407C65.9506 139.832 66.8306 143.124 68.5985 145.661L69.4319 146.291C70.983 147.456 72.5381 148.586 74.3097 149.407C76.4185 150.396 79.1756 150.752 80.8522 150.881L81.1772 150.908L81.2908 150.919L81.3899 150.528L81.4136 150.44L81.4058 150.299C81.2672 146.479 80.6726 143.23 79.1347 140.488L79.111 140.558L78.9707 140.553Z" fill="#E3611F"/>
<path d="M82.9765 115.567C81.3818 114.658 80.2021 113.925 79.2524 113.322L78.6037 112.983C78.5019 113.277 78.3815 113.684 78.2587 114.143C78.1637 114.708 78.0855 115.214 78.0196 115.599C77.4132 119.175 77.0922 122.564 76.7181 125.892C76.5571 127.328 76.4631 128.75 76.4448 130.142C78.4346 132.882 79.2007 136.05 79.2734 139.943C80.4385 137.451 80.9513 134.833 81.9541 132.327C82.7519 130.325 84.0598 128.426 85.1168 126.446L85.3258 126.052L85.8859 124.872C86.3151 121.393 85.6823 118.171 82.9765 115.567Z" fill="#E3611F"/>
<path d="M78.8969 140.714L78.9707 140.553L78.5479 140.55L78.5733 140.594L78.8969 140.714Z" fill="#E3611F"/>
<path d="M71.1866 138.997C73.3387 139.961 76.5122 140.479 78.5479 140.55L78.9707 140.553L79.111 140.558L79.1347 140.489L79.2788 140.067L79.2734 139.943C79.2007 136.05 78.4346 132.882 76.4449 130.142C75.7407 129.173 74.8924 128.255 73.8565 127.379C71.8762 125.704 69.9801 124.033 67.9113 122.526C66.696 121.782 65.4396 121.113 63.9108 120.749L63.3744 121.7L63.1275 122.733C61.1733 127.699 61.962 132.529 64.8223 135.665L65.285 135.918C65.6019 136.077 65.9164 136.242 66.2256 136.407C67.9008 137.317 69.5005 138.243 71.1866 138.997Z" fill="#E78617"/>
<path d="M92.2948 215.469L91.9803 215.272L92.168 214.86L92.4862 215.062L92.2948 215.469ZM90.9274 214.042C90.8242 213.538 91.0583 212.964 91.4692 212.776C91.8761 212.588 92.3147 212.858 92.4203 213.371C92.5275 213.886 92.2593 214.442 91.8497 214.625C91.4374 214.809 91.0332 214.557 90.9274 214.042ZM91.2592 211.696L90.8919 212.371C90.6592 212.973 90.5905 213.656 90.7214 214.304C90.8706 215.039 91.2497 215.557 91.753 215.823C92.1784 216.052 92.6925 216.095 93.2408 215.896C93.9554 215.64 94.5686 215.039 94.891 214.304C93.8658 213.959 93.0057 213.068 92.7494 211.867L92.7044 210.811L92.197 210.931C91.8166 211.081 91.5074 211.358 91.2592 211.696Z" fill="#CF5D36"/>
<path d="M98.26 209.442C98.4646 210.549 97.8822 211.682 96.9253 211.985C95.9675 212.288 94.9424 211.655 94.7137 210.563C94.4865 209.475 95.1828 208.354 96.1657 208.038C97.1499 207.712 98.0604 208.345 98.26 209.442ZM96.6162 213.965C96.2902 214.065 95.9543 213.841 95.8806 213.473C95.8079 213.115 96.0311 212.729 96.3588 212.632C96.6889 212.532 97.0062 212.738 97.0775 213.1C97.1448 213.468 96.9453 213.863 96.6162 213.965ZM95.3334 207.456C94.6001 207.685 93.9781 208.153 93.5141 208.754C93.0585 209.351 92.7717 210.063 92.7044 210.811L92.7494 211.867C93.0057 213.068 93.8658 213.959 94.891 214.304C95.4615 214.497 96.0852 214.53 96.6876 214.345C97.5199 214.08 98.1791 213.473 98.5928 212.688C99.0209 211.89 99.1901 210.902 99.0128 209.925C98.7673 208.551 97.9018 207.621 96.7816 207.386C96.3324 207.294 95.8447 207.303 95.3334 207.456Z" fill="#CD4693"/>
<path d="M94.7137 210.563C94.9424 211.655 95.9675 212.288 96.9253 211.985C97.8822 211.682 98.4646 210.549 98.2599 209.443C98.0604 208.345 97.1499 207.712 96.1657 208.039C95.1828 208.354 94.4864 209.475 94.7137 210.563Z" fill="#E25F9F"/>
<path d="M92.4203 213.371C92.3147 212.859 91.8761 212.588 91.4692 212.776C91.0583 212.964 90.8242 213.538 90.9274 214.042C91.0332 214.557 91.4374 214.81 91.8497 214.625C92.2593 214.442 92.5275 213.886 92.4203 213.371Z" fill="#EE7832"/>
<path d="M92.168 214.86L91.9802 215.272L92.2948 215.469L92.4862 215.062L92.168 214.86Z" fill="#EE7832"/>
<path d="M96.3588 212.632C96.0311 212.729 95.8079 213.115 95.8806 213.473C95.9543 213.841 96.2902 214.065 96.6162 213.965C96.9453 213.863 97.1448 213.468 97.0775 213.1C97.0062 212.738 96.6889 212.532 96.3588 212.632Z" fill="#E25F9F"/>
<path d="M99.3379 215.616C99.3379 215.616 97.1012 215.866 95.7297 219H101.662C100.487 216.696 99.3379 215.616 99.3379 215.616Z" fill="#E78617"/>
</svg>
